<svg width="31" height="31" viewBox="0 0 31 31" fill="none" xmlns="http://www.w3.org/2000/svg">
<path d="M1.25061 1.23047H29.1506V29.1305H1.25061V1.23047Z" fill="white"/>
<path d="M29.1503 5.96289H1.61535M29.1503 10.4548H1.5921M29.1503 14.9467H1.56653M29.1503 19.4386H1.54328M29.1503 23.9328H1.5177" stroke="#B0BEC5" stroke-width="0.465" stroke-miterlimit="10"/>
<path d="M9.32276 28.6417H5.40979V13.1735C5.40979 12.8573 5.66554 12.6016 5.98174 12.6016H8.75081C9.06701 12.6016 9.32276 12.8573 9.32276 13.1735V28.6417Z" fill="#9CCC65"/>
<path d="M17.1581 28.6446H13.2428V17.7009C13.2428 17.3847 13.4985 17.1289 13.8147 17.1289H16.5838C16.9 17.1289 17.1558 17.3847 17.1558 17.7009V28.6446H17.1581Z" fill="#F44336"/>
<path d="M24.4163 28.6419H21.6473C21.3311 28.6419 21.0753 28.3861 21.0753 28.0699V6.31023C21.0753 5.99403 21.3311 5.73828 21.6473 5.73828H24.4163C24.7325 5.73828 24.9883 5.99403 24.9883 6.31023V28.0699C24.9883 28.3861 24.7325 28.6419 24.4163 28.6419Z" fill="#0091EA"/>
<path d="M29.1506 28.2005H2.18061V1.23047H1.25061V29.1305H29.1506V28.2005Z" fill="#B0BEC5"/>
<path d="M28.6856 1.69547V28.6655H1.71561V1.69547H28.6856ZM29.1506 1.23047H1.25061V29.1305H29.1506V1.23047Z" fill="#B0BEC5"/>
</svg>
