<svg width="300" height="223" viewBox="0 0 300 223" fill="none" xmlns="http://www.w3.org/2000/svg">
<path d="M299.358 195.627H0.641602V195.776H299.358V195.627Z" fill="#E0E0E0"/>
<path d="M226.273 201.954H205.719V202.103H226.273V201.954Z" fill="#E0E0E0"/>
<path d="M66.9808 202.029H55.415V202.179H66.9808V202.029Z" fill="#E0E0E0"/>
<path d="M150.597 201.679H127.154V201.828H150.597V201.679Z" fill="#E0E0E0"/>
<path d="M126.557 199.555H116.077V199.704H126.557V199.555Z" fill="#E0E0E0"/>
<path d="M254.285 199.629H222.63V199.778H254.285V199.629Z" fill="#E0E0E0"/>
<path d="M142.242 168.983H26.8779C24.9978 168.983 23.4678 167.453 23.4678 165.573V3.41015C23.4678 1.53003 24.9978 0 26.8779 0H142.242C144.121 0 145.651 1.53003 145.651 3.41015V165.573C145.651 167.453 144.121 168.983 142.242 168.983ZM26.8779 0.149955C25.0796 0.149955 23.6171 1.61247 23.6171 3.41075V165.573C23.6171 167.372 25.0796 168.834 26.8779 168.834H142.242C144.039 168.834 145.502 167.372 145.502 165.573V3.41015C145.502 1.61247 144.039 0.149358 142.242 0.149358L26.8779 0.149955Z" fill="#E0E0E0"/>
<path d="M271.464 168.983H156.101C154.221 168.983 152.691 167.453 152.691 165.573V3.41015C152.691 1.53003 154.221 0 156.101 0H271.464C273.345 0 274.874 1.53003 274.874 3.41015V165.573C274.875 167.453 273.345 168.983 271.464 168.983ZM156.101 0.149955C154.303 0.149955 152.841 1.61247 152.841 3.41075V165.573C152.841 167.372 154.303 168.834 156.101 168.834H271.464C273.262 168.834 274.725 167.372 274.725 165.573V3.41015C274.725 1.61247 273.262 0.149358 271.464 0.149358L156.101 0.149955Z" fill="#E0E0E0"/>
<path d="M263.102 120.847C255.75 109.659 262.462 97.6289 261.343 85.1832C260.224 72.7375 248.397 70.0204 250.635 59.4715C253.23 47.2402 246.32 35.4971 238.488 35.4971C230.656 35.4971 223.746 47.2402 226.341 59.4715C228.578 70.0204 216.751 72.7375 215.632 85.1832C214.513 97.6289 221.226 109.658 213.874 120.847C206.522 132.035 208.451 146.855 212.595 154.209C213.737 156.235 215.081 158.029 216.546 159.616C228.304 172.35 248.672 172.35 260.431 159.616C261.895 158.029 263.24 156.236 264.381 154.209C268.525 146.855 270.454 132.035 263.102 120.847Z" fill="#E0E0E0"/>
<path d="M242.204 195.627H234.771V133.056C234.771 131.012 236.444 129.34 238.488 129.34C240.531 129.34 242.204 131.012 242.204 133.056V195.627Z" fill="#F0F0F0"/>
<path d="M191.766 195.627H181.647V133.06C181.647 130.277 183.924 128.001 186.707 128.001C189.489 128.001 191.766 130.278 191.766 133.06V195.627Z" fill="#E0E0E0"/>
<path d="M186.706 178.749C203.919 178.749 217.873 164.795 217.873 147.582C217.873 130.369 203.919 116.415 186.706 116.415C169.493 116.415 155.539 130.369 155.539 147.582C155.539 164.795 169.493 178.749 186.706 178.749Z" fill="#F0F0F0"/>
<path d="M223.332 138.237C224.967 131.654 220.956 124.992 214.373 123.356C207.79 121.721 201.128 125.732 199.492 132.315C197.857 138.898 201.868 145.56 208.451 147.196C215.034 148.831 221.696 144.82 223.332 138.237Z" fill="#F0F0F0"/>
<path d="M168.684 129.17C169.329 125.206 166.639 121.469 162.675 120.823C158.711 120.178 154.973 122.867 154.328 126.831C153.682 130.795 156.372 134.532 160.336 135.178C164.301 135.824 168.038 133.134 168.684 129.17Z" fill="#F0F0F0"/>
<path d="M169.407 129.34C172.225 129.34 174.51 127.054 174.51 124.236C174.51 121.417 172.225 119.132 169.407 119.132C166.588 119.132 164.303 121.417 164.303 124.236C164.303 127.054 166.588 129.34 169.407 129.34Z" fill="#F0F0F0"/>
<path d="M122.499 158.284C117.31 159.055 112.812 160.936 108.928 163.462C108.891 158.734 108.025 154.242 105.803 150.615C102.42 153.912 99.6793 158.176 97.4658 162.763C96.6366 154.14 94.3729 145.786 89.3598 140.506C81.8489 145.23 77.9775 153.105 76.1362 161.445C73.1437 156.101 69.0148 151.168 63.3135 147.582C58.7181 152.422 57.2508 159.115 57.3727 165.969C52.1523 159.891 46.3542 155.146 40.7031 154.589C39.3117 164.216 42.2749 173.293 46.0405 180.45C50.9801 189.838 60.8067 195.627 71.4147 195.627H95.9603C106.422 195.627 116.23 190.046 121.139 180.807C124.247 174.956 125.726 167.421 122.499 158.284Z" fill="#E0E0E0"/>
<path d="M115.501 34.1655C118.534 25.2811 116.127 18.9561 108.712 18.9561C104.062 18.9561 98.2964 21.4456 92.6817 25.4991C92.0473 23.1883 90.2609 21.8034 87.3867 21.8034C82.3288 21.8034 75.3568 26.0822 69.8873 32.1193C68.5639 30.7733 66.6486 29.9488 64.1877 29.8162C59.3473 29.5438 53.4841 32.0022 48.3868 36.0014C47.9453 35.3323 47.1884 34.9123 46.1435 34.8502C43.3541 34.6948 39.5783 37.1766 37.7023 40.3896C37.5852 40.5921 37.4819 40.7863 37.3779 40.981H43.1718H47.7816H63.7946H71.6748H77.8021H87.2397H88.9525H112.364H116.973C117.212 38.1797 116.716 35.8377 115.501 34.1655Z" fill="#F0F0F0"/>
<path d="M115.747 88.1094C117.229 83.7696 116.053 80.6797 112.431 80.6797C110.16 80.6797 107.343 81.8961 104.601 83.876C104.292 82.7474 103.419 82.0711 102.015 82.0711C99.5438 82.0711 96.1384 84.1609 93.4667 87.1105C92.8203 86.4533 91.8847 86.05 90.6827 85.9855C88.318 85.8523 85.4545 87.0537 82.9644 89.0067C82.7487 88.6799 82.3789 88.4744 81.8687 88.4445C80.506 88.3686 78.6617 89.5808 77.7452 91.1503C77.6879 91.2489 77.6377 91.3439 77.5869 91.4395H80.417H82.6687H90.4909H94.3401H97.3333H101.944H102.78H114.216H116.467C116.583 90.0701 116.341 88.9261 115.747 88.1094Z" fill="#F0F0F0"/>
<path d="M205.422 55.2875C205.119 55.2433 204.811 55.2206 204.499 55.2206C204.785 50.8856 203.128 48.1177 199.588 48.1177C197.034 48.1177 193.901 49.5629 190.706 52.0082C191.62 43.5939 188.693 38.125 182.066 38.125C176.72 38.125 169.952 41.6821 163.267 47.4844C162.681 44.183 160.711 42.2043 157.402 42.2043C151.587 42.2043 143.326 48.3178 136.702 56.9436C136.702 56.9436 136.699 56.9549 136.693 56.9436C135.263 55.0204 133.112 53.8309 130.285 53.6421C124.749 53.2532 117.875 56.7655 111.781 62.4901C111.317 61.5229 110.473 60.9231 109.266 60.8448C106.239 60.6333 102.067 63.7901 99.6436 68.0146H106.706H111.494H129.905H138.528H146.206H157.112H177.716H185.747H188.606H200.037H210.294C212.892 61.6125 210.822 56.0104 205.422 55.2875Z" fill="#F0F0F0"/>
<path d="M150 222.609C213.974 222.609 265.836 219.58 265.836 215.844C265.836 212.108 213.974 209.079 150 209.079C86.0255 209.079 34.1641 212.108 34.1641 215.844C34.1641 219.58 86.0255 222.609 150 222.609Z" fill="#F5F5F5"/>
<path d="M29.8301 57.1211L166.028 76.7259L184.306 95.1716L29.8301 57.1211Z" fill="#407BFF"/>
<path opacity="0.6" d="M29.8301 57.1211L166.028 76.7259L184.306 95.1716L29.8301 57.1211Z" fill="white"/>
<path d="M29.8301 57.1211L166.028 76.7259L159.707 103.398L29.8301 57.1211Z" fill="#407BFF"/>
<path opacity="0.2" d="M29.8301 57.1211L166.028 76.7259L159.707 103.398L29.8301 57.1211Z" fill="black"/>
<path d="M156.91 26.2421L164.819 63.2991C165.247 65.3059 163.955 67.2984 161.948 67.7267L91.4042 82.7814C89.3974 83.2098 87.4049 81.9181 86.9766 79.9114L79.0684 42.8544C78.8443 41.8053 79.0911 40.7574 79.6634 39.9359C80.188 39.1915 80.9807 38.6311 81.9384 38.4268L152.483 23.3721C153.44 23.1678 154.393 23.3553 155.176 23.8207C156.033 24.3369 156.687 25.1931 156.91 26.2421Z" fill="#407BFF"/>
<path opacity="0.4" d="M156.91 26.2421L164.819 63.2991C165.247 65.3059 163.955 67.2984 161.948 67.7267L91.4042 82.7814C89.3974 83.2098 87.4049 81.9181 86.9766 79.9114L79.0684 42.8544C78.8443 41.8053 79.0911 40.7574 79.6634 39.9359C80.188 39.1915 80.9807 38.6311 81.9384 38.4268L152.483 23.3721C153.44 23.1678 154.393 23.3553 155.176 23.8207C156.033 24.3369 156.687 25.1931 156.91 26.2421Z" fill="black"/>
<path d="M155.176 23.8203L131.603 52.7552C127.102 58.2814 119.36 59.9333 112.994 56.7263L79.6631 39.9348C80.1876 39.1904 80.9804 38.63 81.9381 38.4257L152.482 23.371C153.441 23.1667 154.394 23.3549 155.176 23.8203Z" fill="#407BFF"/>
<path d="M29.8301 57.1211L142.167 83.8174L159.707 103.398L29.8301 57.1211Z" fill="#407BFF"/>
<path opacity="0.6" d="M29.8301 57.1211L142.167 83.8174L159.707 103.398L29.8301 57.1211Z" fill="white"/>
<path d="M70.8062 82.8639L70.5039 83.3799L83.0024 90.7025L83.3047 90.1866L70.8062 82.8639Z" fill="#407BFF"/>
<path d="M88.8267 93.4186L88.5244 93.9346L93.0208 96.5689L93.3231 96.053L88.8267 93.4186Z" fill="#407BFF"/>
<path d="M29.8301 57.1211L142.167 83.8174L120.332 110.138L29.8301 57.1211Z" fill="#407BFF"/>
<path d="M180.086 119.672C179.94 119.672 179.791 119.645 179.647 119.587L161.345 112.342C160.732 112.099 160.431 111.405 160.674 110.791C160.917 110.178 161.608 109.876 162.225 110.12L180.527 117.366C181.14 117.608 181.441 118.302 181.198 118.917C181.012 119.386 180.562 119.672 180.086 119.672Z" fill="#407BFF"/>
<path opacity="0.3" d="M180.086 119.672C179.94 119.672 179.791 119.645 179.647 119.587L161.345 112.342C160.732 112.099 160.431 111.405 160.674 110.791C160.917 110.178 161.608 109.876 162.225 110.12L180.527 117.366C181.14 117.608 181.441 118.302 181.198 118.917C181.012 119.386 180.562 119.672 180.086 119.672Z" fill="black"/>
<path d="M179.008 109.177C178.862 109.177 178.713 109.15 178.569 109.093L168.74 105.201C168.126 104.959 167.826 104.264 168.069 103.65C168.311 103.037 169.003 102.735 169.62 102.979L179.449 106.871C180.062 107.114 180.363 107.808 180.12 108.422C179.933 108.891 179.484 109.177 179.008 109.177Z" fill="#407BFF"/>
<path opacity="0.5" d="M179.008 109.177C178.862 109.177 178.713 109.15 178.569 109.093L168.74 105.201C168.126 104.959 167.826 104.264 168.069 103.65C168.311 103.037 169.003 102.735 169.62 102.979L179.449 106.871C180.062 107.114 180.363 107.808 180.12 108.422C179.933 108.891 179.484 109.177 179.008 109.177Z" fill="white"/>
<path d="M158.46 119.491C158.314 119.491 158.165 119.464 158.021 119.407L140.176 112.341C139.563 112.099 139.262 111.404 139.505 110.79C139.748 110.177 140.441 109.876 141.056 110.12L158.901 117.185C159.514 117.427 159.815 118.122 159.572 118.736C159.386 119.205 158.936 119.491 158.46 119.491Z" fill="#407BFF"/>
<path opacity="0.3" d="M158.46 119.491C158.314 119.491 158.165 119.464 158.021 119.407L140.176 112.341C139.563 112.099 139.262 111.404 139.505 110.79C139.748 110.177 140.441 109.876 141.056 110.12L158.901 117.185C159.514 117.427 159.815 118.122 159.572 118.736C159.386 119.205 158.936 119.491 158.46 119.491Z" fill="black"/>
<path d="M223.067 65.6396C224.649 68.7308 226.102 71.8225 227.48 74.9919C228.849 78.1613 230.149 81.3635 231.268 84.7247L231.676 85.999C231.745 86.2254 231.851 86.5976 231.907 86.8623C231.963 87.1383 232.023 87.4233 232.055 87.676C232.213 88.7167 232.241 89.6571 232.259 90.5819C232.288 92.4244 232.164 94.1814 232.01 95.9289C231.676 99.4185 231.131 102.814 230.383 106.219L227.108 105.855C227.066 102.49 227.034 99.0917 226.918 95.7766C226.858 94.1223 226.764 92.4716 226.596 90.9153C226.511 90.1422 226.387 89.384 226.241 88.7496C226.207 88.5817 226.162 88.4538 226.124 88.3152C226.078 88.1671 226.057 88.1324 225.992 87.955L225.542 86.8252C224.294 83.8022 222.889 80.7523 221.456 77.718L217.119 68.6173L223.067 65.6396Z" fill="#E4897B"/>
<path d="M227.154 104.831L225.625 107.692L230.51 109.054C230.51 109.054 231.44 106.753 230.332 104.939L227.154 104.831Z" fill="#E4897B"/>
<path d="M223.752 111.815L228.243 112.17L230.51 109.055L225.625 107.691L223.752 111.815Z" fill="#E4897B"/>
<path d="M202.498 44.9945C202.428 45.3416 202.187 45.5853 201.96 45.5393C201.733 45.4933 201.606 45.1749 201.677 44.8278C201.747 44.4807 201.988 44.2369 202.215 44.2829C202.442 44.3295 202.569 44.648 202.498 44.9945Z" fill="#263238"/>
<path d="M202.219 45.5918C202.219 45.5918 201.024 47.4331 199.959 48.2217C200.456 48.9195 201.553 48.8699 201.553 48.8699L202.219 45.5918Z" fill="#DE5753"/>
<path d="M204.16 43.3258C204.104 43.3258 204.048 43.3031 204.007 43.2589C203.385 42.585 202.646 42.6949 202.613 42.6985C202.503 42.7182 202.393 42.6406 202.375 42.5271C202.356 42.4141 202.432 42.3072 202.545 42.2881C202.584 42.2809 203.531 42.131 204.313 42.9757C204.391 43.06 204.385 43.1914 204.301 43.2697C204.261 43.3073 204.211 43.3258 204.16 43.3258Z" fill="#263238"/>
<path d="M212.381 49.874C211.751 53.0846 211.123 58.9682 213.37 61.1105C213.37 61.1105 212.492 64.3678 206.526 64.3678C199.966 64.3678 203.391 61.1111 203.391 61.1111C206.971 60.2562 206.879 57.5994 206.255 55.1051L212.381 49.874Z" fill="#E4897B"/>
<path d="M214.27 63.1378C214.744 61.5641 215.266 59.7635 214.187 59.1995C213 58.5788 206.503 57.9461 204.262 59.1111C202.022 60.2761 202.658 63.4676 202.658 63.4676L214.27 63.1378Z" fill="#263238"/>
<path d="M228.05 212.13C227.601 212.13 227.166 212.061 226.997 211.84C226.925 211.747 226.868 211.586 227 211.347C227.069 211.221 227.179 211.139 227.326 211.105C227.971 210.956 229.18 211.785 229.231 211.819C229.265 211.842 229.282 211.883 229.274 211.924C229.266 211.964 229.236 211.997 229.196 212.006C228.971 212.059 228.503 212.13 228.05 212.13ZM227.502 211.293C227.457 211.293 227.414 211.297 227.374 211.307C227.286 211.327 227.222 211.374 227.182 211.446C227.089 211.617 227.144 211.69 227.162 211.713C227.35 211.96 228.247 211.964 228.902 211.853C228.524 211.62 227.901 211.293 227.502 211.293Z" fill="#407BFF"/>
<path d="M229.172 212.008C229.155 212.008 229.138 212.004 229.122 211.996C228.668 211.75 227.79 210.788 227.883 210.298C227.899 210.21 227.965 210.056 228.214 210.025C228.371 210.007 228.524 210.051 228.656 210.159C229.167 210.576 229.271 211.842 229.276 211.896C229.279 211.934 229.261 211.971 229.229 211.991C229.211 212.004 229.192 212.008 229.172 212.008ZM228.285 210.23C228.271 210.23 228.254 210.23 228.239 210.233C228.103 210.249 228.092 210.312 228.086 210.338C228.032 210.628 228.591 211.354 229.043 211.696C228.992 211.326 228.852 210.588 228.524 210.321C228.449 210.26 228.371 210.23 228.285 210.23Z" fill="#407BFF"/>
<path d="M201.695 212.131C201.132 212.131 200.589 212.054 200.406 211.8C200.342 211.712 200.292 211.561 200.415 211.346C200.483 211.225 200.595 211.143 200.745 211.102C201.472 210.908 203.009 211.778 203.074 211.815C203.112 211.836 203.132 211.879 203.125 211.922C203.118 211.965 203.085 211.999 203.042 212.008C202.762 212.063 202.22 212.131 201.695 212.131ZM201 211.279C200.927 211.279 200.859 211.287 200.799 211.303C200.703 211.329 200.636 211.377 200.595 211.448C200.521 211.578 200.548 211.641 200.575 211.678C200.773 211.953 201.881 211.967 202.704 211.853C202.297 211.644 201.513 211.279 201 211.279Z" fill="#407BFF"/>
<path d="M203.022 212.009C203.008 212.009 202.993 212.006 202.98 212C202.45 211.763 201.401 210.814 201.481 210.317C201.5 210.2 201.582 210.055 201.868 210.026C202.08 210.006 202.274 210.065 202.444 210.204C203.003 210.663 203.121 211.845 203.126 211.895C203.129 211.932 203.113 211.968 203.083 211.99C203.065 212.003 203.044 212.009 203.022 212.009ZM201.952 210.23C201.931 210.23 201.91 210.231 201.889 210.233C201.702 210.252 201.69 210.326 201.686 210.35C201.638 210.648 202.351 211.394 202.891 211.718C202.835 211.374 202.679 210.666 202.312 210.365C202.202 210.274 202.084 210.23 201.952 210.23Z" fill="#407BFF"/>
<path d="M207.848 211.905H203.459L203.021 201.741H207.41L207.848 211.905Z" fill="#E4897B"/>
<path d="M234.201 211.905H229.811L227.605 201.741H231.994L234.201 211.905Z" fill="#E4897B"/>
<path d="M229.498 211.396H234.429C234.608 211.396 234.764 211.521 234.803 211.696L235.67 215.598C235.76 216.002 235.442 216.385 235.027 216.378C233.306 216.349 232.469 216.247 230.301 216.247C228.967 216.247 226.219 216.386 224.376 216.386C222.574 216.386 222.293 214.564 223.047 214.399C226.429 213.66 227.703 212.639 228.786 211.666C228.981 211.491 229.236 211.396 229.498 211.396Z" fill="#263238"/>
<path d="M203.488 211.396H208.281C208.461 211.396 208.616 211.521 208.655 211.696L209.522 215.598C209.612 216.002 209.305 216.385 208.891 216.378C207.162 216.349 204.663 216.248 202.49 216.248C199.949 216.248 197.755 216.386 194.775 216.386C192.973 216.386 192.473 214.565 193.228 214.4C196.661 213.649 199.464 213.568 202.432 211.739C202.753 211.54 203.109 211.396 203.488 211.396Z" fill="#263238"/>
<path d="M201.369 68.8198C197.647 68.5288 194.07 68.0473 190.432 67.3656C188.621 67.0179 186.806 66.629 184.993 66.1409C183.177 65.654 181.358 65.1019 179.519 64.3342C179.059 64.1455 178.595 63.9334 178.132 63.7129C177.55 63.4255 177.067 63.1268 176.642 62.8437C175.778 62.2737 175.04 61.6858 174.304 61.0997C172.843 59.9294 171.483 58.713 170.141 57.4835C167.469 55.0125 164.934 52.4549 162.493 49.764L164.691 47.3086L173.359 53.538C174.79 54.5698 176.234 55.5771 177.655 56.5276C178.363 56.9978 179.086 57.4441 179.745 57.8157C180.079 58.005 180.376 58.1466 180.605 58.2374C180.96 58.3766 181.32 58.514 181.698 58.6401C184.732 59.6522 188.163 60.3022 191.571 60.8512C194.983 61.3913 198.508 61.8358 201.912 62.1889L201.369 68.8198Z" fill="#E4897B"/>
<path d="M221.228 62.103C225.341 63.0463 229.5 75.0732 229.5 75.0732L221.033 81.1467C221.033 81.1467 218.668 75.5452 216.341 70.6463C213.902 65.5131 217.022 61.1387 221.228 62.103Z" fill="#407BFF"/>
<path opacity="0.4" d="M221.228 62.103C225.341 63.0463 229.5 75.0732 229.5 75.0732L221.033 81.1467C221.033 81.1467 218.668 75.5452 216.341 70.6463C213.902 65.5131 217.022 61.1387 221.228 62.103Z" fill="black"/>
<path d="M218.855 68.6738L217.176 72.4317C218.914 76.1836 220.503 79.8996 220.928 80.8913C220.868 76.4524 220.026 70.9441 218.855 68.6738Z" fill="#407BFF"/>
<path opacity="0.6" d="M218.855 68.6738L217.176 72.4317C218.914 76.1836 220.503 79.8996 220.928 80.8913C220.868 76.4524 220.026 70.9441 218.855 68.6738Z" fill="black"/>
<path d="M196.64 62.329C196.64 62.329 191.968 67.6055 196.38 100.264C203.453 100.264 216.413 100.264 219.855 100.264C220.017 96.6605 217.752 79.0816 221.228 62.1025C221.228 62.1025 217.204 61.2948 213.369 61.1102C210.369 60.9656 206.027 60.87 203.39 61.1108C199.914 61.428 196.64 62.329 196.64 62.329Z" fill="#407BFF"/>
<path opacity="0.4" d="M196.64 62.329C196.64 62.329 191.968 67.6055 196.38 100.264C203.453 100.264 216.413 100.264 219.855 100.264C220.017 96.6605 217.752 79.0816 221.228 62.1025C221.228 62.1025 217.204 61.2948 213.369 61.1102C210.369 60.9656 206.027 60.87 203.39 61.1108C199.914 61.428 196.64 62.329 196.64 62.329Z" fill="black"/>
<path d="M194.903 68.6738C194.748 69.9105 194.628 71.3742 194.551 73.1008C196.492 72.4974 198.906 71.5296 201.087 70.03L194.903 68.6738Z" fill="#407BFF"/>
<path opacity="0.6" d="M194.903 68.6738C194.748 69.9105 194.628 71.3742 194.551 73.1008C196.492 72.4974 198.906 71.5296 201.087 70.03L194.903 68.6738Z" fill="black"/>
<path d="M204.945 69.3148C201.804 72.0977 189.807 71.8193 189.807 71.8193L189.411 60.2207C189.411 60.2207 196.213 61.2178 201.64 61.1073C208.344 60.9717 208.392 66.2608 204.945 69.3148Z" fill="#407BFF"/>
<path opacity="0.4" d="M204.945 69.3148C201.804 72.0977 189.807 71.8193 189.807 71.8193L189.411 60.2207C189.411 60.2207 196.213 61.2178 201.64 61.1073C208.344 60.9717 208.392 66.2608 204.945 69.3148Z" fill="black"/>
<path d="M164.798 47.3687L161.785 43.8516L158.569 47.4135C158.569 47.4135 160.549 50.7441 163.702 50.2184L164.798 47.3687Z" fill="#E4897B"/>
<path d="M157.532 39.749L156.373 44.3385L158.569 47.4135L161.785 43.851L157.532 39.749Z" fill="#E4897B"/>
<path d="M203.023 201.744L203.248 206.983H207.639L207.414 201.744H203.023Z" fill="#CE6F64"/>
<path d="M231.996 201.744H227.604L228.744 206.983H233.135L231.996 201.744Z" fill="#CE6F64"/>
<path d="M205.665 40.6316C201.728 38.8124 200.483 30.8713 211.809 32.8381C211.809 32.8381 210.103 34.7302 213.57 35.925C217.037 37.1193 214.135 44.546 205.665 40.6316Z" fill="#263238"/>
<path d="M214.219 46.6106C213.092 50.8177 212.646 53.3377 210.049 55.0876C206.144 57.7193 201.281 54.6993 201.129 50.2394C200.992 46.2253 202.859 40.0191 207.374 39.1714C211.823 38.3362 215.347 42.4035 214.219 46.6106Z" fill="#E4897B"/>
<path d="M211.656 34.9758C214.336 36.4747 217.969 37.3685 217.604 39.4936C217.158 42.0912 219.801 40.4662 219.186 44.3364C218.784 46.8635 214.122 54.5214 210.841 54.1474C205.909 53.5852 206.534 46.051 206.518 42.0918C206.508 39.7582 206.398 32.0358 211.656 34.9758Z" fill="#263238"/>
<path d="M205.926 38.3311C204.731 38.613 203.147 45.5003 207.776 46.1311C213.103 46.857 205.926 38.3311 205.926 38.3311Z" fill="#263238"/>
<path d="M206.048 40.7754C204.583 40.9045 201.281 39.142 201.675 36.4912C201.675 36.4912 203.779 39.5931 206.048 40.7754Z" fill="#263238"/>
<path d="M208.217 46.6813C207.759 47.7262 206.892 48.5483 206.052 48.9856C204.789 49.6428 204.08 48.6815 204.366 47.4185C204.622 46.2816 205.59 44.5694 206.888 44.429C208.168 44.2904 208.741 45.4864 208.217 46.6813Z" fill="#E4897B"/>
<path d="M214.789 41.819C215.676 41.3679 217.695 40.3451 218.245 37.4434C218.245 37.4434 220.217 42.9487 214.789 41.819Z" fill="#263238"/>
<path d="M219.776 41.761C219.334 41.5017 218.329 40.9108 216.917 41.479C216.917 41.479 218.756 39.0922 219.776 41.761Z" fill="#263238"/>
<path d="M204.707 100.265C204.707 100.265 209.688 133.806 212.422 146.372C215.417 160.132 226.698 205.969 226.698 205.969H234.736C234.736 205.969 227.298 161.243 225.589 147.619C223.735 132.833 219.854 100.265 219.854 100.265H204.707Z" fill="#407BFF"/>
<path opacity="0.5" d="M204.707 100.265C204.707 100.265 209.688 133.806 212.422 146.372C215.417 160.132 226.698 205.969 226.698 205.969H234.736C234.736 205.969 227.298 161.243 225.589 147.619C223.735 132.833 219.854 100.265 219.854 100.265H204.707Z" fill="white"/>
<path d="M225.414 203.007C225.38 203.007 226.244 206.094 226.244 206.094H235.288L235.122 203.339L225.414 203.007Z" fill="#407BFF"/>
<path opacity="0.1" d="M225.414 203.007C225.38 203.007 226.244 206.094 226.244 206.094H235.288L235.122 203.339L225.414 203.007Z" fill="black"/>
<path d="M207.855 112.215C213.614 113.344 213.005 134.822 212.312 145.868C210.651 138.06 208.219 123.034 206.559 112.37C206.941 112.179 207.371 112.119 207.855 112.215Z" fill="#407BFF"/>
<path opacity="0.4" d="M207.855 112.215C213.614 113.344 213.005 134.822 212.312 145.868C210.651 138.06 208.219 123.034 206.559 112.37C206.941 112.179 207.371 112.119 207.855 112.215Z" fill="white"/>
<path d="M196.38 100.265C196.38 100.265 195.776 133.08 196.253 146.464C196.749 160.386 201.612 205.969 201.612 205.969H209.047C209.047 205.969 209.32 161.199 209.65 147.527C210.011 132.622 211.811 100.265 211.811 100.265H196.38V100.265Z" fill="#407BFF"/>
<path opacity="0.5" d="M196.38 100.265C196.38 100.265 195.776 133.08 196.253 146.464C196.749 160.386 201.612 205.969 201.612 205.969H209.047C209.047 205.969 209.32 161.199 209.65 147.527C210.011 132.622 211.811 100.265 211.811 100.265H196.38V100.265Z" fill="white"/>
<path d="M203.16 200.628C203.123 200.628 203.091 200.6 203.086 200.561C201.776 187.945 198.686 157.419 198.294 146.467C197.896 135.289 198.258 110.209 198.379 102.788C198.379 102.748 198.413 102.715 198.453 102.715H198.455C198.496 102.715 198.529 102.749 198.528 102.791C198.407 110.21 198.045 135.287 198.444 146.461C198.834 157.409 201.924 187.931 203.235 200.546C203.239 200.586 203.209 200.623 203.168 200.628C203.166 200.628 203.163 200.628 203.16 200.628Z" fill="#407BFF"/>
<path opacity="0.4" d="M203.16 200.628C203.123 200.628 203.091 200.6 203.086 200.561C201.776 187.945 198.686 157.419 198.294 146.467C197.896 135.289 198.258 110.209 198.379 102.788C198.379 102.748 198.413 102.715 198.453 102.715H198.455C198.496 102.715 198.529 102.749 198.528 102.791C198.407 110.21 198.045 135.287 198.444 146.461C198.834 157.409 201.924 187.931 203.235 200.546C203.239 200.586 203.209 200.623 203.168 200.628C203.166 200.628 203.163 200.628 203.16 200.628Z" fill="white"/>
<path d="M200.182 203.007C200.147 203.007 200.601 206.094 200.601 206.094H209.645L209.89 203.339L200.182 203.007Z" fill="#407BFF"/>
<path opacity="0.1" d="M200.182 203.007C200.147 203.007 200.601 206.094 200.601 206.094H209.645L209.89 203.339L200.182 203.007Z" fill="black"/>
</svg>
