<svg width="279" height="279" viewBox="0 0 279 279" fill="none" xmlns="http://www.w3.org/2000/svg">
<g clip-path="url(#clip0_1816_6631)">
<path d="M248.147 194.823H147.291C145.487 194.823 144.02 193.355 144.02 191.552V44.645C144.02 42.8416 145.487 41.374 147.291 41.374H248.147C249.95 41.374 251.418 42.841 251.418 44.645V191.551C251.418 193.355 249.95 194.823 248.147 194.823ZM147.291 41.5135C145.564 41.5135 144.159 42.9186 144.159 44.645V191.551C144.159 193.278 145.564 194.683 147.291 194.683H248.147C249.874 194.683 251.278 193.278 251.278 191.551V44.645C251.278 42.9186 249.873 41.5135 248.147 41.5135H147.291Z" fill="#E0E0E0"/>
<path d="M131.844 194.823H30.9878C29.1843 194.823 27.7168 193.355 27.7168 191.552V44.645C27.7168 42.8416 29.1838 41.374 30.9878 41.374H131.844C133.648 41.374 135.115 42.841 135.115 44.645V191.551C135.116 193.355 133.648 194.823 131.844 194.823ZM30.9878 41.5135C29.2613 41.5135 27.8563 42.9186 27.8563 44.645V191.551C27.8563 193.278 29.2613 194.683 30.9878 194.683H131.844C133.571 194.683 134.976 193.278 134.976 191.551V44.645C134.976 42.9186 133.571 41.5135 131.844 41.5135H30.9878Z" fill="#E0E0E0"/>
<path d="M279.439 228.899H0.439453V229.039H279.439V228.899Z" fill="#E0E0E0"/>
<path d="M124.135 151.358L124.135 56.333L85.3315 56.333L85.3315 151.358H124.135Z" fill="#E0E0E0"/>
<path d="M122.007 58.4619H87.4609V149.226H122.007V58.4619Z" fill="#F0F0F0"/>
<path d="M122.007 58.4619V63.0766L87.4609 97.6168V88.3763L117.381 58.4619H122.007Z" fill="#FAFAFA"/>
<path d="M122.007 86.9365V100.462L87.4609 135.003V121.482L122.007 86.9365Z" fill="#FAFAFA"/>
<path d="M106.608 56.333H104.037V151.358H106.608V56.333Z" fill="#E0E0E0"/>
<path d="M191.495 151.358L191.495 56.333L152.692 56.333V151.358H191.495Z" fill="#E0E0E0"/>
<path d="M189.367 58.4619H154.821V149.226H189.367V58.4619Z" fill="#F0F0F0"/>
<path d="M189.367 58.4619V63.0766L154.821 97.6168V88.3763L184.741 58.4619H189.367Z" fill="#FAFAFA"/>
<path d="M189.367 86.9365V100.462L154.821 135.003V121.482L189.367 86.9365Z" fill="#FAFAFA"/>
<path d="M173.969 56.333H171.397V151.358H173.969V56.333Z" fill="#E0E0E0"/>
<path d="M56.8952 78.1761C63.2048 78.1761 68.3197 73.0612 68.3197 66.7516C68.3197 60.4421 63.2048 55.3271 56.8952 55.3271C50.5856 55.3271 45.4707 60.4421 45.4707 66.7516C45.4707 73.0612 50.5856 78.1761 56.8952 78.1761Z" fill="#E0E0E0"/>
<path d="M67.1447 69.1324C68.4582 63.4708 64.9334 57.8163 59.2718 56.5027C53.6101 55.1892 47.9556 58.714 46.6421 64.3756C45.3285 70.0373 48.8533 75.6918 54.515 77.0054C60.1766 78.3189 65.8311 74.7941 67.1447 69.1324Z" fill="#FAFAFA"/>
<path d="M56.9232 57.1836H56.5293V59.3782H56.9232V57.1836Z" fill="#E0E0E0"/>
<path d="M56.9232 74.0674H56.5293V76.262H56.9232V74.0674Z" fill="#E0E0E0"/>
<path d="M49.3821 66.5264H47.1875V66.9203H49.3821V66.5264Z" fill="#E0E0E0"/>
<path d="M66.2659 66.5264H64.0713V66.9203H66.2659V66.5264Z" fill="#E0E0E0"/>
<path d="M63.3311 59.8388L61.7793 61.3906L62.0579 61.6692L63.6097 60.1174L63.3311 59.8388Z" fill="#E0E0E0"/>
<path d="M51.3922 71.7788L49.8408 73.3311L50.1195 73.6095L51.6708 72.0573L51.3922 71.7788Z" fill="#E0E0E0"/>
<path d="M50.1193 59.8435L49.8408 60.1221L51.3929 61.6737L51.6714 61.3951L50.1193 59.8435Z" fill="#E0E0E0"/>
<path d="M62.0579 71.7801L61.7793 72.0586L63.3309 73.6106L63.6095 73.3321L62.0579 71.7801Z" fill="#E0E0E0"/>
<path d="M56.6569 66.4632L56.5332 66.7773L60.2544 68.2426L60.3781 67.9285L56.6569 66.4632Z" fill="#E0E0E0"/>
<path d="M56.8953 66.8918H50.7578V66.5542H56.5577V61.79H56.8953V66.8918Z" fill="#E0E0E0"/>
<path d="M200.326 69.2093L199.99 68.6775L219.519 56.373L238.567 68.9526L238.221 69.4771L219.511 57.1213L200.326 69.2093Z" fill="#E6E6E6"/>
<path d="M238.984 68.709H199.657V93.3062H238.984V68.709Z" fill="#E0E0E0"/>
<path d="M237.894 92.217V69.7988H200.746V92.217H237.894Z" fill="white"/>
<path d="M206.026 76.8281H203.652V79.2019H206.026V76.8281Z" fill="#F5F5F5"/>
<path d="M209.685 76.8281H207.312V79.2019H209.685V76.8281Z" fill="#F5F5F5"/>
<path d="M213.344 76.8281H210.971V79.2019H213.344V76.8281Z" fill="#F5F5F5"/>
<path d="M217.004 76.8281H214.63V79.2019H217.004V76.8281Z" fill="#F5F5F5"/>
<path d="M220.663 76.8281H218.289V79.2019H220.663V76.8281Z" fill="#F5F5F5"/>
<path d="M224.322 76.8281H221.948V79.2019H224.322V76.8281Z" fill="#F5F5F5"/>
<path d="M227.982 76.8281H225.608V79.2019H227.982V76.8281Z" fill="#F5F5F5"/>
<path d="M231.64 76.8281H229.267V79.2019H231.64V76.8281Z" fill="#F5F5F5"/>
<path d="M235.3 76.8281H232.926V79.2019H235.3V76.8281Z" fill="#F5F5F5"/>
<path d="M206.026 80.0947H203.652V82.4685H206.026V80.0947Z" fill="#F5F5F5"/>
<path d="M209.685 80.0947H207.312V82.4685H209.685V80.0947Z" fill="#F5F5F5"/>
<path d="M213.344 80.0947H210.971V82.4685H213.344V80.0947Z" fill="#F5F5F5"/>
<path d="M217.004 80.0947H214.63V82.4685H217.004V80.0947Z" fill="#F5F5F5"/>
<path d="M220.663 80.0947H218.289V82.4685H220.663V80.0947Z" fill="#F5F5F5"/>
<path d="M224.322 80.0947H221.948V82.4685H224.322V80.0947Z" fill="#F5F5F5"/>
<path d="M227.982 80.0947H225.608V82.4685H227.982V80.0947Z" fill="#F5F5F5"/>
<path d="M231.64 80.0947H229.267V82.4685H231.64V80.0947Z" fill="#F5F5F5"/>
<path d="M235.3 80.0947H232.926V82.4685H235.3V80.0947Z" fill="#F5F5F5"/>
<path d="M206.026 83.3613H203.652V85.7351H206.026V83.3613Z" fill="#F5F5F5"/>
<path d="M209.685 83.3613H207.312V85.7351H209.685V83.3613Z" fill="#F5F5F5"/>
<path d="M213.344 83.3613H210.971V85.7351H213.344V83.3613Z" fill="#F5F5F5"/>
<path d="M217.004 83.3613H214.63V85.7351H217.004V83.3613Z" fill="#F5F5F5"/>
<path d="M220.663 83.3613H218.289V85.7351H220.663V83.3613Z" fill="#F5F5F5"/>
<path d="M224.322 83.3613H221.948V85.7351H224.322V83.3613Z" fill="#F5F5F5"/>
<path d="M227.982 83.3613H225.608V85.7351H227.982V83.3613Z" fill="#F5F5F5"/>
<path d="M231.64 83.3613H229.267V85.7351H231.64V83.3613Z" fill="#F5F5F5"/>
<path d="M235.3 83.3613H232.926V85.7351H235.3V83.3613Z" fill="#F5F5F5"/>
<path d="M206.026 86.874H203.652V89.2478H206.026V86.874Z" fill="#F5F5F5"/>
<path d="M209.685 86.874H207.312V89.2478H209.685V86.874Z" fill="#F5F5F5"/>
<path d="M213.344 86.874H210.971V89.2478H213.344V86.874Z" fill="#F5F5F5"/>
<path d="M217.004 86.874H214.63V89.2478H217.004V86.874Z" fill="#F5F5F5"/>
<path d="M230.034 71.9932H208.918V74.0438H230.034V71.9932Z" fill="#E0E0E0"/>
<path d="M220.772 56.5977C220.772 57.2562 220.238 57.7902 219.579 57.7902C218.921 57.7902 218.387 57.2562 218.387 56.5977C218.387 55.9393 218.921 55.4053 219.579 55.4053C220.238 55.4053 220.772 55.9393 220.772 56.5977Z" fill="#E0E0E0"/>
<path d="M259.052 253.575C259.052 255.465 206.869 256.997 142.5 256.997C78.1297 256.997 25.9473 255.465 25.9473 253.575C25.9473 251.685 78.1292 250.153 142.5 250.153C206.87 250.153 259.052 251.685 259.052 253.575Z" fill="#F5F5F5"/>
<path d="M41.1647 131.703L42.7862 131.238L41.7523 127.633L39.8768 128.171C39.3434 127.568 38.671 127.093 37.9099 126.793V124.896H34.1596V126.793C33.5664 127.026 33.0268 127.366 32.5654 127.79L30.9154 126.986L29.2715 130.357L30.9198 131.161C30.9092 131.296 30.902 131.431 30.902 131.569C30.902 132.477 31.1402 133.331 31.5559 134.072L31.5492 134.066L30.3144 135.612L33.2444 137.953L34.4458 136.449C34.9463 136.612 35.4804 136.702 36.035 136.702C36.439 136.702 36.8318 136.653 37.2096 136.564L38.291 138.086L41.3488 135.915L40.2942 134.43C40.8221 133.647 41.1385 132.711 41.1647 131.703ZM32.6625 131.569C32.6625 129.709 34.1757 128.196 36.0356 128.196C37.8954 128.196 39.4087 129.709 39.4087 131.569C39.4087 133.429 37.8954 134.942 36.0356 134.942C34.1757 134.942 32.6625 133.429 32.6625 131.569Z" fill="#407BFF"/>
<path opacity="0.6" d="M41.1647 131.703L42.7862 131.238L41.7523 127.633L39.8768 128.171C39.3434 127.568 38.671 127.093 37.9099 126.793V124.896H34.1596V126.793C33.5664 127.026 33.0268 127.366 32.5654 127.79L30.9154 126.986L29.2715 130.357L30.9198 131.161C30.9092 131.296 30.902 131.431 30.902 131.569C30.902 132.477 31.1402 133.331 31.5559 134.072L31.5492 134.066L30.3144 135.612L33.2444 137.953L34.4458 136.449C34.9463 136.612 35.4804 136.702 36.035 136.702C36.439 136.702 36.8318 136.653 37.2096 136.564L38.291 138.086L41.3488 135.915L40.2942 134.43C40.8221 133.647 41.1385 132.711 41.1647 131.703ZM32.6625 131.569C32.6625 129.709 34.1757 128.196 36.0356 128.196C37.8954 128.196 39.4087 129.709 39.4087 131.569C39.4087 133.429 37.8954 134.942 36.0356 134.942C34.1757 134.942 32.6625 133.429 32.6625 131.569Z" fill="white"/>
<path d="M256.415 72.7889L258.036 72.3241L257.002 68.7189L255.127 69.2568C254.593 68.6541 253.921 68.1787 253.16 67.8785V65.9824H249.41V67.8785C248.816 68.1123 248.277 68.4521 247.815 68.8762L246.165 68.0716L244.521 71.4425L246.17 72.2465C246.159 72.3816 246.152 72.5172 246.152 72.655C246.152 73.5634 246.39 74.4166 246.806 75.1576L246.799 75.152L245.564 76.6977L248.494 79.0385L249.696 77.5347C250.196 77.6982 250.73 77.7875 251.285 77.7875C251.689 77.7875 252.082 77.7389 252.46 77.6502L253.541 79.1724L256.599 77.0007L255.544 75.5158C256.072 74.733 256.388 73.7961 256.415 72.7889ZM247.912 72.6544C247.912 70.7946 249.426 69.2813 251.286 69.2813C253.145 69.2813 254.659 70.7946 254.659 72.6544C254.659 74.5142 253.145 76.0275 251.286 76.0275C249.426 76.0275 247.912 74.5142 247.912 72.6544Z" fill="#407BFF"/>
<path opacity="0.6" d="M256.415 72.7889L258.036 72.3241L257.002 68.7189L255.127 69.2568C254.593 68.6541 253.921 68.1787 253.16 67.8785V65.9824H249.41V67.8785C248.816 68.1123 248.277 68.4521 247.815 68.8762L246.165 68.0716L244.521 71.4425L246.17 72.2465C246.159 72.3816 246.152 72.5172 246.152 72.655C246.152 73.5634 246.39 74.4166 246.806 75.1576L246.799 75.152L245.564 76.6977L248.494 79.0385L249.696 77.5347C250.196 77.6982 250.73 77.7875 251.285 77.7875C251.689 77.7875 252.082 77.7389 252.46 77.6502L253.541 79.1724L256.599 77.0007L255.544 75.5158C256.072 74.733 256.388 73.7961 256.415 72.7889ZM247.912 72.6544C247.912 70.7946 249.426 69.2813 251.286 69.2813C253.145 69.2813 254.659 70.7946 254.659 72.6544C254.659 74.5142 253.145 76.0275 251.286 76.0275C249.426 76.0275 247.912 74.5142 247.912 72.6544Z" fill="white"/>
<path d="M54.5003 112.193C53.5188 112.193 52.5518 112.054 51.6216 111.781C51.5106 111.748 51.4469 111.632 51.4799 111.521C51.5122 111.41 51.6272 111.347 51.7393 111.38C52.631 111.642 53.5584 111.775 54.4959 111.775C54.6114 111.775 54.7252 111.868 54.7252 111.983C54.7252 112.1 54.6515 112.193 54.536 112.193V111.983L54.5003 112.193ZM57.3511 111.778C57.2607 111.778 57.1776 111.719 57.1508 111.628C57.1179 111.518 57.1809 111.401 57.292 111.368C58.1848 111.102 59.0346 110.708 59.8197 110.198C59.9174 110.135 60.0468 110.163 60.1093 110.26C60.1724 110.357 60.1445 110.486 60.048 110.549C59.2294 111.081 58.3421 111.492 57.4114 111.769C57.3908 111.775 57.3707 111.778 57.3511 111.778ZM49.0933 110.605C49.0548 110.605 49.0152 110.594 48.98 110.571C48.162 110.044 47.4238 109.404 46.7854 108.668C46.7095 108.581 46.719 108.449 46.8061 108.373C46.8937 108.298 47.0254 108.307 47.1012 108.394C47.7139 109.1 48.422 109.714 49.2066 110.219C49.3037 110.282 49.3316 110.412 49.2691 110.509C49.2294 110.571 49.1625 110.605 49.0933 110.605ZM62.0763 108.711C62.0277 108.711 61.9792 108.694 61.9396 108.66C61.852 108.585 61.8419 108.452 61.9173 108.365C62.5283 107.656 63.0333 106.866 63.4188 106.018C63.4668 105.912 63.5913 105.867 63.6962 105.914C63.8011 105.962 63.8479 106.086 63.7999 106.191C63.3982 107.076 62.8714 107.899 62.2348 108.638C62.1929 108.686 62.1349 108.711 62.0763 108.711ZM45.3999 106.35C45.3207 106.35 45.2448 106.305 45.2096 106.229C44.8028 105.343 44.5266 104.406 44.3877 103.442C44.3709 103.328 44.4507 103.222 44.5651 103.206C44.6784 103.184 44.7855 103.269 44.8017 103.383C44.9345 104.307 45.1996 105.205 45.5896 106.054C45.6376 106.159 45.5918 106.284 45.4869 106.332C45.459 106.344 45.4295 106.35 45.3999 106.35ZM64.4037 103.582C64.3942 103.582 64.3842 103.581 64.3747 103.579C64.2603 103.563 64.1805 103.458 64.1961 103.343C64.2586 102.894 64.2904 102.435 64.2904 101.98C64.2904 101.504 64.2558 101.025 64.1878 100.557C64.171 100.443 64.2502 100.337 64.3646 100.32C64.4818 100.305 64.5851 100.383 64.6018 100.497C64.6732 100.985 64.7089 101.484 64.7089 101.98C64.7089 102.454 64.676 102.933 64.6107 103.401C64.5962 103.506 64.5064 103.582 64.4037 103.582ZM44.593 100.777C44.583 100.777 44.5735 100.776 44.5635 100.774C44.4491 100.758 44.3693 100.652 44.386 100.538C44.5227 99.5736 44.7973 98.6356 45.2018 97.7495C45.2503 97.644 45.3753 97.5983 45.4791 97.6457C45.584 97.6942 45.6304 97.8181 45.5824 97.923C45.1946 98.7723 44.9312 99.6718 44.8 100.596C44.785 100.701 44.6951 100.777 44.593 100.777ZM63.5846 98.0095C63.5053 98.0095 63.43 97.9643 63.3948 97.8879C63.0037 97.0414 62.4942 96.2552 61.8793 95.5504C61.8034 95.4634 61.8123 95.3311 61.8994 95.2552C61.9864 95.1793 62.1187 95.1883 62.1946 95.2753C62.8352 96.0102 63.3675 96.8305 63.7748 97.7127C63.8234 97.8176 63.7776 97.942 63.6727 97.99C63.6437 98.0034 63.6136 98.0095 63.5846 98.0095ZM46.9299 95.6525C46.8814 95.6525 46.8328 95.6358 46.7932 95.6017C46.7056 95.5258 46.6961 95.3936 46.7715 95.3066C47.4087 94.57 48.1458 93.9283 48.9627 93.3999C49.0593 93.3374 49.1893 93.3647 49.2523 93.4618C49.3148 93.5589 49.2875 93.6884 49.1904 93.7514C48.407 94.2586 47.7 94.8735 47.0884 95.5805C47.0471 95.628 46.9885 95.6525 46.9299 95.6525ZM59.8822 93.7631C59.8437 93.7631 59.8047 93.7525 59.7695 93.7296C58.9816 93.2247 58.129 92.8357 57.2345 92.5751C57.1235 92.5428 57.0599 92.4267 57.0922 92.3157C57.1246 92.2046 57.2407 92.141 57.3517 92.1734C58.2841 92.4451 59.1741 92.8502 59.9955 93.3775C60.0926 93.44 60.121 93.5695 60.0586 93.6666C60.0189 93.7291 59.9514 93.7631 59.8822 93.7631ZM51.6607 92.5947C51.5703 92.5947 51.4866 92.5361 51.4603 92.4446C51.4274 92.3335 51.4905 92.2175 51.6015 92.1845C52.5317 91.9094 53.4981 91.7688 54.4758 91.7666C54.5913 91.7666 54.685 91.8603 54.6856 91.9753C54.6856 92.0908 54.5924 92.1845 54.4763 92.1851C53.5394 92.1868 52.612 92.3218 51.7204 92.5852C51.7003 92.5919 51.6807 92.5947 51.6607 92.5947Z" fill="#407BFF"/>
<path d="M54.4963 110.309C59.0964 110.309 62.8255 106.58 62.8255 101.98C62.8255 97.3795 59.0964 93.6504 54.4963 93.6504C49.8961 93.6504 46.167 97.3795 46.167 101.98C46.167 106.58 49.8961 110.309 54.4963 110.309Z" fill="#407BFF"/>
<path d="M53.0497 105.596C53.043 105.596 53.0368 105.596 53.0301 105.596C52.8789 105.59 52.7366 105.524 52.6351 105.412L50.1241 102.627C49.9176 102.398 49.936 102.045 50.1648 101.839C50.3941 101.632 50.7462 101.651 50.9533 101.88L53.0781 104.235L58.4522 99.0555C58.6743 98.8418 59.0275 98.8485 59.2412 99.07C59.4549 99.2921 59.4488 99.6453 59.2267 99.859L53.4375 105.439C53.3331 105.54 53.1942 105.596 53.0497 105.596Z" fill="white"/>
<path d="M113.443 117.952C113.443 117.952 96.4774 126.507 91.3723 147.928C87.6498 163.546 88.7759 193.039 95.4825 195.403C102.189 197.766 102.941 179.514 102.998 173.023C103.055 166.533 109.138 158.608 114.552 158.135C114.552 158.135 115.61 123.889 113.443 117.952Z" fill="#407BFF"/>
<path opacity="0.2" d="M115.98 122.195C111.968 123.728 108.668 126.638 105.995 129.942C103.11 133.51 100.852 137.57 99.0389 141.775C97.087 146.302 95.6312 151.061 94.7674 155.915C93.8579 161.028 93.657 166.223 93.5822 171.405C93.4913 177.753 93.3345 184.359 95.7902 190.339C95.8879 190.577 96.279 190.472 96.1803 190.231C94.0403 185.021 93.9131 179.33 93.9594 173.778C94.0035 168.54 94.0816 163.274 94.8266 158.08C96.1513 148.85 99.5154 139.514 104.993 131.915C107.833 127.976 111.477 124.345 116.087 122.584C116.329 122.493 116.224 122.102 115.98 122.195Z" fill="black"/>
<path d="M171.555 117.952C171.555 117.952 188.52 126.507 193.626 147.928C197.348 163.546 196.221 193.039 189.515 195.403C182.809 197.766 182.057 179.514 182 173.023C181.943 166.533 175.86 158.608 170.446 158.135C170.446 158.135 169.388 123.889 171.555 117.952Z" fill="#407BFF"/>
<path opacity="0.2" d="M168.91 122.585C172.948 124.127 176.242 127.117 178.901 130.458C181.714 133.993 183.915 138.012 185.686 142.157C187.612 146.664 189.038 151.409 189.878 156.239C190.765 161.328 190.944 166.499 191.014 171.654C191.099 177.891 191.229 184.357 188.817 190.231C188.718 190.472 189.11 190.577 189.207 190.339C191.376 185.059 191.491 179.279 191.441 173.655C191.395 168.347 191.301 163.018 190.53 157.757C189.796 152.754 188.43 147.84 186.535 143.153C184.835 138.949 182.712 134.876 180.001 131.231C177.149 127.394 173.549 123.926 169.017 122.195C168.774 122.102 168.669 122.493 168.91 122.585Z" fill="black"/>
<path d="M165.745 183.06H118.847C118.847 183.06 110.268 150.08 113.628 113.1C114.605 102.356 117.449 92.825 120.994 84.7078C121.055 84.5705 121.114 84.4321 121.176 84.2965C122.157 82.0751 123.191 79.9626 124.251 77.9604C129.823 67.4444 136.146 60.009 139.69 56.2665C141.29 54.5791 143.678 54.5791 145.276 56.2665C148.905 60.0972 155.445 67.7976 161.112 78.7121C162.173 80.7588 163.206 82.9177 164.181 85.1854C164.239 85.3194 164.297 85.4538 164.354 85.5894C167.721 93.5136 170.399 102.745 171.339 113.1C174.699 150.08 165.745 183.06 165.745 183.06Z" fill="#407BFF"/>
<g opacity="0.5">
<path d="M165.745 183.06H118.847C118.847 183.06 110.268 150.08 113.628 113.1C114.605 102.356 117.449 92.825 120.994 84.7078C121.055 84.5705 121.114 84.4321 121.176 84.2965C122.157 82.0751 123.191 79.9626 124.251 77.9604C129.823 67.4444 136.146 60.009 139.69 56.2665C141.29 54.5791 143.678 54.5791 145.276 56.2665C148.905 60.0972 155.445 67.7976 161.112 78.7121C162.173 80.7588 163.206 82.9177 164.181 85.1854C164.239 85.3194 164.297 85.4538 164.354 85.5894C167.721 93.5136 170.399 102.745 171.339 113.1C174.699 150.08 165.745 183.06 165.745 183.06Z" fill="white"/>
</g>
<path d="M160.542 178.36H125.396V178.897H160.542V178.36Z" fill="#407BFF"/>
<path d="M166.791 195.613H119.411C116.035 190.754 119.608 183.06 119.608 183.06H165.832C165.832 183.06 169.387 189.337 166.791 195.613Z" fill="#263238"/>
<path d="M154.82 200.018H131.13C129.442 197.589 131.228 193.741 131.228 193.741H154.34C154.34 193.741 156.118 196.88 154.82 200.018Z" fill="#263238"/>
<path d="M154.835 200.018H131.21C126.428 202.558 114.531 208.62 116.193 218.885H170.459C172.12 208.62 159.617 202.558 154.835 200.018Z" fill="#407BFF"/>
<path d="M172.093 216.715H114.154V221.186H172.093V216.715Z" fill="#263238"/>
<path d="M161.111 78.7117C156.834 81.7695 150.299 85.1962 142.483 85.1962C133.868 85.1962 127.727 81.1289 124.251 77.96C124.697 77.1174 125.148 76.2955 125.602 75.4937C125.673 75.3681 125.745 75.2426 125.816 75.117C130.97 66.0981 136.475 59.6626 139.689 56.2655C141.289 54.5782 143.677 54.5782 145.275 56.2655C148.497 59.6682 154.017 66.1226 159.182 75.17C159.254 75.2973 159.327 75.4239 159.399 75.5523C159.975 76.5723 160.547 77.6269 161.111 78.7117Z" fill="#407BFF"/>
<path opacity="0.2" d="M159.399 75.553C158.028 76.5367 156.573 77.4022 155.049 78.1348C149.705 80.7039 143.644 81.6151 137.794 80.6157C133.399 79.8658 129.208 78.0947 125.603 75.4938C125.673 75.3683 125.745 75.2427 125.816 75.1172C127.285 76.1846 128.856 77.1104 130.506 77.8821C135.837 80.3775 141.891 81.2022 147.68 80.1074C151.828 79.3239 155.77 77.6237 159.182 75.1702C159.255 75.2974 159.327 75.4246 159.399 75.553Z" fill="black"/>
<path d="M164.952 119.002C162.803 97.3068 161.121 88.6243 160.93 87.674C161.737 87.2293 162.495 86.784 163.182 86.351C163.586 86.0971 163.977 85.8416 164.353 85.5882C164.296 85.4526 164.238 85.3187 164.18 85.1842C163.786 85.4498 163.377 85.7177 162.952 85.9861C158.473 88.8073 151.321 92.1693 142.681 92.1693C134.052 92.1693 127.568 88.9167 123.647 86.1881C122.728 85.5492 121.905 84.9086 121.176 84.2959C121.114 84.4315 121.055 84.5699 120.994 84.7071C121.705 85.2997 122.503 85.9174 123.386 86.5329C123.95 86.9258 124.572 87.3297 125.239 87.7332C124.999 88.9401 123.339 97.6952 121.228 119.002C119.581 135.634 121.086 152.178 122.638 163.128C124.32 174.992 126.42 183.031 126.441 183.11C126.465 183.201 126.547 183.261 126.636 183.261C126.653 183.261 126.671 183.259 126.687 183.254C126.796 183.226 126.86 183.115 126.831 183.007C126.81 182.927 124.716 174.907 123.037 163.065C121.488 152.138 119.987 135.631 121.63 119.041C123.671 98.4323 125.29 89.5841 125.608 87.9525C129.631 90.3156 135.398 92.6023 142.68 92.6023C149.893 92.6023 156.072 90.2888 160.557 87.8777C160.836 89.2945 162.474 98.0908 164.549 119.041C166.192 135.631 164.69 152.138 163.141 163.065C161.463 174.907 159.368 182.928 159.348 183.007C159.319 183.115 159.384 183.226 159.492 183.254C159.509 183.259 159.526 183.261 159.543 183.261C159.633 183.261 159.715 183.201 159.738 183.11C159.759 183.031 161.859 174.992 163.54 163.128C165.094 152.178 166.599 135.634 164.952 119.002Z" fill="#407BFF"/>
<path d="M142.68 142.034C134.119 142.034 127.154 135.069 127.154 126.508C127.154 117.947 134.119 110.982 142.68 110.982C151.241 110.982 158.206 117.947 158.206 126.508C158.206 135.069 151.241 142.034 142.68 142.034ZM142.68 111.386C134.342 111.386 127.559 118.17 127.559 126.508C127.559 134.845 134.342 141.629 142.68 141.629C151.018 141.629 157.801 134.845 157.801 126.508C157.801 118.17 151.018 111.386 142.68 111.386Z" fill="#407BFF"/>
<path d="M154.437 126.506C154.437 133 149.171 138.261 142.683 138.261C142.592 138.261 142.5 138.261 142.409 138.255C140.35 138.212 138.42 137.633 136.757 136.657C135.428 135.885 134.259 134.85 133.331 133.633C131.818 131.659 130.923 129.187 130.923 126.506C130.923 126.045 130.95 125.589 131.003 125.138C131.625 119.743 135.91 115.459 141.309 114.831C141.76 114.778 142.216 114.751 142.682 114.751C145.358 114.751 147.825 115.647 149.803 117.159C151.026 118.087 152.055 119.25 152.828 120.585C153.809 122.248 154.388 124.173 154.431 126.232C154.437 126.324 154.437 126.415 154.437 126.506Z" fill="#407BFF"/>
<path opacity="0.1" d="M149.804 117.159L133.331 133.633C131.818 131.659 130.923 129.187 130.923 126.506C130.923 126.045 130.95 125.589 131.003 125.138L141.309 114.831C141.76 114.778 142.216 114.751 142.682 114.751C145.358 114.752 147.825 115.647 149.804 117.159Z" fill="white"/>
<path opacity="0.1" d="M154.431 126.233L142.409 138.256C140.35 138.213 138.419 137.634 136.757 136.658L152.828 120.587C153.81 122.249 154.389 124.174 154.431 126.233Z" fill="white"/>
<path d="M139.868 229.582L137.809 232.758L132.641 240.729L130.443 244.12L124.569 253.182H122.276L128.245 240.729L130.443 236.144L131.828 233.255H131.829L133.589 229.582H139.868Z" fill="#407BFF"/>
<path opacity="0.2" d="M139.868 229.582L137.809 232.758L132.641 240.729L130.443 244.12L124.569 253.182H122.276L128.245 240.729L130.443 236.144L131.828 233.255H131.829L133.589 229.582H139.868Z" fill="black"/>
<path d="M164.437 229.582L163.772 230.608L157.21 240.731L155.013 244.12L149.138 253.182H146.846L152.815 240.731L155.013 236.145L157.414 231.134L158.158 229.582H164.437Z" fill="#407BFF"/>
<path opacity="0.2" d="M164.437 229.582L163.772 230.608L157.21 240.731L155.013 244.12L149.138 253.182H146.846L152.815 240.731L155.013 236.145L157.414 231.134L158.158 229.582H164.437Z" fill="black"/>
<path d="M166.797 221.186H118.143V229.582H166.797V221.186Z" fill="#407BFF"/>
<path opacity="0.2" d="M166.797 221.186H118.143V229.582H166.797V221.186Z" fill="white"/>
<path d="M138.61 253.182H136.318L130.443 244.12L128.245 240.729L123.829 233.917L121.019 229.582H127.298L129.164 233.474L130.443 236.144L132.641 240.729L138.61 253.182Z" fill="#407BFF"/>
<path d="M163.179 253.182H160.886L155.013 244.12L152.816 240.731L147.146 231.984L145.589 229.582H151.866L152.794 231.517L155.013 236.145L157.211 240.731L163.179 253.182Z" fill="#407BFF"/>
<path d="M219.623 116.546C219.623 116.546 216.761 122.494 213.334 127.41C212.899 128.029 212.464 128.632 212.018 129.201C209.741 132.13 207.353 134.273 205.461 133.765C194.932 130.942 188.28 122.064 188.28 122.064L190.256 119.821C190.256 119.821 202.956 124.77 203.949 124.676C204.942 124.586 211.186 108.912 211.186 108.912L219.623 116.546Z" fill="#407BFF"/>
<path opacity="0.2" d="M214.306 123.571L213.335 127.41C212.9 128.03 212.464 128.632 212.018 129.202C211.957 128.113 211.772 126.97 211.387 125.898C210.601 123.716 207.732 120.965 208.971 118.075C210.366 114.822 211.203 110.972 211.203 110.972L214.306 123.571Z" fill="black"/>
<path opacity="0.2" d="M209.012 132.207C207.055 130.732 204.406 130.982 202.776 132.815C202.601 133.011 202.315 132.722 202.488 132.528C204.227 130.572 207.124 130.279 209.217 131.856C209.424 132.011 209.222 132.364 209.012 132.207Z" fill="black"/>
<path d="M205.619 126.445L192.007 126.164C191.149 126.146 190.301 125.486 190.111 124.689L185.864 106.848C185.674 106.051 186.216 105.419 187.073 105.437L200.685 105.718C201.542 105.736 202.391 106.396 202.58 107.193L206.827 125.034C207.017 125.831 206.476 126.462 205.619 126.445Z" fill="#263238"/>
<path opacity="0.2" d="M205.619 126.445L192.007 126.164C191.149 126.146 190.301 125.486 190.111 124.689L185.864 106.848C185.674 106.051 186.216 105.419 187.073 105.437L200.685 105.718C201.542 105.736 202.391 106.396 202.58 107.193L206.827 125.034C207.017 125.831 206.476 126.462 205.619 126.445Z" fill="white"/>
<path d="M204.216 126.416L190.603 126.135C189.746 126.117 188.897 125.457 188.708 124.66L184.461 106.818C184.271 106.021 184.812 105.39 185.669 105.408L199.282 105.689C200.139 105.707 200.988 106.367 201.177 107.164L205.424 125.005C205.613 125.801 205.073 126.433 204.216 126.416Z" fill="#263238"/>
<path opacity="0.2" d="M192.429 116.386C192.665 117.408 193.719 118.255 194.782 118.276C195.845 118.298 196.515 117.488 196.279 116.466C196.043 115.444 194.99 114.597 193.927 114.576C192.863 114.553 192.193 115.364 192.429 116.386Z" fill="white"/>
<path d="M187.811 117.534C187.811 117.534 190.794 117.367 191.265 117.978C191.737 118.589 188.749 119.186 188.749 119.186C188.749 119.186 190.513 119.133 190.961 119.551C191.408 119.969 189.218 120.643 189.218 120.643C189.218 120.643 190.398 120.656 190.442 121.301C190.486 121.947 190.039 122.18 189.384 122.339C188.73 122.498 188.084 122.238 187.825 121.98C187.567 121.722 187.787 121.061 187.787 121.061C187.787 121.061 186.666 120.506 186.624 120.078C186.583 119.649 186.891 119.362 186.891 119.362C186.891 119.362 186.361 119.277 186.17 118.763C185.979 118.25 186.228 117.938 186.228 117.938C186.228 117.938 185.779 116.982 185.635 116.424C185.492 115.867 186.477 115.426 187.074 115.077C187.671 114.728 188.747 115.951 189.731 116.169C189.731 116.169 190.234 116.476 189.695 116.852C189.157 117.228 188.006 116.664 187.756 116.686C187.507 116.708 187.811 117.534 187.811 117.534Z" fill="#B55B52"/>
<path d="M213.172 82.7669C213.172 82.7669 209.475 84.2355 210.366 87.1901C211.257 90.1447 208.879 89.8685 208.592 92.7283C208.306 95.5886 213.166 96.4714 211.845 99.0337C210.524 101.596 208.478 102.335 209.824 104.83C211.171 107.326 212.928 110.183 212.928 112.031C212.928 116.406 221.301 105.621 227.742 107.398C234.183 109.174 235.878 102.849 233.245 101.39C230.611 99.9315 227.197 97.7787 228.194 93.957C229.192 90.1353 229.911 88.3988 226.982 86.3883C224.054 84.3778 225.66 84.0754 223.968 82.2485C222.449 80.6085 220.227 82.2998 217.857 81.5878C215.487 80.8764 213.172 82.7669 213.172 82.7669Z" fill="#263238"/>
<path d="M214.317 96.7672C214.404 97.5205 215.085 98.0606 215.838 97.9736C216.591 97.8865 217.131 97.2052 217.044 96.4525C216.957 95.6992 216.276 95.159 215.523 95.2466C214.77 95.3331 214.23 96.0139 214.317 96.7672Z" fill="white"/>
<path d="M211.606 242.024L210.113 248.171H206.876L206.729 242.024H211.606Z" fill="#B55B52"/>
<path d="M197.478 252.519C197.653 250.517 198.533 249.919 199.619 249.851C200.749 249.78 204.783 248.429 204.783 248.429C204.783 248.429 205.626 247.157 206.369 246.899C207.111 246.64 207.83 247.397 207.83 247.397L209.861 247.149C209.861 247.149 210.47 246.235 210.889 247.036C211.539 248.278 211.46 251.714 211.4 252.52H197.478V252.519Z" fill="#407BFF"/>
<path d="M197.741 251.996C198.584 251.992 199.423 251.988 200.266 251.984C203.946 251.966 207.627 251.944 211.308 251.926C211.449 251.927 211.42 251.712 211.279 251.715C211.032 251.718 210.779 251.717 210.532 251.719C210.531 251.711 210.525 251.699 210.52 251.691C209.837 250.537 210.292 249.365 211.273 248.78C211.388 248.716 211.252 248.528 211.141 248.597C210.08 249.23 209.619 250.484 210.309 251.718C209.789 251.724 209.272 251.725 208.752 251.727C205.075 251.745 201.394 251.766 197.714 251.784C197.573 251.783 197.601 251.999 197.741 251.996Z" fill="black"/>
<path d="M205.393 249.294C204.819 248.62 203.98 248.429 203.369 248.937C203.27 249.019 203.138 248.835 203.235 248.753C203.937 248.17 204.913 248.423 205.563 249.187C205.658 249.299 205.488 249.406 205.393 249.294Z" fill="white"/>
<path d="M204.252 249.653C203.677 248.979 202.839 248.787 202.227 249.296C202.128 249.378 201.996 249.193 202.094 249.112C202.796 248.528 203.771 248.782 204.421 249.545C204.517 249.657 204.346 249.764 204.252 249.653Z" fill="white"/>
<path d="M203.072 250.011C202.498 249.337 201.659 249.146 201.048 249.654C200.949 249.736 200.816 249.551 200.914 249.47C201.616 248.886 202.591 249.14 203.242 249.904C203.338 250.016 203.167 250.122 203.072 250.011Z" fill="white"/>
<path d="M224.997 161.508C224.339 167.702 223.044 175.715 220.701 186.027C220.02 189.023 219.25 192.215 218.379 195.613C220.762 215.288 211.438 243.713 211.438 243.713L206.444 243.601C206.444 243.601 205.817 211.836 206.405 195.206C207.367 167.959 210.686 142.004 210.686 142.004L224.289 141.95C224.289 141.95 226.638 146.046 224.997 161.508Z" fill="#263238"/>
<path opacity="0.2" d="M224.997 161.508C224.339 167.702 223.044 175.714 220.701 186.026C217.838 175.129 223.016 151.871 223.016 151.871L224.997 161.508Z" fill="black"/>
<path d="M205.87 244.777L205.712 242.638H212.374L211.998 244.777H205.87Z" fill="#263238"/>
<path d="M232.312 242.024L230.819 248.171H227.582L227.436 242.024H232.312Z" fill="#B55B52"/>
<path d="M226.455 244.777L226.297 242.638H232.959L232.583 244.777H226.455Z" fill="#263238"/>
<path d="M218.184 252.519C218.359 250.517 219.239 249.919 220.325 249.851C221.455 249.78 225.489 248.429 225.489 248.429C225.489 248.429 226.332 247.157 227.075 246.899C227.817 246.64 228.536 247.397 228.536 247.397L230.567 247.149C230.567 247.149 231.176 246.235 231.595 247.036C232.245 248.278 232.166 251.714 232.106 252.52H218.184V252.519Z" fill="#407BFF"/>
<path d="M218.448 251.996C219.29 251.992 220.129 251.988 220.972 251.984C224.653 251.966 228.333 251.944 232.014 251.926C232.155 251.927 232.127 251.712 231.986 251.715C231.738 251.718 231.486 251.717 231.238 251.719C231.237 251.711 231.232 251.699 231.226 251.691C230.543 250.537 230.998 249.365 231.979 248.78C232.094 248.716 231.957 248.528 231.846 248.597C230.786 249.23 230.325 250.484 231.014 251.718C230.494 251.724 229.978 251.725 229.457 251.727C225.78 251.745 222.1 251.766 218.419 251.784C218.279 251.783 218.308 251.999 218.448 251.996Z" fill="black"/>
<path d="M226.099 249.294C225.525 248.62 224.686 248.429 224.075 248.937C223.976 249.019 223.844 248.835 223.941 248.753C224.643 248.17 225.619 248.423 226.269 249.187C226.364 249.299 226.194 249.406 226.099 249.294Z" fill="white"/>
<path d="M224.958 249.653C224.383 248.979 223.545 248.787 222.933 249.296C222.834 249.378 222.702 249.193 222.8 249.112C223.502 248.528 224.477 248.782 225.127 249.545C225.223 249.657 225.053 249.764 224.958 249.653Z" fill="white"/>
<path d="M223.778 250.011C223.204 249.337 222.365 249.146 221.754 249.654C221.655 249.736 221.523 249.551 221.62 249.47C222.322 248.886 223.298 249.14 223.948 249.904C224.043 250.016 223.873 250.122 223.778 250.011Z" fill="white"/>
<path d="M220.312 143.052C220.312 143.052 222.856 180.664 223.687 195.614C224.637 212.691 226.775 241.802 227.064 243.707H232.225C231.634 244.283 238.85 218.154 235.941 196.881C238.668 176.533 241.986 161.635 237.708 142.477L220.312 143.052Z" fill="#263238"/>
<path d="M239.26 143.96C228.412 147.542 210.183 146.365 210.183 143.881C210.183 136.884 212.66 129.016 211.996 124.457C206.868 120.87 210.875 117.628 210.428 112.31C210.082 108.253 212.956 104.615 216.968 103.923C217.894 103.767 218.854 103.611 219.797 103.488C219.992 103.46 220.182 103.438 220.372 103.415C222.894 103.103 225.293 103.041 227.955 103.058C228.881 103.058 229.841 103.075 230.845 103.086C231.844 103.103 232.821 103.147 233.747 103.214C237.195 103.454 239.69 106.635 239.081 110.05C238.194 115.089 237.692 119.848 237.502 124.173C237.458 125.149 237.424 126.092 237.413 127.019C237.357 130.64 237.525 133.91 237.854 136.728C237.859 136.789 237.871 136.851 237.876 136.906C238.032 138.19 238.222 139.373 238.445 140.455C238.512 140.796 238.585 141.119 238.663 141.437C238.819 142.113 239.081 143.291 239.26 143.96Z" fill="#407BFF"/>
<path opacity="0.2" d="M219.554 112.391C219.554 112.583 219.398 112.738 219.206 112.738C219.014 112.738 218.858 112.583 218.858 112.391C218.858 112.199 219.014 112.043 219.206 112.043C219.398 112.043 219.554 112.198 219.554 112.391Z" fill="black"/>
<path opacity="0.2" d="M218.995 115.866C219.187 115.866 219.343 115.711 219.343 115.519C219.343 115.327 219.187 115.171 218.995 115.171C218.803 115.171 218.647 115.327 218.647 115.519C218.647 115.711 218.803 115.866 218.995 115.866Z" fill="black"/>
<path opacity="0.2" d="M218.995 119.048C219.187 119.048 219.343 118.892 219.343 118.7C219.343 118.508 219.187 118.353 218.995 118.353C218.803 118.353 218.647 118.508 218.647 118.7C218.647 118.892 218.803 119.048 218.995 119.048Z" fill="black"/>
<path d="M227.955 103.058C225.386 107.572 219.343 110.275 219.343 110.275C218.527 108.252 218.783 105.009 219.797 103.488C219.992 103.46 220.182 103.438 220.371 103.416C222.894 103.103 225.293 103.042 227.955 103.058Z" fill="#B55B52"/>
<path opacity="0.2" d="M238.445 140.456C227.76 139.279 217.459 129.201 217.459 129.201L237.514 135.88C237.597 136.232 237.726 136.572 237.876 136.907C238.032 138.191 238.222 139.374 238.445 140.456Z" fill="black"/>
<path opacity="0.2" d="M237.084 126.416C236.771 128.313 236.643 130.322 236.754 132.208C235.65 132.66 233.964 133.05 232.078 132.403C228.764 131.27 227.09 128.168 227.09 128.168C227.09 128.168 233.178 129.368 234.684 128.81C236.035 128.307 232.804 117.85 232.698 117.555L237.167 123.642C237.123 124.592 237.095 125.512 237.084 126.416Z" fill="black"/>
<path d="M219.728 104.831C219.706 104.899 219.677 104.967 219.633 105.037C218.759 106.415 219.709 107.674 221.213 107.566C221.359 107.555 221.502 107.535 221.643 107.507C222.184 107.399 222.684 107.122 223.058 106.717C223.06 106.715 223.061 106.713 223.063 106.712C224.865 104.756 226.803 103.274 226.803 103.274C224.543 102.064 223.718 97.7625 223.508 95.0752L220 99.5414L219.343 100.517C219.661 101.079 219.944 101.662 220.104 102.242C220.362 103.139 220.336 104.031 219.728 104.831Z" fill="#B55B52"/>
<path d="M226.455 103.057C226.455 103.057 228.556 102.51 230.21 103.057L226.802 108.912C225.008 107.604 222.952 109.302 219.343 110.275C219.343 110.275 223.643 108.114 226.455 103.057Z" fill="#407BFF"/>
<path opacity="0.2" d="M226.455 103.057C226.455 103.057 228.556 102.51 230.21 103.057L226.802 108.912C225.008 107.604 222.952 109.302 219.343 110.275C219.343 110.275 223.643 108.114 226.455 103.057Z" fill="white"/>
<path d="M220.257 103.324C220.257 103.324 218.175 102.942 216.968 103.923C216.968 103.923 216.272 106.253 215.993 108.531C215.993 108.531 217.996 107.531 219.343 110.275C219.343 110.275 218.662 105.905 220.257 103.324Z" fill="#407BFF"/>
<path opacity="0.2" d="M220.257 103.324C220.257 103.324 218.175 102.942 216.968 103.923C216.968 103.923 216.272 106.253 215.993 108.531C215.993 108.531 217.996 107.531 219.343 110.275C219.343 110.275 218.662 105.905 220.257 103.324Z" fill="white"/>
<g opacity="0.2">
<path d="M220.103 102.241C219.944 101.663 219.66 101.079 219.343 100.516L220 99.541L222.208 99.5912C222.208 99.5912 221.628 101.375 220.103 102.241Z" fill="black"/>
</g>
<path d="M224.15 90.2866C224.502 94.7021 224.743 96.5636 222.89 99.1153C220.103 102.953 214.707 102.399 213.068 98.1723C211.593 94.3678 211.266 87.7868 215.224 85.4543C219.124 83.1565 223.799 85.8717 224.15 90.2866Z" fill="#B55B52"/>
<path d="M215.663 84.6194C215.663 84.6194 214.733 88.3865 216.955 89.3318C219.177 90.2764 222.208 88.9774 222.208 91.8478C222.208 93.466 224.745 92.9688 224.588 91.4717C224.43 89.9746 225.488 87.1399 222.351 85.5904C219.214 84.0408 215.663 84.6194 215.663 84.6194Z" fill="#263238"/>
<path d="M222.102 93.8623C221.891 93.8623 221.662 93.8015 221.417 93.6798C219.917 92.9343 219.714 89.1449 219.706 88.9837L219.99 88.9697C219.992 89.0077 220.192 92.7535 221.544 93.4254C221.893 93.5989 222.193 93.624 222.433 93.499C222.93 93.2418 223.061 92.4349 223.062 92.4271L223.343 92.4701C223.336 92.5091 223.19 93.4259 222.565 93.7507C222.422 93.8254 222.267 93.8623 222.102 93.8623Z" fill="#263238"/>
<path d="M215.881 85.8547C215.881 85.8547 213.432 89.7473 211.731 88.8405C210.03 87.9332 214.077 83.5362 215.663 84.6198C217.248 85.7035 215.881 85.8547 215.881 85.8547Z" fill="#263238"/>
<path d="M214.908 97.0921C214.908 97.0921 217.059 96.1195 217.531 95.1826C217.531 95.1826 217.847 96.8577 216.721 97.4754C215.593 98.0926 214.908 97.0921 214.908 97.0921Z" fill="white"/>
<path d="M216.621 92.2435C216.671 92.6 216.523 92.9153 216.29 92.9482C216.057 92.9811 215.827 92.7183 215.777 92.3617C215.727 92.0052 215.876 91.6899 216.109 91.657C216.341 91.6246 216.571 91.8875 216.621 92.2435Z" fill="#263238"/>
<path d="M213.04 92.845C213.09 93.2016 212.942 93.5168 212.709 93.5498C212.476 93.5827 212.246 93.3199 212.196 92.9633C212.146 92.6068 212.294 92.2915 212.528 92.2586C212.76 92.2262 212.99 92.4885 213.04 92.845Z" fill="#263238"/>
<path d="M212.633 92.2644L211.742 92.1377C211.742 92.1377 212.275 92.7448 212.633 92.2644Z" fill="#263238"/>
<path d="M214.593 92.7715C214.593 92.7715 214.111 93.8027 213.559 94.7161C213.38 95.013 213.514 95.4036 213.845 95.5113C214.413 95.696 215.006 95.7328 215.006 95.7328L214.593 92.7715Z" fill="#A02724"/>
<path d="M226.133 93.1003C225.859 93.9931 225.247 94.6159 224.625 94.8876C223.691 95.2961 223.057 94.2972 223.178 93.1751C223.287 92.1657 223.904 90.7366 224.91 90.8114C225.901 90.8851 226.446 92.0797 226.133 93.1003Z" fill="#B55B52"/>
<path d="M224.45 94.0742H224.265V96.1299H224.45V94.0742Z" fill="white"/>
<path d="M224.388 97.2281C224.799 97.2281 225.132 96.8946 225.132 96.4832C225.132 96.0718 224.799 95.7383 224.388 95.7383C223.976 95.7383 223.643 96.0718 223.643 96.4832C223.643 96.8946 223.976 97.2281 224.388 97.2281Z" fill="white"/>
<path d="M217.652 91.3133C217.597 91.3038 217.545 91.2726 217.511 91.2229C216.986 90.44 216.209 90.4406 216.2 90.4406C216.084 90.4411 215.987 90.3491 215.985 90.2319C215.984 90.1153 216.077 90.0198 216.194 90.0176C216.235 90.017 217.211 90.0154 217.863 90.9874C217.928 91.0845 217.902 91.2156 217.805 91.2809C217.758 91.3122 217.703 91.3222 217.652 91.3133Z" fill="#263238"/>
<path d="M211.6 91.4705C211.548 91.475 211.494 91.4605 211.45 91.4248C211.359 91.3517 211.345 91.2183 211.417 91.1274C212.151 90.2167 213.123 90.3026 213.164 90.3065C213.28 90.3183 213.365 90.4221 213.353 90.5381C213.341 90.6542 213.238 90.7384 213.123 90.7273C213.084 90.7234 212.33 90.6681 211.747 91.3924C211.709 91.4393 211.656 91.4661 211.6 91.4705Z" fill="#263238"/>
<path d="M216.214 91.6628L215.323 91.5361C215.323 91.5361 215.857 92.1438 216.214 91.6628Z" fill="#263238"/>
<path d="M238.787 106.973C238.787 106.973 246.459 127.82 245.231 134.646C243.211 145.88 217.927 130.828 217.444 128.697L219.701 125.456C219.701 125.456 236.061 131.412 236.96 130.842C237.859 130.272 231.798 114.262 231.798 114.262C231.798 114.262 232.708 104.583 238.787 106.973Z" fill="#407BFF"/>
<path opacity="0.2" d="M245.152 132.934C242.797 133.701 241.306 135.9 241.506 138.375C241.527 138.637 241.122 138.691 241.1 138.428C240.887 135.783 242.463 133.38 244.994 132.557C245.242 132.476 245.402 132.853 245.152 132.934Z" fill="black"/>
<path d="M220.361 126.097C220.361 126.097 218.002 119.874 217.446 119.348C216.891 118.823 210.714 118.848 210.079 118.686C209.444 118.525 209.79 119.675 210.918 119.832C212.047 119.989 214.098 120.514 214.098 120.514C214.098 120.514 212.194 120.383 211.832 120.818C211.47 121.252 209.87 124.377 210.309 125.868C210.748 127.36 212.547 127.42 213.074 127.552C213.6 127.684 213.05 126.144 213.05 126.144C213.05 126.144 213.633 126.419 214.541 126.521C215.421 126.62 216.575 128.312 217.445 128.698C219.143 129.45 221.121 126.543 220.361 126.097Z" fill="#B55B52"/>
<path d="M215.641 120.75C215.145 120.649 214.664 120.622 214.158 120.652C213.974 120.662 213.945 120.377 214.13 120.366C214.66 120.335 215.165 120.36 215.687 120.466C215.868 120.503 215.823 120.787 215.641 120.75Z" fill="#994731"/>
<path d="M214.134 122.037C213.286 121.753 212.346 121.459 211.497 121.911C211.337 121.996 211.169 121.762 211.332 121.676C212.283 121.17 213.289 121.454 214.253 121.776C214.429 121.835 214.308 122.095 214.134 122.037Z" fill="#994731"/>
<path d="M213.335 123.307C212.554 122.931 211.666 122.959 210.916 123.399C210.758 123.492 210.592 123.258 210.751 123.164C211.588 122.673 212.578 122.624 213.454 123.046C213.62 123.126 213.501 123.387 213.335 123.307Z" fill="#994731"/>
<path d="M213.054 126.312C212.491 125.989 212.09 125.475 211.937 124.842C211.894 124.664 212.163 124.562 212.206 124.742C212.341 125.299 212.674 125.764 213.174 126.051C213.333 126.142 213.215 126.404 213.054 126.312Z" fill="#994731"/>
<path d="M212.248 125.629C211.95 125.52 211.613 125.612 211.406 125.849C211.285 125.988 211.064 125.805 211.186 125.665C211.482 125.326 211.948 125.213 212.368 125.368C212.541 125.432 212.42 125.693 212.248 125.629Z" fill="#994731"/>
<path d="M212.588 95.7065C212.259 95.7065 211.926 95.5229 211.637 95.1775C211.313 94.7919 211.08 94.249 210.98 93.6469C210.771 92.392 211.218 91.2682 211.975 91.1421C212.734 91.0182 213.519 91.935 213.728 93.1905C213.828 93.792 213.783 94.3818 213.602 94.8511C213.415 95.3332 213.106 95.6329 212.732 95.6948C212.684 95.7026 212.636 95.7065 212.588 95.7065ZM212.119 91.2726C212.078 91.2726 212.039 91.276 211.998 91.2827C211.318 91.396 210.924 92.4461 211.12 93.6241C211.215 94.201 211.438 94.7205 211.746 95.0866C212.044 95.4415 212.382 95.6083 212.709 95.5547C213.031 95.5012 213.301 95.2333 213.469 94.8003C213.641 94.3545 213.684 93.7909 213.588 93.2139C213.403 92.1052 212.761 91.2726 212.119 91.2726Z" fill="white"/>
<path d="M216.438 95.0586C215.725 95.0586 215.022 94.1775 214.826 92.9996C214.617 91.7446 215.064 90.6208 215.821 90.4947C216.58 90.3764 217.364 91.2882 217.573 92.5431C217.673 93.1446 217.629 93.7344 217.447 94.2037C217.26 94.6858 216.952 94.9855 216.578 95.0474C216.531 95.0547 216.484 95.0586 216.438 95.0586ZM215.964 90.6253C215.923 90.6253 215.884 90.6286 215.844 90.6353C215.163 90.7486 214.769 91.7987 214.965 92.9761C215.161 94.1541 215.883 95.0195 216.554 94.9068C216.876 94.8532 217.146 94.5854 217.313 94.1524C217.486 93.7066 217.528 93.143 217.432 92.566C217.248 91.4578 216.606 90.6253 215.964 90.6253Z" fill="white"/>
<path d="M211.099 93.6879L211 93.5858C211.014 93.5724 211.344 93.261 212.041 93.1885L212.055 93.3296C211.411 93.3966 211.102 93.6845 211.099 93.6879Z" fill="white"/>
<path d="M213.619 92.9479L213.507 92.8608C213.512 92.8536 214.098 92.1126 214.894 92.6081L214.819 92.7286C214.136 92.3023 213.64 92.9211 213.619 92.9479Z" fill="white"/>
<path d="M217.485 92.3643L217.418 92.2394C217.449 92.2232 220.483 90.6139 223.655 91.163L223.63 91.303C220.509 90.7623 217.515 92.3487 217.485 92.3643Z" fill="white"/>
<path d="M108.811 242.496L102.042 243.004L89.4204 214.133L83.2578 198.781L99.1156 191.534L101.038 202.304L101.094 202.482L108.811 242.496Z" fill="#263238"/>
<path d="M102.575 241.596L105.011 247.994H108.372L107.641 241.596H102.575Z" fill="#B55B52"/>
<path d="M109.862 244.63L109.574 241.36H100.563L101.407 244.63H109.862Z" fill="#263238"/>
<path d="M118.758 252.519C118.288 250.434 117.289 249.812 116.15 249.741C114.966 249.666 110.583 248.261 110.583 248.261C110.583 248.261 109.525 246.937 108.716 246.668C107.907 246.399 107.27 247.187 107.27 247.187L105.124 246.929C105.124 246.929 104.37 245.982 104.041 246.811C103.662 247.764 103.789 251.872 103.812 252.519H118.758Z" fill="#407BFF"/>
<path d="M118.409 251.973C117.533 251.97 116.661 251.966 115.786 251.961C111.961 251.943 108.135 251.92 104.31 251.901C104.164 251.902 104.163 251.678 104.309 251.681C104.567 251.684 104.829 251.683 105.086 251.686C105.086 251.677 105.09 251.664 105.095 251.656C105.638 250.455 104.996 249.235 103.894 248.627C103.766 248.56 103.881 248.364 104.005 248.435C105.197 249.094 105.857 250.399 105.318 251.684C105.859 251.69 106.395 251.692 106.937 251.693C110.758 251.711 114.583 251.734 118.408 251.752C118.554 251.752 118.555 251.977 118.409 251.973Z" fill="black"/>
<path d="M110.075 249.162C110.574 248.461 111.418 248.261 112.126 248.79C112.241 248.876 112.352 248.683 112.238 248.599C111.425 247.991 110.449 248.255 109.884 249.05C109.801 249.167 109.993 249.278 110.075 249.162Z" fill="white"/>
<path d="M111.311 249.535C111.811 248.834 112.654 248.635 113.363 249.164C113.477 249.249 113.588 249.056 113.475 248.972C112.662 248.364 111.685 248.628 111.12 249.423C111.037 249.54 111.229 249.651 111.311 249.535Z" fill="white"/>
<path d="M112.589 249.908C113.089 249.207 113.932 249.008 114.64 249.537C114.754 249.622 114.865 249.429 114.752 249.345C113.939 248.737 112.963 249.001 112.397 249.796C112.314 249.913 112.507 250.024 112.589 249.908Z" fill="white"/>
<path d="M87.5632 218.398L88.7043 226.077L89.11 228.843L92.5143 252.056H90.467L85.5762 228.843L84.9936 226.077L83.376 218.398H87.5632Z" fill="#407BFF"/>
<path d="M79.5749 218.398L80.716 226.077L81.1217 228.843L84.5261 252.056H82.4782L77.5879 228.843L77.0053 226.077L75.3877 218.398H79.5749Z" fill="#407BFF"/>
<g opacity="0.2">
<path d="M79.5749 218.398L80.716 226.077L81.1217 228.843L84.5261 252.056H82.4782L77.5879 228.843L77.0053 226.077L75.3877 218.398H79.5749Z" fill="black"/>
</g>
<path d="M41.5678 212.565L38.7209 226.076L38.1384 228.842L33.2481 252.056H31.2002L34.6046 228.842L35.0108 226.076L37.0185 212.565H41.5678Z" fill="#407BFF"/>
<path d="M49.5565 212.565L46.7102 226.076L46.1271 228.842L41.2368 252.056H39.1895L42.5933 228.842L42.9995 226.076L45.0072 212.565H49.5565Z" fill="#407BFF"/>
<g opacity="0.2">
<path d="M49.5565 212.565L46.7102 226.076L46.1271 228.842L41.2368 252.056H39.1895L42.5933 228.842L42.9995 226.076L45.0072 212.565H49.5565Z" fill="black"/>
</g>
<path d="M36.9866 218.503H87.6821L86.6698 214.526C84.9719 207.854 80.206 203.354 74.8386 203.354H33.1309L36.9866 218.503Z" fill="#407BFF"/>
<path d="M30.3406 192.858L35.1406 210.728L83.4695 210.783L80.492 199.699C78.5038 192.298 71.9446 186.858 64.2821 186.731C64.267 186.73 64.2525 186.73 64.2375 186.73C63.6917 184.593 58.2083 164.409 45.9496 164.776C33.0068 165.165 35.8141 186.73 35.8141 186.73H33.6513C31.2312 186.73 29.5371 189.865 30.3406 192.858Z" fill="#407BFF"/>
<g opacity="0.2">
<path d="M30.3406 192.858L35.1406 210.728L83.4695 210.783L80.492 199.699C78.5038 192.298 71.9446 186.858 64.2821 186.731C64.267 186.73 64.2525 186.73 64.2375 186.73C63.6917 184.593 58.2083 164.409 45.9496 164.776C33.0068 165.165 35.8141 186.73 35.8141 186.73H33.6513C31.2312 186.73 29.5371 189.865 30.3406 192.858Z" fill="black"/>
</g>
<path d="M53.9746 163.291C53.9746 163.291 55.3495 180.527 57.5369 186.043C62.5539 198.694 71.31 183.173 71.31 183.173L65.5135 174.868L63.8557 162.085L53.9746 163.291Z" fill="#FF8B7B"/>
<path d="M65.1899 174.763C64.503 174.908 63.8156 175.053 63.1287 175.199C62.8592 175.256 62.9484 175.675 63.2191 175.618C63.906 175.473 64.5934 175.328 65.2803 175.182C65.5498 175.125 65.4606 174.706 65.1899 174.763Z" fill="#742823"/>
<path d="M78.2291 159.669C78.2291 159.669 83.8866 176.185 85.8949 180.335C87.9031 184.485 79.9315 186.912 75.0808 185.565C70.2301 184.218 70.9952 163.805 70.9952 163.805L78.2291 159.669Z" fill="#FFB0A5"/>
<path d="M67.166 141.889C67.166 141.889 60.7139 157.384 64.1272 167.254L80.3292 162.835C80.3292 162.835 80.4068 155.569 78.4142 149.807C75.2782 140.74 67.166 141.889 67.166 141.889Z" fill="#407BFF"/>
<path d="M41.9553 195.956C38.6307 193.708 38.5236 184.083 39.1937 175.31C39.2261 173.074 39.3226 170.543 39.5157 167.83C39.7088 165.127 39.9984 162.247 40.4325 159.303V159.298C41.0547 155.046 41.9714 150.654 43.3012 146.46C44.1644 143.726 48.6574 140.875 52.7319 139.5C56.9169 138.088 61.4931 138.706 61.4931 138.706C61.4931 138.706 64.0716 139.301 67.9218 140.671C73.2473 142.565 76.6283 145.174 76.2795 146.648C76.092 147.452 76.2633 151.775 75.2824 157.041C74.7517 159.877 74.408 162.95 73.9365 166.033C73.9365 166.033 73.9365 166.038 73.9365 166.044C73.9365 166.055 73.9309 166.071 73.9309 166.097C73.9253 166.183 73.9147 166.344 73.9041 166.575C73.7646 169.111 73.4432 180.045 77.5451 187.579C83.6853 198.873 46.7435 199.184 41.9553 195.956Z" fill="#407BFF"/>
<g opacity="0.2">
<path d="M41.9553 195.956C38.6307 193.708 38.5236 184.083 39.1937 175.31C39.2261 173.074 39.3226 170.543 39.5157 167.83C39.7088 165.127 39.9984 162.247 40.4325 159.303V159.298C41.0547 155.046 41.9714 150.654 43.3012 146.46C44.1644 143.726 48.6574 140.875 52.7319 139.5C56.9169 138.088 61.4931 138.706 61.4931 138.706C61.4931 138.706 64.0716 139.301 67.9218 140.671C73.2473 142.565 76.6283 145.174 76.2795 146.648C76.092 147.452 76.2633 151.775 75.2824 157.041C74.7517 159.877 74.408 162.95 73.9365 166.033C73.9365 166.033 73.9365 166.038 73.9365 166.044C73.9365 166.055 73.9309 166.071 73.9309 166.097C73.9253 166.183 73.9147 166.344 73.9041 166.575C73.7646 169.111 73.4432 180.045 77.5451 187.579C83.6853 198.873 46.7435 199.184 41.9553 195.956Z" fill="white"/>
</g>
<path d="M67.1561 148.761C66.9982 148.761 66.8292 148.749 66.6495 148.724C61.6587 148.029 57.4765 138.688 57.4347 138.593C57.419 138.558 57.4352 138.517 57.4704 138.501C57.505 138.486 57.5468 138.501 57.5625 138.537C57.6037 138.63 61.7553 147.902 66.669 148.585C67.5188 148.703 68.1059 148.53 68.4105 148.07C69.6621 146.181 66.0463 140.092 66.0095 140.031C65.9899 139.997 66.0005 139.955 66.0335 139.935C66.0664 139.915 66.1088 139.926 66.1289 139.959C66.2801 140.212 69.8262 146.185 68.5266 148.147C68.2565 148.556 67.7967 148.761 67.1561 148.761Z" fill="white"/>
<path d="M76.7251 243.091L70.1647 242.743L79.8722 207.849C79.8722 207.849 78.5637 208.107 76.4562 208.445C69.335 209.587 53.1134 211.625 47.6762 207.582C39.8363 201.758 40.4261 194.004 40.4261 194.004C40.4261 194.004 102.44 175.865 104.038 193.347C104.757 201.181 76.7251 243.091 76.7251 243.091Z" fill="#263238"/>
<path d="M70.9761 241.82L70.3076 247.993H73.669L76.0411 241.82H70.9761Z" fill="#B55B52"/>
<path d="M69.0371 244.63L69.325 241.36H78.3356L77.4925 244.63H69.0371Z" fill="#263238"/>
<path d="M84.7183 252.519C84.2479 250.434 83.2486 249.812 82.1102 249.741C80.9262 249.666 76.5425 248.261 76.5425 248.261C76.5425 248.261 75.4845 246.937 74.676 246.668C73.8675 246.399 73.2302 247.187 73.2302 247.187L71.0842 246.929C71.0842 246.929 70.3297 245.982 70.0005 246.811C69.6222 247.764 69.7494 251.872 69.7723 252.519H84.7183Z" fill="#407BFF"/>
<path d="M84.3691 251.973C83.493 251.97 82.6214 251.966 81.7459 251.961C77.9209 251.943 74.0952 251.92 70.2701 251.901C70.1239 251.902 70.1228 251.678 70.269 251.681C70.5262 251.684 70.7885 251.683 71.0463 251.686C71.0463 251.677 71.0502 251.664 71.0547 251.656C71.5982 250.455 70.9565 249.235 69.8544 248.627C69.7255 248.56 69.8405 248.364 69.9649 248.435C71.1573 249.094 71.8169 250.399 71.2779 251.684C71.8186 251.69 72.3554 251.692 72.8966 251.693C76.7178 251.711 80.5429 251.734 84.368 251.752C84.5142 251.752 84.5153 251.977 84.3691 251.973Z" fill="black"/>
<path d="M76.0341 249.162C76.5335 248.461 77.3766 248.261 78.0853 248.79C78.1997 248.876 78.3107 248.683 78.1974 248.599C77.3844 247.991 76.4079 248.255 75.8427 249.05C75.7595 249.167 75.952 249.278 76.0341 249.162Z" fill="white"/>
<path d="M77.2707 249.535C77.7701 248.834 78.6133 248.635 79.3214 249.164C79.4357 249.249 79.5468 249.056 79.4335 248.972C78.6205 248.364 77.644 248.628 77.0788 249.423C76.9962 249.54 77.1887 249.651 77.2707 249.535Z" fill="white"/>
<path d="M78.548 249.908C79.0475 249.207 79.8906 249.008 80.5987 249.537C80.7131 249.622 80.8241 249.429 80.7109 249.345C79.8979 248.737 78.9214 249.001 78.3561 249.796C78.2735 249.913 78.466 250.024 78.548 249.908Z" fill="white"/>
<path opacity="0.2" d="M84.3177 197.307L79.8721 207.849C79.8721 207.849 78.5636 208.106 76.4561 208.444C79.0731 204.599 84.1029 197.596 84.3177 197.307Z" fill="black"/>
<path d="M52.9458 158.034C52.9458 158.034 50.8455 175.922 52.0112 178.361C53.1763 180.8 76.4566 182.373 76.4566 182.373L77.5726 183.671C77.5726 183.671 53.2293 190.503 44.5345 183.718C39.4093 179.719 40.4673 156.087 40.4673 156.087L52.9458 158.034Z" fill="#FFB0A5"/>
<path d="M43.5552 145.846C40.6307 150.093 39.4087 157.356 38.8652 164.145L54.66 163.269C54.66 163.269 56.4227 156.219 55.8223 150.152C55.4417 146.307 53.539 144.487 51.4018 143.685C47.9601 142.393 45.6405 142.818 43.5552 145.846Z" fill="#407BFF"/>
<path d="M62.3008 187.53H102.078L103.213 183.719H63.4352L62.3008 187.53Z" fill="#407BFF"/>
<g opacity="0.5">
<path d="M62.3008 187.53H102.078L103.213 183.719H63.4352L62.3008 187.53Z" fill="white"/>
</g>
<path d="M77.328 185.564H99.5643C100.345 185.564 101.028 185.038 101.228 184.283L105.67 167.482C105.958 166.39 105.135 165.321 104.006 165.321H81.4918C80.4723 165.321 79.5806 166.008 79.32 166.994L75.1557 182.744C74.7796 184.169 75.8538 185.564 77.328 185.564Z" fill="#407BFF"/>
<g opacity="0.5">
<path d="M77.328 185.564H99.5643C100.345 185.564 101.028 185.038 101.228 184.283L105.67 167.482C105.958 166.39 105.135 165.321 104.006 165.321H81.4918C80.4723 165.321 79.5806 166.008 79.32 166.994L75.1557 182.744C74.7796 184.169 75.8538 185.564 77.328 185.564Z" fill="white"/>
</g>
<path d="M79.1563 185.564H101.393C102.174 185.564 102.857 185.038 103.057 184.283L107.498 167.482C107.787 166.39 106.964 165.321 105.834 165.321H83.3201C82.3006 165.321 81.4089 166.008 81.1483 166.994L76.984 182.744C76.6073 184.169 77.682 185.564 79.1563 185.564Z" fill="#407BFF"/>
<g opacity="0.8">
<path d="M79.1563 185.564H101.393C102.174 185.564 102.857 185.038 103.057 184.283L107.498 167.482C107.787 166.39 106.964 165.321 105.834 165.321H83.3201C82.3006 165.321 81.4089 166.008 81.1483 166.994L76.984 182.744C76.6073 184.169 77.682 185.564 79.1563 185.564Z" fill="white"/>
</g>
<path d="M90.3422 175.623C90.1061 176.989 90.9811 178.097 92.2963 178.097C93.6115 178.097 94.8692 176.989 95.1053 175.623C95.3413 174.257 94.4663 173.15 93.1511 173.15C91.8359 173.15 90.5782 174.257 90.3422 175.623Z" fill="#407BFF"/>
<g opacity="0.5">
<path d="M90.3422 175.623C90.1061 176.989 90.9811 178.097 92.2963 178.097C93.6115 178.097 94.8692 176.989 95.1053 175.623C95.3413 174.257 94.4663 173.15 93.1511 173.15C91.8359 173.15 90.5782 174.257 90.3422 175.623Z" fill="white"/>
</g>
<path d="M76.8133 124.218C76.6001 124.832 75.6789 124.972 75.6789 124.972C75.6789 124.972 76.527 126.034 76.1002 126.392C75.6789 126.746 74.7576 126.366 74.7576 126.366C74.7576 126.366 75.1164 126.881 74.9189 127.501C74.7213 128.119 74.4714 127.891 74.4714 127.891L60.8768 125.705C60.8768 125.705 61.3037 123.957 60.8768 122.49C60.4505 121.023 59.8624 119.015 60.5699 118.661C61.2774 118.307 61.6206 118.682 61.6206 118.682C61.6206 118.682 61.5631 117.173 62.2969 117.054C63.0307 116.934 63.4313 117.288 63.4313 117.288C63.4313 117.288 63.5251 116.227 64.1857 116.133C64.8464 116.034 65.0596 116.721 65.0596 116.721C65.0596 116.721 65.819 115.68 66.5734 115.66C67.3329 115.634 67.4266 116.508 67.4266 116.508C67.4266 116.508 68.6285 115.493 69.1748 115.894C69.7161 116.295 69.9549 116.982 69.9549 116.982C69.9549 116.982 71.1256 115.775 71.63 116.394C72.1294 117.008 72.1294 117.903 72.1294 117.903C72.1294 117.903 73.6433 116.769 74.0439 117.482C74.4446 118.189 74.2627 119.037 74.2627 119.037C74.2627 119.037 75.5583 118.33 75.9328 119.23C76.3127 120.125 75.6521 120.905 75.6521 120.905C75.6521 120.905 76.859 121.051 76.8122 121.758C76.7653 122.466 75.699 123.09 75.699 123.09C75.699 123.09 77.0264 123.599 76.8133 124.218Z" fill="#263238"/>
<path d="M66.7203 137.661V137.666C66.7097 137.682 66.7047 137.692 66.6941 137.708L65.7422 139.763C65.6172 140.195 65.534 140.632 65.4922 141.064C65.4559 141.428 65.4503 141.787 65.466 142.136C65.8247 142.87 65.7885 144.383 64.1028 144.092C61.9751 143.728 58.6243 139.93 58.6505 138.967C60.1488 136.236 61.5745 132.985 61.9076 130.181L63.869 133.235L66.7203 137.661Z" fill="#FFB0A5"/>
<g opacity="0.2">
<path d="M66.6941 137.708L65.7422 139.763C64.5196 138.921 63.3595 137.365 63.292 135.892C63.2502 134.831 63.8796 133.957 64.3014 133.978L66.6941 137.708Z" fill="black"/>
</g>
<path d="M62.3788 124.927C63.4736 120.481 68.7813 118.523 72.4541 121.548C76.1815 124.618 74.7575 130.778 72.2158 135.461C69.9782 139.583 64.2068 138.6 61.9447 134.196C60.4409 131.269 61.284 129.374 62.3788 124.927Z" fill="#FFB0A5"/>
<path d="M70.307 134.034C70.307 134.034 68.2474 133.466 67.2932 132.099C67.2932 132.099 67.2062 133.73 68.1263 134.644C69.0476 135.558 70.307 134.034 70.307 134.034Z" fill="white"/>
<path d="M62.2559 125.337C62.2559 125.337 63.6029 125.64 63.4567 126.813C63.3105 127.986 63.1632 128.119 63.1632 128.119L64.7083 128.735C64.7083 128.735 65.0375 124.222 66.197 124.482C67.3565 124.742 66.4375 122.527 67.1903 122.362C68.9664 121.972 73.4901 122.719 74.7573 125.743C74.7573 125.743 74.7651 122.979 72.8746 121.159C70.9841 119.338 66.7243 118.279 64.6106 120.093C62.4969 121.906 62.2559 125.337 62.2559 125.337Z" fill="#263238"/>
<path d="M59.5971 127.252C59.5647 128.486 60.1049 129.62 60.8152 130.345C61.8832 131.436 63.1767 130.664 63.5159 129.258C63.8211 127.993 63.6337 125.901 62.2554 125.337C60.8978 124.781 59.6345 125.841 59.5971 127.252Z" fill="#FFB0A5"/>
<path d="M68.2645 129.146C68.1534 129.502 68.2516 129.848 68.4838 129.921C68.7159 129.993 68.9943 129.764 69.1054 129.409C69.2164 129.054 69.1182 128.707 68.8861 128.635C68.6534 128.562 68.3755 128.791 68.2645 129.146Z" fill="#263238"/>
<path d="M72.1717 130.316C72.0606 130.672 72.1589 131.018 72.391 131.091C72.6231 131.163 72.9016 130.934 73.012 130.579C73.1231 130.223 73.0249 129.877 72.7927 129.804C72.5612 129.732 72.2827 129.961 72.1717 130.316Z" fill="black"/>
<path d="M74.0276 129.158C73.9673 129.139 73.9182 129.089 73.9042 129.022C73.8412 128.726 73.7089 128.512 73.5114 128.387C73.1867 128.182 72.7771 128.272 72.7726 128.274C72.6772 128.297 72.5768 128.237 72.5539 128.139C72.5304 128.041 72.5907 127.943 72.6884 127.92C72.7101 127.914 73.2486 127.79 73.7056 128.079C73.9891 128.258 74.1754 128.55 74.2597 128.947C74.2809 129.045 74.2184 129.141 74.1196 129.162C74.0884 129.169 74.0566 129.167 74.0276 129.158Z" fill="#263238"/>
<path d="M67.9365 127.388C67.9109 127.38 67.8869 127.365 67.8662 127.346C67.7937 127.277 67.7903 127.162 67.859 127.09C67.8751 127.072 68.2568 126.675 68.7975 126.666C69.1329 126.661 69.4481 126.803 69.7361 127.089C69.8075 127.16 69.8081 127.275 69.7372 127.346C69.6663 127.418 69.5508 127.418 69.4799 127.347C69.2651 127.134 69.0391 127.027 68.8064 127.03C68.4203 127.034 68.1262 127.337 68.1234 127.34C68.0732 127.392 68.0007 127.408 67.9365 127.388Z" fill="#263238"/>
<path d="M70.9328 129.326C70.9328 129.326 70.8391 130.53 71.4959 131.558C72.1526 132.585 70.1885 132.702 70.1885 132.702L70.9328 129.326Z" fill="#BA4D3C"/>
</g>
<defs>
<clipPath id="clip0_1816_6631">
<rect width="279" height="279" fill="white"/>
</clipPath>
</defs>
</svg>
