<svg width="120" height="120" viewBox="0 0 120 120" fill="none" xmlns="http://www.w3.org/2000/svg">
<rect x="0.125" y="0.458984" width="118.983" height="118.983" rx="59.4916" fill="#ECF1F4"/>
<path d="M29.6256 78.9507L42.2016 45.3507H48.7776L61.3056 78.9507H55.4016L52.2336 70.6467H38.4576L35.3376 78.9507H29.6256ZM39.9936 65.9427H50.6976L45.3216 51.3027L39.9936 65.9427ZM67.7083 68.0067C67.8683 69.9907 68.6683 71.5907 70.1083 72.8067C71.5803 73.9907 73.4843 74.5827 75.8203 74.5827C77.8683 74.5827 79.5163 74.1507 80.7643 73.2867C82.0443 72.3907 82.6843 71.1587 82.6843 69.5907C82.6843 68.4707 82.3323 67.5907 81.6283 66.9507C80.9563 66.2787 80.0283 65.7667 78.8443 65.4147C77.6603 65.0627 75.9963 64.6947 73.8523 64.3107C71.6763 63.9267 69.8043 63.4307 68.2363 62.8227C66.7003 62.1827 65.4363 61.2227 64.4443 59.9427C63.4843 58.6627 63.0043 56.9827 63.0043 54.9027C63.0043 52.9827 63.5003 51.2707 64.4923 49.7667C65.5163 48.2627 66.9243 47.0947 68.7163 46.2627C70.5403 45.4307 72.6203 45.0147 74.9563 45.0147C77.3563 45.0147 79.5003 45.4627 81.3883 46.3587C83.2763 47.2547 84.7643 48.4867 85.8523 50.0547C86.9403 51.6227 87.5323 53.4147 87.6283 55.4307H82.2043C82.0123 53.7027 81.2603 52.3107 79.9483 51.2547C78.6363 50.1987 76.9723 49.6707 74.9563 49.6707C73.0043 49.6707 71.4363 50.1027 70.2523 50.9667C69.1003 51.7987 68.5243 52.9827 68.5243 54.5187C68.5243 55.6067 68.8603 56.4707 69.5323 57.1107C70.2363 57.7507 71.1643 58.2307 72.3163 58.5507C73.4683 58.8707 75.1163 59.2227 77.2603 59.6067C79.4363 59.9907 81.3083 60.5027 82.8763 61.1427C84.4443 61.7827 85.7243 62.7267 86.7163 63.9747C87.7083 65.2227 88.2043 66.8707 88.2043 68.9187C88.2043 70.9027 87.6763 72.6787 86.6203 74.2467C85.5643 75.8147 84.0923 77.0467 82.2043 77.9427C80.3163 78.8067 78.1723 79.2387 75.7723 79.2387C73.1163 79.2387 70.7803 78.7587 68.7643 77.7987C66.7483 76.8387 65.1643 75.5107 64.0123 73.8147C62.8923 72.0867 62.3163 70.1187 62.2843 67.9107L67.7083 68.0067Z" fill="black"/>
</svg>
