<svg width="30" height="31" viewBox="0 0 30 31" fill="none" xmlns="http://www.w3.org/2000/svg">
<path d="M10.5793 2.1599C12.5918 2.09759 15.0173 1.90415 16.4234 3.66092C18.754 6.35792 17.0047 10.2277 17.8342 13.3748C18.1449 13.9974 18.6527 14.5 19.2785 14.8042C19.9043 15.1085 20.6132 15.1974 21.2948 15.0571C21.599 14.3276 22.1803 13.7485 22.9109 13.4469C23.6416 13.1453 24.4621 13.1458 25.1924 13.4482C25.6648 13.6683 26.0681 14.0133 26.3587 14.4459C26.6493 14.8785 26.8161 15.3823 26.8412 15.9029C26.8663 16.4234 26.7487 16.9409 26.501 17.3995C26.2534 17.858 25.8851 18.2402 25.436 18.5047C25.0675 18.6967 24.6633 18.8105 24.2487 18.8388C23.8341 18.8671 23.4181 18.8094 23.0269 18.6692C22.6357 18.529 22.2777 18.3094 21.9755 18.0242C21.6732 17.739 21.4332 17.3944 21.2706 17.012C19.455 16.9293 17.6358 16.9734 15.8264 17.1441C14.1644 17.6221 13.7432 19.5072 13.9171 21.0212C13.9998 23.0421 14.1272 25.4471 12.4244 26.8942C10.5644 28.6389 7.82928 28.0371 5.52381 28.1394C5.36385 27.4847 5.20172 26.8316 5.03742 26.1799C7.26012 25.9614 10.424 27.0169 11.7111 24.559C12.4663 22.101 11.2777 19.2756 12.788 16.9822C10.9773 17.0194 9.16104 16.9943 7.35219 17.0074C7.19984 16.3519 7.038 15.6986 6.86673 15.0478C10.0631 15.0478 13.2596 15.0311 16.456 15.0599C15.4246 13.637 16.0765 11.5669 14.7485 10.3374C13.9358 9.72147 12.9145 9.44778 11.9027 9.57479C9.14709 9.58688 6.39243 9.57479 3.63684 9.58688C3.48598 8.93005 3.32507 8.27556 3.15417 7.62365C6.35895 7.64039 9.57117 7.58645 12.7732 7.64411C13.8042 7.70323 14.8102 7.98463 15.7222 8.46902C15.6357 7.24421 15.8831 5.73482 14.8192 4.84202C13.8334 3.83111 12.324 4.14452 11.062 4.12034C10.9159 3.46331 10.7549 2.80966 10.5793 2.1599Z" fill="#36A3EC"/>
</svg>
