<svg width="27" height="20" viewBox="0 0 27 20" fill="none" xmlns="http://www.w3.org/2000/svg">
<path d="M6 5.83337H10.1667M19.3333 5.83337H21M19.3333 5.83337C19.3333 7.21409 18.214 8.33337 16.8333 8.33337H15.1667C13.786 8.33337 12.6667 7.21409 12.6667 5.83337C12.6667 4.45266 13.786 3.33337 15.1667 3.33337L16.8333 3.33337C18.214 3.33337 19.3333 4.45266 19.3333 5.83337ZM16.8333 14.1667H21M6 14.1667H7.66667M7.66667 14.1667C7.66667 15.5474 8.78595 16.6667 10.1667 16.6667H11.8333C13.214 16.6667 14.3333 15.5474 14.3333 14.1667C14.3333 12.786 13.214 11.6667 11.8333 11.6667H10.1667C8.78595 11.6667 7.66667 12.786 7.66667 14.1667Z" stroke="white" stroke-width="1.5" stroke-linecap="round"/>
</svg>
