<svg width="30" height="30" viewBox="0 0 30 30" fill="none" xmlns="http://www.w3.org/2000/svg">
<g clip-path="url(#clip0_1766_72153)">
<path d="M0.243164 22.2625C0.243164 23.1349 0.589751 23.9717 1.20668 24.5886C1.82361 25.2055 2.66034 25.5521 3.53281 25.5521H26.5604C27.4328 25.5521 28.2696 25.2055 28.8865 24.5886C29.5034 23.9717 29.85 23.1349 29.85 22.2625V18.1504H0.243164V22.2625Z" fill="#138808"/>
<path d="M29.85 11.5658V7.45371C29.85 6.58124 29.5034 5.74451 28.8865 5.12758C28.2696 4.51065 27.4328 4.16406 26.5604 4.16406H3.53281C2.66034 4.16406 1.82361 4.51065 1.20668 5.12758C0.589751 5.74451 0.243164 6.58124 0.243164 7.45371L0.243164 11.5658H29.85Z" fill="#FF9933"/>
<path d="M0.243164 11.2949H29.85V18.4228H0.243164V11.2949Z" fill="#F7F7F7"/>
<path d="M15.0455 18.1457C16.8623 18.1457 18.3352 16.6729 18.3352 14.8561C18.3352 13.0392 16.8623 11.5664 15.0455 11.5664C13.2287 11.5664 11.7559 13.0392 11.7559 14.8561C11.7559 16.6729 13.2287 18.1457 15.0455 18.1457Z" fill="#000080"/>
<path d="M15.0461 17.6333C16.5791 17.6333 17.8218 16.3906 17.8218 14.8577C17.8218 13.3247 16.5791 12.082 15.0461 12.082C13.5132 12.082 12.2705 13.3247 12.2705 14.8577C12.2705 16.3906 13.5132 17.6333 15.0461 17.6333Z" fill="#F7F7F7"/>
<path d="M15.128 13.8303L15.0458 14.3648L14.9635 13.8303L15.0458 12.2266L15.128 13.8303ZM14.3648 12.3162L14.7004 13.8862L14.9183 14.3813L14.8591 13.8442L14.3648 12.3162ZM13.7299 12.5794L14.4602 14.0087L14.7991 14.4306L14.6033 13.9265L13.7299 12.5794ZM13.1847 12.9972L14.2604 14.1897L14.6971 14.5096L14.3772 14.0729L13.1847 12.9972ZM12.7669 13.5424L14.114 14.4158L14.6181 14.6116L14.1962 14.2727L12.7669 13.5424ZM12.5037 14.1773L14.0317 14.6716L14.5688 14.7308L14.0737 14.5129L12.5037 14.1773ZM12.4141 14.8583L14.0178 14.9405L14.5523 14.8583L14.0178 14.776L12.4141 14.8583ZM12.5037 15.5392L14.0737 15.2037L14.5688 14.9858L14.0317 15.045L12.5037 15.5392ZM12.7669 16.1741L14.1962 15.4438L14.6181 15.105L14.114 15.3007L12.7669 16.1741ZM13.1847 16.7194L14.3772 15.6437L14.6971 15.207L14.2604 15.5269L13.1847 16.7194ZM13.7299 17.1372L14.6033 15.7901L14.7991 15.2859L14.4602 15.7078L13.7299 17.1372ZM14.3648 17.4004L14.8591 15.8723L14.9183 15.3353L14.7004 15.8304L14.3648 17.4004ZM15.0458 17.49L15.128 15.8863L15.0458 15.3517L14.9635 15.8863L15.0458 17.49ZM15.7267 17.4004L15.3912 15.8304L15.1733 15.3353L15.2325 15.8723L15.7267 17.4004ZM16.3616 17.1372L15.6313 15.7078L15.2925 15.2859L15.4882 15.7901L16.3616 17.1372ZM16.9069 16.7194L15.8312 15.5269L15.3945 15.207L15.7144 15.6437L16.9069 16.7194ZM17.3247 16.1741L15.9776 15.3007L15.4734 15.105L15.8953 15.4438L17.3247 16.1741ZM17.5879 15.5392L16.0598 15.045L15.5228 14.9858L16.0179 15.2037L17.5879 15.5392ZM17.6775 14.8583L16.0738 14.776L15.5392 14.8583L16.0738 14.9405L17.6775 14.8583ZM17.5879 14.1773L16.0179 14.5129L15.5228 14.7308L16.0598 14.6716L17.5879 14.1773ZM17.3247 13.5424L15.8953 14.2727L15.4734 14.6116L15.9776 14.4158L17.3247 13.5424ZM16.9069 12.9972L15.7144 14.0729L15.3945 14.5096L15.8312 14.1897L16.9069 12.9972ZM16.3616 12.5794L15.4882 13.9265L15.2925 14.4306L15.6313 14.0087L16.3616 12.5794ZM15.7267 12.3162L15.2325 13.8442L15.1733 14.3813L15.3912 13.8862L15.7267 12.3162Z" fill="#6666B3"/>
<path d="M14.6854 12.277C14.7764 12.277 14.8502 12.2032 14.8502 12.1121C14.8502 12.0211 14.7764 11.9473 14.6854 11.9473C14.5943 11.9473 14.5205 12.0211 14.5205 12.1121C14.5205 12.2032 14.5943 12.277 14.6854 12.277Z" fill="#000080"/>
<path d="M13.9862 12.4664C14.0772 12.4664 14.151 12.3926 14.151 12.3016C14.151 12.2105 14.0772 12.1367 13.9862 12.1367C13.8951 12.1367 13.8213 12.2105 13.8213 12.3016C13.8213 12.3926 13.8951 12.4664 13.9862 12.4664Z" fill="#000080"/>
<path d="M13.3602 12.8258C13.4512 12.8258 13.525 12.752 13.525 12.661C13.525 12.5699 13.4512 12.4961 13.3602 12.4961C13.2691 12.4961 13.1953 12.5699 13.1953 12.661C13.1953 12.752 13.2691 12.8258 13.3602 12.8258Z" fill="#000080"/>
<path d="M12.8475 13.3375C12.9385 13.3375 13.0123 13.2637 13.0123 13.1727C13.0123 13.0816 12.9385 13.0078 12.8475 13.0078C12.7564 13.0078 12.6826 13.0816 12.6826 13.1727C12.6826 13.2637 12.7564 13.3375 12.8475 13.3375Z" fill="#000080"/>
<path d="M12.4871 13.9645C12.5782 13.9645 12.652 13.8907 12.652 13.7996C12.652 13.7086 12.5782 13.6348 12.4871 13.6348C12.3961 13.6348 12.3223 13.7086 12.3223 13.7996C12.3223 13.8907 12.3961 13.9645 12.4871 13.9645Z" fill="#000080"/>
<path d="M12.2996 14.6618C12.3907 14.6618 12.4645 14.5879 12.4645 14.4969C12.4645 14.4058 12.3907 14.332 12.2996 14.332C12.2086 14.332 12.1348 14.4058 12.1348 14.4969C12.1348 14.5879 12.2086 14.6618 12.2996 14.6618Z" fill="#000080"/>
<path d="M12.2996 15.3864C12.3907 15.3864 12.4645 15.3126 12.4645 15.2215C12.4645 15.1305 12.3907 15.0566 12.2996 15.0566C12.2086 15.0566 12.1348 15.1305 12.1348 15.2215C12.1348 15.3126 12.2086 15.3864 12.2996 15.3864Z" fill="#000080"/>
<path d="M12.4871 16.0856C12.5782 16.0856 12.652 16.0118 12.652 15.9207C12.652 15.8297 12.5782 15.7559 12.4871 15.7559C12.3961 15.7559 12.3223 15.8297 12.3223 15.9207C12.3223 16.0118 12.3961 16.0856 12.4871 16.0856Z" fill="#000080"/>
<path d="M12.8475 16.7125C12.9385 16.7125 13.0123 16.6387 13.0123 16.5477C13.0123 16.4566 12.9385 16.3828 12.8475 16.3828C12.7564 16.3828 12.6826 16.4566 12.6826 16.5477C12.6826 16.6387 12.7564 16.7125 12.8475 16.7125Z" fill="#000080"/>
<path d="M13.3602 17.2223C13.4512 17.2223 13.525 17.1485 13.525 17.0574C13.525 16.9664 13.4512 16.8926 13.3602 16.8926C13.2691 16.8926 13.1953 16.9664 13.1953 17.0574C13.1953 17.1485 13.2691 17.2223 13.3602 17.2223Z" fill="#000080"/>
<path d="M13.9862 17.5856C14.0772 17.5856 14.151 17.5118 14.151 17.4207C14.151 17.3297 14.0772 17.2559 13.9862 17.2559C13.8951 17.2559 13.8213 17.3297 13.8213 17.4207C13.8213 17.5118 13.8951 17.5856 13.9862 17.5856Z" fill="#000080"/>
<path d="M14.6854 17.7731C14.7764 17.7731 14.8502 17.6993 14.8502 17.6082C14.8502 17.5172 14.7764 17.4434 14.6854 17.4434C14.5943 17.4434 14.5205 17.5172 14.5205 17.6082C14.5205 17.6993 14.5943 17.7731 14.6854 17.7731Z" fill="#000080"/>
<path d="M15.41 17.7731C15.501 17.7731 15.5748 17.6993 15.5748 17.6082C15.5748 17.5172 15.501 17.4434 15.41 17.4434C15.3189 17.4434 15.2451 17.5172 15.2451 17.6082C15.2451 17.6993 15.3189 17.7731 15.41 17.7731Z" fill="#000080"/>
<path d="M16.1082 17.5856C16.1993 17.5856 16.2731 17.5118 16.2731 17.4207C16.2731 17.3297 16.1993 17.2559 16.1082 17.2559C16.0172 17.2559 15.9434 17.3297 15.9434 17.4207C15.9434 17.5118 16.0172 17.5856 16.1082 17.5856Z" fill="#000080"/>
<path d="M16.7352 17.2223C16.8262 17.2223 16.9 17.1485 16.9 17.0574C16.9 16.9664 16.8262 16.8926 16.7352 16.8926C16.6441 16.8926 16.5703 16.9664 16.5703 17.0574C16.5703 17.1485 16.6441 17.2223 16.7352 17.2223Z" fill="#000080"/>
<path d="M17.2469 16.7125C17.3379 16.7125 17.4118 16.6387 17.4118 16.5477C17.4118 16.4566 17.3379 16.3828 17.2469 16.3828C17.1558 16.3828 17.082 16.4566 17.082 16.5477C17.082 16.6387 17.1558 16.7125 17.2469 16.7125Z" fill="#000080"/>
<path d="M17.6082 16.0856C17.6993 16.0856 17.7731 16.0118 17.7731 15.9207C17.7731 15.8297 17.6993 15.7559 17.6082 15.7559C17.5172 15.7559 17.4434 15.8297 17.4434 15.9207C17.4434 16.0118 17.5172 16.0856 17.6082 16.0856Z" fill="#000080"/>
<path d="M17.7957 15.3844C17.8868 15.3844 17.9606 15.3106 17.9606 15.2196C17.9606 15.1285 17.8868 15.0547 17.7957 15.0547C17.7047 15.0547 17.6309 15.1285 17.6309 15.2196C17.6309 15.3106 17.7047 15.3844 17.7957 15.3844Z" fill="#000080"/>
<path d="M17.7957 14.6618C17.8868 14.6618 17.9606 14.5879 17.9606 14.4969C17.9606 14.4058 17.8868 14.332 17.7957 14.332C17.7047 14.332 17.6309 14.4058 17.6309 14.4969C17.6309 14.5879 17.7047 14.6618 17.7957 14.6618Z" fill="#000080"/>
<path d="M17.6082 13.9645C17.6993 13.9645 17.7731 13.8907 17.7731 13.7996C17.7731 13.7086 17.6993 13.6348 17.6082 13.6348C17.5172 13.6348 17.4434 13.7086 17.4434 13.7996C17.4434 13.8907 17.5172 13.9645 17.6082 13.9645Z" fill="#000080"/>
<path d="M17.2469 13.3375C17.3379 13.3375 17.4118 13.2637 17.4118 13.1727C17.4118 13.0816 17.3379 13.0078 17.2469 13.0078C17.1558 13.0078 17.082 13.0816 17.082 13.1727C17.082 13.2637 17.1558 13.3375 17.2469 13.3375Z" fill="#000080"/>
<path d="M16.7352 12.8258C16.8262 12.8258 16.9 12.752 16.9 12.661C16.9 12.5699 16.8262 12.4961 16.7352 12.4961C16.6441 12.4961 16.5703 12.5699 16.5703 12.661C16.5703 12.752 16.6441 12.8258 16.7352 12.8258Z" fill="#000080"/>
<path d="M16.1082 12.4664C16.1993 12.4664 16.2731 12.3926 16.2731 12.3016C16.2731 12.2105 16.1993 12.1367 16.1082 12.1367C16.0172 12.1367 15.9434 12.2105 15.9434 12.3016C15.9434 12.3926 16.0172 12.4664 16.1082 12.4664Z" fill="#000080"/>
<path d="M15.41 12.277C15.501 12.277 15.5748 12.2032 15.5748 12.1121C15.5748 12.0211 15.501 11.9473 15.41 11.9473C15.3189 11.9473 15.2451 12.0211 15.2451 12.1121C15.2451 12.2032 15.3189 12.277 15.41 12.277Z" fill="#000080"/>
<path d="M15.0478 15.5995C15.4566 15.5995 15.788 15.2681 15.788 14.8593C15.788 14.4505 15.4566 14.1191 15.0478 14.1191C14.639 14.1191 14.3076 14.4505 14.3076 14.8593C14.3076 15.2681 14.639 15.5995 15.0478 15.5995Z" fill="#000080"/>
</g>
<defs>
<clipPath id="clip0_1766_72153">
<rect width="29.6068" height="29.6068" fill="white" transform="translate(0.243164 0.0546875)"/>
</clipPath>
</defs>
</svg>
