<svg width="30" height="31" viewBox="0 0 30 31" fill="none" xmlns="http://www.w3.org/2000/svg">
<path d="M26.9523 27.0402L25.522 28.3755C24.9712 28.8893 24.1034 28.8569 23.5919 28.3038L5.25122 7.80153L7.44285 6.01953L26.9939 25.1309C27.5216 25.6655 27.5008 26.5264 26.9523 27.0402Z" fill="#A06841"/>
<path d="M6.92603 9.67591L11.2908 14.5567C11.8809 13.4089 12.2674 12.1406 12.4016 10.8701L8.21277 6.77148C7.89644 7.0513 7.63032 7.38318 7.42591 7.75274C7.10423 8.34288 6.94917 9.00477 6.92603 9.67591Z" fill="#7D5133"/>
<path d="M13.8922 4.59735L11.9876 2.68575C11.7713 2.46743 11.5139 2.29408 11.2303 2.17572C10.9467 2.05735 10.6425 1.9963 10.3352 1.99609C9.71494 1.99841 9.1248 2.23909 8.68045 2.68112L1.83248 9.50595C1.61354 9.72177 1.43979 9.97904 1.32138 10.2628C1.20296 10.5465 1.14227 10.8509 1.14283 11.1584C1.14283 11.7832 1.38583 12.3687 1.82785 12.8131L3.73483 14.7247C4.17917 15.169 4.76931 15.4143 5.3988 15.4143H5.41268C6.03523 15.412 6.61611 15.1667 7.04425 14.7293L13.8899 7.90447C14.3343 7.46244 14.5773 6.87461 14.5796 6.25207C14.5819 5.62952 14.3343 5.04169 13.8922 4.59735Z" fill="#82AEC0"/>
<path d="M5.90357 5.07409C5.60734 5.09723 5.35508 5.287 5.12134 5.46751C4.76957 5.7406 4.40622 6.02526 4.18868 6.41637C3.97114 6.80748 3.9318 7.33283 4.21414 7.67766C4.64228 8.19837 8.29654 4.88663 5.90357 5.07409Z" fill="#A06841"/>
<path d="M6.70966 14.5553C5.68674 13.5347 3.55066 11.0584 3.49743 10.9983C3.12714 10.591 2.1644 10.6882 1.41457 10.9659C1.25257 11.026 1.1438 11.1857 1.15769 11.3593C1.18083 11.6926 1.30811 12.2688 1.82883 12.8127L3.7358 14.7243C4.18014 15.1686 4.77029 15.4139 5.39977 15.4139H5.41366C5.90429 15.4116 6.36714 15.2589 6.75132 14.9812C6.8624 14.9025 6.88323 14.752 6.79529 14.6456C6.76752 14.6132 6.73974 14.5831 6.70966 14.5553Z" fill="#2F7889"/>
<path d="M2.39359 26.965L3.82382 28.3003C4.37462 28.8141 5.07354 28.9507 5.58499 28.3975L23.9234 7.89528L21.7318 6.11328L2.18299 25.2247C1.65534 25.7616 1.84279 26.4512 2.39359 26.965Z" fill="#A06841"/>
<path d="M22.2464 9.76966L18.2867 14.1969C19.4901 11.0633 18.1409 9.62155 18.1409 9.62155L20.962 6.86523C21.2767 7.14526 21.5475 7.47852 21.7488 7.84649C22.0705 8.43663 22.2256 9.09852 22.2464 9.76966Z" fill="#7D5133"/>
<path d="M23.2723 5.1696C23.5686 5.19275 23.8208 5.38252 24.0546 5.56303C24.4063 5.83612 24.7697 6.12077 24.9872 6.51189C25.2048 6.903 25.2441 7.42835 24.9618 7.77317C24.5336 8.2962 20.8771 4.98446 23.2723 5.1696Z" fill="#A06841"/>
<path d="M14.6311 18.2863L17.2347 21.1976C16.987 20.1817 17.2185 17.8327 18.2553 16.5876L17.1305 15.4883L14.6311 18.2863Z" fill="#7D5133"/>
<path d="M28.9079 14.6809C28.6579 12.6767 27.7392 9.13589 24.8833 5.82414C22.0715 2.56563 18.3246 1.78109 17.4498 1.63529C17.4498 1.63529 17.304 1.61214 17.2439 1.63529C17.1929 1.65611 17.1305 1.69314 17.1305 1.69314L15.1124 3.18123C15.1124 3.18123 15.0198 4.35226 15.1703 4.3592C16.1423 4.41011 19.8335 4.68783 20.8032 6.01854C20.8032 6.01854 19.1439 8.08057 18.6602 8.70311H18.6625C18.6579 8.70774 18.6533 8.71006 18.651 8.71469C18.4751 8.89057 18.4195 9.10349 18.4496 9.33491C18.9287 8.96463 19.5535 9.28169 20.1298 9.85794C20.7153 10.4435 21.037 11.0753 20.632 11.5589C20.8819 11.6052 21.1087 11.5497 21.2985 11.3622C21.3286 11.3321 23.2957 9.24003 23.298 9.24234C24.9852 9.96903 25.4711 10.6031 26.3899 11.6839C26.6885 12.0357 28.4149 15.2826 28.8176 15.0234C28.9194 14.9563 28.9241 14.8036 28.9079 14.6809Z" fill="#82AEC0"/>
<path d="M23.2952 9.02145L24.5703 7.60742C26.0631 8.84094 29.111 14.4461 28.8147 14.8025C28.5347 15.1381 25.9728 10.41 23.2952 9.02145Z" fill="#2F7889"/>
<path d="M10.571 2.74718C10.6798 2.6361 10.7932 2.4741 10.7122 2.3445C10.6613 2.26118 10.5525 2.23804 10.4553 2.22878C10.1822 2.20332 9.90452 2.23804 9.64763 2.33292C9.16626 2.50881 7.78695 3.90432 7.20143 4.51067C7.18091 4.53173 7.16748 4.55868 7.16301 4.58775C7.15855 4.61682 7.16327 4.64655 7.17653 4.6728C7.18978 4.69906 7.2109 4.72052 7.23694 4.73418C7.26298 4.74785 7.29264 4.75304 7.32178 4.74904C7.83092 4.68424 8.68489 4.54538 8.92558 4.3047C9.27503 3.95755 10.571 2.74718 10.571 2.74718Z" fill="#B9E4EA"/>
<path d="M5.21542 28.6106C5.58055 28.2455 5.16291 27.2359 4.28261 26.3556C3.40231 25.4753 2.39269 25.0577 2.02757 25.4228C1.66245 25.788 2.08008 26.7976 2.96038 27.6779C3.84068 28.5581 4.8503 28.9757 5.21542 28.6106Z" fill="#7D5133"/>
<path d="M20.8033 6.01978C20.8033 6.01978 18.651 8.7113 18.6487 8.71592C18.4728 8.89181 18.4173 9.10472 18.4474 9.33615C18.8732 9.00521 19.417 9.22275 19.9378 9.68098C19.6415 9.28987 19.8359 9.0353 19.8359 9.0353C19.8359 9.0353 21.7383 6.75572 22.3678 5.99895C22.5251 5.8115 22.4974 5.53147 22.3053 5.37872C21.5416 4.77007 19.5027 3.3815 17.2624 3.00195L14.9296 4.15447C14.9227 4.27712 14.969 4.3535 15.0546 4.3535C15.1194 4.3535 15.2143 4.36275 15.2143 4.36275C16.2511 4.42061 19.8475 4.7099 20.8033 6.01978Z" fill="#2F7889"/>
<path d="M15.0768 4.26282L17.1782 3.04782C17.2291 3.01773 17.2615 2.9645 17.2615 2.90433V1.7819C17.2615 1.70784 17.1805 1.66156 17.1157 1.70322L15.0953 2.98302C14.9912 3.04782 14.9287 3.16353 14.9287 3.28619V4.1795C14.9287 4.25356 15.012 4.30216 15.0768 4.26282Z" fill="#B9E4EA"/>
</svg>
