<svg width="24" height="25" viewBox="0 0 24 25" fill="none" xmlns="http://www.w3.org/2000/svg">
<path d="M17.414 10.914C18 10.328 18 9.386 18 7.5C18 5.614 18 4.672 17.414 4.086M17.414 10.914C16.828 11.5 15.886 11.5 14 11.5H10C8.114 11.5 7.172 11.5 6.586 10.914M17.414 4.086C16.828 3.5 15.886 3.5 14 3.5H10C8.114 3.5 7.172 3.5 6.586 4.086M6.586 4.086C6 4.672 6 5.614 6 7.5C6 9.386 6 10.328 6.586 10.914M13 7.5C13 7.76522 12.8946 8.01957 12.7071 8.20711C12.5196 8.39464 12.2652 8.5 12 8.5C11.7348 8.5 11.4804 8.39464 11.2929 8.20711C11.1054 8.01957 11 7.76522 11 7.5C11 7.23478 11.1054 6.98043 11.2929 6.79289C11.4804 6.60536 11.7348 6.5 12 6.5C12.2652 6.5 12.5196 6.60536 12.7071 6.79289C12.8946 6.98043 13 7.23478 13 7.5Z" stroke="#00AB64" stroke-width="1.5"/>
<path d="M18 6.5C17.2044 6.5 16.4413 6.18393 15.8787 5.62132C15.3161 5.05871 15 4.29565 15 3.5M18 8.5C17.2044 8.5 16.4413 8.81607 15.8787 9.37868C15.3161 9.94129 15 10.7044 15 11.5M6 6.5C6.79565 6.5 7.55871 6.18393 8.12132 5.62132C8.68393 5.05871 9 4.29565 9 3.5M6 8.5C6.79565 8.5 7.55871 8.81607 8.12132 9.37868C8.68393 9.94129 9 10.7044 9 11.5M5 20.888H7.26C8.27 20.888 9.293 20.994 10.276 21.196C12.0311 21.5554 13.8367 21.5954 15.606 21.314C16.474 21.174 17.326 20.959 18.098 20.587C18.794 20.25 19.647 19.777 20.22 19.246C20.792 18.716 21.388 17.849 21.81 17.171C22.174 16.589 21.998 15.876 21.424 15.443C21.1013 15.2088 20.7127 15.0827 20.314 15.0827C19.9153 15.0827 19.5267 15.2088 19.204 15.443L17.397 16.808C16.697 17.338 15.932 17.825 15.021 17.97C14.911 17.9873 14.796 18.003 14.676 18.017M14.676 18.017L14.566 18.029M14.676 18.017C14.836 17.9736 14.9828 17.8912 15.103 17.777C15.2539 17.6468 15.3772 17.4876 15.4655 17.3089C15.5538 17.1302 15.6054 16.9356 15.6171 16.7366C15.6289 16.5377 15.6006 16.3383 15.5339 16.1505C15.4672 15.9626 15.3636 15.7901 15.229 15.643C15.0987 15.4983 14.9469 15.3746 14.779 15.276C11.982 13.607 7.629 14.878 5 16.743M14.676 18.017C14.6399 18.0251 14.603 18.0291 14.566 18.029M14.566 18.029C13.9629 18.0894 13.3554 18.0908 12.752 18.033" stroke="#00AB64" stroke-width="1.5" stroke-linecap="round"/>
<path d="M5 16C5 15.1716 4.32843 14.5 3.5 14.5C2.67157 14.5 2 15.1716 2 16V21C2 21.8284 2.67157 22.5 3.5 22.5C4.32843 22.5 5 21.8284 5 21V16Z" stroke="#00AB64" stroke-width="1.5"/>
</svg>
