<svg width="247" height="246" viewBox="0 0 247 246" fill="none" xmlns="http://www.w3.org/2000/svg">
<path d="M232.512 163.875C209.198 218.771 147.093 249.525 93.2362 241.229C84.4725 239.879 60.4468 235.858 39.1753 216.888C-1.7737 180.37 -10.531 108.059 22.5013 57.1C46.5431 20.0107 89.6404 -1.01407 130.591 0.0376599C139.412 0.264142 173.217 1.66025 202.926 26.1575C207.29 29.7557 216.914 38.3059 225.588 51.8703C245.956 83.7219 247.707 128.098 232.512 163.875Z" fill="url(#paint0_linear_4094_111868)"/>
<path d="M16.9751 199.864C16.9751 201.99 18.7164 203.73 20.8447 203.73H230.098C232.226 203.73 233.968 201.99 233.968 199.864L235.709 79.6116C235.709 77.4854 233.204 73.3345 228.613 73.6464L24.1073 68.3548C21.437 68.2858 18.855 69.3136 16.964 71.1984C15.0729 73.0833 14.0383 75.6603 14.1014 78.3283L16.9751 199.864Z" fill="url(#paint1_linear_4094_111868)"/>
<path d="M20.7945 196.155C20.7945 198.169 22.4419 199.816 24.4554 199.816H225.051C227.065 199.816 228.712 198.169 228.712 196.155L230.355 86.9893C230.162 80.42 224.402 78.059 220.911 78.1983L24.9107 72.94C23.0346 72.8896 21.2208 73.6125 19.892 74.9378C18.5633 76.2632 17.8325 78.077 17.8796 79.9531L20.7945 196.155Z" fill="url(#paint2_linear_4094_111868)"/>
<path d="M226.545 144.298C226.542 144.298 226.539 144.298 226.539 144.298C226.24 144.293 226.003 144.05 226.008 143.753L226.138 134.9C226.142 134.606 226.381 134.371 226.674 134.371C226.676 134.371 226.679 134.371 226.682 134.371C226.978 134.375 227.215 134.619 227.21 134.916L227.08 143.769C227.076 144.062 226.837 144.298 226.545 144.298Z" fill="#BDD0FB"/>
<path d="M226.864 122.601C226.861 122.601 226.858 122.601 226.856 122.601C226.559 122.596 226.322 122.352 226.327 122.056L226.825 88.1481C226.815 86.134 226.204 84.5258 225.007 83.3793C222.774 81.2393 219.228 81.3486 219.078 81.3555L156.432 79.6757C156.136 79.6682 155.902 79.4213 155.91 79.1251C155.918 78.8289 156.146 78.5768 156.461 78.6035L219.07 80.2835C219.459 80.2604 223.235 80.1951 225.75 82.6044C227.164 83.9598 227.887 85.8272 227.898 88.1535L227.4 122.072C227.395 122.366 227.156 122.601 226.864 122.601Z" fill="#BDD0FB"/>
<path d="M0.496512 213.71H246.203C246.477 213.71 246.701 213.487 246.701 213.213V203.642C246.701 203.368 246.477 203.145 246.203 203.145H0.496512C0.222956 203.145 -0.000976562 203.368 -0.000976562 203.642V213.213C-0.000976562 213.487 0.222956 213.71 0.496512 213.71Z" fill="url(#paint3_linear_4094_111868)"/>
<path d="M193.181 6.61348L61.7404 5.80874C57.4207 5.78225 53.9659 9.39048 54.1798 13.705L63.2226 200.45H209.491L217.613 33.6034L193.181 6.61348Z" fill="#91B3FA"/>
<path d="M198.646 32.8033C194.365 32.6527 191.073 28.9624 191.411 24.6915L192.82 6.85938L217.638 33.4937L198.646 32.8033Z" fill="#7D97F4"/>
<path d="M136.576 53.7151C147.045 53.863 187.236 54.3861 197.384 54.518C198.664 54.5347 199.691 55.381 199.652 56.3862C199.615 57.3431 198.621 58.0913 197.403 58.0799L136.625 57.5091C135.454 57.4981 134.47 56.7877 134.355 55.8702L134.326 55.6381C134.194 54.589 135.238 53.6962 136.576 53.7151Z" fill="#BDD0FB"/>
<path d="M135.489 64.8656C135.657 65.1065 135.976 65.2598 136.323 65.2673L178.036 66.1636C178.56 66.1748 178.992 65.8549 179.008 65.4435L179.091 63.2845C179.108 62.8555 178.667 62.4949 178.121 62.4899L137.551 62.1173C135.744 62.1006 134.611 63.6113 135.489 64.8656Z" fill="#BDD0FB"/>
<path d="M135.753 73.2464C146.222 73.3943 186.412 73.9174 196.561 74.0493C197.841 74.0659 198.867 74.9123 198.828 75.9175C198.791 76.8743 197.797 77.6226 196.579 77.6112L135.801 77.0404C134.631 77.0294 133.647 76.3189 133.531 75.4015L133.502 75.1694C133.37 74.1203 134.414 73.2275 135.753 73.2464Z" fill="#BDD0FB"/>
<path d="M134.664 84.3969C134.833 84.6377 135.152 84.7911 135.498 84.7986L177.212 85.6948C177.736 85.7061 178.168 85.3861 178.184 84.9747L178.267 82.8157C178.283 82.3868 177.843 82.0261 177.297 82.0211L136.727 81.6486C134.92 81.6319 133.786 83.1425 134.664 84.3969Z" fill="#BDD0FB"/>
<g opacity="0.8">
<path d="M117.83 52.3273C117.615 52.0635 117.278 51.954 116.921 51.9615L84.4202 52.6433L83.5992 50.0354C83.485 49.6721 83.1434 49.4394 82.757 49.4495L78.2947 49.5668C77.8162 49.5794 77.4287 49.9121 77.4287 50.3897C77.4287 50.8672 77.8162 51.1806 78.2947 51.1694L82.108 51.0793L89.0083 73.1284C89.1244 73.4995 89.4728 73.7548 89.8678 73.76L112.68 74.0663C113.216 74.0735 113.65 73.7375 113.65 73.2313C113.65 72.7252 113.216 72.3785 112.68 72.3728L90.5334 72.1341L88.756 66.4092L113.093 66.4461C113.592 66.4469 114.031 66.1207 114.171 65.6685L118.012 53.2488C118.112 52.9248 118.044 52.5913 117.83 52.3273Z" fill="white"/>
<path d="M93.205 75.1215C91.3281 75.0923 89.8096 76.5532 89.8096 78.378C89.8096 80.2027 91.3281 81.727 93.205 81.7763C95.0934 81.826 96.6381 80.3657 96.6381 78.5208C96.6381 76.6758 95.0933 75.1509 93.205 75.1215ZM93.205 80.0017C92.3278 79.9811 91.6158 79.2697 91.6158 78.4157C91.6158 77.5617 92.3277 76.8801 93.205 76.8962C94.0847 76.9123 94.8025 77.6239 94.8025 78.4823C94.8024 79.3407 94.0847 80.0223 93.205 80.0017Z" fill="white"/>
<path d="M108.412 75.3559C106.442 75.3253 104.849 76.8212 104.849 78.6903C104.849 80.5595 106.442 82.122 108.412 82.1737C110.394 82.2258 112.016 80.7305 112.016 78.8402C112.016 76.9498 110.394 75.3867 108.412 75.3559ZM108.412 80.3557C107.492 80.3341 106.744 79.6049 106.744 78.73C106.744 77.8551 107.491 77.1571 108.412 77.174C109.336 77.191 110.089 77.9204 110.089 78.7999C110.089 79.6794 109.336 80.3773 108.412 80.3557Z" fill="white"/>
</g>
<path opacity="0.81" d="M99.2166 90.4438C83.5505 90.4438 70.8052 77.6985 70.8052 62.0325C70.8052 46.3664 83.5505 33.6211 99.2166 33.6211C114.883 33.6211 127.628 46.3664 127.628 62.0325C127.628 77.6985 114.883 90.4438 99.2166 90.4438ZM99.2166 36.0168C84.8715 36.0168 73.2009 47.6875 73.2009 62.0325C73.2009 76.3775 84.8715 88.0481 99.2166 88.0481C113.562 88.0481 125.232 76.3775 125.232 62.0325C125.232 47.6875 113.562 36.0168 99.2166 36.0168Z" fill="white"/>
<g opacity="0.3">
<path d="M47.0688 25.2672C46.8888 25.6717 46.4149 25.8536 46.0105 25.6736C45.2248 25.3239 44.4122 25.0031 43.5952 24.7202C43.1818 24.5771 42.9606 24.1296 43.0952 23.7154C43.0968 23.7105 43.0984 23.7055 43.1001 23.7005C43.2449 23.2822 43.7015 23.0607 44.1199 23.2056C44.9798 23.5034 45.8354 23.841 46.6624 24.2092C47.0407 24.3774 47.2243 24.803 47.0991 25.1883C47.0903 25.2148 47.0805 25.2412 47.0688 25.2672ZM39.5242 23.6161C38.6767 23.4472 37.814 23.313 36.9592 23.2172C36.5196 23.1679 36.2027 22.7715 36.2519 22.3314C36.303 21.8901 36.698 21.5749 37.138 21.6243C38.0372 21.725 38.9454 21.8662 39.8372 22.0437C40.2713 22.1302 40.5532 22.5524 40.4667 22.9865C40.4603 23.018 40.4523 23.0488 40.4426 23.0786C40.3188 23.4595 39.9268 23.6962 39.5242 23.6161ZM32.7471 23.0403C31.8856 23.0643 31.0149 23.126 30.1583 23.224C29.7186 23.2743 29.3212 22.9584 29.2708 22.5187C29.2211 22.0793 29.5363 21.6818 29.9762 21.6312C30.8781 21.5281 31.7954 21.463 32.7024 21.4378C33.1449 21.4255 33.5135 21.7743 33.526 22.2167C33.5286 22.311 33.5149 22.402 33.4872 22.4868C33.3855 22.8002 33.0953 23.0307 32.7471 23.0403ZM26.0115 23.9947C25.1761 24.2108 24.3406 24.4659 23.5277 24.7524C23.1102 24.8995 22.6524 24.6804 22.5053 24.2629C22.3586 23.8454 22.5778 23.3879 22.9948 23.2405C23.8507 22.9389 24.7305 22.6704 25.6095 22.4426C26.038 22.3318 26.4754 22.5891 26.5863 23.0176C26.626 23.1709 26.6186 23.3254 26.573 23.4657C26.491 23.7175 26.2865 23.9232 26.0115 23.9947ZM19.6563 26.4258C18.8917 26.8211 18.1331 27.2548 17.4021 27.7152C17.0272 27.9509 16.5325 27.8382 16.2967 27.4636C16.0607 27.0888 16.1735 26.5939 16.5483 26.3585C17.3174 25.8744 18.1157 25.418 18.9202 25.002C19.3133 24.7985 19.7969 24.9525 20.0002 25.3458C20.1027 25.5439 20.1145 25.765 20.0505 25.9617C19.9876 26.1552 19.8514 26.325 19.6563 26.4258ZM13.9975 30.2025C13.3382 30.7579 12.6948 31.3486 12.0848 31.9581C11.7718 32.271 11.2641 32.2709 10.9514 31.9579C10.6384 31.6447 10.6383 31.1374 10.9516 30.8242C11.5933 30.1827 12.2709 29.561 12.9646 28.9765C13.3033 28.6914 13.8087 28.7345 14.0941 29.0731C14.2794 29.293 14.3259 29.5833 14.243 29.8381C14.1984 29.9755 14.1162 30.1026 13.9975 30.2025ZM2.67457 57.7285C2.23472 57.7782 1.83789 57.4618 1.78826 57.0218C1.68681 56.1207 1.62338 55.2028 1.59988 54.2941C1.58844 53.8515 1.93785 53.4835 2.38034 53.4721C2.82266 53.4605 3.19071 53.81 3.20224 54.2524C3.22459 55.1153 3.28495 55.9867 3.38138 56.8425C3.39458 56.9599 3.38182 57.0741 3.34751 57.1796C3.25336 57.4693 2.99714 57.6923 2.67457 57.7285ZM9.31946 35.1366C8.80059 35.8244 8.30522 36.543 7.84732 37.2729C7.61187 37.6478 7.11711 37.7611 6.74219 37.5258C6.36701 37.2904 6.25596 36.7966 6.48949 36.4207C6.97175 35.6523 7.49335 34.8954 8.03993 34.1712C8.30654 33.818 8.80913 33.7476 9.16258 34.0143C9.44282 34.2257 9.54506 34.5857 9.44229 34.9019C9.41546 34.9842 9.37445 35.0635 9.31946 35.1366ZM2.50018 50.7451C2.0605 50.695 1.74453 50.2977 1.79469 49.8578C1.89763 48.957 2.04079 48.0486 2.21976 47.158C2.30511 46.7231 2.72965 46.4431 3.16361 46.5302C3.59748 46.6175 3.87852 47.04 3.79141 47.474C3.62124 48.3205 3.48512 49.1836 3.38754 50.0399C3.38129 50.0945 3.36951 50.1471 3.35314 50.1974C3.23779 50.5522 2.88522 50.7891 2.50018 50.7451ZM5.86213 40.9915C5.51044 41.7776 5.18796 42.5891 4.90402 43.4039C4.75849 43.8222 4.30157 44.0428 3.88345 43.8971C3.47096 43.7534 3.25046 43.3064 3.3849 42.8927C3.38666 42.8874 3.38842 42.8818 3.39045 42.8766C3.68917 42.0187 4.02845 41.1642 4.39853 40.3368C4.57961 39.9329 5.0536 39.7518 5.45773 39.9325C5.83511 40.1013 6.01796 40.5264 5.89284 40.9111C5.88412 40.938 5.87374 40.9649 5.86213 40.9915Z" fill="#BDD0FB"/>
<path d="M4.48113 62.6931C4.52997 62.543 4.53516 62.377 4.48597 62.2144C4.3664 61.8188 4.25333 61.4142 4.14916 61.0115C4.03855 60.583 3.60125 60.3251 3.17284 60.4358C2.74416 60.5463 2.48573 60.9836 2.59722 61.4123C2.70641 61.8358 2.82555 62.2613 2.95128 62.6777C3.07922 63.1013 3.52664 63.3413 3.95012 63.2132C4.21154 63.1346 4.40274 62.9343 4.48113 62.6931Z" fill="#BDD0FB"/>
</g>
<g opacity="0.3">
<path d="M20.1196 81.4688C20.2392 81.1009 20.0778 80.6903 19.7225 80.5083C19.3547 80.3201 18.9845 80.1209 18.6227 79.9164C18.2372 79.6985 17.7483 79.8344 17.5305 80.2198C17.3118 80.6068 17.4487 81.0943 17.8339 81.312C18.2149 81.5272 18.6047 81.7371 18.9919 81.9354C19.3859 82.1371 19.8689 81.9812 20.0706 81.5872C20.0904 81.5485 20.1067 81.5088 20.1196 81.4688Z" fill="#BDD0FB"/>
<path d="M63.5205 64.8611C63.3633 65.2749 62.9003 65.4828 62.4862 65.3254C62.0725 65.168 61.8653 64.7058 62.0221 64.2913C62.3216 63.5036 62.5922 62.6908 62.8298 61.8665C62.9505 61.4429 63.3968 61.1959 63.8222 61.3186C64.2475 61.4412 64.4928 61.8855 64.3703 62.3108C64.2674 62.668 64.1589 63.022 64.0449 63.3727C63.8822 63.873 63.7059 64.3739 63.5205 64.8611ZM64.384 58.7184C63.9462 58.6544 63.643 58.2475 63.7071 57.8096C63.8297 56.9686 63.9184 56.1135 63.9701 55.2678C63.9958 54.8264 64.3772 54.4897 64.8192 54.5166C65.2608 54.5436 65.5971 54.9238 65.57 55.3655C65.5156 56.256 65.4224 57.1563 65.2931 58.0411C65.2864 58.087 65.2759 58.1314 65.2621 58.174C65.1434 58.5387 64.7763 58.7757 64.384 58.7184ZM61.6923 68.8277C61.2644 69.6101 60.7972 70.3849 60.3033 71.1305C60.0589 71.4995 59.5615 71.6005 59.1923 71.3561C58.8234 71.1117 58.7229 70.6147 58.9668 70.2452C59.436 69.5372 59.8796 68.8016 60.2857 68.0586C60.4982 67.6702 60.9851 67.5275 61.3737 67.7399C61.7172 67.9277 61.8684 68.3306 61.7515 68.6901C61.7364 68.7369 61.7168 68.783 61.6923 68.8277ZM64.7988 51.8567C64.3576 51.8906 63.9721 51.5601 63.9385 51.1188C63.8738 50.2727 63.7719 49.4194 63.6361 48.5824C63.565 48.1451 63.8617 47.7338 64.2989 47.6628C64.7357 47.5918 65.1474 47.8885 65.2183 48.3254C65.3613 49.2068 65.4685 50.1055 65.5368 50.9964C65.5449 51.1041 65.5318 51.2083 65.5003 51.3051C65.403 51.6049 65.1325 51.8312 64.7988 51.8567ZM57.6488 74.595C57.0597 75.2637 56.4337 75.9165 55.788 76.5354C55.4685 76.8417 54.9614 76.831 54.655 76.5117C54.3483 76.1921 54.3593 75.6847 54.6787 75.3784C55.2919 74.7904 55.8867 74.1704 56.446 73.5353C56.7387 73.2032 57.2453 73.1711 57.5773 73.4638C57.8249 73.6818 57.9056 74.0185 57.8098 74.3133C57.777 74.4142 57.7233 74.5104 57.6488 74.595ZM52.4385 79.3356C51.7157 79.8606 50.9623 80.3612 50.1993 80.8236C49.8206 81.0529 49.3279 80.932 49.0984 80.5534C48.8687 80.1741 48.9897 79.6815 49.3686 79.4526C50.0936 79.0132 50.8095 78.5375 51.4965 78.0387C51.8547 77.7786 52.3559 77.8581 52.616 78.2162C52.7727 78.432 52.8061 78.6999 52.7295 78.9355C52.679 79.091 52.5807 79.2324 52.4385 79.3356ZM46.3185 82.8283C45.4981 83.1836 44.6535 83.5083 43.8087 83.7932C43.389 83.9346 42.9346 83.7092 42.793 83.2898C42.6513 82.8698 42.8771 82.4155 43.2964 82.2742C44.0995 82.0036 44.9016 81.695 45.6814 81.3573C46.0876 81.1813 46.5596 81.368 46.7353 81.7742C46.8162 81.9608 46.8206 82.1611 46.7623 82.3403C46.6936 82.5514 46.5381 82.7331 46.3185 82.8283ZM39.5826 84.9027C38.7045 85.0701 37.8089 85.2018 36.9209 85.2942C36.4806 85.34 36.0865 85.0203 36.0407 84.5799C35.9949 84.1403 36.3149 83.7458 36.7551 83.6999C37.5981 83.6122 38.4483 83.4871 39.2825 83.3281C39.7174 83.2452 40.1369 83.5304 40.2197 83.9653C40.2458 84.1026 40.2353 84.2383 40.1949 84.3626C40.1076 84.6314 39.8802 84.846 39.5826 84.9027ZM32.5518 85.4466C31.6605 85.4164 30.7587 85.3476 29.8713 85.2421C29.4316 85.1898 29.1175 84.7911 29.1698 84.3516C29.2221 83.9134 29.6206 83.598 30.0603 83.6502C30.9034 83.7505 31.7599 83.8157 32.6065 83.8446C33.0487 83.8594 33.3953 84.2304 33.3802 84.6727C33.3775 84.7497 33.3643 84.824 33.3416 84.8937C33.2339 85.2249 32.9171 85.4591 32.5518 85.4466ZM25.5804 84.4344C24.9442 84.2697 24.3052 84.0834 23.6814 83.8805C23.4554 83.8071 23.2312 83.7314 23.0079 83.6534C22.5902 83.5074 22.3598 83.0527 22.5158 82.6324C22.6615 82.2145 23.1188 81.9941 23.5368 82.14C23.7488 82.214 23.9623 82.2863 24.177 82.3561C24.7702 82.5489 25.3773 82.7261 25.9822 82.8827C26.4107 82.9935 26.6682 83.4309 26.5571 83.8594C26.5529 83.8755 26.5483 83.8915 26.5433 83.9071C26.4133 84.3069 25.9927 84.5413 25.5804 84.4344Z" fill="#BDD0FB"/>
<path d="M64.214 44.5352C64.2633 44.3837 64.268 44.2162 64.2179 44.0525C64.0904 43.6377 63.9516 43.2178 63.8056 42.8044C63.6581 42.3869 63.2002 42.1681 62.783 42.3155C62.3656 42.4631 62.1465 42.9205 62.2941 43.3381C62.4328 43.7308 62.5645 44.1298 62.6856 44.5235C62.8155 44.9465 63.264 45.1841 63.6871 45.0541C63.9465 44.9743 64.1361 44.7749 64.214 44.5352Z" fill="#BDD0FB"/>
</g>
<path d="M52.0781 38.0937C51.9916 37.9594 51.8294 37.8946 51.6741 37.9326L47.2454 39.0162C45.7148 37.536 43.9373 36.2891 41.9581 35.3488L41.4186 30.8244C41.3997 30.6656 41.2821 30.5365 41.126 30.5026L35.7811 29.3445C35.6249 29.3105 35.4643 29.3796 35.3815 29.5162L33.0176 33.4115C30.8267 33.4481 28.6924 33.8473 26.6864 34.5613L23.1035 31.7418C22.9778 31.643 22.8033 31.6348 22.669 31.7213L18.0706 34.6818C17.9363 34.7683 17.8715 34.9306 17.9096 35.0858L18.9933 39.5146C17.5129 41.045 16.2661 42.8227 15.3259 44.802L10.8014 45.3414C10.6427 45.3603 10.5135 45.4778 10.4797 45.6341L9.32148 50.979C9.28769 51.1353 9.35668 51.2957 9.49332 51.3786L13.3887 53.7425C13.4253 55.9334 13.8246 58.0676 14.5387 60.0736L11.7191 63.6565C11.6203 63.7821 11.6119 63.9566 11.6985 64.091L14.6589 68.6894C14.7454 68.8238 14.9078 68.8884 15.0629 68.8505L19.4918 67.7668C21.0223 69.2472 22.7998 70.494 24.7791 71.4341L25.3187 75.9586C25.3375 76.1173 25.455 76.2466 25.6112 76.2803L30.9562 77.4384C31.1123 77.4723 31.2728 77.4033 31.3557 77.2667L33.7196 73.3714C35.9105 73.3348 38.0449 72.9355 40.0508 72.2215L43.6338 75.041C43.7594 75.1399 43.9338 75.1482 44.0683 75.0616L48.6666 72.1011C48.801 72.0146 48.8657 71.8523 48.8278 71.6971L47.7441 67.2683C49.2244 65.7378 50.4712 63.9602 51.4115 61.981L55.9359 61.4415C56.0945 61.4225 56.2237 61.3051 56.2576 61.1489L57.4157 55.8039C57.4495 55.6478 57.3806 55.4873 57.2439 55.4044L53.3487 53.0406C53.3121 50.8497 52.9127 48.7154 52.1988 46.7095L55.0184 43.1265C55.1172 43.0009 55.1254 42.8264 55.0389 42.6921L52.0781 38.0937Z" fill="#BDD0FB"/>
<path d="M38.2926 55.8349C36.9451 58.55 33.6401 59.6629 30.9246 58.3154C29.6092 57.6628 28.6268 56.5368 28.1584 55.1451C27.6899 53.7538 27.7911 52.2629 28.4442 50.9476C29.7917 48.2324 33.0968 47.1195 35.8123 48.4671C38.2825 49.6931 39.4264 52.5392 38.5978 55.0876C38.5157 55.3401 38.4141 55.59 38.2926 55.8349ZM29.3739 54.7359C29.7331 55.8029 30.4862 56.6661 31.4949 57.1667C33.5766 58.1997 36.111 57.3466 37.144 55.2648C38.1782 53.1827 37.324 50.6487 35.2421 49.6155C33.1605 48.5825 30.626 49.4357 29.593 51.5174C29.4993 51.7062 29.4207 51.8994 29.3567 52.0962C29.0788 52.9509 29.082 53.8687 29.3739 54.7359Z" fill="url(#paint4_linear_4094_111868)"/>
<path d="M46.1142 57.6517C46.2565 57.214 46.3777 56.7666 46.4765 56.3108C46.5076 56.1673 46.5364 56.0232 46.5629 55.8787C46.6934 55.1664 46.767 54.4449 46.7827 53.7251C46.7829 53.7154 46.7831 53.7055 46.7834 53.6957C46.7838 53.6679 46.7843 53.6401 46.7845 53.6122C46.7854 53.558 46.7856 53.5037 46.7857 53.4495C46.7859 53.3071 46.6932 53.1862 46.5645 53.1442C46.5333 53.1341 46.4999 53.1287 46.4653 53.1286C46.2883 53.1283 46.1451 53.2721 46.1446 53.4488C46.1437 54.36 46.0444 55.2771 45.8496 56.1747C44.8842 60.6341 41.7025 64.0531 37.7106 65.5289C35.4904 66.35 33.0193 66.5695 30.5393 66.032C30.1044 65.9378 29.6774 65.8224 29.26 65.6865C26.4505 64.7728 24.0607 62.9359 22.44 60.4184C20.5781 57.5267 19.9539 54.0829 20.6821 50.7218C22.1869 43.7802 29.0542 39.3611 35.9925 40.8646C36.4203 40.9572 36.8418 41.0713 37.2554 41.2059C39.0474 41.7888 40.692 42.7575 42.0677 44.0479C42.1034 44.0812 42.1444 44.1049 42.1878 44.1189C42.3021 44.156 42.4331 44.127 42.5208 44.0334C42.6416 43.9038 42.636 43.7014 42.5062 43.5801C41.0618 42.2252 39.3352 41.2081 37.4539 40.5961C37.0198 40.4548 36.5774 40.3352 36.1284 40.2377C28.8437 38.6592 21.6333 43.3037 20.0553 50.5858C19.2907 54.1145 19.9462 57.7296 21.9008 60.7653C23.6022 63.4083 26.1111 65.3366 29.0604 66.296C29.4987 66.4385 29.9469 66.5596 30.4032 66.6587C33.9321 67.4233 37.5473 66.768 40.583 64.8135C43.2268 63.1117 45.1551 60.6018 46.1142 57.6517Z" fill="url(#paint5_linear_4094_111868)"/>
<g opacity="0.3">
<path d="M75.6409 5.70997C75.7071 5.50627 75.6352 5.27548 75.4493 5.14851C75.1025 4.91121 74.7437 4.68121 74.3829 4.46502C74.1485 4.3245 73.8447 4.40061 73.7038 4.63519C73.5621 4.8695 73.6396 5.17376 73.874 5.31428C74.2177 5.52035 74.5598 5.73953 74.8909 5.96592C75.1162 6.12026 75.4242 6.06227 75.5789 5.83685C75.6061 5.79655 75.6266 5.75396 75.6409 5.70997Z" fill="#BDD0FB"/>
<path d="M72.2956 3.90595C72.1849 4.15592 71.8929 4.26916 71.6426 4.15847C71.0114 3.87981 70.3585 3.63019 69.7024 3.41691C69.564 3.37194 69.4246 3.32839 69.2844 3.28607C69.023 3.20688 68.8748 2.93077 68.9538 2.669C69.0383 2.42448 69.3091 2.25942 69.5712 2.33826C69.7179 2.38269 69.8638 2.42827 70.0086 2.47534C70.6964 2.69892 71.381 2.9606 72.0428 3.25316C72.2771 3.35646 72.3912 3.61981 72.3136 3.85843C72.3085 3.87427 72.3023 3.89002 72.2956 3.90595ZM66.8379 2.70702C66.0136 2.5643 65.173 2.47121 64.3397 2.43091C64.0665 2.41753 63.8562 2.18577 63.8693 1.91248C63.8828 1.64086 64.1145 1.42863 64.3877 1.44201C65.2611 1.48424 66.1424 1.58164 67.0067 1.73149C67.2761 1.77821 67.4568 2.03435 67.4103 2.30394C67.4062 2.32752 67.4002 2.35075 67.3929 2.37301C67.3179 2.60328 67.0834 2.74943 66.8379 2.70702ZM61.8257 2.46601C60.9928 2.52945 60.1551 2.64604 59.3355 2.81243C59.0678 2.86671 58.8063 2.69355 58.7521 2.4258C58.6977 2.157 58.8703 1.89638 59.1386 1.84209C59.998 1.66752 60.8769 1.54557 61.7502 1.4787C62.0228 1.45802 62.261 1.66207 62.2816 1.93457C62.2865 2.001 62.2782 2.0654 62.2588 2.12515C62.1987 2.31028 62.0317 2.45018 61.8257 2.46601ZM56.9073 3.46398C56.1142 3.73023 55.3301 4.04822 54.5783 4.40898C54.3314 4.52723 54.0359 4.42323 53.9178 4.17669C53.8 3.93076 53.9034 3.63468 54.1498 3.51624C54.9388 3.13781 55.7604 2.80459 56.5923 2.52523C56.8514 2.43812 57.1323 2.57803 57.2193 2.83715C57.254 2.94168 57.2524 3.04964 57.2207 3.14713C57.1739 3.29135 57.062 3.41207 56.9073 3.46398ZM52.3816 5.63237C51.6774 6.08331 50.9946 6.58194 50.3518 7.11462C50.1416 7.28901 49.8293 7.25971 49.6548 7.04915C49.4803 6.8386 49.5091 6.52641 49.7203 6.35211C50.3939 5.79382 51.1097 5.27118 51.8476 4.79833C52.078 4.65112 52.3841 4.71808 52.5314 4.94817C52.6147 5.07822 52.6296 5.23246 52.5853 5.36858C52.5511 5.47372 52.4818 5.56805 52.3816 5.63237ZM48.5194 8.83365C47.9466 9.44174 47.4066 10.0912 46.9142 10.7646C46.753 10.9851 46.443 11.0333 46.2225 10.8719C46.002 10.7104 45.9539 10.4018 46.115 10.1799C46.6312 9.47386 47.1979 8.79238 47.7988 8.15456C47.9864 7.95579 48.2997 7.94629 48.4984 8.1337C48.6424 8.26947 48.6872 8.47114 48.6299 8.64747C48.608 8.71478 48.5714 8.77865 48.5194 8.83365ZM45.5588 12.8806C45.154 13.6083 44.7894 14.3713 44.4758 15.1485C44.3731 15.4018 44.0847 15.5244 43.8312 15.4219C43.5778 15.3197 43.459 15.033 43.5573 14.7773C43.8868 13.9628 44.2688 13.1628 44.6934 12.3995C44.8264 12.1606 45.1278 12.0746 45.3668 12.2075C45.5769 12.3243 45.6687 12.572 45.597 12.7927C45.5873 12.8225 45.5747 12.852 45.5588 12.8806ZM42.6219 20.4193C42.3511 20.3815 42.1624 20.1316 42.2001 19.8607C42.3046 19.111 42.4519 18.3543 42.6374 17.6134C42.665 17.5006 42.6942 17.3889 42.7239 17.277C42.7866 17.0123 43.0661 16.8561 43.3307 16.9275C43.5948 16.9984 43.7511 17.2698 43.6804 17.5341C43.652 17.6387 43.6249 17.7441 43.5986 17.8517C43.4209 18.5608 43.2803 19.2826 43.1806 19.9974C43.1765 20.0269 43.1698 20.0555 43.161 20.0826C43.088 20.3067 42.8631 20.453 42.6219 20.4193Z" fill="#BDD0FB"/>
</g>
<g opacity="0.3">
<path d="M83.6185 29.6928C83.3412 30.5098 83.0112 31.3168 82.6387 32.0919C82.5201 32.338 82.2245 32.4419 81.9779 32.3234C81.7312 32.2049 81.6308 31.9084 81.7464 31.6625C82.1019 30.9236 82.4163 30.1537 82.6809 29.3743C82.7686 29.1153 83.05 28.9768 83.3087 29.0647C83.5654 29.152 83.7041 29.4294 83.6205 29.6864L83.6185 29.6928ZM83.7166 27.5741C83.4492 27.5179 83.2778 27.2553 83.3343 26.9879C83.5034 26.1831 83.6257 25.3599 83.6972 24.5411C83.7217 24.2704 83.9611 24.0672 84.2339 24.0913C84.5063 24.115 84.7073 24.355 84.6839 24.6275C84.6087 25.4855 84.4808 26.3483 84.3031 27.1916C84.2993 27.2095 84.2949 27.2266 84.2893 27.2435C84.2121 27.4808 83.9668 27.6267 83.7166 27.5741ZM81.3736 34.3557C80.9067 35.0818 80.3917 35.7857 79.8425 36.4475C79.6678 36.6579 79.3555 36.6869 79.1453 36.5123C78.9347 36.3379 78.9061 36.0269 79.0801 35.8153C79.6041 35.184 80.0953 34.5128 80.5411 33.8202C80.6891 33.5902 80.9954 33.5238 81.2249 33.6715C81.4183 33.7959 81.4961 34.032 81.4282 34.2408C81.4153 34.2803 81.3972 34.3189 81.3736 34.3557ZM84.2734 22.5465C84.0003 22.5563 83.7709 22.3425 83.761 22.0694C83.7318 21.2476 83.6518 20.4196 83.5228 19.608C83.4804 19.3382 83.6645 19.0845 83.9337 19.0414C84.2038 18.9985 84.4576 19.1825 84.5005 19.4526C84.6361 20.3037 84.7202 21.1724 84.7506 22.0343C84.7525 22.0938 84.744 22.1514 84.7266 22.2049C84.6641 22.3971 84.4869 22.539 84.2734 22.5465ZM78.0694 38.3365C77.443 38.9277 76.7739 39.4866 76.0804 39.9983C75.8603 40.1606 75.5502 40.1136 75.388 39.8936C75.2256 39.6736 75.272 39.3636 75.4926 39.2013C76.1543 38.7136 76.7923 38.1804 77.3895 37.6163C77.5883 37.4288 77.9016 37.4376 78.0895 37.6367C78.2181 37.7729 78.2543 37.9633 78.2001 38.1299C78.1754 38.2059 78.1318 38.2775 78.0694 38.3365ZM73.9061 41.4089C73.1549 41.8337 72.371 42.2166 71.5768 42.5471C71.3246 42.6522 71.035 42.5329 70.93 42.2804C70.8249 42.0284 70.9441 41.7382 71.1969 41.6331C71.9541 41.3178 72.7018 40.9523 73.4187 40.547C73.6566 40.4123 73.9588 40.4963 74.0933 40.7343C74.1643 40.86 74.1745 41.0037 74.1331 41.1313C74.0961 41.2448 74.0182 41.3454 73.9061 41.4089ZM69.1265 43.3962C68.295 43.6291 67.4417 43.8127 66.5912 43.9424C66.3207 43.9835 66.0684 43.7979 66.0272 43.5275C65.9859 43.2573 66.1721 43.005 66.4418 42.9636C67.2531 42.8402 68.0665 42.6649 68.8592 42.4425C69.1226 42.3688 69.396 42.5225 69.4694 42.7858C69.4971 42.8835 69.4929 42.9823 69.4638 43.072C69.4143 43.2241 69.2922 43.3496 69.1265 43.3962Z" fill="#BDD0FB"/>
<path d="M83.927 17.1888C83.9565 17.098 83.9601 16.9978 83.9317 16.8991C83.8145 16.4919 83.6845 16.0864 83.5459 15.6936C83.4548 15.436 83.172 15.3006 82.9141 15.3917C82.6571 15.4833 82.5215 15.7655 82.6121 16.0235C82.7445 16.398 82.8683 16.785 82.9804 17.1734C83.0561 17.4362 83.3307 17.5877 83.5932 17.5119C83.757 17.4645 83.8779 17.3398 83.927 17.1888Z" fill="#BDD0FB"/>
</g>
<path d="M75.7377 12.5282C75.6797 12.4383 75.5712 12.395 75.4673 12.4204L72.5038 13.1455C71.4796 12.155 70.2902 11.3207 68.9658 10.6915L68.6048 7.66391C68.5921 7.55771 68.5134 7.47131 68.4089 7.4486L64.8323 6.67369C64.7278 6.65099 64.6204 6.69718 64.5649 6.78851L62.9832 9.39517C61.5171 9.41963 60.0889 9.68677 58.7466 10.1645L56.349 8.27789C56.265 8.21173 56.1482 8.20627 56.0583 8.26408L52.9814 10.2451C52.8914 10.303 52.8481 10.4116 52.8736 10.5155L53.5987 13.479C52.6081 14.5032 51.7738 15.6927 51.1446 17.0171L48.1171 17.3781C48.0109 17.3908 47.9244 17.4693 47.9018 17.5739L47.1268 21.1505C47.1042 21.255 47.1504 21.3624 47.2417 21.4178L49.8483 22.9997C49.8728 24.4657 50.1399 25.894 50.6178 27.2361L48.731 29.6337C48.6649 29.7178 48.6593 29.8345 48.7173 29.9244L50.6983 33.0014C50.7562 33.0912 50.8648 33.1345 50.9686 33.1092L53.9322 32.3841C54.9563 33.3747 56.1458 34.209 57.4703 34.8381L57.8313 37.8656C57.8439 37.9718 57.9225 38.0582 58.027 38.0809L61.6037 38.8559C61.7082 38.8785 61.8156 38.8324 61.871 38.7409L63.4528 36.1343C64.9188 36.1098 66.3471 35.8426 67.6893 35.3649L70.0869 37.2516C70.1709 37.3178 70.2876 37.3232 70.3776 37.2654L73.4546 35.2844C73.5445 35.2265 73.5878 35.1179 73.5624 35.014L72.8373 32.0504C73.8278 31.0263 74.6621 29.8368 75.2913 28.5123L78.3188 28.1514C78.425 28.1387 78.5114 28.0601 78.5341 27.9555L79.309 24.379C79.3316 24.2745 79.2855 24.1671 79.1941 24.1117L76.5875 22.5299C76.563 21.0638 76.2958 19.6357 75.818 18.2934L77.7048 15.8958C77.7709 15.8118 77.7764 15.6951 77.7185 15.6051L75.7377 12.5282Z" fill="#BDD0FB"/>
<path d="M66.5727 24.428C66.1282 25.3244 65.3612 25.9936 64.4131 26.3127C63.4654 26.6319 62.4499 26.5628 61.5539 26.1179C59.7046 25.2002 58.9483 22.9526 59.8642 21.0989C60.7826 19.2495 63.0339 18.4917 64.8828 19.4095C65.7788 19.854 66.4481 20.621 66.7672 21.5689C67.0266 22.3395 67.0294 23.1548 66.7824 23.9142C66.7258 24.0887 66.6556 24.2606 66.5727 24.428ZM61.9937 25.231C62.653 25.5583 63.3999 25.6091 64.0975 25.3744C64.7945 25.1397 65.3587 24.6472 65.6858 23.9883C66.0121 23.3288 66.0636 22.5822 65.8288 21.8847C65.5944 21.1876 65.1017 20.6235 64.4429 20.2965C63.0824 19.6214 61.4265 20.1788 60.751 21.5391C60.6902 21.6619 60.6394 21.787 60.5982 21.9137C60.183 23.1905 60.7563 24.617 61.9937 25.231Z" fill="url(#paint6_linear_4094_111868)"/>
<path d="M72.0161 25.6918C72.1129 25.3938 72.1953 25.0887 72.2633 24.7763C72.3979 24.1559 72.4695 23.5212 72.4761 22.8881C72.4761 22.8597 72.4762 22.8312 72.4763 22.8028C72.4767 22.5828 72.3335 22.3962 72.1349 22.3313C72.0867 22.3156 72.0351 22.3072 71.9816 22.3071C71.7083 22.3068 71.4876 22.5288 71.4864 22.8016C71.4858 23.3927 71.4214 23.9863 71.2955 24.566L71.2954 24.5663C71.2887 24.5982 71.2813 24.63 71.2741 24.6615C70.9636 26.031 70.3235 27.2712 69.4202 28.2984C68.9299 28.856 68.3613 29.3508 67.7247 29.7689C67.7195 29.7723 67.7144 29.7757 67.7092 29.7791C67.6931 29.7894 67.6775 29.7999 67.6615 29.8099C65.7894 31.015 63.56 31.4193 61.3841 30.9478C61.1024 30.887 60.8262 30.8122 60.5559 30.7243C58.7372 30.1327 57.1901 28.9435 56.1406 27.3137C54.9354 25.4415 54.5316 23.2123 55.0031 21.0366C55.4751 18.8623 56.7654 16.9985 58.6371 15.793C60.5091 14.5879 62.7386 14.1836 64.9145 14.6551C65.1914 14.7149 65.4643 14.7889 65.7318 14.8759C66.8922 15.2533 67.9567 15.8803 68.8472 16.7157C68.9022 16.7672 68.9654 16.8038 69.0326 16.8253C69.2091 16.8827 69.4113 16.8379 69.5468 16.6934C69.7333 16.4935 69.7241 16.1808 69.5243 15.9934C68.5278 15.0587 67.3367 14.357 66.039 13.9346C65.7392 13.8371 65.4342 13.7545 65.1245 13.6873C62.6897 13.1598 60.1957 13.612 58.1011 14.9606C56.007 16.3091 54.5617 18.3906 54.0356 20.8266C53.508 23.2611 53.9599 25.7551 55.3088 27.8496C56.4825 29.6731 58.2135 31.0034 60.2483 31.6652C60.5504 31.7634 60.8597 31.8472 61.1745 31.9154C65.8878 32.9366 70.5559 30.183 72.0161 25.6918Z" fill="url(#paint7_linear_4094_111868)"/>
<path d="M108.307 165.358C126.687 165.358 141.587 150.458 141.587 132.077C141.587 113.697 126.687 98.7969 108.307 98.7969C89.9266 98.7969 75.0264 113.697 75.0264 132.077C75.0264 150.458 89.9266 165.358 108.307 165.358Z" fill="url(#paint8_linear_4094_111868)"/>
<path d="M108.25 164.462C126.055 164.462 140.489 150.028 140.489 132.223C140.489 114.418 126.055 99.9844 108.25 99.9844C90.4455 99.9844 76.0117 114.418 76.0117 132.223C76.0117 150.028 90.4455 164.462 108.25 164.462Z" fill="url(#paint9_linear_4094_111868)"/>
<path d="M123.07 153.59C121.907 153.59 120.753 153.095 119.948 152.135L91.1801 117.824C89.7355 116.1 89.9611 113.533 91.6842 112.088C93.4074 110.644 95.9752 110.869 97.4195 112.592L126.187 146.903C127.632 148.627 127.406 151.194 125.683 152.639C124.921 153.278 123.993 153.59 123.07 153.59Z" fill="white"/>
<path d="M90.7026 153.342C89.6337 153.342 88.5667 152.924 87.7673 152.092C86.209 150.472 86.2595 147.894 87.8802 146.336L121.823 113.699C123.444 112.14 126.022 112.191 127.58 113.812C129.138 115.433 129.088 118.01 127.467 119.568L93.5237 152.205C92.7343 152.965 91.7176 153.342 90.7026 153.342Z" fill="white"/>
<path d="M126.84 229.05C126.887 229.032 152.089 184.897 155.495 180.744C156.068 180.045 156.955 179.689 157.852 179.796L164.886 180.634L173.15 198.512L159.383 190.494C160.745 199.916 143.059 213.918 136.993 219.027C136.378 219.545 136.327 220.474 136.883 221.056L139.305 223.591C135.329 227.62 130.742 230.208 125.564 231.405L126.84 229.05Z" fill="url(#paint10_linear_4094_111868)"/>
<path d="M137.904 222.223C137.904 222.223 139.449 222.722 139.973 224.098C140.223 224.757 139.953 225.503 139.38 225.913C136.836 227.736 128.441 233.623 124.568 234.776C124.25 234.87 123.948 234.583 124.019 234.259C124.218 233.359 124.861 231.562 126.933 228.932L126.747 229.307C126.512 229.783 127.03 230.279 127.492 230.018C130.083 228.555 135.36 225.354 137.904 222.223Z" fill="url(#paint11_linear_4094_111868)"/>
<path d="M136.657 239.883C136.699 239.856 140.48 230.746 140.522 230.719C143.989 209.611 152.448 191.534 154.942 186.777C155.362 185.977 156.158 185.449 157.059 185.372L164.117 184.77L175.828 200.605L160.723 195.539C163.964 204.49 149.477 221.782 144.571 228.012C144.073 228.645 144.212 229.564 144.874 230.022L147.758 232.014C144.681 236.765 140.712 240.228 135.883 242.447L136.657 239.883Z" fill="url(#paint12_linear_4094_111868)"/>
<path d="M146.11 230.957C146.11 230.957 147.724 231.133 148.515 232.375C148.894 232.97 148.78 233.755 148.303 234.272C146.179 236.573 139.15 244.036 135.59 245.949C135.298 246.106 134.944 245.886 134.948 245.555C134.961 244.633 135.227 242.743 136.723 239.748L136.617 240.153C136.483 240.667 137.091 241.047 137.491 240.698C139.732 238.741 144.252 234.538 146.11 230.957Z" fill="url(#paint13_linear_4094_111868)"/>
<path d="M197.157 181.432C197.157 181.432 203.543 190.93 204.067 195.262C204.591 199.594 202.301 201.092 195.618 201.645C175.73 203.289 165.925 197.328 165.925 197.328C164.565 188.654 163.597 186.447 152.234 181.73C152.234 181.73 166.606 182.871 169.498 181.749C172.391 180.627 197.157 181.432 197.157 181.432Z" fill="url(#paint14_linear_4094_111868)"/>
<path d="M171.695 128.224C171.695 128.224 176.142 122.963 180.87 129.418C181.726 130.588 185.016 129.623 186.221 132.07C186.844 133.334 188.189 134.052 189.574 133.796C193.024 133.16 198.663 133.107 201.448 138.513C203.573 142.64 201.932 145.055 199.807 146.432C198.247 147.443 197.69 149.496 198.634 151.099C199.539 152.635 199.709 154.716 197.372 157.221C192.135 162.834 181.769 153.659 181.769 153.659L173.538 134.21L171.695 128.224Z" fill="url(#paint15_linear_4094_111868)"/>
<path d="M179.889 180.177C179.889 180.177 172.454 173.097 168.793 168.407C166.815 165.872 166.193 162.535 167.108 159.452C168.779 153.822 171.749 147.991 172.02 147.084C172.435 145.692 180.773 145.75 180.773 145.75C180.773 145.75 197.179 156.398 203.625 174.435L196.385 176.689C196.385 176.689 192.102 169.502 187.869 164.933C187.869 164.933 195.193 174.608 195.451 178.568L179.889 180.177Z" fill="url(#paint16_linear_4094_111868)"/>
<path d="M165.721 182.97L171.308 176.891L177.761 178.628C177.761 178.628 185.284 179.794 189.589 178.628C193.895 177.463 193.895 177.463 193.895 177.463L203.624 174.434L205.152 178.752C205.54 179.849 205.151 181.066 204.202 181.74C203.361 182.338 202.374 182.995 201.745 183.27C200.464 183.831 172.229 183.447 172.229 183.447L165.721 182.97Z" fill="url(#paint17_linear_4094_111868)"/>
<path d="M175.042 135.725L180.646 146.145C180.276 148.42 174.547 148.484 173.662 147.126C173.572 146.987 173.52 146.828 173.486 146.666L170.134 139.704C169.99 139.025 171.851 136.737 172.464 136.411L174.691 135.226C175.549 134.769 171.97 134.733 175.042 135.725Z" fill="url(#paint18_linear_4094_111868)"/>
<path d="M163.701 133.283C163.701 133.283 163.069 136.804 165.836 141.28C168.603 145.756 171.358 145.554 172.758 143.958C174.158 142.361 175.835 139.703 175.072 135.238C174.309 130.774 164.657 128.794 163.701 133.283Z" fill="url(#paint19_linear_4094_111868)"/>
<path d="M171.722 135.724C171.722 135.724 167.242 129.839 163.802 134.969L163.86 136.741C163.86 136.741 159.387 136.532 159.872 132.41C160.357 128.287 164.009 125.47 169.071 126.879C174.134 128.287 177.092 129.892 177.664 133.407C178.236 136.922 175.366 136.347 175.366 136.347C175.366 136.347 174.269 133.922 172.946 133.756C171.622 133.591 172.1 135.509 172.1 135.509L171.722 135.724Z" fill="url(#paint20_linear_4094_111868)"/>
<path d="M172.75 135.569C172.75 135.569 170.43 132.557 172.542 131.932C174.655 131.307 174.576 134.883 174.438 136.213L172.75 135.569Z" fill="url(#paint21_linear_4094_111868)"/>
<path d="M184.215 185.374C184.195 185.375 184.176 185.376 184.156 185.376L158.457 185.347C157.822 185.347 157.307 184.831 157.308 184.196C157.309 183.561 157.826 183.036 158.46 183.047L184.158 183.075C184.794 183.076 185.308 183.591 185.307 184.226C185.307 184.842 184.823 185.344 184.215 185.374Z" fill="url(#paint22_linear_4094_111868)"/>
<path d="M135.355 162.043H156.757C158.336 162.043 159.773 162.954 160.447 164.382L170.341 185.362H143.744C142.726 185.362 141.812 184.74 141.438 183.794L133.766 164.38C133.323 163.259 134.149 162.043 135.355 162.043Z" fill="url(#paint23_linear_4094_111868)"/>
<path d="M150.432 172.8C150.896 174.241 150.554 175.64 149.667 175.925C148.781 176.211 147.686 175.274 147.222 173.833C146.759 172.392 147.101 170.993 147.988 170.707C148.874 170.422 149.969 171.359 150.432 172.8Z" fill="url(#paint24_linear_4094_111868)"/>
<defs>
<linearGradient id="paint0_linear_4094_111868" x1="263.17" y1="245.852" x2="82.7737" y2="88.0049" gradientUnits="userSpaceOnUse">
<stop stop-color="#DAE3FE"/>
<stop offset="1" stop-color="#E9EFFD"/>
</linearGradient>
<linearGradient id="paint1_linear_4094_111868" x1="126.944" y1="219.164" x2="124.549" y2="54.4553" gradientUnits="userSpaceOnUse">
<stop stop-color="#09005D"/>
<stop offset="1" stop-color="#1A0F91"/>
</linearGradient>
<linearGradient id="paint2_linear_4094_111868" x1="14.8146" y1="234.307" x2="338.841" y2="-55.5797" gradientUnits="userSpaceOnUse">
<stop stop-color="#4F52FF"/>
<stop offset="1" stop-color="#4042E2"/>
</linearGradient>
<linearGradient id="paint3_linear_4094_111868" x1="132.808" y1="74.8292" x2="123.169" y2="210.985" gradientUnits="userSpaceOnUse">
<stop stop-color="#09005D"/>
<stop offset="1" stop-color="#1A0F91"/>
</linearGradient>
<linearGradient id="paint4_linear_4094_111868" x1="27.8682" y1="53.3911" x2="38.8652" y2="53.3911" gradientUnits="userSpaceOnUse">
<stop stop-color="#DAE3FE"/>
<stop offset="1" stop-color="#E9EFFD"/>
</linearGradient>
<linearGradient id="paint5_linear_4094_111868" x1="19.7443" y1="53.4499" x2="46.7858" y2="53.4499" gradientUnits="userSpaceOnUse">
<stop stop-color="#DAE3FE"/>
<stop offset="1" stop-color="#E9EFFD"/>
</linearGradient>
<linearGradient id="paint6_linear_4094_111868" x1="59.4751" y1="22.7649" x2="66.9647" y2="22.7649" gradientUnits="userSpaceOnUse">
<stop stop-color="#DAE3FE"/>
<stop offset="1" stop-color="#E9EFFD"/>
</linearGradient>
<linearGradient id="paint7_linear_4094_111868" x1="53.8207" y1="22.8004" x2="72.4764" y2="22.8004" gradientUnits="userSpaceOnUse">
<stop stop-color="#DAE3FE"/>
<stop offset="1" stop-color="#E9EFFD"/>
</linearGradient>
<linearGradient id="paint8_linear_4094_111868" x1="127.797" y1="93.3694" x2="69.4441" y2="209.261" gradientUnits="userSpaceOnUse">
<stop stop-color="#E1473D"/>
<stop offset="1" stop-color="#E9605A"/>
</linearGradient>
<linearGradient id="paint9_linear_4094_111868" x1="151.974" y1="23.8133" x2="107.397" y2="134.339" gradientUnits="userSpaceOnUse">
<stop stop-color="#FF928E"/>
<stop offset="1" stop-color="#FE7062"/>
</linearGradient>
<linearGradient id="paint10_linear_4094_111868" x1="120.8" y1="192.078" x2="160.533" y2="214.757" gradientUnits="userSpaceOnUse">
<stop stop-color="#FEBBBA"/>
<stop offset="1" stop-color="#FF928E"/>
</linearGradient>
<linearGradient id="paint11_linear_4094_111868" x1="125.994" y1="214.754" x2="143.891" y2="258.07" gradientUnits="userSpaceOnUse">
<stop stop-color="#4F52FF"/>
<stop offset="1" stop-color="#4042E2"/>
</linearGradient>
<linearGradient id="paint12_linear_4094_111868" x1="124.643" y1="197.735" x2="-11.3034" y2="112.63" gradientUnits="userSpaceOnUse">
<stop stop-color="#FEBBBA"/>
<stop offset="1" stop-color="#FF928E"/>
</linearGradient>
<linearGradient id="paint13_linear_4094_111868" x1="132.935" y1="226.055" x2="159.227" y2="264.848" gradientUnits="userSpaceOnUse">
<stop stop-color="#4F52FF"/>
<stop offset="1" stop-color="#4042E2"/>
</linearGradient>
<linearGradient id="paint14_linear_4094_111868" x1="158.018" y1="163.601" x2="190.697" y2="199.413" gradientUnits="userSpaceOnUse">
<stop stop-color="#FF928E"/>
<stop offset="1" stop-color="#FE7062"/>
</linearGradient>
<linearGradient id="paint15_linear_4094_111868" x1="164.886" y1="115.019" x2="182.161" y2="134.962" gradientUnits="userSpaceOnUse">
<stop stop-color="#09005D"/>
<stop offset="1" stop-color="#1A0F91"/>
</linearGradient>
<linearGradient id="paint16_linear_4094_111868" x1="252.108" y1="107.563" x2="207.187" y2="144.697" gradientUnits="userSpaceOnUse">
<stop stop-color="#FF928E"/>
<stop offset="1" stop-color="#FE7062"/>
</linearGradient>
<linearGradient id="paint17_linear_4094_111868" x1="190.39" y1="179.004" x2="229.97" y2="179.004" gradientUnits="userSpaceOnUse">
<stop stop-color="#FEBBBA"/>
<stop offset="1" stop-color="#FF928E"/>
</linearGradient>
<linearGradient id="paint18_linear_4094_111868" x1="174.281" y1="160.088" x2="175.196" y2="145.831" gradientUnits="userSpaceOnUse">
<stop stop-color="#FEBBBA"/>
<stop offset="1" stop-color="#FF928E"/>
</linearGradient>
<linearGradient id="paint19_linear_4094_111868" x1="175.629" y1="148.029" x2="158.406" y2="115.069" gradientUnits="userSpaceOnUse">
<stop stop-color="#FEBBBA"/>
<stop offset="1" stop-color="#FF928E"/>
</linearGradient>
<linearGradient id="paint20_linear_4094_111868" x1="154.11" y1="129.337" x2="178.226" y2="134.176" gradientUnits="userSpaceOnUse">
<stop stop-color="#09005D"/>
<stop offset="1" stop-color="#1A0F91"/>
</linearGradient>
<linearGradient id="paint21_linear_4094_111868" x1="179.571" y1="145.971" x2="162.348" y2="113.011" gradientUnits="userSpaceOnUse">
<stop stop-color="#FEBBBA"/>
<stop offset="1" stop-color="#FF928E"/>
</linearGradient>
<linearGradient id="paint22_linear_4094_111868" x1="188.575" y1="178.546" x2="168.175" y2="185.237" gradientUnits="userSpaceOnUse">
<stop stop-color="#09005D"/>
<stop offset="1" stop-color="#1A0F91"/>
</linearGradient>
<linearGradient id="paint23_linear_4094_111868" x1="140.628" y1="164.612" x2="173.224" y2="194.441" gradientUnits="userSpaceOnUse">
<stop stop-color="#09005D"/>
<stop offset="1" stop-color="#1A0F91"/>
</linearGradient>
<linearGradient id="paint24_linear_4094_111868" x1="151.669" y1="169.038" x2="145.002" y2="179.076" gradientUnits="userSpaceOnUse">
<stop stop-color="#4F52FF"/>
<stop offset="1" stop-color="#4042E2"/>
</linearGradient>
</defs>
</svg>
