<svg width="77" height="90" viewBox="0 0 77 90" fill="none" xmlns="http://www.w3.org/2000/svg">
<path d="M56.4161 49.0435C58.0932 47.3605 59.7692 45.6765 61.4482 43.9955C62.9815 42.4603 64.5197 40.93 66.0607 39.4027C65.2499 37.7547 63.1383 34.1354 60.4095 29.9629L48.4932 31.7656C48.9836 34.6076 51.7208 42.5082 55.0276 47.128C55.5114 47.8039 55.9723 48.4399 56.4161 49.0435Z" fill="#FF954D"/>
<path d="M29.071 64.3545L43.6075 64.8515L56.4115 64.9928L65.5251 130.595C59.3794 129.002 50.8525 129.997 45.6801 133.198L43.8139 84.3786C43.8054 84.1573 43.4868 84.133 43.4449 84.3504L33.8583 134.036C26.1277 129.426 19.9575 129.426 14.5674 129.851L29.071 64.3545Z" fill="#7B9AFC"/>
<path d="M45.2871 67.3837C44.6334 67.3837 44.1016 66.8519 44.1016 66.1982C44.1016 65.5445 44.6334 65.0127 45.2871 65.0127C45.9408 65.0127 46.4726 65.5445 46.4726 66.1982C46.4726 66.8519 45.9408 67.3837 45.2871 67.3837ZM45.2871 65.389C44.8408 65.389 44.4779 65.752 44.4779 66.1982C44.4779 66.6444 44.8408 67.0074 45.2871 67.0074C45.7332 67.0074 46.0963 66.6444 46.0963 66.1982C46.0963 65.752 45.7333 65.389 45.2871 65.389Z" fill="#363649"/>
<path d="M54.0707 94.7195C53.9767 94.7195 53.8956 94.6492 53.8841 94.5536L51.6146 75.5464C51.6023 75.4432 51.676 75.3497 51.7791 75.3373C51.882 75.3251 51.9759 75.3986 51.9882 75.5018L54.2577 94.5091C54.27 94.6122 54.1964 94.7058 54.0932 94.7182C54.0857 94.719 54.0781 94.7195 54.0707 94.7195Z" fill="#363649"/>
<path d="M43.7235 84.2773C43.7171 84.2773 43.7106 84.277 43.704 84.2763C43.6008 84.2657 43.5256 84.1736 43.5361 84.0703C43.5459 83.9739 43.8027 81.6947 46.1222 80.2794C46.2109 80.2255 46.3267 80.2533 46.3808 80.3421C46.4349 80.4307 46.4069 80.5466 46.3182 80.6007C44.1635 81.9154 43.9128 84.0869 43.9104 84.1087C43.9004 84.2052 43.8187 84.2773 43.7235 84.2773Z" fill="#363649"/>
<path d="M43.8766 84.2011C43.8308 84.2011 43.785 84.1845 43.7488 84.1509C43.6727 84.0804 43.6679 83.9617 43.7383 83.8854C43.7781 83.8423 44.7294 82.8307 46.3598 82.7113C46.4636 82.7048 46.5536 82.7816 46.5612 82.8852C46.5687 82.9889 46.4909 83.079 46.3872 83.0866C44.9104 83.1948 44.0234 84.1314 44.0146 84.1408C43.9774 84.1808 43.9271 84.2011 43.8766 84.2011Z" fill="#363649"/>
<path d="M43.7614 84.1623C43.6575 84.1623 43.5732 84.0781 43.5732 83.9742V74.9469C43.5732 74.843 43.6575 74.7588 43.7614 74.7588C43.8653 74.7588 43.9496 74.843 43.9496 74.9469V83.9742C43.9496 84.0781 43.8653 84.1623 43.7614 84.1623Z" fill="#363649"/>
<path d="M27.146 74.5097C27.0526 74.5097 26.9717 74.4403 26.9595 74.3453C26.9464 74.2424 27.0191 74.1482 27.1221 74.1349C27.1345 74.1333 28.3698 73.9619 29.9348 72.8954C31.3813 71.9098 33.4139 69.9356 34.8824 66.1282C34.9198 66.0313 35.0287 65.9832 35.1257 66.0204C35.2227 66.0578 35.2709 66.1666 35.2335 66.2636C33.7248 70.1751 31.6227 72.206 30.1251 73.221C28.4896 74.3294 27.2231 74.5013 27.17 74.5081C27.162 74.5092 27.1539 74.5097 27.146 74.5097Z" fill="#363649"/>
<path d="M50.1313 10.3806C50.1313 10.3806 52.4517 14.9663 51.7888 17.2868C51.7888 17.2868 54.1644 15.8503 54.2198 12.0934C54.275 8.33644 49.7998 8.00488 49.7998 8.00488L50.076 10.6016" fill="#363649"/>
<path d="M43.9862 11.2639C44.4213 9.45416 43.307 7.63429 41.4973 7.19912C39.6875 6.76395 37.8677 7.87826 37.4325 9.68801C36.9973 11.4978 38.1116 13.3176 39.9214 13.7528C41.7311 14.188 43.551 13.0737 43.9862 11.2639Z" fill="#363649"/>
<path d="M23.4316 32.5322C23.4316 34.8637 24.366 36.9725 25.8811 38.5093C27.1254 39.7843 28.767 40.6662 30.6095 40.9587C31.0505 41.0329 31.5045 41.0679 31.9673 41.0679C34.1503 41.0679 36.1413 40.247 37.6519 38.8979C37.7873 38.7845 37.9139 38.6622 38.0405 38.5311C39.5642 36.9942 40.5073 34.8725 40.5073 32.5322C40.5073 27.8169 36.6827 23.9922 31.9673 23.9922C31.5045 23.9922 31.0505 24.0272 30.6095 24.1013C30.4698 24.1232 30.3301 24.1494 30.1947 24.1799C27.2476 24.8 24.8681 26.9393 23.8989 29.7424C23.5975 30.6155 23.4316 31.5542 23.4316 32.5322Z" fill="#8B95F7"/>
<path d="M53.9964 42.0387C58.2865 42.0387 61.7643 38.5609 61.7643 34.2708C61.7643 29.9807 58.2865 26.5029 53.9964 26.5029C49.7063 26.5029 46.2285 29.9807 46.2285 34.2708C46.2285 38.5609 49.7063 42.0387 53.9964 42.0387Z" fill="#FF954D"/>
<path d="M56.3189 26.9669L57.5862 66.2886C48.0458 67.57 38.3608 67.1747 28.7373 66.2886L31.3942 24.1365C32.9489 23.8438 34.5214 23.6388 36.0959 23.517C41.3672 23.1132 46.6649 23.6601 51.4281 25.0892C53.1368 25.604 54.7751 26.2299 56.3189 26.9669Z" fill="#FF954D"/>
<path d="M48.184 24.8912C45.9518 25.9428 41.7241 26.1181 40.0685 23.7149L40.0088 16.4941H48.184V24.8912Z" fill="#B98A83"/>
<path d="M48.1798 21.9167L48.1809 24.1859C48.1809 24.1859 43.6288 22.0491 43.0713 18.6582" fill="#363649"/>
<path d="M52.2838 13.5566C52.286 14.0862 52.2589 14.6 52.2049 15.0958C52.1328 15.7877 52.011 16.4435 51.8511 17.0564C51.2877 19.2244 50.2622 20.8493 49.3045 21.5862C47.8487 22.7086 40.664 19.1545 39.8258 16.5336C38.5953 12.6845 41.8991 7.8843 45.7843 7.09777C47.5196 6.74846 50.0797 7.05269 51.2696 8.70233C51.6753 9.26563 52.2725 10.7779 52.2838 13.5566Z" fill="#B98A83"/>
<path d="M55.2236 7.0315C55.8254 4.41454 54.1917 1.80526 51.5748 1.20351C48.9578 0.601766 46.3485 2.23543 45.7468 4.85239C45.145 7.46935 46.7787 10.0786 49.3957 10.6804C52.0126 11.2821 54.6219 9.64847 55.2236 7.0315Z" fill="#363649"/>
<path d="M43.0535 9.70635C44.9148 9.69295 46.4128 8.1732 46.3994 6.3119C46.386 4.45059 44.8663 2.95257 43.005 2.96597C41.1437 2.97937 39.6456 4.49912 39.659 6.36043C39.6724 8.22173 41.1922 9.71975 43.0535 9.70635Z" fill="#363649"/>
<path d="M42.9728 9.48212C42.9728 9.48212 40.6523 14.0678 41.3153 16.3882C41.3153 16.3882 38.9396 14.9518 38.8843 11.1948C38.8291 7.43792 43.3043 7.10645 43.3043 7.10645L43.028 9.70319" fill="#363649"/>
<path d="M41.1136 16.4299C42.167 15.898 42.5898 14.6129 42.0579 13.5595C41.5261 12.5061 40.241 12.0833 39.1876 12.6152C38.1342 13.147 37.7114 14.4321 38.2432 15.4855C38.7751 16.5389 40.0602 16.9617 41.1136 16.4299Z" fill="#B98A83"/>
<path d="M39.7222 15.7142C39.6499 15.7142 39.5809 15.6722 39.5499 15.6017C38.8355 13.9764 39.9668 13.222 39.9784 13.2146C40.0658 13.1584 40.1821 13.1834 40.2385 13.2706C40.2946 13.3576 40.2699 13.4736 40.1832 13.5302C40.1449 13.5556 39.3136 14.1292 39.8944 15.4503C39.9362 15.5455 39.893 15.6565 39.7979 15.6983C39.7732 15.7091 39.7476 15.7142 39.7222 15.7142Z" fill="#363649"/>
<path d="M40.7775 14.9798C40.7497 14.9798 40.7214 14.9736 40.6948 14.9606C40.2531 14.7438 39.5311 14.3908 39.4737 14.3663C39.3783 14.3254 39.3338 14.2149 39.3744 14.1195C39.4152 14.024 39.525 13.9794 39.6206 14.0198C39.6989 14.053 40.6673 14.5278 40.8606 14.6227C40.9539 14.6685 40.9924 14.7812 40.9466 14.8746C40.9138 14.9411 40.847 14.9798 40.7775 14.9798Z" fill="#363649"/>
<path d="M47.8831 8.25278C48.1305 7.21578 47.4904 6.17452 46.4534 5.92707C45.4164 5.67963 44.3752 6.3197 44.1277 7.35671C43.8803 8.39372 44.5204 9.43497 45.5574 9.68241C46.5944 9.92986 47.6356 9.28979 47.8831 8.25278Z" fill="#363649"/>
<path d="M47.3374 5.51852C48.1296 4.80507 48.1935 3.58448 47.4801 2.79225C46.7666 2.00002 45.546 1.93616 44.7538 2.6496C43.9616 3.36304 43.8977 4.58363 44.6111 5.37586C45.3246 6.16809 46.5452 6.23196 47.3374 5.51852Z" fill="#363649"/>
<path d="M41.384 9.33567C42.1378 8.58182 42.1378 7.35959 41.384 6.60574C40.6301 5.85189 39.4079 5.85189 38.654 6.60574C37.9002 7.35959 37.9002 8.58182 38.654 9.33567C39.4079 10.0895 40.6301 10.0895 41.384 9.33567Z" fill="#363649"/>
<path d="M46.4393 27.6321C46.3441 27.6321 46.2856 27.627 46.2725 27.6257C46.1691 27.6157 46.0934 27.5237 46.1034 27.4203C46.1135 27.317 46.2062 27.2419 46.3084 27.2513C46.3282 27.2529 48.2329 27.4037 49.68 25.404C49.741 25.3199 49.8586 25.301 49.9428 25.3619C50.0269 25.4228 50.0457 25.5405 49.9848 25.6246C48.6461 27.4746 46.9705 27.6321 46.4393 27.6321Z" fill="#363649"/>
<path d="M47.0523 13.8088C47.0766 13.7923 47.0765 13.7621 47.0523 13.7463L46.1262 13.1402C45.7451 12.8105 45.0844 12.8317 44.7763 13.2165L43.9942 13.8802C43.9636 13.9062 43.9676 13.9441 44.0032 13.9643L44.9071 14.4782C45.257 14.6771 45.8292 14.6512 46.1611 14.4211C46.514 14.1765 46.9172 13.901 47.0523 13.8088Z" fill="white"/>
<path d="M43.9381 14.0898C43.8913 14.0898 43.8445 14.0725 43.808 14.0376C43.733 13.9656 43.7304 13.8466 43.8023 13.7716L44.6177 12.9206C45.0116 12.5095 45.7762 12.4642 46.2218 12.8256L47.2023 13.6207C47.283 13.6862 47.2954 13.8047 47.23 13.8853C47.1645 13.966 47.0461 13.9783 46.9653 13.913L45.9848 13.1179C45.6909 12.8794 45.1483 12.9106 44.8895 13.1809L44.074 14.0318C44.037 14.0704 43.9876 14.0898 43.9381 14.0898Z" fill="#363649"/>
<path d="M45.403 13.7969C45.4171 14.0948 45.6701 14.3247 45.9679 14.3105C46.2657 14.2963 46.4956 14.0433 46.4814 13.7456C46.4672 13.4478 46.2142 13.2179 45.9165 13.2321C45.6187 13.2462 45.3887 13.4991 45.403 13.7969Z" fill="#363649"/>
<path d="M51.7354 13.9852C51.7615 13.9715 51.7649 13.9416 51.7425 13.923L50.8922 13.2146C50.5515 12.8433 49.8928 12.7885 49.5425 13.1353L48.6893 13.7048C48.6559 13.7271 48.6556 13.7652 48.6887 13.7893L49.5275 14.4036C49.8523 14.6414 50.4236 14.6814 50.7798 14.491C51.1584 14.2885 51.5906 14.0612 51.7354 13.9852Z" fill="white"/>
<path d="M51.7721 14.1355C51.7233 14.1355 51.6744 14.1166 51.6376 14.0789L50.755 13.1764C50.4904 12.9058 49.9478 12.8744 49.6597 13.1132L48.806 13.82C48.7981 13.8393 48.7868 13.8578 48.772 13.8743C48.7028 13.9517 48.5838 13.9583 48.5064 13.889C48.4609 13.8483 48.4354 13.7905 48.4366 13.7304C48.4376 13.6705 48.465 13.614 48.5116 13.5752L49.4197 12.8233C49.8582 12.4602 50.6228 12.5031 51.024 12.9132L51.9066 13.8158C51.9792 13.8901 51.9779 14.0092 51.9036 14.0818C51.867 14.1177 51.8195 14.1355 51.7721 14.1355Z" fill="#363649"/>
<path d="M50.0979 13.7837C50.0778 14.0811 50.3027 14.3385 50.6001 14.3587C50.8975 14.3788 51.1549 14.154 51.1751 13.8566C51.1952 13.5591 50.9704 13.3017 50.6729 13.2815C50.3755 13.2614 50.1181 13.4862 50.0979 13.7837Z" fill="#363649"/>
<path d="M48.4937 17.1803C48.4653 17.1803 48.4364 17.1738 48.4093 17.1601C48.3165 17.1134 48.2791 17.0003 48.3258 16.9075L48.9286 15.7096C49.0524 15.478 49.0237 15.2032 48.8577 15.0057L48.8466 14.9911L47.8152 13.4869C47.7565 13.4013 47.7783 13.2841 47.864 13.2254C47.9497 13.1666 48.0669 13.1885 48.1256 13.2741L49.1519 14.7711C49.412 15.0865 49.4556 15.5218 49.2626 15.8829L48.6619 17.0767C48.6289 17.1424 48.5626 17.1803 48.4937 17.1803Z" fill="#363649"/>
<path d="M46.7082 19.4668C46.6341 19.4668 46.5606 19.4611 46.4874 19.4497C45.5698 19.3074 45.0989 18.3225 45.0793 18.2806C45.0352 18.1866 45.0758 18.0745 45.17 18.0305C45.2641 17.9865 45.3759 18.0269 45.42 18.1208C45.424 18.1293 45.828 18.968 46.547 19.0782C47.0444 19.1545 47.5947 18.8706 48.1825 18.2344C48.253 18.1581 48.3719 18.1534 48.4484 18.2239C48.5247 18.2944 48.5294 18.4135 48.4589 18.4898C47.859 19.1391 47.2712 19.4668 46.7082 19.4668Z" fill="#363649"/>
<path d="M44.1338 12.4864C44.0694 12.4864 44.0067 12.4534 43.9716 12.3941C43.9188 12.3048 43.948 12.1898 44.0371 12.1368C44.0795 12.1115 45.0879 11.5256 46.3099 12.0338C46.4058 12.0737 46.4513 12.1837 46.4114 12.2797C46.3715 12.3757 46.2613 12.4211 46.1654 12.3812C45.1226 11.9476 44.265 12.4393 44.2291 12.4605C44.199 12.478 44.1662 12.4864 44.1338 12.4864Z" fill="#363649"/>
<path d="M49.0859 12.3653C49.0215 12.3653 48.9589 12.3324 48.9238 12.273C48.8709 12.1837 48.9001 12.0687 48.9893 12.0157C49.0316 11.9905 50.0402 11.4045 51.262 11.9126C51.358 11.9526 51.4034 12.0626 51.3635 12.1586C51.3236 12.2546 51.2135 12.2999 51.1176 12.2601C50.0749 11.8265 49.2171 12.3182 49.1812 12.3394C49.1513 12.3569 49.1183 12.3653 49.0859 12.3653Z" fill="#363649"/>
<path d="M36.6693 44.0088C36.2021 43.829 35.8525 43.397 35.8036 42.8648C35.6846 41.5713 35.0872 40.532 34.3167 40.2768C34.1125 40.2094 33.8809 40.1936 33.6281 40.2297C32.8857 40.3359 32.1974 39.8204 32.0911 39.0778C31.9846 38.3353 32.5004 37.6471 33.2429 37.5408C33.9146 37.4446 34.5625 37.4973 35.1684 37.6974C37.0066 38.3039 38.2853 40.1889 38.5085 42.616C38.5771 43.3631 38.0273 44.0242 37.2803 44.0929C37.0656 44.1127 36.8578 44.0813 36.6693 44.0088Z" fill="#B98A83"/>
<path d="M36.5936 39.187C36.5467 39.187 36.4998 39.1685 36.4648 39.1318C34.8823 37.4706 32.9709 37.6525 32.9517 37.6544C32.8537 37.6646 32.7665 37.5942 32.7559 37.4967C32.7454 37.3992 32.8157 37.3116 32.9132 37.3009C32.9982 37.2915 35.0139 37.0934 36.7222 38.8865C36.79 38.9576 36.7872 39.0702 36.7162 39.1379C36.6817 39.1707 36.6376 39.187 36.5936 39.187Z" fill="#363649"/>
<path d="M36.9382 42.8156C36.8709 42.8156 36.8066 42.7773 36.7766 42.7122C36.7754 42.7097 36.6238 42.3933 36.2035 41.9985C35.8144 41.633 35.1091 41.1238 33.958 40.7728C33.0165 40.4858 32.3978 40.0576 32.119 39.5001C31.8493 38.9608 32.0094 38.5037 32.0164 38.4845C32.0498 38.3922 32.1518 38.3444 32.244 38.3778C32.336 38.4111 32.3837 38.5123 32.3511 38.6044C32.3458 38.6199 32.2372 38.9494 32.4413 39.3496C32.6741 39.8059 33.2344 40.1804 34.0616 40.4326C36.4261 41.1536 37.0731 42.5062 37.0995 42.5633C37.1407 42.6525 37.1017 42.7581 37.0125 42.7992C36.9884 42.8104 36.963 42.8156 36.9382 42.8156Z" fill="#363649"/>
<path d="M36.6028 46.0937C36.1357 45.914 35.7861 45.482 35.7372 44.9498C35.6182 43.6563 35.0208 42.617 34.2503 42.3617C34.0461 42.2944 33.8144 42.2786 33.5617 42.3146C32.8193 42.4208 32.131 41.9053 32.0247 41.1627C31.9182 40.4203 32.434 39.7321 33.1765 39.6257C33.8482 39.5296 34.496 39.5822 35.102 39.7824C36.9402 40.3889 38.2189 42.2739 38.4421 44.701C38.5107 45.448 37.9608 46.1091 37.2139 46.1779C36.9991 46.1977 36.7914 46.1663 36.6028 46.0937Z" fill="#B98A83"/>
<path d="M36.5253 41.272C36.4784 41.272 36.4315 41.2535 36.3966 41.2169C34.8083 39.5497 32.9028 39.7372 32.8837 39.7394C32.786 39.7507 32.6983 39.6796 32.6876 39.582C32.6769 39.4844 32.7473 39.3966 32.845 39.3858C32.9299 39.3765 34.9458 39.1783 36.6541 40.9716C36.7218 41.0426 36.7191 41.1552 36.648 41.223C36.6135 41.2557 36.5694 41.272 36.5253 41.272Z" fill="#363649"/>
<path d="M36.8698 44.8996C36.8026 44.8996 36.7383 44.8613 36.7083 44.7962C36.707 44.7937 36.5554 44.4772 36.1351 44.0824C35.7461 43.7169 35.0407 43.2077 33.8896 42.8567C32.9482 42.5697 32.3295 42.1415 32.0507 41.5841C31.7809 41.0448 31.9411 40.5876 31.948 40.5685C31.9813 40.4761 32.0835 40.4285 32.1756 40.4618C32.2676 40.495 32.3154 40.5963 32.2827 40.6884C32.2773 40.7043 32.169 41.0337 32.373 41.4336C32.6057 41.8899 33.166 42.2643 33.9932 42.5166C36.3578 43.2375 37.0047 44.5901 37.0312 44.6473C37.0723 44.7364 37.0333 44.8421 36.9442 44.8832C36.9201 44.8943 36.8948 44.8996 36.8698 44.8996Z" fill="#363649"/>
<path d="M36.9485 48.4598C36.4814 48.28 36.1318 47.8481 36.0829 47.3159C35.9639 46.0224 35.3665 44.9831 34.596 44.7279C34.3918 44.6604 34.1601 44.6447 33.9074 44.6809C33.165 44.787 32.4767 44.2716 32.3704 43.5289C32.2639 42.7865 32.7797 42.0983 33.5222 41.992C34.1939 41.8958 34.8418 41.9485 35.4477 42.1486C37.2859 42.7551 38.5646 44.6401 38.7878 47.0672C38.8564 47.8142 38.3065 48.4754 37.5596 48.5441C37.3449 48.5638 37.1371 48.5324 36.9485 48.4598Z" fill="#B98A83"/>
<path d="M36.8729 43.6383C36.826 43.6383 36.7791 43.6198 36.7442 43.5831C35.1615 41.922 33.2501 42.1037 33.231 42.1057C33.1331 42.1155 33.0458 42.0454 33.0352 41.9479C33.0247 41.8504 33.095 41.7628 33.1925 41.7521C33.2772 41.7427 35.293 41.5444 37.0016 43.3378C37.0693 43.4089 37.0665 43.5215 36.9955 43.5892C36.9611 43.622 36.917 43.6383 36.8729 43.6383Z" fill="#363649"/>
<path d="M37.2175 47.2657C37.1503 47.2657 37.0859 47.2274 37.0559 47.1623C37.0547 47.1598 36.9031 46.8434 36.4828 46.4486C36.0938 46.0831 35.3884 45.5738 34.2373 45.2229C33.2959 44.936 32.6772 44.5077 32.3983 43.9504C32.1286 43.4111 32.2887 42.9539 32.2957 42.9347C32.3291 42.8423 32.4311 42.7947 32.5233 42.828C32.6153 42.8613 32.6631 42.9626 32.6304 43.0547C32.6247 43.0716 32.5171 43.4006 32.7206 43.7999C32.9534 44.2562 33.5138 44.6306 34.341 44.8829C36.7055 45.6038 37.3525 46.9563 37.3789 47.0136C37.4201 47.1027 37.3811 47.2084 37.2919 47.2495C37.2678 47.2605 37.2424 47.2657 37.2175 47.2657Z" fill="#363649"/>
<path d="M36.6673 50.6229C36.2002 50.4432 35.8505 50.0112 35.8016 49.479C35.6827 48.1855 35.0852 47.1462 34.3147 46.8909C34.1106 46.8236 33.8789 46.8078 33.6262 46.844C32.8837 46.9501 32.1954 46.4346 32.0891 45.692C31.9827 44.9496 32.4984 44.2614 33.2409 44.155C33.9126 44.0589 34.5605 44.1115 35.1665 44.3117C37.0047 44.9182 38.2834 46.8032 38.5065 49.2303C38.5752 49.9773 38.0253 50.6384 37.2783 50.7072C37.0636 50.7269 36.8559 50.6954 36.6673 50.6229Z" fill="#B98A83"/>
<path d="M36.5907 45.8013C36.5438 45.8013 36.4968 45.7828 36.4619 45.7461C34.8794 44.085 32.968 44.2669 32.9487 44.2687C32.8508 44.2784 32.7636 44.2084 32.753 44.1109C32.7424 44.0135 32.8128 43.9259 32.9102 43.9151C32.9952 43.9058 35.0109 43.7076 36.7193 45.5008C36.7871 45.5719 36.7843 45.6844 36.7132 45.7522C36.6788 45.785 36.6347 45.8013 36.5907 45.8013Z" fill="#363649"/>
<path d="M36.9348 49.429C36.8619 49.429 36.7936 49.3838 36.7675 49.3113C36.7625 49.2978 36.2238 47.894 34.0318 47.2257C33.0392 46.9231 32.395 46.4928 32.1169 45.9466C31.8829 45.487 32.0068 45.1158 32.0121 45.1003C32.0442 45.0075 32.1454 44.958 32.2383 44.9904C32.3305 45.0223 32.3797 45.1225 32.3488 45.2149C32.3444 45.2287 32.2709 45.4749 32.4398 45.7969C32.6025 46.1073 33.0288 46.5482 34.1355 46.8856C36.509 47.6093 37.079 49.1268 37.1021 49.191C37.1354 49.2834 37.0874 49.3853 36.995 49.4185C36.9751 49.4257 36.9548 49.429 36.9348 49.429Z" fill="#363649"/>
<path d="M56.9171 41.5098L57.0952 49.3503C57.0952 49.3503 47.039 45.473 44.0515 44.1114C40.4342 48.0954 35.2528 49.2431 34.334 54.7339C43.1462 58.7407 49.0368 61.3952 53.811 62.3951C56.4808 62.957 56.5488 62.8106 58.4995 62.5415C58.6075 62.5275 58.7145 62.5111 58.819 62.4955C62.5038 61.8981 64.5968 59.9378 65.7077 58.376C66.164 57.7373 66.6406 56.899 66.9939 55.8627C67.4285 54.5847 67.6706 53.0039 67.4438 51.1226C67.2731 49.704 66.2646 41.5123 65.6307 39.2823C65.6152 39.2283 65.5958 39.1754 65.5725 39.124" fill="#B98A83"/>
<path d="M44.4149 43.1338C44.4149 43.1338 56.3853 44.0156 60.4296 52.8891L43.2031 53.3128L44.4149 43.1338Z" fill="#B98A83"/>
<path d="M44.3614 43.0411C40.5483 44.031 33.9508 45.9682 31.9455 46.7719L31.6094 45.8981L31.5646 45.7809L31.3398 41.6958C31.1471 41.2418 31.4721 38.7978 31.1921 38.4453H22.7978C22.4659 38.8605 22.5318 38.5395 21.4148 38.4453H19.9604C19.8274 42.3468 19.8297 49.1529 19.7278 49.9984C19.5149 51.7648 19.7422 53.249 20.1503 54.449C20.482 55.422 20.9295 56.209 21.3578 56.8088C22.4009 58.2752 24.3661 60.1158 27.8259 60.6767C27.9241 60.6913 28.0245 60.7068 28.1259 60.72C29.9574 60.9726 30.0212 61.1101 32.5281 60.5824C37.0108 59.6437 42.1307 57.2353 49.683 52.4274C46.973 45.8094 47.2299 48.3591 44.3614 43.0411Z" fill="#B98A83"/>
<path d="M31.2135 47.2563C31.1275 47.2563 31.0479 47.2006 31.0215 47.1141C30.9891 47.008 31.0488 46.8957 31.1549 46.8633L44.3022 42.8488C44.4081 42.8161 44.5206 42.876 44.5529 42.9822C44.5854 43.0882 44.5256 43.2006 44.4195 43.2329L31.2722 47.2475C31.2527 47.2535 31.233 47.2563 31.2135 47.2563Z" fill="#363649"/>
<path d="M31.6188 39.5368C32.1913 37.2652 30.9329 33.2848 31.9716 32.3622C31.9716 32.3622 31.3087 24.0435 31.231 24.0469C25.1903 24.3142 19.4196 32.2233 19.1777 37.7837C19.1536 38.3397 19.1358 38.9246 19.125 39.5368L31.6188 39.5368Z" fill="#FF954D"/>
<path d="M29.5565 61.0818C29.3042 61.0818 29.0626 61.0714 28.8311 61.0505C28.7071 61.0393 28.6157 60.9298 28.6269 60.8059C28.6381 60.682 28.7474 60.59 28.8715 60.6018C35.2436 61.1755 48.4732 53.0531 48.6061 52.971L48.6564 52.9399L59.098 52.5266C59.2215 52.5212 59.3271 52.6184 59.332 52.7427C59.3369 52.8671 59.2401 52.9718 59.1159 52.9767L48.7921 53.3854C48.3554 53.6521 45.1714 55.5784 41.3309 57.418C36.2503 59.8518 32.2954 61.0818 29.5565 61.0818Z" fill="#363649"/>
<path d="M57.1413 50.4421C57.0374 50.4421 56.9531 50.3578 56.9531 50.2539V37.4684C56.9531 37.3645 57.0374 37.2803 57.1413 37.2803C57.2452 37.2803 57.3294 37.3645 57.3294 37.4684V50.254C57.3293 50.3579 57.2452 50.4421 57.1413 50.4421Z" fill="#363649"/>
<path d="M34.0514 30.2763C34.0475 30.2763 34.0436 30.2762 34.0397 30.276C33.936 30.2696 33.8571 30.1805 33.8634 30.0767C34.0403 27.1838 32.6071 25.7193 31.7369 25.1037C30.8485 24.4753 30.0796 24.359 29.9364 24.4053C29.8648 24.4667 29.757 24.4658 29.6861 24.4001C29.6099 24.3294 29.6056 24.2104 29.6762 24.1342C29.8906 23.9034 30.544 24.069 31.0385 24.2808C31.8514 24.6291 34.4849 26.078 34.2389 30.0996C34.2329 30.1995 34.15 30.2763 34.0514 30.2763Z" fill="#363649"/>
</svg>
