<svg width="50" height="50" viewBox="0 0 50 50" fill="none" xmlns="http://www.w3.org/2000/svg">
<path d="M15.1607 24.8346C15.1961 23.6731 15.3559 22.5449 15.6276 21.4622C15.6572 21.3432 15.6883 21.2248 15.7208 21.1069C15.7213 21.1055 15.7216 21.1042 15.722 21.1029L17.7947 21.4517L19.8182 21.7921L22.6861 17.0685L20.1892 13.7577C21.4626 12.5738 22.931 11.599 24.5383 10.8856C24.73 10.8004 24.9238 10.7189 25.1195 10.6414C25.7653 10.3852 26.4317 10.1704 27.1154 10.0005C27.1161 10.0003 27.1168 10.0002 27.1175 10L27.1176 10.0005L27.1228 10.0146L28.5301 13.8999L31.8531 14.0044L34.0533 14.0736L34.2252 13.6787L35.3833 11.0174L35.7072 10.2727C35.7128 10.2743 35.7183 10.2762 35.7238 10.278C38.0065 11.0045 40.0586 12.2345 41.7539 13.8343L39.2392 17.1233L41.8794 21.5373L42.0757 21.8657L43.8307 21.5823L44.0254 21.5509L46.167 21.2051C46.168 21.2086 46.1688 21.2123 46.1698 21.2159C46.5606 22.6714 46.7479 24.2078 46.6999 25.7919C46.6655 26.9252 46.5121 28.0268 46.2527 29.0854L46.1737 29.0743L44.0929 28.7842L43.7176 28.7319L42.1473 28.5129L41.9833 28.801L39.4135 33.3153L42.0013 36.5532C40.782 37.7539 39.3694 38.7565 37.8163 39.5113C37.4414 39.6936 37.0582 39.8614 36.6675 40.014C36.6462 40.0224 36.6249 40.0306 36.6036 40.0389C36.1406 40.2176 35.667 40.3749 35.1844 40.5099L35.182 40.5041L34.912 39.8194L34.5766 38.969L34.0981 37.7552L33.661 36.6471L28.135 36.6288L28.132 36.6362L26.5892 40.4737L26.5852 40.4836C25.9157 40.2923 25.2651 40.0581 24.6361 39.7841C24.327 39.6498 24.0231 39.5056 23.7248 39.3522C22.2652 38.6019 20.9396 37.6311 19.7909 36.4853L22.4047 33.259L19.7027 28.4386L17.6268 28.7142L15.5828 28.9855C15.5826 28.9848 15.5824 28.9842 15.5823 28.9835C15.5596 28.8887 15.538 28.7936 15.5172 28.6982C15.2456 27.4569 15.1204 26.1624 15.1607 24.8346ZM30.6863 33.3499C32.833 33.415 34.8767 32.6404 36.4406 31.1685C38.0047 29.6967 38.9018 27.7038 38.9671 25.5572C39.0321 23.4105 38.2575 21.3668 36.7855 19.8029C35.3138 18.2388 33.321 17.3417 31.1743 17.2764C30.7142 17.2625 30.2587 17.2872 29.8118 17.349C28.1736 17.5754 26.6487 18.3016 25.4201 19.458C23.856 20.9298 22.9588 22.9225 22.8936 25.0692C22.8285 27.216 23.6031 29.2595 25.0749 30.8234C26.3464 32.1744 28.0064 33.0278 29.8185 33.2773C30.1043 33.3167 30.3939 33.341 30.6863 33.3499Z" fill="#007DF0"/>
<path d="M13.4906 21.1006H15.7209L16.1737 26.7686L15.5868 28.9822H13.3564L13.4906 21.1006Z" fill="#007DF0"/>
<path d="M24.8938 10H27.1241L26.9396 12.8676L23.6025 13.2197L24.8938 10Z" fill="#007DF0"/>
<path d="M35.7088 10.2695H33.4785L34.3002 14.0259L36.8827 11.0242L35.7088 10.2695Z" fill="#007DF0"/>
<path d="M46.1729 21.2041H43.9425L42.9531 24.5412H45.217L46.1729 21.2041Z" fill="#007DF0"/>
<path d="M46.1728 29.0854H44.0263L42.5674 27.4252L46.1728 26.7041V29.0854Z" fill="#007DF0"/>
<path d="M32.96 40.503H35.1903L36.6041 39.4698L36.9343 39.2285L36.6779 38.9258L34.6201 36.4951L34.0986 37.7542L33.5958 38.9679L32.96 40.503Z" fill="#007DF0"/>
<path d="M26.5873 40.5059H24.3569L22.7471 37.5713L26.7549 38.1414L26.5873 40.5059Z" fill="#007DF0"/>
<path d="M12.9312 24.8346C12.9705 23.5462 13.1628 22.2987 13.4908 21.1089C13.4913 21.1069 13.492 21.1049 13.4925 21.1029L15.6284 21.4622L15.7518 21.483L17.5888 21.7921L17.7955 21.4517L20.4567 17.0685L17.9597 13.7577C19.8873 11.9657 22.261 10.6527 24.888 10L24.891 10.0084L25.1204 10.6414L25.9642 12.971L26.3006 13.8999L31.8238 14.0736L31.854 14.0044L33.4778 10.2727C33.4789 10.273 33.4799 10.2733 33.4811 10.2738C34.1353 10.4813 34.7707 10.7303 35.3841 11.0174C35.7395 11.1837 36.0876 11.3628 36.4277 11.5542C37.5536 12.1879 38.593 12.9553 39.5245 13.8343L37.0097 17.1233L39.8463 21.8657L41.8803 21.5374L43.9375 21.2052C43.9385 21.2087 43.9394 21.2122 43.9404 21.2157C43.9702 21.3269 43.9989 21.4388 44.0262 21.5509C44.2628 22.5164 44.4103 23.5158 44.4594 24.5396C44.4793 24.9533 44.4832 25.3708 44.4705 25.7919C44.4576 26.2199 44.4275 26.6433 44.3812 27.0615C44.3167 27.6463 44.2203 28.2211 44.0938 28.7842C44.0717 28.8832 44.0485 28.9818 44.0245 29.0801C44.024 29.0819 44.0237 29.0836 44.0232 29.0854L41.9842 28.801L39.9179 28.5129L37.184 33.3154L39.7718 36.5532C38.8447 37.4661 37.8056 38.2649 36.6782 38.9269C36.5498 39.0024 36.4201 39.076 36.2895 39.1478C35.8431 39.3933 35.3838 39.6175 34.9129 39.8194C34.2866 40.0882 33.6398 40.3174 32.9755 40.5041C32.9687 40.5061 32.9618 40.5081 32.9549 40.5099L32.3472 38.969L31.4316 36.6471L28.1329 36.6362L25.9056 36.6288L25.377 37.9434L24.637 39.7841L24.3558 40.4836C24.3521 40.4826 24.3484 40.4814 24.3447 40.4804C21.7412 39.7345 19.42 38.3391 17.5615 36.4852L20.1753 33.259L17.6277 28.7141L17.4733 28.4386L15.6682 28.6782L15.5181 28.6982L13.3684 28.9834L13.3534 28.9855C13.0364 27.657 12.8878 26.2652 12.9312 24.8346ZM28.4568 33.3499C28.917 33.3638 29.3725 33.3392 29.8194 33.2773C31.4576 33.0509 32.9826 32.325 34.2111 31.1685C35.7752 29.6967 36.6723 27.7038 36.7376 25.5572C36.8026 23.4105 36.0281 21.3668 34.556 19.8029C33.2849 18.452 31.6248 17.5986 29.8126 17.349C29.5269 17.3096 29.2373 17.2853 28.9448 17.2764C26.7982 17.2114 24.7545 17.9861 23.1906 19.458C21.6265 20.9298 20.7293 22.9225 20.6641 25.0692C20.599 27.216 21.3736 29.2595 22.8454 30.8234C24.3175 32.3875 26.3102 33.2847 28.4568 33.3499Z" fill="#007DF0"/>
<path opacity="0.1" d="M32.3447 38.9697L32.9525 40.5107C32.9593 40.5088 32.9662 40.5068 32.9731 40.5048H35.1804L35.1828 40.5107C35.6654 40.3757 36.139 40.2184 36.602 40.0396V40.0148H36.6659C37.0566 39.8622 37.4398 39.6943 37.8147 39.512H36.602V39.2972C36.602 39.2152 36.5352 39.1485 36.4532 39.1485H36.1412V39.0789C36.1412 39.0187 36.0922 38.9697 36.032 38.9697L32.3447 38.9697Z" fill="black"/>
<path d="M35.8024 40.9112C35.8633 40.9112 35.9128 40.8617 35.9128 40.8009V40.7324H36.2246C36.3068 40.7324 36.3737 40.6656 36.3737 40.5834V40.3689H41.211L41.7799 40.5095L41.7971 40.5036H41.9118L41.9358 40.5095L42.6112 40.2768V39.9577L41.98 39.7402C41.9696 39.7298 41.9555 39.7238 41.9407 39.7238H41.8004C41.7947 39.7238 41.7891 39.7247 41.7837 39.7263L41.7799 39.725L41.2111 39.8656H36.3737V39.651C36.3737 39.5689 36.3068 39.502 36.2246 39.502H35.9128V39.4336C35.9128 39.3727 35.8633 39.3232 35.8024 39.3232H30.9194C30.757 39.3232 30.625 39.4553 30.625 39.6176V40.6169C30.625 40.7792 30.757 40.9113 30.9194 40.9113L35.8024 40.9112Z" fill="black"/>
<path opacity="0.1" d="M36.4114 39.9072H36.3398V40.3482H36.4114V39.9072Z" fill="black"/>
<path d="M41.9318 39.7695L42.5774 39.992V40.2666L41.9318 40.4891L41.3682 40.3498H36.3398V39.9088H41.3682L41.9318 39.7695Z" fill="#FBB5A5"/>
<path d="M36.2199 39.542H35.7656V40.71H36.2199C36.285 40.71 36.3377 40.6573 36.3377 40.5922V39.6598C36.3377 39.5947 36.285 39.542 36.2199 39.542Z" fill="#B93516"/>
<path opacity="0.1" d="M35.9484 39.542H35.7656V40.71H35.9484V39.542Z" fill="black"/>
<path d="M30.8086 39.6273V40.6268C30.8086 40.7721 30.9263 40.8899 31.0716 40.8899H35.799C35.8427 40.8899 35.8781 40.8545 35.8781 40.8107V39.4434C35.8781 39.3997 35.8427 39.3643 35.799 39.3643H31.0716C30.9264 39.3643 30.8086 39.482 30.8086 39.6273Z" fill="#B93516"/>
<g opacity="0.1">
<path d="M31.4502 40.5229V40.6583C31.4502 40.6779 31.4661 40.6939 31.4858 40.6939H35.1968C35.2165 40.6939 35.2324 40.6779 35.2324 40.6583V40.5229C35.2324 40.5033 35.2165 40.4873 35.1968 40.4873H31.4858C31.4661 40.4873 31.4502 40.5033 31.4502 40.5229Z" fill="black"/>
<path d="M31.4502 40.062V40.1973C31.4502 40.217 31.4661 40.233 31.4858 40.233H35.1968C35.2165 40.233 35.2324 40.217 35.2324 40.1973V40.062C35.2324 40.0423 35.2165 40.0264 35.1968 40.0264H31.4858C31.4661 40.0264 31.4502 40.0423 31.4502 40.062Z" fill="black"/>
<path d="M31.4502 39.6001V39.7354C31.4502 39.7551 31.4661 39.771 31.4858 39.771H35.1968C35.2165 39.771 35.2324 39.7551 35.2324 39.7354V39.6001C35.2324 39.5804 35.2165 39.5645 35.1968 39.5645H31.4858C31.4661 39.5645 31.4502 39.5804 31.4502 39.6001Z" fill="black"/>
</g>
<path d="M41.7981 39.7588H41.9384C41.9492 39.7588 41.9589 39.7659 41.9621 39.7763L42.1126 40.2578L41.9411 40.4762H41.7695L41.7702 39.7874C41.7698 39.7717 41.7824 39.7588 41.7981 39.7588Z" fill="#FBB5A5"/>
<path d="M41.7747 39.7695L42.4202 39.992V40.2666L41.7747 40.4891L41.2111 40.3498H36.2451V39.9088H41.2111L41.7747 39.7695Z" fill="#FEE9E4"/>
<path d="M36.0656 39.542H35.6113V40.71H36.0656C36.1307 40.71 36.1834 40.6573 36.1834 40.5922V39.6598C36.1834 39.5947 36.1307 39.542 36.0656 39.542Z" fill="#F6471E"/>
<path opacity="0.1" d="M35.7941 39.542H35.6113V40.71H35.7941V39.542Z" fill="black"/>
<path d="M30.6523 39.6273V40.6268C30.6523 40.7721 30.7701 40.8899 30.9154 40.8899H35.6427C35.6864 40.8899 35.7218 40.8545 35.7218 40.8107V39.4434C35.7218 39.3997 35.6864 39.3643 35.6427 39.3643H30.9154C30.7701 39.3643 30.6523 39.482 30.6523 39.6273Z" fill="#F6471E"/>
<g opacity="0.1">
<path d="M31.2939 40.5229V40.6583C31.2939 40.6779 31.3099 40.6939 31.3296 40.6939H35.0406C35.0602 40.6939 35.0762 40.6779 35.0762 40.6583V40.5229C35.0762 40.5033 35.0602 40.4873 35.0406 40.4873H31.3296C31.3099 40.4873 31.2939 40.5033 31.2939 40.5229Z" fill="black"/>
<path d="M31.2939 40.062V40.1973C31.2939 40.217 31.3099 40.233 31.3296 40.233H35.0406C35.0602 40.233 35.0762 40.217 35.0762 40.1973V40.062C35.0762 40.0423 35.0602 40.0264 35.0406 40.0264H31.3296C31.3099 40.0264 31.2939 40.0423 31.2939 40.062Z" fill="black"/>
<path d="M31.2939 39.6001V39.7354C31.2939 39.7551 31.3099 39.771 31.3296 39.771H35.0406C35.0602 39.771 35.0762 39.7551 35.0762 39.7354V39.6001C35.0762 39.5804 35.0602 39.5645 35.0406 39.5645H31.3296C31.3099 39.5645 31.2939 39.5804 31.2939 39.6001Z" fill="black"/>
</g>
<path opacity="0.1" d="M36.2939 39.9072H36.2471V40.3482H36.2939V39.9072Z" fill="black"/>
<path d="M14.1136 30.9071L14.1187 30.8658L16.4527 24.5721L16.5659 24.267L13.4927 23.1367L12.2544 28.5686L11.9413 30.2123C11.9074 30.3904 12.0268 30.5616 12.2056 30.5912L14.1136 30.9071Z" fill="#040C2B"/>
<path d="M14.8701 36.6856C14.8701 36.6856 15.4513 38.3807 15.3341 38.8215L16.8933 38.7864L15.8233 36.0312L14.8701 36.6856Z" fill="#DB965F"/>
<path d="M15.6238 39.9118C15.6238 39.9118 14.4658 40.4962 13.4707 40.4451C13.3224 40.4375 13.2027 40.3098 13.2012 40.1547C13.1993 39.9668 13.3079 39.7168 13.7917 39.5221C13.7917 39.5221 15.0091 38.6152 15.2789 38.0454C15.2789 38.0454 16.1457 38.2847 16.541 37.8672C16.541 37.8672 16.9519 38.0569 17.1235 38.5694C17.2483 38.9422 17.0603 39.3441 16.7068 39.4689C16.3358 39.5999 15.8459 39.7833 15.6238 39.9118Z" fill="#040C2B"/>
<path d="M14.0804 29.9512L16.1205 36.5591L15.8314 36.6722L14.6482 37.1347L11.9355 30.4073L14.0804 29.9512Z" fill="#040C2B"/>
<path opacity="0.15" d="M13.6787 30.4823L15.831 36.6722L16.1201 36.5591L14.2517 30.5073L16.4522 24.5735L15.5722 23.8643L14.9911 25.6266L13.6787 30.4823Z" fill="black"/>
<path d="M16.1891 37.2701C16.1891 37.2701 16.1958 39.062 15.9434 39.442L17.4315 39.9088L17.3018 36.9561L16.1891 37.2701Z" fill="#DB965F"/>
<path d="M15.8181 40.7622C15.8181 40.7622 14.5339 40.9443 13.6077 40.5766C13.4697 40.5219 13.3973 40.3626 13.4456 40.2151C13.5042 40.0366 13.6872 39.8347 14.2079 39.8054C14.2079 39.8054 15.6519 39.3369 16.0902 38.8838C16.0902 38.8838 16.8861 39.2986 17.3945 39.03C17.3945 39.03 17.671 39.4314 17.6691 39.9717C17.6678 40.3649 17.3608 40.6853 16.986 40.6901C16.5926 40.6952 16.0697 40.7118 15.8181 40.7622Z" fill="#040C2B"/>
<path d="M15.4422 31.9574L15.892 37.9353L17.5369 38.0195L17.9458 31.0828L18.5291 27.597C18.5864 27.3022 18.8364 26.6263 18.875 26.367C19.0181 25.4092 18.873 24.6275 18.8572 24.1237C18.8374 23.4906 18.7201 23.6593 18.7201 23.6593L16.0543 22.957L15.4855 28.7016C15.3783 29.7845 15.3638 30.8741 15.4422 31.9574Z" fill="#040C2B"/>
<path d="M7.09006 19.5777C7.09006 19.5777 7.17438 20.1742 8.46418 20.3835H8.46436C8.51047 20.3911 8.55809 20.3982 8.60723 20.4046L12.7432 21.7115C12.927 21.7694 13.1236 21.6757 13.2 21.4934L13.2713 21.3024L13.3057 21.2085V21.2083L13.6655 20.2225L14.0453 19.1817L13.4686 19.0954L13.4259 19.089L13.2744 19.0665L13.1453 19.0471L12.5718 18.9613L12.4928 19.2839L12.3 20.0727L12.2966 20.0866L12.2279 20.3674L9.26073 19.4591C9.26073 19.4591 9.11011 18.9997 8.63686 18.5303C8.531 18.5567 8.48371 18.6849 8.54598 18.7773L8.72824 19.0491C8.70838 19.0338 7.97496 18.47 7.48589 18.6511C7.48589 18.6511 7.05775 18.8423 7.02106 19.2285C7.0113 19.331 7.02915 19.4475 7.09006 19.5777Z" fill="#DB965F"/>
<path d="M17.3119 16.1145L17.3048 17.41L15.3799 17.7613L14.2617 17.1905L14.7454 16.563L15.0127 16.2163C15.0662 16.1467 15.089 16.0573 15.0753 15.9696L14.842 14.4823L16.7175 13.6406L16.5593 14.8225L16.5334 15.0166C16.4768 15.6461 17.3119 16.1145 17.3119 16.1145Z" fill="#C9885B"/>
<path opacity="0.1" d="M16.7162 13.6406L16.5393 14.98C15.8818 16.1621 15.0499 16.4389 14.7441 16.563L15.0115 16.2163C15.065 16.1467 15.0878 16.0573 15.0741 15.9696L14.8408 14.4823L16.7162 13.6406Z" fill="black"/>
<path d="M16.9865 13.7719L16.7671 14.3354C16.5275 14.6976 16.2902 14.9758 16.0705 15.1894C15.4464 15.7958 14.9625 15.8798 14.9625 15.8798C14.7551 15.9143 14.5863 15.7572 14.4503 15.5064C14.0669 14.7993 13.9434 13.3473 13.9434 13.3473L16.3355 13.0547L16.9865 13.7719Z" fill="#DB965F"/>
<path d="M16.9977 14.2131C16.8053 14.8919 16.5307 15.0694 16.5307 15.0694L16.5687 14.6296L16.7315 14.3588C16.9863 13.7148 16.5333 13.7879 16.5333 13.7879C16.1653 13.8904 16.1795 14.3588 16.1795 14.3588H16.0521C15.9672 14.2271 15.9389 13.7733 15.9389 13.7733C15.2913 13.0007 14.4974 13.5129 14.012 13.5706C13.8085 13.5948 13.6743 13.3712 13.6594 13.2221C13.5733 12.3609 14.5962 12.0517 14.5962 12.0517C14.5962 12.0517 15.8988 11.729 16.5965 12.4766C17.014 12.9239 17.1241 13.7674 16.9977 14.2131Z" fill="black"/>
<path d="M12.1592 20.0244L12.2994 20.0749L12.3384 20.0888L13.1528 20.381L13.3187 20.4406L13.5463 20.5222L13.5237 20.1117L13.468 19.0976L13.4677 19.0912L13.3524 16.9919C13.3524 16.9919 13.3197 16.9766 13.2617 16.9968C13.2548 16.9991 13.2475 17.002 13.24 17.0055C13.0676 17.085 12.7171 17.4683 12.3349 19.16C12.2768 19.4168 12.2181 19.7038 12.1592 20.0244Z" fill="white"/>
<path opacity="0.1" d="M14.0878 19.2561L13.3138 21.3333L13.1533 20.4287L13.1877 19.1242L13.2405 17.1224C13.3121 17.0901 13.353 17.109 13.353 17.109L13.4682 19.1653L14.0878 19.2561Z" fill="black"/>
<path d="M13.0186 24.4531L13.3974 24.4685L13.5766 24.4759L15.3881 24.5492L16.5869 24.5979L18.5242 24.6766L18.9368 24.6933L18.9331 24.4388L18.9301 24.2273L18.9223 23.6891L18.9205 23.5642L18.926 23.2847L18.9336 22.8996L18.9365 22.7485L18.944 22.3614L18.9625 21.4147L18.973 20.8786L18.9965 19.671C18.9967 19.6616 18.9965 19.6522 18.996 19.6426L18.991 19.545L18.9767 19.2621L18.9637 19.0088L18.9107 17.9669L18.8835 17.4305L18.8695 17.1537L17.457 16.1985L17.3907 16.1537L16.9934 15.8848C16.9934 15.8848 17.2761 16.4257 15.975 17.0505C15.8703 17.101 15.7572 17.1273 15.6448 17.1283C15.618 17.1288 15.5915 17.1276 15.5647 17.1253C15.4526 17.1147 15.3427 17.0793 15.2434 17.0181C15.03 16.8868 14.8592 16.6431 15.0307 16.1936L14.5857 16.3922L14.5366 16.4142L13.3139 16.9598C13.2946 16.9684 13.2774 16.9805 13.2629 16.9952C13.2294 17.029 13.2101 17.0766 13.2118 17.1271L13.2217 17.4306L13.2392 17.9669L13.2732 19.0089L13.275 19.0671L13.2909 19.545L13.3035 19.9328L13.32 20.439L13.3343 20.8757V20.8786C13.335 20.8946 13.3341 20.9107 13.3328 20.9267L13.3064 21.209V21.2091L13.287 21.4148L13.201 22.3372L13.1625 22.7485L13.1507 22.8752L13.1125 23.2847L13.0818 23.6645L13.0506 24.0546L13.0386 24.2026L13.0186 24.4531Z" fill="white"/>
<path opacity="0.1" d="M15.5881 17.1233L15.3859 24.5786L15.291 24.5784L15.5376 17.1064C15.5376 17.1064 15.5603 17.1237 15.5881 17.1233Z" fill="black"/>
<path opacity="0.1" d="M7.02051 19.2285L8.46363 20.3835H8.4638C8.50992 20.3911 8.55753 20.3982 8.60668 20.4046L12.7427 21.7115C12.9265 21.7694 13.123 21.6757 13.1994 21.4934L13.2708 21.3024L13.3051 21.2085L13.2858 21.4142L13.1998 22.3366L13.1612 22.7479L13.1494 22.8746L13.1112 23.2841L13.0806 23.6639L13.0493 24.054L13.3982 24.3332L13.5754 24.4753L15.4066 25.941L16.2801 26.64L18.307 28.2624L18.4066 28.1379L18.4775 26.827C18.5477 25.9606 18.5517 25.2484 18.5229 24.6761L18.9356 24.6927L18.9318 24.4383L18.4771 24.0742L16.548 22.5301L12.3468 19.0649C12.2888 19.3217 12.2181 19.7016 12.1592 20.0222L12.2994 20.0727L12.296 20.0867L12.2273 20.3674L9.26018 19.4591C9.26018 19.4591 9.10955 18.9997 8.63631 18.5303C8.53045 18.5567 8.48316 18.6849 8.54543 18.7773L8.72769 19.0491C8.70783 19.0338 7.97441 18.47 7.48534 18.6511C7.48534 18.6511 7.0572 18.8423 7.02051 19.2285Z" fill="black"/>
<path opacity="0.1" d="M15.3535 17.0743C15.3496 17.0819 15.2862 17.2594 15.0684 17.2073L14.9756 17.5846C14.9756 17.5846 14.3774 17.3099 14.4447 16.4685L14.5289 16.418C14.5007 16.7195 14.4616 17.1921 14.9509 17.4865L15.039 17.1045C15.039 17.1045 15.1772 17.2652 15.3535 17.0743Z" fill="black"/>
<path opacity="0.1" d="M17.5263 16.1924C17.3613 16.6003 16.9699 17.1441 16.0613 17.6729L15.9291 17.3644C15.9291 17.3644 15.7402 17.3598 15.7402 17.1242C15.8075 17.3093 15.8859 17.3067 15.9584 17.2762L16.0613 17.57C16.0613 17.57 17.2461 16.9575 17.4576 16.1475L17.5263 16.1924Z" fill="black"/>
<path opacity="0.1" d="M18.1966 21.3325L18.3644 22.1179L18.7316 23.8367L18.9876 25.035L18.9188 23.5671L18.9191 23.5474L18.995 19.6597L18.8413 19.1179L18.3144 17.2598C17.4393 17.933 17.76 20.2431 18.1966 21.3325Z" fill="black"/>
<path d="M6.51918 14.7587L8.4169 16.3416C9.22511 17.0157 9.44374 18.0855 8.90525 18.7312C8.36676 19.3768 7.27504 19.3536 6.46684 18.6795L4.56683 17.0947C4.43298 18.3079 5.01047 19.6941 6.19013 20.6941C7.05349 21.426 8.07258 21.8064 9.02034 21.8308C9.48647 21.8428 9.96969 22.0379 10.3649 22.3675L18.7471 29.3591C19.7277 30.177 21.0523 30.2051 21.7056 29.4218C22.359 28.6385 22.0937 27.3405 21.1131 26.5226L12.7514 19.5481C12.3519 19.2149 12.0732 18.7687 11.9792 18.3075C11.7912 17.3845 11.2436 16.4538 10.3811 15.7343C9.18616 14.7376 7.70078 14.4084 6.51918 14.7587ZM20.6561 28.5325C20.3812 28.8621 19.8515 28.8733 19.4729 28.5575C19.0943 28.2418 19.0103 27.7186 19.2852 27.3891C19.5601 27.0595 20.0898 27.0483 20.4684 27.3641C20.8469 27.6798 20.931 28.2029 20.6561 28.5325Z" fill="#829CF8"/>
<path d="M18.1072 27.4768L17.8976 27.728C17.882 27.7467 17.8543 27.7492 17.8357 27.7336L10.8042 21.8687C10.791 21.8576 10.7892 21.838 10.8002 21.8248L11.018 21.5637C11.0335 21.545 11.0613 21.5425 11.0799 21.5581L18.1016 27.4148C18.1202 27.4304 18.1227 27.4581 18.1072 27.4768Z" fill="#6275BA"/>
<path d="M19.3669 25.9641L19.1574 26.2153C19.1418 26.234 19.1141 26.2365 19.0954 26.2209L12.0639 20.356C12.0507 20.3449 12.0489 20.3253 12.06 20.3121L12.2777 20.051C12.2933 20.0323 12.321 20.0298 12.3397 20.0454L19.3613 25.9021C19.38 25.9177 19.3825 25.9454 19.3669 25.9641Z" fill="#6275BA"/>
<path opacity="0.1" d="M15.4165 26.2495V26.252L15.4169 26.2545C15.4431 26.5137 15.6239 27.0038 16.1192 27.0038C16.158 27.0038 16.1986 27.0007 16.2398 26.9947C16.2467 26.9952 16.2556 26.9957 16.2664 26.9957C16.4271 26.9957 16.9928 26.9016 17.5279 25.6938L18.7324 23.836L18.3652 22.1172L16.7282 24.6485C16.5939 24.6604 16.1804 24.719 15.6907 24.9999L15.6515 25.0224L15.6484 25.0676C15.6441 25.1367 15.6673 25.2022 15.7141 25.252C15.7588 25.3 15.8216 25.3274 15.8861 25.3274C15.8893 25.3274 15.8925 25.3274 15.8957 25.3272C15.6712 25.5541 15.4027 25.9008 15.4165 26.2495Z" fill="black"/>
<path d="M19.4957 18.8906L18.1481 19.5516L18.8265 21.5611L16.7777 24.7291C16.7777 24.7291 16.3088 24.7428 15.7343 25.0723C15.727 25.1848 15.8313 25.2692 15.9353 25.235L16.2409 25.1344C16.2409 25.1344 15.4809 25.7014 15.5024 26.2455C15.5024 26.2455 15.5804 27.0133 16.2395 26.9093C16.2395 26.9093 16.8572 27.0079 17.4555 25.6531L19.8345 21.9837C19.9507 21.8045 19.9939 21.5856 19.9548 21.3743L19.4957 18.8906Z" fill="#DB965F"/>
<path d="M18.588 17.0088C18.588 17.0088 19.4549 16.9859 19.7663 20.0599L18.266 20.6308C18.266 20.6308 17.1125 17.2074 18.588 17.0088Z" fill="white"/>
<path d="M16.5984 13.9948C16.5984 13.9948 16.5311 11.7902 14.5957 12.0426C14.5957 12.0426 16.1945 12.0763 16.2955 14.0453L16.5984 13.9948Z" fill="white"/>
<path d="M14.7142 15.4275C15.2546 15.4009 15.6635 15.1231 15.9114 14.8948C16.1792 14.648 16.3179 14.4109 16.3237 14.4009L16.2654 14.3672C16.26 14.3766 15.7067 15.3113 14.7109 15.3602L14.7142 15.4275Z" fill="white"/>
<path opacity="0.1" d="M15.791 14.2203C15.791 14.5591 16.0665 14.8346 16.4053 14.8346C16.7441 14.8346 17.0196 14.5591 17.0196 14.2203C17.0196 13.9323 16.8205 13.6902 16.5527 13.624C16.5941 13.8423 16.5988 13.9931 16.5988 13.9931L16.2959 14.0436C16.2882 13.8935 16.2718 13.7548 16.2481 13.6264C15.9852 13.696 15.791 13.9359 15.791 14.2203Z" fill="black"/>
<path opacity="0.1" d="M16.2471 13.6297C16.2708 13.7581 16.2871 13.8968 16.2949 14.0469L16.5978 13.9965C16.5978 13.9965 16.5931 13.8457 16.5517 13.6274C16.5044 13.6156 16.4551 13.6094 16.4043 13.6094C16.3499 13.6094 16.2972 13.6164 16.2471 13.6297Z" fill="black"/>
<path d="M16.491 14.7458C16.78 14.6989 16.9762 14.4266 16.9293 14.1376C16.8824 13.8486 16.6101 13.6524 16.3211 13.6993C16.0321 13.7462 15.8359 14.0185 15.8828 14.3075C15.9297 14.5965 16.202 14.7927 16.491 14.7458Z" fill="white"/>
<path opacity="0.1" d="M16.4043 14.6172C16.6227 14.6172 16.7998 14.4401 16.7998 14.2217C16.7998 14.0032 16.6227 13.8262 16.4043 13.8262C16.1859 13.8262 16.0088 14.0032 16.0088 14.2217C16.0088 14.4401 16.1859 14.6172 16.4043 14.6172Z" fill="black"/>
<path d="M16.4048 14.586C16.6046 14.586 16.7666 14.424 16.7666 14.2241C16.7666 14.0243 16.6046 13.8623 16.4048 13.8623C16.205 13.8623 16.043 14.0243 16.043 14.2241C16.043 14.424 16.205 14.586 16.4048 14.586Z" fill="#E3E9F7"/>
<path d="M14.5389 15.4681H14.728C14.771 15.4681 14.8059 15.4332 14.8059 15.3902V15.3777C14.8059 15.3347 14.771 15.2998 14.728 15.2998H14.5389C14.4958 15.2998 14.4609 15.3347 14.4609 15.3777V15.3902C14.4609 15.4332 14.4958 15.4681 14.5389 15.4681Z" fill="#E3E9F7"/>
</svg>
