<svg width="24" height="25" viewBox="0 0 24 25" fill="none" xmlns="http://www.w3.org/2000/svg">
<path d="M3.5 5.5C3.5 4.83696 3.76339 4.20107 4.23223 3.73223C4.70107 3.26339 5.33696 3 6 3H16C16.663 3 17.2989 3.26339 17.7678 3.73223C18.2366 4.20107 18.5 4.83696 18.5 5.5V11C18.5 11.1326 18.4473 11.2598 18.3536 11.3536C18.2598 11.4473 18.1326 11.5 18 11.5C17.8674 11.5 17.7402 11.4473 17.6464 11.3536C17.5527 11.2598 17.5 11.1326 17.5 11V5.5C17.5 5.10218 17.342 4.72064 17.0607 4.43934C16.7794 4.15804 16.3978 4 16 4H6C5.60218 4 5.22064 4.15804 4.93934 4.43934C4.65804 4.72064 4.5 5.10218 4.5 5.5V19.882C4.5 19.9673 4.52181 20.0511 4.56335 20.1256C4.60489 20.2 4.66478 20.2626 4.73733 20.3074C4.80988 20.3522 4.89268 20.3777 4.97786 20.3815C5.06304 20.3853 5.14777 20.3672 5.224 20.329L6.224 19.829C6.47309 19.7046 6.75188 19.6521 7.02916 19.6771C7.30644 19.7022 7.57127 19.804 7.794 19.971L8.7 20.65C8.78655 20.7149 8.89181 20.75 9 20.75C9.10819 20.75 9.21345 20.7149 9.3 20.65L10.162 20.003C10.4006 19.8241 10.6871 19.7203 10.9849 19.705C11.2827 19.6897 11.5783 19.7635 11.834 19.917L12.507 20.321C12.6208 20.3892 12.7028 20.4997 12.7351 20.6284C12.7673 20.757 12.7472 20.8932 12.679 21.007C12.6108 21.1208 12.5003 21.2028 12.3716 21.2351C12.243 21.2673 12.1068 21.2472 11.993 21.179L11.319 20.775C11.2339 20.7238 11.1354 20.6991 11.0362 20.7041C10.937 20.7091 10.8416 20.7435 10.762 20.803L9.9 21.45C9.64036 21.6447 9.32456 21.75 9 21.75C8.67544 21.75 8.35964 21.6447 8.1 21.45L7.194 20.77C7.11966 20.7146 7.03138 20.681 6.93902 20.6728C6.84667 20.6647 6.75387 20.6824 6.671 20.724L5.671 21.224C5.44227 21.3384 5.1881 21.3924 4.93262 21.3809C4.67713 21.3694 4.42883 21.2928 4.2113 21.1584C3.99376 21.0239 3.81422 20.836 3.68973 20.6126C3.56523 20.3893 3.49992 20.1377 3.5 19.882V5.5Z" fill="#FF002D"/>
<path d="M6.5 7.5C6.5 7.36739 6.55268 7.24021 6.64645 7.14645C6.74021 7.05268 6.86739 7 7 7H13.5C13.6326 7 13.7598 7.05268 13.8536 7.14645C13.9473 7.24021 14 7.36739 14 7.5C14 7.63261 13.9473 7.75979 13.8536 7.85355C13.7598 7.94732 13.6326 8 13.5 8H7C6.86739 8 6.74021 7.94732 6.64645 7.85355C6.55268 7.75979 6.5 7.63261 6.5 7.5ZM6.5 10.5C6.5 10.3674 6.55268 10.2402 6.64645 10.1464C6.74021 10.0527 6.86739 10 7 10H15C15.1326 10 15.2598 10.0527 15.3536 10.1464C15.4473 10.2402 15.5 10.3674 15.5 10.5C15.5 10.6326 15.4473 10.7598 15.3536 10.8536C15.2598 10.9473 15.1326 11 15 11H7C6.86739 11 6.74021 10.9473 6.64645 10.8536C6.55268 10.7598 6.5 10.6326 6.5 10.5ZM6.5 13.5C6.5 13.3674 6.55268 13.2402 6.64645 13.1464C6.74021 13.0527 6.86739 13 7 13H10.5C10.6326 13 10.7598 13.0527 10.8536 13.1464C10.9473 13.2402 11 13.3674 11 13.5C11 13.6326 10.9473 13.7598 10.8536 13.8536C10.7598 13.9473 10.6326 14 10.5 14H7C6.86739 14 6.74021 13.9473 6.64645 13.8536C6.55268 13.7598 6.5 13.6326 6.5 13.5ZM6.5 16.5C6.5 16.3674 6.55268 16.2402 6.64645 16.1464C6.74021 16.0527 6.86739 16 7 16H10.5C10.6326 16 10.7598 16.0527 10.8536 16.1464C10.9473 16.2402 11 16.3674 11 16.5C11 16.6326 10.9473 16.7598 10.8536 16.8536C10.7598 16.9473 10.6326 17 10.5 17H7C6.86739 17 6.74021 16.9473 6.64645 16.8536C6.55268 16.7598 6.5 16.6326 6.5 16.5ZM17.5 15C16.7044 15 15.9413 15.3161 15.3787 15.8787C14.8161 16.4413 14.5 17.2044 14.5 18C14.5 18.7956 14.8161 19.5587 15.3787 20.1213C15.9413 20.6839 16.7044 21 17.5 21C18.2956 21 19.0587 20.6839 19.6213 20.1213C20.1839 19.5587 20.5 18.7956 20.5 18C20.5 17.2044 20.1839 16.4413 19.6213 15.8787C19.0587 15.3161 18.2956 15 17.5 15ZM13.5 18C13.5 16.9391 13.9214 15.9217 14.6716 15.1716C15.4217 14.4214 16.4391 14 17.5 14C18.5609 14 19.5783 14.4214 20.3284 15.1716C21.0786 15.9217 21.5 16.9391 21.5 18C21.5 19.0609 21.0786 20.0783 20.3284 20.8284C19.5783 21.5786 18.5609 22 17.5 22C16.4391 22 15.4217 21.5786 14.6716 20.8284C13.9214 20.0783 13.5 19.0609 13.5 18ZM19.166 16.771C19.2126 16.8174 19.2495 16.8726 19.2747 16.9334C19.2999 16.9941 19.3129 17.0592 19.3129 17.125C19.3129 17.1908 19.2999 17.2559 19.2747 17.3166C19.2495 17.3774 19.2126 17.4326 19.166 17.479L17.062 19.582L15.834 18.354C15.7875 18.3076 15.7506 18.2525 15.7254 18.1918C15.7003 18.1311 15.6873 18.0661 15.6872 18.0004C15.6872 17.9347 15.7001 17.8696 15.7252 17.8089C15.7503 17.7482 15.7871 17.693 15.8335 17.6465C15.9273 17.5526 16.0545 17.4998 16.1871 17.4997C16.2528 17.4997 16.3179 17.5126 16.3786 17.5377C16.4393 17.5628 16.4945 17.5996 16.541 17.646L17.062 18.168L18.459 16.771C18.5528 16.6773 18.6799 16.6246 18.8125 16.6246C18.9451 16.6246 19.0722 16.6773 19.166 16.771Z" fill="#FF002D"/>
</svg>
