<svg width="229" height="208" viewBox="0 0 229 208" fill="none" xmlns="http://www.w3.org/2000/svg">
<g clip-path="url(#clip0_73_645)">
<path d="M54.7102 149.619C53.9486 151.069 53.2584 152.543 52.6635 154.04H21.3779C18.8227 154.04 16.8575 151.902 16.8575 149.547C16.8043 135.28 17.5626 38.1291 17.6425 37.8896C18.8797 59.9455 22.8525 122.976 24.1616 143.273C24.3757 146.838 27.35 149.619 30.9426 149.619H54.7107H54.7102Z" fill="#007DF0"/>
<path d="M217.97 149.619C217.922 152.067 215.924 154.04 213.473 154.04H53.9486C54.5674 152.542 55.2571 151.069 56.0187 149.619H217.97Z" fill="#007DF0"/>
<path d="M52.0453 97.8066C51.9739 94.812 52.426 92.1025 53.4251 89.7494C56.5933 81.9864 65.4082 79.5408 63.1086 86.2318C61.3869 91.4215 57.1983 95.9446 52.0453 97.8066Z" fill="#C3D7F9"/>
<path d="M221.609 150.213C63.262 149.93 72.1451 150.785 72.1451 149.619C72.1451 148.453 63.262 149.308 221.609 149.025C225.189 149.025 228.034 146 227.798 142.41L220.588 36.5511C220.372 33.3043 217.654 30.7602 214.401 30.7602H24.422C20.8464 30.7602 17.8987 33.7613 18.2257 37.5678C18.5564 45.3276 23.6343 125.856 24.7543 143.236C24.9492 146.483 27.6679 149.025 30.9416 149.025H41.009C41.7951 149.025 41.7962 150.213 41.009 150.213H30.9416C27.0384 150.213 23.7994 147.18 23.5672 143.308C22.3919 125.079 17.0242 39.833 17.0242 37.3198C16.7936 33.1702 20.1264 29.5723 24.422 29.5723H214.401C218.279 29.5723 221.518 32.6036 221.774 36.4724L228.983 142.331C229.267 146.594 225.892 150.213 221.609 150.213H221.609Z" fill="#007DF0"/>
<path d="M180.893 35.0029C180.893 36.9224 179.334 38.4801 177.412 38.4801C175.491 38.4801 173.904 36.9224 173.904 35.0029C173.904 33.0834 175.463 31.498 177.412 31.498C179.361 31.498 180.893 33.0558 180.893 35.0029Z" fill="#007DF0"/>
<path d="M57.3021 109.602C57.1562 110.084 57.0358 110.572 56.9938 111.069C57.8592 110.768 59.1608 109.987 60.3308 109.562L57.3021 109.602Z" fill="#C3D7F9"/>
<path d="M63.3947 109.521C64.5711 110.006 65.363 111.005 66.1304 112.019C68.0753 114.682 68.4657 114.361 71.35 114.854L70.8675 109.421L63.3947 109.52V109.521Z" fill="#C3D7F9"/>
<path d="M69.1318 76.4277L71.9549 108.219L110.26 107.709L107.592 76.9448L69.1318 76.4277Z" fill="#C3D7F9"/>
<path d="M75.6466 124.901C75.0044 125.02 74.2907 125.638 73.5766 126.47L74.0287 131.604C74.0527 131.939 73.8083 132.245 73.4339 132.245C73.125 132.245 72.8869 132.032 72.839 131.722L72.5061 128.015C72.054 128.752 71.6493 129.513 71.3878 130.178C71.3404 130.273 71.3638 130.487 71.5305 130.677C73.0297 132.507 74.7424 133.862 76.765 134.86C76.9786 134.979 77.1932 134.955 77.2885 134.86C78.1449 133.957 79.9529 130.82 80.3337 129.655C81.1634 127.011 79.0891 124.373 75.6466 124.902V124.901ZM75.6466 124.901C75.0044 125.02 74.2907 125.638 73.5766 126.47L74.0287 131.604C74.0527 131.939 73.8083 132.245 73.4339 132.245C73.125 132.245 72.8869 132.032 72.839 131.722L72.5061 128.015C72.054 128.752 71.6493 129.513 71.3878 130.178C71.3404 130.273 71.3638 130.487 71.5305 130.677C73.0297 132.507 74.7424 133.862 76.765 134.86C76.9786 134.979 77.1932 134.955 77.2885 134.86C78.1449 133.957 79.9529 130.82 80.3337 129.655C81.1634 127.011 79.0891 124.373 75.6466 124.902V124.901ZM53.9247 114.586C52.7589 115.132 51.8072 118.056 51.5692 119.958C51.5692 120.029 51.6166 120.172 51.7598 120.267C54.1963 122.015 57.3224 122.89 57.4933 122.549C58.0168 121.598 58.8258 118.532 58.8732 117.463C59.0255 115.132 56.7126 113.32 53.9241 114.587L53.9247 114.586ZM75.6466 124.901C75.0044 125.02 74.2907 125.638 73.5766 126.47L74.0287 131.604C74.0527 131.939 73.8083 132.245 73.4339 132.245C73.125 132.245 72.8869 132.032 72.839 131.722L72.5061 128.015C72.054 128.752 71.6493 129.513 71.3878 130.178C71.3404 130.273 71.3638 130.487 71.5305 130.677C73.0297 132.507 74.7424 133.862 76.765 134.86C76.9786 134.979 77.1932 134.955 77.2885 134.86C78.1449 133.957 79.9529 130.82 80.3337 129.655C81.1634 127.011 79.0891 124.373 75.6466 124.902V124.901ZM75.6466 124.901C75.0044 125.02 74.2907 125.638 73.5766 126.47L74.0287 131.604C74.0527 131.939 73.8083 132.245 73.4339 132.245C73.125 132.245 72.8869 132.032 72.839 131.722L72.5061 128.015C72.054 128.752 71.6493 129.513 71.3878 130.178C71.3404 130.273 71.3638 130.487 71.5305 130.677C73.0297 132.507 74.7424 133.862 76.765 134.86C76.9786 134.979 77.1932 134.955 77.2885 134.86C78.1449 133.957 79.9529 130.82 80.3337 129.655C81.1634 127.011 79.0891 124.373 75.6466 124.902V124.901ZM53.9247 114.586C52.7589 115.132 51.8072 118.056 51.5692 119.958C51.5692 120.029 51.6166 120.172 51.7598 120.267C54.1963 122.015 57.3224 122.89 57.4933 122.549C58.0168 121.598 58.8258 118.532 58.8732 117.463C59.0255 115.132 56.7126 113.32 53.9241 114.587L53.9247 114.586ZM53.9247 114.586C52.7589 115.132 51.8072 118.056 51.5692 119.958C51.5692 120.029 51.6166 120.172 51.7598 120.267C54.1963 122.015 57.3224 122.89 57.4933 122.549C58.0168 121.598 58.8258 118.532 58.8732 117.463C59.0255 115.132 56.7126 113.32 53.9241 114.587L53.9247 114.586ZM75.6466 124.901C75.0044 125.02 74.2907 125.638 73.5766 126.47L74.0287 131.604C74.0527 131.939 73.8083 132.245 73.4339 132.245C73.125 132.245 72.8869 132.032 72.839 131.722L72.5061 128.015C72.054 128.752 71.6493 129.513 71.3878 130.178C71.3404 130.273 71.3638 130.487 71.5305 130.677C73.0297 132.507 74.7424 133.862 76.765 134.86C76.9786 134.979 77.1932 134.955 77.2885 134.86C78.1449 133.957 79.9529 130.82 80.3337 129.655C81.1634 127.011 79.0891 124.373 75.6466 124.902V124.901ZM75.6466 124.901C75.0044 125.02 74.2907 125.638 73.5766 126.47L74.0287 131.604C74.0527 131.939 73.8083 132.245 73.4339 132.245C73.125 132.245 72.8869 132.032 72.839 131.722L72.5061 128.015C72.054 128.752 71.6493 129.513 71.3878 130.178C71.3404 130.273 71.3638 130.487 71.5305 130.677C73.0297 132.507 74.7424 133.862 76.765 134.86C76.9786 134.979 77.1932 134.955 77.2885 134.86C78.1449 133.957 79.9529 130.82 80.3337 129.655C81.1634 127.011 79.0891 124.373 75.6466 124.902V124.901ZM53.9247 114.586C52.7589 115.132 51.8072 118.056 51.5692 119.958C51.5692 120.029 51.6166 120.172 51.7598 120.267C54.1963 122.015 57.3224 122.89 57.4933 122.549C58.0168 121.598 58.8258 118.532 58.8732 117.463C59.0255 115.132 56.7126 113.32 53.9241 114.587L53.9247 114.586ZM53.9247 114.586C52.7589 115.132 51.8072 118.056 51.5692 119.958C51.5692 120.029 51.6166 120.172 51.7598 120.267C54.1963 122.015 57.3224 122.89 57.4933 122.549C58.0168 121.598 58.8258 118.532 58.8732 117.463C59.0255 115.132 56.7126 113.32 53.9241 114.587L53.9247 114.586ZM75.6466 124.901C75.0044 125.02 74.2907 125.638 73.5766 126.47L74.0287 131.604C74.0527 131.939 73.8083 132.245 73.4339 132.245C73.125 132.245 72.8869 132.032 72.839 131.722L72.5061 128.015C72.054 128.752 71.6493 129.513 71.3878 130.178C71.3404 130.273 71.3638 130.487 71.5305 130.677C73.0297 132.507 74.7424 133.862 76.765 134.86C76.9786 134.979 77.1932 134.955 77.2885 134.86C78.1449 133.957 79.9529 130.82 80.3337 129.655C81.1634 127.011 79.0891 124.373 75.6466 124.902V124.901ZM75.6466 124.901C75.0044 125.02 74.2907 125.638 73.5766 126.47L74.0287 131.604C74.0527 131.939 73.8083 132.245 73.4339 132.245C73.125 132.245 72.8869 132.032 72.839 131.722L72.5061 128.015C72.054 128.752 71.6493 129.513 71.3878 130.178C71.3404 130.273 71.3638 130.487 71.5305 130.677C73.0297 132.507 74.7424 133.862 76.765 134.86C76.9786 134.979 77.1932 134.955 77.2885 134.86C78.1449 133.957 79.9529 130.82 80.3337 129.655C81.1634 127.011 79.0891 124.373 75.6466 124.902V124.901ZM53.9247 114.586C52.7589 115.132 51.8072 118.056 51.5692 119.958C51.5692 120.029 51.6166 120.172 51.7598 120.267C54.1963 122.015 57.3224 122.89 57.4933 122.549C58.0168 121.598 58.8258 118.532 58.8732 117.463C59.0255 115.132 56.7126 113.32 53.9241 114.587L53.9247 114.586ZM53.9247 114.586C52.7589 115.132 51.8072 118.056 51.5692 119.958C51.5692 120.029 51.6166 120.172 51.7598 120.267C54.1963 122.015 57.3224 122.89 57.4933 122.549C58.0168 121.598 58.8258 118.532 58.8732 117.463C59.0255 115.132 56.7126 113.32 53.9241 114.587L53.9247 114.586ZM75.6466 124.901C75.0044 125.02 74.2907 125.638 73.5766 126.47L74.0287 131.604C74.0527 131.939 73.8083 132.245 73.4339 132.245C73.125 132.245 72.8869 132.032 72.839 131.722L72.5061 128.015C72.054 128.752 71.6493 129.513 71.3878 130.178C71.3404 130.273 71.3638 130.487 71.5305 130.677C73.0297 132.507 74.7424 133.862 76.765 134.86C76.9786 134.979 77.1932 134.955 77.2885 134.86C78.1449 133.957 79.9529 130.82 80.3337 129.655C81.1634 127.011 79.0891 124.373 75.6466 124.902V124.901ZM75.6466 124.901C75.0044 125.02 74.2907 125.638 73.5766 126.47L74.0287 131.604C74.0527 131.939 73.8083 132.245 73.4339 132.245C73.125 132.245 72.8869 132.032 72.839 131.722L72.5061 128.015C72.054 128.752 71.6493 129.513 71.3878 130.178C71.3404 130.273 71.3638 130.487 71.5305 130.677C73.0297 132.507 74.7424 133.862 76.765 134.86C76.9786 134.979 77.1932 134.955 77.2885 134.86C78.1449 133.957 79.9529 130.82 80.3337 129.655C81.1634 127.011 79.0891 124.373 75.6466 124.902V124.901ZM53.9247 114.586C52.7589 115.132 51.8072 118.056 51.5692 119.958C51.5692 120.029 51.6166 120.172 51.7598 120.267C54.1963 122.015 57.3224 122.89 57.4933 122.549C58.0168 121.598 58.8258 118.532 58.8732 117.463C59.0255 115.132 56.7126 113.32 53.9241 114.587L53.9247 114.586ZM53.9247 114.586C52.7589 115.132 51.8072 118.056 51.5692 119.958C51.5692 120.029 51.6166 120.172 51.7598 120.267C54.1963 122.015 57.3224 122.89 57.4933 122.549C58.0168 121.598 58.8258 118.532 58.8732 117.463C59.0255 115.132 56.7126 113.32 53.9241 114.587L53.9247 114.586ZM75.6466 124.901C75.0044 125.02 74.2907 125.638 73.5766 126.47L74.0287 131.604C74.0527 131.939 73.8083 132.245 73.4339 132.245C73.125 132.245 72.8869 132.032 72.839 131.722L72.5061 128.015C72.054 128.752 71.6493 129.513 71.3878 130.178C71.3404 130.273 71.3638 130.487 71.5305 130.677C73.0297 132.507 74.7424 133.862 76.765 134.86C76.9786 134.979 77.1932 134.955 77.2885 134.86C78.1449 133.957 79.9529 130.82 80.3337 129.655C81.1634 127.011 79.0891 124.373 75.6466 124.902V124.901ZM75.6466 124.901C75.0044 125.02 74.2907 125.638 73.5766 126.47L74.0287 131.604C74.0527 131.939 73.8083 132.245 73.4339 132.245C73.125 132.245 72.8869 132.032 72.839 131.722L72.5061 128.015C72.054 128.752 71.6493 129.513 71.3878 130.178C71.3404 130.273 71.3638 130.487 71.5305 130.677C73.0297 132.507 74.7424 133.862 76.765 134.86C76.9786 134.979 77.1932 134.955 77.2885 134.86C78.1449 133.957 79.9529 130.82 80.3337 129.655C81.1634 127.011 79.0891 124.373 75.6466 124.902V124.901ZM53.9247 114.586C52.7589 115.132 51.8072 118.056 51.5692 119.958C51.5692 120.029 51.6166 120.172 51.7598 120.267C54.1963 122.015 57.3224 122.89 57.4933 122.549C58.0168 121.598 58.8258 118.532 58.8732 117.463C59.0255 115.132 56.7126 113.32 53.9241 114.587L53.9247 114.586ZM53.9247 114.586C52.7589 115.132 51.8072 118.056 51.5692 119.958C51.5692 120.029 51.6166 120.172 51.7598 120.267C54.1963 122.015 57.3224 122.89 57.4933 122.549C58.0168 121.598 58.8258 118.532 58.8732 117.463C59.0255 115.132 56.7126 113.32 53.9241 114.587L53.9247 114.586ZM75.6466 124.901C75.0044 125.02 74.2907 125.638 73.5766 126.47L74.0287 131.604C74.0527 131.939 73.8083 132.245 73.4339 132.245C73.125 132.245 72.8869 132.032 72.839 131.722L72.5061 128.015C72.054 128.752 71.6493 129.513 71.3878 130.178C71.3404 130.273 71.3638 130.487 71.5305 130.677C73.0297 132.507 74.7424 133.862 76.765 134.86C76.9786 134.979 77.1932 134.955 77.2885 134.86C78.1449 133.957 79.9529 130.82 80.3337 129.655C81.1634 127.011 79.0891 124.373 75.6466 124.902V124.901ZM75.6466 124.901C75.0044 125.02 74.2907 125.638 73.5766 126.47L74.0287 131.604C74.0527 131.939 73.8083 132.245 73.4339 132.245C73.125 132.245 72.8869 132.032 72.839 131.722L72.5061 128.015C72.054 128.752 71.6493 129.513 71.3878 130.178C71.3404 130.273 71.3638 130.487 71.5305 130.677C73.0297 132.507 74.7424 133.862 76.765 134.86C76.9786 134.979 77.1932 134.955 77.2885 134.86C78.1449 133.957 79.9529 130.82 80.3337 129.655C81.1634 127.011 79.0891 124.373 75.6466 124.902V124.901ZM53.9247 114.586C52.7589 115.132 51.8072 118.056 51.5692 119.958C51.5692 120.029 51.6166 120.172 51.7598 120.267C54.1963 122.015 57.3224 122.89 57.4933 122.549C58.0168 121.598 58.8258 118.532 58.8732 117.463C59.0255 115.132 56.7126 113.32 53.9241 114.587L53.9247 114.586ZM210.832 46.0894C210.642 43.2847 208.334 41.1221 205.527 41.1221H34.4868C31.4177 41.1221 28.9669 43.689 29.1575 46.7549C30.7477 73.4281 34.105 126.808 34.5348 133.671C34.7009 136.476 37.033 138.662 39.8641 138.662H211.427C214.52 138.662 216.947 136.048 216.756 132.982L210.832 46.0894H210.832ZM119.971 47.3013C123.67 47.3013 126.543 50.6779 125.8 54.3839C125.277 57.1173 122.85 59.1613 119.971 59.1613C116.679 59.1613 114.047 56.4949 114.047 53.2433C114.047 49.9917 116.712 47.3013 119.971 47.3013ZM58.5409 123.118C58.3034 123.57 57.8033 123.831 57.2563 123.831C56.5603 123.831 53.6919 123.111 51.0707 121.24C50.6425 120.931 50.3805 120.456 50.3805 119.957V119.791C50.5711 118.364 51.4749 114.419 53.4257 113.492C57.0023 111.891 60.277 114.317 60.0635 117.509C59.9921 118.769 59.1592 121.977 58.5403 123.118L58.5409 123.118ZM209.762 107.575L184.852 107.908L184.923 109.524C187.73 109.358 190.562 109.358 193.37 109.524C193.703 109.524 193.965 109.809 193.941 110.142C193.86 111.263 192.702 110.248 184.995 110.713L185.447 119.554C185.471 119.886 185.205 120.196 184.852 120.196C184.543 120.196 184.281 119.934 184.257 119.625L183.805 110.76C175.379 111.371 174.527 112.604 174.336 111.449C174.265 111.116 174.479 110.807 174.788 110.736C177.739 110.166 180.736 109.785 183.734 109.571L183.639 107.931L152.995 108.335L155.065 135.097C155.124 135.866 153.935 135.971 153.875 135.192L151.805 108.336L111.549 108.882L113.143 127.23C113.198 128.007 112.077 128.126 111.953 127.325L110.359 108.906L101.628 109.024L72.0551 109.405L72.5786 115.132C75.7239 116.165 77.2773 119.573 79.8347 120.67C80.5462 121.025 80.0062 122.087 79.3112 121.739C78.0187 121.146 76.8129 119.993 75.8373 118.959C73.5036 116.627 73.3503 116.898 72.6968 116.463C72.7234 116.764 73.1271 121.343 73.1015 121.05L73.4344 124.9C74.0532 124.306 74.7429 123.854 75.4331 123.735C79.7862 123 82.6226 126.608 81.4526 130.01C81.0718 131.198 79.4539 134.098 78.4074 135.382C78.3121 135.5 78.2168 135.595 78.1459 135.691C78.0032 135.833 77.8605 135.928 77.6698 136.023C77.4307 136.08 77.2912 136.118 77.051 136.118C76.7895 136.118 76.5041 136.071 76.2186 135.928C74.0532 134.859 72.2212 133.386 70.6033 131.436C70.3418 131.08 70.1751 130.675 70.1751 130.296C70.1751 129.422 71.7318 126.951 72.34 126.136C72.3192 125.898 71.4016 115.439 71.4602 116.107C69.7379 115.762 68.7894 115.817 67.6535 115.203C64.7761 113.669 64.391 109.11 60.3968 110.782C58.7731 111.492 55.9825 113.281 55.7812 111.875C55.787 111.635 55.7758 110.629 55.9239 110.259C55.9063 110.242 56.0602 109.642 56.0666 109.618C42.4225 109.794 45.4383 109.76 45.0032 109.76C44.6944 109.76 44.4323 109.499 44.4084 109.166C44.4084 108.857 44.6704 108.572 45.0032 108.572C45.466 108.566 57.2217 108.42 56.4708 108.429C56.5848 108.163 57.152 106.439 59.6827 102.25C55.3327 105.223 51.4291 104.86 50.9509 99.4218C48.2391 100.23 45.3361 100.468 42.5524 100.063C41.7781 99.9527 41.9432 98.7642 42.7191 98.8749C45.4314 99.2553 48.2391 99.0175 50.8795 98.2094C50.2479 80.6463 67.5464 76.5052 64.251 86.6111C62.42 92.0972 58.0642 96.9049 52.1166 99.0648V99.2074C52.3685 102.161 53.5694 103.588 56.3515 102.63C58.3742 101.964 60.0635 100.515 61.7048 99.1122C62.2086 98.6648 62.9574 99.3649 62.5851 99.8963C60.0225 103.677 58.8423 106.182 57.7554 108.357C57.7314 108.381 57.7314 108.405 57.7314 108.405L70.7695 108.238L67.9379 76.4142C67.6897 76.411 44.8632 76.1104 46.2872 76.129C45.5039 76.0732 45.4831 74.9405 46.3112 74.9405C46.5594 74.9437 69.2432 75.2448 67.8191 75.2257C67.7978 74.9858 65.9408 53.8221 66.0585 55.1665C65.9509 54.4153 67.1625 54.2472 67.2242 55.0478C67.2455 55.2878 69.1441 76.4701 69.0323 75.2262C69.3912 75.231 107.026 75.7428 107.48 75.7492L105.196 49.249C105.141 48.4866 106.267 48.3286 106.385 49.1537L108.693 75.7731L149.353 76.3195L147.283 49.6054C147.228 48.8313 148.414 48.6946 148.473 49.5102L150.543 76.3434L182.019 76.7472L180.591 49.7714C180.591 48.9495 181.781 48.9851 181.781 49.7241L183.209 76.7712L209.57 77.1276C210.363 77.1276 210.35 78.3161 209.57 78.3161L183.28 77.9597L184.399 99.326C185.418 99.1138 186.27 98.4291 187.325 97.995C191.127 96.3362 195.245 98.4099 198.935 97.4486C199.221 97.3534 199.578 97.5438 199.649 97.8524C200.072 99.3303 195.109 98.8382 193.677 98.7084C190.386 98.3759 189.134 98.3418 186.707 99.6351C186.017 100.016 185.303 100.396 184.447 100.562L184.78 106.718C218.865 106.263 207.296 106.385 209.761 106.385C210.07 106.385 210.332 106.646 210.356 106.979C210.356 107.288 210.094 107.573 209.761 107.573L209.762 107.575ZM71.531 130.677C73.0302 132.507 74.7429 133.862 76.7655 134.86C76.9791 134.978 77.1937 134.955 77.2891 134.86C78.1454 133.956 79.9534 130.819 80.3342 129.655C81.1639 127.011 79.0896 124.372 75.6472 124.901C75.0049 125.02 74.2913 125.638 73.5771 126.47L74.0293 131.604C74.0841 132.374 72.9588 132.495 72.8395 131.722L72.5067 128.015C72.0545 128.752 71.6498 129.513 71.3883 130.178C71.3409 130.273 71.3643 130.487 71.531 130.677V130.677ZM53.9252 114.586C52.7594 115.132 51.8077 118.056 51.5697 119.958C51.5697 120.029 51.6171 120.172 51.7603 120.267C54.1968 122.015 57.3229 122.89 57.4939 122.549C58.0174 121.598 58.8263 118.532 58.8737 117.463C59.026 115.132 56.7131 113.32 53.9247 114.587L53.9252 114.586ZM53.9252 114.586C52.7594 115.132 51.8077 118.056 51.5697 119.958C51.5697 120.029 51.6171 120.172 51.7603 120.267C54.1968 122.015 57.3229 122.89 57.4939 122.549C58.0174 121.598 58.8263 118.532 58.8737 117.463C59.026 115.132 56.7131 113.32 53.9247 114.587L53.9252 114.586ZM75.6472 124.901C75.0049 125.02 74.2913 125.638 73.5771 126.47L74.0293 131.604C74.0532 131.939 73.8088 132.245 73.4344 132.245C73.1255 132.245 72.8875 132.032 72.8395 131.722L72.5067 128.015C72.0545 128.752 71.6498 129.513 71.3883 130.178C71.3409 130.273 71.3643 130.487 71.531 130.677C73.0302 132.507 74.7429 133.862 76.7655 134.86C76.9791 134.979 77.1937 134.955 77.2891 134.86C78.1454 133.957 79.9534 130.82 80.3342 129.655C81.1639 127.011 79.0896 124.373 75.6472 124.902V124.901ZM75.6472 124.901C75.0049 125.02 74.2913 125.638 73.5771 126.47L74.0293 131.604C74.0532 131.939 73.8088 132.245 73.4344 132.245C73.1255 132.245 72.8875 132.032 72.8395 131.722L72.5067 128.015C72.0545 128.752 71.6498 129.513 71.3883 130.178C71.3409 130.273 71.3643 130.487 71.531 130.677C73.0302 132.507 74.7429 133.862 76.7655 134.86C76.9791 134.979 77.1937 134.955 77.2891 134.86C78.1454 133.957 79.9534 130.82 80.3342 129.655C81.1639 127.011 79.0896 124.373 75.6472 124.902V124.901ZM53.9252 114.586C52.7594 115.132 51.8077 118.056 51.5697 119.958C51.5697 120.029 51.6171 120.172 51.7603 120.267C54.1968 122.015 57.3229 122.89 57.4939 122.549C58.0174 121.598 58.8263 118.532 58.8737 117.463C59.026 115.132 56.7131 113.32 53.9247 114.587L53.9252 114.586ZM53.9252 114.586C52.7594 115.132 51.8077 118.056 51.5697 119.958C51.5697 120.029 51.6171 120.172 51.7603 120.267C54.1968 122.015 57.3229 122.89 57.4939 122.549C58.0174 121.598 58.8263 118.532 58.8737 117.463C59.026 115.132 56.7131 113.32 53.9247 114.587L53.9252 114.586ZM75.6472 124.901C75.0049 125.02 74.2913 125.638 73.5771 126.47L74.0293 131.604C74.0532 131.939 73.8088 132.245 73.4344 132.245C73.1255 132.245 72.8875 132.032 72.8395 131.722L72.5067 128.015C72.0545 128.752 71.6498 129.513 71.3883 130.178C71.3409 130.273 71.3643 130.487 71.531 130.677C73.0302 132.507 74.7429 133.862 76.7655 134.86C76.9791 134.979 77.1937 134.955 77.2891 134.86C78.1454 133.957 79.9534 130.82 80.3342 129.655C81.1639 127.011 79.0896 124.373 75.6472 124.902V124.901ZM75.6472 124.901C75.0049 125.02 74.2913 125.638 73.5771 126.47L74.0293 131.604C74.0532 131.939 73.8088 132.245 73.4344 132.245C73.1255 132.245 72.8875 132.032 72.8395 131.722L72.5067 128.015C72.0545 128.752 71.6498 129.513 71.3883 130.178C71.3409 130.273 71.3643 130.487 71.531 130.677C73.0302 132.507 74.7429 133.862 76.7655 134.86C76.9791 134.979 77.1937 134.955 77.2891 134.86C78.1454 133.957 79.9534 130.82 80.3342 129.655C81.1639 127.011 79.0896 124.373 75.6472 124.902V124.901ZM53.9252 114.586C52.7594 115.132 51.8077 118.056 51.5697 119.958C51.5697 120.029 51.6171 120.172 51.7603 120.267C54.1968 122.015 57.3229 122.89 57.4939 122.549C58.0174 121.598 58.8263 118.532 58.8737 117.463C59.026 115.132 56.7131 113.32 53.9247 114.587L53.9252 114.586ZM53.9252 114.586C52.7594 115.132 51.8077 118.056 51.5697 119.958C51.5697 120.029 51.6171 120.172 51.7603 120.267C54.1968 122.015 57.3229 122.89 57.4939 122.549C58.0174 121.598 58.8263 118.532 58.8737 117.463C59.026 115.132 56.7131 113.32 53.9247 114.587L53.9252 114.586ZM75.6472 124.901C75.0049 125.02 74.2913 125.638 73.5771 126.47L74.0293 131.604C74.0532 131.939 73.8088 132.245 73.4344 132.245C73.1255 132.245 72.8875 132.032 72.8395 131.722L72.5067 128.015C72.0545 128.752 71.6498 129.513 71.3883 130.178C71.3409 130.273 71.3643 130.487 71.531 130.677C73.0302 132.507 74.7429 133.862 76.7655 134.86C76.9791 134.979 77.1937 134.955 77.2891 134.86C78.1454 133.957 79.9534 130.82 80.3342 129.655C81.1639 127.011 79.0896 124.373 75.6472 124.902V124.901ZM75.6472 124.901C75.0049 125.02 74.2913 125.638 73.5771 126.47L74.0293 131.604C74.0532 131.939 73.8088 132.245 73.4344 132.245C73.1255 132.245 72.8875 132.032 72.8395 131.722L72.5067 128.015C72.0545 128.752 71.6498 129.513 71.3883 130.178C71.3409 130.273 71.3643 130.487 71.531 130.677C73.0302 132.507 74.7429 133.862 76.7655 134.86C76.9791 134.979 77.1937 134.955 77.2891 134.86C78.1454 133.957 79.9534 130.82 80.3342 129.655C81.1639 127.011 79.0896 124.373 75.6472 124.902V124.901ZM53.9252 114.586C52.7594 115.132 51.8077 118.056 51.5697 119.958C51.5697 120.029 51.6171 120.172 51.7603 120.267C54.1968 122.015 57.3229 122.89 57.4939 122.549C58.0174 121.598 58.8263 118.532 58.8737 117.463C59.026 115.132 56.7131 113.32 53.9247 114.587L53.9252 114.586ZM53.9252 114.586C52.7594 115.132 51.8077 118.056 51.5697 119.958C51.5697 120.029 51.6171 120.172 51.7603 120.267C54.1968 122.015 57.3229 122.89 57.4939 122.549C58.0174 121.598 58.8263 118.532 58.8737 117.463C59.026 115.132 56.7131 113.32 53.9247 114.587L53.9252 114.586ZM75.6472 124.901C75.0049 125.02 74.2913 125.638 73.5771 126.47L74.0293 131.604C74.0532 131.939 73.8088 132.245 73.4344 132.245C73.1255 132.245 72.8875 132.032 72.8395 131.722L72.5067 128.015C72.0545 128.752 71.6498 129.513 71.3883 130.178C71.3409 130.273 71.3643 130.487 71.531 130.677C73.0302 132.507 74.7429 133.862 76.7655 134.86C76.9791 134.979 77.1937 134.955 77.2891 134.86C78.1454 133.957 79.9534 130.82 80.3342 129.655C81.1639 127.011 79.0896 124.373 75.6472 124.902V124.901ZM75.6472 124.901C75.0049 125.02 74.2913 125.638 73.5771 126.47L74.0293 131.604C74.0532 131.939 73.8088 132.245 73.4344 132.245C73.1255 132.245 72.8875 132.032 72.8395 131.722L72.5067 128.015C72.0545 128.752 71.6498 129.513 71.3883 130.178C71.3409 130.273 71.3643 130.487 71.531 130.677C73.0302 132.507 74.7429 133.862 76.7655 134.86C76.9791 134.979 77.1937 134.955 77.2891 134.86C78.1454 133.957 79.9534 130.82 80.3342 129.655C81.1639 127.011 79.0896 124.373 75.6472 124.902V124.901ZM53.9252 114.586C52.7594 115.132 51.8077 118.056 51.5697 119.958C51.5697 120.029 51.6171 120.172 51.7603 120.267C54.1968 122.015 57.3229 122.89 57.4939 122.549C58.0174 121.598 58.8263 118.532 58.8737 117.463C59.026 115.132 56.7131 113.32 53.9247 114.587L53.9252 114.586ZM53.9252 114.586C52.7594 115.132 51.8077 118.056 51.5697 119.958C51.5697 120.029 51.6171 120.172 51.7603 120.267C54.1968 122.015 57.3229 122.89 57.4939 122.549C58.0174 121.598 58.8263 118.532 58.8737 117.463C59.026 115.132 56.7131 113.32 53.9247 114.587L53.9252 114.586ZM75.6472 124.901C75.0049 125.02 74.2913 125.638 73.5771 126.47L74.0293 131.604C74.0532 131.939 73.8088 132.245 73.4344 132.245C73.1255 132.245 72.8875 132.032 72.8395 131.722L72.5067 128.015C72.0545 128.752 71.6498 129.513 71.3883 130.178C71.3409 130.273 71.3643 130.487 71.531 130.677C73.0302 132.507 74.7429 133.862 76.7655 134.86C76.9791 134.979 77.1937 134.955 77.2891 134.86C78.1454 133.957 79.9534 130.82 80.3342 129.655C81.1639 127.011 79.0896 124.373 75.6472 124.902V124.901ZM75.6472 124.901C75.0049 125.02 74.2913 125.638 73.5771 126.47L74.0293 131.604C74.0532 131.939 73.8088 132.245 73.4344 132.245C73.1255 132.245 72.8875 132.032 72.8395 131.722L72.5067 128.015C72.0545 128.752 71.6498 129.513 71.3883 130.178C71.3409 130.273 71.3643 130.487 71.531 130.677C73.0302 132.507 74.7429 133.862 76.7655 134.86C76.9791 134.979 77.1937 134.955 77.2891 134.86C78.1454 133.957 79.9534 130.82 80.3342 129.655C81.1639 127.011 79.0896 124.373 75.6472 124.902V124.901ZM53.9252 114.586C52.7594 115.132 51.8077 118.056 51.5697 119.958C51.5697 120.029 51.6171 120.172 51.7603 120.267C54.1968 122.015 57.3229 122.89 57.4939 122.549C58.0174 121.598 58.8263 118.532 58.8737 117.463C59.026 115.132 56.7131 113.32 53.9247 114.587L53.9252 114.586ZM53.9252 114.586C52.7594 115.132 51.8077 118.056 51.5697 119.958C51.5697 120.029 51.6171 120.172 51.7603 120.267C54.1968 122.015 57.3229 122.89 57.4939 122.549C58.0174 121.598 58.8263 118.532 58.8737 117.463C59.026 115.132 56.7131 113.32 53.9247 114.587L53.9252 114.586ZM75.6472 124.901C75.0049 125.02 74.2913 125.638 73.5771 126.47L74.0293 131.604C74.0532 131.939 73.8088 132.245 73.4344 132.245C73.1255 132.245 72.8875 132.032 72.8395 131.722L72.5067 128.015C72.0545 128.752 71.6498 129.513 71.3883 130.178C71.3409 130.273 71.3643 130.487 71.531 130.677C73.0302 132.507 74.7429 133.862 76.7655 134.86C76.9791 134.979 77.1937 134.955 77.2891 134.86C78.1454 133.957 79.9534 130.82 80.3342 129.655C81.1639 127.011 79.0896 124.373 75.6472 124.902V124.901ZM75.6472 124.901C75.0049 125.02 74.2913 125.638 73.5771 126.47L74.0293 131.604C74.0532 131.939 73.8088 132.245 73.4344 132.245C73.1255 132.245 72.8875 132.032 72.8395 131.722L72.5067 128.015C72.0545 128.752 71.6498 129.513 71.3883 130.178C71.3409 130.273 71.3643 130.487 71.531 130.677C73.0302 132.507 74.7429 133.862 76.7655 134.86C76.9791 134.979 77.1937 134.955 77.2891 134.86C78.1454 133.957 79.9534 130.82 80.3342 129.655C81.1639 127.011 79.0896 124.373 75.6472 124.902V124.901ZM53.9252 114.586C52.7594 115.132 51.8077 118.056 51.5697 119.958C51.5697 120.029 51.6171 120.172 51.7603 120.267C54.1968 122.015 57.3229 122.89 57.4939 122.549C58.0174 121.598 58.8263 118.532 58.8737 117.463C59.026 115.132 56.7131 113.32 53.9247 114.587L53.9252 114.586ZM75.6472 124.901C75.0049 125.02 74.2913 125.638 73.5771 126.47L74.0293 131.604C74.0532 131.939 73.8088 132.245 73.4344 132.245C73.1255 132.245 72.8875 132.032 72.8395 131.722L72.5067 128.015C72.0545 128.752 71.6498 129.513 71.3883 130.178C71.3409 130.273 71.3643 130.487 71.531 130.677C73.0302 132.507 74.7429 133.862 76.7655 134.86C76.9791 134.979 77.1937 134.955 77.2891 134.86C78.1454 133.957 79.9534 130.82 80.3342 129.655C81.1639 127.011 79.0896 124.373 75.6472 124.902V124.901ZM75.6472 124.901C75.0049 125.02 74.2913 125.638 73.5771 126.47L74.0293 131.604C74.0532 131.939 73.8088 132.245 73.4344 132.245C73.1255 132.245 72.8875 132.032 72.8395 131.722L72.5067 128.015C72.0545 128.752 71.6498 129.513 71.3883 130.178C71.3409 130.273 71.3643 130.487 71.531 130.677C73.0302 132.507 74.7429 133.862 76.7655 134.86C76.9791 134.979 77.1937 134.955 77.2891 134.86C78.1454 133.957 79.9534 130.82 80.3342 129.655C81.1639 127.011 79.0896 124.373 75.6472 124.902V124.901Z" fill="#C3D7F9"/>
<path d="M172.694 91.6035C171.736 91.6035 170.851 97.4497 173.693 100.587C175.803 97.4252 175.323 93.7698 173.098 91.8413C172.978 91.745 172.846 91.6035 172.694 91.6035Z" fill="#C3D7F9"/>
<path d="M181.687 99.6129C181.687 99.589 181.663 99.5889 181.663 99.5889C179.467 103.245 175.978 103.809 173.835 102.298C173.057 103.17 172.04 103.891 170.862 103.891C169.791 103.891 168.649 103.296 168.34 102.132C168.12 101.363 169.308 101.068 169.482 101.823C169.648 102.464 170.505 102.797 171.147 102.678C171.766 102.56 172.337 102.179 172.932 101.538C171.135 99.6267 170.03 95.9357 170.862 92.3872C172.063 86.7469 179.456 94.4216 174.597 101.371C176.354 102.539 179.294 101.963 181.307 97.7349C181.657 97.0359 182.634 97.4854 182.425 98.1626C182.267 98.6367 182.683 99.042 183.196 99.2708L182.078 77.9454L150.632 77.5225L152.912 107.14L183.587 106.731L183.262 100.531C182.652 100.386 182.073 100.074 181.687 99.6118L181.687 99.6129Z" fill="#C3D7F9"/>
<path d="M108.787 76.9609L111.453 107.693L151.721 107.156L149.438 77.5073L108.787 76.9609Z" fill="#C3D7F9"/>
<path d="M33.9415 133.718C32.5174 111.192 29.9244 69.9461 28.5579 46.7937C28.3587 43.3634 31.0886 40.5342 34.4756 40.5342C35.2617 40.5342 35.2628 41.7227 34.4756 41.7227C31.7436 41.7227 29.5836 44.0071 29.7476 46.7246C31.1115 69.8742 33.7045 111.118 35.1264 133.644C35.1765 134.427 33.9884 134.513 33.9415 133.719V133.718Z" fill="#007DF0"/>
<path d="M211.43 139.258C210.644 139.258 210.643 138.069 211.43 138.069C214.166 138.069 216.344 135.763 216.156 133.016L210.245 46.1313C210.192 45.3779 211.372 45.2279 211.43 46.0525L217.341 132.935C217.577 136.357 214.868 139.257 211.43 139.257V139.258Z" fill="#007DF0"/>
<path d="M52.0453 97.8066C51.9739 94.812 52.426 92.1025 53.4251 89.7494C56.5933 81.9864 65.4082 79.5408 63.1086 86.2318C61.3869 91.4215 57.1983 95.9446 52.0453 97.8066Z" fill="#93ADC6"/>
<path d="M53.9247 114.587C52.7589 115.134 51.8072 118.057 51.5692 119.959C51.5692 120.03 51.6166 120.173 51.7598 120.268C54.1963 122.016 57.3224 122.891 57.4933 122.55C58.0168 121.599 58.8258 118.533 58.8732 117.464C59.0255 115.133 56.7126 113.321 53.9241 114.588L53.9247 114.587ZM53.9247 114.587C52.7589 115.134 51.8072 118.057 51.5692 119.959C51.5692 120.03 51.6166 120.173 51.7598 120.268C54.1963 122.016 57.3224 122.891 57.4933 122.55C58.0168 121.599 58.8258 118.533 58.8732 117.464C59.0255 115.133 56.7126 113.321 53.9241 114.588L53.9247 114.587ZM53.9247 114.587C52.7589 115.134 51.8072 118.057 51.5692 119.959C51.5692 120.03 51.6166 120.173 51.7598 120.268C54.1963 122.016 57.3224 122.891 57.4933 122.55C58.0168 121.599 58.8258 118.533 58.8732 117.464C59.0255 115.133 56.7126 113.321 53.9241 114.588L53.9247 114.587ZM53.9247 114.587C52.7589 115.134 51.8072 118.057 51.5692 119.959C51.5692 120.03 51.6166 120.173 51.7598 120.268C54.1963 122.016 57.3224 122.891 57.4933 122.55C58.0168 121.599 58.8258 118.533 58.8732 117.464C59.0255 115.133 56.7126 113.321 53.9241 114.588L53.9247 114.587ZM53.9247 114.587C52.7589 115.134 51.8072 118.057 51.5692 119.959C51.5692 120.03 51.6166 120.173 51.7598 120.268C54.1963 122.016 57.3224 122.891 57.4933 122.55C58.0168 121.599 58.8258 118.533 58.8732 117.464C59.0255 115.133 56.7126 113.321 53.9241 114.588L53.9247 114.587ZM53.9247 114.587C52.7589 115.134 51.8072 118.057 51.5692 119.959C51.5692 120.03 51.6166 120.173 51.7598 120.268C54.1963 122.016 57.3224 122.891 57.4933 122.55C58.0168 121.599 58.8258 118.533 58.8732 117.464C59.0255 115.133 56.7126 113.321 53.9241 114.588L53.9247 114.587ZM53.9247 114.587C52.7589 115.134 51.8072 118.057 51.5692 119.959C51.5692 120.03 51.6166 120.173 51.7598 120.268C54.1963 122.016 57.3224 122.891 57.4933 122.55C58.0168 121.599 58.8258 118.533 58.8732 117.464C59.0255 115.133 56.7126 113.321 53.9241 114.588L53.9247 114.587ZM53.9247 114.587C52.7589 115.134 51.8072 118.057 51.5692 119.959C51.5692 120.03 51.6166 120.173 51.7598 120.268C54.1963 122.016 57.3224 122.891 57.4933 122.55C58.0168 121.599 58.8258 118.533 58.8732 117.464C59.0255 115.133 56.7126 113.321 53.9241 114.588L53.9247 114.587ZM53.9247 114.587C52.7589 115.134 51.8072 118.057 51.5692 119.959C51.5692 120.03 51.6166 120.173 51.7598 120.268C54.1963 122.016 57.3224 122.891 57.4933 122.55C58.0168 121.599 58.8258 118.533 58.8732 117.464C59.0255 115.133 56.7126 113.321 53.9241 114.588L53.9247 114.587ZM53.9247 114.587C52.7589 115.134 51.8072 118.057 51.5692 119.959C51.5692 120.03 51.6166 120.173 51.7598 120.268C54.1963 122.016 57.3224 122.891 57.4933 122.55C58.0168 121.599 58.8258 118.533 58.8732 117.464C59.0255 115.133 56.7126 113.321 53.9241 114.588L53.9247 114.587ZM53.9247 114.587C52.7589 115.134 51.8072 118.057 51.5692 119.959C51.5692 120.03 51.6166 120.173 51.7598 120.268C54.1963 122.016 57.3224 122.891 57.4933 122.55C58.0168 121.599 58.8258 118.533 58.8732 117.464C59.0255 115.133 56.7126 113.321 53.9241 114.588L53.9247 114.587ZM53.9247 114.587C52.7589 115.134 51.8072 118.057 51.5692 119.959C51.5692 120.03 51.6166 120.173 51.7598 120.268C54.1963 122.016 57.3224 122.891 57.4933 122.55C58.0168 121.599 58.8258 118.533 58.8732 117.464C59.0255 115.133 56.7126 113.321 53.9241 114.588L53.9247 114.587ZM104.745 98.7345L81.238 75.3955C68.6787 63.0338 68.9524 62.9263 67.891 62.4895C66.3705 61.6362 63.9879 61.9219 62.6091 63.7254C55.7913 72.8062 41.6204 88.179 32.2266 96.7618V96.7858C31.0848 97.7838 30.0378 98.7345 29.0622 99.5426C27.1588 101.159 27.0161 104.058 28.7767 105.817C51.019 128.186 42.0412 119.156 63.8931 141.135C65.1542 142.395 67.0575 142.798 68.6515 142.038C71.9374 140.481 74.7264 138.455 77.6448 136.025C77.4547 136.072 77.2646 136.12 77.0499 136.12C76.7884 136.12 76.503 136.073 76.2175 135.93C74.0522 134.861 72.2202 133.387 70.6022 131.438C70.3408 131.081 70.1741 130.677 70.1741 130.297C70.1741 129.423 71.7307 126.953 72.3389 126.138C72.6723 125.686 73.0526 125.259 73.4333 124.902C74.0522 124.308 74.7418 123.856 75.432 123.738C79.7852 123.002 82.6216 126.61 81.4515 130.012C81.0707 131.201 79.4528 134.1 78.4064 135.384C80.3577 133.696 82.3318 131.819 84.2831 129.775C89.9932 123.904 95.7747 116.679 101.627 109.026C102.817 107.481 103.983 105.913 105.172 104.321C106.433 102.609 106.267 100.233 104.744 98.735L104.745 98.7345ZM58.5403 123.119C58.3028 123.571 57.8027 123.832 57.2558 123.832C56.5598 123.832 53.6914 123.112 51.0702 121.241C50.642 120.932 50.38 120.457 50.38 119.958V119.792C50.5706 118.365 51.4744 114.42 53.4251 113.493C57.0018 111.892 60.2765 114.319 60.0629 117.51C59.9916 118.77 59.1586 121.978 58.5398 123.119L58.5403 123.119ZM79.5727 121.812C78.6854 121.812 76.4492 119.609 75.8373 118.96C73.5036 116.629 73.3503 116.9 72.6968 116.465V116.489C72.5306 116.417 72.3634 116.299 72.1973 116.251C70.713 115.805 69.0893 115.98 67.6529 115.205C64.7755 113.671 64.3905 109.111 60.3963 110.784C58.7725 111.494 55.9819 113.283 55.7806 111.877C55.7881 111.639 55.7742 110.633 55.9233 110.261C55.8243 110.162 56.3973 108.562 56.4469 108.431C57.3751 106.269 58.5467 104.132 59.6827 102.252C55.3327 105.225 51.4291 104.862 50.9509 99.4234C48.2391 100.232 45.3361 100.469 42.5524 100.065C41.7781 99.9544 41.9432 98.7659 42.7191 98.8765C45.4314 99.2569 48.2391 99.0191 50.8795 98.211C50.2479 80.6479 67.5464 76.5068 64.251 86.6128C62.42 92.0988 58.0642 96.9065 52.1166 99.0665V99.209C52.3685 102.162 53.5694 103.59 56.3515 102.631C58.3742 101.966 60.0635 100.516 61.7048 99.1138C62.2086 98.6664 62.9574 99.3665 62.5851 99.898C60.0225 103.679 58.8423 106.184 57.7554 108.359C57.7314 108.383 57.7314 108.406 57.7314 108.406C57.3842 109.203 57.0545 110.218 56.9938 111.068C58.8902 110.41 60.6152 108.793 62.8706 109.31C64.3697 109.666 65.2495 110.855 66.1298 112.019C67.6609 114.115 68.2276 114.47 70.5549 114.729C71.2211 114.824 71.8873 114.919 72.5535 115.132H72.5775C75.7228 116.165 77.2763 119.573 79.8336 120.67C80.3944 120.95 80.1931 121.811 79.5721 121.811L79.5727 121.812ZM53.9252 114.587C52.7594 115.134 51.8077 118.057 51.5697 119.959C51.5697 120.03 51.6171 120.173 51.7603 120.268C54.1968 122.016 57.3229 122.891 57.4939 122.55C58.0174 121.599 58.8263 118.533 58.8737 117.464C59.026 115.133 56.7131 113.321 53.9247 114.588L53.9252 114.587ZM53.9252 114.587C52.7594 115.134 51.8077 118.057 51.5697 119.959C51.5697 120.03 51.6171 120.173 51.7603 120.268C54.1968 122.016 57.3229 122.891 57.4939 122.55C58.0174 121.599 58.8263 118.533 58.8737 117.464C59.026 115.133 56.7131 113.321 53.9247 114.588L53.9252 114.587ZM53.9252 114.587C52.7594 115.134 51.8077 118.057 51.5697 119.959C51.5697 120.03 51.6171 120.173 51.7603 120.268C54.1968 122.016 57.3229 122.891 57.4939 122.55C58.0174 121.599 58.8263 118.533 58.8737 117.464C59.026 115.133 56.7131 113.321 53.9247 114.588L53.9252 114.587ZM53.9252 114.587C52.7594 115.134 51.8077 118.057 51.5697 119.959C51.5697 120.03 51.6171 120.173 51.7603 120.268C54.1968 122.016 57.3229 122.891 57.4939 122.55C58.0174 121.599 58.8263 118.533 58.8737 117.464C59.026 115.133 56.7131 113.321 53.9247 114.588L53.9252 114.587ZM53.9252 114.587C52.7594 115.134 51.8077 118.057 51.5697 119.959C51.5697 120.03 51.6171 120.173 51.7603 120.268C54.1968 122.016 57.3229 122.891 57.4939 122.55C58.0174 121.599 58.8263 118.533 58.8737 117.464C59.026 115.133 56.7131 113.321 53.9247 114.588L53.9252 114.587ZM53.9252 114.587C52.7594 115.134 51.8077 118.057 51.5697 119.959C51.5697 120.03 51.6171 120.173 51.7603 120.268C54.1968 122.016 57.3229 122.891 57.4939 122.55C58.0174 121.599 58.8263 118.533 58.8737 117.464C59.026 115.133 56.7131 113.321 53.9247 114.588L53.9252 114.587ZM53.9252 114.587C52.7594 115.134 51.8077 118.057 51.5697 119.959C51.5697 120.03 51.6171 120.173 51.7603 120.268C54.1968 122.016 57.3229 122.891 57.4939 122.55C58.0174 121.599 58.8263 118.533 58.8737 117.464C59.026 115.133 56.7131 113.321 53.9247 114.588L53.9252 114.587ZM53.9252 114.587C52.7594 115.134 51.8077 118.057 51.5697 119.959C51.5697 120.03 51.6171 120.173 51.7603 120.268C54.1968 122.016 57.3229 122.891 57.4939 122.55C58.0174 121.599 58.8263 118.533 58.8737 117.464C59.026 115.133 56.7131 113.321 53.9247 114.588L53.9252 114.587ZM53.9252 114.587C52.7594 115.134 51.8077 118.057 51.5697 119.959C51.5697 120.03 51.6171 120.173 51.7603 120.268C54.1968 122.016 57.3229 122.891 57.4939 122.55C58.0174 121.599 58.8263 118.533 58.8737 117.464C59.026 115.133 56.7131 113.321 53.9247 114.588L53.9252 114.587ZM53.9252 114.587C52.7594 115.134 51.8077 118.057 51.5697 119.959C51.5697 120.03 51.6171 120.173 51.7603 120.268C54.1968 122.016 57.3229 122.891 57.4939 122.55C58.0174 121.599 58.8263 118.533 58.8737 117.464C59.026 115.133 56.7131 113.321 53.9247 114.588L53.9252 114.587ZM53.9252 114.587C52.7594 115.134 51.8077 118.057 51.5697 119.959C51.5697 120.03 51.6171 120.173 51.7603 120.268C54.1968 122.016 57.3229 122.891 57.4939 122.55C58.0174 121.599 58.8263 118.533 58.8737 117.464C59.026 115.133 56.7131 113.321 53.9247 114.588L53.9252 114.587ZM75.6472 124.902C75.0049 125.021 74.2913 125.639 73.5771 126.471C72.7863 127.459 71.8383 129.034 71.3883 130.179C71.3409 130.274 71.3643 130.488 71.531 130.678C73.0302 132.508 74.7429 133.863 76.7655 134.861C76.9791 134.979 77.1937 134.956 77.2891 134.861C78.1454 133.957 79.9534 130.82 80.3342 129.656C81.1639 127.012 79.0896 124.373 75.6472 124.902Z" fill="#005BAE"/>
<path d="M28.6835 99.0926C29.2842 98.5872 30.0533 99.4953 29.4504 100.002C27.816 101.371 27.6525 103.85 29.1948 105.406C29.4248 105.638 29.4248 106.014 29.19 106.246C28.0088 107.402 25.0989 102.099 28.6835 99.0926Z" fill="#007DF0"/>
<path d="M83.2186 131.477C82.6956 131.477 82.4224 130.842 82.7957 130.466C90.1008 123.117 97.6354 113.383 104.689 103.959C105.777 102.507 105.625 100.443 104.333 99.1597C103.778 98.6107 104.615 97.7605 105.174 98.3197C106.882 100.016 107.082 102.748 105.641 104.67C98.5621 114.131 90.9971 123.904 83.6409 131.301C83.5248 131.42 83.3714 131.478 83.218 131.478L83.2186 131.477Z" fill="#007DF0"/>
<path d="M146.333 95.3592L113.262 96.0248C112.382 96.0248 111.549 95.6683 111.002 95.0028C104.435 86.9222 101.389 73.7072 100.414 57.4981C100.295 55.8105 101.627 54.3848 103.317 54.3848H114.166C114.69 57.1182 117.092 59.1622 119.971 59.1622C122.849 59.1622 125.276 57.1182 125.8 54.3848H137.601C139.147 54.3848 140.432 55.5967 140.527 57.1182C141.169 70.2374 143.525 81.8836 148.783 90.9862C149.878 92.9115 148.545 95.3119 146.333 95.3592Z" fill="#9DCFFD"/>
<path d="M113.21 96.6139C112.161 96.6139 111.165 96.1543 110.531 95.377C110.029 94.7647 110.961 94.0194 111.451 94.6248C111.869 95.1376 112.532 95.4068 113.254 95.4254L146.314 94.7711C148.082 94.7365 149.149 92.8303 148.264 91.2827C143.379 82.7972 140.652 71.6353 139.923 57.1594C139.862 55.9385 138.845 54.9824 137.606 54.9824C136.82 54.9824 136.819 53.7939 137.606 53.7939C139.478 53.7939 141.019 55.2469 141.112 57.0993C141.83 71.3826 144.506 82.3727 149.295 90.6911C150.633 93.024 149.004 95.9053 146.337 95.9596L113.277 96.6139H113.21Z" fill="#007DF0"/>
<path d="M210.618 117.034C205.455 107.979 203.124 96.4283 202.457 83.4517C202.386 81.8355 201.054 80.5996 199.436 80.5996H165.39C163.629 80.5996 162.249 82.0733 162.345 83.8321C163.344 99.8747 166.341 112.994 172.789 121.051C173.408 121.788 174.312 122.24 175.263 122.216L208.073 121.574C210.38 121.527 211.761 119.031 210.619 117.034H210.618ZM193.321 110.713C183.93 110.131 178.06 111.516 174.906 111.925C174.197 111.925 174.109 110.892 174.787 110.736C180.902 109.572 187.159 109.144 193.369 109.524C194.112 109.524 194.165 110.648 193.321 110.713ZM193.678 98.7101C190.387 98.3776 189.135 98.3436 186.707 99.6369C185.97 100.041 185.185 100.493 184.257 100.611C183.329 100.73 182.282 100.326 181.687 99.6135C181.687 99.5895 181.663 99.5895 181.663 99.5895C179.467 103.245 175.978 103.81 173.836 102.299C173.057 103.17 172.04 103.891 170.862 103.891C169.791 103.891 168.649 103.297 168.34 102.132C168.12 101.363 169.308 101.069 169.482 101.823C169.648 102.465 170.505 102.798 171.147 102.679C171.766 102.56 172.337 102.18 172.932 101.538C171.135 99.6273 170.03 95.9362 170.862 92.3878C172.063 86.7475 179.456 94.4222 174.597 101.372C176.354 102.54 179.294 101.963 181.307 97.7355C181.657 97.0364 182.634 97.486 182.425 98.1632C182.19 98.8676 183.291 99.5661 184.114 99.423C185.197 99.274 186.176 98.4696 187.327 97.9967C191.129 96.3379 195.246 98.4117 198.937 97.4503C199.223 97.3551 199.579 97.5455 199.651 97.8541C200.074 99.332 195.111 98.8399 193.679 98.7101H193.678ZM172.694 91.6036C171.736 91.6036 170.851 97.4498 173.693 100.588C174.55 99.3044 175.026 97.8541 175.049 96.4283C175.088 93.5662 173.125 91.6036 172.694 91.6036Z" fill="#007DF0"/>
<path d="M175.208 122.821C174.097 122.821 173.054 122.313 172.336 121.419C166.321 113.908 162.861 101.625 161.762 83.8653C161.638 81.8075 163.258 80.0029 165.382 80.0029H199.441C201.372 80.0029 202.962 81.5021 203.059 83.4147C203.098 84.2084 201.908 84.2467 201.869 83.4748C201.804 82.1937 200.738 81.1909 199.441 81.1909C164.601 81.4585 164.974 80.5083 163.612 81.957C163.143 82.456 162.908 83.1082 162.952 83.7908C164.035 101.298 167.408 113.365 173.266 120.676C173.765 121.301 174.471 121.647 175.255 121.632H175.266C176.044 121.632 176.059 122.804 175.278 122.821H175.208H175.208Z" fill="white"/>
<path d="M187.565 79.7701C187.565 83.0435 184.905 85.7004 181.628 85.7004C178.352 85.7004 175.692 83.0435 175.692 79.7701C175.692 76.4967 178.352 73.8398 181.628 73.8398C184.905 73.8398 187.565 76.4967 187.565 79.7701Z" fill="#007DF0"/>
<path d="M65.4621 35.0019C65.4621 36.9214 63.9027 38.4791 61.9813 38.4791C60.0598 38.4791 58.4728 36.9214 58.4728 35.0019C58.4728 33.0824 60.0321 31.4971 61.9813 31.4971C63.9304 31.4971 65.4621 33.0548 65.4621 35.0019Z" fill="#007DF0"/>
<path d="M61.0903 35.6014C65.4855 28.9827 63.6631 21.8778 58.518 18.9874C55.5927 17.3489 51.7684 17.4393 49.2174 19.2056C46.6638 20.974 45.2419 27.25 46.8033 29.8659C47.2091 30.5468 46.1781 31.1406 45.7808 30.474C43.9057 27.3314 45.4762 20.3499 48.5389 18.2304C51.4478 16.2136 55.7929 16.0928 59.099 17.9516C64.8448 21.1735 66.8733 29.0365 62.0798 36.2595C61.6473 36.9117 60.6541 36.2595 61.0897 35.6004L61.0903 35.6014Z" fill="#007DF0"/>
<path d="M122.953 35.0029C122.953 36.9224 121.393 38.4801 119.472 38.4801C117.55 38.4801 115.963 36.9224 115.963 35.0029C115.963 33.0834 117.523 31.498 119.472 31.498C121.421 31.498 122.953 33.0558 122.953 35.0029Z" fill="#007DF0"/>
<path d="M118.633 36.9481C123.103 29.7421 121.127 22.1185 116.056 19.0669C113.14 17.3166 109.33 17.4076 106.788 19.3015C104.246 21.1864 103.187 26.6336 104.802 29.5256C105.182 30.2188 104.144 30.7896 103.76 30.106C101.874 26.7219 103.087 20.5666 106.077 18.3476C109 16.1749 113.357 16.0568 116.67 18.0508C122.349 21.4652 124.451 29.8214 119.646 37.5753C119.225 38.2441 118.221 37.6158 118.633 36.9486L118.633 36.9481Z" fill="#007DF0"/>
<path d="M176.186 36.9481C180.63 29.7793 178.71 22.1366 173.609 19.0669C170.691 17.3145 166.88 17.4166 164.339 19.3015C161.788 21.1954 160.738 26.4176 162.334 29.2819C162.713 29.9666 161.676 30.5507 161.293 29.8575C159.422 26.4969 160.621 20.5804 163.628 18.3476C166.551 16.1749 170.903 16.0568 174.223 18.0508C179.946 21.496 181.97 29.8708 177.199 37.5753C176.781 38.2403 175.775 37.6205 176.186 36.9486L176.186 36.9481Z" fill="#007DF0"/>
<path d="M109.901 73.2459C109.573 73.2134 109.336 72.9235 109.367 72.5958C109.397 72.2707 109.662 72.0063 110.017 72.0622C119.283 72.965 128.684 73.2321 137.966 72.8469C138.79 72.873 138.767 74.0035 138.012 74.0354C128.613 74.4152 119.237 74.154 109.901 73.2464L109.901 73.2459Z" fill="#007DF0"/>
<path d="M112.863 83.7861C112.094 83.6079 112.373 82.446 113.133 82.6301C119.378 84.0877 125.786 84.5447 132.182 83.9808C132.934 83.8712 133.095 85.0959 132.285 85.1645C126.001 85.7221 119.436 85.3236 112.863 83.7861Z" fill="#007DF0"/>
<path d="M109.945 41.3C109.159 41.3 109.158 40.1115 109.945 40.1115C183.648 40.3887 180.898 39.5327 180.898 40.7057C180.898 41.8788 183.729 41.0223 109.945 41.3Z" fill="#007DF0"/>
<path d="M87.2708 138.253C86.9033 137.644 87.7208 137.028 88.207 137.531C88.4456 137.489 84.6676 137.524 204.255 137.519C205.041 137.519 205.042 138.708 204.255 138.708H88.4323C87.969 138.838 87.4971 138.625 87.2708 138.253Z" fill="#007DF0"/>
<path d="M53.9247 114.587C52.7589 115.133 51.8072 118.057 51.5692 119.959C51.5692 120.03 51.6166 120.172 51.7598 120.268C54.1963 122.016 57.3224 122.891 57.4933 122.549C58.0168 121.599 58.8258 118.533 58.8732 117.463C59.0255 115.133 56.7126 113.321 53.9241 114.588L53.9247 114.587ZM75.6466 124.902C75.0044 125.021 74.2908 125.639 73.5766 126.471C72.7857 127.459 71.8378 129.033 71.3878 130.178C71.3404 130.274 71.3638 130.487 71.5305 130.677C73.0297 132.507 74.7424 133.862 76.765 134.86C76.9786 134.979 77.1932 134.956 77.2885 134.86C78.1449 133.957 79.9529 130.82 80.3337 129.655C81.1634 127.011 79.0891 124.373 75.6466 124.902ZM75.6466 124.902C75.0044 125.021 74.2908 125.639 73.5766 126.471C72.7857 127.459 71.8378 129.033 71.3878 130.178C71.3404 130.274 71.3638 130.487 71.5305 130.677C73.0297 132.507 74.7424 133.862 76.765 134.86C76.9786 134.979 77.1932 134.956 77.2885 134.86C78.1449 133.957 79.9529 130.82 80.3337 129.655C81.1634 127.011 79.0891 124.373 75.6466 124.902ZM53.9247 114.587C52.7589 115.133 51.8072 118.057 51.5692 119.959C51.5692 120.03 51.6166 120.172 51.7598 120.268C54.1963 122.016 57.3224 122.891 57.4933 122.549C58.0168 121.599 58.8258 118.533 58.8732 117.463C59.0255 115.133 56.7126 113.321 53.9241 114.588L53.9247 114.587ZM53.9247 114.587C52.7589 115.133 51.8072 118.057 51.5692 119.959C51.5692 120.03 51.6166 120.172 51.7598 120.268C54.1963 122.016 57.3224 122.891 57.4933 122.549C58.0168 121.599 58.8258 118.533 58.8732 117.463C59.0255 115.133 56.7126 113.321 53.9241 114.588L53.9247 114.587ZM75.6466 124.902C75.0044 125.021 74.2908 125.639 73.5766 126.471C72.7857 127.459 71.8378 129.033 71.3878 130.178C71.3404 130.274 71.3638 130.487 71.5305 130.677C73.0297 132.507 74.7424 133.862 76.765 134.86C76.9786 134.979 77.1932 134.956 77.2885 134.86C78.1449 133.957 79.9529 130.82 80.3337 129.655C81.1634 127.011 79.0891 124.373 75.6466 124.902ZM53.9247 114.587C52.7589 115.133 51.8072 118.057 51.5692 119.959C51.5692 120.03 51.6166 120.172 51.7598 120.268C54.1963 122.016 57.3224 122.891 57.4933 122.549C58.0168 121.599 58.8258 118.533 58.8732 117.463C59.0255 115.133 56.7126 113.321 53.9241 114.588L53.9247 114.587ZM75.6466 124.902C75.0044 125.021 74.2908 125.639 73.5766 126.471C72.7857 127.459 71.8378 129.033 71.3878 130.178C71.3404 130.274 71.3638 130.487 71.5305 130.677C73.0297 132.507 74.7424 133.862 76.765 134.86C76.9786 134.979 77.1932 134.956 77.2885 134.86C78.1449 133.957 79.9529 130.82 80.3337 129.655C81.1634 127.011 79.0891 124.373 75.6466 124.902ZM53.9247 114.587C52.7589 115.133 51.8072 118.057 51.5692 119.959C51.5692 120.03 51.6166 120.172 51.7598 120.268C54.1963 122.016 57.3224 122.891 57.4933 122.549C58.0168 121.599 58.8258 118.533 58.8732 117.463C59.0255 115.133 56.7126 113.321 53.9241 114.588L53.9247 114.587ZM75.6466 124.902C75.0044 125.021 74.2908 125.639 73.5766 126.471C72.7857 127.459 71.8378 129.033 71.3878 130.178C71.3404 130.274 71.3638 130.487 71.5305 130.677C73.0297 132.507 74.7424 133.862 76.765 134.86C76.9786 134.979 77.1932 134.956 77.2885 134.86C78.1449 133.957 79.9529 130.82 80.3337 129.655C81.1634 127.011 79.0891 124.373 75.6466 124.902ZM53.9247 114.587C52.7589 115.133 51.8072 118.057 51.5692 119.959C51.5692 120.03 51.6166 120.172 51.7598 120.268C54.1963 122.016 57.3224 122.891 57.4933 122.549C58.0168 121.599 58.8258 118.533 58.8732 117.463C59.0255 115.133 56.7126 113.321 53.9241 114.588L53.9247 114.587ZM75.6466 124.902C75.0044 125.021 74.2908 125.639 73.5766 126.471C72.7857 127.459 71.8378 129.033 71.3878 130.178C71.3404 130.274 71.3638 130.487 71.5305 130.677C73.0297 132.507 74.7424 133.862 76.765 134.86C76.9786 134.979 77.1932 134.956 77.2885 134.86C78.1449 133.957 79.9529 130.82 80.3337 129.655C81.1634 127.011 79.0891 124.373 75.6466 124.902ZM53.9247 114.587C52.7589 115.133 51.8072 118.057 51.5692 119.959C51.5692 120.03 51.6166 120.172 51.7598 120.268C54.1963 122.016 57.3224 122.891 57.4933 122.549C58.0168 121.599 58.8258 118.533 58.8732 117.463C59.0255 115.133 56.7126 113.321 53.9241 114.588L53.9247 114.587ZM75.6466 124.902C75.0044 125.021 74.2908 125.639 73.5766 126.471C72.7857 127.459 71.8378 129.033 71.3878 130.178C71.3404 130.274 71.3638 130.487 71.5305 130.677C73.0297 132.507 74.7424 133.862 76.765 134.86C76.9786 134.979 77.1932 134.956 77.2885 134.86C78.1449 133.957 79.9529 130.82 80.3337 129.655C81.1634 127.011 79.0891 124.373 75.6466 124.902ZM53.9247 114.587C52.7589 115.133 51.8072 118.057 51.5692 119.959C51.5692 120.03 51.6166 120.172 51.7598 120.268C54.1963 122.016 57.3224 122.891 57.4933 122.549C58.0168 121.599 58.8258 118.533 58.8732 117.463C59.0255 115.133 56.7126 113.321 53.9241 114.588L53.9247 114.587ZM75.6466 124.902C75.0044 125.021 74.2908 125.639 73.5766 126.471C72.7857 127.459 71.8378 129.033 71.3878 130.178C71.3404 130.274 71.3638 130.487 71.5305 130.677C73.0297 132.507 74.7424 133.862 76.765 134.86C76.9786 134.979 77.1932 134.956 77.2885 134.86C78.1449 133.957 79.9529 130.82 80.3337 129.655C81.1634 127.011 79.0891 124.373 75.6466 124.902ZM53.9247 114.587C52.7589 115.133 51.8072 118.057 51.5692 119.959C51.5692 120.03 51.6166 120.172 51.7598 120.268C54.1963 122.016 57.3224 122.891 57.4933 122.549C58.0168 121.599 58.8258 118.533 58.8732 117.463C59.0255 115.133 56.7126 113.321 53.9241 114.588L53.9247 114.587ZM75.6466 124.902C75.0044 125.021 74.2908 125.639 73.5766 126.471C72.7857 127.459 71.8378 129.033 71.3878 130.178C71.3404 130.274 71.3638 130.487 71.5305 130.677C73.0297 132.507 74.7424 133.862 76.765 134.86C76.9786 134.979 77.1932 134.956 77.2885 134.86C78.1449 133.957 79.9529 130.82 80.3337 129.655C81.1634 127.011 79.0891 124.373 75.6466 124.902ZM53.9247 114.587C52.7589 115.133 51.8072 118.057 51.5692 119.959C51.5692 120.03 51.6166 120.172 51.7598 120.268C54.1963 122.016 57.3224 122.891 57.4933 122.549C58.0168 121.599 58.8258 118.533 58.8732 117.463C59.0255 115.133 56.7126 113.321 53.9241 114.588L53.9247 114.587ZM75.6466 124.902C75.0044 125.021 74.2908 125.639 73.5766 126.471C72.7857 127.459 71.8378 129.033 71.3878 130.178C71.3404 130.274 71.3638 130.487 71.5305 130.677C73.0297 132.507 74.7424 133.862 76.765 134.86C76.9786 134.979 77.1932 134.956 77.2885 134.86C78.1449 133.957 79.9529 130.82 80.3337 129.655C81.1634 127.011 79.0891 124.373 75.6466 124.902ZM53.9247 114.587C52.7589 115.133 51.8072 118.057 51.5692 119.959C51.5692 120.03 51.6166 120.172 51.7598 120.268C54.1963 122.016 57.3224 122.891 57.4933 122.549C58.0168 121.599 58.8258 118.533 58.8732 117.463C59.0255 115.133 56.7126 113.321 53.9241 114.588L53.9247 114.587ZM75.6466 124.902C75.0044 125.021 74.2908 125.639 73.5766 126.471C72.7857 127.459 71.8378 129.033 71.3878 130.178C71.3404 130.274 71.3638 130.487 71.5305 130.677C73.0297 132.507 74.7424 133.862 76.765 134.86C76.9786 134.979 77.1932 134.956 77.2885 134.86C78.1449 133.957 79.9529 130.82 80.3337 129.655C81.1634 127.011 79.0891 124.373 75.6466 124.902ZM53.9247 114.587C52.7589 115.133 51.8072 118.057 51.5692 119.959C51.5692 120.03 51.6166 120.172 51.7598 120.268C54.1963 122.016 57.3224 122.891 57.4933 122.549C58.0168 121.599 58.8258 118.533 58.8732 117.463C59.0255 115.133 56.7126 113.321 53.9241 114.588L53.9247 114.587ZM75.6466 124.902C75.0044 125.021 74.2908 125.639 73.5766 126.471C72.7857 127.459 71.8378 129.033 71.3878 130.178C71.3404 130.274 71.3638 130.487 71.5305 130.677C73.0297 132.507 74.7424 133.862 76.765 134.86C76.9786 134.979 77.1932 134.956 77.2885 134.86C78.1449 133.957 79.9529 130.82 80.3337 129.655C81.1634 127.011 79.0891 124.373 75.6466 124.902ZM53.9247 114.587C52.7589 115.133 51.8072 118.057 51.5692 119.959C51.5692 120.03 51.6166 120.172 51.7598 120.268C54.1963 122.016 57.3224 122.891 57.4933 122.549C58.0168 121.599 58.8258 118.533 58.8732 117.463C59.0255 115.133 56.7126 113.321 53.9241 114.588L53.9247 114.587ZM75.6466 124.902C75.0044 125.021 74.2908 125.639 73.5766 126.471C72.7857 127.459 71.8378 129.033 71.3878 130.178C71.3404 130.274 71.3638 130.487 71.5305 130.677C73.0297 132.507 74.7424 133.862 76.765 134.86C76.9786 134.979 77.1932 134.956 77.2885 134.86C78.1449 133.957 79.9529 130.82 80.3337 129.655C81.1634 127.011 79.0891 124.373 75.6466 124.902ZM53.9247 114.587C52.7589 115.133 51.8072 118.057 51.5692 119.959C51.5692 120.03 51.6166 120.172 51.7598 120.268C54.1963 122.016 57.3224 122.891 57.4933 122.549C58.0168 121.599 58.8258 118.533 58.8732 117.463C59.0255 115.133 56.7126 113.321 53.9241 114.588L53.9247 114.587ZM75.6466 124.902C75.0044 125.021 74.2908 125.639 73.5766 126.471C72.7857 127.459 71.8378 129.033 71.3878 130.178C71.3404 130.274 71.3638 130.487 71.5305 130.677C73.0297 132.507 74.7424 133.862 76.765 134.86C76.9786 134.979 77.1932 134.956 77.2885 134.86C78.1449 133.957 79.9529 130.82 80.3337 129.655C81.1634 127.011 79.0891 124.373 75.6466 124.902ZM84.5686 168.253V168.277C84.5926 168.61 84.3545 168.895 84.0217 168.895C83.6169 168.943 83.2367 169.371 82.8799 169.822C81.0953 172.104 79.5966 174.6 78.3595 177.261C78.3355 177.285 78.3355 177.333 78.2642 177.356C78.7403 177.76 79.1924 178.165 79.6206 178.616C80.15 179.204 79.3048 180.013 78.7403 179.448C75.8863 176.416 74.1065 176.567 74.6715 175.598C74.8382 175.313 75.2185 175.218 75.4805 175.384C76.1228 175.765 76.7656 176.169 77.3599 176.62C78.2328 174.726 82.1838 167.093 84.1639 167.755C85.9959 164.594 85.5203 160.149 82.8554 157.606C80.3811 155.206 76.3603 154.754 73.3146 156.275C73.362 156.465 73.3146 156.679 73.1719 156.822C70.8403 159.175 68.7463 161.765 66.9383 164.522C67.6759 165.045 68.39 165.64 69.0323 166.281C69.2698 166.495 69.2938 166.875 69.0562 167.113C68.8134 167.356 68.3852 167.315 68.2233 167.113C67.5097 166.424 66.7481 165.806 65.9157 165.236C65.822 165.283 65.6644 165.148 65.6303 165.046C65.0594 164.666 64.4406 164.309 63.8223 164C63.1129 163.587 63.6849 162.589 64.3692 162.931C64.9167 163.216 65.4402 163.525 65.9631 163.857C67.7951 161.029 69.936 158.391 72.3155 155.991C72.5062 155.801 72.7437 155.777 72.9578 155.848C75.3852 152.363 81.2364 137.272 82.3553 135.171C83.2596 133.483 83.9732 131.677 84.2826 129.776C84.354 129.538 84.4019 129.3 84.4253 129.063C85.6422 119.835 75.1109 116.449 68.2468 125.023C65.9908 127.81 65.1489 129.896 57.1126 146.698C57.9423 147.279 56.5555 147.731 53.9481 154.042C53.0438 156.181 52.3302 158.368 51.7593 160.625C51.7119 160.815 51.5686 160.959 51.4019 161.053C52.3542 161.457 53.3053 161.909 54.2096 162.432C54.7118 162.683 54.5579 163.525 53.9002 163.525C53.4054 163.525 51.5559 161.977 46.8576 160.697C46.1456 160.533 46.3799 159.375 47.167 159.556C48.3328 159.865 49.4986 160.245 50.617 160.697C50.5696 160.578 50.5696 160.459 50.593 160.34C51.8099 155.583 53.775 150.934 56.2551 146.841C56.3979 146.603 56.6833 146.508 56.9453 146.627C58.1452 142.04 59.7972 135.612 60.4187 133.317C61.8715 127.799 65.5946 114.033 60.3947 110.786C59.1656 110.01 57.2569 109.871 55.9223 110.263C52.0048 111.165 50.0551 114.886 48.4516 118.581C41.8947 133.65 35.2814 162.116 31.6307 160.292C34.2717 162.456 36.5319 165.093 38.2451 168.065C38.6664 168.786 37.5421 169.297 37.2221 168.659C35.3187 165.331 32.6543 162.408 29.5612 160.174C29.1266 159.858 29.3093 159.211 29.7279 159.128C27.161 157.335 26.1331 155.581 23.8985 154.042C22.1256 152.73 19.171 151.073 16.9273 150.144C13.6441 148.694 10.1468 147.815 6.72085 148.623C2.93809 149.526 -0.749873 151.76 0.130446 156.347C0.53519 158.605 2.10517 160.435 3.72308 162.075C10.7166 169.134 15.115 169.929 18.688 174.196C23.5657 180.043 23.2328 188.314 27.4198 194.564C31.4166 200.553 37.793 204.903 44.7162 206.757C54.8513 209.514 65.8673 207.446 75.3841 202.978C78.5246 201.504 81.5703 199.745 84.1154 197.392C96.0314 186.462 92.0462 166.204 84.5675 168.254L84.5686 168.253ZM75.4326 123.737C79.7857 123.002 82.6221 126.61 81.4521 130.012C81.0713 131.2 79.4534 134.1 78.4069 135.383C78.1507 135.703 78.024 135.848 77.6693 136.025H77.6453C77.1804 136.142 76.7341 136.188 76.2181 135.93C74.0527 134.86 72.2207 133.387 70.6028 131.438C70.3413 131.081 70.1746 130.677 70.1746 130.297C70.1746 129.261 72.9391 124.167 75.4326 123.737ZM50.3794 119.792C50.5701 118.366 51.4738 114.42 53.4246 113.494C57.0013 111.892 60.276 114.319 60.0624 117.51C59.991 118.77 59.1581 121.979 58.5393 123.119C58.2805 123.611 57.6781 123.941 56.8979 123.785C54.8045 123.381 52.9011 122.549 51.0691 121.242C50.6409 120.933 50.3789 120.458 50.3789 119.959V119.792H50.3794ZM6.43647 162.763C5.93 163.37 5.01773 162.573 5.53218 162.002C6.72192 160.624 7.12613 158.865 6.60316 157.51C6.10628 156.208 4.15126 154.24 2.27293 154.397C1.49805 154.507 1.37503 153.288 2.15363 153.232C4.52938 152.968 6.95145 155.197 7.721 157.082C8.38723 158.841 7.88715 161.075 6.43593 162.763H6.43647ZM76.7656 134.86C76.9791 134.979 77.1937 134.955 77.2891 134.86C78.1454 133.957 79.9534 130.819 80.3342 129.655C81.164 127.011 79.0896 124.373 75.6472 124.901C74.4404 125.125 73.1479 126.962 72.5067 128.015C72.0545 128.751 71.6498 129.512 71.3883 130.178C71.3409 130.273 71.3644 130.487 71.531 130.677C73.0302 132.507 74.7429 133.862 76.7656 134.86ZM57.4939 122.549C58.0174 121.598 58.8263 118.532 58.8737 117.463C59.026 115.132 56.7131 113.32 53.9247 114.587C52.7589 115.134 51.8072 118.057 51.5692 119.959C51.5692 120.03 51.6166 120.173 51.7598 120.268C54.1963 122.016 57.3224 122.891 57.4933 122.55L57.4939 122.549ZM75.6472 124.902C75.0049 125.021 74.2913 125.639 73.5771 126.471C72.7863 127.459 71.8383 129.033 71.3883 130.178C71.3409 130.274 71.3644 130.487 71.531 130.677C73.0302 132.507 74.7429 133.862 76.7656 134.86C76.9791 134.979 77.1937 134.956 77.2891 134.86C78.1454 133.957 79.9534 130.82 80.3342 129.655C81.164 127.011 79.0896 124.373 75.6472 124.902ZM53.9252 114.587C52.7594 115.133 51.8078 118.057 51.5697 119.959C51.5697 120.03 51.6171 120.172 51.7604 120.268C54.1968 122.016 57.3229 122.891 57.4939 122.549C58.0174 121.599 58.8263 118.533 58.8737 117.463C59.026 115.133 56.7131 113.321 53.9247 114.588L53.9252 114.587ZM75.6472 124.902C75.0049 125.021 74.2913 125.639 73.5771 126.471C72.7863 127.459 71.8383 129.033 71.3883 130.178C71.3409 130.274 71.3644 130.487 71.531 130.677C73.0302 132.507 74.7429 133.862 76.7656 134.86C76.9791 134.979 77.1937 134.956 77.2891 134.86C78.1454 133.957 79.9534 130.82 80.3342 129.655C81.164 127.011 79.0896 124.373 75.6472 124.902ZM53.9252 114.587C52.7594 115.133 51.8078 118.057 51.5697 119.959C51.5697 120.03 51.6171 120.172 51.7604 120.268C54.1968 122.016 57.3229 122.891 57.4939 122.549C58.0174 121.599 58.8263 118.533 58.8737 117.463C59.026 115.133 56.7131 113.321 53.9247 114.588L53.9252 114.587ZM75.6472 124.902C75.0049 125.021 74.2913 125.639 73.5771 126.471C72.7863 127.459 71.8383 129.033 71.3883 130.178C71.3409 130.274 71.3644 130.487 71.531 130.677C73.0302 132.507 74.7429 133.862 76.7656 134.86C76.9791 134.979 77.1937 134.956 77.2891 134.86C78.1454 133.957 79.9534 130.82 80.3342 129.655C81.164 127.011 79.0896 124.373 75.6472 124.902ZM53.9252 114.587C52.7594 115.133 51.8078 118.057 51.5697 119.959C51.5697 120.03 51.6171 120.172 51.7604 120.268C54.1968 122.016 57.3229 122.891 57.4939 122.549C58.0174 121.599 58.8263 118.533 58.8737 117.463C59.026 115.133 56.7131 113.321 53.9247 114.588L53.9252 114.587ZM75.6472 124.902C75.0049 125.021 74.2913 125.639 73.5771 126.471C72.7863 127.459 71.8383 129.033 71.3883 130.178C71.3409 130.274 71.3644 130.487 71.531 130.677C73.0302 132.507 74.7429 133.862 76.7656 134.86C76.9791 134.979 77.1937 134.956 77.2891 134.86C78.1454 133.957 79.9534 130.82 80.3342 129.655C81.164 127.011 79.0896 124.373 75.6472 124.902ZM53.9252 114.587C52.7594 115.133 51.8078 118.057 51.5697 119.959C51.5697 120.03 51.6171 120.172 51.7604 120.268C54.1968 122.016 57.3229 122.891 57.4939 122.549C58.0174 121.599 58.8263 118.533 58.8737 117.463C59.026 115.133 56.7131 113.321 53.9247 114.588L53.9252 114.587ZM75.6472 124.902C75.0049 125.021 74.2913 125.639 73.5771 126.471C72.7863 127.459 71.8383 129.033 71.3883 130.178C71.3409 130.274 71.3644 130.487 71.531 130.677C73.0302 132.507 74.7429 133.862 76.7656 134.86C76.9791 134.979 77.1937 134.956 77.2891 134.86C78.1454 133.957 79.9534 130.82 80.3342 129.655C81.164 127.011 79.0896 124.373 75.6472 124.902ZM53.9252 114.587C52.7594 115.133 51.8078 118.057 51.5697 119.959C51.5697 120.03 51.6171 120.172 51.7604 120.268C54.1968 122.016 57.3229 122.891 57.4939 122.549C58.0174 121.599 58.8263 118.533 58.8737 117.463C59.026 115.133 56.7131 113.321 53.9247 114.588L53.9252 114.587ZM75.6472 124.902C75.0049 125.021 74.2913 125.639 73.5771 126.471C72.7863 127.459 71.8383 129.033 71.3883 130.178C71.3409 130.274 71.3644 130.487 71.531 130.677C73.0302 132.507 74.7429 133.862 76.7656 134.86C76.9791 134.979 77.1937 134.956 77.2891 134.86C78.1454 133.957 79.9534 130.82 80.3342 129.655C81.164 127.011 79.0896 124.373 75.6472 124.902ZM53.9252 114.587C52.7594 115.133 51.8078 118.057 51.5697 119.959C51.5697 120.03 51.6171 120.172 51.7604 120.268C54.1968 122.016 57.3229 122.891 57.4939 122.549C58.0174 121.599 58.8263 118.533 58.8737 117.463C59.026 115.133 56.7131 113.321 53.9247 114.588L53.9252 114.587ZM75.6472 124.902C75.0049 125.021 74.2913 125.639 73.5771 126.471C72.7863 127.459 71.8383 129.033 71.3883 130.178C71.3409 130.274 71.3644 130.487 71.531 130.677C73.0302 132.507 74.7429 133.862 76.7656 134.86C76.9791 134.979 77.1937 134.956 77.2891 134.86C78.1454 133.957 79.9534 130.82 80.3342 129.655C81.164 127.011 79.0896 124.373 75.6472 124.902ZM53.9252 114.587C52.7594 115.133 51.8078 118.057 51.5697 119.959C51.5697 120.03 51.6171 120.172 51.7604 120.268C54.1968 122.016 57.3229 122.891 57.4939 122.549C58.0174 121.599 58.8263 118.533 58.8737 117.463C59.026 115.133 56.7131 113.321 53.9247 114.588L53.9252 114.587ZM75.6472 124.902C75.0049 125.021 74.2913 125.639 73.5771 126.471C72.7863 127.459 71.8383 129.033 71.3883 130.178C71.3409 130.274 71.3644 130.487 71.531 130.677C73.0302 132.507 74.7429 133.862 76.7656 134.86C76.9791 134.979 77.1937 134.956 77.2891 134.86C78.1454 133.957 79.9534 130.82 80.3342 129.655C81.164 127.011 79.0896 124.373 75.6472 124.902ZM53.9252 114.587C52.7594 115.133 51.8078 118.057 51.5697 119.959C51.5697 120.03 51.6171 120.172 51.7604 120.268C54.1968 122.016 57.3229 122.891 57.4939 122.549C58.0174 121.599 58.8263 118.533 58.8737 117.463C59.026 115.133 56.7131 113.321 53.9247 114.588L53.9252 114.587ZM75.6472 124.902C75.0049 125.021 74.2913 125.639 73.5771 126.471C72.7863 127.459 71.8383 129.033 71.3883 130.178C71.3409 130.274 71.3644 130.487 71.531 130.677C73.0302 132.507 74.7429 133.862 76.7656 134.86C76.9791 134.979 77.1937 134.956 77.2891 134.86C78.1454 133.957 79.9534 130.82 80.3342 129.655C81.164 127.011 79.0896 124.373 75.6472 124.902ZM53.9252 114.587C52.7594 115.133 51.8078 118.057 51.5697 119.959C51.5697 120.03 51.6171 120.172 51.7604 120.268C54.1968 122.016 57.3229 122.891 57.4939 122.549C58.0174 121.599 58.8263 118.533 58.8737 117.463C59.026 115.133 56.7131 113.321 53.9247 114.588L53.9252 114.587ZM75.6472 124.902C75.0049 125.021 74.2913 125.639 73.5771 126.471C72.7863 127.459 71.8383 129.033 71.3883 130.178C71.3409 130.274 71.3644 130.487 71.531 130.677C73.0302 132.507 74.7429 133.862 76.7656 134.86C76.9791 134.979 77.1937 134.956 77.2891 134.86C78.1454 133.957 79.9534 130.82 80.3342 129.655C81.164 127.011 79.0896 124.373 75.6472 124.902ZM53.9252 114.587C52.7594 115.133 51.8078 118.057 51.5697 119.959C51.5697 120.03 51.6171 120.172 51.7604 120.268C54.1968 122.016 57.3229 122.891 57.4939 122.549C58.0174 121.599 58.8263 118.533 58.8737 117.463C59.026 115.133 56.7131 113.321 53.9247 114.588L53.9252 114.587ZM53.9252 114.587C52.7594 115.133 51.8078 118.057 51.5697 119.959C51.5697 120.03 51.6171 120.172 51.7604 120.268C54.1968 122.016 57.3229 122.891 57.4939 122.549C58.0174 121.599 58.8263 118.533 58.8737 117.463C59.026 115.133 56.7131 113.321 53.9247 114.588L53.9252 114.587ZM75.6472 124.902C75.0049 125.021 74.2913 125.639 73.5771 126.471C72.7863 127.459 71.8383 129.033 71.3883 130.178C71.3409 130.274 71.3644 130.487 71.531 130.677C73.0302 132.507 74.7429 133.862 76.7656 134.86C76.9791 134.979 77.1937 134.956 77.2891 134.86C78.1454 133.957 79.9534 130.82 80.3342 129.655C81.164 127.011 79.0896 124.373 75.6472 124.902ZM75.6472 124.902C75.0049 125.021 74.2913 125.639 73.5771 126.471C72.7863 127.459 71.8383 129.033 71.3883 130.178C71.3409 130.274 71.3644 130.487 71.531 130.677C73.0302 132.507 74.7429 133.862 76.7656 134.86C76.9791 134.979 77.1937 134.956 77.2891 134.86C78.1454 133.957 79.9534 130.82 80.3342 129.655C81.164 127.011 79.0896 124.373 75.6472 124.902ZM53.9252 114.587C52.7594 115.133 51.8078 118.057 51.5697 119.959C51.5697 120.03 51.6171 120.172 51.7604 120.268C54.1968 122.016 57.3229 122.891 57.4939 122.549C58.0174 121.599 58.8263 118.533 58.8737 117.463C59.026 115.133 56.7131 113.321 53.9247 114.588L53.9252 114.587ZM75.6472 124.902C75.0049 125.021 74.2913 125.639 73.5771 126.471C72.7863 127.459 71.8383 129.033 71.3883 130.178C71.3409 130.274 71.3644 130.487 71.531 130.677C73.0302 132.507 74.7429 133.862 76.7656 134.86C76.9791 134.979 77.1937 134.956 77.2891 134.86C78.1454 133.957 79.9534 130.82 80.3342 129.655C81.164 127.011 79.0896 124.373 75.6472 124.902ZM75.6472 124.902C75.0049 125.021 74.2913 125.639 73.5771 126.471C72.7863 127.459 71.8383 129.033 71.3883 130.178C71.3409 130.274 71.3644 130.487 71.531 130.677C73.0302 132.507 74.7429 133.862 76.7656 134.86C76.9791 134.979 77.1937 134.956 77.2891 134.86C78.1454 133.957 79.9534 130.82 80.3342 129.655C81.164 127.011 79.0896 124.373 75.6472 124.902Z" fill="#007DF0"/>
<path d="M91.4854 98.4994C85.3514 91.8057 78.6231 85.5599 71.49 79.9335C70.8696 79.4419 71.6146 78.5162 72.2287 79.0003C79.4102 84.6657 86.1854 90.9561 92.3636 97.696C92.8914 98.2733 92.0244 99.0798 91.4854 98.4994Z" fill="#F2F7FF"/>
<path d="M109.938 199.149C106.179 193.283 108.436 185.198 115.191 182.323C115.488 176.693 119.981 171.145 128.379 169.546C132.436 168.773 136.629 169.078 140.194 169.474C141.032 169.563 140.77 170.802 140.064 170.653C132.311 169.79 123.901 169.963 118.919 176.013C117.508 177.723 116.658 179.81 116.44 181.878C124.198 179.618 127.672 186.467 124.688 189.688C121.874 192.729 115.671 190.537 115.201 183.624C109.419 186.412 107.694 193.438 110.943 198.508C111.365 199.168 110.367 199.811 109.939 199.149H109.938ZM116.383 183.141C116.548 191.068 124.757 191.502 124.534 186.726C124.367 183.143 120.239 181.856 116.383 183.141Z" fill="#007DF0"/>
<path d="M16.7969 17.6992C14.025 12.7946 9.33152 9.06526 3.91806 7.47031C3.17301 7.24421 3.48456 6.11902 4.2573 6.32863C9.96153 8.01348 14.9101 11.9434 17.8333 17.1145C18.222 17.8066 17.1814 18.3775 16.7969 17.6992Z" fill="#007DF0"/>
<path d="M22.0639 11.2375L19.6892 6.49096C19.3361 5.78552 20.4023 5.26575 20.7533 5.96161L23.128 10.7034C23.4805 11.4131 22.417 11.935 22.0639 11.237V11.2375Z" fill="#007DF0"/>
<path d="M28.2256 11.0262C27.9071 7.62881 28.9643 2.49071 31.7037 0.676578C33.0628 -0.224106 34.7936 -0.226234 35.9115 0.67445C36.5186 1.16496 35.7863 2.09171 35.1632 1.59801C34.3617 0.952688 33.1464 1.14527 32.3588 1.66983C30.0533 3.1919 29.1347 7.96185 29.4105 10.9145C29.4835 11.7072 28.297 11.8082 28.2256 11.0257V11.0262Z" fill="#007DF0"/>
<path d="M215.698 20.9229C210.977 16.8961 204.492 15.0208 198.352 15.9023C197.55 16.0045 197.418 14.8367 198.18 14.7277C204.653 13.7876 211.493 15.7699 216.47 20.0174C217.072 20.5297 216.289 21.4261 215.699 20.9223L215.698 20.9229Z" fill="#007DF0"/>
<path d="M217.724 11.6345C215.454 8.95155 211.999 7.28744 208.482 7.18264C207.709 7.16083 207.722 5.99414 208.5 5.99414C208.744 6.05585 214.44 5.91008 218.635 10.8684C219.14 11.4669 218.236 12.2356 217.724 11.6345Z" fill="#007DF0"/>
<path d="M175.526 165.439C177.974 164.634 172.655 165.414 227.459 165.091C228.245 165.091 228.246 166.279 227.459 166.279H176.834C176.495 166.391 176.276 166.443 175.907 166.567C175.2 166.802 174.755 165.703 175.526 165.439V165.439Z" fill="#007DF0"/>
<path d="M225.215 178.439H196.686C195.899 178.439 195.898 177.25 196.686 177.25H225.215C226.001 177.25 226.002 178.439 225.215 178.439Z" fill="#007DF0"/>
</g>
<defs>
<clipPath id="clip0_73_645">
<rect width="229" height="208" fill="white"/>
</clipPath>
</defs>
</svg>
