<svg width="309" height="230" viewBox="0 0 309 230" fill="none" xmlns="http://www.w3.org/2000/svg">
<path d="M308.635 202.122H0V202.276H308.635V202.122Z" fill="#EBEBEB"/>
<path d="M277.71 212.058H268.512V212.212H277.71V212.058Z" fill="#EBEBEB"/>
<path d="M204.452 213.733H199.086V213.888H204.452V213.733Z" fill="#EBEBEB"/>
<path d="M265.906 206.326H244.8V206.48H265.906V206.326Z" fill="#EBEBEB"/>
<path d="M67.672 209.512H41.0103V209.666H67.672V209.512Z" fill="#EBEBEB"/>
<path d="M82.7827 209.512H73.1675V209.666H82.7827V209.512Z" fill="#EBEBEB"/>
<path d="M157.252 207.44H99.4292V207.595H157.252V207.44Z" fill="#EBEBEB"/>
<path d="M146.301 174.593H27.1074C25.1648 174.593 23.584 173.012 23.584 171.07V3.52337C23.584 1.58083 25.1648 0 27.1074 0H146.301C148.243 0 149.824 1.58083 149.824 3.52337V171.07C149.824 173.012 148.243 174.593 146.301 174.593ZM27.1074 0.154934C25.2494 0.154934 23.7383 1.66601 23.7383 3.52399V171.071C23.7383 172.929 25.2494 174.44 27.1074 174.44H146.301C148.159 174.44 149.67 172.929 149.67 171.071V3.52337C149.67 1.66601 148.159 0.154317 146.301 0.154317L27.1074 0.154934Z" fill="#EBEBEB"/>
<path d="M279.814 174.593H160.621C158.678 174.593 157.098 173.012 157.098 171.07V3.52337C157.098 1.58083 158.679 0 160.621 0H279.814C281.757 0 283.338 1.58083 283.338 3.52337V171.07C283.338 173.012 281.757 174.593 279.814 174.593ZM160.621 0.154934C158.764 0.154934 157.252 1.66601 157.252 3.52399V171.071C157.252 172.929 158.764 174.44 160.621 174.44H279.814C281.672 174.44 283.183 172.929 283.183 171.071V3.52337C283.183 1.66601 281.672 0.154317 279.814 0.154317L160.621 0.154934Z" fill="#EBEBEB"/>
<path d="M132.389 202.122H143.883V123.192H132.389V202.122Z" fill="#E6E6E6"/>
<path d="M136.435 202.122H132.389V187.122H140.677L136.435 202.122Z" fill="#F0F0F0"/>
<path d="M253.943 202.122H265.438V123.192H253.943V202.122Z" fill="#E6E6E6"/>
<path d="M132.388 198.028L257.474 198.028V123.192L132.388 123.192V198.028Z" fill="#F0F0F0"/>
<path d="M253.428 202.122H257.474V187.122H249.185L253.428 202.122Z" fill="#F0F0F0"/>
<path d="M216.235 129.388V191.295H253.315V129.388H216.235Z" fill="#E6E6E6"/>
<path d="M231.108 131.566H238.444C241.63 131.566 244.676 130.421 246.868 128.399H222.684C224.876 130.421 227.922 131.566 231.108 131.566Z" fill="#F0F0F0"/>
<path d="M176.392 129.388V191.295H213.471V129.388H176.392Z" fill="#E6E6E6"/>
<path d="M190.889 131.566H198.225C201.411 131.566 204.457 130.421 206.649 128.399H182.465C184.657 130.421 187.703 131.566 190.889 131.566Z" fill="#F0F0F0"/>
<path d="M136.548 129.388V191.295H173.627V129.388H136.548Z" fill="#E6E6E6"/>
<path d="M151.046 131.566H158.381C161.568 131.566 164.614 130.421 166.805 128.399H142.621C144.813 130.421 147.859 131.566 151.046 131.566Z" fill="#F0F0F0"/>
<path d="M43.1968 202.122H121.627L121.627 25.8171H43.1968L43.1968 202.122Z" fill="#F0F0F0"/>
<path d="M43.197 202.122H119.972L119.972 25.8171H43.197L43.197 202.122Z" fill="#F5F5F5"/>
<path d="M115.292 198.123L115.292 29.8193L47.875 29.8193L47.875 198.123H115.292Z" fill="#F0F0F0"/>
<path d="M108.668 61.1191C108.668 50.9681 100.439 42.7393 90.2879 42.7393H72.8803C62.7293 42.7393 54.5005 50.9681 54.5005 61.1191H108.668Z" fill="#FAFAFA"/>
<path d="M108.667 187.659L108.667 147.452H54.4997L54.4997 187.659H108.667Z" fill="#F5F5F5"/>
<path d="M108.668 72.4561H84.7754V142.265H108.668V72.4561Z" fill="#F5F5F5"/>
<path d="M78.3931 72.4561H54.5005V142.265H78.3931V72.4561Z" fill="#F5F5F5"/>
<path d="M63.1659 107.046H53.3797C52.5445 107.046 51.8618 106.363 51.8618 105.529C51.8618 104.694 52.5451 104.011 53.3797 104.011H63.1659C64.0004 104.011 64.6837 104.694 64.6837 105.529C64.6837 106.364 64.0004 107.046 63.1659 107.046Z" fill="#E0E0E0"/>
<path d="M49.0889 198.122L49.0889 29.8184H47.8753L47.8753 198.122H49.0889Z" fill="#F0F0F0"/>
<path d="M171.235 103.842L254.409 103.842V25.8184L171.235 25.8184V103.842Z" fill="#E6E6E6"/>
<path d="M169.139 103.842L252.312 103.842V25.8184L169.139 25.8184V103.842Z" fill="#F5F5F5"/>
<path d="M164.283 108.358L254.409 108.358V103.842L164.283 103.842V108.358Z" fill="#E6E6E6"/>
<path d="M161.923 108.358L247.407 108.358V103.842L161.923 103.842V108.358Z" fill="#F5F5F5"/>
<path d="M248.549 99.7833V29.877L172.902 29.877V99.7833L248.549 99.7833Z" fill="white"/>
<path d="M212.822 99.7833V29.877H208.629V99.7833H212.822Z" fill="#F5F5F5"/>
<path d="M174.487 99.7833V29.877H172.902V99.7833H174.487Z" fill="#E6E6E6"/>
<path d="M214.407 99.7833V29.877H212.822V99.7833H214.407Z" fill="#E6E6E6"/>
<path d="M182.416 105.91C180.886 90.0614 179.821 64.3429 180.648 55.7406C180.677 55.4418 180.835 55.1733 181.077 54.9962C181.79 54.4764 182.789 55.0011 182.759 55.8826C182.613 60.1448 182.446 70.7976 183.353 89.1756C183.805 98.3235 184.456 104.589 184.009 105.91H182.416Z" fill="#E6E6E6"/>
<path d="M176.714 69.3761C172.359 64.5398 163.463 61.1003 154.398 61.1182C150.839 61.125 165.225 66.7446 171.208 72.9457C175.856 77.7629 181.096 85.8664 182.878 90.3644C181.725 80.9005 181.069 74.213 176.714 69.3761Z" fill="#E6E6E6"/>
<path d="M185.347 70.8519C188.964 65.8144 197.313 61.9411 206.346 61.5034C209.893 61.3318 196.4 67.6526 191.365 74.1315C187.453 79.1641 183.442 87.5009 182.338 92.0712C182.074 82.585 181.73 75.8895 185.347 70.8519Z" fill="#E6E6E6"/>
<path d="M176.52 51.7171C172.832 47.6215 165.299 44.7092 157.623 44.7247C154.61 44.7308 166.791 49.4888 171.858 54.7399C175.794 58.8188 180.231 65.681 181.74 69.4895C180.763 61.4755 180.207 55.8127 176.52 51.7171Z" fill="#E6E6E6"/>
<path d="M183.829 57.7739C186.892 53.5085 193.962 50.2284 201.611 49.8574C204.614 49.7117 193.188 55.0647 188.925 60.5503C185.612 64.812 182.216 71.8711 181.282 75.7413C181.058 67.7088 180.767 62.0398 183.829 57.7739Z" fill="#E6E6E6"/>
<path d="M183.03 123.192C178.258 123.192 174.315 119.469 174.041 114.706L173.246 100.926H192.814L192.018 114.706C191.744 119.469 187.801 123.192 183.03 123.192Z" fill="#E6E6E6"/>
<path d="M194.08 104.057H171.979L171.346 98.3232H194.714L194.08 104.057Z" fill="#E6E6E6"/>
<path d="M154.317 230C220.416 230 273.999 226.871 273.999 223.011C273.999 219.151 220.416 216.021 154.317 216.021C88.2191 216.021 34.6357 219.151 34.6357 223.011C34.6357 226.871 88.2191 230 154.317 230Z" fill="#F5F5F5"/>
<path d="M156.732 216.333L151.579 216.912L149.678 205.225L154.832 204.645L156.732 216.333Z" fill="#FFC3BD"/>
<path d="M179.806 217.455H174.659L173.378 205.537H178.524L179.806 217.455Z" fill="#FFC3BD"/>
<path d="M174.237 216.858H180.511C180.721 216.858 180.903 217.005 180.949 217.21L181.966 221.784C182.071 222.259 181.698 222.708 181.212 222.7C179.194 222.665 177.721 222.547 175.178 222.547C173.613 222.547 168.896 222.709 166.736 222.709C164.623 222.709 164.294 220.573 165.178 220.379C169.143 219.512 172.131 218.316 173.4 217.174C173.63 216.969 173.929 216.858 174.237 216.858Z" fill="#263238"/>
<path d="M151.493 216.029L157.078 215.395C157.287 215.372 157.484 215.497 157.553 215.695L159.079 220.126C159.237 220.585 158.93 221.072 158.446 221.119C156.428 221.314 153.504 221.525 150.972 221.813C148.011 222.148 147.518 222.942 144.025 222.859C141.913 222.81 141.377 220.661 142.265 220.488C146.311 219.702 147.092 219.09 150.307 216.566C150.656 216.292 151.052 216.079 151.493 216.029Z" fill="#263238"/>
<path d="M156.039 66.2325C154.311 67.6596 152.609 68.9003 150.849 70.1713C149.094 71.4262 147.292 72.6212 145.442 73.7663C143.589 74.9063 141.693 76.0045 139.703 76.9995C137.712 77.9983 135.654 78.931 133.37 79.642C132.793 79.8266 132.232 79.9778 131.583 80.1346C130.827 80.3068 130.265 80.3667 129.664 80.4426C128.506 80.5716 127.414 80.6229 126.327 80.6735C124.161 80.7729 122.034 80.7704 119.91 80.7562C115.664 80.705 111.453 80.5007 107.222 80.1266L107.158 76.2631C111.312 75.7279 115.484 75.265 119.613 74.802C121.676 74.5773 123.736 74.3267 125.747 74.0632C126.747 73.928 127.743 73.7681 128.659 73.5977C129.093 73.5113 129.569 73.4132 129.829 73.3224C130.192 73.2027 130.636 73.057 131.047 72.891C132.727 72.2317 134.465 71.3497 136.175 70.383C137.883 69.4028 139.591 68.351 141.27 67.2325C142.955 66.1226 144.62 64.9554 146.277 63.7739C147.925 62.6042 149.589 61.3406 151.143 60.1592L156.039 66.2325Z" fill="#FFC3BD"/>
<path d="M161.07 61.834C160.331 66.6987 150.087 74.1411 150.087 74.1411L142.74 65.0198C142.74 65.0198 148.035 59.3211 152.963 55.2916C156.269 52.588 161.874 56.541 161.07 61.834Z" fill="#407BFF"/>
<path d="M108.578 76.6824L105.656 74.6016L105.336 81.1736C105.336 81.1736 106.954 81.1736 107.576 79.9934L108.578 76.6824Z" fill="#FFC3BD"/>
<path d="M103.014 72.6885L102.416 79.1291L105.336 81.1734L105.656 74.602L103.014 72.6885Z" fill="#FFC3BD"/>
<path opacity="0.2" d="M149.679 205.228L150.658 211.252L155.814 210.672L154.835 204.647L149.679 205.228Z" fill="black"/>
<path opacity="0.2" d="M178.526 205.54H173.377L174.04 211.683H179.189L178.526 205.54Z" fill="black"/>
<path d="M178.6 55.4477C180.218 55.8094 181.208 57.426 180.813 59.0365C179.646 63.7901 178.85 68.564 178.294 73.1022C177.807 77.0897 177.515 80.8958 177.333 84.347C176.905 92.4363 177.083 98.604 176.842 100.693C172.818 100.414 157.653 99.3589 149.384 98.7806C146.593 76.9299 149.863 62.9858 151.702 57.3186C152.285 55.5199 153.838 54.2045 155.713 53.9607C156.767 53.823 158.027 53.6891 159.358 53.6113C159.823 53.581 160.296 53.565 160.777 53.5551C163.886 53.4891 168.956 53.9557 172.45 54.3674C173.185 54.4545 173.928 54.5625 174.65 54.6786C176.091 54.9131 177.463 55.1934 178.6 55.4477Z" fill="#263238"/>
<path d="M172.21 41.1436C171.212 44.8478 169.997 51.6785 172.449 54.3679C166.085 58.6493 162.022 64.6763 160.849 63.3671C160.237 62.6825 159.969 54.755 160.777 53.5537C165.035 52.8457 165.143 49.731 164.617 46.7619L172.21 41.1436Z" fill="#FFC3BD"/>
<path d="M171.957 52.832C171.957 52.832 161.585 57.422 160.209 67.6848C163.067 64.3762 169.378 60.7769 169.378 60.7769L166.594 59.9769C166.594 59.9769 169.085 58.9769 172.066 58.5041C171.757 57.0862 173.404 54.2598 173.404 54.2598L171.957 52.832Z" fill="#407BFF"/>
<path d="M162.598 52.666C162.598 52.666 163.98 58.527 160.209 67.6842C159.626 64.1886 157.163 58.34 157.163 58.34L159.703 59.0307C159.703 59.0307 159.576 57.8492 157.522 56.2764C158.285 54.8042 160.679 53.0716 160.679 53.0716L162.598 52.666Z" fill="#407BFF"/>
<path opacity="0.2" d="M169.115 43.4365L164.621 46.7593C164.748 47.4624 164.835 48.1722 164.837 48.8561C166.453 48.7364 168.773 47.134 169.06 45.4704C169.202 44.6408 169.223 43.8353 169.115 43.4365Z" fill="black"/>
<path d="M159.031 30.4174C156.521 30.5254 155.136 34.853 157.684 38.4165C160.231 41.9794 162.412 30.2723 159.031 30.4174Z" fill="#263238"/>
<path d="M171.408 34.2249C171.705 39.3235 172.139 42.2926 169.895 45.1981C166.52 49.5683 159.993 48.0011 158.178 43.0944C156.544 38.6772 156.332 31.0811 161.044 28.4713C165.687 25.8998 171.11 29.1262 171.408 34.2249Z" fill="#FFC3BD"/>
<path d="M172.156 38.1434C168.293 35.6619 166.93 32.417 166.63 30.7806C165.13 31.1349 157.686 34.562 155.395 30.7806C153.104 26.9992 155.987 24.7813 160.272 27.1084C158.376 23.7635 160.1 22.1271 166.055 21.982C172.011 21.8363 171.211 25.2906 171.211 25.2906C171.211 25.2906 175.719 23.327 177.319 26.7813C179.162 30.759 175.754 37.5434 172.156 38.1434Z" fill="#263238"/>
<path d="M170.193 24.3779C170.248 24.3779 172.449 24.9075 174.985 22.3545C174.531 24.5322 170.593 25.9809 170.593 25.9809L170.193 24.3779Z" fill="#263238"/>
<path d="M173.153 31.8364C170.778 31.0161 167.902 34.5333 168.964 38.7831C170.026 43.0324 176.352 32.9419 173.153 31.8364Z" fill="#263238"/>
<path d="M174.497 38.4663C174.277 39.8255 173.45 40.957 172.521 41.6045C171.125 42.5785 169.867 41.465 169.786 39.8539C169.713 38.404 170.352 36.1497 171.979 35.817C173.583 35.4892 174.748 36.912 174.497 38.4663Z" fill="#FFC3BD"/>
<path d="M157.123 156.764C158.359 141.711 167.433 100.039 167.433 100.039L149.381 98.7812C149.381 98.7812 142.42 140.146 141.887 155.844C141.331 172.166 147.896 208.443 147.896 208.443L156.554 207.457C156.554 207.457 155.882 171.879 157.123 156.764Z" fill="#407BFF"/>
<path opacity="0.5" d="M157.123 156.764C158.359 141.711 167.433 100.039 167.433 100.039L149.381 98.7812C149.381 98.7812 142.42 140.146 141.887 155.844C141.331 172.166 147.896 208.443 147.896 208.443L156.554 207.457C156.554 207.457 155.882 171.879 157.123 156.764Z" fill="white"/>
<path opacity="0.2" d="M160.631 114.152C156.992 118.805 156.927 135.148 158.334 147.222C159.676 138.511 161.79 127.451 163.642 118.229L160.631 114.152Z" fill="black"/>
<path d="M159.12 99.46C159.12 99.46 161.068 143.519 163.241 158.441C165.62 174.782 171.662 210.494 171.662 210.494H181.088C181.088 210.494 179.538 176.857 178.294 160.805C176.876 142.52 176.839 100.696 176.839 100.696L159.12 99.46Z" fill="#407BFF"/>
<path opacity="0.5" d="M159.12 99.46C159.12 99.46 161.068 143.519 163.241 158.441C165.62 174.782 171.662 210.494 171.662 210.494H181.088C181.088 210.494 179.538 176.857 178.294 160.805C176.876 142.52 176.839 100.696 176.839 100.696L159.12 99.46Z" fill="white"/>
<path d="M170.534 210.697H181.633V207.381L169.226 207.166L170.534 210.697Z" fill="#407BFF"/>
<path d="M147.517 209.418L157.836 208.247L157.458 204.914L145.904 206.046L147.517 209.418Z" fill="#407BFF"/>
<path d="M163.901 36.563C163.95 36.9753 163.772 37.3358 163.503 37.3679C163.233 37.4 162.975 37.0926 162.925 36.6803C162.875 36.2679 163.053 35.9081 163.323 35.8753C163.593 35.8432 163.851 36.1513 163.901 36.563Z" fill="#263238"/>
<path d="M159.242 37.1226C159.292 37.535 159.114 37.8948 158.844 37.9276C158.575 37.9596 158.317 37.6523 158.267 37.2399C158.217 36.8276 158.395 36.4677 158.665 36.435C158.934 36.4023 159.192 36.7109 159.242 37.1226Z" fill="#263238"/>
<path d="M160.748 37.1494C160.748 37.1494 160.097 39.6395 159.203 40.911C160.014 41.5042 161.216 41.0438 161.216 41.0438L160.748 37.1494Z" fill="#ED847E"/>
<path d="M165.167 34.8828C165.081 34.9087 164.985 34.8877 164.92 34.8186C164.165 34.0359 163.281 34.1951 163.272 34.197C163.14 34.2223 163.012 34.1359 162.987 34.0032C162.962 33.8711 163.043 33.7427 163.181 33.718C163.228 33.7093 164.335 33.5093 165.272 34.4803C165.365 34.5772 165.362 34.7315 165.265 34.8247C165.235 34.8525 165.202 34.8717 165.167 34.8828Z" fill="#263238"/>
<path d="M163.377 42.6883L163.379 42.6876C165.424 42.1963 166.024 40.5692 166.048 40.5C166.072 40.4315 166.037 40.3568 165.969 40.3328C165.901 40.3087 165.825 40.3439 165.801 40.4124C165.796 40.4278 165.22 41.9759 163.318 42.4327C163.248 42.4494 163.204 42.5204 163.221 42.5907C163.238 42.6605 163.307 42.7037 163.377 42.6883Z" fill="#263238"/>
<path d="M157.053 35.7591C157.005 35.7733 156.953 35.7739 156.902 35.756C156.775 35.7121 156.707 35.5733 156.751 35.4461C157.192 34.1714 158.279 33.8844 158.327 33.8745C158.458 33.8418 158.59 33.9214 158.622 34.0517C158.654 34.1819 158.569 34.3159 158.446 34.3467C158.41 34.3591 157.564 34.5862 157.213 35.6047C157.186 35.6819 157.125 35.7368 157.053 35.7591Z" fill="#263238"/>
<path d="M172.535 217.758C172.144 217.758 171.777 217.692 171.544 217.496C171.36 217.341 171.274 217.124 171.292 216.851C171.305 216.649 171.412 216.552 171.501 216.507C172.073 216.213 173.731 217.235 173.918 217.351C173.96 217.377 173.981 217.426 173.974 217.474C173.966 217.522 173.929 217.561 173.882 217.573C173.524 217.659 173.011 217.758 172.535 217.758ZM171.77 216.693C171.707 216.693 171.653 216.703 171.611 216.724C171.579 216.74 171.541 216.772 171.534 216.867C171.522 217.061 171.576 217.206 171.7 217.309C171.982 217.546 172.653 217.578 173.527 217.402C172.947 217.066 172.165 216.693 171.77 216.693Z" fill="#407BFF"/>
<path d="M173.853 217.577C173.833 217.577 173.813 217.572 173.794 217.563C173.261 217.273 172.232 216.145 172.341 215.572C172.361 215.467 172.437 215.288 172.729 215.252C172.918 215.23 173.093 215.282 173.248 215.409C173.846 215.898 173.969 217.383 173.974 217.445C173.978 217.49 173.956 217.533 173.919 217.557C173.899 217.57 173.876 217.577 173.853 217.577ZM172.814 215.49C172.795 215.49 172.777 215.492 172.759 215.493C172.6 215.513 172.587 215.585 172.581 215.616C172.517 215.955 173.173 216.807 173.702 217.209C173.642 216.775 173.478 215.91 173.095 215.597C173.006 215.526 172.914 215.49 172.814 215.49Z" fill="#407BFF"/>
<path d="M151.075 216.79C151.069 216.793 151.062 216.797 151.055 216.799C150.249 217.056 148.806 217.424 148.19 216.991C148.004 216.861 147.906 216.671 147.896 216.427C147.891 216.282 147.948 216.163 148.06 216.082C148.64 215.676 150.815 216.476 151.061 216.569C151.11 216.587 151.141 216.634 151.139 216.686C151.138 216.73 151.113 216.77 151.075 216.79ZM148.231 216.263C148.22 216.268 148.211 216.274 148.201 216.28C148.156 216.313 148.137 216.355 148.14 216.419C148.146 216.584 148.207 216.706 148.329 216.792C148.675 217.034 149.522 216.988 150.63 216.672C149.767 216.374 148.588 216.072 148.231 216.263Z" fill="#407BFF"/>
<path d="M151.075 216.79C151.047 216.806 151.013 216.81 150.981 216.799C150.332 216.592 148.984 215.625 149.012 215.036C149.019 214.899 149.097 214.718 149.424 214.647C149.669 214.594 149.903 214.638 150.12 214.778C150.831 215.239 151.125 216.6 151.137 216.658C151.145 216.701 151.132 216.745 151.1 216.774C151.092 216.78 151.084 216.786 151.075 216.79ZM149.343 214.93C149.259 214.975 149.257 215.027 149.256 215.048C149.239 215.401 150.169 216.176 150.842 216.483C150.731 216.088 150.455 215.285 149.988 214.982C149.826 214.877 149.658 214.845 149.478 214.884C149.418 214.897 149.374 214.913 149.343 214.93Z" fill="#407BFF"/>
<path d="M182.937 62.8698C182.807 64.8803 182.57 66.7525 182.325 68.6845C182.081 70.6024 181.75 72.5122 181.387 74.4239C180.638 78.2435 179.696 82.0595 178.222 85.8884L177.61 87.3291L177.455 87.6884L177.416 87.7779L177.353 87.9143L177.174 88.2692C176.922 88.7217 176.629 89.1359 176.325 89.4723C175.711 90.1655 175.074 90.6377 174.465 91.0043C173.853 91.371 173.266 91.6395 172.697 91.8624C170.432 92.7259 168.384 92.9907 166.359 93.1852C162.318 93.5086 158.485 93.2969 154.583 92.745L154.725 88.8834L157.448 88.576C158.361 88.4674 159.269 88.3285 160.171 88.2069C161.973 87.9408 163.757 87.6452 165.457 87.2501C167.141 86.8649 168.812 86.3643 170.01 85.7397C170.59 85.444 171.021 85.0489 171.003 84.9792C171.02 84.8903 170.822 85.2786 171.053 84.6594L171.46 83.47C172.461 80.1904 173.174 76.6436 173.744 73.0616C174.037 71.2696 174.287 69.4623 174.529 67.6512C174.773 65.8543 174.971 63.9896 175.16 62.252L182.937 62.8698Z" fill="#FFC3BD"/>
<path d="M183.391 59.1383C185.911 63.3647 183.76 76.6459 183.76 76.6459L170.555 74.2058C170.555 74.2058 169.839 66.6035 172.353 60.7623C175.09 54.3989 180.339 54.0187 183.391 59.1383Z" fill="#407BFF"/>
<path d="M151.035 100.827L144.029 68.2396C143.43 65.4539 140.686 63.1953 137.9 63.1953H116.1H111.056C113.842 63.1953 116.586 65.4539 117.185 68.2396L124.191 100.827C124.79 103.613 127.534 105.871 130.32 105.871H152.119H157.164C154.378 105.871 151.634 103.613 151.035 100.827Z" fill="#263238"/>
<path opacity="0.7" d="M151.035 100.827L144.029 68.2396C143.43 65.4539 140.686 63.1953 137.9 63.1953H116.1H111.056C113.842 63.1953 116.586 65.4539 117.185 68.2396L124.191 100.827C124.79 103.613 127.534 105.871 130.32 105.871H152.119H157.164C154.378 105.871 151.634 103.613 151.035 100.827Z" fill="#407BFF"/>
<path d="M100.181 103.146L99.479 110.764L100.094 110.82L100.796 103.203L100.181 103.146Z" fill="#407BFF"/>
<path d="M99.2017 113.788L98.9062 116.993L99.5209 117.05L99.8164 113.845L99.2017 113.788Z" fill="#407BFF"/>
<path d="M111.057 63.1953H132.856H137.901C135.115 63.1953 132.651 65.4539 132.398 68.2396L125.434 143.965C125.18 146.751 122.717 149.009 119.931 149.009H103.176C100.39 149.009 98.3369 146.751 98.5899 143.965L105.554 68.2396C105.808 65.4539 108.271 63.1953 111.057 63.1953Z" fill="#407BFF"/>
<path d="M115.345 143.965C115.092 146.751 117.144 149.009 119.931 149.009H114.886H93.0868C90.301 149.009 88.248 146.751 88.5011 143.965H115.345Z" fill="#263238"/>
<path opacity="0.7" d="M115.345 143.965C115.092 146.751 117.144 149.009 119.931 149.009H114.886H93.0868C90.301 149.009 88.248 146.751 88.5011 143.965H115.345Z" fill="#407BFF"/>
<g opacity="0.5">
<path d="M127.745 71.6796H109.581C108.976 71.6796 108.528 71.1852 108.583 70.5815C108.638 69.9772 109.176 69.4834 109.781 69.4834H127.945C128.549 69.4834 128.998 69.9778 128.943 70.5815C128.888 71.1858 128.349 71.6796 127.745 71.6796Z" fill="white"/>
<path d="M127.205 77.621H109.041C108.436 77.621 107.988 77.1266 108.043 76.5229C108.098 75.9186 108.636 75.4248 109.241 75.4248H127.405C128.009 75.4248 128.458 75.9192 128.403 76.5229C128.348 77.1272 127.809 77.621 127.205 77.621Z" fill="white"/>
<path d="M122.212 83.5634H108.5C107.895 83.5634 107.447 83.069 107.502 82.4653C107.557 81.861 108.095 81.3672 108.7 81.3672H122.412C123.016 81.3672 123.465 81.8616 123.41 82.4653C123.355 83.069 122.815 83.5634 122.212 83.5634Z" fill="white"/>
<path d="M112.61 89.5058H107.96C107.355 89.5058 106.907 89.0114 106.962 88.4077C107.017 87.8034 107.555 87.3096 108.16 87.3096H112.81C113.415 87.3096 113.863 87.804 113.808 88.4077C113.753 89.0114 113.214 89.5058 112.61 89.5058Z" fill="white"/>
<path d="M125.584 95.4472H107.419C106.815 95.4472 106.366 94.9528 106.421 94.3491C106.476 93.7448 107.015 93.251 107.619 93.251H125.784C126.388 93.251 126.837 93.7454 126.782 94.3491C126.727 94.9528 126.188 95.4472 125.584 95.4472Z" fill="white"/>
<path d="M117.889 101.39H106.879C106.275 101.39 105.826 100.895 105.881 100.291C105.936 99.6872 106.475 99.1934 107.079 99.1934H118.089C118.694 99.1934 119.142 99.6878 119.087 100.291C119.033 100.895 118.493 101.39 117.889 101.39Z" fill="white"/>
<path d="M124.503 107.331H106.338C105.734 107.331 105.285 106.837 105.34 106.233C105.395 105.629 105.934 105.135 106.538 105.135H124.702C125.307 105.135 125.756 105.629 125.701 106.233C125.646 106.837 125.107 107.331 124.503 107.331Z" fill="white"/>
<path d="M119.51 113.273H105.798C105.194 113.273 104.745 112.779 104.8 112.175C104.855 111.571 105.394 111.077 105.998 111.077H119.71C120.314 111.077 120.763 111.572 120.708 112.175C120.653 112.78 120.114 113.273 119.51 113.273Z" fill="white"/>
<path d="M109.909 119.215H105.258C104.654 119.215 104.205 118.72 104.26 118.117C104.315 117.512 104.854 117.019 105.458 117.019H110.109C110.713 117.019 111.162 117.513 111.107 118.117C111.052 118.721 110.512 119.215 109.909 119.215Z" fill="white"/>
<path d="M122.881 125.157H104.717C104.113 125.157 103.664 124.663 103.719 124.059C103.774 123.455 104.313 122.961 104.917 122.961H123.081C123.686 122.961 124.134 123.455 124.08 124.059C124.025 124.663 123.486 125.157 122.881 125.157Z" fill="white"/>
<path d="M115.187 131.1H104.177C103.573 131.1 103.124 130.605 103.179 130.001C103.234 129.398 103.773 128.903 104.377 128.903H115.387C115.992 128.903 116.44 129.398 116.385 130.001C116.33 130.605 115.791 131.1 115.187 131.1Z" fill="white"/>
<path d="M121.801 137.041H103.636C103.033 137.041 102.583 136.547 102.638 135.943C102.693 135.339 103.232 134.845 103.836 134.845H122.001C122.605 134.845 123.054 135.339 122.999 135.943C122.944 136.547 122.405 137.041 121.801 137.041Z" fill="white"/>
</g>
<path d="M156.311 89.3015L152.367 85.875L150.519 92.1835C150.519 92.1835 154.524 94.355 155.911 92.3613L156.311 89.3015Z" fill="#FFC3BD"/>
<path d="M148.076 85.6279L146.792 90.913L150.519 92.1833L152.368 85.8755L148.076 85.6279Z" fill="#FFC3BD"/>
</svg>
