<svg width="30" height="30" viewBox="0 0 30 30" fill="none" xmlns="http://www.w3.org/2000/svg">
<g clip-path="url(#clip0_96_3482)">
<path d="M15.0287 28.7299C16.574 28.7299 17.8267 27.9911 17.8267 27.0798C17.8267 26.1685 16.574 25.4297 15.0287 25.4297C13.4834 25.4297 12.2307 26.1685 12.2307 27.0798C12.2307 27.9911 13.4834 28.7299 15.0287 28.7299Z" fill="#424242"/>
<path d="M15.0286 0.958984C10.1501 0.958984 6.19263 4.58547 6.19263 9.05667C6.19263 10.2231 6.5444 11.4705 7.06048 12.5698C7.78486 14.1157 8.57403 15.259 8.80546 15.6802C9.44883 16.8512 9.35626 18.0847 9.53446 18.8577C9.87003 20.3018 10.8744 20.8248 15.0263 20.8248C19.1781 20.8248 20.0714 20.3272 20.444 18.9965C20.6986 18.0916 20.4509 17.1034 21.092 15.9347C21.3234 15.5135 22.2653 14.118 22.992 12.5698C23.5081 11.4705 23.8599 10.2231 23.8599 9.05667C23.8645 4.58547 19.9071 0.958984 15.0286 0.958984Z" fill="#FFD600"/>
<path d="M15.029 20.996C17.8332 20.996 20.1065 20.5339 20.1065 19.9638C20.1065 19.3938 17.8332 18.9316 15.029 18.9316C12.2247 18.9316 9.95142 19.3938 9.95142 19.9638C9.95142 20.5339 12.2247 20.996 15.029 20.996Z" fill="#B26500"/>
<path d="M15.029 20.996C17.8332 20.996 20.1065 20.5339 20.1065 19.9638C20.1065 19.3938 17.8332 18.9316 15.029 18.9316C12.2247 18.9316 9.95142 19.3938 9.95142 19.9638C9.95142 20.5339 12.2247 20.996 15.029 20.996Z" fill="#B26500"/>
<path d="M15.0289 20.4418C17.0727 20.4418 18.7295 20.2283 18.7295 19.965C18.7295 19.7017 17.0727 19.4883 15.0289 19.4883C12.9852 19.4883 11.3284 19.7017 11.3284 19.965C11.3284 20.2283 12.9852 20.4418 15.0289 20.4418Z" fill="#FFA000"/>
<path d="M12.5524 13.1706C12.409 13.5316 12.0364 14.2745 12.2308 14.6078C12.682 15.3831 13.7582 15.6608 13.7582 16.3736C13.7582 17.4613 12.9667 20.986 12.9667 20.986M17.3499 13.041C17.3499 13.041 17.8684 14.1519 17.6485 14.6494C17.4842 15.0197 16.496 15.6168 16.3687 15.7163C15.7786 16.1792 16.5631 20.9883 16.5631 20.9883" stroke="#B26500" stroke-width="0.462857" stroke-miterlimit="10"/>
<path d="M12.553 13.1713C13.3492 11.5976 13.7588 8.0058 12.7474 8.18863C11.0418 8.49643 13.1432 14.3979 14.1777 13.7198C15.2122 13.0417 16.4943 8.2002 14.9206 8.18168C13.3468 8.16317 15.027 14.3516 16.0962 13.6642C16.9409 13.1204 19.003 8.18863 17.3089 8.18863C15.8671 8.18863 17.3529 13.0417 17.3529 13.0417" stroke="white" stroke-width="0.462857" stroke-miterlimit="10"/>
<path d="M20.0942 20.1816C20.0942 20.1816 18.7612 20.825 15.0283 20.825C11.2953 20.825 9.96228 20.1816 9.96228 20.1816C9.96228 20.1816 9.87896 21.3712 10.1544 21.9104C10.4853 22.5584 10.7399 22.7829 10.7399 22.7829L10.8787 23.4425L10.8232 23.616C10.7515 23.8428 10.8024 24.0928 10.9621 24.271L11.0824 24.4052L11.2166 25.0393L11.1703 25.1666C11.0824 25.4096 11.1426 25.6804 11.3231 25.8655L11.411 25.9558L11.5198 26.4742C11.5198 26.4742 12.0706 27.6498 15.0283 27.6498C17.9859 27.6498 18.5367 26.4742 18.5367 26.4742L18.546 26.4302L18.6061 26.37C18.7265 26.252 18.7658 26.0761 18.708 25.9188L18.6733 25.8285L18.8167 25.1435L19.069 24.8773C19.194 24.7454 19.2217 24.551 19.1407 24.389L19.025 24.1599L19.1708 23.4726L19.2634 23.4008C19.3999 23.2504 19.4023 23.0236 19.3421 22.8685C19.2958 22.7459 19.3328 22.607 19.4277 22.5168C19.5735 22.3779 19.761 22.1673 19.8998 21.9058C20.1845 21.3758 20.0942 20.1816 20.0942 20.1816Z" fill="#82AEC0"/>
<path d="M10.7405 22.782L10.8654 23.4462C12.2124 23.4392 14.0106 23.5063 17.4612 22.9578C18.0837 22.8167 18.8312 22.5366 18.005 22.6524C18.005 22.65 14.8368 22.9532 10.7405 22.782ZM11.2033 25.043C12.6937 25.0176 15.7393 24.8694 19.0117 24.159L19.1575 23.4716C15.7347 24.2492 12.5155 24.3881 11.0691 24.4066L11.2033 25.043ZM18.8034 25.1402C15.774 25.7975 12.939 25.9664 11.4047 26.0034L11.5042 26.4756C11.5042 26.4756 11.5528 27.9405 15.0126 27.9405C18.4725 27.9405 18.5211 26.4756 18.5211 26.4756C18.5211 26.4756 17.0446 26.8968 15.2279 26.6908C15.2087 26.6909 15.1897 26.6873 15.172 26.6801C15.1542 26.6729 15.1381 26.6623 15.1244 26.6489C15.0969 26.6218 15.0812 26.5848 15.0809 26.5461C15.0806 26.5075 15.0957 26.4703 15.1228 26.4427C15.1499 26.4151 15.1869 26.3995 15.2256 26.3992C16.311 26.2557 17.607 26.0428 18.66 25.8252L18.8034 25.1402Z" fill="#2F7889"/>
<path d="M9.97974 20.1816C9.97974 20.1816 11.4748 20.825 15.0156 20.825C18.5565 20.825 20.0793 20.1816 20.0793 20.1816" stroke="#82AEC0" stroke-width="0.92502" stroke-miterlimit="10" stroke-linecap="round"/>
<path d="M11.7601 2.42117C12.665 2.199 13.6116 2.31008 14.2596 3.09694C14.4424 3.31911 14.5836 3.58294 14.616 3.86991C14.6808 4.42302 14.3383 4.94605 13.9309 5.33022C12.7692 6.4272 11.1191 6.95948 10.3693 8.47303C10.1934 8.82711 10.0545 9.20897 9.78606 9.49825C9.51761 9.78754 9.07095 9.96343 8.72149 9.77828C8.53635 9.68108 8.40906 9.49825 8.30492 9.31543C7.64766 8.1444 7.69626 6.65168 8.27483 5.439C8.91126 4.1106 10.3068 2.77757 11.7601 2.42117Z" fill="#FFFF8D"/>
<path d="M10.9668 21.3068C10.7631 21.2143 10.8441 20.9088 11.0663 20.925C11.8115 20.9828 13.0797 21.0546 14.7576 21.0546C16.5257 21.0546 18.0809 20.9227 18.9881 20.8255C19.2126 20.8023 19.2982 21.1101 19.0923 21.205C18.3933 21.5336 17.1135 21.9085 14.9196 21.9085C12.7789 21.9085 11.5986 21.5915 10.9668 21.3068Z" fill="#FFD600"/>
<path d="M12.2375 23.6435C12.0824 23.699 11.9227 23.7754 11.844 23.9189C11.8163 23.9721 11.8001 24.0323 11.8116 24.0925C11.8302 24.1804 11.9112 24.2429 11.9922 24.2822C12.1542 24.3609 12.337 24.3818 12.5152 24.3841C12.8832 24.3887 13.2488 24.3193 13.6122 24.2498C13.7209 24.229 13.832 24.2082 13.9292 24.155C14.0264 24.1017 14.1097 24.0115 14.1259 23.9027C14.1491 23.7569 14.0449 23.6157 13.9176 23.5463C13.4779 23.3033 12.6818 23.4838 12.2375 23.6435ZM12.5823 25.1686C12.4272 25.2242 12.2676 25.3005 12.1889 25.444C12.1611 25.4972 12.1449 25.5574 12.1565 25.6176C12.175 25.7055 12.256 25.768 12.337 25.8074C12.499 25.886 12.6818 25.9069 12.86 25.9092C13.228 25.9138 13.5936 25.8444 13.957 25.775C14.0658 25.7541 14.1768 25.7333 14.274 25.6801C14.3712 25.6268 14.4546 25.5366 14.4708 25.4278C14.4939 25.282 14.3898 25.1408 14.2625 25.0714C13.8228 24.8307 13.0243 25.0112 12.5823 25.1686Z" fill="#94D1E0"/>
<path d="M11.7913 19.5192C12.0019 19.54 12.2241 19.5215 12.4023 19.4081C12.5805 19.2947 12.6939 19.0633 12.6222 18.8642C12.5851 18.7601 12.5041 18.6768 12.4255 18.5981C12.2519 18.4268 12.0783 18.2556 11.9071 18.0843C11.715 17.8922 11.5229 17.7025 11.3146 17.5289C10.9929 17.2604 10.5601 17.0082 10.1366 17.2049C9.7756 17.3715 9.68997 17.7001 9.84966 18.045C10.1899 18.7693 10.9813 19.4359 11.7913 19.5192Z" fill="#FFFF8D"/>
</g>
<defs>
<clipPath id="clip0_96_3482">
<rect width="29.6229" height="29.6229" fill="white" transform="translate(0.217041 0.0332031)"/>
</clipPath>
</defs>
</svg>
