<svg width="30" height="31" viewBox="0 0 30 31" fill="none" xmlns="http://www.w3.org/2000/svg">
<path d="M22.9566 18.0734H10.6592L13.5524 10.8398H18.327L19.3398 8.67016H14.9995L13.5524 6.50047L14.9995 4.32985H19.3398L18.327 2.16016H13.5524L10.37 6.50047L11.672 8.67016L2.99227 19.5205C2.36029 20.3552 2.00607 21.3671 1.9795 22.4137C1.97148 23.448 2.33049 24.4516 2.99271 25.2461C3.65493 26.0407 4.57746 26.5746 5.59627 26.7531C5.59627 26.7531 20.786 28.2002 22.9566 28.2002C24.2876 28.1821 25.558 27.6407 26.4928 26.6931C27.4277 25.7455 27.9518 24.4679 27.9518 23.1368C27.9518 21.8056 27.4277 20.528 26.4928 19.5804C25.558 18.6328 24.2876 18.0914 22.9566 18.0734ZM6.31981 24.5834C6.03104 24.5894 5.74398 24.5376 5.47546 24.4313C5.20693 24.3249 4.96233 24.166 4.75599 23.9639C4.54965 23.7618 4.38573 23.5205 4.27382 23.2543C4.16191 22.988 4.10426 22.7021 4.10426 22.4132C4.10426 22.1244 4.16191 21.8385 4.27382 21.5722C4.38573 21.3059 4.54965 21.0647 4.75599 20.8626C4.96233 20.6605 5.20693 20.5016 5.47546 20.3952C5.74398 20.2888 6.03104 20.2371 6.31981 20.2431C6.88759 20.2548 7.42816 20.4886 7.82555 20.8943C8.22294 21.3 8.4455 21.8453 8.4455 22.4132C8.4455 22.9811 8.22294 23.5264 7.82555 23.9321C7.42816 24.3378 6.88759 24.5716 6.31981 24.5834ZM22.9566 26.0305C22.3841 26.0306 21.8244 25.861 21.3483 25.5431C20.8722 25.2252 20.5011 24.7732 20.282 24.2443C20.0628 23.7154 20.0054 23.1334 20.1171 22.5719C20.2287 22.0104 20.5044 21.4946 20.9092 21.0898C21.314 20.685 21.8298 20.4094 22.3913 20.2977C22.9528 20.1861 23.5347 20.2435 24.0636 20.4626C24.5925 20.6818 25.0445 21.0529 25.3624 21.529C25.6804 22.0051 25.85 22.5647 25.8498 23.1372C25.8476 23.9039 25.5421 24.6385 25 25.1806C24.4579 25.7227 23.7232 26.0283 22.9566 26.0305Z" fill="#32B0E7"/>
</svg>
