<svg width="18" height="19" viewBox="0 0 18 19" fill="none" xmlns="http://www.w3.org/2000/svg">
<g clip-path="url(#clip0_1_162084)">
<path d="M12.4897 1.34261C11.9001 1.07841 10.18 0.910156 9.08846 0.910156C7.99828 0.910156 6.27541 1.07841 5.68722 1.34261C5.11015 1.60125 4.87793 2.11297 4.87793 2.5927V16.1295C4.87793 16.6107 5.11015 17.121 5.68722 17.3796C6.27541 17.6438 7.99828 17.8121 9.08846 17.8121C10.18 17.8121 11.9001 17.6438 12.4897 17.3796C13.0668 17.121 13.299 16.6093 13.299 16.1295V2.59409C13.299 2.11297 13.0668 1.60264 12.4897 1.34261Z" fill="#006CA2"/>
<path d="M9.86318 1.95622H8.31551C8.27716 1.95622 8.24038 1.94099 8.21326 1.91387C8.18613 1.88675 8.1709 1.84996 8.1709 1.81161C8.1709 1.77325 8.18613 1.73647 8.21326 1.70935C8.24038 1.68223 8.27716 1.66699 8.31551 1.66699H9.86318C9.94383 1.66699 10.0078 1.73096 10.0078 1.81161C10.0078 1.89087 9.94383 1.95622 9.86318 1.95622Z" fill="white"/>
<path d="M11.8548 2.19796C12.0077 2.19796 12.1316 2.07407 12.1316 1.92125C12.1316 1.76842 12.0077 1.64453 11.8548 1.64453C11.702 1.64453 11.5781 1.76842 11.5781 1.92125C11.5781 2.07407 11.702 2.19796 11.8548 2.19796Z" fill="white"/>
<path d="M5.6416 3.62207H12.5345V15.0314H5.6416V3.62207Z" fill="url(#paint0_linear_1_162084)"/>
<path d="M6.91588 15.6112V15.7085L6.70312 15.5542L6.91588 15.3984V15.4958H7.03824C7.27741 15.4958 7.43176 15.5667 7.43176 15.7725C7.43176 15.9797 7.27741 16.0506 7.03824 16.0506H6.76292V15.9352H7.03824C7.24126 15.9352 7.31635 15.8907 7.31635 15.7725C7.31635 15.6557 7.24265 15.6112 7.03824 15.6112H6.91588ZM9.49392 16.0117H8.69715V15.6098L9.09623 15.4415L9.49531 15.6098V16.0117H9.49392ZM8.81256 15.8949H9.37851V15.6849L9.09623 15.5653L8.81256 15.6849V15.8949ZM11.3906 16.0117H10.7232V15.5889H11.3906V16.0117ZM10.84 15.8949H11.2766V15.7044H10.84V15.8949Z" fill="white"/>
<path d="M11.5798 15.7729H11.4643V15.5226H10.9707V15.4072H11.5798V15.7729Z" fill="white"/>
</g>
<defs>
<linearGradient id="paint0_linear_1_162084" x1="9.08873" y1="15.0324" x2="9.08873" y2="3.62263" gradientUnits="userSpaceOnUse">
<stop stop-color="white"/>
<stop offset="1" stop-color="#00A0D6"/>
</linearGradient>
<clipPath id="clip0_1_162084">
<rect width="17.7988" height="17.7988" fill="white" transform="translate(0.189453 0.464844)"/>
</clipPath>
</defs>
</svg>
