<svg width="19" height="18" viewBox="0 0 19 18" fill="none" xmlns="http://www.w3.org/2000/svg">
<path d="M14.7688 12.75H13.2688M14.7688 5.25H13.2688M5.7688 5.25H4.2688M5.7688 12.75H4.2688M5.0188 15H14.0188C15.6757 15 17.0188 13.6569 17.0188 12V6C17.0188 4.34315 15.6757 3 14.0188 3H5.0188C3.36194 3 2.0188 4.34315 2.0188 6V12C2.0188 13.6569 3.36194 15 5.0188 15ZM11.0188 9C11.0188 9.82843 10.3472 10.5 9.5188 10.5C8.69037 10.5 8.0188 9.82843 8.0188 9C8.0188 8.17157 8.69037 7.5 9.5188 7.5C10.3472 7.5 11.0188 8.17157 11.0188 9Z" stroke="white" stroke-width="1.5" stroke-linecap="round"/>
</svg>
