<svg width="24" height="25" viewBox="0 0 24 25" fill="none" xmlns="http://www.w3.org/2000/svg">
<g clip-path="url(#clip0_4099_253287)">
<path d="M12 0.5L15 5H13.5V8H10.5V5H9L12 0.5ZM1.5 23V11L22.5 11V23L1.5 23ZM0 24.5L24 24.5V9.5L0 9.5V24.5Z" fill="#FF002D"/>
<path d="M12 21.5C10.8065 21.5 9.66193 21.0259 8.81802 20.182C7.9741 19.3381 7.5 18.1935 7.5 17C7.5 15.8065 7.9741 14.6619 8.81802 13.818C9.66193 12.9741 10.8065 12.5 12 12.5H4.5V14H3V20L4.5 20V21.5L12 21.5ZM16.5 17C16.5 18.1935 16.0259 19.3381 15.182 20.182C14.3381 21.0259 13.1935 21.5 12 21.5H19.5V20H21V14H19.5V12.5L12 12.5C13.1935 12.5 14.3381 12.9741 15.182 13.818C16.0259 14.6619 16.5 15.8065 16.5 17Z" fill="#FF002D"/>
</g>
<defs>
<clipPath id="clip0_4099_253287">
<rect width="24" height="24" fill="white" transform="matrix(-1 0 0 -1 24 24.5)"/>
</clipPath>
</defs>
</svg>
