<svg width="235" height="334" viewBox="0 0 235 334" fill="none" xmlns="http://www.w3.org/2000/svg">
<path d="M85.8933 41.5769C98.6081 40.0986 119.532 42.8143 125.97 49.9849C142.537 68.4338 136.113 76.4186 150.899 92.4529C162.518 105.053 185.958 121.24 206.095 116.775C212.119 115.439 215.311 112.818 220.217 114.442C229.827 117.624 237.223 134.186 232.921 146.382C229.269 156.736 219.891 156.274 190.989 176.721C174.917 188.091 172.031 192.326 170.564 196.843C166.471 209.449 176.317 215.352 172.441 226.609C168.212 238.887 154.623 237.306 140.348 252.14C125.315 267.762 129.359 280.974 123.038 282.254C105.128 285.88 44.0883 185.588 62.1063 87.5475C63.9346 77.5993 65.0003 44.0056 85.8933 41.5769Z" fill="#FBB86F"/>
<path d="M172.826 181.918C172.721 181.918 172.617 181.885 172.527 181.817C172.102 181.492 129.669 148.463 95.1315 71.9901C95.0199 71.7416 95.1297 71.45 95.3777 71.3384C95.6256 71.2274 95.9173 71.336 96.0295 71.5846C130.465 147.835 172.702 180.711 173.125 181.034C173.341 181.199 173.383 181.508 173.217 181.725C173.121 181.851 172.974 181.918 172.826 181.918Z" fill="#101A4E"/>
<path d="M96.5038 289.75C97.6799 292.441 112.647 293.382 122.129 289.237C131.611 285.093 140.033 283.698 138.857 281.007C137.681 278.316 127.352 275.349 117.87 279.493C108.389 283.638 95.3278 287.059 96.5038 289.75Z" fill="#363649"/>
<path d="M130.128 269.131L99.3262 283.506L113.126 313.076L143.928 298.701L130.128 269.131Z" fill="#FCBFA0"/>
<path d="M27.2609 282.657C26.8015 285.558 41.0206 289.508 51.241 291.126C61.4615 292.744 70.1191 291.704 70.5779 288.804C71.0372 285.903 63.1239 282.241 52.9035 280.622C42.6836 279.005 27.7202 279.757 27.2609 282.657Z" fill="#363649"/>
<path d="M35.6952 271.325L30.5918 303.555L64.1641 308.871L69.2675 276.641L35.6952 271.325Z" fill="#FCBFA0"/>
<path d="M107.005 137.359L75.1759 138.447L47.1405 138.757L27.1855 282.399C40.6424 278.91 59.3127 281.09 70.6383 288.098L74.7242 181.204C74.7425 180.72 75.4404 180.666 75.5325 181.143L96.5229 289.933C113.449 279.839 126.96 279.839 138.762 280.771L107.005 137.359Z" fill="#CAC8EB"/>
<path d="M111.742 241.104C111.555 241.104 111.385 240.974 111.341 240.784L100.626 194.196C100.575 193.975 100.713 193.753 100.935 193.702C101.155 193.65 101.377 193.789 101.428 194.011L112.143 240.599C112.195 240.82 112.057 241.042 111.835 241.092C111.804 241.1 111.773 241.104 111.742 241.104Z" fill="#363649"/>
<path d="M63.6566 146.332C54.7014 146.332 48.6524 146.149 48.5243 146.144C48.2964 146.137 48.1181 145.947 48.1252 145.72C48.1329 145.493 48.3383 145.313 48.5497 145.322C48.826 145.33 76.3342 146.165 101.28 144.241C101.509 144.226 101.705 144.394 101.722 144.62C101.739 144.847 101.569 145.045 101.343 145.063C87.9968 146.091 73.919 146.332 63.6566 146.332Z" fill="#363649"/>
<path d="M71.5022 143.99C70.0706 143.99 68.9062 142.825 68.9062 141.394C68.9062 139.963 70.0712 138.799 71.5022 138.799C72.9333 138.799 74.098 139.963 74.098 141.394C74.098 142.825 72.9339 143.99 71.5022 143.99ZM71.5022 139.622C70.5252 139.622 69.7304 140.417 69.7304 141.394C69.7304 142.371 70.5252 143.166 71.5022 143.166C72.4793 143.166 73.2739 142.371 73.2739 141.394C73.2739 140.418 72.4793 139.622 71.5022 139.622Z" fill="#363649"/>
<path d="M52.2714 203.837C52.2555 203.837 52.2384 203.836 52.2218 203.833C51.9957 203.807 51.8352 203.601 51.8624 203.376L56.8309 161.758C56.8587 161.532 57.0605 161.37 57.289 161.398C57.5151 161.425 57.6757 161.63 57.6491 161.855L52.6795 203.474C52.6547 203.683 52.4775 203.837 52.2714 203.837Z" fill="#363649"/>
<path d="M69.2136 277.04C69.1156 277.04 69.0177 277.005 68.9386 276.934C55.4546 264.858 31.1911 271.157 30.9461 271.221C30.7294 271.281 30.5004 271.149 30.4419 270.929C30.3829 270.71 30.5133 270.483 30.7335 270.425C30.9809 270.358 55.6765 263.95 69.4882 276.32C69.6576 276.472 69.6723 276.732 69.52 276.902C69.4391 276.993 69.3269 277.04 69.2136 277.04Z" fill="#363649"/>
<path d="M97.2968 279.924C97.1882 279.924 97.0802 279.881 96.9993 279.796C96.8417 279.632 96.8476 279.371 97.0117 279.214C97.1593 279.073 112.055 265.155 135.318 272.909C135.533 272.981 135.65 273.215 135.578 273.43C135.506 273.646 135.273 273.763 135.057 273.691C112.263 266.095 97.7254 279.671 97.5808 279.809C97.5022 279.886 97.3995 279.924 97.2968 279.924Z" fill="#363649"/>
<path d="M74.9276 180.976C74.7192 180.976 74.5409 180.819 74.5184 180.607C74.5137 180.559 73.9647 175.805 69.2465 172.926C69.0523 172.807 68.9903 172.554 69.1096 172.36C69.2288 172.166 69.4821 172.104 69.6757 172.223C74.7552 175.322 75.3171 180.312 75.3384 180.523C75.3614 180.75 75.1968 180.951 74.9707 180.974C74.956 180.976 74.9418 180.976 74.9276 180.976Z" fill="#363649"/>
<path d="M74.5811 180.812C74.4701 180.812 74.3603 180.768 74.2788 180.68C74.2594 180.66 72.317 178.607 69.0836 178.372C68.8563 178.355 68.6863 178.158 68.7022 177.931C68.7193 177.704 68.9242 177.537 69.1433 177.549C72.7126 177.81 74.796 180.026 74.8833 180.12C75.0374 180.287 75.0268 180.547 74.8603 180.702C74.7817 180.776 74.6814 180.812 74.5811 180.812Z" fill="#363649"/>
<path d="M74.8457 180.721C74.6178 180.721 74.4336 180.536 74.4336 180.309V160.543C74.4336 160.316 74.6184 160.131 74.8457 160.131C75.073 160.131 75.2577 160.316 75.2577 160.543V180.309C75.2577 180.537 75.0736 180.721 74.8457 180.721Z" fill="#363649"/>
<path d="M168.58 333.477H105.435L104.838 315.103L104.266 297.485C104.24 296.659 105.136 296.152 105.847 296.574C112.605 300.599 124.333 298.97 129.498 297.975C131.081 297.67 132.404 296.591 133.016 295.099L135.652 288.666C135.971 287.888 136.719 287.371 137.561 287.349L151.261 286.985C152.735 286.946 153.8 288.384 153.331 289.783L149.598 300.923C149.315 301.767 149.722 302.689 150.539 303.043C169.887 311.445 168.58 333.477 168.58 333.477Z" fill="#8B95F7"/>
<path d="M122.831 316.585C126.868 316.585 130.14 313.729 130.14 310.206C130.14 306.684 126.868 303.828 122.831 303.828C118.794 303.828 115.521 306.684 115.521 310.206C115.521 313.729 118.794 316.585 122.831 316.585Z" fill="white"/>
<path d="M145.582 311.341C145.461 311.341 145.339 311.316 145.222 311.262C144.788 311.063 144.597 310.549 144.796 310.115C147.074 305.144 153.887 305.461 154.175 305.478C154.653 305.505 155.018 305.913 154.992 306.391C154.965 306.868 154.56 307.239 154.081 307.207C154.023 307.2 148.155 306.942 146.369 310.836C146.223 311.154 145.91 311.341 145.582 311.341Z" fill="white"/>
<path d="M150.017 316.201C149.897 316.201 149.774 316.175 149.657 316.121C149.223 315.922 149.032 315.408 149.231 314.974C151.509 310.005 158.322 310.319 158.611 310.338C159.089 310.365 159.454 310.773 159.427 311.25C159.401 311.727 159.005 312.102 158.516 312.067C158.457 312.063 152.589 311.802 150.805 315.695C150.659 316.013 150.346 316.201 150.017 316.201Z" fill="white"/>
<path d="M154.135 321.859C154.014 321.859 153.891 321.834 153.774 321.78C153.341 321.58 153.149 321.067 153.348 320.632C155.628 315.661 162.442 315.979 162.729 315.996C163.206 316.023 163.572 316.43 163.545 316.908C163.518 317.385 163.127 317.76 162.634 317.725C162.547 317.722 156.704 317.468 154.922 321.354C154.776 321.672 154.463 321.859 154.135 321.859Z" fill="white"/>
<path d="M166.454 329.428H109.334C108.856 329.428 108.469 329.041 108.469 328.563C108.469 328.085 108.856 327.697 109.334 327.697H166.454C166.932 327.697 167.319 328.085 167.319 328.563C167.319 329.041 166.932 329.428 166.454 329.428Z" fill="white"/>
<path d="M2.53998 333.477H65.6844L66.282 315.103L66.8534 297.485C66.8799 296.659 65.9832 296.152 65.2729 296.574C58.515 300.599 46.7863 298.97 41.6218 297.975C40.0384 297.67 38.7153 296.591 38.1037 295.099L35.4678 288.666C35.149 287.888 34.4003 287.371 33.559 287.349L19.8585 286.985C18.3844 286.946 17.3199 288.384 17.7886 289.783L21.5215 300.923C21.8043 301.767 21.3969 302.689 20.581 303.043C1.23355 311.445 2.53998 333.477 2.53998 333.477Z" fill="#8B95F7"/>
<path d="M48.2917 316.585C52.3285 316.585 55.6011 313.729 55.6011 310.206C55.6011 306.684 52.3285 303.828 48.2917 303.828C44.2548 303.828 40.9824 306.684 40.9824 310.206C40.9824 313.729 44.2548 316.585 48.2917 316.585Z" fill="white"/>
<path d="M25.5382 311.341C25.21 311.341 24.8964 311.154 24.7506 310.836C22.9647 306.94 17.0947 307.203 17.0386 307.207C16.5492 307.22 16.1536 306.866 16.1283 306.39C16.1023 305.912 16.4672 305.505 16.9442 305.479C17.2305 305.461 24.0445 305.143 26.3245 310.115C26.5234 310.549 26.3328 311.063 25.8983 311.262C25.7814 311.316 25.6587 311.341 25.5382 311.341Z" fill="white"/>
<path d="M21.1137 316.199C20.7854 316.199 20.472 316.012 20.3261 315.695C18.5427 311.801 12.6762 312.063 12.6148 312.066C12.1259 312.08 11.7298 311.725 11.7044 311.249C11.6785 310.772 12.0432 310.364 12.5202 310.338C12.8089 310.321 19.6211 310.004 21.8999 314.973C22.0989 315.408 21.9082 315.921 21.4737 316.121C21.3568 316.174 21.2341 316.199 21.1137 316.199Z" fill="white"/>
<path d="M16.9985 321.858C16.6702 321.858 16.3567 321.671 16.2109 321.354C14.4256 317.458 8.5568 317.721 8.49954 317.725C8.01189 317.738 7.61458 317.384 7.5892 316.907C7.56322 316.43 7.92811 316.023 8.40513 315.996C8.69382 315.978 15.5054 315.661 17.7848 320.632C17.9838 321.067 17.7932 321.58 17.3586 321.78C17.2417 321.833 17.1189 321.858 16.9985 321.858Z" fill="white"/>
<path d="M61.7952 329.428H4.67606C4.19787 329.428 3.81055 329.041 3.81055 328.563C3.81055 328.085 4.19787 327.697 4.67606 327.697H61.7952C62.2734 327.697 62.6607 328.085 62.6607 328.563C62.6607 329.041 62.2728 329.428 61.7952 329.428Z" fill="white"/>
<path d="M108.492 111.348L103.545 112.789L110.457 136.515L115.403 135.074L108.492 111.348Z" fill="#8EADBF"/>
<path d="M105.748 108.429C115.796 105.822 122.755 102.846 126.925 100.527C121.752 95.538 121.734 96.2907 103.025 81.2287L116.829 53.6367C122.905 58.5291 131.106 65.1164 140.493 73.368C156.755 87.6643 162.233 94.2422 160.577 102.684C157.056 120.626 130.075 131.821 113.811 136.041L105.748 108.429Z" fill="#8B95F7"/>
<path d="M107.274 109.91C107.118 109.91 106.969 109.821 106.899 109.67C106.804 109.463 106.894 109.219 107.101 109.123L134.66 96.4169C134.865 96.3218 135.11 96.411 135.207 96.6188C135.302 96.8255 135.212 97.0698 135.005 97.1655L107.446 109.872C107.39 109.897 107.331 109.91 107.274 109.91Z" fill="#363649"/>
<path d="M118.831 126.426C117.845 127.01 117.519 128.282 118.102 129.269C118.686 130.255 119.958 130.582 120.944 129.998C121.931 129.414 122.257 128.142 121.673 127.155C121.09 126.169 119.817 125.843 118.831 126.426Z" fill="white"/>
<path d="M125.179 124.087C124.193 124.67 123.866 125.943 124.449 126.929C125.033 127.916 126.306 128.242 127.292 127.658C128.279 127.075 128.605 125.802 128.022 124.816C127.438 123.829 126.166 123.503 125.179 124.087Z" fill="white"/>
<path d="M127.15 100.595C127.058 100.595 126.965 100.564 126.888 100.501L110.167 86.7121C109.992 86.5669 109.967 86.3077 110.112 86.1324C110.256 85.9564 110.515 85.9322 110.691 86.0762L127.412 99.8654C127.587 100.011 127.612 100.27 127.467 100.445C127.386 100.544 127.268 100.595 127.15 100.595Z" fill="#363649"/>
<path d="M114.422 136.101C114.238 136.101 114.072 135.978 114.023 135.793C113.966 135.573 114.097 135.348 114.317 135.29C136.097 129.585 147.932 119.725 148.049 119.627C148.222 119.48 148.482 119.502 148.629 119.675C148.776 119.849 148.755 120.108 148.581 120.255C148.463 120.355 136.499 130.331 114.526 136.087C114.491 136.097 114.456 136.101 114.422 136.101Z" fill="#363649"/>
<path d="M53.4354 112.991L46.5234 136.717L51.47 138.158L58.3819 114.432L53.4354 112.991Z" fill="#8EADBF"/>
<path d="M48.0267 137.617C31.7633 133.398 4.78245 122.201 1.26151 104.261C-0.395062 95.8185 5.08342 89.2401 21.3451 74.9444C30.7325 66.6922 40.8243 59.0629 46.9009 54.1699L58.8128 82.8045C40.104 97.8665 40.0864 97.1138 34.9136 102.103C39.0827 104.422 46.0425 107.398 56.0905 110.005L48.0267 137.617Z" fill="#8B95F7"/>
<path d="M54.5595 111.486C54.5011 111.486 54.4432 111.473 54.3872 111.448L26.8277 98.7413C26.6205 98.6457 26.5307 98.4013 26.6258 98.1947C26.7214 97.9874 26.9664 97.8983 27.1725 97.9927L54.7319 110.699C54.9391 110.795 55.0289 111.039 54.9338 111.246C54.8642 111.397 54.7154 111.486 54.5595 111.486Z" fill="#363649"/>
<path d="M42.9989 127.995C43.9854 128.579 44.3118 129.851 43.7285 130.837C43.1452 131.824 41.8725 132.15 40.8859 131.566C39.8994 130.982 39.5731 129.71 40.1569 128.724C40.7396 127.738 42.0124 127.411 42.9989 127.995Z" fill="white"/>
<path d="M36.6475 125.657C37.634 126.24 37.9606 127.513 37.3773 128.499C36.7934 129.486 35.521 129.812 34.5345 129.228C33.548 128.645 33.2217 127.372 33.8049 126.386C34.3888 125.4 35.6616 125.073 36.6475 125.657Z" fill="white"/>
<path d="M47.4049 137.669C47.3707 137.669 47.3358 137.665 47.3004 137.655C25.327 131.899 13.3643 121.924 13.2451 121.824C13.0715 121.677 13.0504 121.417 13.1974 121.244C13.3438 121.07 13.6035 121.048 13.7771 121.195C13.8939 121.294 25.7296 131.153 47.5088 136.859C47.729 136.917 47.8607 137.142 47.8028 137.362C47.7544 137.546 47.5879 137.669 47.4049 137.669Z" fill="#363649"/>
<path d="M70.3753 78.8829C77.0642 72.194 77.0642 61.3491 70.3753 54.6601C63.6863 47.9711 52.8414 47.9711 46.1524 54.6601C39.4635 61.349 39.4635 72.194 46.1524 78.8829C52.8414 85.5719 63.6863 85.5719 70.3753 78.8829Z" fill="#8B95F7"/>
<path d="M51.2156 71.9915L55.0423 138.633L99.3961 138.522L105.61 49.9082H71.8047C69.6156 49.9082 67.5092 50.2501 65.5356 50.8788C56.7191 53.6795 50.532 62.2374 51.2156 71.9915Z" fill="#FDFAEF"/>
<path d="M122.765 70.949C124.939 61.7428 119.238 52.5174 110.032 50.3436C100.826 48.1697 91.6002 53.8707 89.4263 63.0769C87.2525 72.283 92.9533 81.5083 102.16 83.6822C111.366 85.856 120.591 80.1552 122.765 70.949Z" fill="#8B95F7"/>
<path d="M89.1472 49.8595C89.1472 49.8595 71.7178 101.716 85.5791 151.812C86.2149 154.111 88.2155 155.773 90.5894 156.01L117.919 158.738C124.001 158.9 122.608 151.342 121.03 145.945C116.204 129.429 108.273 117.741 107.297 108.176C105.936 94.8448 107.051 49.7969 107.051 49.7969L89.1472 49.8595Z" fill="#8B95F7"/>
<path d="M67.2522 49.957C67.2522 49.957 52.3283 104.683 55.7336 152.849C55.8446 154.421 54.4637 155.688 52.9045 155.455L45.8957 154.408C43.8961 154.109 42.4409 152.356 42.5165 150.335C43.1576 133.191 46.3319 59.5582 53.7493 54.4675C62.1479 48.7031 67.2522 49.957 67.2522 49.957Z" fill="#8B95F7"/>
<path d="M56.3332 99.3565C56.126 99.3565 55.9484 99.2012 55.9248 98.9904L52.4688 68.2931L55.7447 66.7948L52.5431 62.5636L60.7675 50.8183C60.8973 50.6323 61.1525 50.5863 61.3414 50.7173C61.5274 50.8478 61.5734 51.1046 61.4423 51.2911L53.5627 62.5447L57.021 67.1177L53.3543 68.7943L56.743 98.8983C56.7684 99.1244 56.606 99.3287 56.3799 99.3541C56.364 99.3559 56.3486 99.3565 56.3332 99.3565Z" fill="#363649"/>
<path d="M81.9807 98.2598C81.9305 98.2598 81.8792 98.2503 81.8296 98.2309C81.6183 98.1476 81.5137 97.9085 81.597 97.6966L92.7136 69.516L89.6106 66.9414L94.1913 63.3898L92.4934 50.7441C92.4627 50.5186 92.6214 50.3114 92.847 50.2813C93.0648 50.25 93.2798 50.4088 93.3099 50.6349L95.0709 63.7505L90.9271 66.9632L93.6989 69.2627L82.3633 97.9988C82.3002 98.1606 82.1448 98.2598 81.9807 98.2598Z" fill="#363649"/>
<path d="M99.7961 62.7985C99.5972 62.7985 99.4218 62.6538 99.39 62.4508C97.8774 52.8744 108.172 50.2485 108.277 50.2231C108.497 50.1682 108.72 50.3046 108.774 50.5254C108.829 50.7462 108.693 50.9687 108.472 51.023C108.447 51.0289 105.996 51.6441 103.763 53.3556C100.819 55.6132 99.6203 58.6299 100.204 62.3221C100.24 62.547 100.086 62.7578 99.8611 62.7932C99.8393 62.7973 99.8174 62.7985 99.7961 62.7985Z" fill="#363649"/>
<path d="M43.024 121.187C44.0625 120.722 44.8033 119.699 44.8499 118.486C44.9627 115.536 46.1925 113.105 47.9098 112.432C48.365 112.254 48.8886 112.19 49.4666 112.241C51.1645 112.392 52.6641 111.139 52.8147 109.441C52.9658 107.743 51.7118 106.244 50.0139 106.093C48.4777 105.956 47.0143 106.154 45.663 106.682C41.5652 108.281 38.892 112.714 38.68 118.25C38.6151 119.953 39.9429 121.387 41.6467 121.452C42.1373 121.471 42.6049 121.374 43.024 121.187Z" fill="#FCBFA0"/>
<path d="M42.5797 110.244C42.4846 110.244 42.3895 110.212 42.3116 110.145C42.1392 109.997 42.1192 109.737 42.2668 109.564C45.93 105.284 50.5308 105.492 50.725 105.5C50.9518 105.512 51.1253 105.707 51.1129 105.933C51.1005 106.16 50.9216 106.33 50.6795 106.322C50.6429 106.32 46.2807 106.14 42.8932 110.099C42.8111 110.195 42.6954 110.244 42.5797 110.244Z" fill="#363649"/>
<path d="M42.2473 118.521C42.1966 118.521 42.1447 118.512 42.0946 118.492C41.8844 118.407 41.7816 118.169 41.8648 117.958C41.918 117.824 43.2233 114.673 48.5047 112.749C50.3496 112.077 51.5735 111.161 52.0458 110.099C52.4602 109.167 52.1726 108.433 52.1596 108.402C52.0746 108.193 52.1739 107.952 52.3835 107.866C52.5913 107.779 52.8309 107.876 52.9195 108.084C52.9372 108.127 53.3575 109.148 52.8097 110.408C52.2435 111.709 50.8898 112.757 48.7869 113.524C43.8798 115.311 42.6418 118.235 42.6294 118.264C42.5651 118.424 42.4109 118.521 42.2473 118.521Z" fill="#363649"/>
<path d="M43.4238 125.91C44.4623 125.445 45.2032 124.422 45.2499 123.209C45.3626 120.259 46.5923 117.828 48.3096 117.155C48.7648 116.977 49.2885 116.913 49.8664 116.965C51.5643 117.115 53.0639 115.862 53.2151 114.164C53.3662 112.466 52.1122 110.967 50.4143 110.815C48.8781 110.678 47.4141 110.877 46.0633 111.405C41.9656 113.004 39.2924 117.438 39.0804 122.972C39.0155 124.676 40.3433 126.109 42.0471 126.175C42.5371 126.194 43.0053 126.098 43.4238 125.91Z" fill="#FCBFA0"/>
<path d="M42.9917 114.967C42.8967 114.967 42.8017 114.934 42.7238 114.867C42.5514 114.72 42.5312 114.459 42.6788 114.286C46.3415 110.006 50.9417 110.213 51.1371 110.223C51.3638 110.235 51.5374 110.43 51.525 110.656C51.5126 110.883 51.3377 111.049 51.0916 111.045C51.0532 111.044 46.6928 110.863 43.3052 114.822C43.2238 114.918 43.1075 114.967 42.9917 114.967Z" fill="#363649"/>
<path d="M42.6479 123.246C42.5971 123.246 42.5451 123.236 42.495 123.216C42.2848 123.131 42.182 122.893 42.2652 122.682C42.3183 122.549 43.6237 119.398 48.9051 117.473C50.75 116.801 51.9739 115.885 52.4462 114.823C52.8606 113.891 52.5732 113.157 52.5602 113.127C52.4752 112.917 52.5743 112.677 52.7839 112.59C52.9917 112.504 53.2313 112.6 53.3199 112.809C53.3376 112.852 53.7579 113.872 53.2101 115.132C52.6439 116.433 51.2908 117.481 49.1873 118.248C44.2802 120.035 43.0422 122.959 43.0298 122.988C42.9655 123.148 42.8108 123.246 42.6479 123.246Z" fill="#363649"/>
<path d="M42.9309 131.321C43.9694 130.857 44.7103 129.834 44.7569 128.621C44.8697 125.67 46.0995 123.239 47.8175 122.566C48.2726 122.389 48.7963 122.324 49.3742 122.376C51.0721 122.527 52.5717 121.273 52.7229 119.576C52.874 117.878 51.62 116.379 49.9221 116.228C48.3859 116.091 46.9219 116.289 45.5712 116.817C41.4734 118.416 38.8002 122.849 38.5882 128.384C38.5233 130.088 39.8511 131.522 41.5549 131.587C42.0443 131.605 42.5118 131.509 42.9309 131.321Z" fill="#FCBFA0"/>
<path d="M42.4957 120.379C42.4007 120.379 42.3055 120.346 42.2276 120.28C42.0552 120.133 42.0352 119.872 42.1828 119.699C45.8454 115.419 50.4473 115.625 50.6415 115.635C50.8682 115.648 51.0419 115.842 51.0295 116.069C51.0171 116.295 50.8364 116.469 50.5961 116.458C50.5601 116.453 46.1967 116.275 42.8092 120.234C42.7277 120.33 42.612 120.379 42.4957 120.379Z" fill="#363649"/>
<path d="M42.1536 128.656C42.1028 128.656 42.051 128.646 42.0008 128.626C41.7906 128.541 41.6878 128.303 41.7711 128.093C41.8242 127.959 43.1295 124.808 48.411 122.884C50.2559 122.212 51.4797 121.296 51.952 120.234C52.3665 119.301 52.0789 118.568 52.0659 118.537C51.9809 118.327 52.0801 118.087 52.2897 118C52.4975 117.914 52.7378 118.01 52.8257 118.219C52.8435 118.262 53.2638 119.283 52.7159 120.543C52.1498 121.844 50.7961 122.892 48.6932 123.658C43.786 125.446 42.5481 128.369 42.5357 128.399C42.4713 128.558 42.3171 128.656 42.1536 128.656Z" fill="#363649"/>
<path d="M43.8241 136.204C44.8625 135.74 45.6035 134.717 45.6501 133.503C45.7629 130.553 46.9926 128.122 48.7106 127.449C49.1658 127.271 49.6894 127.208 50.2674 127.259C51.9653 127.41 53.4648 126.156 53.6153 124.458C53.7664 122.76 52.5126 121.261 50.8147 121.11C49.2785 120.973 47.8149 121.172 46.4636 121.7C42.3659 123.299 39.6927 127.733 39.4808 133.267C39.4159 134.971 40.7435 136.404 42.4473 136.47C42.9373 136.488 43.4049 136.392 43.8241 136.204Z" fill="#FCBFA0"/>
<path d="M43.3883 125.253C43.2932 125.253 43.1981 125.22 43.1202 125.154C42.9478 125.007 42.9278 124.746 43.0754 124.573C46.738 120.293 51.3363 120.501 51.5335 120.51C51.7602 120.522 51.9338 120.716 51.9214 120.943C51.909 121.17 51.7242 121.337 51.4881 121.332C51.4521 121.33 47.0893 121.15 43.7018 125.109C43.6197 125.204 43.504 125.253 43.3883 125.253Z" fill="#363649"/>
<path d="M43.0565 133.531C43.0169 133.531 42.9761 133.525 42.9366 133.513C42.7199 133.447 42.5966 133.219 42.6621 133.001C42.7064 132.853 43.8169 129.336 49.1195 127.404C51.5873 126.506 52.4999 125.455 52.8311 124.732C53.1765 123.978 52.9752 123.429 52.9663 123.405C52.886 123.194 52.9899 122.956 53.2001 122.873C53.4097 122.79 53.6459 122.89 53.7315 123.099C53.7451 123.133 54.0727 123.964 53.5963 125.038C53.0307 126.313 51.6192 127.37 49.4018 128.178C44.5123 129.959 43.4609 133.207 43.4508 133.239C43.3965 133.416 43.233 133.531 43.0565 133.531Z" fill="#363649"/>
<path d="M114.26 120.606C113.139 120.411 112.168 119.603 111.824 118.438C110.987 115.608 109.195 113.555 107.365 113.326C106.88 113.266 106.356 113.333 105.809 113.526C104.201 114.091 102.438 113.246 101.873 111.638C101.307 110.03 102.153 108.268 103.761 107.702C105.216 107.191 106.683 107.021 108.123 107.2C112.488 107.739 116.173 111.375 117.744 116.687C118.227 118.321 117.294 120.039 115.659 120.522C115.189 120.662 114.712 120.684 114.26 120.606Z" fill="#FCBFA0"/>
<path d="M111.874 109.907C111.792 109.907 111.71 109.883 111.638 109.832C107.379 106.832 103.201 108.081 103.159 108.094C102.945 108.161 102.711 108.041 102.644 107.823C102.576 107.606 102.696 107.376 102.913 107.308C103.099 107.248 107.507 105.914 112.113 109.159C112.298 109.29 112.343 109.547 112.212 109.733C112.131 109.847 112.004 109.907 111.874 109.907Z" fill="#363649"/>
<path d="M114.248 117.843C114.121 117.843 113.995 117.784 113.915 117.673C113.897 117.649 111.975 115.121 106.779 114.599C104.551 114.376 102.98 113.694 102.111 112.573C101.269 111.488 101.424 110.394 101.432 110.348C101.466 110.123 101.673 109.967 101.901 110.003C102.125 110.038 102.279 110.246 102.247 110.47C102.242 110.505 102.145 111.286 102.776 112.086C103.495 112.998 104.908 113.584 106.861 113.78C112.455 114.342 114.497 117.074 114.581 117.189C114.715 117.373 114.674 117.631 114.49 117.765C114.417 117.817 114.332 117.843 114.248 117.843Z" fill="#363649"/>
<path d="M115.035 125.291C113.914 125.096 112.943 124.288 112.599 123.123C111.762 120.292 109.97 118.24 108.14 118.012C107.655 117.952 107.132 118.019 106.584 118.211C104.976 118.776 103.214 117.932 102.648 116.323C102.083 114.715 102.928 112.953 104.536 112.387C105.991 111.876 107.459 111.707 108.898 111.885C113.264 112.424 116.948 116.061 118.519 121.372C119.003 123.007 118.069 124.724 116.435 125.208C115.964 125.347 115.487 125.369 115.035 125.291Z" fill="#FCBFA0"/>
<path d="M112.652 114.581C112.57 114.581 112.488 114.557 112.415 114.506C108.141 111.493 103.98 112.754 103.938 112.767C103.719 112.836 103.489 112.714 103.421 112.498C103.353 112.28 103.474 112.05 103.69 111.981C103.876 111.923 108.285 110.588 112.891 113.832C113.076 113.964 113.121 114.22 112.99 114.406C112.91 114.52 112.782 114.581 112.652 114.581Z" fill="#363649"/>
<path d="M115.026 122.517C114.898 122.517 114.772 122.458 114.692 122.347C114.674 122.323 112.753 119.796 107.556 119.274C105.328 119.05 103.757 118.368 102.888 117.247C102.046 116.161 102.202 115.068 102.209 115.022C102.244 114.797 102.453 114.641 102.679 114.677C102.902 114.711 103.057 114.92 103.024 115.144C103.018 115.185 102.925 115.963 103.553 116.759C104.273 117.671 105.685 118.258 107.638 118.454C113.233 119.016 115.275 121.747 115.359 121.863C115.493 122.047 115.451 122.305 115.268 122.439C115.194 122.492 115.109 122.517 115.026 122.517Z" fill="#363649"/>
<path d="M116.849 130.402C115.728 130.208 114.758 129.4 114.413 128.235C113.576 125.404 111.784 123.352 109.954 123.123C109.469 123.064 108.946 123.13 108.399 123.323C106.791 123.888 105.028 123.043 104.463 121.435C103.897 119.827 104.743 118.064 106.351 117.499C107.805 116.988 109.273 116.818 110.712 116.996C115.078 117.535 118.763 121.172 120.333 126.484C120.817 128.118 119.884 129.836 118.249 130.319C117.779 130.459 117.301 130.481 116.849 130.402Z" fill="#FCBFA0"/>
<path d="M114.464 119.706C114.381 119.706 114.299 119.682 114.227 119.631C109.969 116.631 105.79 117.879 105.749 117.892C105.534 117.961 105.301 117.839 105.234 117.622C105.166 117.405 105.286 117.174 105.502 117.106C105.689 117.047 110.097 115.713 114.702 118.957C114.887 119.088 114.932 119.345 114.801 119.531C114.721 119.645 114.593 119.706 114.464 119.706Z" fill="#363649"/>
<path d="M116.842 127.642C116.715 127.642 116.589 127.583 116.509 127.472C116.491 127.448 114.569 124.921 109.373 124.399C107.145 124.175 105.574 123.493 104.705 122.372C103.863 121.287 104.018 120.193 104.026 120.147C104.06 119.922 104.265 119.766 104.495 119.802C104.719 119.836 104.874 120.045 104.841 120.269C104.835 120.31 104.742 121.088 105.37 121.884C106.09 122.796 107.502 123.383 109.455 123.579C115.049 124.14 117.091 126.872 117.175 126.988C117.309 127.172 117.268 127.43 117.084 127.564C117.01 127.617 116.925 127.642 116.842 127.642Z" fill="#363649"/>
<path d="M117.171 135.359C116.05 135.165 115.08 134.357 114.736 133.192C113.898 130.361 112.107 128.309 110.277 128.08C109.792 128.021 109.268 128.087 108.721 128.28C107.113 128.845 105.351 128 104.785 126.392C104.219 124.784 105.065 123.021 106.673 122.456C108.128 121.945 109.595 121.775 111.035 121.953C115.4 122.492 119.085 126.129 120.656 131.441C121.139 133.075 120.206 134.793 118.571 135.276C118.101 135.416 117.624 135.438 117.171 135.359Z" fill="#FCBFA0"/>
<path d="M114.792 124.653C114.71 124.653 114.628 124.629 114.556 124.578C110.282 121.566 106.12 122.826 106.079 122.839C105.859 122.907 105.63 122.787 105.562 122.57C105.494 122.353 105.614 122.122 105.831 122.053C106.017 121.994 110.426 120.661 115.031 123.905C115.216 124.036 115.261 124.293 115.13 124.479C115.05 124.592 114.922 124.653 114.792 124.653Z" fill="#363649"/>
<path d="M117.169 132.594C117.029 132.594 116.893 132.522 116.815 132.394C116.798 132.366 114.978 129.479 109.801 128.959C107.452 128.723 105.823 128.047 104.96 126.951C104.234 126.028 104.346 125.143 104.351 125.105C104.383 124.879 104.591 124.724 104.816 124.754C105.039 124.785 105.196 124.99 105.168 125.214C105.165 125.247 105.11 125.826 105.627 126.466C106.126 127.084 107.27 127.877 109.883 128.139C115.498 128.703 117.442 131.837 117.521 131.97C117.638 132.165 117.575 132.418 117.38 132.536C117.314 132.575 117.241 132.594 117.169 132.594Z" fill="#363649"/>
<path d="M98.4632 134.159C94.9895 134.159 91.0919 133.565 87.2091 131.781C87.0018 131.686 86.9115 131.441 87.0065 131.234C87.101 131.027 87.3484 130.938 87.5527 131.031C98.7997 136.199 110.193 131.084 110.307 131.031C110.513 130.938 110.758 131.027 110.853 131.234C110.948 131.441 110.858 131.686 110.651 131.781C110.573 131.817 105.356 134.159 98.4632 134.159Z" fill="#363649"/>
<path d="M65.3405 30.154C68.5492 29.3964 70.5362 26.181 69.7785 22.9724C69.0208 19.7637 65.8055 17.7768 62.5968 18.5344C59.3881 19.2921 57.4013 22.5074 58.159 25.716C58.9166 28.9247 62.1319 30.9117 65.3405 30.154Z" fill="#363649"/>
<path d="M92.1989 26.8267C94.5302 24.4954 94.5302 20.7155 92.1989 18.3842C89.8676 16.0529 86.0877 16.0529 83.7564 18.3842C81.4251 20.7155 81.4251 24.4954 83.7564 26.8267C86.0877 29.158 89.8676 29.158 92.1989 26.8267Z" fill="#363649"/>
<path d="M69.6582 51.2791C74.5506 53.5839 83.8163 53.9682 87.4453 48.701L87.5763 32.875H69.6582V51.2791Z" fill="#FCBFA0"/>
<path d="M69.6685 44.7516L69.666 49.7249C69.666 49.7249 79.6432 45.0415 80.8647 37.6094" fill="#363649"/>
<path d="M60.6741 26.4294C60.6694 27.5901 60.7284 28.7165 60.847 29.8028C61.0053 31.3194 61.2716 32.7564 61.6229 34.1001C62.858 38.8519 65.1048 42.413 67.2042 44.0283C70.3951 46.4883 86.1419 38.6984 87.9791 32.9542C90.6759 24.5178 83.4352 13.9969 74.9197 12.273C71.1166 11.5073 65.5051 12.1745 62.8969 15.7899C62.0078 17.0249 60.6983 20.3392 60.6741 26.4294Z" fill="#FCBFA0"/>
<path d="M91.8805 29.4174C91.3988 31.9584 88.9482 33.6279 86.4072 33.1462C83.8663 32.6645 82.1968 30.2138 82.6785 27.6729C83.1602 25.132 85.6109 23.4624 88.1518 23.9441C90.6927 24.4265 92.3622 26.8765 91.8805 29.4174Z" fill="#FCBFA0"/>
<path d="M88.2148 31.1566C88.1593 31.1566 88.1032 31.1453 88.0489 31.1217C87.8405 31.0302 87.7459 30.7876 87.838 30.5792C89.1126 27.6781 87.2831 26.4218 87.2046 26.3699C87.0156 26.2447 86.9625 25.9897 87.0865 25.8002C87.2105 25.6107 87.4643 25.5564 87.6532 25.6786C87.6786 25.6951 90.1582 27.3481 88.5926 30.9104C88.5235 31.0645 88.3724 31.1566 88.2148 31.1566Z" fill="#363649"/>
<path d="M85.9085 29.5429C85.7556 29.5429 85.6098 29.4585 85.5384 29.3121C85.438 29.1078 85.5224 28.8611 85.7261 28.7607C86.15 28.5529 88.2724 27.5121 88.443 27.4395C88.6537 27.3497 88.8935 27.4483 88.9826 27.6567C89.0717 27.8657 88.9742 28.1078 88.7658 28.1975C88.6413 28.2512 87.0579 29.0246 86.0897 29.4998C86.0307 29.5294 85.9688 29.5429 85.9085 29.5429Z" fill="#363649"/>
<path d="M72.452 26.3352C72.3988 26.2992 72.3988 26.2331 72.452 26.1982L74.4799 24.8711C75.3141 24.1491 76.761 24.1957 77.4352 25.0382L79.1479 26.4917C79.2152 26.5483 79.2064 26.6316 79.1279 26.6759L77.1489 27.8011C76.3827 28.2368 75.1298 28.1801 74.4031 27.6759C73.6303 27.1405 72.7477 26.5371 72.452 26.3352Z" fill="white"/>
<path d="M79.2668 26.9448C79.1582 26.9448 79.05 26.9023 78.9691 26.8179L77.1839 24.9547C76.6172 24.3625 75.4299 24.2941 74.7853 24.8166L72.6381 26.5575C72.4622 26.701 72.2017 26.6738 72.0589 26.4967C71.9154 26.3202 71.9426 26.0604 72.1197 25.917L74.267 24.176C75.2423 23.3849 76.9159 23.4841 77.779 24.3838L79.5643 26.247C79.7219 26.4111 79.716 26.6721 79.5519 26.8297C79.4722 26.9064 79.3695 26.9448 79.2668 26.9448Z" fill="#363649"/>
<path d="M76.0601 26.3084C76.0288 26.9602 75.475 27.4638 74.8233 27.4331C74.1715 27.4024 73.6679 26.848 73.6986 26.1963C73.7293 25.5439 74.2836 25.0409 74.9354 25.0716C75.5878 25.1029 76.0908 25.6567 76.0601 26.3084Z" fill="#363649"/>
<path d="M62.2102 26.7164C62.1529 26.6863 62.1458 26.6207 62.1942 26.58L64.0563 25.0291C64.8019 24.2162 66.2448 24.0963 67.0117 24.8555L68.8801 26.1024C68.9533 26.1514 68.954 26.2347 68.8814 26.2878L67.0447 27.6327C66.3339 28.1534 65.0823 28.2407 64.303 27.8239C63.4736 27.3805 62.5272 26.8829 62.2102 26.7164Z" fill="white"/>
<path d="M62.1286 27.0378C62.0247 27.0378 61.9202 26.9988 61.8405 26.9203C61.6781 26.7609 61.6752 26.5005 61.834 26.3376L63.7663 24.3611C64.6447 23.4631 66.3184 23.3692 67.2795 24.1638L69.4114 25.9302L69.4314 26.1487C69.4343 26.2803 69.3795 26.4066 69.2803 26.4964C69.1109 26.6481 68.8505 26.6351 68.6988 26.4669C68.6657 26.4309 68.6404 26.3901 68.6232 26.347L66.7535 24.7991C66.123 24.2766 64.9346 24.3457 64.3549 24.9372L62.4227 26.9138C62.3424 26.9964 62.2349 27.0378 62.1286 27.0378Z" fill="#363649"/>
<path d="M65.7791 26.274C65.8234 26.9252 65.3311 27.4889 64.68 27.5332C64.0282 27.5775 63.4649 27.0851 63.4207 26.434C63.377 25.7828 63.8688 25.219 64.5205 25.1747C65.1717 25.1298 65.7348 25.6222 65.7791 26.274Z" fill="#363649"/>
<path d="M73.2026 38.7201C71.9693 38.7201 70.6822 38.0028 69.3692 36.5812C69.2145 36.4141 69.2252 36.1531 69.3923 35.9991C69.5588 35.8444 69.8198 35.8544 69.9744 36.0221C71.2608 37.4148 72.4675 38.0406 73.555 37.8694C75.1295 37.6279 76.0138 35.7918 76.0227 35.7735C76.1195 35.5681 76.3645 35.4795 76.5711 35.5764C76.7771 35.6732 76.8651 35.9176 76.7688 36.1236C76.7263 36.2151 75.695 38.3717 73.686 38.6835C73.526 38.7077 73.3643 38.7201 73.2026 38.7201Z" fill="#363649"/>
<path d="M78.8352 23.4386C78.7644 23.4386 78.6918 23.4203 78.6262 23.3813C78.5477 23.3347 76.6698 22.2579 74.3863 23.2078C74.1791 23.2939 73.9346 23.1953 73.8478 22.9852C73.761 22.775 73.8602 22.5341 74.0704 22.4462C76.7435 21.3345 78.954 22.6162 79.0467 22.6717C79.2427 22.788 79.3064 23.0407 79.1901 23.2361C79.1122 23.3665 78.9757 23.4386 78.8352 23.4386Z" fill="#363649"/>
<path d="M67.9895 23.1666C67.9187 23.1666 67.8461 23.1483 67.7805 23.1094C67.7014 23.0627 65.8234 21.9853 63.5404 22.9358C63.332 23.0226 63.0895 22.924 63.0021 22.7138C62.9153 22.5037 63.0145 22.2628 63.2246 22.1748C65.8984 21.0626 68.1075 22.3454 68.2008 22.4004C68.3968 22.5167 68.4607 22.7693 68.3444 22.9647C68.2665 23.0946 68.13 23.1666 67.9895 23.1666Z" fill="#363649"/>
<path d="M60.1382 20.7503C62.3136 20.7503 64.0771 18.5843 64.0771 15.9123C64.0771 13.2403 62.3136 11.0742 60.1382 11.0742C57.9628 11.0742 56.1992 13.2403 56.1992 15.9123C56.1992 18.5843 57.9628 20.7503 60.1382 20.7503Z" fill="#363649"/>
<path d="M65.2911 17.2409C68.772 17.2409 71.5938 14.3411 71.5938 10.764C71.5938 7.18693 68.772 4.28711 65.2911 4.28711C61.8101 4.28711 58.9883 7.18693 58.9883 10.764C58.9883 14.3411 61.8101 17.2409 65.2911 17.2409Z" fill="#363649"/>
<path d="M82.8736 16.3009C86.0819 16.3009 88.6828 13.6281 88.6828 10.3311C88.6828 7.03409 86.0819 4.36133 82.8736 4.36133C79.6652 4.36133 77.0645 7.03409 77.0645 10.3311C77.0645 13.6281 79.6652 16.3009 82.8736 16.3009Z" fill="#363649"/>
<path d="M88.0339 19.0372C91.2422 19.0372 93.8431 16.3645 93.8431 13.0674C93.8431 9.77042 91.2422 7.09766 88.0339 7.09766C84.8255 7.09766 82.2246 9.77042 82.2246 13.0674C82.2246 16.3645 84.8255 19.0372 88.0339 19.0372Z" fill="#363649"/>
<path d="M74.8974 16.7762C79.1543 16.7762 82.6051 13.2302 82.6051 8.85588C82.6051 4.48159 79.1543 0.935547 74.8974 0.935547C70.6405 0.935547 67.1895 4.48159 67.1895 8.85588C67.1895 13.2302 70.6405 16.7762 74.8974 16.7762Z" fill="#363649"/>
<path d="M62.9409 19.4246L65.8266 18.3324C65.8266 18.3324 65.9594 18.4192 66.2133 18.5526C67.6113 19.287 72.6831 21.4365 79.4954 18.3324L87.9245 17.5519L83.5961 10.7633L70.5342 10.1387L63.2437 15.1332L61.2695 18.4109" fill="#363649"/>
<path d="M75.6353 31.7649C73.0365 31.7649 70.9219 29.6502 70.9219 27.0514C70.9219 24.4526 73.0365 22.3379 75.6353 22.3379C78.2341 22.3379 80.3487 24.452 80.3487 27.0514C80.3487 29.6508 78.2341 31.7649 75.6353 31.7649ZM75.6353 23.162C73.4905 23.162 71.746 24.9072 71.746 27.0514C71.746 29.1962 73.4905 30.9413 75.6353 30.9413C77.7801 30.9413 79.5246 29.1962 79.5246 27.0514C79.5246 24.9066 77.7801 23.162 75.6353 23.162Z" fill="#363649"/>
<path d="M64.6296 31.6125C62.0308 31.6125 59.916 29.4978 59.916 26.899C59.916 24.2997 62.0308 22.1855 64.6296 22.1855C67.2284 22.1855 69.343 24.2997 69.343 26.899C69.3436 29.4978 67.229 31.6125 64.6296 31.6125ZM64.6296 23.0091C62.4848 23.0091 60.7402 24.7542 60.7402 26.899C60.7402 29.0438 62.4848 30.7884 64.6296 30.7884C66.7744 30.7884 68.5189 29.0433 68.5189 26.899C68.5189 24.7542 66.7744 23.0091 64.6296 23.0091Z" fill="#363649"/>
<path d="M69.2995 33.7115C69.1484 33.7115 69.0032 33.6282 68.9311 33.4848L67.6116 30.8624C67.1901 30.0742 67.2906 29.1119 67.8715 28.4206L70.1054 25.1594C70.2341 24.9723 70.4909 24.9239 70.678 25.0526C70.8658 25.1813 70.9129 25.4375 70.7848 25.6252L68.5267 28.9189C68.1394 29.3835 68.0763 29.9851 68.3425 30.4834L69.6668 33.1152C69.7695 33.3183 69.6874 33.5663 69.4837 33.6684C69.4247 33.6973 69.3615 33.7115 69.2995 33.7115Z" fill="#363649"/>
<path d="M71.6237 25.9726H68.6972C68.4693 25.9726 68.2852 25.7878 68.2852 25.5605C68.2852 25.3332 68.4699 25.1484 68.6972 25.1484H71.6237C71.8516 25.1484 72.0358 25.3332 72.0358 25.5605C72.0358 25.7878 71.8516 25.9726 71.6237 25.9726Z" fill="#363649"/>
<path d="M79.6477 26.0386C79.4488 26.0386 79.2734 25.894 79.2416 25.6915C79.2056 25.4666 79.359 25.2558 79.5839 25.2204L88.0704 23.8744C88.2983 23.8384 88.5061 23.9918 88.5422 24.2168C88.5782 24.4417 88.4246 24.6525 88.1997 24.6879L79.7132 26.0339C79.6907 26.0369 79.669 26.0386 79.6477 26.0386Z" fill="#363649"/>
<path d="M73.6806 51.1578L67.0254 56.541L72.4086 63.1962L79.0638 57.813L73.6806 51.1578Z" fill="#FBB86F"/>
<path d="M61.6816 110.691L65.552 119.241L72.6418 111.926L76.9715 58.818L69.2141 57.8145L61.6816 110.691Z" fill="#FBB86F"/>
<path d="M91.0633 50.1203L88.0979 47.4082L74.3795 51.3288L69.4085 49.4763C65.5085 50.3577 63.8184 49.3706 61.4492 50.1788L68.2815 57.3494L74.4562 51.869L79.2417 57.7349L91.0633 50.1203Z" fill="#FDFAEF"/>
<path d="M78.9335 58.3225L74.3321 52.8392L68.2538 57.9175L61.1552 50.4677C60.9976 50.3029 61.0041 50.042 61.1688 49.885C61.3335 49.7279 61.5957 49.735 61.7509 49.8991L68.318 56.7905L74.4343 51.6803L79.1082 57.2504L90.6765 50.1831C90.8719 50.0644 91.1245 50.1258 91.2432 50.3201C91.3613 50.5143 91.3005 50.7676 91.1068 50.8868L78.9335 58.3225Z" fill="#363649"/>
<path d="M46.0412 94.9951C46.0324 94.9951 46.0241 94.9951 46.0153 94.9945C45.788 94.9809 45.6156 94.7855 45.6297 94.5582L46.8778 74.2691C46.8913 74.0418 47.098 73.87 47.3141 73.8836C47.5413 73.8971 47.7138 74.0926 47.6996 74.3199L46.4516 94.609C46.4386 94.8274 46.2567 94.9951 46.0412 94.9951Z" fill="#363649"/>
</svg>
