<svg width="30" height="31" viewBox="0 0 30 31" fill="none" xmlns="http://www.w3.org/2000/svg">
<g clip-path="url(#clip0_96_3530)">
<path d="M27.1693 1.58398H3.1007C2.07778 1.58398 1.24927 2.4125 1.24927 3.43541V27.504C1.24927 28.5269 2.07778 29.3554 3.1007 29.3554H27.1693C28.1922 29.3554 29.0207 28.5269 29.0207 27.504V3.43541C29.0207 2.4125 28.1922 1.58398 27.1693 1.58398Z" fill="#689F38"/>
<path d="M25.7113 1.58398H2.98499C2.52568 1.58732 2.08612 1.77126 1.76133 2.09605C1.43654 2.42084 1.2526 2.86039 1.24927 3.3197V25.9766C1.24696 26.9347 2.02224 27.71 2.98036 27.7123H25.6881C26.6462 27.7146 27.4215 26.9393 27.4238 25.9812V3.3197C27.4447 2.38241 26.6995 1.60481 25.7622 1.58398H25.7113Z" fill="#7CB342"/>
<path d="M2.89282 26.3257L5.66996 22.9005L8.44711 24.8445L10.2754 21.026L13.0525 19.1745L15.8528 23.8031L18.1671 17.3231L20.8748 21.4888L24.138 15.4948L25.9663 6.19141" stroke="#EFEBE9" stroke-width="1.15714" stroke-linecap="round" stroke-linejoin="round"/>
<path opacity="0.65" d="M9.5117 3.64395C9.5117 3.11166 9.14141 2.94966 7.01227 3.01909C5.23027 3.08852 4.35084 3.2968 3.81855 3.9448C3.28627 4.5928 3.14741 5.91195 3.12427 7.48566C3.12427 8.59652 3.12427 9.63794 3.70284 9.63794C4.4897 9.63794 4.4897 7.80966 5.1377 6.79137C6.38741 4.77795 9.5117 4.33823 9.5117 3.64395" fill="#ABC884"/>
<path d="M9.76578 9.77565L12.1495 4.63793C12.2189 4.49676 12.3624 4.40651 12.5198 4.40651H13.7001C13.8389 4.40651 13.95 4.51759 13.9523 4.65413C13.9523 4.68885 13.9454 4.72125 13.9315 4.75365L11.1081 10.3079C11.0525 10.4329 11.1104 10.5787 11.2353 10.6342C11.2608 10.6458 11.2886 10.6528 11.3163 10.6551H12.9132C13.0613 10.6504 13.1863 10.7662 13.1909 10.9143V11.4651C13.1955 11.6132 13.0798 11.7382 12.9317 11.7428H10.6221C10.4948 11.7428 10.3906 11.8469 10.3906 11.9742V12.9231C10.3906 13.0504 10.4948 13.1545 10.6221 13.1545H12.9132C13.0613 13.1499 13.1863 13.2656 13.1909 13.4137V13.9414C13.1955 14.0895 13.0798 14.2145 12.9317 14.2191H10.6221C10.4948 14.2191 10.3906 14.3232 10.3906 14.4505V16.6954C10.3883 16.8597 10.2541 16.9939 10.0898 16.9962H9.02521C8.86089 16.9939 8.72666 16.8597 8.72435 16.6954V14.4505C8.72435 14.3232 8.6202 14.2191 8.49292 14.2191H6.24806C6.09995 14.2237 5.97498 14.108 5.97035 13.9599V13.4322C5.96572 13.2841 6.08143 13.1591 6.22955 13.1545H8.49292C8.6202 13.1545 8.72435 13.0504 8.72435 12.9231V11.9742C8.72435 11.8469 8.6202 11.7428 8.49292 11.7428H6.24806C6.09995 11.7474 5.97498 11.6317 5.97035 11.4836V10.9328C5.96572 10.7847 6.08143 10.6597 6.22955 10.6551H7.86806C7.89848 10.6561 7.9288 10.6511 7.95727 10.6403C7.98575 10.6296 8.01181 10.6133 8.03397 10.5924C8.05612 10.5716 8.07393 10.5465 8.08637 10.5188C8.09881 10.491 8.10563 10.461 8.10643 10.4306C8.10835 10.3877 8.09791 10.3451 8.07635 10.3079L5.25292 4.75365C5.18812 4.64256 5.22515 4.50139 5.33392 4.43659C5.38021 4.40882 5.43112 4.39956 5.48435 4.40651H6.68778C6.84515 4.40651 6.98863 4.49676 7.05806 4.63793L9.44178 9.77565C9.48343 9.86591 9.58758 9.90525 9.67783 9.86359C9.71718 9.84739 9.74726 9.81499 9.76578 9.77565Z" fill="#EFEBE9"/>
<path opacity="0.3" d="M9.5117 3.64395C9.5117 3.11166 9.14141 2.94966 7.01227 3.01909C5.23027 3.08852 4.35084 3.2968 3.81855 3.9448C3.28627 4.5928 3.14741 5.91195 3.12427 7.48566C3.12427 8.59652 3.12427 9.63794 3.70284 9.63794C4.4897 9.63794 4.4897 7.80966 5.1377 6.79137C6.38741 4.77795 9.5117 4.33823 9.5117 3.64395" fill="#ABC884"/>
</g>
<defs>
<clipPath id="clip0_96_3530">
<rect width="29.6229" height="29.6229" fill="white" transform="translate(0.217041 0.667969)"/>
</clipPath>
</defs>
</svg>
