<svg width="30" height="29" viewBox="0 0 30 29" fill="none" xmlns="http://www.w3.org/2000/svg">
<g clip-path="url(#clip0_96_3337)">
<path d="M5.0772 6.36266L2.02929 9.92172C2.02929 9.92172 1.11515 11.0045 1.3512 12.0742C1.61734 13.2686 2.28849 13.3408 2.28849 13.3408C2.28849 13.3408 2.24452 14.2683 2.82309 15.058C3.40166 15.8477 3.67706 16.2217 5.77843 16.8233C7.8798 17.4248 11.6706 18.1008 11.6706 18.1008L12.6472 21.6839C12.6472 21.6839 12.9087 22.5698 14.0728 23.0314C15.2369 23.493 16.1464 23.3727 16.1464 23.3727C16.1464 23.3727 16.6278 24.6305 18.227 24.9805C19.6109 25.2845 20.7148 24.6261 20.7148 24.6261C20.7148 24.6261 21.8789 25.2998 23.3786 24.9805C25.1189 24.6108 25.517 23.598 25.517 23.598C25.517 23.598 26.9426 23.4558 27.8799 22.1783C28.8171 20.9008 28.1414 19.4483 28.1414 19.4483C28.1414 19.4483 28.9722 18.2845 28.7408 16.9655C28.5325 15.7711 28.0303 15.3642 28.0303 15.3642L25.0263 13.3823C25.0263 13.3823 26.3015 12.8858 26.7528 10.7573C27.2041 8.62891 26.077 7.56578 26.077 7.56578C26.077 7.56578 26.5191 6.36484 25.7762 5.29516C25.0634 4.26703 24.0497 4.76359 23.5614 4.30203C22.9597 3.73328 19.5461 3.37891 19.5461 3.37891L15.6095 6.46984L5.0772 6.36266Z" fill="#2F7C31"/>
<path d="M6.52585 2.79183C6.52585 2.79183 7.70382 1.5712 9.28448 1.67839C10.8651 1.78558 11.1521 2.68683 11.1521 2.68683C11.1521 2.68683 12.1218 2.53589 12.7304 2.79183C13.9755 3.31683 13.8436 3.92714 14.2208 3.88558C14.5981 3.84401 14.5981 2.33026 16.3569 1.80308C18.1158 1.27589 19.0716 2.07651 19.4488 2.05464C19.826 2.03276 20.2935 1.61058 21.6289 2.01308C22.83 2.3762 23.0869 3.1287 23.1424 3.35839C23.2072 3.6362 23.2072 3.94683 23.5636 4.30339C23.92 4.65995 23.5382 5.95276 23.0267 6.47776C22.5152 7.00276 21.5178 7.05745 21.5178 7.05745C21.5178 7.05745 21.7515 8.87308 20.1547 9.87058C19.0322 10.5706 17.8242 10.295 17.8242 10.295C17.8242 10.295 16.5351 11.3493 15.0887 10.9075C13.6423 10.4656 13.4872 9.89901 14.288 9.26683C15.0887 8.63683 15.4451 7.4162 14.4893 7.18433C13.5335 6.95245 12.5546 7.39433 12.2213 8.38308C11.888 9.37183 11.8649 10.2337 10.7749 10.9687C9.68485 11.7037 8.88411 11.474 7.79408 11.7475C6.70405 12.0209 5.97042 12.9046 5.05859 12.9243C4.14676 12.9462 3.43396 12.314 2.96648 12.3775C2.49899 12.4409 1.54319 12.6509 1.54319 12.6509C1.54319 12.6509 1.11968 11.894 1.38813 10.9687C1.65659 10.0434 2.03151 9.9187 2.03151 9.9187C2.03151 9.9187 -0.13698 7.93683 1.85562 4.9137C3.65613 2.18151 6.52585 2.79183 6.52585 2.79183ZM18.493 16.9625C18.493 16.9625 19.3377 16.6256 19.8955 15.7221C20.4509 14.8187 20.7402 14.145 21.6312 13.7031C22.5199 13.2612 23.522 13.3028 24.8133 13.3662C26.1047 13.4296 26.431 13.8015 26.7481 14.1012C27.3706 14.6896 28.0394 15.3634 28.0394 15.3634C28.0394 15.3634 26.9494 15.4465 26.3708 16.2887C25.7923 17.1309 25.4359 18.2859 25.4359 18.2859C25.4359 18.2859 24.6583 18.5593 23.8344 18.9793C23.0105 19.3993 21.1868 20.515 19.9857 20.2196C18.7846 19.9243 18.1621 18.6206 18.1621 18.474C18.1598 18.3296 18.493 16.9625 18.493 16.9625Z" fill="#709921"/>
<path d="M8.22429 18.8426C8.16875 19.0001 2.37378 25.1623 2.37378 25.1623C2.37378 25.1623 3.07038 26.162 3.68367 26.6366C4.29695 27.1113 5.29209 27.8201 5.92389 27.982C6.60892 28.157 7.13658 28.3495 7.74987 27.586C8.36315 26.8226 8.83526 25.8229 10.5085 24.1363C12.1817 22.4498 13.3782 21.4238 14.7136 20.8179C16.0489 20.212 17.9721 19.792 18.4743 19.7395C18.9765 19.687 19.6152 19.6345 19.6152 19.6345C19.6152 19.6345 19.9924 18.9148 19.8652 18.3438C19.724 17.7073 18.7798 17.4229 18.7798 17.4229L13.9892 18.0813L14.5562 17.902C14.5562 17.902 14.3317 17.5891 14.6302 17.1845C14.8894 16.8323 16.079 15.4716 16.4701 14.9707C16.8612 14.4698 17.655 13.4985 17.6388 13.341C17.611 13.0523 16.8867 12.6826 16.6645 12.5513C16.4423 12.4201 15.9679 12.2363 15.9679 12.2363L10.8418 17.261L10.564 17.0248C10.564 17.0248 10.2308 17.0095 10.0341 16.5238C9.89521 16.1826 9.83966 15.1545 9.72858 14.2598C9.65915 13.6998 9.61749 13.0479 9.61749 13.0479C9.61749 13.0479 8.80981 12.7066 8.27984 12.7591C7.74987 12.8116 7.13889 13.3651 7.13889 13.3651L8.22429 18.8426Z" fill="#9FB525"/>
<path d="M6.27254 13.5237C6.18923 13.7337 6.32809 14.6831 6.32809 15.9453C6.32809 17.2074 6.25172 18.3778 5.60372 19.1303C4.76826 20.1037 3.34729 21.4731 2.26189 22.394C1.79209 22.7921 1.48197 22.9474 1.4542 23.0524C1.42643 23.1574 1.65554 24.1156 1.87309 24.5268C2.26651 25.2706 2.98857 25.9465 2.98857 25.9465C2.98857 25.9465 5.88374 22.8687 7.11032 21.6831C8.33689 20.4974 9.0034 19.7078 9.28343 19.9724C9.56114 20.2349 8.63774 21.2609 7.97354 21.974C6.97146 23.0524 4.16192 26.9878 4.16192 26.9878C4.16192 26.9878 4.31697 27.1409 4.63171 27.3443C4.90943 27.5259 5.12697 27.6199 5.12697 27.6199C5.12697 27.6199 6.60812 25.3428 8.67014 23.2887C10.7322 21.2346 11.9009 20.2874 13.3219 19.839C14.7428 19.3906 19.8667 18.3384 19.8667 18.3384C19.8667 18.3384 19.6445 17.6012 19.5056 17.2862C19.3668 16.9712 19.059 16.6015 19.059 16.6015C19.059 16.6015 16.4971 17.2337 16.0504 17.3649C15.6037 17.4962 13.0696 17.7871 12.9585 17.5224C12.8474 17.2599 14.6572 15.1271 15.1872 14.4687C15.7171 13.8103 16.6753 12.5459 16.6753 12.5459C16.6753 12.5459 16.1083 12.1784 15.4117 12.0209C14.7151 11.8634 14.4651 11.9946 14.4651 11.9946C14.4651 11.9946 12.7664 14.1537 12.2642 14.7859C11.762 15.4181 10.7877 16.7874 9.89672 17.0237C9.00572 17.2599 8.78354 17.0499 8.67014 16.4178C8.55906 15.7856 8.27903 12.7581 8.27903 12.7581C8.27903 12.7581 7.38803 12.8106 7.05246 12.9681C6.71689 13.1256 6.35586 13.3137 6.27254 13.5237Z" fill="#B7D118"/>
<path d="M23.8736 17.3792C23.8736 17.3792 24.392 16.4932 24.8387 16.8629C25.2876 17.2326 24.4337 18.3986 24.2508 18.4379C24.068 18.4773 22.6424 18.0289 22.8507 17.5257C23.0636 17.0226 23.8736 17.3792 23.8736 17.3792ZM10.4091 8.48918C10.9414 8.47168 12.0592 7.43918 11.5871 6.90324C11.2052 6.47012 10.4091 7.31012 10.4091 7.31012C10.4091 7.31012 9.5667 6.4898 9.23344 6.88574C8.75901 7.45887 10.018 8.5023 10.4091 8.48918ZM7.44218 9.52168C7.44218 9.52168 7.90504 8.62262 8.43501 9.00543C8.9673 9.38824 8.0439 10.6854 7.76387 10.7642C7.48384 10.8429 5.97955 10.0292 6.37761 9.45387C6.70161 8.9923 7.44218 9.52168 7.44218 9.52168ZM3.36904 8.70137C3.53567 8.72762 4.72753 8.09324 4.38964 7.53762C4.05175 6.98199 3.36904 7.68418 3.36904 7.68418C3.36904 7.68418 2.72335 7.14387 2.44564 7.47199C1.99898 8.00137 3.1191 8.66199 3.36904 8.70137ZM3.57964 10.5279C3.57964 10.5279 4.02861 9.65512 4.50304 9.98543C4.97978 10.3157 4.15358 11.6392 4.0263 11.6917C3.90133 11.7442 2.21884 11.2957 2.5845 10.6592C2.83907 10.2239 3.57964 10.5279 3.57964 10.5279ZM18.3772 9.54355C18.7452 9.39262 19.3608 8.21574 18.7845 7.9773C18.3193 7.7848 18.0763 8.5023 18.0763 8.5023C18.0763 8.5023 17.5602 8.07355 17.2062 8.42574C16.6623 8.96605 18.155 9.63543 18.3772 9.54355ZM20.9923 4.96512C20.9923 4.96512 21.0224 4.45324 21.439 4.47949C21.8972 4.51012 21.837 5.57762 21.4876 5.77887C21.1381 5.98012 19.9856 5.40262 20.2471 5.00012C20.4138 4.74418 21.0224 4.91918 20.9923 4.96512Z" fill="#2F7C31"/>
</g>
<defs>
<clipPath id="clip0_96_3337">
<rect width="29.6229" height="28" fill="white" transform="translate(0.0456543 0.943359)"/>
</clipPath>
</defs>
</svg>
