<svg width="30" height="31" viewBox="0 0 30 31" fill="none" xmlns="http://www.w3.org/2000/svg">
<path d="M25.7385 14.9571L26.3471 17.0029C26.3471 17.0029 28.0227 16.6327 28.1106 17.7435C28.1986 18.8544 26.5438 19.5949 26.5438 19.5949L27.0669 22.055C27.0669 22.055 28.8952 20.5739 28.9183 18.4424C28.9183 18.4424 29.071 15.8296 27.5043 15.2209C26.523 14.8483 25.7385 14.9571 25.7385 14.9571ZM16.118 22.7493C16.118 22.7493 13.5491 21.6616 12.3087 23.2075C12.1351 23.4251 11.9824 23.6426 11.8088 23.8602C11.6792 24.0337 11.5473 24.2073 11.4177 24.3601C11.3089 24.4897 11.1793 24.6216 11.0266 24.7072C10.8738 24.7951 10.7211 24.8599 10.5475 24.9039C10.33 24.9479 10.1124 24.9479 9.89487 24.9247C9.58938 24.9039 9.28621 24.8368 8.98072 24.772C8.87195 24.7512 8.78401 24.728 8.69838 24.7072C8.67755 24.7072 8.65441 24.6864 8.63358 24.6864C8.61275 24.6864 8.58961 24.6655 8.56878 24.6655C8.48084 24.6864 8.61275 24.8391 8.65672 24.8831C8.72152 24.9479 8.78632 25.0358 8.85344 25.1006C9.05015 25.2742 9.24455 25.4478 9.48524 25.5589C9.79072 25.7116 10.117 25.7972 10.4434 25.8204C10.4642 25.8204 10.5313 25.8204 10.5521 25.8412C10.5961 25.8852 10.4873 25.95 10.4434 25.9708C10.3786 26.0148 10.3346 26.0356 10.2698 26.0587C10.0731 26.1467 9.85552 26.1883 9.66112 26.2323C9.46441 26.2763 9.27001 26.2971 9.09412 26.2971C8.98535 26.2971 8.89741 26.3179 8.81178 26.3179C8.74698 26.3179 8.68218 26.2971 8.61507 26.3179C8.54795 26.3388 8.6359 26.4267 8.67987 26.4475C8.76781 26.4915 8.85344 26.5563 8.94138 26.6003C9.2029 26.7299 9.46441 26.8387 9.72592 26.9058C10.0731 26.9937 10.4434 27.0354 10.7928 26.9937C11.0983 26.9497 11.4015 26.8641 11.6861 26.7553C13.2529 26.0379 13.1233 24.5359 14.5605 24.404C15.6274 24.3161 17.1293 24.8831 17.1293 24.8831L16.118 22.7493ZM4.7965 9.625C4.7965 9.625 1.98927 10.0832 1.26952 12.585C0.357696 15.7856 4.90527 16.8502 4.90527 16.8502L5.18761 14.6725C5.18761 14.6725 2.16284 14.367 2.33641 13.2145C2.55395 11.7773 5.07884 11.9092 5.07884 11.9092L4.7965 9.625ZM5.01404 17.1788C5.01404 17.1788 4.57895 17.3084 3.94715 17.7667C3.51207 18.0721 2.92424 18.4633 2.35724 19.139C2.0749 19.4653 1.85735 19.8565 1.70461 20.2707C1.59584 20.5531 1.55187 20.8377 1.55187 21.1409V21.3376C1.55187 21.3584 1.55187 21.5343 1.61667 21.4903C1.6375 21.4695 1.66064 21.4024 1.68147 21.3816C1.72544 21.2728 1.79024 21.1849 1.85504 21.0992C2.05175 20.8377 2.29012 20.5993 2.55164 20.4026C2.63958 20.3378 2.72521 20.2939 2.81315 20.2499C2.87795 20.1851 2.98672 20.0971 3.0307 20.1851C3.05152 20.2291 3.00987 20.2939 2.98672 20.3378C2.9659 20.4026 2.94275 20.4906 2.94275 20.5554C2.85481 20.9025 2.81315 21.252 2.76918 21.5991C2.74835 21.7958 2.74835 21.9902 2.76918 22.1661C2.76918 22.2541 2.79001 22.3628 2.79001 22.4485C2.79001 22.4924 2.81084 22.5364 2.81084 22.5781C2.81084 22.622 2.85481 22.6868 2.89878 22.622C2.91961 22.6012 2.91961 22.5781 2.94275 22.5341C2.98672 22.4693 3.00755 22.3813 3.05152 22.3165C3.1603 22.1198 3.26907 21.9254 3.39867 21.7079C3.55141 21.4464 3.72498 21.208 3.89855 20.9905C4.09527 20.7289 4.33364 20.4674 4.57432 20.2499C4.83584 20.0115 5.11818 19.7708 5.42367 19.5741C5.59724 19.4653 5.79395 19.3566 5.99067 19.2686L5.01404 17.1788Z" fill="#F45125"/>
<path d="M27.1553 19.1141C26.8937 17.8296 26.5235 16.566 26.1115 15.3048C25.7644 14.2379 25.3941 13.1502 24.7623 12.2129C24.4799 11.7986 24.0657 11.5163 23.5427 11.3196C22.5406 10.9284 21.2353 10.8613 20.3651 10.8613C19.0599 10.8613 17.7083 11.1437 16.491 11.7107C16.0559 13.0159 14.8595 16.3254 13.052 17.8065C13.1608 18.4152 13.2904 19.047 13.4663 19.6579C13.7717 20.7248 14.1629 21.7917 14.5331 22.8586C14.8803 23.8815 15.2945 24.9044 16.0559 25.689C16.2527 25.9065 16.491 26.0801 16.7086 26.256C17.2316 26.691 17.8634 26.9526 18.4929 27.1701C19.0807 27.3668 19.6894 27.5172 20.3003 27.6492C21.3881 27.8875 22.9571 28.3018 24.0217 27.8019C24.6095 27.5404 25.0886 27.1261 25.4797 26.6262C25.894 26.1032 26.2203 25.5154 26.5026 24.9067C26.9377 23.9926 27.3959 22.9697 27.4607 21.9236C27.5232 20.9863 27.3497 20.0282 27.1553 19.1141Z" fill="#FCC21B"/>
<path d="M18.1863 8.5351C18.1215 8.29673 17.9479 8.05604 17.816 7.8385C16.358 5.29047 13.1782 4.07316 10.3501 4.24673C9.47993 4.31153 8.1955 4.44344 7.21656 4.87853C6.7375 5.09607 6.32324 5.42239 6.06173 5.83664C5.4739 6.81559 5.19156 7.90561 4.88607 8.99333C4.53893 10.2546 4.23344 11.539 4.03673 12.8466C3.86316 13.9783 3.71042 15.2188 4.0159 16.3504C4.25427 17.2438 4.7773 18.4842 5.3443 19.2016C5.9761 19.9862 6.8671 20.9003 7.82522 21.2475C7.99879 21.3123 8.1955 21.3562 8.39222 21.4002C8.7625 21.465 9.15362 21.509 9.5239 21.4442C9.74144 21.4002 9.98213 21.3794 10.1997 21.3146C10.6348 21.2058 11.049 21.0531 11.4633 20.9003C13.2036 20.2037 14.62 19.1808 15.5549 17.5261C15.946 16.8087 16.2724 16.045 16.5778 15.2836C16.5987 15.2396 16.6218 15.1956 16.6218 15.154C17.08 13.8904 17.3832 12.5643 17.6887 11.2567C17.8414 10.6249 18.015 9.97227 18.103 9.31964C18.1654 9.07896 18.2511 8.79661 18.1863 8.5351Z" fill="#429ADF"/>
<path d="M5.5606 10.1461C5.95172 9.42868 6.889 8.86168 7.7152 8.97045C7.8448 8.99128 7.99754 9.01442 8.12946 9.07922C8.95566 9.42636 9.45786 10.234 9.26115 11.0602C9.21717 11.2338 9.1084 11.257 8.9788 11.1482C8.52057 10.7571 8.1526 10.4516 7.54163 10.2988C7.04174 10.1692 6.47474 10.234 5.99569 10.3636C5.88692 10.3845 5.71334 10.4932 5.60457 10.4516C5.44952 10.3868 5.51663 10.234 5.5606 10.1461ZM14.6141 15.786C14.3757 16.1563 14.0471 16.4826 13.7208 16.7881C13.6328 16.8529 13.568 16.9408 13.4824 17.0056C12.1771 18.0934 10.4137 18.6372 8.7358 18.2253C8.27757 18.1165 7.77769 17.8781 7.4074 17.5935C7.12506 17.3759 6.8404 17.0936 6.60203 16.8089C6.16694 16.2859 5.84063 15.6772 5.62309 15.0454C5.51432 14.7191 5.44952 14.4136 5.40554 14.0665C5.40554 13.9577 5.2528 12.8029 5.60226 12.9556C5.6902 12.9996 5.755 13.0644 5.8198 13.1292C5.8846 13.2172 5.92857 13.3028 5.99337 13.3676C6.14612 13.5643 6.29886 13.7587 6.47243 13.9346C7.01629 14.5664 7.69206 15.0663 8.45346 15.4157C8.97649 15.6541 9.54117 15.786 10.1082 15.83C10.4345 15.8508 10.74 15.874 11.0663 15.8508C12.2419 15.786 13.4384 15.4366 14.5053 14.9806C14.5933 14.9367 14.702 14.8719 14.8108 14.8719C15.1811 14.8927 14.6812 15.6981 14.6141 15.786ZM15.8569 12.6062C15.8569 12.715 15.8129 12.8677 15.6833 12.8446C15.5745 12.8237 15.4866 12.627 15.4218 12.5622C15.1163 12.1711 14.5285 11.736 13.9406 11.6041C13.244 11.4305 12.721 11.7337 12.0244 11.8008C11.8277 11.8216 11.7189 11.736 11.8069 11.5624C12.1771 10.7571 13.1561 10.1253 14.179 10.2988C14.3526 10.3197 14.5053 10.3636 14.6581 10.4284C15.5514 10.801 15.9217 11.78 15.8569 12.6062Z" fill="#193D51"/>
<path d="M21.472 15.5441C22.4509 16.1759 23.7145 16.3495 24.8462 16.2847C25.1725 16.2638 25.3693 16.3055 25.2813 16.6758C25.1077 17.4372 24.388 17.8723 23.6914 18.025C23.5178 18.069 23.3443 18.069 23.1684 18.069C22.8421 18.0481 22.5157 17.9162 22.2334 17.7218C21.6247 17.3076 21.1665 16.5901 21.0369 15.8704C20.9721 15.5001 21.104 15.3057 21.472 15.5441ZM15.3114 19.4622C15.029 19.1798 15.1818 19.0479 15.4873 18.8743C16.531 18.3305 17.5771 17.502 18.1209 16.4143C18.3176 16 18.5352 16.0879 18.6879 16.4791C18.9494 17.1965 18.9263 18.069 18.6 18.7656C18.4472 19.0919 18.2297 19.3742 17.9473 19.5918C17.7946 19.7005 17.6419 19.7653 17.4683 19.8301C16.7485 20.05 15.8575 20.0292 15.3114 19.4622ZM25.6747 23.0771C25.5868 23.0771 25.4572 22.9891 25.3484 22.9243C25.2397 22.8595 25.1309 22.7716 25.0661 22.7276C24.8046 22.598 24.4991 22.4661 24.2167 22.3805C23.3466 22.0981 22.3885 22.0981 21.5391 22.3805C20.9305 22.5772 20.3426 22.9475 19.8636 23.3826C19.3405 23.8825 18.9494 24.4934 18.4495 25.0141C18.3847 25.0789 18.3199 25.1437 18.2528 25.1877C18.1232 25.2525 17.9913 25.1669 17.9473 25.035C17.7298 24.1208 18.3385 22.8364 18.7967 22.0519C19.3197 21.1817 20.0811 20.4851 21.0601 20.2004C21.5391 20.0477 22.0621 20.0477 22.562 20.1125C24.02 20.33 25.522 21.4849 25.8067 22.8109C25.8043 22.9243 25.7835 23.0979 25.6747 23.0771Z" fill="#9B7515"/>
</svg>
