<svg width="30" height="31" viewBox="0 0 30 31" fill="none" xmlns="http://www.w3.org/2000/svg">
<g clip-path="url(#clip0_96_3369)">
<path d="M29.115 24.3511C29.115 24.3511 27.5205 18.9426 26.5948 16.5381C25.4307 13.5156 22.7878 7.58411 22.2046 7.31102C22.1212 7.27168 22.0402 7.24391 21.9616 7.22308L18.3652 5.90625H11.3529L7.76574 7.22076C7.68242 7.24159 7.59679 7.26936 7.50885 7.31102C6.92565 7.58642 4.28968 13.4971 3.11865 16.5381C2.19294 18.9426 0.598393 24.3511 0.598393 24.3511C0.519707 24.5987 0.614593 24.8672 0.83445 25.006C1.31351 25.3046 2.29939 25.7744 4.00271 25.9781C4.25728 26.0081 4.50028 25.867 4.59979 25.6309C4.87056 24.9806 8.21933 16.957 8.55722 16.0474L7.67085 26.4756C7.65234 26.7163 7.81202 26.9315 8.04576 26.9848C8.86502 27.1722 11.1862 27.5402 14.8636 27.5402C18.5387 27.5402 20.86 27.1699 21.6815 26.9848C21.9153 26.9315 22.075 26.7163 22.0564 26.4756L21.1724 16.0683C21.508 16.9709 24.8521 24.9783 25.1206 25.6286C25.1686 25.7437 25.253 25.8399 25.3608 25.9025C25.4685 25.9652 25.5939 25.9909 25.7176 25.9757C27.4186 25.7721 28.4069 25.3023 28.8859 25.0037C29.1011 24.8672 29.196 24.5987 29.115 24.3511Z" fill="#004F7C"/>
<path d="M12.903 16.4081C13.252 16.4081 13.5348 16.1253 13.5348 15.7763C13.5348 15.4274 13.252 15.1445 12.903 15.1445C12.5541 15.1445 12.2712 15.4274 12.2712 15.7763C12.2712 16.1253 12.5541 16.4081 12.903 16.4081Z" fill="#00273D"/>
<path d="M16.1755 16.4081C16.5244 16.4081 16.8073 16.1253 16.8073 15.7763C16.8073 15.4274 16.5244 15.1445 16.1755 15.1445C15.8266 15.1445 15.5437 15.4274 15.5437 15.7763C15.5437 16.1253 15.8266 16.4081 16.1755 16.4081Z" fill="#00273D"/>
<path d="M12.903 19.8769C13.252 19.8769 13.5348 19.594 13.5348 19.2451C13.5348 18.8961 13.252 18.6133 12.903 18.6133C12.5541 18.6133 12.2712 18.8961 12.2712 19.2451C12.2712 19.594 12.5541 19.8769 12.903 19.8769Z" fill="#00273D"/>
<path d="M16.1755 19.8769C16.5244 19.8769 16.8073 19.594 16.8073 19.2451C16.8073 18.8961 16.5244 18.6133 16.1755 18.6133C15.8266 18.6133 15.5437 18.8961 15.5437 19.2451C15.5437 19.594 15.8266 19.8769 16.1755 19.8769Z" fill="#00273D"/>
<path d="M12.9033 23.3495C13.2522 23.3495 13.5351 23.0667 13.5351 22.7177C13.5351 22.3688 13.2522 22.0859 12.9033 22.0859C12.5544 22.0859 12.2715 22.3688 12.2715 22.7177C12.2715 23.0667 12.5544 23.3495 12.9033 23.3495Z" fill="#00273D"/>
<path d="M16.1757 23.3495C16.5247 23.3495 16.8075 23.0667 16.8075 22.7177C16.8075 22.3688 16.5247 22.0859 16.1757 22.0859C15.8268 22.0859 15.5439 22.3688 15.5439 22.7177C15.5439 23.0667 15.8268 23.3495 16.1757 23.3495Z" fill="#00273D"/>
<path d="M12.9033 16.1249C13.2522 16.1249 13.5351 15.8421 13.5351 15.4931C13.5351 15.1442 13.2522 14.8613 12.9033 14.8613C12.5544 14.8613 12.2715 15.1442 12.2715 15.4931C12.2715 15.8421 12.5544 16.1249 12.9033 16.1249Z" fill="#B5840D"/>
<path d="M16.1757 16.1249C16.5247 16.1249 16.8075 15.8421 16.8075 15.4931C16.8075 15.1442 16.5247 14.8613 16.1757 14.8613C15.8268 14.8613 15.5439 15.1442 15.5439 15.4931C15.5439 15.8421 15.8268 16.1249 16.1757 16.1249Z" fill="#B5840D"/>
<path d="M12.903 19.5976C13.252 19.5976 13.5348 19.3147 13.5348 18.9658C13.5348 18.6168 13.252 18.334 12.903 18.334C12.5541 18.334 12.2712 18.6168 12.2712 18.9658C12.2712 19.3147 12.5541 19.5976 12.903 19.5976Z" fill="#B5840D"/>
<path d="M16.1755 19.5976C16.5244 19.5976 16.8073 19.3147 16.8073 18.9658C16.8073 18.6168 16.5244 18.334 16.1755 18.334C15.8266 18.334 15.5437 18.6168 15.5437 18.9658C15.5437 19.3147 15.8266 19.5976 16.1755 19.5976Z" fill="#B5840D"/>
<path d="M12.903 23.0663C13.252 23.0663 13.5348 22.7835 13.5348 22.4345C13.5348 22.0856 13.252 21.8027 12.903 21.8027C12.5541 21.8027 12.2712 22.0856 12.2712 22.4345C12.2712 22.7835 12.5541 23.0663 12.903 23.0663Z" fill="#B5840D"/>
<path d="M16.1755 23.0663C16.5244 23.0663 16.8073 22.7835 16.8073 22.4345C16.8073 22.0856 16.5244 21.8027 16.1755 21.8027C15.8266 21.8027 15.5437 22.0856 15.5437 22.4345C15.5437 22.7835 15.8266 23.0663 16.1755 23.0663Z" fill="#B5840D"/>
<path opacity="0.5" d="M11.0152 17.5687L10.4737 17.328C10.2862 17.2447 10.0687 17.3466 10.0131 17.5456L8.80507 21.8779C8.7611 22.0353 8.83747 22.2042 8.9879 22.2737L9.47853 22.5005C9.66599 22.5861 9.88584 22.4866 9.94139 22.2899L11.2004 17.9714C11.249 17.8071 11.168 17.6358 11.0152 17.5687ZM18.8583 17.5687L19.3999 17.328C19.5873 17.2447 19.8049 17.3466 19.8604 17.5456L21.0685 21.8779C21.1124 22.0353 21.0361 22.2042 20.8856 22.2737L20.395 22.5005C20.2076 22.5861 19.9877 22.4866 19.9322 22.2899L18.6732 17.9714C18.6246 17.8071 18.7056 17.6358 18.8583 17.5687Z" fill="#2686C6"/>
<path d="M17.8246 11.8606C17.5723 11.2982 17.4705 10.9626 17.526 10.752C17.6417 10.3054 18.0629 10.0161 18.4633 9.78698C18.4402 9.77078 16.6512 3.85547 16.6512 3.85547H13.0803L10.9373 10.1249C12.4485 10.1758 15.3321 11.9439 16.4476 13.1543C16.9799 13.7305 17.3964 14.4017 17.8084 15.0705C17.9218 14.397 18.343 13.0154 17.8246 11.8606Z" fill="#00273D"/>
<path d="M12.6326 3.84435L10.6493 5.66338C10.6493 5.66338 10.4364 7.36438 10.4618 8.38961C10.4896 9.50046 10.6215 10.1091 11.3575 9.81058C12.0934 9.51203 13.1325 9.01215 13.3917 8.88255C13.6509 8.75295 13.9078 8.66269 13.7458 9.07695C13.5838 9.49121 13.4264 10.3105 13.4079 10.3822C13.3246 10.6923 13.2737 10.9191 14.1253 11.1043C14.977 11.2894 17.4348 11.9467 17.4348 11.9467C17.4348 11.9467 14.1022 8.13735 13.6602 7.38058C13.1186 6.45486 13.0885 5.19358 13.1186 4.51318C13.124 4.38301 13.1795 4.25998 13.2736 4.16982C13.3676 4.07967 13.4929 4.02938 13.6231 4.02949H16.0254C16.2915 4.02949 16.5114 4.23546 16.5299 4.49929C16.5739 5.17043 16.6178 6.38081 16.4234 6.88301C16.2429 7.34818 15.7384 7.74623 15.3403 8.03783C15.0534 8.24612 15.102 8.51458 15.2617 8.68352L16.2637 9.85223C16.2637 9.85223 16.4998 8.75063 16.641 8.69741C16.7821 8.64418 17.5366 9.38243 18.1892 9.61849C18.6336 9.78049 18.8419 9.30143 18.8881 9.02372C18.9344 8.74832 19.1821 6.51966 19.1265 6.13781C19.0687 5.75826 18.8419 5.41112 18.5896 5.24912C18.3975 5.12646 17.4163 4.25398 16.9488 3.83741C16.7891 3.69392 16.4882 3.61523 16.273 3.61523H13.4542C13.0932 3.61755 12.7946 3.69855 12.6326 3.84435Z" fill="#004F7C"/>
<path d="M19.1529 5.75439C18.9145 5.40956 18.6576 5.2869 18.3359 5.02539C18.5349 5.26376 18.7155 5.52528 18.7988 5.82382C18.9515 6.43016 18.7155 8.54773 18.6437 8.98051C18.6044 9.21193 18.4169 9.41791 18.1924 9.34385C17.9726 9.26979 17.8846 9.21656 16.9867 8.48525C16.6395 8.20291 16.4151 8.20291 16.2693 8.63105C16.1397 9.00828 15.9915 9.52899 15.9915 9.52899L16.4475 10.0636C16.4475 10.0636 16.665 9.16333 16.7298 8.90876C17.7712 9.70488 18.1924 9.89002 18.4725 9.8553C19.014 9.7905 19.1043 9.21656 19.132 9.05919C19.2316 8.33482 19.2478 7.59425 19.3126 6.86525C19.3357 6.54356 19.3727 6.07145 19.1529 5.75439ZM16.9288 11.6188C16.2531 11.2763 14.9756 11.0587 14.1656 10.862C13.8902 10.7949 13.6125 10.7278 13.6495 10.5218C13.6888 10.3598 13.8184 9.77662 13.9064 9.51973C13.9943 9.26285 14.2003 8.74676 13.9179 8.54311C13.705 8.38805 13.4227 8.54079 13.4227 8.54079C13.4088 8.55005 12.1683 9.18648 11.4625 9.47808C11.1663 9.60073 10.9209 9.54056 10.8561 9.10085C10.6386 7.62433 10.6108 6.2913 11.3421 5.03928C11.1686 5.21516 10.8492 5.42576 10.6687 5.59239C10.2938 5.93259 10.1572 8.10571 10.4164 9.51973C10.509 10.0266 10.877 10.295 11.5597 9.97102C12.2123 9.6609 13.5037 9.06845 13.5037 9.06845C13.5037 9.06845 13.2005 10.17 13.1542 10.5681C13.1103 10.9662 13.3 11.1814 14.0614 11.3434C14.5567 11.4498 15.6398 11.5771 16.2832 11.8317C17.0584 12.1395 17.2783 12.2367 17.8245 12.9217C17.6509 12.3154 17.4843 11.8988 16.9288 11.6188Z" fill="#2686C6"/>
<path d="M17.4789 27.4714L16.1204 27.5316C16.1204 27.5316 16.5023 27.3048 17.1271 27.1868C17.708 27.078 17.6131 26.6313 17.6131 26.2402V14.1943C17.6131 12.2781 16.942 12.1693 16.3588 11.8569L16.9304 11.6185C16.986 11.6486 18.1084 11.9657 18.1084 14.1943V26.4809C18.1084 26.9183 18.1477 27.4714 17.4789 27.4714ZM13.1836 5.87218C13.1836 5.87218 12.8665 5.22186 12.7902 4.62709C12.7045 3.94438 12.9429 3.69906 13.5053 3.61806C14.1139 3.53012 15.6252 3.56946 15.9955 3.58335C16.3102 3.59261 16.8055 3.61806 16.9212 4.13646C17.0346 4.63635 16.5694 5.87449 16.5694 5.87449C16.5694 5.87449 16.5601 4.60163 16.5347 4.50443C16.5092 4.40723 16.4606 4.18043 15.9955 4.11101C14.9911 3.96058 14.4796 4.03463 13.7784 4.01381C13.1396 3.99529 13.1327 4.33086 13.1257 4.84463C13.1211 5.35609 13.1836 5.87218 13.1836 5.87218Z" fill="#2686C6"/>
<path d="M8.90182 13.5967C8.88331 12.141 8.29548 9.35462 7.57805 8.08639C7.55971 8.05406 7.54969 8.01768 7.54888 7.98052C7.54807 7.94336 7.55651 7.90658 7.57342 7.87348C7.65905 7.71148 7.88816 7.71148 7.97379 7.87348C8.92496 9.68788 9.42948 12.4812 9.08928 13.9763C9.09159 13.9763 8.91108 14.2679 8.90182 13.5967ZM20.8111 13.5967C20.8297 12.141 21.4175 9.35462 22.1349 8.08639C22.1719 8.01928 22.1743 7.94059 22.1395 7.87348C22.1205 7.83684 22.0917 7.80614 22.0564 7.78471C22.0211 7.76328 21.9806 7.75195 21.9394 7.75195C21.8981 7.75195 21.8576 7.76328 21.8223 7.78471C21.787 7.80614 21.7582 7.83684 21.7392 7.87348C20.788 9.68788 20.2835 12.4812 20.6237 13.9763C20.6214 13.9763 20.8019 14.2679 20.8111 13.5967Z" fill="#00273D"/>
</g>
<defs>
<clipPath id="clip0_96_3369">
<rect width="29.6229" height="29.6229" fill="white" transform="translate(0.0456543 0.765625)"/>
</clipPath>
</defs>
</svg>
