<svg width="30" height="31" viewBox="0 0 30 31" fill="none" xmlns="http://www.w3.org/2000/svg">
<path d="M24.6689 29.3292H7.62114C7.1107 29.3292 6.69727 28.9158 6.69727 28.4054V4.13286C6.69727 3.62242 7.1107 3.20898 7.62114 3.20898H24.6713C25.1817 3.20898 25.5951 3.62242 25.5951 4.13286V28.4054C25.5928 28.9158 25.1794 29.3292 24.6689 29.3292Z" fill="white"/>
<path d="M24.6689 3.20898H23.0776V3.90189H24.6689C24.796 3.90189 24.8999 4.00583 24.8999 4.13286V28.4054C24.8999 28.5324 24.796 28.6363 24.6689 28.6363H7.62114C7.49411 28.6363 7.39017 28.5324 7.39017 28.4054V27.0773H6.69727V28.4054C6.69727 28.9158 7.1107 29.3292 7.62114 29.3292H24.6713C25.1817 29.3292 25.5951 28.9158 25.5951 28.4054V4.13286C25.5928 3.62473 25.1794 3.20898 24.6689 3.20898Z" fill="#6FBFF0"/>
<path d="M22.1543 27.0753H4.18266C3.67222 27.0753 3.25879 26.6618 3.25879 26.1514V2.56255C3.25879 2.05211 3.67222 1.63867 4.18266 1.63867H22.1543C22.6648 1.63867 23.0782 2.05211 23.0782 2.56255V26.1514C23.0782 26.6618 22.6648 27.0753 22.1543 27.0753Z" fill="white"/>
<path d="M27.2557 12.8706C27.2557 13.0161 27.168 13.1431 27.0409 13.1778C26.7199 13.2632 26.0593 13.4041 25.1932 13.4041H22.38C22.2691 13.4041 22.1605 13.3602 22.0751 13.2771L21.135 12.3786C20.9133 12.1661 20.9133 11.7804 21.135 11.5679L22.0751 10.6694C22.1605 10.5886 22.2691 10.5424 22.38 10.5424H25.9669C26.3318 10.5424 26.6737 10.4731 26.9139 10.4107C27.0894 10.3646 27.258 10.5147 27.258 10.7179V12.8706H27.2557Z" fill="#FFD54F"/>
<path d="M27.1182 10.4413C27.0951 10.4251 27.0697 10.4112 27.042 10.4043C27.0397 10.8709 27.0258 11.3374 27.0258 11.804V12.8664C27.0258 12.9126 27.0004 12.945 26.9842 12.9496C26.677 13.0327 26.0349 13.169 25.1942 13.169H22.381C22.3302 13.169 22.2771 13.1459 22.2355 13.1066L21.4317 12.3375C21.3116 12.222 21.1869 12.1204 21.1153 11.9633C21.0714 11.864 21.0506 11.7532 21.0645 11.6446C21.0622 11.67 21.0275 11.7047 21.0183 11.7301C21.0068 11.7578 20.9998 11.7901 20.9906 11.8178C20.9744 11.8802 20.9675 11.9472 20.9721 12.0118C20.9813 12.1458 21.0368 12.2775 21.1361 12.3722L22.0761 13.2706C22.1616 13.3515 22.2702 13.3977 22.381 13.3977H25.1942C26.0603 13.3977 26.7209 13.2568 27.042 13.1713C27.169 13.1367 27.2568 13.0096 27.2568 12.8641V10.7092C27.2568 10.6122 27.2036 10.5013 27.1182 10.4413Z" fill="#F3AB47"/>
<path d="M27.2557 22.6948C27.2557 22.8403 27.168 22.9673 27.0409 23.002C26.7199 23.0874 26.0593 23.2283 25.1932 23.2283H22.38C22.2691 23.2283 22.1605 23.1844 22.0751 23.1013L21.135 22.2028C20.9133 21.9903 20.9133 21.6046 21.135 21.3921L22.0751 20.4936C22.1605 20.4128 22.2691 20.3666 22.38 20.3666H25.9669C26.3318 20.3666 26.6737 20.2973 26.9139 20.235C27.0894 20.1888 27.258 20.3389 27.258 20.5422V22.6948H27.2557Z" fill="#0091EA"/>
<path d="M27.1182 20.2655C27.0951 20.2493 27.0697 20.2354 27.042 20.2285C27.0397 20.6951 27.0258 21.1616 27.0258 21.6282V22.6906C27.0258 22.7368 27.0004 22.7692 26.9842 22.7738C26.677 22.8569 26.0349 22.9932 25.1942 22.9932H22.381C22.3302 22.9932 22.2771 22.9701 22.2355 22.9308L21.4317 22.1617C21.3116 22.0462 21.1869 21.9446 21.1153 21.7876C21.0714 21.6882 21.0506 21.5774 21.0645 21.4688C21.0622 21.4942 21.0275 21.5289 21.0183 21.5543C21.0068 21.582 20.9998 21.6143 20.9906 21.642C20.9744 21.7044 20.9675 21.7714 20.9721 21.8361C20.9813 21.97 21.0368 22.1017 21.1361 22.1964L22.0761 23.0948C22.1616 23.1757 22.2702 23.2219 22.381 23.2219H25.1942C26.0603 23.2219 26.7209 23.081 27.042 22.9955C27.169 22.9609 27.2568 22.8338 27.2568 22.6883V20.5334C27.2568 20.4364 27.2036 20.3278 27.1182 20.2655Z" fill="#01579B"/>
<path opacity="0.25" d="M3.96973 3.20898C3.96742 3.22977 6.52193 3.24825 6.52193 3.26904L6.69747 9.68766V27.7817H22.8607C23.3711 27.7817 23.7845 27.3683 23.7845 26.8579V3.26904C23.7845 3.24825 23.7799 3.22977 23.7776 3.20898H3.96973Z" fill="#212121"/>
<path d="M22.1543 27.0753H4.18266C3.67222 27.0753 3.25879 26.6618 3.25879 26.1514V2.56255C3.25879 2.05211 3.67222 1.63867 4.18266 1.63867H22.1543C22.6648 1.63867 23.0782 2.05211 23.0782 2.56255V26.1514C23.0782 26.6618 22.6648 27.0753 22.1543 27.0753Z" fill="white"/>
<path d="M22.1543 2.33158C22.2814 2.33158 22.3853 2.43551 22.3853 2.56255V26.1514C22.3853 26.2784 22.2814 26.3824 22.1543 26.3824H4.18266C4.05563 26.3824 3.9517 26.2784 3.9517 26.1514V2.56255C3.9517 2.43551 4.05563 2.33158 4.18266 2.33158H22.1543ZM22.1543 1.63867H4.18266C3.67222 1.63867 3.25879 2.05211 3.25879 2.56255V26.1514C3.25879 26.6618 3.67222 27.0753 4.18266 27.0753H22.1543C22.6648 27.0753 23.0782 26.6618 23.0782 26.1514V2.56255C23.0782 2.05211 22.6648 1.63867 22.1543 1.63867Z" fill="#6FBFF0"/>
<path d="M6.27441 7.75586H19.465M6.27441 10.9363H19.465M6.27441 14.119H19.465M6.27441 17.3018H19.465M6.27441 20.4822H11.917" stroke="#B0BEC5" stroke-width="0.892694" stroke-miterlimit="10" stroke-linecap="round"/>
<path d="M26.826 8.44283C26.826 8.58834 26.7383 8.71537 26.6112 8.75002C26.2902 8.83548 25.6296 8.97637 24.7635 8.97637H21.9503C21.8394 8.97637 21.7309 8.93248 21.6454 8.84933L20.7054 7.95086C20.4836 7.73837 20.4836 7.35266 20.7054 7.14016L21.6454 6.2417C21.7309 6.16086 21.8394 6.11466 21.9503 6.11466H25.5372C25.9022 6.11466 26.244 6.04537 26.4842 5.98301C26.6597 5.93682 26.8283 6.08695 26.8283 6.2902V8.44283H26.826Z" fill="#F44336"/>
<path d="M26.826 18.269C26.826 18.4145 26.7383 18.5415 26.6112 18.5762C26.2902 18.6616 25.6296 18.8025 24.7635 18.8025H21.9503C21.8394 18.8025 21.7309 18.7587 21.6454 18.6755L20.7054 17.777C20.4836 17.5645 20.4836 17.1788 20.7054 16.9663L21.6454 16.0679C21.7309 15.987 21.8394 15.9408 21.9503 15.9408H25.5372C25.9022 15.9408 26.244 15.8715 26.4842 15.8092C26.6597 15.763 26.8283 15.9131 26.8283 16.1164V18.269H26.826Z" fill="#9CCC65"/>
<path d="M26.6908 6.01938C26.6677 6.00321 26.6423 5.98935 26.6146 5.98242C26.6123 6.44898 26.5984 6.91554 26.5984 7.38209V8.44455C26.5984 8.49074 26.573 8.52308 26.5568 8.5277C26.2497 8.61085 25.6076 8.74712 24.7668 8.74712H21.9513C21.9005 8.74712 21.8474 8.72402 21.8058 8.68476L21.002 7.91563C20.8819 7.80015 20.7572 7.69852 20.6856 7.54146C20.6417 7.44214 20.621 7.33128 20.6348 7.22272C20.6325 7.24813 20.5979 7.28278 20.5886 7.30818C20.5771 7.3359 20.5701 7.36823 20.5609 7.39595C20.5447 7.45831 20.5378 7.52529 20.5424 7.58996C20.5517 7.72393 20.6071 7.85558 20.7064 7.95028L21.6465 8.84874C21.7319 8.92958 21.8405 8.97578 21.9513 8.97578H24.7645C25.6307 8.97578 26.2912 8.83489 26.6123 8.74943C26.7393 8.71478 26.8271 8.58775 26.8271 8.44224V6.2873C26.8271 6.19029 26.774 6.07943 26.6908 6.01938Z" fill="#C62828"/>
<path d="M26.6908 15.8416C26.6677 15.8255 26.6423 15.8116 26.6146 15.8047C26.6123 16.2712 26.5984 16.7378 26.5984 17.2044V18.2668C26.5984 18.313 26.573 18.3453 26.5568 18.35C26.2497 18.4331 25.6076 18.5694 24.7668 18.5694H21.9513C21.9005 18.5694 21.8474 18.5463 21.8058 18.507L21.002 17.7379C20.8819 17.6224 20.7572 17.5208 20.6856 17.3637C20.6417 17.2644 20.621 17.1535 20.6348 17.045C20.6325 17.0704 20.5979 17.105 20.5886 17.1304C20.5771 17.1582 20.5701 17.1905 20.5609 17.2182C20.5447 17.2806 20.5378 17.3476 20.5424 17.4122C20.5517 17.5462 20.6071 17.6778 20.7064 17.7725L21.6465 18.671C21.7319 18.7518 21.8405 18.798 21.9513 18.798H24.7645C25.6307 18.798 26.2912 18.6572 26.6123 18.5717C26.7393 18.537 26.8271 18.41 26.8271 18.2645V16.1096C26.8271 16.0126 26.774 15.9017 26.6908 15.8416Z" fill="#7CB342"/>
</svg>
