<svg width="30" height="31" viewBox="0 0 30 31" fill="none" xmlns="http://www.w3.org/2000/svg">
<path d="M26.9255 11.1191H3.04102L4.36447 6.90625H25.1632L26.9255 11.1191Z" fill="#37474F"/>
<path d="M28.3919 13.338L25.8997 7.25892C25.8334 7.07181 25.7108 6.90984 25.5486 6.79528C25.3865 6.68072 25.1929 6.61918 24.9944 6.61914H4.59981C4.19331 6.61914 3.83068 6.87552 3.69441 7.25892L1.19764 13.338C1.17563 13.403 1.16941 13.4723 1.1795 13.5401C1.18959 13.608 1.21569 13.6724 1.25564 13.7282C1.29559 13.7839 1.34825 13.8294 1.40926 13.8607C1.47026 13.8921 1.53786 13.9085 1.60646 13.9085H27.9831C28.0517 13.9085 28.1193 13.8921 28.1803 13.8607C28.2413 13.8294 28.2939 13.7839 28.3339 13.7282C28.3739 13.6724 28.4 13.608 28.41 13.5401C28.4201 13.4723 28.4139 13.403 28.3919 13.338ZM26.685 12.9893H2.9045C2.60193 12.9893 2.38944 12.6913 2.48645 12.4049L4.45892 7.85251C4.50623 7.72072 4.59307 7.60673 4.70757 7.52612C4.82208 7.44551 4.95867 7.40221 5.0987 7.40213H24.4955C24.7819 7.40213 25.0382 7.58228 25.1352 7.85251L27.1077 12.4049C27.1296 12.4718 27.1353 12.5428 27.1245 12.6123C27.1136 12.6818 27.0864 12.7478 27.0452 12.8047C27.004 12.8617 26.9499 12.9082 26.8873 12.9402C26.8247 12.9723 26.7554 12.9891 26.685 12.9893Z" fill="#82AEC0"/>
<path d="M1.16797 13.5192V28.6292C1.16797 28.9456 1.42203 29.1997 1.73615 29.1997H27.8518C28.1659 29.1997 28.4223 28.9456 28.4223 28.6292V13.4707L1.16797 13.5192Z" fill="#37474F"/>
<path d="M24.6644 13.5159V6.15032C24.6644 5.93783 24.4911 5.76461 24.2787 5.76461V4.30257C24.2787 4.14514 24.2161 3.99416 24.1048 3.88284C23.9935 3.77152 23.8425 3.70898 23.6851 3.70898H19.6801C19.5226 3.70898 19.3717 3.77152 19.2603 3.88284C19.149 3.99416 19.0865 4.14514 19.0865 4.30257V4.70908C19.0865 5.29112 18.613 5.76461 18.0309 5.76461H5.49165C5.17985 5.76461 4.92578 6.01867 4.92578 6.33048V13.5136H24.6644V13.5159Z" fill="#F3AB47"/>
<path d="M24.2822 5.76851V4.30648C24.2822 4.14905 24.2196 3.99807 24.1083 3.88675C23.997 3.77543 23.846 3.71289 23.6886 3.71289H19.6813C19.5238 3.71289 19.3729 3.77543 19.2615 3.88675C19.1502 3.99807 19.0877 4.14905 19.0877 4.30648V4.71299C19.0877 5.14028 18.7943 5.62069 18.1592 5.76851H24.2822Z" fill="#7CB342"/>
<path opacity="0.75" d="M4.92578 6.90625H24.6667V8.1096H4.92578V6.90625Z" fill="#DE7340"/>
<path d="M25.9653 13.4827V8.14959C25.9653 7.9793 25.8976 7.81598 25.7772 7.69556C25.6568 7.57515 25.4935 7.5075 25.3232 7.5075H18.9277C18.7708 7.5075 18.6156 7.47661 18.4707 7.4166C18.3258 7.35659 18.1942 7.26863 18.0833 7.15775C17.9724 7.04687 17.8845 6.91523 17.8244 6.77035C17.7644 6.62548 17.7335 6.4702 17.7335 6.31339V5.85376C17.7335 5.4819 17.4333 5.18164 17.0614 5.18164H12.5298C12.158 5.18164 11.8577 5.4819 11.8577 5.85376V6.31339C11.8577 6.4702 11.8268 6.62548 11.7668 6.77035C11.7068 6.91523 11.6188 7.04687 11.508 7.15775C11.3971 7.26863 11.2654 7.35659 11.1206 7.4166C10.9757 7.47661 10.8204 7.5075 10.6636 7.5075H4.26807C4.09778 7.5075 3.93446 7.57515 3.81404 7.69556C3.69363 7.81598 3.62598 7.9793 3.62598 8.14959V13.4827H25.9653Z" fill="#FFCA28"/>
<path d="M17.733 6.31339V5.85376C17.733 5.4819 17.4328 5.18164 17.0609 5.18164H12.5293C12.1575 5.18164 11.8572 5.4819 11.8572 5.85376V6.31339C11.8572 6.63008 11.7314 6.93381 11.5074 7.15775C11.2835 7.38169 10.9798 7.5075 10.6631 7.5075H18.9295C18.2689 7.5075 17.733 6.97165 17.733 6.31339Z" fill="#0288D1"/>
<path d="M2.94238 9.35938H25.9653V10.5627H2.94238V9.35938Z" fill="#F3AB47"/>
<path d="M27.129 13.4841V10.6778C27.129 10.4898 27.0543 10.3094 26.9213 10.1764C26.7884 10.0435 26.608 9.96876 26.4199 9.96876H10.751C10.0235 9.96876 9.43219 9.37748 9.43219 8.64993V8.1418C9.43219 7.73299 9.0996 7.40039 8.69078 7.40039H3.68569C3.27688 7.40039 2.94428 7.73299 2.94428 8.1418V9.96876C2.67867 9.96876 2.46387 10.1836 2.46387 10.4492V13.4818H27.129V13.4841Z" fill="#FFE36C"/>
<path d="M9.43225 8.64993V8.1418C9.43225 7.73299 9.09965 7.40039 8.69084 7.40039H3.68575C3.27693 7.40039 2.94434 7.73299 2.94434 8.1418V9.96876H10.7534C10.58 9.96907 10.4083 9.93518 10.248 9.86904C10.0877 9.8029 9.94205 9.7058 9.81934 9.5833C9.69663 9.46081 9.59928 9.31532 9.53286 9.15516C9.46644 8.995 9.43225 8.82332 9.43225 8.64993Z" fill="#F44336"/>
<path d="M27.1285 12.4031C27.1862 12.932 26.9876 12.9874 26.685 12.9874H2.9045C2.60193 12.9874 2.39406 13.0105 2.46104 12.4539L1.54871 12.4839L1.19764 13.3385C1.17563 13.4035 1.16941 13.4728 1.1795 13.5406C1.18959 13.6084 1.21569 13.6729 1.25564 13.7287C1.29559 13.7844 1.34825 13.8299 1.40926 13.8612C1.47026 13.8926 1.53786 13.909 1.60646 13.909H27.9831C28.0517 13.909 28.1193 13.8926 28.1803 13.8612C28.2413 13.8299 28.2939 13.7844 28.3339 13.7287C28.3739 13.6729 28.4 13.6084 28.41 13.5406C28.4201 13.4728 28.4139 13.4035 28.3919 13.3385L27.9877 12.3477L27.1285 12.4031Z" fill="#82AEC0"/>
<path d="M10.751 19.6699H18.4607V23.6888H10.751V19.6699Z" fill="#FAFAFA"/>
<path d="M17.8008 20.5098C17.8008 20.5098 17.489 21.1357 17.4821 21.958C17.4752 22.898 17.8516 23.7249 17.8516 23.7249L11.3545 23.6533C11.3545 23.6533 11.7633 23.0204 11.7864 22.1174C11.8095 21.2628 11.4561 20.5098 11.4561 20.5098H17.8008ZM18.2027 19.5859H11.0935C10.6893 19.5859 10.3613 19.9139 10.3613 20.3181V23.9166C10.3613 24.3208 10.6893 24.6488 11.0935 24.6488H18.2027C18.6069 24.6488 18.9349 24.3208 18.9349 23.9166V20.3181C18.9345 20.1241 18.8572 19.9381 18.72 19.8009C18.5828 19.6636 18.3968 19.5864 18.2027 19.5859Z" fill="#263238"/>
<path d="M18.0087 20.0899C18.0087 20.0899 17.5791 20.762 17.5791 21.5843C17.5791 22.4065 18.0087 23.3027 18.0087 23.3027H11.2852C11.2852 23.3027 11.6986 22.4689 11.6986 21.6951C11.6986 20.9214 11.2852 20.0876 11.2852 20.0876H18.0087V20.0899ZM18.2027 19.166H11.0935C10.6893 19.166 10.3613 19.494 10.3613 19.8982V23.4967C10.3613 23.9009 10.6893 24.2289 11.0935 24.2289H18.2027C18.6069 24.2289 18.9349 23.9009 18.9349 23.4967V19.8982C18.9345 19.7041 18.8572 19.5182 18.72 19.3809C18.5828 19.2437 18.3968 19.1664 18.2027 19.166Z" fill="#9E9E9E"/>
<path d="M11.0928 19.4824H13.906" stroke="#C9E3E6" stroke-width="0.461937" stroke-miterlimit="10" stroke-linecap="round"/>
</svg>
