<svg width="30" height="30" viewBox="0 0 30 30" fill="none" xmlns="http://www.w3.org/2000/svg">
<g clip-path="url(#clip0_1766_52572)">
<path d="M0.9375 1.33105H28.6538V29.0473H0.9375V1.33105Z" fill="white"/>
<path d="M5.71777 1.37598V28.9998M10.2563 1.37598V28.9998M14.7948 1.37598V28.9998M19.3334 1.37598V28.9998M23.8719 1.37598V28.9998" stroke="#B0BEC5" stroke-width="0.460321" stroke-miterlimit="10"/>
<path d="M28.6081 6.10059H0.972656M28.6104 10.6437H0.974966M28.615 15.1869H0.977276M28.6173 19.7301H0.981895M28.6196 24.2732H0.984205" stroke="#B0BEC5" stroke-width="0.461937" stroke-miterlimit="10"/>
<path d="M1.19133 28.8112L1.17285 27.3884L7.39053 16.1818L12.8645 21.2424L27.5957 1.58691H28.4018L28.4341 2.77871L13.0516 23.3026L7.73467 18.3876L1.96507 28.8181L1.19133 28.8112Z" fill="#E53935"/>
<path d="M28.1941 1.79068V28.5854H1.39713V1.79068H28.1941ZM28.6538 1.33105H0.9375V29.0473H28.6538V1.33105Z" fill="#B0BEC5"/>
</g>
<defs>
<clipPath id="clip0_1766_52572">
<rect width="29.564" height="29.564" fill="white" transform="translate(0.0136719 0.405273)"/>
</clipPath>
</defs>
</svg>
