<svg width="30" height="30" viewBox="0 0 30 30" fill="none" xmlns="http://www.w3.org/2000/svg">
<g clip-path="url(#clip0_96_3565)">
<path d="M1.06958 10.2804L5.01081 10.329C5.01081 10.329 4.99461 8.00773 5.01081 7.83415C5.02701 7.6629 5.16587 7.60967 5.38804 7.60967H8.05409C8.05409 7.60967 9.02841 3.0459 15.152 3.0783C20.9562 3.10838 22.0694 7.55875 22.0694 7.55875C22.0694 7.55875 24.666 7.59347 24.8373 7.59347C25.0085 7.59347 25.0942 7.73001 25.0942 7.91978V10.2942H28.9775L28.7924 10.7409L27.6584 12.6502L2.37715 12.6479L1.06958 10.2804Z" fill="#FADBBC"/>
<path d="M4.98438 12.267L2.50809 12.2693C2.50809 12.2693 1.45972 10.5567 1.36715 10.4225C1.24449 10.2489 0.969092 10.2767 0.878835 10.2906C0.723778 10.3114 0.846435 10.5613 1.02001 10.8113C1.19358 11.0612 1.93184 12.2994 1.93184 12.2994V28.9669H28.1342L28.155 12.3549C28.155 12.3549 29.0761 10.8414 29.1663 10.6909C29.2566 10.5405 29.3932 10.2998 29.2265 10.2906C29.046 10.2813 28.8377 10.2489 28.6595 10.5289C28.4559 10.8506 27.5996 12.186 27.5996 12.186H25.1001V9.5986H21.2584C21.2584 9.5986 21.1219 4.31277 14.9752 4.3498C8.83072 4.38915 8.90015 9.59397 8.90015 9.59397H5.01678C5.01678 9.59629 4.98438 12.2207 4.98438 12.267Z" fill="#B99277"/>
<path d="M2.49959 13.3078H4.95042V23.5555L2.47876 23.5786L2.49959 13.3078ZM5.57296 10.6418V20.9126L24.5455 20.8917V10.6857H20.0766C20.0766 10.6857 20.396 5.49942 15.1124 5.44388C9.63453 5.3837 10.0418 10.6001 10.0418 10.6001L5.57296 10.6418Z" fill="#E2C090"/>
<path d="M10.0421 10.5996L8.61646 10.6112V28.9774H10.0907C10.093 28.9774 10.0559 10.5996 10.0421 10.5996ZM20.0768 10.6852H21.5556L21.5533 28.9704H20.0097C20.0097 28.9704 20.1138 10.6019 20.0768 10.6852Z" fill="#FADBBC"/>
<path d="M27.5839 13.3926H25.1956V23.5523H27.5608L27.5839 13.3926Z" fill="#E2C090"/>
<path d="M11.8392 23.3185L11.8323 29.0463H18.3146L18.3215 23.1426L11.8392 23.3185Z" fill="#FFA828"/>
<path d="M12.4377 24.0605V28.3721H14.7243V24.0744L12.4377 24.0605ZM15.3792 24.1045H17.6379L17.6958 28.3721H15.3954L15.3792 24.1045Z" fill="#546F7A"/>
<path d="M5.00513 23.2226C5.00513 23.2943 5.02364 29.3809 5.05836 29.4341C5.09307 29.4873 6.77787 29.5059 6.84961 29.4341C6.86813 29.4156 6.84961 23.1855 6.84961 23.1855L5.00513 23.2226ZM23.2834 23.2781C23.2834 23.2781 23.2162 29.1657 23.2648 29.3115C23.2834 29.3647 24.9612 29.411 25.0561 29.3462C25.1093 29.3115 25.1093 23.2596 25.1093 23.2596L23.2834 23.2781Z" fill="#FADDC3"/>
<path d="M26.5521 27.3641C26.2095 27.3502 25.4967 27.0331 25.5685 25.9153C25.6379 24.8207 26.1841 24.2074 26.5521 24.1935C26.92 24.1796 27.5356 25.1377 27.5356 25.9431C27.5356 26.8735 27.1538 27.3895 26.5521 27.3641ZM3.61286 24.2074C3.26803 24.2213 2.57606 25.1239 2.60151 26.1352C2.62929 27.2021 3.20323 27.4474 3.5712 27.4752C3.93917 27.5029 4.58254 27.0517 4.55477 26.0681C4.527 25.0845 3.95537 24.1935 3.61286 24.2074Z" fill="#2F7C31"/>
<path d="M2.75397 27.2958C2.71694 27.3883 2.76786 28.969 2.76786 28.969L4.32537 28.9667C4.32537 28.9667 4.35083 27.349 4.35083 27.2934C4.35314 27.2402 2.77249 27.2495 2.75397 27.2958ZM25.7163 27.2263C25.7024 27.1569 27.3155 27.1708 27.3294 27.2124C27.3595 27.3027 27.3062 28.9759 27.3062 28.9759H25.7209L25.7163 27.2263Z" fill="#E2C090"/>
<path d="M4.71216 21.5736C4.71216 21.5736 4.72836 22.9298 4.73993 23.1543C4.7515 23.3788 4.71447 23.5917 5.21667 23.5963C5.70962 23.601 24.8164 23.6056 25.064 23.6056C25.3116 23.6056 25.5916 23.4644 25.6148 23.1103C25.6379 22.7586 25.6264 21.6222 25.6264 21.6222L14.8973 21.252L4.71216 21.5736Z" fill="#AF0C1A"/>
<path d="M25.6258 21.6237C25.6258 21.6237 25.6374 21.1145 25.6374 20.9572C25.6374 20.7975 25.4962 20.6748 25.0889 20.6656C24.6816 20.6563 5.52857 20.6309 5.13052 20.6309C4.73246 20.6309 4.7232 20.8391 4.70469 21.0335C4.68617 21.2279 4.70932 21.5751 4.70932 21.5751L25.6258 21.6237Z" fill="#FADBBC"/>
<path d="M11.0715 9.01367H13.0711V19.5761H11.0715V9.01367ZM17.1234 9.01367H19.1229V19.5761H17.1234V9.01367Z" fill="#6C1507"/>
<path d="M12.7544 13.3496H17.383V15.4325H12.7544V13.3496Z" fill="#6C1507"/>
<path d="M22.3606 11.0898H23.8372V13.418H22.3606V11.0898ZM22.3537 14.3345H23.8302V16.6626H22.3537V14.3345ZM22.3537 17.637H23.8302V19.9651H22.3537V17.637ZM6.40596 11.194H7.88248V13.5222H6.40596V11.194ZM6.39902 14.4386H7.87553V16.7668H6.39902V14.4386ZM6.39902 17.7411H7.87553V20.0693H6.39902V17.7411ZM2.97388 14.4571H4.45039V16.7853H2.97388V14.4571ZM2.97388 17.7573H4.45039V20.0855H2.97388V17.7573ZM25.6608 14.3437H27.1373V16.6719H25.6608V14.3437ZM25.6608 17.6462H27.1373V19.9744H25.6608V17.6462Z" fill="#536F79"/>
</g>
<defs>
<clipPath id="clip0_96_3565">
<rect width="29.6229" height="29.6229" fill="white" transform="translate(0.217041 0.302734)"/>
</clipPath>
</defs>
</svg>
