<svg width="30" height="30" viewBox="0 0 30 30" fill="none" xmlns="http://www.w3.org/2000/svg">
<g clip-path="url(#clip0_96_3543)">
<path d="M6.28514 9.43306C6.11157 8.11854 5.81765 5.80194 6.01205 4.52677C6.20645 3.2516 6.7156 2.07594 7.77785 1.61077C8.69662 1.2104 9.84219 1.63391 10.5041 2.62443C10.8813 3.18911 11.0965 3.88571 11.2794 4.57537C11.5918 5.76029 11.8903 7.38028 12.0408 8.59991" stroke="#00796B" stroke-width="0.694286" stroke-miterlimit="10"/>
<path d="M7.15295 27.2969L1.55933 24.9664L2.85764 19.2408L2.57993 6.19291L16.7341 4.53125V5.76708L20.1014 6.19291L7.15295 27.2969Z" fill="#26A69A"/>
<path d="M21.3023 25.1662L7.15045 27.3093L5.94702 19.8156V8.33212L20.1012 6.19141V17.6726L21.3023 25.1662Z" fill="#61DE9F"/>
<path d="M5.94614 8.33162V7.04024L2.57886 6.1909L16.7608 4.61719L17.2144 5.62159L20.1003 6.1909L5.94614 8.33162Z" fill="#263238"/>
<path d="M1.55933 24.9648C1.65653 24.9648 4.91041 22.3844 4.91041 22.3844L7.15064 27.3092L6.66927 19.4568L5.94027 8.33203L4.99373 20.3547L1.55933 24.9648Z" fill="#00796B"/>
<path d="M16.7198 4.76752L17.0623 5.55901L17.1062 5.66315L17.215 5.69092L18.9392 6.13295L6.17819 8.06538V6.86195L6.0023 6.81798L3.85464 6.27644L16.7198 4.76752ZM16.8656 4.51758L2.58179 6.19312L5.94907 7.04246V8.33615L20.1009 6.19312L17.2752 5.46644L16.8656 4.51758Z" fill="#26A69A"/>
<path d="M10.2164 9.20183C10.0428 7.88963 8.23538 2.84911 11.6952 2.20574C14.3104 1.71974 15.4652 7.29023 15.618 8.51217" stroke="#61DE9F" stroke-width="0.694286" stroke-miterlimit="10"/>
<path d="M10.6475 9.56528C10.4462 8.88719 10.2356 7.51714 10.2263 7.45696L10.9113 7.35282C10.9137 7.36671 11.159 8.76454 11.4274 9.41948L10.6475 9.56528ZM16.0444 8.74371C15.8431 8.06562 15.6325 6.69556 15.6232 6.63539L16.3083 6.53125C16.3106 6.54514 16.5952 7.96611 16.8336 8.60022L16.0444 8.74371ZM10.8859 26.7442L12.8299 23.3769L11.9019 14.3998L19.6709 12.8886L15.5052 26.0546L10.8859 26.7442Z" fill="#26A69A"/>
<path d="M16.9559 13.5059C16.9559 13.5059 16.0811 8.86115 18.9948 9.16895C20.5801 9.33557 20.5153 13.0222 20.5153 13.0222" stroke="#D7578A" stroke-width="0.694286" stroke-miterlimit="10"/>
<path d="M17.2779 28.9978L12.9802 27.1996L13.98 22.7978L13.7671 12.7677L24.6442 11.4902V12.4414L27.2316 12.7677L17.2779 28.9978Z" fill="#D7578A"/>
<path d="M28.1548 27.3542L17.2776 29.0019L16.3542 23.2417V14.4173L27.2314 12.7695V21.5962L28.1548 27.3542Z" fill="#FF9F9F"/>
<path d="M16.3547 14.4155L15.4845 13.749L13.7673 12.7677L24.6445 11.4902L25.6327 12.1128L27.2318 12.7677L16.3547 14.4155Z" fill="#263238"/>
<path d="M24.6028 11.7286L26.4658 12.6474L16.4033 14.1702L14.4385 12.9205L24.6028 11.7286ZM24.6445 11.4902L13.7673 12.7677L16.3547 14.4155L27.2318 12.7677L24.6445 11.4902Z" fill="#D7578A"/>
<path d="M20.0314 15.3008C19.8763 14.7824 19.7167 13.7294 19.7097 13.6855L20.3207 13.6068C20.323 13.6183 20.4781 14.6783 20.6215 15.1666L20.0314 15.3008ZM24.1717 14.6644C24.0166 14.146 23.8569 13.093 23.85 13.049L24.454 12.9727C24.4563 12.9842 24.5813 14.0766 24.7248 14.5649L24.1717 14.6644Z" fill="#D7578A"/>
<path d="M19.6894 15.3243C19.5552 14.3152 18.1805 10.0616 20.7725 9.70286C22.7975 9.42283 23.67 13.6117 23.788 14.549" stroke="#FF9F9F" stroke-width="0.694286" stroke-miterlimit="10"/>
<path d="M12.9802 27.1987L15.1765 25.3381L17.2779 28.9993L16.3591 23.2737L16.3683 14.4424L16.1091 14.3359L15.2899 23.3131L12.9802 27.1987Z" fill="#AB2C5E"/>
</g>
<defs>
<clipPath id="clip0_96_3543">
<rect width="29.6229" height="29.6229" fill="white" transform="translate(0.0456543 0.302734)"/>
</clipPath>
</defs>
</svg>
