<svg width="31" height="31" viewBox="0 0 31 31" fill="none" xmlns="http://www.w3.org/2000/svg">
<path d="M25.3713 29.3557H7.75297C7.38342 29.3557 6.70206 29.3557 5.82207 28.5496C5.113 27.9006 4.29999 27.2932 4.31616 26.5402L23.3203 4.05078C24.355 4.05078 24.8239 4.35335 25.4798 4.746C26.7201 5.48972 26.7617 5.8662 26.7617 6.28656V27.9676C26.7608 28.3359 26.614 28.6888 26.3534 28.949C26.0927 29.2092 25.7396 29.3555 25.3713 29.3557Z" fill="#B9E4EA"/>
<path d="M16.7202 20.9551V27.6532H23.3837C23.7353 27.6532 24.0725 27.5135 24.3211 27.2649C24.5697 27.0162 24.7094 26.679 24.7094 26.3274V20.9551H16.7202Z" fill="#82AEC0"/>
<path d="M18.0907 27.6515C16.8873 27.6515 19.0723 22.7319 19.0723 22.7319C19.0723 22.7319 24.7079 17.5582 24.7079 21.1498C24.7079 24.7413 19.2917 27.6515 18.0907 27.6515Z" fill="#B9E4EA"/>
<path d="M20.4033 22.9902C20.4033 22.9902 24.7085 22.7154 24.7085 21.0154V5.4389C24.7085 4.67209 24.1657 4.05078 23.3204 4.05078H5.6767C4.76437 4.05078 4.28857 4.67209 4.28857 5.4389V26.263C4.28857 27.0299 4.90988 27.6512 5.6767 27.6512H17.8765C20.5395 27.0229 20.4033 22.9902 20.4033 22.9902Z" fill="#F5F5F5"/>
<path d="M7.24126 6.25722C7.63798 6.25722 7.95957 5.89839 7.95957 5.45576C7.95957 5.01312 7.63798 4.6543 7.24126 4.6543C6.84455 4.6543 6.52295 5.01312 6.52295 5.45576C6.52295 5.89839 6.84455 6.25722 7.24126 6.25722Z" fill="#2F7889"/>
<path d="M7.57363 4.79601C7.46374 4.56187 7.40695 4.30633 7.40733 4.04768C7.40733 3.39865 7.74455 2.85126 8.14412 2.85126C8.5437 2.85126 8.88322 3.39865 8.88322 4.04768H9.96877C9.96877 2.71961 9.15114 1.63867 8.14643 1.63867C7.14172 1.63867 6.32178 2.71961 6.32178 4.04768C6.32178 4.52116 6.42571 4.96231 6.60356 5.33417C6.76524 5.67139 7.114 5.82152 7.42119 5.65753C7.68218 5.52126 7.71452 5.08704 7.57363 4.79601Z" fill="#94D1E0"/>
<path d="M9.19398 2.08008C9.1986 2.09394 9.33256 2.44039 9.14317 2.77298C8.95147 3.11251 8.5542 3.05939 8.5542 3.05939C8.75052 3.2765 8.88218 3.64143 8.88218 4.04793H9.97235C9.97235 3.23492 9.66054 2.51661 9.19398 2.08008Z" fill="#2F7889"/>
<path d="M12.0879 6.25722C12.4847 6.25722 12.8063 5.89839 12.8063 5.45576C12.8063 5.01312 12.4847 4.6543 12.0879 4.6543C11.6912 4.6543 11.3696 5.01312 11.3696 5.45576C11.3696 5.89839 11.6912 6.25722 12.0879 6.25722Z" fill="#2F7889"/>
<path d="M12.4216 4.79601C12.3118 4.56187 12.255 4.30633 12.2553 4.04768C12.2553 3.39865 12.5926 2.85126 12.9921 2.85126C13.3917 2.85126 13.7312 3.39865 13.7312 4.04768H14.8168C14.8168 2.71961 13.9992 1.63867 12.9921 1.63867C11.9874 1.63867 11.1675 2.71961 11.1675 4.04768C11.1675 4.52116 11.2714 4.96231 11.4493 5.33417C11.6109 5.67139 11.9597 5.82152 12.2669 5.65753C12.5302 5.52126 12.5625 5.08704 12.4216 4.79601Z" fill="#94D1E0"/>
<path d="M14.0436 2.08008C14.0482 2.09394 14.1822 2.44039 13.9928 2.77298C13.8011 3.11251 13.4038 3.05939 13.4038 3.05939C13.6001 3.2765 13.7318 3.64143 13.7318 4.04793H14.8266C14.8266 3.23492 14.5101 2.51661 14.0436 2.08008Z" fill="#2F7889"/>
<path d="M16.9366 6.25722C17.3333 6.25722 17.6549 5.89839 17.6549 5.45576C17.6549 5.01312 17.3333 4.6543 16.9366 4.6543C16.5399 4.6543 16.2183 5.01312 16.2183 5.45576C16.2183 5.89839 16.5399 6.25722 16.9366 6.25722Z" fill="#2F7889"/>
<path d="M17.2693 4.79601C17.1594 4.56187 17.1026 4.30633 17.103 4.04768C17.103 3.39865 17.4402 2.85126 17.8398 2.85126C18.2394 2.85126 18.5789 3.39865 18.5789 4.04768H19.6644C19.6644 2.71961 18.8468 1.63867 17.8398 1.63867C16.8351 1.63867 16.0151 2.71961 16.0151 4.04768C16.0151 4.52116 16.1191 4.96231 16.2969 5.33417C16.4586 5.67139 16.8074 5.82152 17.1145 5.65753C17.3755 5.52126 17.4102 5.08704 17.2693 4.79601Z" fill="#94D1E0"/>
<path d="M18.8912 2.08008C18.8959 2.09394 19.0298 2.44039 18.8404 2.77298C18.6487 3.11251 18.2515 3.05939 18.2515 3.05939C18.4478 3.2765 18.5794 3.64143 18.5794 4.04793H19.6765C19.6765 3.23492 19.3578 2.51661 18.8912 2.08008Z" fill="#2F7889"/>
<path d="M21.7803 6.25722C22.177 6.25722 22.4986 5.89839 22.4986 5.45576C22.4986 5.01312 22.177 4.6543 21.7803 4.6543C21.3836 4.6543 21.062 5.01312 21.062 5.45576C21.062 5.89839 21.3836 6.25722 21.7803 6.25722Z" fill="#2F7889"/>
<path d="M22.115 4.79601C22.0051 4.56187 21.9483 4.30633 21.9487 4.04768C21.9487 3.39865 22.2859 2.85126 22.6855 2.85126C23.0851 2.85126 23.4246 3.39865 23.4246 4.04768H24.5101C24.5101 2.71961 23.6902 1.63867 22.6855 1.63867C21.6808 1.63867 20.8608 2.71961 20.8608 4.04768C20.8608 4.52116 20.9648 4.96231 21.1426 5.33417C21.3043 5.67139 21.6531 5.82152 21.9603 5.65753C22.2212 5.52126 22.2536 5.08704 22.115 4.79601Z" fill="#94D1E0"/>
<path d="M23.734 2.08008C23.7386 2.09394 23.8726 2.44039 23.6832 2.77298C23.4915 3.11251 23.0942 3.05939 23.0942 3.05939C23.2906 3.2765 23.4222 3.64143 23.4222 4.04793L23.7941 4.07334C23.7941 4.07334 24.1636 4.10336 24.5239 4.24195C24.5239 4.24195 24.6487 2.84458 23.734 2.08008Z" fill="#2F7889"/>
<g opacity="0.9">
<path d="M20.2227 24.7447H4.31592V24.2805H20.3105C20.2897 24.5322 20.2227 24.7447 20.2227 24.7447ZM24.0753 22.017H4.31592V21.5527H24.5649C24.3594 21.8715 24.0753 22.017 24.0753 22.017Z" fill="#4FC3F7"/>
<path d="M24.7082 19.0578H4.31592M24.7082 16.3278H4.31592M24.7082 13.6H4.31592M24.7082 10.8723H4.31592M24.7082 8.14453H4.31592" stroke="#4FC3F7" stroke-width="0.463323" stroke-miterlimit="10"/>
</g>
<path opacity="0.75" d="M26.7526 9.52268L24.7085 8.37476V7.9082L26.7618 9.06074L26.7526 9.52268ZM26.7526 12.2504L24.7085 11.1048V10.6383L26.7618 11.7908L26.7526 12.2504ZM26.7526 14.9805L24.7085 13.8326V13.366L26.7618 14.5185L26.7526 14.9805ZM26.7526 17.7082L24.7085 16.5603V16.0937L26.7618 17.2486L26.7526 17.7082ZM26.7526 20.4383L24.7085 19.2903V18.8238L26.7618 19.9763L26.7526 20.4383ZM26.7526 23.166L24.7085 22.0181V21.5515L26.7618 22.7041L26.7526 23.166ZM26.7526 25.8937L24.7085 24.7458V24.2793L26.7618 25.4341L26.7526 25.8937Z" fill="#2F7889"/>
</svg>
