<svg width="30" height="30" viewBox="0 0 30 30" fill="none" xmlns="http://www.w3.org/2000/svg">
<g clip-path="url(#clip0_96_3452)">
<path d="M27.3603 23.711L16.7748 28.4969C16.1222 28.8047 15.4418 28.7746 14.8169 28.4136L1.45423 21.6281C1.07237 21.3828 0.958971 21.0241 0.982114 20.7741C1.00526 20.5242 1.06311 20.2534 1.73426 20.059L2.72477 19.6934L16.1291 26.9996L25.6547 23.1069L27.3603 23.711Z" fill="#01579B"/>
<path d="M16.6475 27.7313C16.3828 27.8555 16.0923 27.9148 15.8001 27.9043C15.508 27.8939 15.2225 27.8139 14.9673 27.6711L1.9217 21.0985C1.73656 20.9967 1.68102 20.763 1.7921 20.5825C2.07908 20.108 2.60673 18.6084 1.73656 17.3633L16.4693 24.4566L16.6475 27.7313Z" fill="#F5F5F5"/>
<path d="M26.796 23.1719L16.6479 27.7333C16.3123 27.8791 15.6435 28.1383 14.8728 27.6199C15.4815 27.6639 15.9096 27.4116 16.1295 27.002C16.3447 26.604 16.2799 25.9513 16.0184 25.5834C15.8587 25.3612 15.4305 25.0071 15.2431 24.8081L26.2197 20.5151C27.1917 20.1147 28.1036 20.7141 28.2494 21.4431C28.4114 22.267 27.3607 22.9404 26.796 23.1719Z" fill="#94C6D6"/>
<path d="M27.3028 20.1562L16.8261 24.831C16.1665 25.0926 15.4282 25.0578 14.7964 24.7385L1.41061 17.9391C1.28101 17.8743 1.08892 17.6961 1.01255 17.4531C0.887582 17.0481 1.04495 16.539 1.51938 16.377L16.0253 23.7711L25.9582 19.5198L27.3028 20.1562Z" fill="#01579B"/>
<path d="M28.0922 20.8346L26.9512 20.4204L24.5999 20.5569L16.8285 24.026C16.169 24.2876 15.4307 24.2528 14.7989 23.9335L1.41076 17.1364C1.06593 16.9605 1.13999 16.4491 1.51953 16.3773L11.1678 12.0612C11.4432 12.0103 11.7255 12.0404 11.9824 12.1491L25.7501 18.7124C25.7501 18.7124 27.9371 20.2098 28.0922 20.8346Z" fill="#0091EA"/>
<path d="M24.4682 20.6251C24.4682 20.6251 25.9169 20.0581 27.0555 20.109C28.1942 20.16 28.5899 20.9584 28.5899 20.9584C28.3747 19.9794 27.3633 19.4796 27.3633 19.4796L12.3205 11.9049C12.2163 11.8609 11.8322 11.7707 11.242 12.0137C10.7653 12.2104 9.20776 12.9394 9.20776 12.9394L24.4682 20.6251Z" fill="#616161"/>
<path d="M28.6546 21.1426C28.5458 20.7098 28.2774 20.247 27.7821 20.0225C27.1295 19.7286 26.1992 19.805 25.6044 20.1151L24.4681 20.6196V21.4203L25.9052 20.7816C27.3031 20.159 27.9233 21.0917 27.9765 21.3116C28.1987 22.2072 27.7682 22.7256 26.4977 23.3088L24.4333 24.2391V25.0445L26.8078 23.9869C27.8585 23.5657 29.0573 22.7742 28.6546 21.1426Z" fill="#424242"/>
<path d="M7.685 20.9331L3.68823 15.4089L4.3154 15.1289L8.81206 21.308L7.685 20.9331ZM12.8111 23.4788L12.0983 22.9142L24.4682 20.3893V20.7943L22.7348 21.4515L12.8111 23.4788Z" fill="#01579B"/>
<path d="M3.47144 10.7179L19.0952 8.10742L25.92 15.6219C26.2648 15.9853 26.0774 16.587 25.5867 16.6865L9.45618 19.9959L3.47144 10.7179Z" fill="#9CCC65"/>
<path d="M25.5868 16.0396L9.56727 19.2842L9.51636 20.0479L25.5868 16.7524C26.0404 16.6575 26.2301 16.1391 25.9825 15.7734C25.8946 15.903 25.7603 16.0049 25.5868 16.0396ZM26.45 19.5411C26.6189 19.8096 26.4662 20.1636 26.1561 20.2261L11.4094 23.2162C10.5231 23.399 9.6529 22.8181 9.57421 21.9156C9.5071 21.1518 10.0232 20.4599 10.7753 20.3025L24.9573 17.118L26.45 19.5411Z" fill="#689F38"/>
<path d="M12.9108 18.5695L7.03713 10.1641L3.68605 11.0504C2.91076 11.8211 3.20005 13.087 3.20005 13.087C3.20005 13.087 8.33082 21.3212 9.14082 22.3742C9.95082 23.4272 11.1334 23.2629 11.1334 23.2629L13.1306 22.8602L12.9224 19.1342L12.9108 18.5695Z" fill="#616161"/>
<path d="M12.9106 18.6259L10.0895 19.2091C9.31882 19.3826 9.17996 20.107 9.17996 20.107L2.36902 10.3477C2.36902 10.3477 1.39933 11.521 2.0427 12.5185L9.14062 22.375C9.9159 23.4789 11.1332 23.2729 11.1332 23.2729L13.1304 22.8703L12.9245 19.2183L12.9106 18.6259Z" fill="#424242"/>
<path d="M25.5599 19.2402C25.6317 19.3976 25.5391 19.5804 25.3702 19.6151L11.2692 22.508C10.3828 22.6908 9.75566 22.103 9.78806 21.3022C9.82972 20.2909 10.3967 19.8627 11.1466 19.7077L25.3169 16.8125C25.3169 16.8125 24.8356 17.354 25.2035 18.3677C25.3285 18.7172 25.4627 19.0273 25.5599 19.2402Z" fill="#B9E4EA"/>
<path d="M10.5082 19.4025L4.46558 10.8535" stroke="#424242" stroke-width="0.479289" stroke-miterlimit="10"/>
<path d="M10.9824 15.7576L3.21098 11.8418L2.89624 12.462L11.8757 17.0374L10.9824 15.7576Z" fill="#424242"/>
<path d="M25.223 14.8514L24.6536 14.2266L15.8987 18.2442L10.9832 15.8118L11.8209 17.0106L15.0771 18.6746L17.5025 18.302L25.223 14.8514Z" fill="#689F38"/>
<path d="M27.358 13.3052L16.7748 18.0912C16.1222 18.399 15.4418 18.3689 14.8169 18.0079L1.45423 11.2224C1.07237 10.9771 0.958971 10.6184 0.982114 10.3684C1.00526 10.1185 1.06311 9.8477 1.73426 9.6533L2.36143 9.42188L16.0898 16.1588L27.2377 11.5464L27.358 13.3052Z" fill="#C62828"/>
<path d="M16.6456 17.3231C16.3809 17.4473 16.0904 17.5066 15.7982 17.4961C15.506 17.4857 15.2205 17.4057 14.9654 17.2629L1.91975 10.6903C1.73461 10.5885 1.67907 10.3548 1.79015 10.1743C2.07712 9.69982 2.60478 8.20016 1.73461 6.95508L16.1387 14.2821L16.6456 17.3231Z" fill="#F5F5F5"/>
<path d="M26.795 12.7637L16.6469 17.3251C16.3113 17.4709 15.6425 17.7301 14.8718 17.2117C15.4805 17.2557 15.9086 17.0034 16.1285 16.5938C16.3437 16.1958 16.2789 15.5431 16.0174 15.1752C15.8577 14.953 15.4296 14.5989 15.2421 14.3999L26.2188 10.1069C27.1908 9.70649 28.1026 10.3059 28.2484 11.0349C28.4104 11.8588 27.3597 12.5322 26.795 12.7637Z" fill="#94C6D6"/>
<path d="M27.3026 9.74927L16.8258 14.4241C16.1663 14.6856 15.428 14.6509 14.7962 14.3316L1.40806 7.53218C1.26921 7.46275 1.06092 7.28455 0.993806 7.03229C0.894292 6.65738 1.02389 6.16444 1.51683 5.97004L13.7849 3.37109L27.3026 9.74927Z" fill="#C62828"/>
<path d="M28.0906 10.4284L26.9496 10.0141L24.5983 10.1507L16.827 13.6198C16.1674 13.8813 15.4291 13.8466 14.7973 13.5272L1.40918 6.72785C1.06436 6.55196 1.18701 6.08679 1.51796 5.96876L11.1685 1.65493C11.4439 1.60402 11.7263 1.63411 11.9832 1.74288L25.7508 8.30619C25.7508 8.30619 27.9355 9.80122 28.0906 10.4284Z" fill="#F44336"/>
<path d="M24.4678 10.2169C24.4678 10.2169 25.6735 9.79342 26.8122 9.84433C27.9508 9.89524 28.5919 10.5502 28.5919 10.5502C28.3581 9.50413 27.3653 9.07136 27.3653 9.07136L12.3224 1.4967C12.2183 1.45273 11.8341 1.36247 11.244 1.60547C10.7672 1.80219 9.20972 2.53119 9.20972 2.53119L24.4678 10.2169Z" fill="#616161"/>
<path d="M25.8452 9.72011L10.4529 1.95568L10.962 1.72656L26.6159 9.57199L25.8452 9.72011Z" fill="#424242"/>
<path d="M28.6527 10.7354C28.5439 10.3026 28.3611 9.88376 27.845 9.66622C27.1854 9.3885 26.5837 9.33065 25.6024 9.70788L24.4661 10.2124V11.0131L25.9033 10.3744C26.6323 10.0319 27.7061 10.1059 27.9746 10.9044C28.2685 11.7792 27.7663 12.3184 26.4957 12.9016L24.4314 13.8319V14.6373L26.8059 13.5797C27.8589 13.1585 29.0577 12.367 28.6527 10.7354Z" fill="#424242"/>
</g>
<defs>
<clipPath id="clip0_96_3452">
<rect width="29.6229" height="29.6229" fill="white" transform="translate(0.0456543 0.0332031)"/>
</clipPath>
</defs>
</svg>
