<svg width="31" height="30" viewBox="0 0 31 30" fill="none" xmlns="http://www.w3.org/2000/svg">
<path d="M5.85498 4.71191H11.2111V8.19492H5.85498V4.71191Z" fill="#D68B52"/>
<path d="M27.21 28.4636C28.4104 28.4636 29.3835 27.1555 29.3835 25.5419C29.3835 23.9282 28.4104 22.6201 27.21 22.6201C26.0097 22.6201 25.0366 23.9282 25.0366 25.5419C25.0366 27.1555 26.0097 28.4636 27.21 28.4636Z" fill="#F2BD72"/>
<path d="M27.2104 22.6198H26.0139C26.0139 22.6198 26.0232 7.97406 26.0232 5.5027C26.0232 3.03133 24.2655 1.91113 23.6165 1.91113H5.85498C5.85498 1.91113 8.18777 2.1906 8.21779 5.5027C8.23858 7.86089 8.21779 20.0075 8.21779 23.8901C8.21779 27.7727 9.68906 28.461 9.68906 28.461H27.0995C27.1157 28.461 27.1318 28.4587 27.148 28.4564C27.1688 28.4564 27.1896 28.461 27.2104 28.461C28.4114 28.461 29.3838 27.1537 29.3838 25.5392C29.3838 23.9294 28.4114 22.6198 27.2104 22.6198Z" fill="#FFD8A1"/>
<path d="M27.2104 22.6198H26.0139C26.0139 22.6198 26.0232 7.97406 26.0232 5.5027C26.0232 3.03133 24.2655 1.91113 23.6165 1.91113H5.85498C5.85498 1.91113 8.18777 2.1906 8.21779 5.5027C8.23858 7.86089 8.21779 20.0075 8.21779 23.8901C8.21779 27.7727 9.68906 28.461 9.68906 28.461H27.0995C27.1157 28.461 27.1318 28.4587 27.148 28.4564C27.1688 28.4564 27.1896 28.461 27.2104 28.461C28.4114 28.461 29.3838 27.1537 29.3838 25.5392C29.3838 23.9294 28.4114 22.6198 27.2104 22.6198Z" fill="#FFD8A1"/>
<path d="M8.19482 23.6766L8.21561 21.5748C8.21561 21.5748 21.9652 23.0668 26.0094 18.3135V23.6234L8.19482 23.6766Z" fill="#F2BD72"/>
<g opacity="0.6">
<path opacity="0.77" d="M11.2567 7.35875C11.5269 7.35875 11.7994 7.35413 12.0697 7.35875C12.2752 7.36337 12.4669 7.39109 12.6771 7.3703C12.9035 7.3472 13.1298 7.30332 13.3608 7.31025C13.6426 7.31949 13.9128 7.40494 14.1969 7.40494C14.3355 7.40494 14.4602 7.36568 14.5965 7.35875C14.7535 7.35182 14.9106 7.35875 15.0676 7.35875H16.0608M18.9918 7.35875C19.1604 7.35875 19.3359 7.37261 19.5022 7.3472C19.7609 7.30794 20.0081 7.20169 20.2783 7.22479C20.567 7.2502 20.8118 7.4188 21.0959 7.46269C21.5556 7.52967 21.9875 7.25481 22.4517 7.21093C22.5995 7.19707 22.7474 7.20631 22.8952 7.21786C23.2301 7.24558 23.5604 7.28715 23.8907 7.34027M11.2567 12.7657C11.4876 12.7657 11.7278 12.7888 11.9565 12.7657C12.2775 12.7334 12.587 12.6202 12.9173 12.6364C13.2499 12.6526 13.5548 12.7981 13.8805 12.8558C14.3285 12.932 14.7789 12.8373 15.2224 12.7796C15.6959 12.7172 16.1463 12.768 16.6221 12.768H18.4005M20.7841 12.7657C20.955 12.7657 21.126 12.7634 21.2969 12.7657C21.5856 12.7703 21.8004 12.678 22.0752 12.6248C22.4656 12.5486 22.8559 12.6687 23.2416 12.708C23.5257 12.7357 23.8237 12.768 24.1078 12.7657M16.5782 18.1819C16.8877 18.1819 17.211 18.1612 17.5136 18.2027C18.0379 18.2766 18.4791 18.1127 18.9941 18.0595C19.4768 18.0087 19.9596 18.1057 20.4446 18.145C20.9481 18.1866 21.4539 18.1681 21.9598 18.1496C22.4841 18.1311 23.0084 18.1796 23.5373 18.1796M11.0396 18.1819C11.4922 18.1819 11.938 18.2674 12.3907 18.2351C12.5432 18.2235 12.6956 18.2027 12.8503 18.1958C13.1575 18.1796 13.467 18.2489 13.7696 18.2143C13.9705 18.1912 14.1622 18.1819 14.3655 18.1819M16.5782 4.67489C16.8877 4.67489 17.211 4.65411 17.5136 4.69568C18.0379 4.76959 18.4791 4.6056 18.9941 4.55248C19.4768 4.50167 19.9596 4.59867 20.4446 4.63794C20.9481 4.67951 21.4539 4.66104 21.9598 4.64256C22.4841 4.62408 23.0084 4.67258 23.5373 4.67258M11.0396 4.67489C11.4922 4.67489 11.938 4.76035 12.3907 4.72802C12.5432 4.71647 12.6956 4.69568 12.8503 4.68875C13.1575 4.67258 13.467 4.74187 13.7696 4.70723C13.9705 4.68413 14.1622 4.67489 14.3655 4.67489M11.2567 10.0773C11.4784 10.0773 11.6932 10.0865 11.9103 10.1027C12.2983 10.1304 12.6586 9.95484 13.0351 9.91557C13.5086 9.86707 13.9752 10.0195 14.444 10.0888C14.9083 10.1581 15.3795 10.1165 15.846 10.0888C16.0585 10.0749 16.2802 10.0565 16.4927 10.0611C16.7214 10.0657 16.9385 10.1373 17.1672 10.135C17.4605 10.1327 17.7307 10.0033 18.0194 9.95946C18.6615 9.86014 19.3013 10.1835 19.9503 10.1396C20.1628 10.1258 20.3684 10.0726 20.5786 10.0518C20.8372 10.0264 21.0982 10.0495 21.3569 10.0726L22.5071 10.1766M11.2567 15.4796C11.4784 15.4796 11.6932 15.4889 11.9103 15.505C12.2983 15.5327 12.6586 15.3572 13.0351 15.3179C13.5086 15.2694 13.9752 15.4219 14.444 15.4912C14.9083 15.5605 15.3795 15.5189 15.846 15.4912C16.0585 15.4773 16.2802 15.4588 16.4927 15.4634C16.7214 15.4681 16.9385 15.5397 17.1672 15.5374C17.4605 15.535 17.7307 15.4057 18.0194 15.3618C18.6615 15.2625 19.3013 15.5859 19.9503 15.542C20.1628 15.5281 20.3684 15.475 20.5786 15.4542C20.8372 15.4288 21.0982 15.4519 21.3569 15.475L22.5071 15.5789M14.2292 20.875C14.3493 20.8774 14.4579 20.8496 14.5757 20.845C14.7466 20.8358 14.9152 20.8843 15.0838 20.9097C15.488 20.9697 15.9107 20.9998 16.3126 20.912C16.5389 20.8612 16.7537 20.7757 16.9847 20.7434C17.5644 20.6602 18.1372 20.9189 18.7262 20.9166C19.2343 20.912 19.7794 20.681 20.2806 20.815C20.6086 20.9004 20.9458 20.8797 21.2923 20.8797" stroke="#9E673C" stroke-width="0.694061" stroke-miterlimit="10" stroke-linecap="round"/>
</g>
<path d="M9.57764 22.6201V24.0452H29.0737C28.6949 23.1929 28.002 22.6201 27.2098 22.6201H9.57764Z" fill="#FCEBCD"/>
<path d="M9.68855 28.4636C10.8889 28.4636 11.862 27.1555 11.862 25.5419C11.862 23.9282 10.8889 22.6201 9.68855 22.6201C8.48821 22.6201 7.51514 23.9282 7.51514 25.5419C7.51514 27.1555 8.48821 28.4636 9.68855 28.4636Z" fill="#F2BD72"/>
<path d="M11.3014 25.3882C11.3014 26.6192 10.5299 27.3168 9.70305 27.5431C8.63828 27.8341 8.19482 27.5801 8.19482 27.5801V23.1963C8.19482 23.1963 8.94547 23.0069 9.74693 23.2332C10.5646 23.4619 11.3014 24.1571 11.3014 25.3882Z" fill="#784D30"/>
<path d="M8.47643 27.6188C9.33363 27.6188 10.0285 26.6209 10.0285 25.39C10.0285 24.159 9.33363 23.1611 8.47643 23.1611C7.61922 23.1611 6.92432 24.159 6.92432 25.39C6.92432 26.6209 7.61922 27.6188 8.47643 27.6188Z" fill="#784D30"/>
<path d="M8.47643 27.6208C9.33363 27.6208 10.0285 26.6229 10.0285 25.3919C10.0285 24.161 9.33363 23.1631 8.47643 23.1631C7.61922 23.1631 6.92432 24.161 6.92432 25.3919C6.92432 26.6229 7.61922 27.6208 8.47643 27.6208Z" fill="#784D30"/>
<path d="M6.48569 26.4313C7.05461 26.4313 7.51581 25.9659 7.51581 25.3919C7.51581 24.8179 7.05461 24.3525 6.48569 24.3525C5.91677 24.3525 5.45557 24.8179 5.45557 25.3919C5.45557 25.9659 5.91677 26.4313 6.48569 26.4313Z" fill="#BA793E"/>
<path d="M8.37011 24.7597C8.66344 24.8497 9.02144 25.471 8.41168 26.0669C8.25693 26.2171 8.4163 26.5497 8.52255 26.8291C8.65651 27.1848 8.75352 27.3765 9.06301 27.164C9.47876 26.8823 9.87371 26.0762 9.87371 25.3925C9.87371 24.2862 9.24779 23.3877 8.47635 23.3877C8.07909 23.3877 7.76959 23.5147 7.50859 24.0529C7.39311 24.2931 7.38156 24.6003 7.7488 24.6372C7.7488 24.6395 8.15993 24.6973 8.37011 24.7597Z" fill="#BA793E"/>
<path d="M5.90323 8.17962C7.19031 8.17962 8.2337 6.77637 8.2337 5.04538C8.2337 3.31438 7.19031 1.91113 5.90323 1.91113C4.61614 1.91113 3.57275 3.31438 3.57275 5.04538C3.57275 6.77637 4.61614 8.17962 5.90323 8.17962Z" fill="#F2BD72"/>
<path d="M7.51522 4.89208C7.51522 6.12314 6.74379 6.82067 5.91692 7.04702C4.85215 7.33804 4.40869 7.08397 4.40869 7.08397V2.70018C4.40869 2.70018 5.15934 2.51079 5.9608 2.73714C6.77612 2.96349 7.51522 3.66101 7.51522 4.89208Z" fill="#784D30"/>
<path d="M4.69029 7.12274C5.5475 7.12274 6.2424 6.12485 6.2424 4.89389C6.2424 3.66293 5.5475 2.66504 4.69029 2.66504C3.83309 2.66504 3.13818 3.66293 3.13818 4.89389C3.13818 6.12485 3.83309 7.12274 4.69029 7.12274Z" fill="#784D30"/>
<path d="M4.69029 7.12469C5.5475 7.12469 6.2424 6.1268 6.2424 4.89584C6.2424 3.66488 5.5475 2.66699 4.69029 2.66699C3.83309 2.66699 3.13818 3.66488 3.13818 4.89584C3.13818 6.1268 3.83309 7.12469 4.69029 7.12469Z" fill="#784D30"/>
<path d="M2.6976 5.93516C3.26652 5.93516 3.72772 5.46983 3.72772 4.89581C3.72772 4.32178 3.26652 3.85645 2.6976 3.85645C2.12868 3.85645 1.66748 4.32178 1.66748 4.89581C1.66748 5.46983 2.12868 5.93516 2.6976 5.93516Z" fill="#BA793E"/>
<path d="M4.58202 4.26356C4.87535 4.35363 5.23335 4.97494 4.6236 5.57084C4.46885 5.72097 4.62822 6.05356 4.73446 6.33304C4.86842 6.68873 4.96543 6.88043 5.27493 6.66794C5.69067 6.38616 6.08563 5.58008 6.08563 4.89641C6.08563 3.79007 5.4597 2.8916 4.68827 2.8916C4.291 2.8916 3.9815 3.01863 3.72051 3.55679C3.60502 3.797 3.59348 4.10419 3.96072 4.14114C3.96072 4.14345 4.37415 4.19888 4.58202 4.26356Z" fill="#BA793E"/>
</svg>
