<svg width="31" height="30" viewBox="0 0 31 30" fill="none" xmlns="http://www.w3.org/2000/svg">
<path d="M28.3579 24.0941C27.8728 23.9093 27.3416 23.7708 26.7873 23.6553C25.9558 23.4705 25.055 23.355 24.1542 23.2857L24.1311 23.3088V23.101C25.055 22.8238 25.9327 22.3157 26.6487 21.5997C27.2954 20.9529 27.8266 20.1215 28.1731 19.1052C28.2655 19.0821 28.3348 19.0128 28.4041 18.9435C29.0508 18.2968 29.3972 16.195 29.1894 15.8947C29.2817 15.3173 29.6051 12.6843 28.7274 10.3284C28.7043 10.2822 28.6812 10.2129 28.6581 10.1667C28.6119 10.0512 28.5657 9.95883 28.5195 9.84335C28.4041 9.58928 28.2655 9.33522 28.1269 9.08115C28.1038 9.03496 28.0576 8.98876 28.0345 8.91947C27.8959 8.7347 27.7573 8.52682 27.6188 8.36515C27.5495 8.27276 27.4571 8.18037 27.3878 8.08798C26.3507 7.00474 24.7825 6.24254 22.4335 6.24023C20.0869 6.24254 18.9782 7.00474 17.9412 8.08798C17.8719 8.18037 17.7795 8.27276 17.7102 8.36515C17.5716 8.52682 17.433 8.7347 17.2945 8.91947C17.2714 8.98876 17.2252 9.03496 17.2021 9.08115C17.0635 9.33522 16.9249 9.58928 16.8094 9.84335C16.7632 9.95883 16.717 10.0512 16.6708 10.1667C16.6478 10.2129 16.6247 10.2822 16.6016 10.3284C15.7239 12.6843 16.0472 15.3173 16.1396 15.8947C15.9317 16.195 16.2782 18.2968 16.9249 18.9435C16.9942 19.0128 17.0635 19.0821 17.1559 19.1052C17.5023 20.1215 18.0336 20.9529 18.6803 21.5997C19.3963 22.3157 19.812 22.8238 20.7359 23.101V23.3088C18.7496 23.4682 16.8764 23.907 15.4513 24.623C14.8208 24.9395 14.278 25.309 13.853 25.734C13.2294 26.3576 12.8599 27.0967 12.8599 27.9744V28.7366H29.448V24.5584C29.1062 24.3875 28.7413 24.2327 28.3579 24.0941Z" fill="#1798F3"/>
<path d="M15.4491 24.623C15.057 24.4186 14.651 24.2418 14.2342 24.0941C13.7492 23.9093 13.2179 23.7708 12.6636 23.6553C11.8321 23.4705 10.9314 23.355 10.0306 23.2857L10.0075 23.3088V23.101C10.9314 22.8238 11.809 22.3157 12.525 21.5997C13.1718 20.9529 13.703 20.1215 14.0494 19.1052C14.1418 19.0821 14.2111 19.0128 14.2804 18.9435C14.9271 18.2968 15.2736 16.195 15.0657 15.8947C15.1581 15.3173 15.4814 12.6843 14.6038 10.3284C14.5807 10.2822 14.5576 10.2129 14.5345 10.1667C14.4883 10.0512 14.4421 9.95883 14.3959 9.84335C14.2804 9.58928 14.1418 9.33522 14.0032 9.08115C13.9801 9.03496 13.9339 8.98876 13.9109 8.91947C13.7723 8.7347 13.6337 8.52682 13.4951 8.36515C13.4258 8.27276 13.3334 8.18037 13.2641 8.08798C12.2271 7.00474 10.6588 6.24254 8.30986 6.24023C5.96322 6.24254 4.85457 7.00474 3.81752 8.08798C3.74823 8.18037 3.65584 8.27276 3.58655 8.36515C3.44797 8.52682 3.30939 8.7347 3.17081 8.91947C3.14771 8.98876 3.10152 9.03496 3.07842 9.08115C2.93984 9.33522 2.80126 9.58928 2.68577 9.84335C2.63958 9.95883 2.59339 10.0512 2.54719 10.1667C2.5241 10.2129 2.501 10.2822 2.4779 10.3284C1.60022 12.6843 1.92358 15.3173 2.01596 15.8947C1.80809 16.195 2.15455 18.2968 2.80126 18.9435C2.87055 19.0128 2.93984 19.0821 3.03223 19.1052C3.37868 20.1215 3.90991 20.9529 4.55662 21.5997C5.27262 22.3157 5.68837 22.8238 6.61224 23.101V23.3088C4.7899 23.4566 3.05994 23.8377 1.68799 24.4521V28.7366H17.8835V27.9744C17.8858 26.4846 16.9158 25.3922 15.4491 24.623Z" fill="#1976D2"/>
</svg>
