<svg width="30" height="30" viewBox="0 0 30 30" fill="none" xmlns="http://www.w3.org/2000/svg">
<g clip-path="url(#clip0_1766_52503)">
<path d="M4.59722 16.7559C4.85591 17.6543 4.50946 18.6198 4.02904 19.4212C3.54863 20.2227 2.94349 20.9549 2.5647 21.8095C1.47915 24.2693 2.5878 27.2534 3.03126 27.385C3.50243 27.5236 7.92086 24.2346 7.92086 24.2346" stroke="#616161" stroke-width="2.26118" stroke-miterlimit="10"/>
<path d="M5.07317 17.4679L3.5557 17.3848C3.54415 17.916 3.21387 18.5904 3.21387 18.5904C3.21387 18.5904 3.6758 18.2763 4.63433 18.5419L5.07317 17.4679ZM4.45186 25.3255C4.91149 25.3047 5.40807 25.4825 5.6529 25.8706C5.89772 26.2586 5.91389 26.7944 5.69678 27.2009L7.38978 26.0184C7.38978 26.0184 7.40364 25.538 7.02716 25.076C6.65299 24.6141 5.97394 24.2422 5.97394 24.2422L4.45186 25.3255Z" fill="#424242"/>
<path d="M8.81617 14.2858C8.81617 16.1336 6.55729 17.6303 4.70954 17.6303C2.86179 17.6303 2.125 16.1313 2.125 14.2858C2.125 12.4404 2.86179 10.9414 4.70723 10.9414C6.55267 10.9414 8.81617 12.4381 8.81617 14.2858Z" fill="#616161"/>
<path d="M4.50999 12.356C4.44301 12.4992 4.35755 12.7371 4.19819 12.7763C3.80785 12.8733 3.1288 12.8456 2.92786 12.7371C2.6276 12.5754 3.01101 12.0904 3.14497 11.9241C3.272 11.7647 3.4152 11.6053 3.59998 11.5152C4.14506 11.2519 4.69939 11.2681 5.01582 11.3074C5.11513 11.3212 5.15902 11.4436 5.08511 11.5129C4.93036 11.6584 4.71094 11.9218 4.50999 12.356ZM1.82383 23.6342C1.73837 23.588 1.66677 23.5095 1.62519 23.4194C1.56052 23.2762 1.5559 23.1145 1.56514 22.9574C1.58824 22.5648 2.16566 20.5207 2.80083 20.8279C3.18885 21.015 2.79621 21.6917 2.73384 21.9412C2.60681 22.4424 2.57679 22.9782 2.32041 23.4402C2.25112 23.5649 2.12871 23.6665 1.98782 23.6734C1.93007 23.6758 1.87464 23.6619 1.82383 23.6342Z" fill="#82AEC0"/>
<path d="M24.9809 16.7559C24.7222 17.6543 25.0686 18.6198 25.549 19.4212C26.0295 20.2227 26.6346 20.9549 27.0134 21.8095C28.0989 24.2693 26.9903 27.2534 26.5468 27.385C26.0757 27.5236 21.6572 24.2346 21.6572 24.2346" stroke="#616161" stroke-width="2.26118" stroke-miterlimit="10"/>
<path d="M24.5055 17.4679L26.023 17.3848C26.0345 17.916 26.3648 18.5904 26.3648 18.5904C26.3648 18.5904 25.9029 18.2763 24.9444 18.5419L24.5055 17.4679ZM25.1268 25.3255C24.6672 25.3047 24.1706 25.4825 23.9258 25.8706C23.681 26.2586 23.6648 26.7944 23.8819 27.2009L22.1866 26.0207C22.1866 26.0207 22.1727 25.5403 22.5492 25.0783C22.9234 24.6164 23.6024 24.2445 23.6024 24.2445L25.1268 25.3255Z" fill="#424242"/>
<path d="M20.7627 14.2858C20.7627 16.1336 23.0216 17.6303 24.8693 17.6303C26.7171 17.6303 27.4516 16.1336 27.4516 14.2858C27.4516 12.4381 26.7148 10.9414 24.8693 10.9414C23.0239 10.9414 20.7627 12.4381 20.7627 14.2858Z" fill="#616161"/>
<path d="M19.0527 12.2104H10.5253C8.14632 12.2104 6.81363 11.2242 6.50413 11.3558C5.44861 11.8039 5.00977 12.9472 5.00977 14.2868C5.00977 15.5849 5.4232 16.6982 6.40944 17.174C6.73741 17.3333 8.50201 16.2686 10.6385 16.2686H18.9372C20.5147 16.2686 22.762 17.3472 23.0715 17.2178C24.1271 16.7698 24.5659 15.6265 24.5659 14.2868C24.5659 12.9588 24.1317 11.8224 23.0946 11.3674C22.7828 11.2288 21.039 12.2104 19.0527 12.2104Z" fill="#212121"/>
<path d="M5.76953 11.8671V4.41831C5.76953 3.33738 6.65414 2.45508 7.73277 2.45508H21.845C22.9259 2.45508 23.8082 3.33969 23.8082 4.41831V11.8647C23.8082 12.9457 22.9236 13.828 21.845 13.828H7.73277C6.65414 13.8303 5.76953 12.948 5.76953 11.8671Z" fill="#B9E4EA"/>
<path d="M12.2076 10.94H8.18186C7.98554 10.94 7.82617 10.7806 7.82617 10.5843V5.02952C7.82617 4.8332 7.98554 4.67383 8.18186 4.67383H12.2076C12.404 4.67383 12.5633 4.8332 12.5633 5.02952V10.5843C12.5633 10.7806 12.404 10.94 12.2076 10.94Z" fill="white"/>
<path d="M12.5509 10.7583V10.9431H7.84375V10.7583C7.84375 10.0354 8.7607 9.68432 9.77696 9.61272V9.5619C9.34967 9.43256 8.96626 9.11152 8.77686 8.58029C8.58285 8.511 8.47198 7.87583 8.5228 7.79268C8.48584 7.52476 8.23178 5.42987 10.195 5.41602C12.1513 5.42525 11.9042 7.51552 11.8626 7.78806C11.9134 7.87121 11.8026 8.50638 11.6085 8.57567C11.4238 9.10459 11.0427 9.43256 10.6131 9.5619V9.6081C11.6386 9.68894 12.5509 10.0747 12.5509 10.7583Z" fill="url(#paint0_radial_1766_52503)"/>
<path d="M18.0795 5.41488H14.1553C13.9659 5.41488 13.8135 5.26244 13.8135 5.07305V5.01761C13.8135 4.82822 13.9659 4.67578 14.1553 4.67578H18.0795C18.2689 4.67578 18.4213 4.82822 18.4213 5.01761V5.07305C18.4213 5.26013 18.2666 5.41488 18.0795 5.41488ZM19.4653 7.2557H14.1553C13.9659 7.2557 13.8135 7.10326 13.8135 6.91387V6.85844C13.8135 6.66904 13.9659 6.5166 14.1553 6.5166H19.4653C19.6547 6.5166 19.8071 6.66904 19.8071 6.85844V6.91387C19.8071 7.10326 19.6547 7.2557 19.4653 7.2557ZM17.4813 9.09883H14.1553C13.9659 9.09883 13.8135 8.94639 13.8135 8.757V8.70157C13.8135 8.51217 13.9659 8.35973 14.1553 8.35973H17.4836C17.673 8.35973 17.8254 8.51217 17.8254 8.70157V8.757C17.8231 8.94408 17.6707 9.09883 17.4813 9.09883ZM16.592 10.9397H14.1553C13.9659 10.9397 13.8135 10.7872 13.8135 10.5978V10.5424C13.8135 10.353 13.9659 10.2006 14.1553 10.2006H16.592C16.7814 10.2006 16.9339 10.353 16.9339 10.5424V10.5978C16.9339 10.7872 16.7814 10.9397 16.592 10.9397Z" fill="#82AEC0"/>
<path d="M24.3087 22.457H5.26993C5.13366 22.9421 5.13366 23.4502 5.52399 23.8475C5.64872 23.9768 5.91202 24.2216 5.91202 24.2216C5.91202 24.2216 6.02288 24.6674 6.26078 24.9469C6.62802 25.3765 7.21468 25.4804 7.21468 25.4804C7.21468 25.4804 7.32555 25.8361 7.48261 26.0532C7.71127 26.3743 8.15935 26.4412 8.5543 26.4436H21.0266C21.4216 26.4412 21.8697 26.3766 22.0983 26.0532C22.2554 25.8338 22.3662 25.4804 22.3662 25.4804C22.3662 25.4804 22.9506 25.3765 23.3201 24.9469C23.558 24.6697 23.6689 24.2216 23.6689 24.2216C23.6689 24.2216 23.9299 23.9768 24.0569 23.8475C24.445 23.4502 24.445 22.9421 24.3087 22.457Z" fill="#B9E4EA"/>
<path d="M24.3317 22.3479L24.1862 21.9414H5.39227L5.24676 22.3479C5.03889 23.0939 5.87731 23.3226 6.86354 23.3226H22.7149C23.6989 23.3226 24.5396 23.0962 24.3317 22.3479Z" fill="#82AEC0"/>
<path d="M24.99 21.2685L24.5165 20.3008H5.06205L4.58856 21.2685C4.36452 22.0146 5.16598 22.1855 6.22382 22.1855H23.3571C24.4126 22.1878 25.2141 22.0169 24.99 21.2685Z" fill="#B9E4EA"/>
<path d="M25.6901 19.3965L23.4012 15.5047C23.2317 15.2827 23.0133 15.1028 22.7629 14.979C22.5125 14.8553 22.237 14.7909 21.9576 14.791H7.62142C7.05554 14.791 6.52201 15.0543 6.17786 15.5047L3.88896 19.3965C3.54713 20.2788 4.64654 20.5606 5.59351 20.5699H23.9856C24.9325 20.5606 26.0319 20.2788 25.6901 19.3965Z" fill="white"/>
<path d="M24.3643 23.2348C24.3527 23.2302 24.3365 23.2625 24.3365 23.2625C24.0501 23.9069 22.8699 23.9254 22.863 23.9231H6.71824C6.71131 23.9254 5.53106 23.9069 5.24466 23.2625C5.24466 23.2625 5.2308 23.2302 5.21695 23.2348C5.21002 23.2371 5.21695 23.2764 5.21695 23.2764C5.45484 24.2372 6.15468 24.4012 6.72979 24.4012H22.8514C23.4265 24.4012 24.1264 24.2372 24.3643 23.2764C24.3643 23.2764 24.3712 23.2371 24.3643 23.2348Z" fill="#82AEC0"/>
<path opacity="0.75" d="M23.4728 24.6392C23.4266 24.6185 23.392 24.6577 23.392 24.6577C23.392 24.6577 22.9578 25.0388 21.9276 25.0388H7.65147C6.62135 25.0388 6.18713 24.6554 6.18713 24.6554C6.18713 24.6554 6.15248 24.6161 6.10629 24.6369C6.0601 24.6577 6.19175 24.8633 6.26104 24.9441C6.62828 25.3737 7.21494 25.4777 7.21494 25.4777C7.34659 25.5008 7.4921 25.5146 7.65147 25.5146H21.9276C22.0893 25.5146 22.2325 25.5008 22.3642 25.4777C22.3642 25.4777 22.9485 25.3737 23.3181 24.9441C23.3874 24.8656 23.519 24.66 23.4728 24.6392Z" fill="#2F7889"/>
<path d="M22.2734 25.7216C22.2572 25.71 22.1394 25.8671 22.1394 25.8671C21.9015 26.0957 21.7329 26.2043 20.6404 26.2043H8.93722C7.84474 26.2043 7.67614 26.0957 7.43824 25.8671C7.43824 25.8671 7.32044 25.7077 7.30428 25.7216C7.28811 25.7331 7.35509 25.8925 7.35509 25.8925C7.38742 25.9618 7.56989 26.6824 9.09428 26.6824H20.4834C22.0077 26.6824 22.1902 25.9618 22.2225 25.8925C22.2225 25.8925 22.2895 25.7331 22.2734 25.7216Z" fill="#2F7889"/>
<path d="M19.2987 14.7402C19.2156 14.9112 19.1717 15.1005 19.1694 15.2899C19.1694 15.3569 19.1763 15.4308 19.2248 15.477C19.2549 15.5047 19.2941 15.5186 19.3334 15.5278C19.5182 15.5694 19.7099 15.5255 19.8877 15.4609C20.2688 15.3223 20.613 15.0821 20.874 14.7703M10.6536 14.7518C10.4864 14.9824 10.3872 15.2553 10.3672 15.5394C10.5935 15.6664 10.8776 15.5763 11.1086 15.4585C11.4481 15.2876 11.7622 15.0613 12.0325 14.7934" fill="#B9E4EA"/>
<path d="M10.3521 15.5582C9.95483 15.5582 9.63379 15.2371 9.63379 14.8399V13.521C9.63379 13.1238 9.95483 12.8027 10.3521 12.8027C10.7494 12.8027 11.0704 13.1238 11.0704 13.521V14.8399C11.0704 15.2371 10.7494 15.5582 10.3521 15.5582ZM19.2282 15.5582C18.831 15.5582 18.5099 15.2371 18.5099 14.8399V13.521C18.5099 13.1238 18.831 12.8027 19.2282 12.8027C19.6255 12.8027 19.9465 13.1238 19.9465 13.521V14.8399C19.9465 15.2371 19.6255 15.5582 19.2282 15.5582Z" fill="#616161"/>
</g>
<defs>
<radialGradient id="paint0_radial_1766_52503" cx="0" cy="0" r="1" gradientUnits="userSpaceOnUse" gradientTransform="translate(10.1966 8.17817) scale(2.56629)">
<stop offset="0.104" stop-color="#1E88E5"/>
<stop offset="0.153" stop-color="#1E88E5"/>
</radialGradient>
<clipPath id="clip0_1766_52503">
<rect width="29.564" height="29.564" fill="white" transform="translate(0.0136719 0.09375)"/>
</clipPath>
</defs>
</svg>
