<svg width="30" height="30" viewBox="0 0 30 30" fill="none" xmlns="http://www.w3.org/2000/svg">
<g clip-path="url(#clip0_1766_52541)">
<path d="M24.039 5.79236L5.54995 5.76465C2.07156 5.76465 0.9375 7.17587 0.9375 10.1207V19.9138C0.9375 22.3228 1.68584 24.2699 5.55226 24.2699L24.0413 24.2976C27.5128 24.2976 28.6561 22.8101 28.6561 19.9415V10.1484C28.6538 6.91256 27.425 5.79236 24.039 5.79236Z" fill="#504F4F"/>
<path d="M25.3138 15.636C25.3138 16.1256 24.9281 16.5136 24.4361 16.5136H5.14331C4.65365 16.5136 4.26562 16.1279 4.26562 15.636V9.93335C4.26562 9.44369 4.65134 9.05566 5.14331 9.05566H24.4361C24.9258 9.05566 25.3138 9.44138 25.3138 9.93335V15.636Z" fill="#8DCC47"/>
<path opacity="0.5" d="M9.6291 12.158L9.25262 12.5345C9.19488 12.5922 9.10018 12.5922 9.04244 12.5345L8.66596 12.158C8.65192 12.1441 8.6408 12.1276 8.63327 12.1093C8.62573 12.0911 8.62192 12.0715 8.62207 12.0518V11.0032C8.62207 10.9639 8.63824 10.927 8.66596 10.8969L9.04244 10.5205C9.10018 10.4627 9.19488 10.4627 9.25262 10.5205L9.6291 10.8969C9.65912 10.927 9.67298 10.9639 9.67298 11.0032V12.0518C9.67298 12.0934 9.65681 12.1303 9.6291 12.158ZM9.6291 14.6663L9.25262 15.0428C9.19488 15.1006 9.10018 15.1006 9.04244 15.0428L8.66596 14.6663C8.65192 14.6525 8.6408 14.6359 8.63327 14.6177C8.62573 14.5994 8.62192 14.5798 8.62207 14.5601V13.5115C8.62207 13.4722 8.63824 13.4353 8.66596 13.4053L9.04244 13.0288C9.10018 12.971 9.19488 12.971 9.25262 13.0288L9.6291 13.4053C9.65912 13.4353 9.67298 13.4722 9.67298 13.5115V14.5601C9.67298 14.6017 9.65681 14.6386 9.6291 14.6663ZM11.56 12.158L11.1835 12.5345C11.1258 12.5922 11.0311 12.5922 10.9733 12.5345L10.5969 12.158C10.5828 12.1441 10.5717 12.1276 10.5642 12.1093C10.5566 12.0911 10.5528 12.0715 10.553 12.0518V11.0032C10.553 10.9639 10.5691 10.927 10.5969 10.8969L10.9733 10.5205C11.0311 10.4627 11.1258 10.4627 11.1835 10.5205L11.56 10.8969C11.59 10.927 11.6039 10.9639 11.6039 11.0032V12.0518C11.6039 12.0934 11.5877 12.1303 11.56 12.158ZM14.3085 12.158L13.932 12.5345C13.8743 12.5922 13.7796 12.5922 13.7219 12.5345L13.3454 12.158C13.3313 12.1441 13.3202 12.1276 13.3127 12.1093C13.3052 12.0911 13.3014 12.0715 13.3015 12.0518V11.0032C13.3015 10.9639 13.3177 10.927 13.3454 10.8969L13.7219 10.5205C13.7796 10.4627 13.8743 10.4627 13.932 10.5205L14.3085 10.8969C14.3386 10.927 14.3524 10.9639 14.3524 11.0032V12.0518C14.3524 12.0934 14.3362 12.1303 14.3085 12.158ZM14.3085 14.6663L13.932 15.0428C13.8743 15.1006 13.7796 15.1006 13.7219 15.0428L13.3454 14.6663C13.3313 14.6525 13.3202 14.6359 13.3127 14.6177C13.3052 14.5994 13.3014 14.5798 13.3015 14.5601V13.5115C13.3015 13.4722 13.3177 13.4353 13.3454 13.4053L13.7219 13.0288C13.7796 12.971 13.8743 12.971 13.932 13.0288L14.3085 13.4053C14.3386 13.4353 14.3524 13.4722 14.3524 13.5115V14.5601C14.3524 14.6017 14.3362 14.6386 14.3085 14.6663ZM11.8233 10.756L11.4468 10.3796C11.4191 10.3516 11.4035 10.3138 11.4035 10.2745C11.4035 10.2351 11.4191 10.1973 11.4468 10.1694L11.8233 9.79291C11.8533 9.76288 11.8903 9.74902 11.9295 9.74902H12.9805C13.0197 9.74902 13.0567 9.76519 13.0867 9.79291L13.4632 10.1694C13.5209 10.2271 13.5209 10.3218 13.4632 10.3796L13.0867 10.756C13.0567 10.7861 13.0197 10.7999 12.9805 10.7999H11.9295C11.888 10.7999 11.851 10.7838 11.8233 10.756ZM11.8233 13.2644L11.4468 12.8879C11.4191 12.8599 11.4035 12.8222 11.4035 12.7828C11.4035 12.7434 11.4191 12.7057 11.4468 12.6777L11.8233 12.3012C11.8533 12.2712 11.8903 12.2573 11.9295 12.2573H12.9805C13.0197 12.2573 13.0567 12.2735 13.0867 12.3012L13.4632 12.6777C13.5209 12.7354 13.5209 12.8301 13.4632 12.8879L13.0867 13.2644C13.0567 13.2944 13.0197 13.3083 12.9805 13.3083H11.9295C11.888 13.3083 11.851 13.2921 11.8233 13.2644ZM11.8233 15.7727L11.4468 15.3962C11.4191 15.3683 11.4035 15.3305 11.4035 15.2911C11.4035 15.2517 11.4191 15.214 11.4468 15.186L11.8233 14.8095C11.8533 14.7795 11.8903 14.7657 11.9295 14.7657H12.9805C13.0197 14.7657 13.0567 14.7818 13.0867 14.8095L13.4632 15.186C13.5209 15.2438 13.5209 15.3385 13.4632 15.3962L13.0867 15.7727C13.0567 15.8027 13.0197 15.8166 12.9805 15.8166H11.9295C11.888 15.8166 11.851 15.8004 11.8233 15.7727ZM16.2394 12.158L15.8629 12.5345C15.8052 12.5922 15.7105 12.5922 15.6528 12.5345L15.2763 12.158C15.2622 12.1441 15.2511 12.1276 15.2436 12.1093C15.2361 12.0911 15.2322 12.0715 15.2324 12.0518V11.0032C15.2324 10.9639 15.2486 10.927 15.2763 10.8969L15.6528 10.5205C15.7105 10.4627 15.8052 10.4627 15.8629 10.5205L16.2394 10.8969C16.2694 10.927 16.2833 10.9639 16.2833 11.0032V12.0518C16.2833 12.0934 16.2671 12.1303 16.2394 12.158ZM18.9903 12.158L18.6138 12.5345C18.556 12.5922 18.4613 12.5922 18.4036 12.5345L18.0271 12.158C18.0131 12.1441 18.002 12.1276 17.9944 12.1093C17.9869 12.0911 17.9831 12.0715 17.9832 12.0518V11.0032C17.9832 10.9639 17.9994 10.927 18.0271 10.8969L18.4036 10.5205C18.4613 10.4627 18.556 10.4627 18.6138 10.5205L18.9903 10.8969C19.0203 10.927 19.0341 10.9639 19.0341 11.0032V12.0518C19.0318 12.0934 19.0157 12.1303 18.9903 12.158ZM18.9903 14.6663L18.6138 15.0428C18.556 15.1006 18.4613 15.1006 18.4036 15.0428L18.0271 14.6663C18.0131 14.6525 18.002 14.6359 17.9944 14.6177C17.9869 14.5994 17.9831 14.5798 17.9832 14.5601V13.5115C17.9832 13.4722 17.9994 13.4353 18.0271 13.4053L18.4036 13.0288C18.4613 12.971 18.556 12.971 18.6138 13.0288L18.9903 13.4053C19.0203 13.4353 19.0341 13.4722 19.0341 13.5115V14.5601C19.0318 14.6017 19.0157 14.6386 18.9903 14.6663ZM16.5027 10.756L16.1262 10.3796C16.0985 10.3516 16.083 10.3138 16.083 10.2745C16.083 10.2351 16.0985 10.1973 16.1262 10.1694L16.5027 9.79291C16.5328 9.76288 16.5697 9.74902 16.609 9.74902H17.6599C17.6991 9.74902 17.7361 9.76519 17.7661 9.79291L18.1426 10.1694C18.2003 10.2271 18.2003 10.3218 18.1426 10.3796L17.7661 10.756C17.7361 10.7861 17.6991 10.7999 17.6599 10.7999H16.609C16.5674 10.7999 16.5304 10.7838 16.5027 10.756ZM16.5027 13.2644L16.1262 12.8879C16.0985 12.8599 16.083 12.8222 16.083 12.7828C16.083 12.7434 16.0985 12.7057 16.1262 12.6777L16.5027 12.3012C16.5328 12.2712 16.5697 12.2573 16.609 12.2573H17.6599C17.6991 12.2573 17.7361 12.2735 17.7661 12.3012L18.1426 12.6777C18.2003 12.7354 18.2003 12.8301 18.1426 12.8879L17.7661 13.2644C17.7361 13.2944 17.6991 13.3083 17.6599 13.3083H16.609C16.5674 13.3083 16.5304 13.2921 16.5027 13.2644ZM16.5027 15.7727L16.1262 15.3962C16.0985 15.3683 16.083 15.3305 16.083 15.2911C16.083 15.2517 16.0985 15.214 16.1262 15.186L16.5027 14.8095C16.5328 14.7795 16.5697 14.7657 16.609 14.7657H17.6599C17.6991 14.7657 17.7361 14.7818 17.7661 14.8095L18.1426 15.186C18.2003 15.2438 18.2003 15.3385 18.1426 15.3962L17.7661 15.7727C17.7361 15.8027 17.6991 15.8166 17.6599 15.8166H16.609C16.5674 15.8166 16.5304 15.8004 16.5027 15.7727ZM20.9212 12.158L20.5447 12.5345C20.4869 12.5922 20.3922 12.5922 20.3345 12.5345L19.958 12.158C19.944 12.1441 19.9329 12.1276 19.9253 12.1093C19.9178 12.0911 19.914 12.0715 19.9141 12.0518V11.0032C19.9141 10.9639 19.9303 10.927 19.958 10.8969L20.3345 10.5205C20.3922 10.4627 20.4869 10.4627 20.5447 10.5205L20.9212 10.8969C20.9512 10.927 20.965 10.9639 20.965 11.0032V12.0518C20.9627 12.0934 20.9466 12.1303 20.9212 12.158ZM23.6674 12.158L23.2909 12.5345C23.2332 12.5922 23.1385 12.5922 23.0807 12.5345L22.7042 12.158C22.6902 12.1441 22.6791 12.1276 22.6715 12.1093C22.664 12.0911 22.6602 12.0715 22.6604 12.0518V11.0032C22.6604 10.9639 22.6765 10.927 22.7042 10.8969L23.0807 10.5205C23.1385 10.4627 23.2332 10.4627 23.2909 10.5205L23.6674 10.8969C23.6974 10.927 23.7113 10.9639 23.7113 11.0032V12.0518C23.7125 12.0717 23.7091 12.0915 23.7015 12.1099C23.6939 12.1284 23.6823 12.1448 23.6674 12.158ZM20.9212 14.6663L20.5447 15.0428C20.4869 15.1006 20.3922 15.1006 20.3345 15.0428L19.958 14.6663C19.944 14.6525 19.9329 14.6359 19.9253 14.6177C19.9178 14.5994 19.914 14.5798 19.9141 14.5601V13.5115C19.9141 13.4722 19.9303 13.4353 19.958 13.4053L20.3345 13.0288C20.3922 12.971 20.4869 12.971 20.5447 13.0288L20.9212 13.4053C20.9512 13.4353 20.965 13.4722 20.965 13.5115V14.5601C20.9627 14.6017 20.9466 14.6386 20.9212 14.6663ZM23.6674 14.6663L23.2909 15.0428C23.2332 15.1006 23.1385 15.1006 23.0807 15.0428L22.7042 14.6663C22.6902 14.6525 22.6791 14.6359 22.6715 14.6177C22.664 14.5994 22.6602 14.5798 22.6604 14.5601V13.5115C22.6604 13.4722 22.6765 13.4353 22.7042 13.4053L23.0807 13.0288C23.1385 12.971 23.2332 12.971 23.2909 13.0288L23.6674 13.4053C23.6974 13.4353 23.7113 13.4722 23.7113 13.5115V14.5601C23.7125 14.58 23.7091 14.5999 23.7015 14.6183C23.6939 14.6367 23.6823 14.6531 23.6674 14.6663ZM21.1845 10.756L20.808 10.3796C20.7803 10.3516 20.7647 10.3138 20.7647 10.2745C20.7647 10.2351 20.7803 10.1973 20.808 10.1694L21.1845 9.79291C21.2145 9.76288 21.2514 9.74902 21.2907 9.74902H22.3416C22.3809 9.74902 22.4178 9.76519 22.4479 9.79291L22.8243 10.1694C22.8821 10.2271 22.8821 10.3218 22.8243 10.3796L22.4479 10.756C22.4178 10.7861 22.3809 10.7999 22.3416 10.7999H21.2907C21.2491 10.7999 21.2099 10.7838 21.1845 10.756ZM21.1845 13.2644L20.808 12.8879C20.7803 12.8599 20.7647 12.8222 20.7647 12.7828C20.7647 12.7434 20.7803 12.7057 20.808 12.6777L21.1845 12.3012C21.2145 12.2712 21.2514 12.2573 21.2907 12.2573H22.3416C22.3809 12.2573 22.4178 12.2735 22.4479 12.3012L22.8243 12.6777C22.8821 12.7354 22.8821 12.8301 22.8243 12.8879L22.4479 13.2644C22.4178 13.2944 22.3809 13.3083 22.3416 13.3083H21.2907C21.2491 13.3083 21.2099 13.2921 21.1845 13.2644ZM21.1845 15.7727L20.808 15.3962C20.7803 15.3683 20.7647 15.3305 20.7647 15.2911C20.7647 15.2517 20.7803 15.214 20.808 15.186L21.1845 14.8095C21.2145 14.7795 21.2514 14.7657 21.2907 14.7657H22.3416C22.3809 14.7657 22.4178 14.7818 22.4479 14.8095L22.8243 15.186C22.8821 15.2438 22.8821 15.3385 22.8243 15.3962L22.4479 15.7727C22.4178 15.8027 22.3809 15.8166 22.3416 15.8166H21.2907C21.2491 15.8166 21.2099 15.8004 21.1845 15.7727Z" fill="black"/>
<path d="M24.5122 22.0965H22.5074C21.6136 22.0965 21.1562 21.3944 21.1562 20.5029C21.1562 19.609 21.6136 18.9092 22.5074 18.9092H24.5122C25.4061 18.9092 25.8634 19.6113 25.8634 20.5029C25.8588 21.332 25.4015 22.0965 24.5122 22.0965Z" fill="black"/>
<path d="M24.4018 21.0375H22.6003C22.1291 21.0375 22.1407 20.8019 22.1407 20.5017C22.1407 20.2014 22.1291 19.9658 22.6003 19.9658H24.4018C24.873 19.9658 24.8822 20.2014 24.8822 20.5017C24.8799 20.7788 24.8707 21.0375 24.4018 21.0375Z" fill="#8BC34A"/>
<path d="M7.08254 22.0965H5.07773C4.18388 22.0965 3.72656 21.3944 3.72656 20.5029C3.72656 19.609 4.18388 18.9092 5.07773 18.9092H7.08254C7.97639 18.9092 8.43371 19.6113 8.43371 20.5029C8.43371 21.332 7.97408 22.0965 7.08254 22.0965Z" fill="black"/>
<path d="M6.08095 21.4617C6.6116 21.4617 7.04178 21.0315 7.04178 20.5009C7.04178 19.9702 6.6116 19.54 6.08095 19.54C5.5503 19.54 5.12012 19.9702 5.12012 20.5009C5.12012 21.0315 5.5503 21.4617 6.08095 21.4617Z" fill="#F44336"/>
<path d="M18.7007 22.0965H16.6959C15.802 22.0965 15.3447 21.3944 15.3447 20.5029C15.3447 19.609 15.802 18.9092 16.6959 18.9092H18.7007C19.5946 18.9092 20.0519 19.6113 20.0519 20.5029C20.0542 21.332 19.5946 22.0965 18.7007 22.0965Z" fill="black"/>
<path d="M17.2305 19.54L18.8218 20.5009L17.2305 21.4617V19.54Z" fill="#EEEEEE"/>
<path d="M10.8893 22.0965H12.8941C13.7879 22.0965 14.2452 21.3944 14.2452 20.5029C14.2452 19.609 13.7879 18.9092 12.8941 18.9092H10.8893C9.99541 18.9092 9.53809 19.6113 9.53809 20.5029C9.53578 21.332 9.99541 22.0965 10.8893 22.0965Z" fill="black"/>
<path d="M12.3609 19.54L10.7695 20.5009L12.3609 21.4617V19.54Z" fill="#EEEEEE"/>
<path d="M24.4379 9.05482C24.9276 9.05482 25.3156 9.44053 25.3156 9.9325V15.6328C25.3156 16.1225 24.9299 16.5105 24.4379 16.5105H5.14281C4.65316 16.5105 4.26513 16.1248 4.26513 15.6328V9.9325C4.26513 9.44284 4.65085 9.05482 5.14281 9.05482H24.4379ZM24.4379 7.8584H5.14281C3.99721 7.8584 3.06641 8.7892 3.06641 9.93481V15.6351C3.06641 16.7807 3.99721 17.7115 5.14281 17.7115H24.4356C25.5812 17.7115 26.512 16.7807 26.512 15.6351V9.9325C26.512 8.7892 25.5812 7.8584 24.4379 7.8584Z" fill="black"/>
</g>
<defs>
<clipPath id="clip0_1766_52541">
<rect width="29.564" height="29.564" fill="white" transform="translate(0.0136719 0.249023)"/>
</clipPath>
</defs>
</svg>
