<svg width="31" height="30" viewBox="0 0 31 30" fill="none" xmlns="http://www.w3.org/2000/svg">
<path d="M1.66748 21.8058V8.25718C1.66748 7.17625 2.55209 6.29395 3.63071 6.29395H27.4205C28.5014 6.29395 29.3837 7.17856 29.3837 8.25718V21.8081C29.3837 22.889 28.4991 23.7714 27.4205 23.7714H3.63071C2.55209 23.7714 1.66748 22.8867 1.66748 21.8058Z" fill="#B9E4EA"/>
<path d="M10.5433 20.837H4.25169C4.05536 20.837 3.896 20.6777 3.896 20.4813V11.9309C3.896 11.7346 4.05536 11.5752 4.25169 11.5752H10.5433C10.7396 11.5752 10.899 11.7346 10.899 11.9309V20.4837C10.899 20.6777 10.7396 20.837 10.5433 20.837Z" fill="white"/>
<path d="M10.8762 20.5638V20.8364H3.91943V20.5638C3.91943 19.4944 5.27522 18.9771 6.77883 18.8685V18.7946C6.14597 18.6029 5.5801 18.1271 5.30063 17.3441C5.01423 17.2425 4.85024 16.3024 4.92646 16.18C4.87103 15.7851 4.49686 12.6878 7.39782 12.667C10.2919 12.6809 9.92231 15.7712 9.86226 16.1731C9.93617 16.2955 9.77449 17.2356 9.48809 17.3372C9.21555 18.1202 8.64967 18.6029 8.01682 18.7946V18.8616C9.52966 18.984 10.8762 19.5568 10.8762 20.5638Z" fill="url(#paint0_linear_1766_52559)"/>
<path d="M27.4205 6.29004H3.63071C2.54978 6.29004 1.66748 7.17465 1.66748 8.25327V9.48434H29.3837V8.25327C29.3837 7.17465 28.4991 6.29004 27.4205 6.29004Z" fill="#2F7889"/>
<path d="M19.0108 12.6661H13.292C12.9895 12.6661 12.7446 12.4213 12.7446 12.1187C12.7446 11.8161 12.9895 11.5713 13.292 11.5713H19.0108C19.3134 11.5713 19.5582 11.8161 19.5582 12.1187C19.5576 12.2637 19.4997 12.4026 19.3972 12.5051C19.2947 12.6076 19.1558 12.6655 19.0108 12.6661ZM21.0595 15.3892H13.292C12.9895 15.3892 12.7446 15.1444 12.7446 14.8418C12.7446 14.5392 12.9895 14.2944 13.292 14.2944H21.0595C21.3621 14.2944 21.6069 14.5392 21.6069 14.8418C21.6063 14.9868 21.5484 15.1257 21.4459 15.2282C21.3434 15.3307 21.2045 15.3886 21.0595 15.3892ZM18.1285 18.1123H13.292C12.9895 18.1123 12.7446 17.8675 12.7446 17.5649C12.7446 17.2624 12.9895 17.0175 13.292 17.0175H18.1285C18.4311 17.0175 18.6759 17.2624 18.6759 17.5649C18.6753 17.7099 18.6174 17.8488 18.5149 17.9513C18.4124 18.0538 18.2735 18.1117 18.1285 18.1123ZM16.812 20.8354H13.292C12.9895 20.8354 12.7446 20.5906 12.7446 20.2881C12.7446 19.9855 12.9895 19.7407 13.292 19.7407H16.812C17.1146 19.7407 17.3594 19.9855 17.3594 20.2881C17.3594 20.5906 17.1146 20.8354 16.812 20.8354Z" fill="#82AEC0"/>
<path d="M29.3834 12.6739C29.3441 12.6716 29.3049 12.667 29.2633 12.667C27.4525 12.667 25.9858 14.1336 25.9858 15.9444C25.9858 17.7552 27.4525 19.2219 29.2633 19.2219C29.3026 19.2219 29.3418 19.2173 29.3834 19.215V12.6739Z" fill="#94D1E0"/>
<defs>
<linearGradient id="paint0_linear_1766_52559" x1="7.39852" y1="12.6677" x2="7.39852" y2="20.8366" gradientUnits="userSpaceOnUse">
<stop offset="0.153" stop-color="#1E88E5"/>
<stop offset="1" stop-color="#1565C0"/>
</linearGradient>
</defs>
</svg>
