<svg width="30" height="30" viewBox="0 0 30 30" fill="none" xmlns="http://www.w3.org/2000/svg">
<g clip-path="url(#clip0_96_3348)">
<path d="M5.04288 22.5806C4.948 22.613 0.992885 23.8234 0.992885 23.8234C0.992885 23.8234 0.726742 22.5945 0.969742 21.3448C1.22663 20.021 1.5622 19.2342 1.5622 19.2342C1.5622 19.2342 1.92786 18.3432 3.05954 17.6119C4.01071 16.9963 6.19077 16.3436 6.69297 16.0243C7.02623 15.8137 7.5886 15.4341 8.44257 14.4945C9.29654 13.5549 9.97231 12.5714 11.4812 11.8724C12.9901 11.1735 13.777 11.2823 15.4155 11.1735C17.054 11.0648 18.8245 11.1087 20.1598 11.1735C21.4951 11.2383 22.5412 11.8516 22.893 12.0692C23.2424 12.2867 24.1172 13.0319 24.5755 13.511C25.0337 13.9923 25.5799 14.7121 25.9964 15.0638C26.4107 15.4133 27.0679 15.8299 27.6349 16.1562C28.2043 16.4848 28.5537 16.7672 28.6625 17.0518C28.7713 17.3365 28.7689 17.3504 28.7689 17.3504L28.3778 21.4004L5.04288 22.5806Z" fill="#F92612"/>
<path d="M0.992432 23.8209C0.992432 23.8209 1.59183 22.7378 3.01049 21.6038C4.21855 20.6388 5.30626 20.1019 6.99569 19.8542C8.48377 19.6367 11.4669 19.7061 16.4403 19.7293C21.4137 19.7501 24.9522 19.757 25.4058 19.7362C25.8594 19.7154 26.4611 19.3266 27.1763 18.873C27.8891 18.4194 28.1737 19.0859 28.1737 19.0859L28.9745 21.4418C28.9745 21.4418 29.0045 24.1588 28.9536 24.8161C28.9189 25.2511 28.3265 26.0056 28.0233 26.1352C27.7201 26.2648 22.2491 26.3504 20.6291 26.3504C19.0068 26.3504 5.17897 26.3088 3.78577 26.2C3.13777 26.1491 2.27223 25.8112 1.86029 25.3993C1.1012 24.6425 0.992432 23.8209 0.992432 23.8209Z" fill="#D70617"/>
<path d="M1.91188 19.2291C1.91188 19.2291 3.76099 18.9976 3.89291 19.0902C4.05722 19.2059 3.33054 20.458 3.13845 20.7102C3.04356 20.8352 1.41431 21.622 1.41431 21.622L1.41894 20.4904L1.91188 19.2291Z" fill="#FFFEFF"/>
<path d="M0.89087 21.9006L1.6083 21.5257C1.6083 21.5257 1.73558 20.8105 1.81427 20.4703C1.94156 19.908 2.25398 19.1836 2.25398 19.1836L1.55276 19.2484C1.55276 19.2484 1.32364 19.6395 1.11304 20.5166C0.888556 21.4632 0.89087 21.9006 0.89087 21.9006Z" fill="#D5CCC2"/>
<path d="M7.62371 17.8564C7.67462 18.3563 8.22774 18.3447 9.80839 18.3447C11.0697 18.3447 23.7867 18.4628 24.0899 18.3285C24.238 18.2637 24.4416 17.9883 24.6939 17.6227C25.0734 17.0765 25.2493 16.8173 25.2146 16.6136C25.1475 16.2156 23.0808 13.6074 21.7871 12.8344C20.8915 12.2998 18.9637 12.2975 17.3692 12.279C15.9251 12.2628 13.1849 12.2281 11.8751 13.0682C9.92411 14.3202 7.5566 17.2015 7.62371 17.8564Z" fill="#546D81"/>
<path d="M9.33852 17.3548C9.44035 17.4821 11.4515 17.4451 13.3214 17.4381C15.2353 17.4312 17.0358 17.5237 17.096 17.4381C17.1238 17.3988 17.2187 13.3441 17.14 13.2724C17.0821 13.2192 16.5869 13.2562 15.9574 13.2631C14.9067 13.2747 13.3769 13.439 12.4142 13.9783C10.7595 14.9017 9.13718 17.1025 9.33852 17.3548ZM18.2925 13.3465C18.2763 13.3765 18.2462 17.4705 18.2717 17.4867C18.4059 17.57 23.532 17.5052 23.5829 17.4381C23.6339 17.371 24.187 16.8341 24.1708 16.6999C24.1546 16.5656 22.4258 14.4295 21.2386 13.7052C20.7179 13.3835 18.3203 13.3002 18.2925 13.3465Z" fill="#AFE3FB"/>
<path d="M8.83795 18.8792C8.98838 19.2773 9.78681 19.4508 10.3006 19.4046C11.0597 19.3351 11.5156 18.8931 11.5966 17.9836C11.6915 16.9398 11.2147 16.4608 10.8838 16.3983C10.532 16.3312 8.82406 18.1479 8.82406 18.1479C8.82406 18.1479 8.71298 18.5483 8.83795 18.8792Z" fill="#AF0F21"/>
<path d="M9.92861 18.6557C10.491 18.5955 10.8937 18.0771 11.0881 17.6629C11.2802 17.2486 11.4236 16.6238 10.9909 16.434C10.454 16.2002 9.97026 16.4756 9.63932 16.8482C9.34772 17.1769 8.78304 17.9244 8.82469 18.1442C8.86635 18.3664 9.15564 18.739 9.92861 18.6557Z" fill="#F92612"/>
<path d="M4.33857 25.6744C4.3594 26.9518 5.37768 28.7894 7.59477 28.8033C9.81186 28.8172 10.9621 27.1185 10.8926 25.3781C10.8209 23.61 9.4462 22.3603 7.46748 22.4158C5.61606 22.4714 4.3108 23.9062 4.33857 25.6744Z" fill="#4E433D"/>
<path d="M5.88236 25.567C5.89393 26.2405 6.4401 27.2102 7.63196 27.2171C8.82381 27.224 9.40007 26.3793 9.36304 25.4629C9.3237 24.5302 8.5623 23.8359 7.56253 23.8498C6.56738 23.866 5.86616 24.6344 5.88236 25.567Z" fill="#C8C8C8"/>
<path d="M20.7058 25.7814C20.7266 27.0496 21.7217 28.8733 23.8925 28.8871C26.0633 28.901 27.1881 27.2162 27.121 25.4898C27.0515 23.7332 25.7069 22.4951 23.7699 22.5506C21.9578 22.6039 20.678 24.0271 20.7058 25.7814Z" fill="#4E433D"/>
<path d="M22.1547 25.6803C22.1663 26.3538 22.7125 27.3234 23.9043 27.3304C25.0962 27.3373 25.6725 26.4926 25.6354 25.5762C25.5961 24.6435 24.8347 23.9492 23.8349 23.9631C22.8421 23.9793 22.1409 24.7476 22.1547 25.6803Z" fill="#C8C8C8"/>
<path d="M28.2799 17.7578C28.2128 17.8527 27.051 18.8108 27.051 18.9589C27.051 19.107 28.3748 21.021 28.3748 21.021L28.6849 21.2084C28.6849 21.2084 28.833 18.783 28.833 18.7298C28.833 18.6812 28.2799 17.7578 28.2799 17.7578Z" fill="#FFFEFF"/>
<path d="M28.9769 21.8018C28.9769 21.8018 29.0856 20.0591 29.0717 19.1172C29.0579 18.092 28.7663 17.3398 28.7663 17.3398L28.2756 17.768C28.2756 17.768 28.4423 18.6752 28.4423 19.27C28.4423 19.8647 28.3751 21.0242 28.3751 21.0242L28.9769 21.8018Z" fill="#D5CCC2"/>
</g>
<defs>
<clipPath id="clip0_96_3348">
<rect width="29.6229" height="29.6229" fill="white" transform="translate(0.217041 0.130859)"/>
</clipPath>
</defs>
</svg>
