<svg width="30" height="31" viewBox="0 0 30 31" fill="none" xmlns="http://www.w3.org/2000/svg">
<path d="M20.2721 29.3652H9.44121C8.3535 29.3652 7.45093 28.4858 7.45093 27.3749V3.58404C7.45093 2.49632 8.3535 1.59375 9.44121 1.59375H20.2721C21.3598 1.59375 22.2624 2.47318 22.2624 3.58404V27.398C22.2624 28.4858 21.3598 29.3652 20.2721 29.3652Z" fill="#424242"/>
<path d="M20.1268 28.4656H9.28673C8.78916 28.4656 8.38647 28.0629 8.38647 27.5654V5.2163C8.38647 4.72104 8.78916 4.31836 9.28442 4.31836H20.4277C20.9253 4.31836 21.328 4.72104 21.328 5.21862V27.4196C21.328 27.6348 21.004 28.4656 20.1268 28.4656Z" fill="black"/>
<path d="M17.0903 3.35035H12.6469C12.4849 3.35035 12.3691 3.21149 12.3691 3.07264C12.3691 2.93378 12.508 2.79492 12.6469 2.79492H17.0671C17.2291 2.79492 17.3449 2.93378 17.3449 3.07264C17.3449 3.21149 17.2291 3.35035 17.0903 3.35035Z" fill="#212121"/>
<path d="M20.2721 2.05661C21.1145 2.05661 21.7995 2.74164 21.7995 3.58404V27.398C21.7995 28.2266 21.1145 28.9023 20.2721 28.9023H9.44121C8.59881 28.9023 7.91378 28.2173 7.91378 27.3749V3.58404C7.91378 2.75552 8.6127 2.05661 9.44121 2.05661H20.2721ZM20.2721 1.59375H9.44121C8.3535 1.59375 7.45093 2.49632 7.45093 3.58404V27.3749C7.45093 28.4858 8.3535 29.3652 9.44121 29.3652H20.2721C21.3598 29.3652 22.2624 28.4858 22.2624 27.398V3.58404C22.2624 2.47318 21.3598 1.59375 20.2721 1.59375Z" fill="#757575"/>
<path d="M11.2351 7.60239H9.76325C9.59431 7.60239 9.45776 7.46585 9.45776 7.2969V5.82502C9.45776 5.65607 9.59431 5.51953 9.76325 5.51953H11.2351C11.4041 5.51953 11.5406 5.65607 11.5406 5.82502V7.2969C11.5406 7.46585 11.4041 7.60239 11.2351 7.60239Z" fill="#EAB56E"/>
<path d="M14.1394 7.60239H12.6675C12.4986 7.60239 12.3621 7.46585 12.3621 7.2969V5.82502C12.3621 5.65607 12.4986 5.51953 12.6675 5.51953H14.1394C14.3084 5.51953 14.4449 5.65607 14.4449 5.82502V7.2969C14.4449 7.46585 14.3084 7.60239 14.1394 7.60239Z" fill="#FB8C00"/>
<path d="M17.0443 7.60239H15.5748C15.4058 7.60239 15.2693 7.46585 15.2693 7.2969V5.82502C15.2693 5.65607 15.4058 5.51953 15.5748 5.51953H17.0467C17.2156 5.51953 17.3521 5.65607 17.3521 5.82502V7.2969C17.3521 7.46585 17.2156 7.60239 17.0443 7.60239Z" fill="#FF80AB"/>
<path d="M19.95 7.60239H18.4781C18.3092 7.60239 18.1726 7.46585 18.1726 7.2969V5.82502C18.1726 5.65607 18.3092 5.51953 18.4781 5.51953H19.95C20.1189 5.51953 20.2555 5.65607 20.2555 5.82502V7.2969C20.2555 7.46585 20.1189 7.60239 19.95 7.60239Z" fill="#0288D1"/>
<path d="M11.2351 10.8797H9.76325C9.59431 10.8797 9.45776 10.7432 9.45776 10.5742V9.10236C9.45776 8.93342 9.59431 8.79688 9.76325 8.79688H11.2351C11.4041 8.79688 11.5406 8.93342 11.5406 9.10236V10.5742C11.5406 10.7432 11.4041 10.8797 11.2351 10.8797Z" fill="#00BFA5"/>
<path d="M14.1394 10.8797H12.6675C12.4986 10.8797 12.3621 10.7432 12.3621 10.5742V9.10236C12.3621 8.93342 12.4986 8.79688 12.6675 8.79688H14.1394C14.3084 8.79688 14.4449 8.93342 14.4449 9.10236V10.5742C14.4449 10.7432 14.3084 10.8797 14.1394 10.8797Z" fill="#81D4FA"/>
<path d="M17.0443 10.8797H15.5748C15.4058 10.8797 15.2693 10.7432 15.2693 10.5742V9.10236C15.2693 8.93342 15.4058 8.79688 15.5748 8.79688H17.0467C17.2156 8.79688 17.3521 8.93342 17.3521 9.10236V10.5742C17.3521 10.7432 17.2156 10.8797 17.0443 10.8797Z" fill="#FB8C00"/>
<path d="M19.95 10.8797H18.4781C18.3092 10.8797 18.1726 10.7432 18.1726 10.5742V9.10236C18.1726 8.93342 18.3092 8.79688 18.4781 8.79688H19.95C20.1189 8.79688 20.2555 8.93342 20.2555 9.10236V10.5742C20.2555 10.7432 20.1189 10.8797 19.95 10.8797Z" fill="#EAB56E"/>
<path d="M11.2351 14.1571H9.76325C9.59431 14.1571 9.45776 14.0205 9.45776 13.8516V12.3797C9.45776 12.2108 9.59431 12.0742 9.76325 12.0742H11.2351C11.4041 12.0742 11.5406 12.2108 11.5406 12.3797V13.8516C11.5406 14.0205 11.4041 14.1571 11.2351 14.1571Z" fill="#FB8C00"/>
<path d="M14.1394 14.1571H12.6675C12.4986 14.1571 12.3621 14.0205 12.3621 13.8516V12.3797C12.3621 12.2108 12.4986 12.0742 12.6675 12.0742H14.1394C14.3084 12.0742 14.4449 12.2108 14.4449 12.3797V13.8516C14.4449 14.0205 14.3084 14.1571 14.1394 14.1571Z" fill="#FF80AB"/>
<path d="M17.0443 14.1571H15.5748C15.4058 14.1571 15.2693 14.0205 15.2693 13.8516V12.3797C15.2693 12.2108 15.4058 12.0742 15.5748 12.0742H17.0467C17.2156 12.0742 17.3521 12.2108 17.3521 12.3797V13.8516C17.3521 14.0205 17.2156 14.1571 17.0443 14.1571Z" fill="#00BFA5"/>
<path d="M19.9507 14.1571H18.4789C18.3099 14.1571 18.1734 14.0205 18.1734 13.8516V12.3797C18.1734 12.2108 18.3099 12.0742 18.4789 12.0742H19.9507C20.1197 12.0742 20.2562 12.2108 20.2562 12.3797V13.8516C20.2562 14.0205 20.1197 14.1571 19.9507 14.1571ZM11.2351 17.4341H9.76325C9.59431 17.4341 9.45776 17.2976 9.45776 17.1286V15.6567C9.45776 15.4878 9.59431 15.3512 9.76325 15.3512H11.2351C11.4041 15.3512 11.5406 15.4878 11.5406 15.6567V17.1286C11.5406 17.2976 11.4041 17.4341 11.2351 17.4341Z" fill="#0288D1"/>
<path d="M14.1396 17.4325H12.6677C12.4987 17.4325 12.3622 17.2959 12.3622 17.127V15.6551C12.3622 15.4862 12.4987 15.3496 12.6677 15.3496H14.1396C14.3085 15.3496 14.4451 15.4862 14.4451 15.6551V17.127C14.4451 17.2959 14.3085 17.4325 14.1396 17.4325ZM11.2351 27.2636H9.76325C9.59431 27.2636 9.45776 27.127 9.45776 26.9581V25.4862C9.45776 25.3172 9.59431 25.1807 9.76325 25.1807H11.2351C11.4041 25.1807 11.5406 25.3172 11.5406 25.4862V26.9581C11.5406 27.1247 11.4041 27.2636 11.2351 27.2636Z" fill="#81D4FA"/>
<path d="M14.1394 27.2645H12.6675C12.4986 27.2645 12.3621 27.128 12.3621 26.959V25.4871C12.3621 25.3182 12.4986 25.1816 12.6675 25.1816H14.1394C14.3084 25.1816 14.4449 25.3182 14.4449 25.4871V26.959C14.4449 27.1256 14.3084 27.2645 14.1394 27.2645Z" fill="#0288D1"/>
<path d="M17.0443 27.2645H15.5748C15.4058 27.2645 15.2693 27.128 15.2693 26.959V25.4871C15.2693 25.3182 15.4058 25.1816 15.5748 25.1816H17.0467C17.2156 25.1816 17.3521 25.3182 17.3521 25.4871V26.959C17.3521 27.1256 17.2156 27.2645 17.0443 27.2645Z" fill="#00BFA5"/>
<path d="M19.95 27.2645H18.4781C18.3092 27.2645 18.1726 27.128 18.1726 26.959V25.4871C18.1726 25.3182 18.3092 25.1816 18.4781 25.1816H19.95C20.1189 25.1816 20.2555 25.3182 20.2555 25.4871V26.959C20.2555 27.1256 20.1189 27.2645 19.95 27.2645Z" fill="#FF80AB"/>
</svg>
