<svg width="17" height="16" viewBox="0 0 17 16" fill="none" xmlns="http://www.w3.org/2000/svg">
<path d="M12.2458 1.12891L14.9702 3.96883V14.7684H4.79297V14.8036H15.005V4.00458L12.2458 1.12891Z" fill="#909090"/>
<path d="M12.2116 1.09082H4.75781V14.7656H14.9698V3.96649L12.2116 1.09082Z" fill="#F4F4F4"/>
<path d="M4.6835 1.82812H1.55469V5.17092H11.3965V1.82812H4.6835Z" fill="#7A7B7C"/>
<path d="M11.4477 5.10989H1.61719V1.76465H11.4477V5.10989Z" fill="#DD2025"/>
<path d="M4.87824 2.33162H4.23828V4.68191H4.74163V3.88918L4.85278 3.89554C4.96082 3.89405 5.06787 3.8747 5.16958 3.83825C5.259 3.80789 5.34118 3.75938 5.41098 3.69577C5.48254 3.63576 5.53877 3.55955 5.57501 3.47347C5.62458 3.33084 5.64213 3.17905 5.62642 3.02887C5.62363 2.92157 5.60481 2.81529 5.5706 2.71354C5.53977 2.64 5.49392 2.57371 5.436 2.51891C5.37808 2.4641 5.30935 2.42199 5.23422 2.39528C5.16944 2.37129 5.10231 2.35422 5.03395 2.34435C4.98231 2.33594 4.93008 2.33169 4.87775 2.33162M4.78521 3.45486H4.74163V2.73019H4.83614C4.87784 2.72718 4.91969 2.73359 4.95859 2.74893C4.9975 2.76427 5.03245 2.78815 5.06088 2.81882C5.11979 2.89766 5.15127 2.99362 5.15049 3.09204C5.15049 3.21249 5.15049 3.32168 5.04179 3.39855C4.9635 3.44168 4.87434 3.46156 4.78521 3.45486ZM6.58269 2.32526C6.52834 2.32526 6.47546 2.32917 6.43825 2.33064L6.32171 2.33358H5.93979V4.68387H6.38928C6.56104 4.68828 6.73201 4.65918 6.89264 4.59818C7.02196 4.54711 7.13643 4.46445 7.22559 4.35776C7.31297 4.25061 7.37536 4.12532 7.40823 3.99102C7.44685 3.8392 7.46561 3.683 7.46405 3.52635C7.47363 3.34134 7.45932 3.15587 7.42145 2.97452C7.3852 2.84119 7.31811 2.71824 7.22559 2.61562C7.15303 2.53263 7.06376 2.46589 6.96363 2.41976C6.87786 2.38 6.7876 2.35074 6.69482 2.3326C6.65792 2.32655 6.62057 2.32377 6.58318 2.32428M6.49407 4.252H6.4451V2.75174H6.45147C6.55241 2.74006 6.65456 2.75828 6.74525 2.80413C6.81168 2.85717 6.86581 2.92399 6.9039 2.99998C6.94501 3.07996 6.9687 3.16774 6.97343 3.25754C6.97783 3.36526 6.97343 3.45339 6.97343 3.52635C6.97524 3.61039 6.96983 3.69443 6.95727 3.77754C6.94186 3.86277 6.91398 3.94526 6.87452 4.02236C6.82994 4.09426 6.76905 4.15465 6.69678 4.19863C6.63641 4.2378 6.56484 4.25604 6.49309 4.25053M8.98047 2.33358H7.79064V4.68387H8.29399V3.75159H8.93053V3.31483H8.29399V2.77034H8.97949V2.33358" fill="#464648"/>
<path d="M11.111 10.0265C11.111 10.0265 12.672 9.74353 12.672 10.2768C12.672 10.81 11.7049 10.5931 11.111 10.0265ZM9.95688 10.0672C9.70884 10.1218 9.46713 10.2021 9.23564 10.3066L9.4315 9.86594C9.62735 9.42526 9.83056 8.82447 9.83056 8.82447C10.0637 9.2182 10.3357 9.5876 10.6424 9.92715C10.4115 9.96154 10.1826 10.0086 9.95688 10.0682V10.0672ZM9.33895 6.88451C9.33895 6.41983 9.48928 6.29302 9.6063 6.29302C9.72332 6.29302 9.85504 6.34933 9.85945 6.75279C9.82126 7.15848 9.73632 7.5584 9.6063 7.94458C9.42759 7.62057 9.33535 7.25599 9.33846 6.88597L9.33895 6.88451ZM7.06261 12.0336C6.58373 11.7471 8.06686 10.8653 8.33568 10.8369C8.33421 10.8374 7.564 12.3333 7.06261 12.0336ZM13.1278 10.3399C13.1229 10.291 13.0788 9.74892 12.1143 9.77193C11.7122 9.76488 11.3103 9.79323 10.9132 9.85664C10.5282 9.4692 10.1969 9.03198 9.92799 8.55664C10.0973 8.06665 10.1999 7.5561 10.233 7.03874C10.2188 6.45117 10.0783 6.1143 9.62784 6.11919C9.17737 6.12409 9.11176 6.51825 9.17101 7.10484C9.22899 7.49904 9.33847 7.88392 9.49662 8.24963C9.49662 8.24963 9.28852 8.89743 9.01334 9.5418C8.73816 10.1862 8.55014 10.524 8.55014 10.524C8.07155 10.6796 7.62106 10.9111 7.21586 11.2095C6.8124 11.5851 6.64837 11.8735 6.86087 12.1619C7.044 12.4106 7.68494 12.4669 8.25782 11.7163C8.56169 11.3282 8.83975 10.9206 9.09022 10.4961C9.09022 10.4961 9.96374 10.2567 10.2355 10.1911C10.5072 10.1255 10.8358 10.0735 10.8358 10.0735C10.8358 10.0735 11.6334 10.8761 12.4027 10.8477C13.1719 10.8193 13.1347 10.3879 13.1298 10.3409" fill="#DD2025"/>
<path d="M12.1738 1.12891V4.00458H14.932L12.1738 1.12891Z" fill="#909090"/>
<path d="M12.2129 1.09082V3.96649H14.971L12.2129 1.09082Z" fill="#F4F4F4"/>
<path d="M4.83918 2.29354H4.19922V4.64382H4.70453V3.85158L4.81617 3.85795C4.92421 3.85646 5.03125 3.8371 5.13297 3.80066C5.22239 3.7703 5.30457 3.72179 5.37436 3.65817C5.44539 3.598 5.50111 3.5218 5.53692 3.43587C5.5865 3.29325 5.60405 3.14145 5.58834 2.99128C5.58554 2.88397 5.56673 2.77769 5.53252 2.67595C5.50168 2.60241 5.45584 2.53611 5.39792 2.48131C5.33999 2.42651 5.27126 2.3844 5.19613 2.35768C5.13106 2.33346 5.0636 2.31622 4.99489 2.30627C4.94325 2.29786 4.89101 2.2936 4.83869 2.29354M4.74615 3.41678H4.70257V2.69211H4.79756C4.83927 2.6891 4.88112 2.6955 4.92002 2.71084C4.95892 2.72618 4.99388 2.75007 5.02231 2.78073C5.08122 2.85957 5.11269 2.95554 5.11191 3.05395C5.11191 3.1744 5.11191 3.28359 5.00321 3.36047C4.92492 3.40359 4.83577 3.42299 4.74664 3.41629M6.54363 2.28717C6.48928 2.28717 6.4364 2.29109 6.39918 2.29256L6.28412 2.2955H5.9022V4.64578H6.35169C6.52345 4.6502 6.69442 4.62109 6.85504 4.56009C6.98436 4.50902 7.09883 4.42637 7.188 4.31968C7.27537 4.21252 7.33777 4.08724 7.37064 3.95294C7.40925 3.80111 7.42802 3.64492 7.42646 3.48827C7.43604 3.30326 7.42172 3.11778 7.38386 2.93644C7.34761 2.8031 7.28052 2.68016 7.188 2.57753C7.11543 2.49454 7.02617 2.4278 6.92604 2.38167C6.84027 2.34191 6.75001 2.31265 6.65723 2.29452C6.62033 2.28847 6.58297 2.28568 6.54559 2.28619M6.45647 4.21392H6.40751V2.71365H6.41387C6.51482 2.70198 6.61697 2.72019 6.70766 2.76604C6.77409 2.81908 6.82821 2.88591 6.8663 2.9619C6.90741 3.04187 6.93111 3.12965 6.93583 3.21945C6.94024 3.32717 6.93583 3.41531 6.93583 3.48827C6.93764 3.5723 6.93224 3.65634 6.91967 3.73945C6.90427 3.82468 6.87639 3.90718 6.83693 3.98427C6.79234 4.05617 6.73145 4.11656 6.65918 4.16054C6.59882 4.19972 6.52725 4.21796 6.45549 4.21245M8.94141 2.2955H7.75158V4.64578H8.25493V3.7135H8.89147V3.27674H8.25493V2.73226H8.94043V2.2955" fill="white"/>
</svg>
