<svg width="30" height="46" viewBox="0 0 30 46" fill="none" xmlns="http://www.w3.org/2000/svg">
<path d="M22.7013 12.2763C22.5062 12.122 22.4731 11.8387 22.6274 11.6436L24.2205 9.62998C24.3748 9.4349 24.6581 9.40182 24.8532 9.55616C25.0483 9.7105 25.0813 9.99378 24.927 10.1889L23.334 12.2025C23.1796 12.3976 22.8964 12.4307 22.7013 12.2763Z" fill="#C18B82"/>
<path d="M23.8616 14.4688L22.8889 11.832L22.7408 11.4352C22.7408 11.4352 22.7408 11.4352 22.992 10.6912C23.2432 9.94723 22.5765 10.0632 22.5765 10.0632L21.8906 10.9037C20.9148 12.4689 21.9389 12.9713 21.9389 12.9713L21.3504 14.06L21.1756 14.3625L21.1847 14.3666L21.166 14.4011L21.1975 14.3723L23.4364 15.3769L23.8616 14.4688Z" fill="#C18B82"/>
<path d="M22.8228 12.7428C22.817 12.7428 22.811 12.7418 22.8052 12.7398C22.778 12.7302 22.7638 12.7002 22.7734 12.673C22.96 12.1478 22.6763 11.4861 22.6733 11.4795C22.6617 11.453 22.6739 11.4222 22.7004 11.4106C22.7266 11.3991 22.7577 11.4112 22.7692 11.4376C22.7817 11.4662 23.0723 12.1442 22.872 12.7079C22.8644 12.7295 22.8442 12.7428 22.8228 12.7428Z" fill="#363649"/>
<path d="M8.53601 22.6794C6.31323 22.5201 2.44908 21.8776 1.542 19.3647C1.11516 18.1823 1.66382 17.0717 3.42327 14.536C4.43896 13.0724 5.58865 11.6008 6.25737 10.7188L8.49763 14.6324C6.43882 17.3478 6.41768 17.2388 5.86908 18.1096C6.46986 18.3306 7.45034 18.5691 8.82362 18.6675L8.53601 22.6794Z" fill="#8B95F7"/>
<path d="M6.30529 18.3041C6.30039 18.3041 6.29542 18.3035 6.29044 18.302L4.72697 17.8388C4.69921 17.8306 4.68344 17.8015 4.69161 17.7738C4.69977 17.7462 4.72861 17.7302 4.75662 17.7385L6.32008 18.2017C6.34785 18.21 6.36359 18.239 6.35543 18.2667C6.34873 18.2893 6.32791 18.3041 6.30529 18.3041Z" fill="#363649"/>
<path d="M9.15922 40.4445C9.00986 40.7862 7.10906 40.9056 5.9049 40.3793C4.70074 39.853 3.63116 39.6758 3.7806 39.3341C3.92996 38.9924 5.24166 38.6156 6.44582 39.1419C7.64989 39.6681 9.30857 40.1027 9.15922 40.4445Z" fill="#363649"/>
<path d="M4.88629 37.8013L3.13379 41.5566L7.04552 43.3821L8.79802 39.6268L4.88629 37.8013Z" fill="#C18B82"/>
<path d="M17.948 39.5444C18.0063 39.9128 16.2005 40.4144 14.9025 40.6199C13.6045 40.8253 12.5051 40.6934 12.4468 40.325C12.3884 39.9566 13.3934 39.4915 14.6913 39.286C15.9892 39.0806 17.8896 39.1761 17.948 39.5444Z" fill="#363649"/>
<path d="M16.8915 38.0964L12.6279 38.7715L13.2761 42.8645L17.5396 42.1894L16.8915 38.0964Z" fill="#C18B82"/>
<path d="M7.82306 21.0918L11.8652 21.23L15.4257 21.2692L17.9599 39.5114C16.251 39.0683 13.8799 39.3451 12.4416 40.235L11.9226 26.6599C11.9203 26.5984 11.8317 26.5916 11.8201 26.652L9.15428 40.4681C7.00466 39.1862 5.28891 39.1862 3.79004 39.3045L7.82306 21.0918Z" fill="#CAC8EB"/>
<path d="M7.22235 34.2671C7.21843 34.2671 7.21443 34.2667 7.21051 34.2658C7.18233 34.2592 7.1647 34.2312 7.17131 34.2031L8.53202 28.2866C8.53839 28.2585 8.56728 28.2411 8.59472 28.2474C8.62289 28.2539 8.64053 28.2819 8.63391 28.3101L7.27323 34.2265C7.26776 34.2507 7.24611 34.2671 7.22235 34.2671Z" fill="#363649"/>
<path d="M13.3295 22.2307C12.0262 22.2307 10.2384 22.2 8.54344 22.0694C8.51453 22.0672 8.49307 22.042 8.49527 22.0132C8.4974 21.9844 8.52189 21.9622 8.55145 21.9651C11.7196 22.2093 15.2131 22.1033 15.248 22.1023C15.2761 22.1 15.3011 22.124 15.302 22.1529C15.3029 22.1818 15.2801 22.206 15.2513 22.2068C15.2349 22.2074 14.4665 22.2307 13.3295 22.2307Z" fill="#363649"/>
<path d="M12.3326 21.9328C12.1507 21.9328 12.0029 21.7849 12.0029 21.6031C12.0029 21.4213 12.1508 21.2734 12.3326 21.2734C12.5144 21.2734 12.6622 21.4213 12.6622 21.6031C12.6622 21.7849 12.5144 21.9328 12.3326 21.9328ZM12.3326 21.3781C12.2085 21.3781 12.1075 21.4791 12.1075 21.6032C12.1075 21.7273 12.2085 21.8282 12.3326 21.8282C12.4566 21.8282 12.5576 21.7272 12.5576 21.6032C12.5576 21.4791 12.4566 21.3781 12.3326 21.3781Z" fill="#363649"/>
<path d="M14.7732 29.5344C14.7472 29.5344 14.7245 29.5148 14.7214 29.4883L14.0902 24.2029C14.0868 24.1742 14.1072 24.1482 14.136 24.1448C14.1658 24.1419 14.1908 24.1619 14.1941 24.1905L14.8253 29.4759C14.8287 29.5046 14.8083 29.5306 14.7795 29.534C14.7774 29.5343 14.7753 29.5344 14.7732 29.5344Z" fill="#363649"/>
<path d="M12.6246 38.8315C12.6102 38.8315 12.596 38.8257 12.5856 38.8141C12.5664 38.7927 12.5681 38.7595 12.5897 38.7403C14.3436 37.1694 17.4799 37.9832 17.5113 37.9916C17.5392 37.999 17.5558 38.0277 17.5484 38.0556C17.5409 38.0835 17.5118 38.1 17.4844 38.0927C17.4533 38.0844 14.3712 37.2852 12.6596 38.8182C12.6494 38.8272 12.637 38.8315 12.6246 38.8315Z" fill="#363649"/>
<path d="M9.05866 39.1988C9.04568 39.1988 9.03271 39.194 9.02258 39.1842C9.00421 39.1668 7.15541 37.4432 4.26317 38.4073C4.23614 38.4163 4.20619 38.4015 4.19704 38.3742C4.1879 38.3467 4.20266 38.3171 4.2301 38.308C7.18366 37.3233 9.07613 39.0907 9.09483 39.1087C9.11565 39.1287 9.11639 39.1618 9.09646 39.1827C9.08618 39.1933 9.07247 39.1988 9.05866 39.1988Z" fill="#363649"/>
<path d="M11.8971 26.6311C11.8954 26.6311 11.8935 26.631 11.8918 26.6308C11.863 26.6279 11.8421 26.6022 11.845 26.5735C11.8478 26.5467 11.9191 25.913 12.5641 25.5194C12.589 25.5043 12.6209 25.5122 12.636 25.5368C12.6511 25.5613 12.6433 25.5936 12.6186 25.6086C12.0176 25.9753 11.9498 26.578 11.9492 26.584C11.9463 26.6111 11.9236 26.6311 11.8971 26.6311Z" fill="#363649"/>
<path d="M11.942 26.6077C11.9293 26.6077 11.9165 26.6031 11.9065 26.5938C11.8852 26.5742 11.8839 26.5412 11.9035 26.5199C11.9146 26.508 12.1791 26.2267 12.6324 26.1935C12.6613 26.1917 12.6863 26.2131 12.6884 26.2418C12.6906 26.2706 12.6689 26.2957 12.6401 26.2978C12.2275 26.328 11.9828 26.5883 11.9805 26.5909C11.9701 26.602 11.956 26.6077 11.942 26.6077Z" fill="#363649"/>
<path d="M11.9098 26.5993C11.8808 26.5993 11.8574 26.5759 11.8574 26.5469V24.0367C11.8574 24.0078 11.8808 23.9844 11.9098 23.9844C11.9387 23.9844 11.9621 24.0078 11.9621 24.0367V26.5469C11.9621 26.5759 11.9386 26.5993 11.9098 26.5993Z" fill="#363649"/>
<path d="M0.0023529 46.0019H8.02152L8.09738 43.6686L8.16989 41.4311C8.17332 41.3262 8.0594 41.2618 7.96917 41.3155C7.11092 41.8267 5.62136 41.6197 4.96555 41.4934C4.7645 41.4547 4.59645 41.3176 4.51879 41.1281L4.18408 40.3113C4.14357 40.2124 4.04852 40.1468 3.94171 40.144L2.20177 40.0978C2.01461 40.0928 1.87938 40.2754 1.93891 40.4531L2.41294 41.8678C2.44879 41.975 2.39718 42.0921 2.29356 42.137C-0.163673 43.204 0.0023529 46.0019 0.0023529 46.0019Z" fill="#8B95F7"/>
<path d="M5.81014 43.8543C6.32283 43.8543 6.73846 43.4917 6.73846 43.0444C6.73846 42.597 6.32283 42.2344 5.81014 42.2344C5.29745 42.2344 4.88184 42.597 4.88184 43.0444C4.88184 43.4917 5.29745 43.8543 5.81014 43.8543Z" fill="white"/>
<path d="M2.92547 43.1891C2.88382 43.1891 2.84398 43.1653 2.82545 43.125C2.59884 42.6305 1.85378 42.6633 1.84618 42.6642C1.78616 42.6665 1.73382 42.6208 1.73063 42.5603C1.72737 42.4997 1.77359 42.448 1.83426 42.4446C1.87076 42.4424 2.73595 42.402 3.02535 43.0333C3.05066 43.0885 3.0264 43.1537 2.9712 43.179C2.95634 43.1859 2.94082 43.1891 2.92547 43.1891Z" fill="white"/>
<path d="M2.36315 43.8062C2.32151 43.8062 2.28165 43.7824 2.26311 43.7421C2.03553 43.2454 1.29169 43.281 1.28393 43.2812C1.22154 43.284 1.17141 43.2381 1.16814 43.1775C1.16479 43.1169 1.21118 43.0651 1.27185 43.0618C1.30835 43.0596 2.17361 43.0192 2.46302 43.6504C2.48833 43.7056 2.46407 43.7709 2.40887 43.7962C2.39401 43.803 2.37842 43.8062 2.36315 43.8062Z" fill="white"/>
<path d="M1.84069 44.525C1.79905 44.525 1.75919 44.5012 1.74065 44.4609C1.51307 43.9642 0.769064 43.9998 0.76147 44C0.699081 44.0038 0.648945 43.957 0.645678 43.8964C0.64233 43.8357 0.688715 43.7839 0.749388 43.7805C0.785808 43.7784 1.65107 43.738 1.94056 44.3692C1.96587 44.4244 1.94163 44.4896 1.88643 44.515C1.87157 44.5218 1.85605 44.525 1.84069 44.525Z" fill="white"/>
<path d="M7.52897 45.4874H0.274949C0.214276 45.4874 0.165039 45.4382 0.165039 45.3775C0.165039 45.3168 0.214276 45.2676 0.274949 45.2676H7.52897C7.58965 45.2676 7.63888 45.3168 7.63888 45.3775C7.63888 45.4382 7.58965 45.4874 7.52897 45.4874Z" fill="white"/>
<path d="M21.0895 46.0019H13.0703L12.9945 43.6686L12.922 41.4311C12.9185 41.3262 13.0324 41.2618 13.1227 41.3155C13.9808 41.8267 15.4705 41.6197 16.1263 41.4934C16.3274 41.4547 16.4954 41.3176 16.5731 41.1281L16.9078 40.3113C16.9483 40.2124 17.0433 40.1468 17.1502 40.144L18.8902 40.0978C19.0774 40.0928 19.2126 40.2754 19.153 40.4531L18.679 41.8678C18.6431 41.975 18.6948 42.0921 18.7984 42.137C21.2554 43.204 21.0895 46.0019 21.0895 46.0019Z" fill="#8B95F7"/>
<path d="M15.2809 43.8543C15.7936 43.8543 16.2092 43.4917 16.2092 43.0444C16.2092 42.597 15.7936 42.2344 15.2809 42.2344C14.7682 42.2344 14.3525 42.597 14.3525 43.0444C14.3525 43.4917 14.7682 43.8543 15.2809 43.8543Z" fill="white"/>
<path d="M18.1685 43.189C18.1531 43.189 18.1376 43.1859 18.1228 43.179C18.0676 43.1537 18.0433 43.0884 18.0686 43.0332C18.358 42.402 19.2229 42.4425 19.2598 42.4445C19.3204 42.4479 19.3667 42.4997 19.3634 42.5603C19.3602 42.6208 19.3074 42.6662 19.2479 42.6641C19.2399 42.6633 18.4951 42.6305 18.2685 43.1249C18.25 43.1653 18.2101 43.189 18.1685 43.189Z" fill="white"/>
<path d="M18.729 43.8062C18.7137 43.8062 18.6982 43.803 18.6833 43.7962C18.6281 43.7709 18.6039 43.7056 18.6292 43.6504C18.9186 43.0193 19.7834 43.0597 19.8203 43.0617C19.8809 43.0651 19.9272 43.1168 19.924 43.1774C19.9208 43.238 19.8679 43.2832 19.8084 43.2813C19.8002 43.2806 19.0557 43.2477 18.8291 43.7421C18.8105 43.7824 18.7706 43.8062 18.729 43.8062Z" fill="white"/>
<path d="M19.2535 44.5249C19.2381 44.5249 19.2226 44.5217 19.2077 44.5149C19.1525 44.4896 19.1283 44.4244 19.1536 44.3692C19.443 43.738 20.3079 43.7784 20.3448 43.7805C20.4053 43.7838 20.4517 43.8356 20.4484 43.8962C20.4451 43.9567 20.3917 44.0016 20.3328 44.0001C20.3247 43.9993 19.5801 43.9664 19.3535 44.4609C19.335 44.5011 19.2951 44.5249 19.2535 44.5249Z" fill="white"/>
<path d="M20.818 45.4874H13.564C13.5034 45.4874 13.4541 45.4382 13.4541 45.3775C13.4541 45.3168 13.5034 45.2676 13.564 45.2676H20.818C20.8787 45.2676 20.928 45.3168 20.928 45.3775C20.928 45.4382 20.8787 45.4874 20.818 45.4874Z" fill="white"/>
<path d="M12.1467 5.09273C12.1467 5.09273 9.26253 4.28192 9.66797 6.38998C10.0734 8.49803 10.8031 8.63702 10.8031 8.63702L12.1467 5.09273Z" fill="#363649"/>
<path d="M11.6572 5.17085C11.6572 5.17085 14.5414 4.36005 14.1359 6.4681C13.7306 8.57616 13.0009 8.71514 13.0009 8.71514L11.6572 5.17085Z" fill="#363649"/>
<path d="M24.6442 14.2716C23.7897 16.3298 21.9575 19.7921 19.2867 19.8574C18.03 19.8882 17.15 19.0162 15.3015 16.5448C14.2345 15.1182 13.2023 13.5618 12.5771 12.6485L16.9986 11.7617C18.9229 14.574 18.8129 14.5596 19.4653 15.3556C19.8651 14.8556 20.4015 14.001 20.9295 12.7294L24.6442 14.2716Z" fill="#8B95F7"/>
<path d="M18.8071 16.3728C18.7968 16.3728 18.7863 16.3697 18.7772 16.3633C18.7535 16.3467 18.7478 16.3141 18.7643 16.2904L19.6983 14.954C19.7148 14.9303 19.7473 14.9245 19.7712 14.9411C19.7949 14.9577 19.8006 14.9903 19.7842 15.0139L18.8501 16.3504C18.8398 16.3649 18.8236 16.3728 18.8071 16.3728Z" fill="#363649"/>
<path d="M5.60449 12.4164C5.60449 13.1272 5.8894 13.7702 6.35135 14.2388C6.73075 14.6275 7.23124 14.8964 7.79306 14.9856C7.92748 15.0082 8.06598 15.0188 8.20709 15.0188C8.8727 15.0188 9.47966 14.7685 9.94031 14.3572C9.98155 14.3227 10.0202 14.2853 10.0588 14.2454C10.5234 13.7768 10.8109 13.1299 10.8109 12.4163C10.8109 10.9786 9.64471 9.8125 8.20709 9.8125C8.06598 9.8125 7.92756 9.8232 7.79306 9.84582C7.75044 9.85243 7.70789 9.86043 7.66657 9.86974C6.76806 10.0588 6.04253 10.7111 5.747 11.5657C5.65505 11.832 5.60449 12.1183 5.60449 12.4164Z" fill="#8B95F7"/>
<path d="M15.1614 15.8732C16.5961 15.7793 17.683 14.5402 17.5892 13.1054C17.4953 11.6707 16.2561 10.5838 14.8214 10.6777C13.3867 10.7715 12.2997 12.0107 12.3936 13.4454C12.4875 14.8801 13.7267 15.9671 15.1614 15.8732Z" fill="#8B95F7"/>
<path d="M15.7785 10.821L15.5578 21.39L7.51074 21.1089L7.66435 9.8718C8.40885 9.72735 9.16542 9.64642 9.91866 9.62633C11.0625 9.59489 12.199 9.7053 13.2733 9.94873C14.1611 10.1494 15.0059 10.4418 15.7785 10.821Z" fill="#8B95F7"/>
<path d="M15.5385 17.0877C15.538 17.0877 15.5375 17.0877 15.537 17.0877C15.5081 17.0868 15.4854 17.0627 15.4862 17.0339C15.5298 15.5397 15.4671 14.2464 15.3927 13.0713C15.3909 13.0425 15.4128 13.0176 15.4417 13.0158C15.4708 13.0136 15.4953 13.0359 15.4972 13.0647C15.5717 14.2422 15.6346 15.5385 15.5908 17.0369C15.59 17.0653 15.5668 17.0877 15.5385 17.0877Z" fill="#363649"/>
<path d="M7.3569 16.1974C7.34653 16.1974 7.33608 16.1943 7.32693 16.188C7.30325 16.1713 7.29762 16.1387 7.31419 16.115L8.66509 14.1922C8.68167 14.1686 8.71426 14.1628 8.73802 14.1794C8.7617 14.1961 8.76734 14.2287 8.75076 14.2524L7.39986 16.1752C7.38957 16.1897 7.37339 16.1974 7.3569 16.1974Z" fill="#363649"/>
<path d="M9.09427 11.9262C9.0674 11.9262 9.04454 11.9055 9.04218 11.8782C8.92801 10.508 7.66727 9.97505 7.65453 9.96983C7.62783 9.95889 7.61508 9.92835 7.62594 9.90164C7.63689 9.87486 7.66767 9.86212 7.69413 9.87306C7.70744 9.87845 9.02683 10.4342 9.14646 11.8696C9.14883 11.8984 9.12752 11.9236 9.09862 11.9261C9.09731 11.9262 9.09582 11.9262 9.09427 11.9262Z" fill="#363649"/>
<path d="M7.18647 20.4815C7.32194 20.413 7.41429 20.272 7.41282 20.1099C7.40931 19.7159 7.55786 19.384 7.78259 19.2835C7.84212 19.2569 7.91152 19.2451 7.98893 19.2483C8.21627 19.2577 8.40825 19.0811 8.41765 18.8538C8.42712 18.6265 8.2505 18.4345 8.02316 18.4251C7.81754 18.4165 7.62359 18.4522 7.44688 18.5311C6.9107 18.7702 6.58227 19.378 6.58897 20.1172C6.59101 20.3447 6.7771 20.5275 7.0046 20.5255C7.07001 20.525 7.13183 20.5091 7.18647 20.4815Z" fill="#C18B82"/>
<path d="M7.0582 19.0242C7.04693 19.0242 7.03566 19.0206 7.0261 19.0132C7.00324 18.9955 6.99915 18.9626 7.01687 18.9398C7.47703 18.3475 8.08858 18.3469 8.11675 18.3457C8.14558 18.3459 8.16877 18.3695 8.16852 18.3984C8.16836 18.4271 8.14494 18.4503 8.11619 18.4503C8.11619 18.4503 8.11602 18.4503 8.11585 18.4503C8.11789 18.4485 7.52896 18.451 7.09951 19.004C7.08914 19.0173 7.07372 19.0242 7.0582 19.0242Z" fill="#363649"/>
<path d="M7.06504 20.1292C7.05933 20.1292 7.05353 20.1282 7.0479 20.1262C7.02062 20.1168 7.00617 20.0871 7.01556 20.0598C7.02168 20.0418 7.17552 19.6146 7.86653 19.3252C8.1089 19.2236 8.26683 19.0932 8.32334 18.9479C8.37307 18.8199 8.32962 18.7231 8.32782 18.719C8.31574 18.6929 8.32685 18.6618 8.3529 18.6496C8.37895 18.6373 8.40989 18.6481 8.4223 18.6741C8.425 18.6796 8.48698 18.8121 8.42222 18.9824C8.35534 19.1587 8.18199 19.3065 7.90696 19.4216C7.26275 19.6914 7.11583 20.09 7.11452 20.094C7.10677 20.1157 7.0866 20.1292 7.06504 20.1292Z" fill="#363649"/>
<path d="M7.27242 21.1085C7.4079 21.04 7.50025 20.8989 7.49878 20.7368C7.49527 20.3428 7.64382 20.011 7.86854 19.9104C7.92807 19.8839 7.99756 19.8721 8.07489 19.8752C8.30223 19.8846 8.49421 19.7081 8.5036 19.4807C8.51308 19.2534 8.33644 19.0615 8.1091 19.052C7.90348 19.0435 7.70955 19.0791 7.53283 19.158C6.99665 19.3971 6.66821 20.0049 6.67491 20.7442C6.67695 20.9717 6.86306 21.1544 7.09056 21.1524C7.15605 21.1519 7.21779 21.1362 7.27242 21.1085Z" fill="#C18B82"/>
<path d="M7.13925 19.6512C7.12799 19.6512 7.11671 19.6476 7.10716 19.6401C7.08429 19.6224 7.08021 19.5895 7.09793 19.5667C7.55808 18.9745 8.17069 18.9727 8.1978 18.9727C8.22663 18.9729 8.24982 18.9965 8.24958 19.0253C8.24942 19.0541 8.22597 19.0773 8.19723 19.0773C8.19723 19.0773 8.19707 19.0773 8.19691 19.0773C8.1934 19.0762 7.60993 19.078 7.18056 19.6309C7.17027 19.6442 7.15477 19.6512 7.13925 19.6512Z" fill="#363649"/>
<path d="M7.15198 20.7561C7.14626 20.7561 7.14045 20.7551 7.13481 20.7531C7.10754 20.7437 7.09308 20.7141 7.10247 20.6868C7.1086 20.6687 7.26246 20.2415 7.95338 19.9521C8.19583 19.8505 8.35376 19.7201 8.41027 19.5748C8.45992 19.4468 8.41647 19.35 8.41468 19.346C8.40259 19.3198 8.41369 19.2887 8.43974 19.2766C8.46579 19.2642 8.49674 19.2751 8.50916 19.3011C8.51185 19.3066 8.57383 19.4391 8.50916 19.6094C8.44219 19.7857 8.26883 19.9334 7.9938 20.0487C7.34966 20.3185 7.20277 20.717 7.20146 20.721C7.19378 20.7425 7.17362 20.7561 7.15198 20.7561Z" fill="#363649"/>
<path d="M7.23816 21.835C7.37364 21.7664 7.46599 21.6254 7.46452 21.4634C7.46101 21.0694 7.60954 20.7375 7.83434 20.637C7.89388 20.6105 7.96329 20.5986 8.04071 20.6018C8.26805 20.6112 8.46003 20.4346 8.46942 20.2073C8.4789 19.98 8.30226 19.7881 8.07492 19.7786C7.8693 19.77 7.67537 19.8057 7.49865 19.8846C6.96247 20.1237 6.63403 20.7315 6.64073 21.4708C6.64277 21.6983 6.82888 21.881 7.05638 21.879C7.12179 21.8785 7.18353 21.8626 7.23816 21.835Z" fill="#C18B82"/>
<path d="M7.10994 20.3757C7.09867 20.3757 7.08741 20.3721 7.07786 20.3647C7.055 20.347 7.05091 20.314 7.06863 20.2913C7.52886 19.699 8.13878 19.6984 8.16859 19.6973C8.19741 19.6975 8.22061 19.7211 8.22036 19.7499C8.2202 19.7787 8.19675 19.8019 8.16801 19.8019C8.16785 19.8019 8.16777 19.8019 8.16761 19.8019C8.15789 19.8019 7.57729 19.8071 7.15127 20.3554C7.14098 20.3688 7.12553 20.3757 7.10994 20.3757Z" fill="#363649"/>
<path d="M7.11387 21.4809C7.10815 21.4809 7.10236 21.4799 7.09672 21.478C7.06945 21.4685 7.055 21.4389 7.06439 21.4116C7.07051 21.3935 7.22437 20.9663 7.9153 20.6769C8.15914 20.5747 8.31755 20.4433 8.37308 20.297C8.42126 20.1703 8.37708 20.072 8.37667 20.0711C8.36418 20.045 8.37504 20.0137 8.40117 20.0012C8.42673 19.9888 8.45833 19.9996 8.47091 20.0257C8.4736 20.0313 8.53559 20.1637 8.47083 20.3341C8.40387 20.5104 8.23058 20.6581 7.95555 20.7732C7.31142 21.0431 7.1645 21.4416 7.16319 21.4456C7.15568 21.4674 7.13551 21.4809 7.11387 21.4809Z" fill="#363649"/>
<path d="M7.38959 22.4796C7.52506 22.4111 7.61742 22.27 7.61595 22.1079C7.61244 21.7139 7.76098 21.3821 7.98571 21.2815C8.04524 21.255 8.11472 21.2432 8.19206 21.2463C8.41931 21.2557 8.61138 21.0792 8.62077 20.8518C8.63024 20.6245 8.45363 20.4326 8.22629 20.4231C8.02067 20.4145 7.82671 20.4502 7.65 20.5291C7.11382 20.7682 6.7854 21.376 6.79209 22.1153C6.79413 22.3428 6.98022 22.5255 7.20773 22.5235C7.27322 22.523 7.33496 22.5072 7.38959 22.4796Z" fill="#C18B82"/>
<path d="M7.25937 21.0203C7.2481 21.0203 7.23683 21.0167 7.22727 21.0093C7.20441 20.9916 7.20032 20.9587 7.21804 20.9359C7.6782 20.3436 8.28812 20.3432 8.31792 20.3418C8.34675 20.342 8.36994 20.3656 8.3697 20.3945C8.36953 20.4232 8.34611 20.4464 8.31736 20.4464C8.3172 20.4464 8.31702 20.4464 8.31702 20.4464C8.30722 20.4464 7.7267 20.4516 7.30068 21.0001C7.29039 21.0133 7.27489 21.0203 7.25937 21.0203Z" fill="#363649"/>
<path d="M7.26622 22.1251C7.26197 22.1251 7.25773 22.1246 7.2534 22.1235C7.22547 22.1164 7.20848 22.0881 7.21542 22.0602C7.22048 22.0401 7.34608 21.5656 8.03954 21.2751C8.36381 21.1392 8.47918 20.9928 8.51887 20.8938C8.56052 20.7901 8.52982 20.7173 8.52852 20.7142C8.517 20.6879 8.52876 20.657 8.55489 20.6453C8.58094 20.6336 8.61157 20.6447 8.62366 20.6707C8.6257 20.6752 8.6742 20.7829 8.61785 20.928C8.55081 21.1009 8.36976 21.2501 8.07987 21.3715C7.43802 21.6404 7.31806 22.0812 7.31692 22.0857C7.31087 22.1093 7.28957 22.1251 7.26622 22.1251Z" fill="#363649"/>
<path d="M13.2746 9.94873L12.4444 13.6586L9.91992 9.62633C11.0638 9.59489 12.2003 9.7053 13.2746 9.94873Z" fill="#FDFAEF"/>
<path d="M11.9639 9.81664L11.4111 10.5L12.0945 11.0527L12.6472 10.3694L11.9639 9.81664Z" fill="#FBB86F"/>
<path d="M12.8213 12.0331L12.4492 13.658L11.6408 12.3741L11.6289 10.6148L12.4254 10.5117L12.8213 12.0331Z" fill="#FBB86F"/>
<path d="M12.3766 19.5592C12.3477 19.5592 12.3242 19.5358 12.3242 19.5068V14.7071L12.3303 14.6956L13.7588 12.0034L13.5151 11.5972L14.131 11.3918L13.7685 10.0621C13.7609 10.0343 13.7773 10.0055 13.8051 9.99786C13.8332 9.99051 13.8617 10.0067 13.8694 10.0346L14.258 11.4597L13.6718 11.6551L13.8789 12.0002L13.8652 12.0263L12.4288 14.7331V19.5068C12.4288 19.5358 12.4054 19.5592 12.3766 19.5592Z" fill="#363649"/>
<path d="M12.5308 14.3919C12.5161 14.3919 12.5016 14.3858 12.4912 14.3739L10.1683 11.6903L10.3796 11.3381L9.81182 11.1488L9.50306 9.6586C9.49718 9.63035 9.51531 9.60258 9.54365 9.59678C9.5719 9.59098 9.59968 9.60911 9.60547 9.63737L9.90215 11.0685L10.5365 11.28L10.2971 11.679L12.5705 14.3053C12.5893 14.3272 12.587 14.3602 12.5652 14.3791C12.5551 14.3877 12.5429 14.3919 12.5308 14.3919Z" fill="#363649"/>
<path d="M13.2357 15.0056C13.2357 15.1456 13.1222 15.2592 12.9821 15.2592C12.842 15.2592 12.7285 15.1457 12.7285 15.0056C12.7285 14.8655 12.842 14.752 12.9821 14.752C13.1222 14.752 13.2357 14.8655 13.2357 15.0056Z" fill="white"/>
<path d="M12.6359 9.70028C12.0677 9.96796 11.3617 9.88132 10.5608 9.65259L10.5547 7.5625H12.6359V9.70028Z" fill="#C18B82"/>
<path d="M12.6439 8.82772L12.6368 9.52053C12.6368 9.52053 11.4779 8.97659 11.3359 8.11328" fill="#363649"/>
<path d="M13.425 5.58026C13.5282 5.72349 13.6806 6.10811 13.6834 6.81569C13.6874 7.80394 13.3766 8.79236 12.9251 8.86005C11.6304 9.05432 10.7251 8.24115 10.5118 7.57342C10.1988 6.59374 11.0395 5.37186 12.0288 5.17172C12.4706 5.0823 13.1222 5.16028 13.425 5.58026Z" fill="#C18B82"/>
<path d="M12.1804 6.73464C12.1866 6.7304 12.1865 6.72272 12.1804 6.71872L11.9449 6.56463C11.848 6.48076 11.6799 6.48615 11.6016 6.58406L11.4027 6.75285C11.3949 6.75947 11.3959 6.7691 11.405 6.77425L11.6348 6.9049C11.7239 6.95553 11.8694 6.94892 11.9538 6.89037C12.0436 6.82814 12.1461 6.75808 12.1804 6.73464Z" fill="white"/>
<path d="M11.3922 6.8105C11.3792 6.8105 11.3661 6.80568 11.356 6.79596C11.3351 6.77596 11.3344 6.74289 11.3543 6.72198L11.5618 6.50558C11.6634 6.39951 11.8607 6.38783 11.9757 6.48108L12.2251 6.68335C12.2476 6.70156 12.251 6.73447 12.2329 6.75693C12.2145 6.77939 12.1814 6.78265 12.1593 6.76461L11.9099 6.56233C11.838 6.50411 11.7005 6.51195 11.6374 6.57793L11.43 6.79441C11.4197 6.80511 11.4059 6.8105 11.3922 6.8105Z" fill="#363649"/>
<path d="M11.7638 6.73169C11.7674 6.80748 11.8318 6.86594 11.9075 6.86227C11.9832 6.85868 12.0417 6.79433 12.038 6.71863C12.0344 6.64285 11.9701 6.58438 11.8944 6.58805C11.8186 6.59165 11.7602 6.656 11.7638 6.73169Z" fill="#363649"/>
<path d="M13.3797 6.781C13.3863 6.77749 13.3872 6.76989 13.3815 6.76515L13.1652 6.58501C13.0786 6.49061 12.911 6.47665 12.822 6.56484L12.6051 6.70971C12.5966 6.71542 12.5965 6.72506 12.6049 6.73127L12.8183 6.88748C12.9008 6.94799 13.0462 6.95812 13.1367 6.90969C13.2329 6.85817 13.3429 6.80035 13.3797 6.781Z" fill="white"/>
<path d="M13.3859 6.82151C13.3724 6.82151 13.3587 6.81628 13.3485 6.80575L13.124 6.5762C13.0594 6.51022 12.922 6.50213 12.8514 6.56052L12.6353 6.73952C12.6332 6.7445 12.6302 6.74916 12.6265 6.7534C12.6073 6.77504 12.5742 6.777 12.5527 6.75781C12.5411 6.7476 12.5329 6.72915 12.5332 6.71388C12.5335 6.69853 12.5423 6.68064 12.5541 6.67093L12.7849 6.47984C12.8981 6.3861 13.0954 6.39712 13.1989 6.50303L13.4234 6.73258C13.4436 6.75324 13.4432 6.78631 13.4226 6.80656C13.4123 6.81661 13.3991 6.82151 13.3859 6.82151Z" fill="#363649"/>
<path d="M12.9613 6.7296C12.9561 6.80522 13.0134 6.87071 13.089 6.87585C13.1647 6.881 13.2302 6.82375 13.2352 6.74814C13.2404 6.67252 13.1832 6.60703 13.1075 6.60188C13.0318 6.59674 12.9664 6.6539 12.9613 6.7296Z" fill="#363649"/>
<path d="M12.7097 6.29651L12.7768 6.28663C12.9344 6.26336 13.1855 6.30746 13.3515 6.34379C13.4092 6.35637 13.4508 6.28925 13.413 6.24393C13.3616 6.18219 13.2969 6.1127 13.2313 6.06338C13.1151 5.976 12.7934 6.06966 12.6655 6.11204C12.6325 6.12299 12.6084 6.15124 12.6021 6.18537C12.5906 6.24948 12.6453 6.30607 12.7097 6.29651Z" fill="#363649"/>
<path d="M11.9501 6.313L11.8823 6.31439C11.723 6.31773 11.4827 6.40299 11.3251 6.46644C11.2704 6.48849 11.2182 6.4292 11.2479 6.37824C11.2883 6.30883 11.3406 6.22946 11.397 6.17001C11.497 6.06451 11.8299 6.1033 11.963 6.12379C11.9973 6.1291 12.0259 6.15286 12.0377 6.18561C12.0598 6.24677 12.0152 6.31161 11.9501 6.313Z" fill="#363649"/>
<path d="M13.5195 5.67955C13.5195 5.67955 13.9089 3.94305 12.7073 3.80831C11.5058 3.67357 11.6393 4.16762 11.1052 4.24242C10.5712 4.3173 10.4711 4.25736 10.4711 4.25736C10.4711 4.25736 10.3598 5.61961 11.6837 5.75435C13.0077 5.88909 13.5195 5.67955 13.5195 5.67955Z" fill="#363649"/>
<path d="M10.5205 6.67469C10.5801 6.64921 11.0815 6.18171 11.447 5.5357C11.8125 4.88969 10.2314 5.74818 10.2314 5.74818L10.2484 6.39419L10.5205 6.67469Z" fill="#363649"/>
<path d="M9.92565 7.20002C9.98159 7.49514 10.2662 7.68909 10.5614 7.63315C10.8566 7.57721 11.0504 7.29255 10.9945 6.99743C10.9386 6.70223 10.6539 6.50836 10.3588 6.5643C10.0636 6.62024 9.86963 6.90491 9.92565 7.20002Z" fill="#C18B82"/>
<path d="M10.3556 7.40675C10.3355 7.40675 10.3164 7.39507 10.3077 7.37547C10.1243 6.95827 10.4154 6.76417 10.4183 6.76229C10.4427 6.74653 10.4751 6.75371 10.4907 6.7778C10.5063 6.80197 10.4994 6.83423 10.4753 6.84999C10.4661 6.85612 10.2569 7.00033 10.4034 7.33334C10.415 7.35979 10.403 7.39066 10.3766 7.40226C10.3698 7.40536 10.3627 7.40675 10.3556 7.40675Z" fill="#363649"/>
<path d="M10.6234 7.21999C10.6156 7.21999 10.6078 7.21827 10.6003 7.21468C10.4881 7.15964 10.3046 7.06998 10.2896 7.06345C10.2631 7.05201 10.2507 7.02131 10.262 6.99477C10.2734 6.96823 10.3037 6.95574 10.3304 6.96709C10.3505 6.97558 10.5972 7.09652 10.6464 7.12069C10.6723 7.13343 10.683 7.16479 10.6703 7.19067C10.6612 7.20921 10.6427 7.21999 10.6234 7.21999Z" fill="#363649"/>
<path d="M10.2556 6.39697C10.236 6.50648 10.6079 6.53114 10.7537 6.83124C10.8377 7.00395 10.9136 7.43087 10.8335 7.9953C10.7333 8.70142 10.7962 8.83893 10.8335 8.90222C10.8672 8.95946 10.9849 9.13421 11.4593 9.24707C11.7649 9.31975 13.1354 9.68052 13.4519 8.8894C13.701 8.26658 13.7202 7.72239 13.4587 7.66727C13.3767 7.65004 12.6244 7.61428 12.4834 7.62906C12.1297 7.66605 12.1215 7.69275 11.8344 7.74779C11.5312 7.80601 11.302 7.56381 11.1782 7.30552C11.0402 7.01767 10.9209 6.35769 10.7728 6.19258C10.6251 6.02787 10.2762 6.28257 10.2556 6.39697Z" fill="#363649"/>
<path d="M12.0625 8.32904C12.0442 8.32904 12.0261 8.32766 12.008 8.32488C11.7801 8.28952 11.6627 8.04389 11.6578 8.03352C11.6491 8.01482 11.6571 7.99277 11.6757 7.98395C11.6944 7.97538 11.7166 7.98313 11.7253 8.00183C11.7264 8.00404 11.8313 8.22231 12.0198 8.2513C12.1501 8.27131 12.2933 8.19806 12.4451 8.03343C12.4593 8.01833 12.4828 8.01743 12.4979 8.03139C12.5131 8.04536 12.514 8.06896 12.5 8.08406C12.3496 8.24681 12.2027 8.32904 12.0625 8.32904Z" fill="white"/>
<path d="M11.725 7.30554C11.4076 7.30554 11.1494 7.04733 11.1494 6.72992C11.1494 6.41251 11.4076 6.1543 11.725 6.1543C12.0424 6.1543 12.3006 6.41251 12.3006 6.72992C12.3006 7.04733 12.0424 7.30554 11.725 7.30554ZM11.725 6.22175C11.4448 6.22175 11.2169 6.44974 11.2169 6.72992C11.2169 7.01009 11.4448 7.23809 11.725 7.23809C12.0052 7.23809 12.2331 7.01009 12.2331 6.72992C12.2331 6.44974 12.0052 6.22175 11.725 6.22175Z" fill="white"/>
<path d="M13.1245 7.31132C12.807 7.31132 12.5488 7.05311 12.5488 6.73578C12.5488 6.41837 12.807 6.16016 13.1245 6.16016C13.4419 6.16016 13.7001 6.41837 13.7001 6.73578C13.7001 7.05303 13.4419 7.31132 13.1245 7.31132ZM13.1245 6.22761C12.8442 6.22761 12.6163 6.4556 12.6163 6.73578C12.6163 7.01595 12.8442 7.24387 13.1245 7.24387C13.4047 7.24387 13.6326 7.01595 13.6326 6.73578C13.6325 6.45552 13.4046 6.22761 13.1245 6.22761Z" fill="white"/>
<path d="M12.5584 7.58167C12.5505 7.58167 12.5425 7.57988 12.5349 7.57612C12.5091 7.56314 12.4988 7.53162 12.5118 7.50589L12.6651 7.2013C12.6957 7.1439 12.6886 7.07604 12.6476 7.0272L12.3822 6.64054C12.3659 6.6167 12.3719 6.5842 12.3958 6.56778C12.4196 6.55137 12.4521 6.55758 12.4685 6.58134L12.7308 6.96392C12.7965 7.04158 12.8083 7.15525 12.758 7.24948L12.6053 7.55301C12.596 7.57114 12.5775 7.58167 12.5584 7.58167Z" fill="#363649"/>
<path d="M12.6204 6.54792H12.2124C12.1937 6.54792 12.1787 6.53281 12.1787 6.5142C12.1787 6.49558 12.1938 6.48047 12.2124 6.48047H12.6204C12.6391 6.48047 12.6541 6.49558 12.6541 6.5142C12.6541 6.53281 12.639 6.54792 12.6204 6.54792Z" fill="white"/>
<path d="M11.1738 6.67328C11.1722 6.67328 11.1707 6.6732 11.1691 6.67296L10.4295 6.57096C10.4111 6.56843 10.3982 6.55136 10.4007 6.53291C10.4032 6.51437 10.421 6.50229 10.4388 6.50408L11.1783 6.60608C11.1967 6.60861 11.2096 6.62567 11.2071 6.64413C11.2048 6.66103 11.1903 6.67328 11.1738 6.67328Z" fill="white"/>
<path d="M11.5002 10.5275L10.0702 9.70511C10.0451 9.69074 10.0365 9.65873 10.0509 9.63366C10.0654 9.60859 10.0974 9.60001 10.1224 9.61439L11.4764 10.3931L11.9579 9.81927L12.5908 10.3479L13.15 9.88697C13.1721 9.86851 13.2052 9.87178 13.2236 9.89399C13.242 9.91628 13.2388 9.94927 13.2164 9.96765L12.5903 10.4839L11.971 9.96642L11.5002 10.5275Z" fill="#363649"/>
<path d="M23.1082 21.126C22.933 21.126 22.791 20.984 22.791 20.8088V7.96552C22.791 7.79036 22.933 7.64844 23.1082 7.64844C23.2833 7.64844 23.4253 7.79045 23.4253 7.96552V20.8089C23.4253 20.9841 23.2833 21.126 23.1082 21.126Z" fill="#363649"/>
<path d="M23.0342 11.775C22.9694 11.5349 23.1116 11.2876 23.3517 11.2228L24.081 11.0352C24.3211 10.9704 24.5684 11.1125 24.6332 11.3527C24.6981 11.5929 24.5559 11.8401 24.3157 11.905L23.5865 12.0925C23.3463 12.1574 23.0991 12.0152 23.0342 11.775Z" fill="#C18B82"/>
<path d="M23.1778 12.5407C23.1129 12.3005 23.2551 12.0532 23.4953 11.9884L24.2245 11.8008C24.4647 11.736 24.7119 11.8782 24.7767 12.1183C24.8415 12.3585 24.6993 12.6058 24.4592 12.6706L23.73 12.8582C23.4899 12.923 23.2426 12.7808 23.1778 12.5407Z" fill="#C18B82"/>
<path d="M23.3911 12.0937C23.3664 12.0937 23.3444 12.0761 23.3397 12.0509C23.3345 12.0225 23.3533 11.9952 23.3817 11.99L23.9693 11.8817C23.9971 11.8765 24.0251 11.8952 24.0303 11.9237C24.0355 11.9521 24.0167 11.9794 23.9883 11.9846L23.4007 12.0929C23.3976 12.0934 23.3943 12.0937 23.3911 12.0937Z" fill="#363649"/>
<path d="M23.2071 13.3454C23.1422 13.1052 23.2844 12.8579 23.5246 12.7931L24.2538 12.6055C24.494 12.5407 24.7412 12.6829 24.8061 12.923C24.8709 13.1632 24.7287 13.4104 24.4886 13.4753L23.7593 13.6629C23.5192 13.7277 23.2719 13.5855 23.2071 13.3454Z" fill="#C18B82"/>
<path d="M23.4194 12.8984C23.3947 12.8984 23.3727 12.8808 23.3681 12.8556C23.3628 12.8272 23.3816 12.7999 23.41 12.7947L23.9977 12.6864C24.0257 12.6812 24.0534 12.6999 24.0586 12.7284C24.0638 12.7568 24.045 12.7841 24.0166 12.7893L23.429 12.8976C23.4258 12.8982 23.4226 12.8984 23.4194 12.8984Z" fill="#363649"/>
<path d="M28.5788 0H17.638C17.2549 0 16.9443 0.310553 16.9443 0.693702V7.6704C16.9443 8.05355 17.2549 8.36411 17.638 8.36411H28.5788C28.9619 8.36411 29.2725 8.05355 29.2725 7.6704V0.693702C29.2725 0.310553 28.9619 0 28.5788 0Z" fill="#F8E0DA"/>
</svg>
