<svg width="30" height="31" viewBox="0 0 30 31" fill="none" xmlns="http://www.w3.org/2000/svg">
<path d="M17.4951 22.8719C19.3002 20.3262 18.0737 19.1227 17.6802 18.683C17.2868 18.2433 10.2051 21.4139 10.2051 21.4139C10.2051 21.4139 13.6302 18.8682 15.204 17.2482C16.9628 15.4662 16.2454 14.3785 16.1528 14.0082C15.0882 9.70359 5.1831 16.7622 5.1831 16.7622C5.1831 16.7622 6.01624 16.1373 7.05767 15.4199C8.37681 14.4942 9.92738 13.0825 9.09424 11.2773C8.86281 10.7682 5.41453 10.9302 1.71167 12.6427V28.3567H12.8434C14.7411 26.2507 16.8934 23.7513 17.4951 22.8719Z" fill="#EFB682"/>
<path d="M13.7694 25.2334C13.7694 25.2334 15.3894 23.7523 14.6951 23.7291C13.538 23.6829 12.3114 22.572 12.404 21.762C12.5197 20.628 15.7134 21.8083 16.0374 21.3686C16.5465 20.7206 17.0325 20.0494 17.4723 19.3551C17.5185 19.2857 17.5648 19.1931 17.588 19.1006C17.6111 18.8923 17.4028 18.7071 17.2871 18.5914C16.1762 17.5037 15.2043 17.3649 12.8668 19.1469C11.1774 20.4429 5.04454 25.5343 1.73511 28.3114V28.3809H10.622L13.7694 25.2334ZM8.81682 10.6534C8.79368 10.584 8.70111 10.4914 8.65482 10.4451C8.53911 10.3063 8.42339 10.1906 8.30768 10.0749C8.05311 9.84343 7.96054 8.91771 6.54882 9.126C5.90082 9.21857 3.79482 10.26 1.73511 11.3709V17.0871C3.91054 15.7449 4.62796 15.3051 5.13711 14.8654C5.73882 14.3331 3.44768 14.5877 3.63282 12.1809C3.70225 11.3709 7.86797 11.4866 8.65482 10.8849C8.70111 10.8386 8.81682 10.7691 8.81682 10.6997V10.6534ZM15.0191 13.2917C14.9497 13.176 14.8803 13.0834 14.8108 12.9909C14.6488 12.7826 14.4637 12.5974 14.2785 12.4354C13.9314 12.1577 13.7463 12.2503 13.376 12.0189C12.89 11.718 11.5477 12.6206 8.49282 14.4489C6.68768 15.5134 4.07254 17.226 1.75825 18.7766V25.9046C6.10911 22.5489 11.8254 18.1517 12.2883 17.712C12.728 17.2954 9.85825 17.2954 10.2517 15.0737C10.298 14.7497 13.0288 16.1614 13.1677 15.8837C13.4454 15.3283 13.7694 14.796 14.1628 14.31C14.3248 14.1249 14.4868 13.9397 14.6951 13.824C14.8108 13.7777 14.9497 13.7314 15.0423 13.6389C15.1117 13.5231 15.0654 13.3843 15.0191 13.2917Z" fill="#F9DDBD"/>
<path d="M18.6069 7.55156C18.2597 8.5467 19.7409 9.93527 21.8932 10.6758C24.0454 11.4164 26.0589 11.2081 26.3829 10.213C26.5449 9.72699 27.8872 2.08984 27.8872 2.08984H21.4534C20.4583 3.96442 18.8383 6.90356 18.6069 7.55156Z" fill="#546E7A"/>
<path d="M25.6559 10.1531C25.8622 9.54823 24.5877 8.56637 22.8093 7.96007C21.031 7.35376 19.4222 7.35261 19.2159 7.9575C19.0097 8.56238 20.2842 9.54424 22.0625 10.1505C23.8409 10.7568 25.4497 10.758 25.6559 10.1531Z" fill="#202020"/>
<path d="M20.6419 15.8842C20.6881 15.7916 20.8733 15.375 20.9196 15.3288C21.1047 15.0742 21.2667 15.051 21.4056 14.6808C21.5213 14.3568 23.257 9.45047 23.257 9.45047C23.257 9.45047 23.3727 8.91819 22.6321 8.66361C21.8916 8.40904 21.6601 8.89504 21.6601 8.89504C21.6601 8.89504 20.017 13.5005 19.855 14.0328C19.693 14.4725 19.855 14.6113 19.7624 14.889C19.7393 14.9353 19.5541 15.2825 19.531 15.3288L20.6419 15.8842Z" fill="#546E7A"/>
<path d="M10.0901 8.91529C10.7149 9.81787 10.5298 10.7899 8.9792 12.2016C7.8452 13.2199 7.08148 13.6133 5.97063 13.8447C4.97548 14.053 4.30434 13.5207 3.70263 12.433C3.21663 11.5536 3.54063 11.0907 3.77205 10.7899C4.4432 9.91044 6.08634 9.16987 6.98891 8.82272C8.40063 8.31358 9.6272 8.29044 10.0901 8.91529ZM16.1303 14.8399C15.3666 15.5342 14.1863 16.5062 13.1449 16.807C12.6589 16.9459 11.6638 17.0384 10.6686 15.835C9.69663 14.6547 10.3215 13.891 10.5529 13.5902C11.2703 12.6644 12.4738 11.9933 13.5383 11.5073C14.8575 10.9056 16.1303 10.6742 16.8015 11.2527C17.7272 11.9933 17.5652 13.5207 16.1303 14.8399ZM18.1901 17.4087C19.2778 18.1493 18.6298 19.8387 18.0049 20.6719C17.3338 21.5744 16.4312 22.6159 15.6443 22.963C15.0889 23.2176 14.2095 23.4259 13.0061 22.4307C12.0109 21.5976 12.3349 20.4404 12.6821 19.885C13.2143 19.0056 14.1863 18.3344 15.2972 17.6864C16.5006 16.9459 17.5421 16.969 18.1901 17.4087Z" fill="#F44336"/>
<path d="M20.0645 14.6304C19.9488 14.6304 19.8099 14.6072 19.6248 14.8387C19.2776 15.2321 18.7685 15.6718 17.9816 15.9727C17.7271 16.0652 17.4031 16.2272 17.4031 16.5049C17.4262 17.0835 18.5139 17.8472 19.3239 17.6389C20.0414 17.4538 20.6894 16.2041 20.7588 15.9495C20.8051 15.6949 20.8976 15.3941 20.8282 15.1858C20.7588 14.8618 20.3885 14.6072 20.0645 14.6304Z" fill="#F44336"/>
<path d="M18.0037 20.6733C18.4665 20.0484 18.9525 18.9376 18.6979 18.1044C18.2351 18.6367 15.5505 21.8304 14.3239 22.3396C13.7917 22.5478 13.2362 22.6173 13.2362 22.6173C14.3239 23.4041 15.1339 23.1958 15.6431 22.9644C16.4299 22.6173 17.3325 21.5758 18.0037 20.6733ZM17.3788 12.6196C16.4531 13.337 13.0742 15.8596 11.9865 16.1141C11.5237 16.2298 11.2459 16.253 11.0608 16.2298C11.8708 16.9704 12.7271 16.9241 13.1437 16.8084C14.1851 16.5076 15.3654 15.5587 16.1291 14.8413C16.9391 14.1007 17.3325 13.3138 17.3788 12.6196ZM5.04365 13.2907C4.74279 13.337 4.51137 13.3601 4.34937 13.3601C4.78908 13.7998 5.29822 13.985 5.94622 13.8461C7.05708 13.6147 7.82079 13.1981 8.95479 12.203C9.74165 11.4856 10.1814 10.8838 10.3434 10.3516C8.93165 11.2773 5.99251 13.1518 5.04365 13.2907ZM18.0731 16.739C18.1888 16.7853 18.2814 16.6927 18.3971 16.6233C18.5591 16.5538 18.7442 16.6001 18.9062 16.6696C19.0682 16.739 19.2071 16.8316 19.3922 16.8547C19.6468 16.901 19.9245 16.8084 20.1328 16.6696C20.3411 16.5076 20.7345 15.443 20.8734 15.2116C20.8965 15.281 20.8965 15.3736 20.8965 15.4893C20.7808 16.415 20.0171 17.4796 19.3922 17.6416C19.1608 17.711 18.7905 17.711 18.5591 17.6647C18.3277 17.6184 18.0268 17.4796 17.8185 17.3407C17.6102 17.2018 17.4714 17.0167 17.3557 16.7853C17.3094 16.6696 17.3094 16.5076 17.3788 16.3918C17.4251 16.3224 17.5177 16.253 17.6102 16.253C17.7259 16.253 17.8185 16.2993 17.8879 16.3918C17.9574 16.4844 17.9574 16.6001 18.0268 16.6927C18.0268 16.7158 18.0499 16.739 18.0731 16.739Z" fill="#C62828"/>
<path d="M4.79014 10.9518C5.29928 10.3732 6.45642 9.44753 7.91442 9.03096C8.56242 8.84582 8.77071 9.49382 8.33099 9.67896C7.40528 10.0724 5.55385 11.0907 5.29928 11.2295C4.79014 11.5072 4.44299 11.3684 4.79014 10.9518ZM11.4553 13.891C12.2653 12.9652 12.9596 12.4792 14.325 11.785C14.6258 11.623 15.0424 11.5998 15.2276 11.7155C15.5747 11.9238 15.5978 12.2247 15.1581 12.4561C13.2141 13.4512 12.705 13.891 11.8718 14.3075C11.4321 14.539 11.2007 14.1918 11.4553 13.891ZM14.973 18.7972C15.9218 17.9872 16.5236 17.7327 16.7087 17.8947C17.0558 18.1492 16.7781 18.4732 16.4541 18.7278C16.1301 18.9824 14.3481 20.3941 14.0936 20.6024C13.8158 20.8107 13.4456 20.9032 13.6076 20.4635C13.7233 20.1164 14.2324 19.4221 14.973 18.7972ZM19.1387 16.483C18.4907 16.969 18.1898 16.8532 18.0741 16.807C17.9584 16.7607 17.8658 16.5987 17.889 16.483C17.9353 16.3441 18.0741 16.2747 18.213 16.2284C18.5138 16.0895 18.9304 15.9738 19.2081 15.7887C20.2033 15.1407 19.995 14.8167 20.1801 14.8861C20.3653 14.9555 20.1338 15.4878 19.8561 15.835C19.6478 16.0664 19.3238 16.321 19.1387 16.483Z" fill="#FF7555"/>
<path d="M20.0644 6.90197C20.4115 6.85569 21.0132 6.87883 21.4761 6.94826C21.6381 6.9714 21.8001 6.87883 21.8464 6.73997C22.2861 5.79111 23.1655 3.7314 23.3275 3.2454C23.4895 2.7594 21.9158 2.55111 21.5687 3.12969C21.1521 3.84711 19.9024 6.36969 19.9024 6.36969C19.7172 6.69369 19.7635 6.94826 20.0644 6.90197ZM20.0181 14.2845C19.9024 14.2383 19.8329 14.0994 19.8561 13.9605C20.1338 13.058 21.3141 9.79483 21.4992 9.37826C21.7075 8.89226 22.3092 9.00797 22.1935 9.37826C22.1009 9.70226 20.7124 13.1968 20.3421 14.1457C20.2958 14.2614 20.1338 14.3308 20.0181 14.2845Z" fill="#78909C"/>
</svg>
