<svg width="25" height="26" viewBox="0 0 25 26" fill="none" xmlns="http://www.w3.org/2000/svg">
<path d="M8.5247 15.234L9.63933 13.3763C10.2969 12.2802 11.8459 12.176 12.6444 13.1741C13.4428 14.1722 14.9918 14.0681 15.6494 12.972L16.764 11.1143M12.6444 19.3536V23.4733M4.40504 6.99466H20.8837C22.0213 6.99466 22.9435 6.07244 22.9435 4.93483C22.9435 3.79722 22.0213 2.875 20.8837 2.875H4.40504C3.26743 2.875 2.34521 3.79722 2.34521 4.93483C2.34521 6.07244 3.26743 6.99466 4.40504 6.99466ZM3.37513 6.99466H21.9136V17.2938C21.9136 18.4314 20.9914 19.3536 19.8538 19.3536H5.43496C4.29735 19.3536 3.37513 18.4314 3.37513 17.2938V6.99466Z" stroke="black" stroke-width="2.05983" stroke-linecap="round" stroke-linejoin="round"/>
</svg>
