<svg width="50" height="50" viewBox="0 0 50 50" fill="none" xmlns="http://www.w3.org/2000/svg">
<path d="M42.8494 36.8478L39.6288 38.7034L21.9429 48.9051L2.73047 37.784L9.42629 33.9159V31.7437L16.4029 27.7185L18.6644 26.4128L21.7507 24.6328L23.6265 25.717L26.4691 27.3595L26.4717 27.366L42.8494 36.8478Z" fill="#E8E8E8"/>
<path d="M36.8003 8.08998L34.5408 6.79083L27.5101 2.73047L27.5062 2.73307L9.42871 13.1752L16.4503 17.2297L18.7144 18.5354H18.717L24.6837 21.9788L26.4716 23.0095L26.4742 23.016L31.0694 20.3564L44.5308 12.5751L44.5438 12.5673L36.8003 8.08998Z" fill="#FFDDA8"/>
<path d="M36.4754 8.2741L34.2256 6.97104L27.509 3.08984L10.0576 13.1756L16.8043 17.0249L19.0781 18.3227L26.473 22.5447L43.9114 12.5664L36.4754 8.2741Z" fill="#F9C98A"/>
<path d="M26.4729 23.0198V24.0746L26.4703 27.3695L26.4527 46.2398L26.4494 46.2425V46.2398L18.6629 41.7951L16.4014 40.5031L9.4248 36.5216V13.1797L16.451 17.2335L18.7131 18.5399L26.4703 23.0139L26.4729 23.0198Z" fill="#BC7C46"/>
<path d="M31.0686 20.3555L26.4694 23.0125V24.0777L26.4668 27.3621L26.4492 46.239V46.2416L26.4525 46.239L39.6272 38.7053L44.5469 35.8933V12.5781L31.0686 20.3555Z" fill="#DDA866"/>
<path d="M18.6641 18.5713V41.7939L16.4014 40.5019V17.2695L18.6641 18.5713Z" fill="#9B7451"/>
<path d="M36.7964 8.09213L30.4771 11.7544L28.2169 13.0614L18.7169 18.5414L18.6537 18.5792L16.3896 17.2722L16.4528 17.2332L25.9555 11.7544L28.2169 10.4403L34.5447 6.79688L36.7964 8.09213Z" fill="#CAAF8F"/>
<path d="M42.7553 22.5881L34.4795 27.3625V20.2497L42.7553 15.4688V22.5881Z" fill="#E5E0DC"/>
<path d="M41.9702 17.6015L35.2646 21.4762V20.6761L41.9702 16.8086V17.6015Z" fill="#4F2E16"/>
<path d="M41.9712 19.0335L35.2656 22.9101V22.5596L41.9712 18.6875V19.0335Z" fill="#B2AEAB"/>
<path d="M41.9712 19.9697L35.2656 23.8443V23.4918L41.9712 19.6211V19.9697Z" fill="#B2AEAB"/>
<path d="M41.9712 20.9749L35.2656 24.8509V24.4945L41.9712 20.625V20.9749Z" fill="#B2AEAB"/>
<path d="M41.9683 21.9111L35.2627 25.7825V25.4313L41.9683 21.5586V21.9111Z" fill="#B2AEAB"/>
</svg>
