<svg width="50" height="50" viewBox="0 0 50 50" fill="none" xmlns="http://www.w3.org/2000/svg">
<path d="M42.8494 36.8468L39.6288 38.7024L21.9429 48.9041L2.73047 37.7831L9.42629 33.9149V31.7427L16.4029 27.7175L18.6644 26.4118L21.7507 24.6318L23.6265 25.716L26.4691 27.3585L26.4717 27.365L42.8494 36.8468Z" fill="#E8E8E8"/>
<path d="M36.8003 8.08998L34.5408 6.79083L27.5101 2.73047L27.5062 2.73307L9.42871 13.1752L16.4503 17.2297L18.7144 18.5354H18.717L24.6837 21.9788L26.4716 23.0095L26.4742 23.016L31.0694 20.3564L44.5308 12.5751L44.5438 12.5673L36.8003 8.08998Z" fill="#FFDDA8"/>
<path d="M36.4754 8.27606L34.2256 6.97299L27.509 3.0918L10.0576 13.1776L16.8043 17.0268L19.0781 18.3247L26.473 22.5466L43.9114 12.5684L36.4754 8.27606Z" fill="#F9C98A"/>
<path d="M26.4729 23.0169V24.0717L26.4703 27.3665L26.4527 46.2369L26.4494 46.2395V46.2369L18.6629 41.7921L16.4014 40.5001L9.4248 36.5186V13.1768L16.451 17.2306L18.7131 18.5369L26.4703 23.011L26.4729 23.0169Z" fill="#BC7C46"/>
<path d="M31.0686 20.3545L26.4694 23.0115V24.0767L26.4668 27.3611L26.4492 46.238V46.2407L26.4525 46.238L39.6272 38.7043L44.5469 35.8923V12.5771L31.0686 20.3545Z" fill="#DDA866"/>
<path d="M18.6641 18.5713V41.7939L16.4014 40.5019V17.2695L18.6641 18.5713Z" fill="#9B7451"/>
<path d="M36.7964 8.09213L30.4771 11.7544L28.2169 13.0614L18.7169 18.5414L18.6537 18.5792L16.3896 17.2722L16.4528 17.2332L25.9555 11.7544L28.2169 10.4403L34.5447 6.79688L36.7964 8.09213Z" fill="#CAAF8F"/>
<path d="M42.7553 22.59L34.4795 27.3645V20.2517L42.7553 15.4707V22.59Z" fill="#E5E0DC"/>
<path d="M41.9702 17.6025L35.2646 21.4772V20.6771L41.9702 16.8096V17.6025Z" fill="#4F2E16"/>
<path d="M41.9712 19.0364L35.2656 22.913V22.5625L41.9712 18.6904V19.0364Z" fill="#B2AEAB"/>
<path d="M41.9712 19.9716L35.2656 23.8463V23.4938L41.9712 19.623V19.9716Z" fill="#B2AEAB"/>
<path d="M41.9712 20.9749L35.2656 24.8509V24.4945L41.9712 20.625V20.9749Z" fill="#B2AEAB"/>
<path d="M41.9683 21.914L35.2627 25.7854V25.4342L41.9683 21.5615V21.914Z" fill="#B2AEAB"/>
</svg>
