<svg width="356" height="356" viewBox="0 0 356 356" fill="none" xmlns="http://www.w3.org/2000/svg">
<path d="M356 272.269H0V272.447H356V272.269Z" fill="#EBEBEB"/>
<path d="M320.329 283.725H296.747V283.903H320.329V283.725Z" fill="#EBEBEB"/>
<path d="M194.533 281.496H185.355V281.674H194.533V281.496Z" fill="#EBEBEB"/>
<path d="M248.965 282.251H229.642V282.429H248.965V282.251Z" fill="#EBEBEB"/>
<path d="M296.035 277.117H256.085V277.295H296.035V277.117Z" fill="#EBEBEB"/>
<path d="M56.2409 285.355H37.3515V285.533H56.2409V285.355Z" fill="#EBEBEB"/>
<path d="M78.9537 285.355H62.5777V285.533H78.9537V285.355Z" fill="#EBEBEB"/>
<path d="M136.569 281.411H93.272V281.589H136.569V281.411Z" fill="#EBEBEB"/>
<path d="M168.744 240.514H31.2639C30.1869 240.512 29.1546 240.083 28.3938 239.32C27.6329 238.558 27.2055 237.525 27.2055 236.448V43.19C27.2149 42.1191 27.6464 41.0952 28.4063 40.3407C29.1661 39.5861 30.193 39.1619 31.2639 39.16H168.744C169.822 39.16 170.856 39.5884 171.619 40.3508C172.381 41.1132 172.81 42.1473 172.81 43.2256V236.448C172.81 237.526 172.381 238.56 171.619 239.323C170.856 240.085 169.822 240.514 168.744 240.514ZM31.2639 39.3024C30.2341 39.3043 29.2471 39.7147 28.5196 40.4436C27.7921 41.1724 27.3835 42.1602 27.3835 43.19V236.448C27.3835 237.478 27.7921 238.466 28.5196 239.194C29.2471 239.923 30.2341 240.334 31.2639 240.336H168.744C169.774 240.334 170.762 239.924 171.491 239.195C172.219 238.466 172.63 237.479 172.632 236.448V43.19C172.63 42.1595 172.219 41.1718 171.491 40.4431C170.762 39.7145 169.774 39.3043 168.744 39.3024H31.2639Z" fill="#EBEBEB"/>
<path d="M322.757 240.514H185.269C184.192 240.512 183.159 240.083 182.397 239.321C181.635 238.559 181.206 237.526 181.204 236.448V43.19C181.215 42.1185 181.648 41.0946 182.409 40.3402C183.17 39.5859 184.198 39.1618 185.269 39.16H322.757C323.826 39.1637 324.851 39.5888 325.61 40.3432C326.368 41.0975 326.799 42.1204 326.808 43.19V236.448C326.808 237.524 326.382 238.556 325.622 239.318C324.863 240.08 323.832 240.51 322.757 240.514ZM185.269 39.3024C184.239 39.3043 183.251 39.7145 182.523 40.4431C181.794 41.1718 181.384 42.1595 181.382 43.19V236.448C181.384 237.479 181.794 238.466 182.523 239.195C183.251 239.924 184.239 240.334 185.269 240.336H322.757C323.787 240.334 324.775 239.924 325.504 239.195C326.232 238.466 326.642 237.479 326.644 236.448V43.19C326.642 42.1595 326.232 41.1718 325.504 40.4431C324.775 39.7145 323.787 39.3043 322.757 39.3024H185.269Z" fill="#EBEBEB"/>
<path d="M188.609 211.03C187.185 206.936 175.942 212.504 171.378 219.289C168.338 223.803 166.48 228.63 165.618 235.11C165.718 227.719 165.839 219.773 165.953 212.276C166.879 210.41 168.986 206.103 170.496 202.685C175.558 191.293 187.584 187.021 191.734 179.858C197.181 170.431 197.146 156.298 192.518 151.193C188.488 146.765 175.152 176.74 173.65 180.086C169.551 189.049 166.969 198.63 166.01 208.438C166.124 201.396 166.231 194.91 166.316 189.926C166.601 173.657 166.95 168.424 167.114 166.815C167.669 166.031 168.324 165.113 168.708 164.622C171.934 160.471 179.096 155.522 182.671 149.484C187.897 140.663 187.057 130.111 183.383 126.181C179.552 122.072 172.774 131.784 169.178 141.403C165.583 151.022 167.121 160.236 166.11 168.231C165.903 169.798 165.682 175.75 165.483 184.009C164.387 175.124 162.215 169.171 158.185 163.625C153.201 156.804 148.929 148.495 144.878 149.57C140.826 150.645 142.991 161.631 146.223 169.349C149.071 176.227 163.311 183.077 165.376 188.609C165.127 199.801 164.906 213.985 164.75 227.185C163.632 220.364 164.401 219.794 159.816 209.349C157.096 203.141 145.924 195.487 144.593 199.752C143.262 204.017 145.305 212.076 149.499 217.723C152.902 222.279 160.449 222.272 162.194 225.099C162.607 225.761 163.952 228.289 164.721 229.741C164.536 245.861 164.458 260.094 164.55 264.942L165.262 264.992C165.262 263.739 165.319 255.537 165.462 244.686C167.299 238.912 179.638 235.544 183.447 229.535C187.455 223.276 190.325 215.943 188.609 211.03Z" fill="#E6E6E6"/>
<path d="M177.01 272.269H153.329C152.701 272.27 152.092 272.053 151.605 271.656C151.118 271.259 150.784 270.706 150.659 270.09L148.979 261.802H181.361L179.673 270.09C179.55 270.705 179.217 271.258 178.731 271.656C178.246 272.053 177.638 272.27 177.01 272.269Z" fill="#F0F0F0"/>
<path d="M182.037 265.013H148.302C147.91 265.014 147.53 264.868 147.238 264.605C146.946 264.342 146.762 263.98 146.722 263.589L146.01 257.459C145.986 257.237 146.009 257.012 146.077 256.8C146.146 256.587 146.258 256.391 146.407 256.224C146.556 256.058 146.739 255.925 146.942 255.833C147.146 255.742 147.367 255.694 147.59 255.693H182.706C182.929 255.694 183.15 255.742 183.354 255.833C183.557 255.925 183.739 256.058 183.887 256.225C184.036 256.391 184.148 256.587 184.215 256.8C184.283 257.013 184.305 257.237 184.28 257.459L183.568 263.589C183.53 263.972 183.353 264.329 183.072 264.591C182.79 264.853 182.422 265.003 182.037 265.013Z" fill="#F0F0F0"/>
<path d="M285.348 269.3H308.025V172.532H285.348V269.3Z" fill="#F0F0F0"/>
<path d="M189 272.269H306.495V269.3H189V272.269Z" fill="#F0F0F0"/>
<path d="M285.341 172.532H187.477V269.3H285.341V172.532Z" fill="#F5F5F5"/>
<path d="M276.427 210.674H196.391V231.165H276.427V210.674Z" fill="#F0F0F0"/>
<path d="M276.427 237.046H196.391V257.538H276.427V237.046Z" fill="#F0F0F0"/>
<path d="M227.427 214.205H245.391C246.614 214.205 247.605 213.216 247.605 211.995C247.605 210.774 246.614 209.784 245.391 209.784H227.427C226.204 209.784 225.213 210.774 225.213 211.995C225.213 213.216 226.204 214.205 227.427 214.205Z" fill="#F5F5F5"/>
<path d="M276.427 184.301H196.391V204.793H276.427V184.301Z" fill="#F0F0F0"/>
<path d="M227.427 187.833H245.391C245.976 187.831 246.537 187.598 246.952 187.185C247.367 186.771 247.601 186.211 247.605 185.625C247.603 185.039 247.369 184.477 246.954 184.062C246.54 183.647 245.977 183.413 245.391 183.411H227.427C226.84 183.413 226.278 183.647 225.863 184.062C225.448 184.477 225.215 185.039 225.213 185.625C225.216 186.211 225.451 186.771 225.866 187.185C226.281 187.598 226.842 187.831 227.427 187.833Z" fill="#F5F5F5"/>
<path d="M227.427 240.578H245.391C245.977 240.578 246.539 240.345 246.954 239.932C247.369 239.518 247.603 238.957 247.605 238.371C247.603 237.784 247.369 237.222 246.954 236.807C246.54 236.392 245.977 236.158 245.391 236.156H227.427C226.84 236.158 226.278 236.392 225.863 236.807C225.448 237.222 225.215 237.784 225.213 238.371C225.215 238.957 225.449 239.518 225.864 239.932C226.279 240.345 226.841 240.578 227.427 240.578Z" fill="#F5F5F5"/>
<path d="M185.462 172.532H285.341V169.769H185.462V172.532Z" fill="#F0F0F0"/>
<path d="M310.176 169.776H285.341V172.539H310.176V169.776Z" fill="#E6E6E6"/>
<path d="M104.956 272.269H127.363L127.363 127.355H104.956L104.956 272.269Z" fill="#E0E0E0"/>
<path d="M47.8535 272.269H122.877L130.759 93.8986H55.7354L47.8535 272.269Z" fill="#E6E6E6"/>
<path d="M36.9101 272.269H119.901L127.776 93.8986H44.7919L36.9101 272.269Z" fill="#F0F0F0"/>
<path d="M111.777 263.525L118.413 102.649H52.9159L46.2729 263.525H111.777Z" fill="white"/>
<path d="M83.6315 263.525L105.896 102.649H98.911L76.6468 263.525H83.6315Z" fill="#FAFAFA"/>
<path d="M73.6849 263.525L95.9491 102.649H84.0374L61.7731 263.525H73.6849Z" fill="#FAFAFA"/>
<path d="M208.951 142.485H299.752V57.5439L208.951 57.5439V142.485Z" fill="#E6E6E6"/>
<path d="M206.124 142.485H298.428V57.5439L206.124 57.5439V142.485Z" fill="#F5F5F5"/>
<path d="M208.951 145.96H299.752V142.486H208.951V145.96Z" fill="#E6E6E6"/>
<path d="M203.604 145.96H289.741V142.486H203.604V145.96Z" fill="#F5F5F5"/>
<path d="M294.483 137.217V62.8055L210.068 62.8055V137.217H294.483Z" fill="#FAFAFA"/>
<path d="M210.638 137.224V62.8126H210.076V137.224H210.638Z" fill="#E6E6E6"/>
<path d="M280.485 137.217L265.889 62.8055H246.758L261.354 137.217H280.485Z" fill="white"/>
<path d="M258.257 137.217L243.661 62.8055H235.024L249.62 137.217H258.257Z" fill="white"/>
<path d="M291.664 133.187V54.6246C291.664 54.3847 291.469 54.1903 291.229 54.1903H291.194C290.954 54.1903 290.759 54.3847 290.759 54.6246V133.187C290.759 133.427 290.954 133.621 291.194 133.621H291.229C291.469 133.621 291.664 133.427 291.664 133.187Z" fill="#EBEBEB"/>
<path opacity="0.5" d="M204.059 67.1843L301.283 67.1843V54.1832L204.059 54.1832V67.1843Z" fill="#E6E6E6"/>
<path d="M204.059 55.7994L301.283 55.7994V54.1832L204.059 54.1832V55.7994Z" fill="#E0E0E0"/>
<path d="M204.223 54.8953L301.126 54.8953C301.468 54.8953 301.746 54.6179 301.746 54.2758V54.0978C301.746 53.7557 301.468 53.4784 301.126 53.4784L204.223 53.4784C203.881 53.4784 203.604 53.7557 203.604 54.0978V54.2758C203.604 54.6179 203.881 54.8953 204.223 54.8953Z" fill="#EBEBEB"/>
<path d="M203.938 67.5261H301.404C301.448 67.5261 301.493 67.5173 301.534 67.5C301.575 67.4827 301.612 67.4574 301.643 67.4256C301.674 67.3938 301.699 67.356 301.715 67.3146C301.732 67.2732 301.739 67.2289 301.739 67.1844C301.739 67.0956 301.703 67.0105 301.64 66.9477C301.578 66.885 301.493 66.8497 301.404 66.8497H203.938C203.849 66.8497 203.763 66.8847 203.699 66.9473C203.635 67.0099 203.598 67.095 203.596 67.1844C203.596 67.275 203.632 67.3619 203.697 67.426C203.761 67.4901 203.848 67.5261 203.938 67.5261Z" fill="white"/>
<path d="M178 304.423C254.243 304.423 316.05 300.814 316.05 296.363C316.05 291.911 254.243 288.303 178 288.303C101.757 288.303 39.9503 291.911 39.9503 296.363C39.9503 300.814 101.757 304.423 178 304.423Z" fill="#F5F5F5"/>
<path d="M46.165 193.722L45.4436 193.806L46.7255 204.768L47.4468 204.683L46.165 193.722Z" fill="#407BFF"/>
<path d="M47.9248 208.76L47.2035 208.845L47.8502 214.375L48.5715 214.291L47.9248 208.76Z" fill="#407BFF"/>
<path d="M95.8281 171.371L94.9737 168.972C94.386 167.323 93.256 165.922 91.7686 164.998C90.2812 164.075 88.5244 163.684 86.7857 163.888L52.7592 167.868C50.7208 168.107 48.8609 169.146 47.5884 170.757C46.3159 172.367 45.7352 174.417 45.9738 176.455L55.657 259.261C55.7374 259.953 55.9536 260.623 56.2931 261.232C56.6326 261.841 57.0889 262.377 57.6358 262.81C58.1827 263.242 58.8094 263.563 59.4803 263.753C60.1511 263.943 60.8528 263.999 61.5453 263.917L183.297 249.677C183.991 249.599 184.663 249.384 185.273 249.045C185.884 248.706 186.421 248.25 186.855 247.703C187.289 247.156 187.611 246.529 187.802 245.857C187.993 245.185 188.049 244.482 187.968 243.789L179.566 172.204C179.404 170.807 178.693 169.531 177.59 168.658C176.487 167.785 175.083 167.386 173.685 167.548L102.984 175.821C101.464 175.997 99.9287 175.653 98.6293 174.845C97.3299 174.037 96.3425 172.813 95.8281 171.371Z" fill="#407BFF"/>
<path d="M99.2257 135.362L60.7579 143.028L71.3193 196.026L109.787 188.361L99.2257 135.362Z" fill="#407BFF"/>
<path opacity="0.7" d="M99.2257 135.362L60.7579 143.028L71.3193 196.026L109.787 188.361L99.2257 135.362Z" fill="white"/>
<g opacity="0.4">
<path d="M94.0908 148.096L70.3954 152.824C69.8434 152.931 69.2715 152.816 68.8036 152.504C68.3357 152.192 68.0097 151.708 67.8963 151.158C67.7892 150.606 67.904 150.034 68.2159 149.566C68.5278 149.098 69.0117 148.772 69.5624 148.659L93.272 143.952C93.824 143.845 94.396 143.96 94.8639 144.272C95.3317 144.584 95.6577 145.068 95.7711 145.618C95.8717 146.169 95.752 146.737 95.4377 147.201C95.1234 147.664 94.6397 147.986 94.0908 148.096Z" fill="#407BFF"/>
<path d="M95.8352 156.875L72.1398 161.624C71.5889 161.729 71.0188 161.613 70.5525 161.302C70.0862 160.99 69.7613 160.507 69.6478 159.958C69.5428 159.407 69.6586 158.837 69.9703 158.371C70.2821 157.904 70.7647 157.579 71.3139 157.466L95.0093 152.745C95.5602 152.64 96.1304 152.756 96.5966 153.068C97.0629 153.38 97.3878 153.862 97.5013 154.412C97.5982 154.958 97.4784 155.521 97.1674 155.981C96.8564 156.441 96.3786 156.761 95.8352 156.875Z" fill="#407BFF"/>
<path d="M97.5796 165.64L73.8842 170.36C73.3333 170.465 72.7631 170.35 72.2969 170.038C71.8306 169.726 71.5057 169.244 71.3922 168.694C71.2872 168.143 71.403 167.573 71.7147 167.107C72.0264 166.641 72.509 166.316 73.0583 166.202L96.7537 161.475C97.3046 161.37 97.8748 161.485 98.341 161.797C98.8073 162.109 99.1322 162.591 99.2457 163.141C99.3528 163.693 99.238 164.265 98.9261 164.733C98.6142 165.2 98.1303 165.526 97.5796 165.64Z" fill="#407BFF"/>
<path d="M99.3311 174.44L75.6358 179.161C75.0838 179.268 74.5118 179.153 74.0439 178.841C73.5761 178.529 73.2501 178.045 73.1366 177.495C73.0295 176.943 73.1443 176.371 73.4563 175.903C73.7682 175.435 74.252 175.109 74.8027 174.996L98.4981 170.275C99.0501 170.168 99.6221 170.283 100.09 170.595C100.558 170.906 100.884 171.39 100.997 171.941C101.104 172.493 100.99 173.065 100.678 173.533C100.366 174.001 99.8819 174.327 99.3311 174.44Z" fill="#407BFF"/>
<path d="M94.5963 184.458L77.3802 187.89C76.8292 187.995 76.2591 187.879 75.7928 187.567C75.3266 187.256 75.0016 186.773 74.8882 186.224C74.781 185.672 74.8959 185.1 75.2078 184.632C75.5197 184.164 76.0035 183.838 76.5543 183.725L93.7704 180.293C94.3213 180.188 94.8915 180.303 95.3578 180.615C95.824 180.927 96.149 181.41 96.2624 181.959C96.3696 182.511 96.2547 183.083 95.9428 183.551C95.6309 184.019 95.1471 184.345 94.5963 184.458Z" fill="#407BFF"/>
</g>
<path d="M154.037 125.148L115.175 130.465L122.5 184.007L161.362 178.691L154.037 125.148Z" fill="#407BFF"/>
<path opacity="0.7" d="M154.037 125.148L115.175 130.465L122.5 184.007L161.362 178.691L154.037 125.148Z" fill="white"/>
<g opacity="0.4">
<path d="M148.139 137.558L124.201 140.834C123.644 140.907 123.08 140.757 122.632 140.417C122.184 140.077 121.889 139.575 121.809 139.018C121.736 138.461 121.885 137.897 122.225 137.449C122.565 137.001 123.068 136.705 123.625 136.626L147.562 133.351C148.119 133.277 148.683 133.427 149.131 133.767C149.579 134.107 149.875 134.61 149.954 135.166C150.027 135.724 149.878 136.287 149.538 136.735C149.198 137.183 148.695 137.479 148.139 137.558Z" fill="#407BFF"/>
<path d="M149.349 146.409L125.412 149.684C124.854 149.757 124.29 149.607 123.843 149.267C123.395 148.928 123.099 148.425 123.019 147.868C122.948 147.312 123.099 146.75 123.438 146.304C123.778 145.857 124.28 145.563 124.835 145.483L148.772 142.208C149.329 142.135 149.892 142.283 150.339 142.622C150.787 142.96 151.083 143.461 151.165 144.016C151.238 144.574 151.088 145.138 150.748 145.585C150.408 146.033 149.906 146.329 149.349 146.409Z" fill="#407BFF"/>
<path d="M133.215 157.637L126.622 158.541C126.065 158.614 125.501 158.465 125.053 158.125C124.605 157.785 124.309 157.282 124.23 156.726C124.157 156.168 124.306 155.604 124.646 155.156C124.986 154.709 125.489 154.413 126.045 154.333L132.646 153.429C133.202 153.358 133.764 153.508 134.21 153.848C134.656 154.188 134.951 154.689 135.031 155.245C135.104 155.802 134.954 156.366 134.614 156.814C134.275 157.262 133.772 157.557 133.215 157.637Z" fill="#407BFF"/>
<path d="M146.01 155.885L139.41 156.79C138.853 156.861 138.291 156.71 137.845 156.37C137.399 156.031 137.104 155.529 137.024 154.974C136.951 154.417 137.101 153.853 137.441 153.405C137.781 152.957 138.283 152.661 138.84 152.582L145.433 151.685C145.989 151.611 146.552 151.76 147 152.098C147.448 152.437 147.744 152.938 147.825 153.493C147.899 154.05 147.749 154.614 147.409 155.062C147.069 155.51 146.566 155.806 146.01 155.885Z" fill="#407BFF"/>
<path d="M151.77 164.116L127.832 167.391C127.275 167.464 126.711 167.315 126.263 166.975C125.816 166.635 125.52 166.132 125.44 165.576C125.369 165.019 125.52 164.457 125.859 164.011C126.199 163.565 126.701 163.27 127.256 163.19L151.193 159.908C151.751 159.835 152.314 159.985 152.762 160.324C153.21 160.664 153.506 161.167 153.586 161.724C153.659 162.281 153.509 162.845 153.169 163.293C152.829 163.741 152.326 164.036 151.77 164.116Z" fill="#407BFF"/>
<path d="M146.444 173.863L129.043 176.242C128.488 176.313 127.927 176.163 127.481 175.825C127.034 175.487 126.739 174.987 126.658 174.433C126.584 173.877 126.733 173.314 127.071 172.866C127.41 172.418 127.911 172.122 128.466 172.041L145.867 169.663C146.423 169.591 146.984 169.741 147.43 170.079C147.876 170.417 148.171 170.917 148.253 171.471C148.326 172.028 148.177 172.59 147.839 173.038C147.5 173.486 146.999 173.782 146.444 173.863Z" fill="#407BFF"/>
</g>
<path d="M117.367 132.96L78.2906 136.365L82.9818 190.202L122.058 186.797L117.367 132.96Z" fill="#407BFF"/>
<path opacity="0.8" d="M117.367 132.96L78.2906 136.365L82.9818 190.202L122.058 186.797L117.367 132.96Z" fill="white"/>
<g opacity="0.4">
<path d="M110.866 145.077L86.7928 147.17C86.2327 147.216 85.6773 147.039 85.2468 146.678C84.8163 146.317 84.5455 145.8 84.493 145.241C84.4495 144.682 84.6274 144.128 84.9883 143.7C85.3493 143.271 85.8644 143.001 86.4226 142.948L110.495 140.812C111.055 140.767 111.611 140.944 112.041 141.305C112.472 141.666 112.743 142.182 112.795 142.742C112.823 143.022 112.794 143.305 112.712 143.574C112.63 143.843 112.495 144.094 112.316 144.311C112.137 144.528 111.916 144.707 111.667 144.839C111.418 144.97 111.146 145.051 110.866 145.077Z" fill="#407BFF"/>
<path d="M111.642 153.977L87.5689 156.113C87.0088 156.159 86.4533 155.982 86.0229 155.621C85.5924 155.259 85.3216 154.743 85.2691 154.184C85.2236 153.624 85.4006 153.068 85.7617 152.638C86.1229 152.207 86.6392 151.936 87.1986 151.884L111.271 149.748C111.831 149.702 112.387 149.879 112.817 150.241C113.248 150.602 113.519 151.118 113.571 151.677C113.617 152.237 113.44 152.793 113.078 153.223C112.717 153.654 112.201 153.925 111.642 153.977Z" fill="#407BFF"/>
<path d="M112.418 162.877L88.345 165.013C87.7849 165.059 87.2294 164.882 86.799 164.521C86.3685 164.159 86.0977 163.643 86.0452 163.084C85.9997 162.524 86.1767 161.968 86.5378 161.538C86.899 161.107 87.4153 160.836 87.9747 160.784L112.047 158.648C112.608 158.602 113.163 158.779 113.593 159.141C114.024 159.502 114.295 160.018 114.347 160.577C114.393 161.137 114.216 161.693 113.855 162.123C113.493 162.554 112.977 162.825 112.418 162.877Z" fill="#407BFF"/>
<path d="M113.208 171.777L89.1353 173.913C88.5752 173.959 88.0198 173.782 87.5893 173.42C87.1588 173.059 86.888 172.543 86.8355 171.984C86.79 171.423 86.967 170.868 87.3282 170.438C87.6893 170.007 88.2056 169.736 88.765 169.684L112.838 167.591C113.398 167.545 113.953 167.722 114.384 168.083C114.814 168.444 115.085 168.961 115.138 169.52C115.171 170.073 114.989 170.618 114.629 171.039C114.269 171.46 113.76 171.725 113.208 171.777Z" fill="#407BFF"/>
<path d="M107.391 181.254L89.8971 182.778C89.3335 182.829 88.7726 182.655 88.3374 182.293C87.9022 181.931 87.6284 181.412 87.576 180.848C87.5305 180.288 87.7075 179.733 88.0686 179.302C88.4298 178.872 88.9461 178.601 89.5055 178.548L106.999 177.025C107.559 176.979 108.115 177.156 108.545 177.517C108.976 177.878 109.247 178.395 109.299 178.954C109.345 179.511 109.171 180.063 108.814 180.493C108.457 180.923 107.947 181.196 107.391 181.254Z" fill="#407BFF"/>
</g>
<path d="M164.981 130.345L125.803 132.233L128.405 186.212L167.584 184.323L164.981 130.345Z" fill="#407BFF"/>
<path opacity="0.8" d="M164.981 130.345L125.803 132.233L128.405 186.212L167.584 184.323L164.981 130.345Z" fill="white"/>
<g opacity="0.4">
<path d="M158.021 142.186L133.892 143.354C133.331 143.377 132.783 143.179 132.368 142.802C131.952 142.425 131.701 141.9 131.67 141.339C131.647 140.778 131.845 140.231 132.222 139.815C132.599 139.4 133.125 139.149 133.685 139.118L157.822 137.95C158.383 137.927 158.93 138.125 159.346 138.502C159.761 138.879 160.012 139.405 160.043 139.965C160.067 140.527 159.867 141.075 159.489 141.491C159.11 141.907 158.583 142.157 158.021 142.186Z" fill="#407BFF"/>
<path d="M158.456 151.115L134.319 152.276C133.758 152.299 133.211 152.101 132.795 151.724C132.379 151.346 132.129 150.821 132.097 150.261C132.074 149.699 132.273 149.15 132.652 148.734C133.03 148.318 133.558 148.069 134.119 148.039L158.249 146.871C158.811 146.848 159.359 147.047 159.775 147.426C160.191 147.805 160.441 148.332 160.471 148.894C160.494 149.454 160.296 150.002 159.919 150.417C159.541 150.833 159.016 151.084 158.456 151.115Z" fill="#407BFF"/>
<path d="M141.403 160.912L134.753 161.233C134.192 161.256 133.645 161.058 133.229 160.68C132.814 160.303 132.563 159.778 132.532 159.218C132.508 158.657 132.707 158.109 133.084 157.694C133.461 157.278 133.986 157.027 134.547 156.996L141.197 156.669C141.759 156.645 142.307 156.845 142.723 157.223C143.139 157.602 143.389 158.129 143.418 158.691C143.441 159.251 143.243 159.799 142.866 160.214C142.489 160.63 141.964 160.881 141.403 160.912Z" fill="#407BFF"/>
<path d="M154.298 160.257L147.647 160.577C147.087 160.601 146.539 160.402 146.124 160.025C145.708 159.648 145.457 159.123 145.426 158.562C145.403 158.002 145.601 157.454 145.978 157.039C146.355 156.623 146.881 156.372 147.441 156.341L154.091 156.021C154.652 155.997 155.199 156.196 155.615 156.573C156.031 156.95 156.281 157.475 156.312 158.036C156.336 158.596 156.138 159.144 155.76 159.559C155.383 159.975 154.858 160.226 154.298 160.257Z" fill="#407BFF"/>
<path d="M159.317 168.965L135.18 170.125C134.62 170.149 134.072 169.95 133.656 169.573C133.241 169.196 132.99 168.671 132.959 168.11C132.936 167.549 133.135 167 133.513 166.584C133.892 166.168 134.419 165.919 134.981 165.889L159.111 164.721C159.673 164.698 160.221 164.897 160.637 165.276C161.053 165.654 161.303 166.182 161.332 166.743C161.355 167.304 161.157 167.852 160.78 168.267C160.403 168.683 159.877 168.934 159.317 168.965Z" fill="#407BFF"/>
<path d="M153.151 178.207L135.615 179.054C135.054 179.077 134.507 178.879 134.091 178.502C133.675 178.125 133.425 177.599 133.393 177.039C133.37 176.478 133.568 175.931 133.945 175.515C134.322 175.099 134.848 174.849 135.408 174.817L152.945 173.97C153.505 173.947 154.053 174.145 154.469 174.522C154.884 174.899 155.135 175.425 155.166 175.985C155.189 176.546 154.991 177.093 154.614 177.509C154.237 177.925 153.712 178.175 153.151 178.207Z" fill="#407BFF"/>
</g>
<path d="M106.693 172.902L106.067 170.56C105.628 168.939 104.608 167.535 103.203 166.616C101.797 165.697 100.102 165.327 98.4411 165.576L64.4146 169.556C62.3503 169.809 60.4492 170.806 59.0676 172.361C57.6861 173.915 56.919 175.92 56.9102 178L58.8397 259.061C58.8512 259.729 59.0055 260.386 59.2923 260.99C59.579 261.593 59.9916 262.127 60.5022 262.558C61.0128 262.988 61.6096 263.304 62.2525 263.484C62.8954 263.665 63.5695 263.706 64.2295 263.604L185.982 249.364C187.395 249.192 188.698 248.511 189.645 247.448C190.593 246.386 191.121 245.014 191.129 243.59L189.463 173.515C189.451 172.847 189.295 172.189 189.008 171.586C188.72 170.983 188.307 170.448 187.796 170.018C187.285 169.588 186.688 169.272 186.044 169.092C185.401 168.911 184.727 168.87 184.066 168.972L113.372 177.238C111.921 177.46 110.439 177.141 109.207 176.341C107.976 175.542 107.081 174.318 106.693 172.902Z" fill="#407BFF"/>
<path opacity="0.3" d="M106.693 172.902L106.067 170.56C105.628 168.939 104.608 167.535 103.203 166.616C101.797 165.697 100.102 165.327 98.4411 165.576L64.4146 169.556C62.3503 169.809 60.4492 170.806 59.0676 172.361C57.6861 173.915 56.919 175.92 56.9102 178L58.8397 259.061C58.8512 259.729 59.0055 260.386 59.2923 260.99C59.579 261.593 59.9916 262.127 60.5022 262.558C61.0128 262.988 61.6096 263.304 62.2525 263.484C62.8954 263.665 63.5695 263.706 64.2295 263.604L185.982 249.364C187.395 249.192 188.698 248.511 189.645 247.448C190.593 246.386 191.121 245.014 191.129 243.59L189.463 173.515C189.451 172.847 189.295 172.189 189.008 171.586C188.72 170.983 188.307 170.448 187.796 170.018C187.285 169.588 186.688 169.272 186.044 169.092C185.401 168.911 184.727 168.87 184.066 168.972L113.372 177.238C111.921 177.46 110.439 177.141 109.207 176.341C107.976 175.542 107.081 174.318 106.693 172.902Z" fill="black"/>
<path d="M225.704 133.934C225.177 136.576 224.615 139.182 223.981 141.766C223.347 144.351 222.728 146.964 222.037 149.549L220.983 153.415L220.848 153.913C220.784 154.127 220.713 154.34 220.627 154.561C220.445 155.046 220.206 155.507 219.915 155.935C219.562 156.467 219.11 156.926 218.584 157.288C218.004 157.681 217.337 157.926 216.64 158C215.586 158.077 214.531 157.852 213.6 157.352C212.892 156.967 212.229 156.506 211.621 155.978C210.52 155.016 209.546 153.918 208.723 152.71L210.752 150.944C211.721 151.698 212.744 152.378 213.814 152.98C214.278 153.244 214.77 153.456 215.28 153.614C215.715 153.756 216.099 153.735 216.099 153.664C216.099 153.593 216.028 153.664 215.992 153.664C215.957 153.664 215.992 153.664 215.992 153.543C215.992 153.422 216.078 153.294 216.128 153.109L216.291 152.318L217.117 148.431L218.79 140.656C219.332 138.064 219.915 135.465 220.478 132.902L225.704 133.934Z" fill="#FFC3BD"/>
<path d="M223.34 125.796C217.267 130.446 217.516 139.21 217.516 139.21L228.374 141.809C228.374 141.809 231.713 132.994 230.36 129.769C228.951 126.408 226.765 123.176 223.34 125.796Z" fill="#263238"/>
<path d="M211.293 151.051L207.299 147.057L205.163 153.308C205.163 153.308 208.538 155.123 211.763 153.408L211.293 151.051Z" fill="#FFC3BD"/>
<path d="M201.767 146.437L201.033 151.378L205.141 153.308L207.299 147.056L201.767 146.437Z" fill="#FFC3BD"/>
<path d="M258.541 291.108L252.432 291.707L246.074 277.16L252.183 276.562L258.541 291.108Z" fill="#FFC3BD"/>
<path d="M297.901 269.606L293.308 273.914L283.404 263.027L287.997 258.719L297.901 269.606Z" fill="#FFC3BD"/>
<path d="M291.208 271.849L294.654 265.64C294.712 265.531 294.808 265.448 294.923 265.404C295.038 265.361 295.165 265.361 295.281 265.405L300.585 267.427C300.716 267.482 300.834 267.565 300.931 267.668C301.028 267.772 301.102 267.895 301.149 268.03C301.195 268.164 301.213 268.307 301.2 268.448C301.188 268.59 301.145 268.727 301.076 268.851C299.837 270.987 299.133 271.97 297.616 274.704C296.683 276.384 294.868 280.236 293.579 282.536C292.29 284.836 289.926 283.711 290.254 282.629C291.728 277.773 291.45 275.074 291.037 272.938C290.966 272.566 291.027 272.181 291.208 271.849Z" fill="#263238"/>
<path d="M251.621 289.82H259.125C259.26 289.82 259.391 289.865 259.498 289.947C259.605 290.029 259.682 290.145 259.716 290.275L261.347 296.206C261.387 296.346 261.393 296.494 261.366 296.637C261.339 296.78 261.279 296.915 261.19 297.03C261.102 297.146 260.987 297.239 260.856 297.302C260.725 297.366 260.581 297.398 260.435 297.395C257.787 297.395 256.534 297.395 253.237 297.395H243.155C240.407 297.395 239.837 294.626 240.969 294.369C246.06 293.244 248.986 291.692 250.56 290.211C250.852 289.952 251.23 289.812 251.621 289.82Z" fill="#263238"/>
<path opacity="0.2" d="M246.081 277.167L249.357 284.665H255.729L252.19 276.569L246.081 277.167Z" fill="black"/>
<path opacity="0.2" d="M287.997 258.727L283.404 263.034L288.517 268.645L293.109 264.33L287.997 258.727Z" fill="black"/>
<path d="M225.177 124.899C225.177 124.899 222.429 126.102 231.642 162.557L257.231 160.342C255.907 149.969 255.337 143.546 258.463 121.738C254.818 121.307 251.146 121.142 247.477 121.246C243.585 121.305 239.702 121.64 235.857 122.25C232.255 122.952 228.69 123.836 225.177 124.899Z" fill="#263238"/>
<path d="M247.477 121.04C247.477 121.04 248.901 121.04 250.638 121.04C251.671 122.628 248.324 129.584 242.806 134.134C241.966 131.604 240.422 129.367 238.356 127.683L247.477 121.04Z" fill="white"/>
<path d="M235.857 122.158C235.857 122.158 235.209 122.25 233.664 122.606C232.632 124.194 230.887 130.98 233.928 134.44C234.693 131.816 236.228 129.482 238.335 127.74L235.857 122.158Z" fill="white"/>
<path d="M245.191 108.26C244.786 112.062 244.643 118.94 247.477 121.247C247.477 121.247 244.451 124.337 238.335 127.74C233.885 124.664 235.857 122.25 235.857 122.25C239.937 120.898 239.559 117.815 238.584 114.967L245.191 108.26Z" fill="#FFC3BD"/>
<path d="M238.228 127.761C238.228 127.761 241.98 123.674 243.924 124.458C245.868 125.241 244.366 126.643 244.195 127.961C244.024 129.278 244.949 132.781 242.351 131.87C239.752 130.958 238.228 127.761 238.228 127.761Z" fill="#407BFF"/>
<path d="M238.079 127.676C238.079 127.676 236.306 124.543 234.39 124.963C232.475 125.383 233.614 126.48 233.785 127.662C234.006 129.171 232.411 132.076 234.718 131.222C237.025 130.367 238.079 127.676 238.079 127.676Z" fill="#407BFF"/>
<g opacity="0.2">
<path d="M237.096 126.999C237.07 127.631 237.192 128.26 237.452 128.836C237.688 128.468 237.895 128.083 238.071 127.683C237.808 127.237 237.506 126.815 237.167 126.423C237.108 126.609 237.084 126.804 237.096 126.999Z" fill="black"/>
<path d="M239.595 126.437C238.791 127.149 238.235 127.761 238.235 127.761C238.442 128.189 238.68 128.6 238.947 128.993C239.377 128.562 239.631 127.985 239.659 127.377C239.727 127.064 239.705 126.738 239.595 126.437Z" fill="black"/>
</g>
<path d="M238.185 129.043C237.651 129.043 237.324 128.466 237.288 127.092C237.253 125.718 238.306 126.48 238.306 126.48C238.306 126.48 239.73 125.768 239.474 127.412C239.289 128.715 238.734 129.043 238.185 129.043Z" fill="#407BFF"/>
<path opacity="0.2" d="M242.5 111.001L238.591 114.967C238.825 115.627 239.004 116.306 239.125 116.996C240.698 116.633 242.977 114.995 242.998 113.315C242.973 112.52 242.804 111.736 242.5 111.001Z" fill="black"/>
<path d="M239.147 95.4081C239.147 95.4081 234.875 101.325 234.163 103.952C231.258 105.647 230.674 97.3091 232.212 92.1685C237.011 95.1802 239.147 95.4081 239.147 95.4081Z" fill="#263238"/>
<path d="M248.538 102.322C246.95 108.395 246.402 111.001 242.685 113.543C237.082 117.373 229.969 114.098 229.705 107.669C229.47 101.887 232.105 92.9232 238.605 91.663C240.038 91.3722 241.521 91.4538 242.913 91.8999C244.305 92.3461 245.559 93.142 246.556 94.2114C247.552 95.2808 248.258 96.588 248.605 98.0079C248.952 99.4279 248.929 100.913 248.538 102.322Z" fill="#FFC3BD"/>
<path d="M251.842 99.8937C251.842 99.8937 248.787 104.842 248.374 107.014C246.16 108.516 245.227 101.923 246.16 97.7577C247.178 94.0482 251.842 99.8937 251.842 99.8937Z" fill="#263238"/>
<path d="M250.624 96.4547C249.741 97.1239 248.808 94.6533 249.684 92.7594C247.997 92.8662 245.968 91.8623 246.402 90.2318C243.077 91.3496 241.845 87.9676 242.229 85.6251C242.692 82.7771 245.17 82.1719 246.63 82.9195C246.63 81.6451 249.848 78.9893 251.073 81.0683C253.344 80.2638 257.004 80.513 256.925 83.304C258.428 83.3467 262.863 85.0484 261.197 89C263.155 89.1139 264.216 91.5988 263.127 93.4785C263.556 93.7058 263.924 94.033 264.2 94.4326C264.476 94.8321 264.652 95.2922 264.713 95.774C264.773 96.2558 264.717 96.7451 264.549 97.2007C264.381 97.6562 264.105 98.0646 263.746 98.3913C264.65 100.271 261.909 103.069 260.45 102.734C259.339 104.436 257.637 105.718 256.526 104.265C254.39 105.839 251.934 103.838 252.482 102.3C250.061 101.93 247.591 97.8929 250.624 96.4547Z" fill="#263238"/>
<path d="M254.241 90.4738C255.836 93.1367 255.701 96.1698 253.949 97.2022C252.198 98.2346 249.471 96.953 247.876 94.2901C246.281 91.6273 246.409 88.5941 248.168 87.5617C249.926 86.5293 252.646 87.8181 254.241 90.4738Z" fill="#407BFF"/>
<path d="M239.431 94.696C239.339 95.4579 237.238 95.2585 236.633 93.9128C235.765 94.8242 233.721 95.2941 233.023 94.3044C231.841 96.5258 229.463 95.942 228.851 94.8811C228.239 93.8202 227.833 91.848 229.065 91.4564C228.353 90.8441 228.566 87.9605 230.432 88.3236C231.215 86.7857 233.358 85.0413 234.924 86.4012C235.779 85.6892 239.196 84.2083 240.578 86.921C240.881 86.7139 241.227 86.5783 241.589 86.5242C241.952 86.4701 242.323 86.4989 242.673 86.6085C243.023 86.7182 243.344 86.9058 243.611 87.1572C243.878 87.4086 244.085 87.7173 244.216 88.0602C246.43 87.4835 247.392 89.1638 247.384 90.0751C248.958 90.5023 249.065 93.2222 248.096 93.806C248.474 95.1802 248.274 96.654 246.829 96.5259C246.551 98.3771 244.074 98.6619 243.49 97.6579C241.881 98.6903 238.598 96.8961 239.431 94.696Z" fill="#263238"/>
<path d="M235.672 89.4414C237.473 86.9494 244.045 85.8814 249.734 89.6479C254.86 93.0157 254.526 100.841 250.446 100.42C246.366 100 242.336 95.2229 242.336 95.2229L235.672 89.4414Z" fill="#263238"/>
<path d="M249.036 107.804C248.469 108.875 247.501 109.678 246.345 110.04C244.8 110.502 244.002 109.135 244.401 107.662C244.764 106.337 245.996 104.5 247.555 104.685C247.895 104.731 248.219 104.86 248.496 105.062C248.773 105.264 248.996 105.533 249.143 105.842C249.29 106.152 249.357 106.494 249.339 106.837C249.32 107.179 249.216 107.512 249.036 107.804Z" fill="#FFC3BD"/>
<path d="M231.642 162.557C231.642 162.557 222.984 200.862 228.794 227.869C232.667 245.953 246.594 282.486 246.594 282.486L257.516 282.208C257.516 282.208 246.943 243.867 244.757 228.808C241.019 203.02 250.382 160.962 250.382 160.962L231.642 162.557Z" fill="#407BFF"/>
<path opacity="0.2" d="M241.624 170.296L247.064 178.904C245.42 189.111 244.376 199.405 243.938 209.734C236.284 195.992 239.944 177.566 241.624 170.296Z" fill="black"/>
<path d="M245.056 283.056L258.541 282.707L257.765 278.57L244.002 279.218L245.056 283.056Z" fill="#263238"/>
<path d="M237.238 162.151C237.238 162.151 242.315 202.77 253.33 224.949C262.222 242.863 285.953 268.381 285.953 268.381L292.02 262.13C292.02 262.13 275.993 234.419 269.385 222.521C253.173 193.329 266.423 171.079 257.231 160.364L237.238 162.151Z" fill="#407BFF"/>
<path d="M285.341 269.2L293.173 261.567L290.574 258.029L282.265 266.316L285.341 269.2Z" fill="#263238"/>
<path d="M257.488 158.812L258.84 161.005C258.947 161.168 258.748 161.368 258.456 161.396L231.614 163.717C231.386 163.717 231.186 163.639 231.158 163.497L230.731 161.225C230.695 161.069 230.887 160.919 231.137 160.898L257.053 158.655C257.133 158.64 257.215 158.647 257.292 158.674C257.368 158.702 257.436 158.749 257.488 158.812Z" fill="#407BFF"/>
<path opacity="0.5" d="M257.488 158.812L258.84 161.005C258.947 161.168 258.748 161.368 258.456 161.396L231.614 163.717C231.386 163.717 231.186 163.639 231.158 163.497L230.731 161.225C230.695 161.069 230.887 160.919 231.137 160.898L257.053 158.655C257.133 158.64 257.215 158.647 257.292 158.674C257.368 158.702 257.436 158.749 257.488 158.812Z" fill="white"/>
<path d="M254.255 162.009L254.967 161.952C255.102 161.952 255.202 161.859 255.188 161.774L254.604 158.826C254.604 158.733 254.462 158.676 254.319 158.691L253.607 158.748C253.465 158.748 253.365 158.84 253.387 158.926L253.97 161.873C253.992 161.959 254.12 162.023 254.255 162.009Z" fill="#407BFF"/>
<path d="M233.586 163.796L234.298 163.739C234.433 163.739 234.533 163.646 234.519 163.561L233.935 160.613C233.909 160.562 233.867 160.521 233.816 160.496C233.764 160.472 233.706 160.465 233.65 160.478L232.938 160.535C232.795 160.535 232.696 160.627 232.717 160.713L233.301 163.66C233.322 163.76 233.451 163.81 233.586 163.796Z" fill="#407BFF"/>
<path d="M243.924 162.906L244.636 162.842C244.778 162.842 244.878 162.749 244.857 162.664L244.273 159.716C244.273 159.63 244.131 159.566 243.995 159.581L243.283 159.645C243.148 159.645 243.048 159.737 243.063 159.823L243.646 162.77C243.661 162.856 243.782 162.913 243.924 162.906Z" fill="#407BFF"/>
<path d="M238.257 102.115C238.157 102.613 237.815 102.969 237.488 102.905C237.16 102.841 236.975 102.378 237.068 101.88C237.16 101.382 237.516 101.026 237.844 101.09C238.171 101.154 238.356 101.609 238.257 102.115Z" fill="#263238"/>
<path d="M232.588 100.996C232.687 100.495 232.501 100.036 232.173 99.9713C231.845 99.9068 231.499 100.261 231.4 100.763C231.302 101.264 231.488 101.723 231.816 101.788C232.144 101.852 232.49 101.498 232.588 100.996Z" fill="#263238"/>
<path d="M232.326 100.036L231.186 99.4521C231.186 99.4521 231.621 100.513 232.326 100.036Z" fill="#263238"/>
<path d="M234.54 102.25C233.873 103.306 233.063 104.265 232.133 105.098C232.349 105.336 232.615 105.523 232.912 105.646C233.208 105.77 233.528 105.825 233.849 105.81L234.54 102.25Z" fill="#ED847E"/>
<path d="M236.163 108.16C237.215 108.171 238.232 107.785 239.011 107.078C239.026 107.067 239.039 107.052 239.048 107.035C239.057 107.019 239.062 107.001 239.063 106.982C239.064 106.963 239.061 106.944 239.053 106.927C239.046 106.909 239.035 106.894 239.022 106.881C239.008 106.868 238.991 106.858 238.973 106.853C238.955 106.847 238.936 106.845 238.918 106.848C238.899 106.85 238.881 106.857 238.865 106.867C238.85 106.877 238.836 106.891 238.826 106.907C238.347 107.329 237.775 107.633 237.156 107.792C236.537 107.952 235.89 107.963 235.266 107.825C235.25 107.822 235.234 107.822 235.218 107.826C235.202 107.829 235.187 107.836 235.174 107.845C235.161 107.854 235.149 107.866 235.141 107.88C235.132 107.894 235.126 107.909 235.124 107.925C235.12 107.941 235.119 107.958 235.122 107.974C235.125 107.99 235.131 108.006 235.141 108.019C235.15 108.033 235.162 108.044 235.177 108.053C235.191 108.061 235.207 108.066 235.223 108.067C235.532 108.132 235.848 108.163 236.163 108.16Z" fill="#263238"/>
<path d="M241.653 100.171C241.698 100.171 241.742 100.158 241.781 100.136C241.838 100.102 241.878 100.047 241.894 99.9825C241.91 99.9185 241.9 99.8506 241.866 99.794C241.631 99.3939 241.303 99.0559 240.911 98.8082C240.518 98.5605 240.072 98.4102 239.609 98.37C239.577 98.369 239.544 98.3745 239.513 98.3862C239.483 98.3978 239.455 98.4154 239.431 98.4379C239.407 98.4604 239.388 98.4873 239.375 98.5172C239.361 98.5471 239.354 98.5793 239.353 98.6121C239.352 98.6448 239.358 98.6774 239.369 98.708C239.381 98.7386 239.398 98.7666 239.421 98.7904C239.443 98.8142 239.47 98.8333 239.5 98.8467C239.53 98.8601 239.562 98.8675 239.595 98.8684C239.977 98.9104 240.343 99.0427 240.664 99.2544C240.985 99.4662 241.25 99.7512 241.439 100.086C241.465 100.116 241.498 100.14 241.536 100.155C241.573 100.17 241.613 100.175 241.653 100.171Z" fill="#263238"/>
<path d="M231.03 98.1635C231.07 98.1726 231.111 98.1726 231.151 98.1635C231.482 97.9677 231.854 97.8528 232.237 97.8281C232.621 97.8033 233.005 97.8694 233.358 98.0211C233.416 98.0452 233.481 98.0467 233.539 98.0252C233.598 98.0038 233.647 97.961 233.675 97.9054C233.704 97.8498 233.711 97.7854 233.694 97.725C233.678 97.6646 233.639 97.6127 233.586 97.5796C233.159 97.3864 232.693 97.2991 232.225 97.3252C231.758 97.3512 231.304 97.4898 230.902 97.7291C230.846 97.7619 230.805 97.8152 230.787 97.8777C230.77 97.9402 230.778 98.0069 230.809 98.0638C230.833 98.0989 230.867 98.1267 230.906 98.1442C230.944 98.1618 230.987 98.1684 231.03 98.1635Z" fill="#263238"/>
<path d="M259.552 127.562C260.037 128.032 260.371 128.402 260.749 128.822C261.126 129.242 261.461 129.655 261.802 130.075C262.479 130.923 263.127 131.791 263.732 132.681C264.935 134.476 266.002 136.358 266.922 138.313C267.84 140.277 268.581 142.319 269.136 144.415C269.414 145.462 269.663 146.551 269.848 147.598C270.201 149.11 270.028 150.697 269.357 152.098C268.966 152.833 268.425 153.478 267.769 153.991C267.2 154.429 266.575 154.788 265.911 155.059C264.768 155.5 263.57 155.783 262.351 155.9C260.187 156.107 258.007 156.079 255.85 155.814C251.72 155.334 247.644 154.469 243.675 153.23L244.33 150.645C246.267 150.965 248.26 151.264 250.225 151.471C252.19 151.677 254.17 151.863 256.114 151.905C257.996 151.973 259.882 151.868 261.745 151.592C262.548 151.461 263.329 151.222 264.067 150.88C264.519 150.709 264.891 150.377 265.113 149.947C265.173 149.783 265.202 149.609 265.199 149.435C265.209 149.307 265.209 149.178 265.199 149.05C265.199 148.908 265.149 148.78 265.085 148.516C264.885 147.598 264.622 146.693 264.337 145.796C263.758 144.008 263.044 142.265 262.201 140.584C261.355 138.894 260.384 137.268 259.296 135.722C258.762 134.938 258.2 134.176 257.616 133.443C257.324 133.073 257.018 132.731 256.719 132.368C256.42 132.005 256.078 131.656 255.843 131.4L259.552 127.562Z" fill="#FFC3BD"/>
<path d="M245.96 151.037L240.976 148.395L240.749 154.995C240.749 154.995 244.309 155.223 246.345 153.571L245.96 151.037Z" fill="#FFC3BD"/>
<path d="M237.217 186.544L241.332 141.823L232.539 135.088L205.697 132.617L201.033 183.212L237.217 186.544Z" fill="#407BFF"/>
<path opacity="0.8" d="M237.217 186.544L241.332 141.823L232.539 135.088L205.697 132.617L201.033 183.212L237.217 186.544Z" fill="white"/>
<path d="M241.332 141.823L232.539 135.088L234.846 143.148L241.332 141.823Z" fill="#407BFF"/>
<path d="M204.18 191.03C210.236 191.03 215.145 186.121 215.145 180.065C215.145 174.009 210.236 169.1 204.18 169.1C198.124 169.1 193.215 174.009 193.215 180.065C193.215 186.121 198.124 191.03 204.18 191.03Z" fill="#407BFF"/>
<path d="M209.598 186.918C213.387 183.924 214.031 178.426 211.038 174.637C208.045 170.848 202.546 170.203 198.757 173.197C194.968 176.19 194.323 181.688 197.317 185.477C200.31 189.266 205.809 189.911 209.598 186.918Z" fill="white"/>
<path d="M209.584 179.296L205.725 178.847L206.174 174.988L203.411 174.661L202.963 178.52L199.104 178.064L198.776 180.834L202.635 181.289L202.179 185.141L204.949 185.469L205.398 181.61L209.257 182.065L209.584 179.296Z" fill="#407BFF"/>
<path opacity="0.4" d="M234.768 151.094C234.732 151.485 234.619 151.865 234.436 152.213C234.254 152.561 234.004 152.87 233.702 153.121C233.399 153.372 233.051 153.561 232.675 153.678C232.3 153.794 231.905 153.835 231.514 153.799L211.934 151.998C211.144 151.924 210.416 151.54 209.909 150.93C209.402 150.32 209.157 149.534 209.228 148.744C209.264 148.353 209.377 147.972 209.56 147.624C209.742 147.276 209.992 146.968 210.294 146.717C210.597 146.465 210.945 146.276 211.321 146.16C211.696 146.043 212.091 146.002 212.482 146.038L232.062 147.84C232.454 147.875 232.834 147.988 233.182 148.171C233.53 148.354 233.838 148.604 234.089 148.906C234.341 149.208 234.53 149.557 234.646 149.932C234.763 150.308 234.804 150.702 234.768 151.094Z" fill="#407BFF"/>
<path opacity="0.4" d="M228.096 159.175C228.061 159.566 227.948 159.947 227.765 160.295C227.582 160.642 227.332 160.951 227.03 161.202C226.728 161.453 226.379 161.643 226.004 161.759C225.628 161.875 225.234 161.917 224.842 161.88L211.158 160.62C210.766 160.584 210.386 160.472 210.038 160.289C209.69 160.106 209.382 159.856 209.13 159.554C208.879 159.252 208.69 158.903 208.574 158.528C208.457 158.152 208.416 157.758 208.452 157.366C208.488 156.975 208.601 156.594 208.783 156.247C208.966 155.899 209.216 155.59 209.518 155.339C209.82 155.088 210.169 154.898 210.545 154.782C210.92 154.666 211.315 154.624 211.706 154.661L225.391 155.928C226.179 156.002 226.906 156.385 227.413 156.993C227.92 157.602 228.166 158.386 228.096 159.175Z" fill="#407BFF"/>
<path d="M237.929 148.787L238.677 153.721L240.741 154.995L240.969 148.395L237.929 148.787Z" fill="#FFC3BD"/>
<path d="M258.456 121.752C261.596 122.307 265.996 131.307 265.996 131.307L258.086 138.427C258.086 138.427 251.792 131.563 252.126 127.476C252.418 124.023 254.469 121.04 258.456 121.752Z" fill="#263238"/>
<path d="M289.983 275.188C290.065 275.187 290.147 275.175 290.225 275.152C290.98 274.896 291.471 273.508 291.699 272.703C291.704 272.68 291.703 272.656 291.695 272.633C291.688 272.611 291.674 272.591 291.657 272.575C291.637 272.559 291.614 272.551 291.589 272.551C291.564 272.551 291.54 272.559 291.521 272.575C291.293 272.689 289.286 273.764 289.221 274.554C289.212 274.64 289.227 274.728 289.265 274.806C289.303 274.884 289.362 274.95 289.435 274.996C289.59 275.121 289.784 275.189 289.983 275.188ZM291.407 272.924C291.058 274.035 290.61 274.768 290.183 274.91C290.086 274.94 289.983 274.944 289.884 274.922C289.786 274.899 289.694 274.851 289.62 274.782C289.582 274.76 289.551 274.728 289.531 274.689C289.51 274.649 289.502 274.605 289.506 274.561C289.506 274.077 290.681 273.315 291.372 272.924H291.407Z" fill="#407BFF"/>
<path d="M289.67 273.237C290.354 273.234 291.028 273.076 291.642 272.774C291.66 272.763 291.674 272.747 291.684 272.728C291.694 272.709 291.699 272.689 291.699 272.667C291.7 272.645 291.695 272.623 291.683 272.605C291.672 272.586 291.655 272.57 291.635 272.561C291.571 272.525 289.983 271.649 289.129 271.955C289.021 271.987 288.923 272.043 288.841 272.12C288.76 272.197 288.697 272.292 288.659 272.397C288.606 272.497 288.588 272.612 288.609 272.723C288.629 272.834 288.687 272.935 288.773 273.009C289.038 273.183 289.354 273.263 289.67 273.237ZM291.301 272.667C290.624 272.959 289.307 273.137 288.937 272.824C288.873 272.767 288.809 272.682 288.894 272.489C288.919 272.419 288.961 272.355 289.015 272.303C289.07 272.251 289.135 272.213 289.207 272.19C289.784 271.984 290.852 272.447 291.301 272.696V272.667Z" fill="#407BFF"/>
<path d="M248.296 291.03C248.984 291.013 249.669 290.925 250.339 290.767C250.363 290.758 250.383 290.743 250.397 290.722C250.412 290.702 250.419 290.678 250.419 290.653C250.419 290.628 250.412 290.603 250.397 290.583C250.383 290.563 250.363 290.547 250.339 290.539C250.033 290.389 247.306 289.115 246.623 289.599C246.56 289.64 246.51 289.698 246.478 289.766C246.447 289.834 246.435 289.909 246.445 289.983C246.446 290.123 246.481 290.26 246.545 290.383C246.609 290.507 246.702 290.614 246.815 290.695C247.26 290.962 247.779 291.079 248.296 291.03ZM249.912 290.603C249.107 290.752 247.612 290.952 246.993 290.489C246.913 290.426 246.848 290.348 246.802 290.258C246.755 290.169 246.728 290.07 246.722 289.969C246.716 289.938 246.719 289.905 246.732 289.876C246.745 289.847 246.766 289.822 246.793 289.805C247.171 289.542 248.78 290.104 249.912 290.603Z" fill="#407BFF"/>
<path d="M250.311 290.774C250.339 290.782 250.368 290.782 250.396 290.774C250.414 290.758 250.427 290.738 250.433 290.715C250.439 290.692 250.439 290.668 250.432 290.646C250.432 290.532 249.791 287.847 248.296 288.018C247.925 288.068 247.819 288.246 247.804 288.396C247.712 289.108 249.428 290.453 250.247 290.795L250.311 290.774ZM248.445 288.232C249.392 288.232 249.94 289.798 250.126 290.425C249.236 289.955 247.99 288.837 248.068 288.403C248.068 288.367 248.068 288.268 248.346 288.239L248.445 288.232Z" fill="#407BFF"/>
<path d="M237.979 101.147L236.847 100.563C236.847 100.563 237.281 101.624 237.979 101.147Z" fill="#263238"/>
</svg>
