<svg width="319" height="320" viewBox="0 0 319 320" fill="none" xmlns="http://www.w3.org/2000/svg">
<g clip-path="url(#clip0_4085_10650)">
<path d="M318.833 244.328H0.169922V244.487H318.833V244.328Z" fill="#EBEBEB"/>
<path d="M286.903 254.586H265.794V254.745H286.903V254.586Z" fill="#EBEBEB"/>
<path d="M174.301 252.586H166.088V252.745H174.301V252.586Z" fill="#EBEBEB"/>
<path d="M223.023 253.266H205.726V253.425H223.023V253.266Z" fill="#EBEBEB"/>
<path d="M265.156 248.668H229.395V248.827H265.156V248.668Z" fill="#EBEBEB"/>
<path d="M50.5099 256.039H33.6035V256.198H50.5099V256.039Z" fill="#EBEBEB"/>
<path d="M70.8421 256.039H56.1836V256.198H70.8421V256.039Z" fill="#EBEBEB"/>
<path d="M122.418 252.508H83.6592V252.667H122.418V252.508Z" fill="#EBEBEB"/>
<path d="M151.225 215.902H28.1584C26.1527 215.902 24.5205 214.27 24.5205 212.265V39.2746C24.5205 37.2689 26.1527 35.6367 28.1584 35.6367H151.225C153.23 35.6367 154.863 37.2689 154.863 39.2746V212.265C154.863 214.271 153.23 215.902 151.225 215.902ZM28.1584 35.7961C26.24 35.7961 24.6798 37.3562 24.6798 39.2746V212.265C24.6798 214.184 26.24 215.744 28.1584 215.744H151.225C153.143 215.744 154.703 214.184 154.703 212.265V39.2746C154.703 37.3569 153.143 35.7961 151.225 35.7961H28.1584Z" fill="#EBEBEB"/>
<path d="M289.077 215.902H166.01C164.005 215.902 162.373 214.27 162.373 212.265V39.2746C162.373 37.2689 164.005 35.6367 166.01 35.6367H289.077C291.083 35.6367 292.714 37.2689 292.714 39.2746V212.265C292.715 214.271 291.083 215.902 289.077 215.902ZM166.01 35.7961C164.093 35.7961 162.532 37.3562 162.532 39.2746V212.265C162.532 214.184 164.093 215.744 166.01 215.744H289.077C290.995 215.744 292.555 214.184 292.555 212.265V39.2746C292.555 37.3569 290.995 35.7961 289.077 35.7961H166.01Z" fill="#EBEBEB"/>
<path d="M169 189.506C167.723 185.841 157.658 190.824 153.574 196.897C150.853 200.942 149.191 205.259 148.415 211.058C148.508 204.441 148.614 197.332 148.717 190.622C149.543 188.949 151.43 185.092 152.786 182.036C157.313 171.839 168.077 168.042 171.795 161.604C176.668 153.167 176.64 140.513 172.492 135.947C168.887 131.979 156.95 158.811 155.606 161.809C150.982 172.12 149.637 179.772 148.77 187.185C148.869 180.884 148.963 175.098 149.04 170.634C149.293 156.074 149.609 151.39 149.753 149.949C150.252 149.245 150.84 148.425 151.182 147.985C154.071 144.266 160.48 139.838 163.683 134.433C168.36 126.539 167.605 117.092 164.325 113.573C160.895 109.895 154.83 118.589 151.611 127.203C148.392 135.817 149.767 144.061 148.865 151.215C148.676 152.618 148.482 157.947 148.3 165.339C147.323 157.385 145.378 152.056 141.772 147.091C137.338 140.984 133.51 133.547 129.856 134.508C126.202 135.469 128.169 145.309 131.06 152.218C133.634 158.37 146.334 164.507 148.204 169.453C147.984 179.473 147.787 192.167 147.647 203.986C146.646 197.881 147.334 197.368 143.232 188.022C140.793 182.465 130.794 175.613 129.601 179.431C128.431 183.178 130.221 190.464 133.996 195.518C137.041 199.595 143.798 199.59 145.361 202.12C145.726 202.71 146.932 204.972 147.621 206.273C147.458 220.703 147.384 233.439 147.465 237.782L148.121 237.826C148.089 236.705 148.168 229.364 148.297 219.651C149.938 214.482 160.982 211.465 164.395 206.09C167.966 200.465 170.532 193.901 169 189.506Z" fill="#E6E6E6"/>
<path d="M158.614 244.311H137.415C136.257 244.311 135.259 243.496 135.028 242.361L133.523 234.941H162.505L161 242.361C160.771 243.496 159.773 244.311 158.614 244.311Z" fill="#F0F0F0"/>
<path d="M163.112 237.82H132.918C132.195 237.82 131.587 237.276 131.506 236.558L130.888 231.073C130.793 230.23 131.453 229.492 132.3 229.492H163.729C164.578 229.492 165.237 230.23 165.142 231.073L164.524 236.558C164.444 237.277 163.836 237.82 163.112 237.82Z" fill="#F0F0F0"/>
<path d="M255.587 241.672H275.887V155.054H255.587V241.672Z" fill="#F0F0F0"/>
<path d="M169.351 244.32H274.52V241.665H169.351V244.32Z" fill="#F0F0F0"/>
<path d="M255.586 155.051H167.983V241.669H255.586V155.051Z" fill="#F5F5F5"/>
<path d="M247.606 189.191H175.964V207.532H247.606V189.191Z" fill="#F0F0F0"/>
<path d="M247.606 212.793H175.964V231.134H247.606V212.793Z" fill="#F0F0F0"/>
<path d="M203.742 192.358H219.828C220.916 192.358 221.807 191.467 221.807 190.378C221.807 189.289 220.916 188.398 219.828 188.398H203.742C202.654 188.398 201.763 189.289 201.763 190.378C201.763 191.467 202.654 192.358 203.742 192.358Z" fill="#F5F5F5"/>
<path d="M247.606 165.582H175.964V183.923H247.606V165.582Z" fill="#F0F0F0"/>
<path d="M203.742 168.748H219.828C220.916 168.748 221.807 167.857 221.807 166.769C221.807 165.68 220.916 164.789 219.828 164.789H203.742C202.654 164.789 201.763 165.68 201.763 166.769C201.763 167.857 202.654 168.748 203.742 168.748Z" fill="#F5F5F5"/>
<path d="M203.742 215.959H219.828C220.916 215.959 221.807 215.068 221.807 213.98C221.807 212.891 220.916 212 219.828 212H203.742C202.654 212 201.763 212.891 201.763 213.98C201.763 215.069 202.654 215.959 203.742 215.959Z" fill="#F5F5F5"/>
<path d="M166.181 155.051H255.586V152.58H166.181V155.051Z" fill="#F0F0F0"/>
<path d="M277.818 152.582H255.586V155.053H277.818V152.582Z" fill="#E6E6E6"/>
<path d="M94.123 244.316H114.178L114.178 114.604H94.123L94.123 244.316Z" fill="#E0E0E0"/>
<path d="M43.0049 244.319H110.16L117.214 84.6602H50.0588L43.0049 244.319Z" fill="#E6E6E6"/>
<path d="M33.208 244.319H107.492L114.546 84.6602H40.2626L33.208 244.319Z" fill="#F0F0F0"/>
<path d="M100.221 236.489L106.163 92.4844H47.5342L41.5918 236.489H100.221Z" fill="white"/>
<path d="M75.0276 236.489L94.9561 92.4844H88.7033L68.7754 236.489H75.0276Z" fill="#FAFAFA"/>
<path d="M66.127 236.489L86.0555 92.4844H75.3944L55.4658 236.489H66.127Z" fill="#FAFAFA"/>
<path d="M187.201 128.148H268.48V52.118L187.201 52.118V128.148Z" fill="#E6E6E6"/>
<path d="M184.679 128.148H267.302V52.118L184.679 52.118V128.148Z" fill="#F5F5F5"/>
<path d="M187.201 131.258H268.48V128.146H187.201V131.258Z" fill="#E6E6E6"/>
<path d="M182.416 131.258H259.519V128.146H182.416V131.258Z" fill="#F5F5F5"/>
<path d="M263.771 123.436V56.8281L188.21 56.8281V123.436L263.771 123.436Z" fill="#FAFAFA"/>
<path d="M188.714 123.436V56.8281H188.21V123.436H188.714Z" fill="#E6E6E6"/>
<path d="M251.24 123.436L238.176 56.8281H221.049L234.114 123.436H251.24Z" fill="white"/>
<path d="M231.343 123.436L218.279 56.8281H210.544L223.608 123.436H231.343Z" fill="white"/>
<path d="M261.246 119.823V49.5021C261.246 49.2879 261.07 49.1133 260.857 49.1133H260.826C260.612 49.1133 260.438 49.2885 260.438 49.5021V119.823C260.438 120.037 260.613 120.212 260.826 120.212H260.857C261.071 120.212 261.246 120.037 261.246 119.823Z" fill="#EBEBEB"/>
<path opacity="0.5" d="M182.826 60.75L269.852 60.75V49.1131L182.826 49.1131V60.75Z" fill="#E6E6E6"/>
<path d="M182.826 50.5586L269.852 50.5586V49.1125L182.826 49.1125V50.5586Z" fill="#E0E0E0"/>
<path d="M182.97 49.7487H269.708C270.014 49.7487 270.263 49.4989 270.263 49.1943V49.0349C270.263 48.7297 270.013 48.4805 269.708 48.4805H182.97C182.664 48.4805 182.415 48.7303 182.415 49.0349V49.1943C182.415 49.4996 182.665 49.7487 182.97 49.7487Z" fill="#EBEBEB"/>
<path d="M182.718 61.052H269.96C270.127 61.052 270.263 60.9157 270.263 60.7487C270.263 60.5817 270.127 60.4453 269.96 60.4453H182.718C182.551 60.4453 182.415 60.5817 182.415 60.7487C182.415 60.9157 182.551 61.052 182.718 61.052Z" fill="white"/>
<path d="M159.5 273.113C227.746 273.113 283.071 269.882 283.071 265.896C283.071 261.911 227.746 258.68 159.5 258.68C91.2541 258.68 35.9297 261.911 35.9297 265.896C35.9297 269.882 91.2541 273.113 159.5 273.113Z" fill="#F5F5F5"/>
<path d="M41.4996 174.015L40.8564 174.09L42.0044 183.902L42.6475 183.827L41.4996 174.015Z" fill="#407BFF"/>
<path d="M43.0728 187.472L42.4297 187.547L43.0086 192.495L43.6517 192.42L43.0728 187.472Z" fill="#407BFF"/>
<path d="M85.9449 154.01L85.1801 151.866C84.096 148.826 81.0566 146.938 77.8515 147.313L47.393 150.875C43.5933 151.32 40.8738 154.76 41.318 158.56L49.9882 232.683C50.2929 235.288 52.6522 237.153 55.2576 236.849L164.233 224.103C166.839 223.798 168.704 221.439 168.4 218.834L160.905 154.757C160.601 152.151 158.241 150.286 155.636 150.591L92.3551 157.992C89.5515 158.319 86.8932 156.668 85.9449 154.01Z" fill="#407BFF"/>
<path d="M88.9932 121.773L54.5605 128.637L64.0171 176.074L98.4498 169.21L88.9932 121.773Z" fill="#407BFF"/>
<path opacity="0.7" d="M88.9932 121.773L54.5605 128.637L64.0171 176.074L98.4498 169.21L88.9932 121.773Z" fill="white"/>
<g opacity="0.4">
<path d="M84.389 133.204L63.1781 137.431C62.1495 137.636 61.1495 136.968 60.9443 135.94C60.7391 134.911 61.407 133.911 62.4356 133.706L83.6465 129.478C84.6751 129.273 85.6751 129.941 85.8803 130.97C86.0855 131.998 85.4176 132.998 84.389 133.204Z" fill="#407BFF"/>
<path d="M85.9524 141.047L64.7416 145.275C63.7129 145.48 62.713 144.812 62.5078 143.783C62.3025 142.755 62.9705 141.755 63.9991 141.55L85.2099 137.322C86.2386 137.117 87.2385 137.785 87.4438 138.814C87.6483 139.843 86.9811 140.843 85.9524 141.047Z" fill="#407BFF"/>
<path d="M87.5149 148.895L66.3041 153.122C65.2754 153.328 64.2755 152.66 64.0703 151.631C63.865 150.602 64.533 149.602 65.5616 149.397L86.7724 145.17C87.8011 144.965 88.8011 145.633 89.0063 146.661C89.2109 147.69 88.5436 148.69 87.5149 148.895Z" fill="#407BFF"/>
<path d="M89.0794 156.735L67.8685 160.962C66.8399 161.167 65.8399 160.5 65.6347 159.471C65.4295 158.442 66.0974 157.442 67.126 157.237L88.3369 153.01C89.3655 152.804 90.3655 153.472 90.5707 154.501C90.7753 155.53 90.108 156.53 89.0794 156.735Z" fill="#407BFF"/>
<path d="M84.8457 165.735L69.432 168.807C68.4034 169.012 67.4034 168.344 67.1982 167.315C66.993 166.287 67.6609 165.287 68.6895 165.082L84.1033 162.01C85.1319 161.804 86.1319 162.472 86.3371 163.501C86.5417 164.53 85.8744 165.53 84.8457 165.735Z" fill="#407BFF"/>
</g>
<path d="M138.058 112.634L103.271 117.395L109.83 165.321L144.617 160.56L138.058 112.634Z" fill="#407BFF"/>
<path opacity="0.7" d="M138.058 112.634L103.271 117.395L109.83 165.321L144.617 160.56L138.058 112.634Z" fill="white"/>
<g opacity="0.4">
<path d="M132.769 123.749L111.341 126.682C110.302 126.824 109.344 126.097 109.202 125.058C109.06 124.019 109.787 123.062 110.826 122.919L132.254 119.986C133.293 119.844 134.251 120.572 134.393 121.61C134.536 122.65 133.809 123.607 132.769 123.749Z" fill="#407BFF"/>
<path d="M133.853 131.674L112.425 134.607C111.386 134.75 110.428 134.022 110.286 132.983C110.144 131.944 110.871 130.987 111.91 130.845L133.338 127.912C134.377 127.77 135.335 128.497 135.477 129.536C135.619 130.574 134.892 131.532 133.853 131.674Z" fill="#407BFF"/>
<path d="M119.415 141.722L113.511 142.53C112.472 142.672 111.514 141.945 111.372 140.906C111.23 139.867 111.957 138.909 112.996 138.767L118.9 137.959C119.939 137.817 120.897 138.544 121.039 139.583C121.181 140.623 120.455 141.58 119.415 141.722Z" fill="#407BFF"/>
<path d="M130.865 140.159L124.96 140.968C123.921 141.11 122.964 140.382 122.821 139.344C122.679 138.305 123.407 137.347 124.445 137.205L130.35 136.397C131.388 136.255 132.346 136.982 132.488 138.021C132.631 139.059 131.903 140.017 130.865 140.159Z" fill="#407BFF"/>
<path d="M136.023 147.523L114.595 150.456C113.556 150.598 112.598 149.871 112.456 148.832C112.314 147.792 113.041 146.835 114.08 146.693L135.508 143.76C136.548 143.618 137.505 144.345 137.647 145.384C137.79 146.423 137.063 147.38 136.023 147.523Z" fill="#407BFF"/>
<path d="M131.251 156.249L115.679 158.38C114.64 158.523 113.682 157.795 113.54 156.757C113.398 155.718 114.125 154.76 115.164 154.618L130.736 152.486C131.775 152.344 132.733 153.072 132.875 154.11C133.018 155.149 132.29 156.107 131.251 156.249Z" fill="#407BFF"/>
</g>
<path d="M105.222 119.632L70.2451 122.68L74.4437 170.867L109.421 167.819L105.222 119.632Z" fill="#407BFF"/>
<path opacity="0.8" d="M105.222 119.632L70.2451 122.68L74.4437 170.867L109.421 167.819L105.222 119.632Z" fill="white"/>
<g opacity="0.4">
<path d="M99.4049 130.479L77.8589 132.356C76.8143 132.447 75.8934 131.674 75.8022 130.629C75.7111 129.584 76.4842 128.663 77.5294 128.572L99.0754 126.695C100.12 126.604 101.041 127.377 101.132 128.422C101.223 129.467 100.45 130.387 99.4049 130.479Z" fill="#407BFF"/>
<path d="M100.1 138.444L78.5542 140.322C77.5096 140.413 76.5887 139.64 76.4975 138.594C76.4064 137.55 77.1795 136.629 78.2247 136.538L99.7708 134.66C100.815 134.569 101.736 135.342 101.827 136.387C101.919 137.432 101.145 138.353 100.1 138.444Z" fill="#407BFF"/>
<path d="M100.794 146.416L79.2475 148.294C78.203 148.385 77.282 147.612 77.1909 146.567C77.0998 145.521 77.8728 144.601 78.918 144.51L100.464 142.632C101.509 142.541 102.43 143.314 102.521 144.359C102.612 145.404 101.838 146.325 100.794 146.416Z" fill="#407BFF"/>
<path d="M101.489 154.381L79.9429 156.259C78.8976 156.35 77.9773 155.577 77.8862 154.531C77.7951 153.487 78.5681 152.566 79.6134 152.475L101.159 150.597C102.204 150.506 103.125 151.279 103.216 152.324C103.307 153.369 102.534 154.29 101.489 154.381Z" fill="#407BFF"/>
<path d="M96.2944 162.861L80.6372 164.226C79.5926 164.317 78.6717 163.544 78.5805 162.499C78.4894 161.454 79.2625 160.533 80.3077 160.442L95.9649 159.078C97.0095 158.986 97.9304 159.76 98.0215 160.805C98.112 161.849 97.339 162.77 96.2944 162.861Z" fill="#407BFF"/>
</g>
<path d="M147.848 117.273L112.78 118.965L115.112 167.278L150.18 165.586L147.848 117.273Z" fill="#407BFF"/>
<path opacity="0.8" d="M147.848 117.273L112.78 118.965L115.112 167.278L150.18 165.586L147.848 117.273Z" fill="white"/>
<g opacity="0.4">
<path d="M141.619 127.89L120.016 128.933C118.968 128.983 118.078 128.175 118.028 127.127C117.977 126.079 118.785 125.189 119.833 125.139L141.435 124.096C142.483 124.046 143.373 124.854 143.424 125.902C143.475 126.949 142.666 127.839 141.619 127.89Z" fill="#407BFF"/>
<path d="M142.005 135.878L120.402 136.921C119.354 136.971 118.464 136.163 118.413 135.115C118.363 134.068 119.171 133.177 120.219 133.127L141.822 132.084C142.869 132.034 143.76 132.842 143.81 133.89C143.861 134.937 143.052 135.827 142.005 135.878Z" fill="#407BFF"/>
<path d="M126.739 144.624L120.787 144.912C119.739 144.962 118.848 144.154 118.798 143.106C118.748 142.058 119.556 141.169 120.603 141.118L126.556 140.83C127.603 140.78 128.494 141.588 128.544 142.636C128.595 143.684 127.787 144.574 126.739 144.624Z" fill="#407BFF"/>
<path d="M138.282 144.066L132.33 144.353C131.282 144.404 130.391 143.595 130.341 142.548C130.291 141.5 131.099 140.61 132.147 140.559L138.099 140.272C139.147 140.221 140.037 141.03 140.088 142.077C140.138 143.125 139.33 144.015 138.282 144.066Z" fill="#407BFF"/>
<path d="M142.775 151.855L121.172 152.897C120.125 152.948 119.235 152.14 119.184 151.092C119.134 150.044 119.942 149.154 120.989 149.103L142.592 148.061C143.64 148.01 144.53 148.819 144.581 149.866C144.631 150.914 143.823 151.804 142.775 151.855Z" fill="#407BFF"/>
<path d="M137.257 160.128L121.558 160.886C120.51 160.936 119.62 160.128 119.57 159.081C119.519 158.033 120.327 157.142 121.375 157.092L137.074 156.334C138.122 156.284 139.012 157.092 139.062 158.14C139.112 159.188 138.304 160.078 137.257 160.128Z" fill="#407BFF"/>
</g>
<path d="M95.6704 155.387L95.1121 153.289C94.3206 150.315 91.4883 148.474 88.2832 148.849L57.8247 152.411C54.025 152.855 51.0168 156.231 51.1054 159.95L52.8338 232.506C52.8944 235.057 55.0562 236.877 57.6616 236.572L166.637 223.827C169.243 223.522 171.306 221.207 171.245 218.657L169.751 155.935C169.691 153.384 167.529 151.564 164.924 151.869L101.643 159.27C98.8398 159.597 96.3626 157.987 95.6704 155.387Z" fill="#407BFF"/>
<path opacity="0.3" d="M95.6704 155.387L95.1121 153.289C94.3206 150.315 91.4883 148.474 88.2832 148.849L57.8247 152.411C54.025 152.855 51.0168 156.231 51.1054 159.95L52.8338 232.506C52.8944 235.057 55.0562 236.877 57.6616 236.572L166.637 223.827C169.243 223.522 171.306 221.207 171.245 218.657L169.751 155.935C169.691 153.384 167.529 151.564 164.924 151.869L101.643 159.27C98.8398 159.597 96.3626 157.987 95.6704 155.387Z" fill="black"/>
<path d="M202.219 120.507C201.749 122.875 201.244 125.204 200.679 127.532C200.124 129.86 199.557 132.184 198.938 134.496L197.997 137.96L197.873 138.403C197.817 138.593 197.754 138.786 197.679 138.983C197.529 139.378 197.339 139.792 197.055 140.214C196.777 140.633 196.384 141.074 195.866 141.423C195.35 141.775 194.707 142 194.125 142.052C192.938 142.144 192.086 141.787 191.392 141.448C190.701 141.082 190.137 140.663 189.621 140.223C188.596 139.326 187.788 138.383 187.027 137.299L188.8 135.705C189.664 136.362 190.625 137.032 191.538 137.523C191.993 137.772 192.45 137.979 192.85 138.092C193.242 138.219 193.583 138.202 193.587 138.137C193.596 138.113 193.524 138.113 193.491 138.116C193.454 138.116 193.462 138.1 193.492 138.01C193.52 137.924 193.566 137.788 193.607 137.618L193.754 136.916L194.497 133.435L195.995 126.475C196.48 124.156 197 121.831 197.506 119.535L202.219 120.507Z" fill="#FFC3BD"/>
<path d="M200.089 113.22C194.652 117.382 194.87 125.225 194.87 125.225L204.595 127.55C204.595 127.55 207.579 119.664 206.368 116.776C205.105 113.764 203.149 110.877 200.089 113.22Z" fill="#263238"/>
<path d="M189.299 135.825L185.723 132.25L183.795 137.843C183.795 137.843 186.813 139.473 189.702 137.937L189.299 135.825Z" fill="#FFC3BD"/>
<path d="M180.777 131.699L180.12 136.119L183.796 137.844L185.725 132.251L180.777 131.699Z" fill="#FFC3BD"/>
<path d="M231.597 261.193L226.128 261.727L220.438 248.711L225.906 248.176L231.597 261.193Z" fill="#FFC3BD"/>
<path d="M266.825 241.949L262.718 245.806L253.851 236.06L257.958 232.203L266.825 241.949Z" fill="#FFC3BD"/>
<path d="M260.822 243.963L263.909 238.402C264.021 238.199 264.253 238.113 264.466 238.195L269.218 240.003C269.71 240.191 269.924 240.823 269.657 241.286C268.548 243.206 267.916 244.077 266.558 246.523C265.723 248.027 264.097 251.478 262.944 253.555C261.816 255.588 259.675 254.604 259.969 253.635C261.287 249.293 261.04 246.876 260.667 244.959C260.6 244.614 260.658 244.259 260.822 243.963Z" fill="#263238"/>
<path d="M225.401 260.043H232.117C232.361 260.043 232.582 260.212 232.647 260.451L234.108 265.766C234.26 266.317 233.854 266.823 233.289 266.829C230.922 266.85 229.8 266.839 226.846 266.839C225.029 266.839 220.328 266.839 217.819 266.839C215.364 266.839 214.851 264.358 215.867 264.133C220.42 263.126 223.045 261.736 224.449 260.411C224.704 260.172 225.044 260.043 225.401 260.043Z" fill="#263238"/>
<path opacity="0.2" d="M220.439 248.718L223.372 255.428H229.076L225.911 248.184L220.439 248.718Z" fill="black"/>
<path opacity="0.2" d="M257.961 232.203L253.852 236.061L258.424 241.083L262.534 237.225L257.961 232.203Z" fill="black"/>
<path d="M201.731 112.42C201.731 112.42 199.273 113.502 207.518 146.132C216.608 145.346 226.003 144.534 230.426 144.151C229.235 134.86 228.727 129.112 231.528 109.593C231.528 109.593 226.638 108.964 221.69 109.152C217.819 109.3 214.65 109.45 211.287 110.052C206.855 110.847 201.731 112.42 201.731 112.42Z" fill="#263238"/>
<path d="M221.689 108.988C221.689 108.988 222.989 109.011 224.524 109.011C225.446 110.435 222.448 116.658 217.489 120.734C216.294 117.019 213.507 114.962 213.507 114.962L221.689 108.988Z" fill="white"/>
<path d="M211.29 109.965C211.29 109.965 210.711 110.047 209.324 110.363C208.403 111.787 206.84 117.857 209.559 120.956C210.621 117.132 213.506 114.961 213.506 114.961L211.29 109.965Z" fill="white"/>
<path d="M219.647 97.5273C219.28 100.931 219.155 107.12 221.69 109.151C221.69 109.151 218.983 111.914 213.508 114.965C209.525 112.213 211.289 110.051 211.289 110.051C214.944 108.837 214.608 106.076 213.733 103.532L219.647 97.5273Z" fill="#FFC3BD"/>
<path d="M213.415 114.982C213.415 114.982 216.774 111.325 218.508 112.027C220.241 112.729 218.903 113.983 218.748 115.16C218.594 116.336 219.422 119.476 217.097 118.66C214.771 117.844 213.415 114.982 213.415 114.982Z" fill="#407BFF"/>
<path d="M213.278 114.907C213.278 114.907 211.693 112.102 209.979 112.476C208.264 112.85 209.285 113.836 209.436 114.891C209.631 116.247 208.202 118.842 210.27 118.109C212.282 117.396 213.278 114.907 213.278 114.907Z" fill="#407BFF"/>
<g opacity="0.2">
<path d="M212.406 114.299C212.423 115.083 212.537 115.623 212.727 115.947C213.089 115.369 213.276 114.909 213.276 114.909C213.276 114.909 212.968 114.359 212.467 113.781C212.417 113.909 212.402 114.078 212.406 114.299Z" fill="black"/>
<path d="M214.636 113.797C213.918 114.43 213.415 114.977 213.415 114.977C213.415 114.977 213.643 115.455 214.071 116.082C214.355 115.841 214.588 115.4 214.692 114.633C214.751 114.237 214.72 113.976 214.636 113.797Z" fill="black"/>
</g>
<path d="M213.371 116.132C212.897 116.134 212.603 115.613 212.568 114.381C212.533 113.15 213.481 113.834 213.481 113.834C213.481 113.834 214.74 113.176 214.527 114.673C214.362 115.838 213.861 116.13 213.371 116.132Z" fill="#407BFF"/>
<path opacity="0.2" d="M217.234 99.9766L213.733 103.528C213.942 104.13 214.118 104.743 214.214 105.347C215.622 105.017 217.66 103.554 217.682 102.048C217.693 101.297 217.385 100.312 217.234 99.9766Z" fill="black"/>
<path d="M214.236 86.0338C214.236 86.0338 210.424 91.3306 209.794 93.7078C207.193 95.2202 206.668 87.759 208.047 83.1562C212.319 85.819 214.236 86.0338 214.236 86.0338Z" fill="#263238"/>
<path d="M222.64 92.2066C221.22 97.643 220.735 99.9743 217.4 102.253C212.384 105.68 206.017 102.747 205.784 96.9955C205.575 91.8191 207.931 83.7977 213.748 82.6671C219.479 81.5531 224.059 86.7702 222.64 92.2066Z" fill="#FFC3BD"/>
<path d="M225.596 90.0399C225.596 90.0399 222.864 94.4648 222.496 96.3896C220.514 97.7381 219.677 91.8371 220.514 88.1011C221.426 84.8049 225.596 90.0399 225.596 90.0399Z" fill="#263238"/>
<path d="M224.506 86.9572C223.719 87.5557 222.88 85.3435 223.669 83.6502C222.157 83.7438 220.34 82.8471 220.728 81.3902C217.754 82.387 216.65 79.3597 216.993 77.2648C217.407 74.7327 219.628 74.1737 220.932 74.8423C220.958 73.704 223.812 71.3224 224.907 73.1846C226.941 72.467 230.216 72.6881 230.151 75.1858C231.495 75.2279 235.461 76.7485 234 80.3163C235.749 80.4202 236.698 82.6464 235.725 84.3263C237.968 85.6418 237.136 87.926 236.282 88.7258C237.09 90.4083 234.633 92.9099 233.331 92.609C232.336 94.1361 230.811 95.282 229.815 93.9799C227.878 95.391 225.71 93.602 226.2 92.2235C224.007 91.8621 221.792 88.2434 224.506 86.9572Z" fill="#263238"/>
<path d="M227.746 81.6052C229.174 83.9875 229.055 86.6834 227.481 87.6266C225.908 88.5699 223.474 87.4029 222.047 85.02C220.619 82.6376 220.738 79.9418 222.311 78.9985C223.885 78.0559 226.319 79.2229 227.746 81.6052Z" fill="#407BFF"/>
<path d="M214.49 85.3631C214.403 86.047 212.523 85.8698 211.981 84.6665C211.206 85.4804 209.378 85.9036 208.752 85.0171C207.696 87.0023 205.576 86.4829 205.021 85.5288C204.465 84.5748 204.109 82.8157 205.208 82.4684C204.567 81.9165 204.761 79.3366 206.432 79.6603C207.134 78.2856 209.055 76.7229 210.456 77.9383C211.216 77.2742 214.265 75.9753 215.516 78.408C216.535 77.5667 218.335 78.1371 218.768 79.4283C220.754 78.9089 221.612 80.4137 221.605 81.2269C223.015 81.6125 223.108 84.0464 222.222 84.5671C222.556 85.7965 222.379 87.1145 221.084 87.0062C220.835 88.6594 218.618 88.9162 218.093 88.0144C216.683 88.9589 213.743 87.3535 214.49 85.3631Z" fill="#263238"/>
<path d="M211.138 80.6803C212.751 78.4465 218.63 77.5205 223.722 80.8664C228.312 83.8816 228.014 90.8801 224.366 90.5079C220.718 90.1357 217.107 85.8548 217.107 85.8548L211.138 80.6803Z" fill="#263238"/>
<path d="M223.089 97.1163C222.554 98.1513 221.591 98.8428 220.675 99.1181C219.296 99.533 218.578 98.3068 218.938 96.9907C219.261 95.8059 220.368 94.1623 221.764 94.3235C223.138 94.4828 223.701 95.9334 223.089 97.1163Z" fill="#FFC3BD"/>
<path d="M207.518 146.131C207.518 146.131 199.767 180.417 204.941 204.589C208.406 220.778 220.904 253.482 220.904 253.482L230.675 253.231C230.675 253.231 221.214 218.91 219.258 205.414C215.912 182.326 224.292 144.68 224.292 144.68L207.518 146.131Z" fill="#407BFF"/>
<path opacity="0.2" d="M216.455 153.055L221.341 160.76C220.098 168.75 218.861 178.744 218.545 188.36C211.674 176.06 214.927 159.567 216.455 153.055Z" fill="black"/>
<path d="M219.526 253.985L231.597 253.677L230.898 249.969L218.583 250.553L219.526 253.985Z" fill="#263238"/>
<path d="M212.526 145.761C212.526 145.761 217.073 182.122 226.929 201.973C234.89 218.007 256.133 240.831 256.133 240.831L261.565 235.236C261.565 235.236 247.216 210.43 241.3 199.779C226.792 173.663 238.648 153.733 230.426 144.145L212.526 145.761Z" fill="#407BFF"/>
<path d="M255.583 241.582L262.593 234.75L260.267 231.586L252.834 239.005L255.583 241.582Z" fill="#263238"/>
<path d="M230.652 142.775L231.862 144.736C231.956 144.888 231.782 145.067 231.517 145.09L207.493 147.167C207.286 147.185 207.107 147.099 207.082 146.97L206.698 144.938C206.671 144.797 206.84 144.661 207.066 144.642L230.263 142.635C230.435 142.62 230.591 142.677 230.652 142.775Z" fill="#407BFF"/>
<path opacity="0.5" d="M230.652 142.775L231.862 144.736C231.956 144.888 231.782 145.067 231.517 145.09L207.493 147.167C207.286 147.185 207.107 147.099 207.082 146.97L206.698 144.938C206.671 144.797 206.84 144.661 207.066 144.642L230.263 142.635C230.435 142.62 230.591 142.677 230.652 142.775Z" fill="white"/>
<path d="M227.76 145.635L228.382 145.582C228.505 145.571 228.594 145.499 228.578 145.422L228.056 142.783C228.041 142.705 227.928 142.651 227.803 142.662L227.182 142.715C227.058 142.726 226.97 142.798 226.985 142.875L227.507 145.514C227.523 145.592 227.636 145.646 227.76 145.635Z" fill="#407BFF"/>
<path d="M209.259 147.237L209.881 147.183C210.005 147.172 210.093 147.1 210.078 147.023L209.556 144.384C209.541 144.307 209.427 144.252 209.303 144.263L208.682 144.317C208.558 144.327 208.47 144.399 208.485 144.477L209.007 147.116C209.022 147.194 209.135 147.248 209.259 147.237Z" fill="#407BFF"/>
<path d="M218.509 146.436L219.131 146.383C219.255 146.372 219.343 146.3 219.328 146.223L218.806 143.583C218.791 143.506 218.677 143.451 218.553 143.462L217.932 143.516C217.808 143.527 217.72 143.599 217.735 143.676L218.257 146.315C218.272 146.392 218.386 146.447 218.509 146.436Z" fill="#407BFF"/>
<path d="M213.437 92.0236C213.349 92.4717 213.04 92.7884 212.747 92.7304C212.454 92.673 212.288 92.2626 212.376 91.8152C212.464 91.3672 212.773 91.0504 213.066 91.1084C213.359 91.1658 213.525 91.5756 213.437 92.0236Z" fill="#263238"/>
<path d="M208.372 91.0282C208.284 91.4762 207.975 91.7929 207.683 91.7349C207.389 91.6776 207.224 91.2671 207.312 90.8191C207.4 90.3711 207.709 90.0543 208.001 90.1123C208.294 90.1703 208.46 90.5801 208.372 91.0282Z" fill="#263238"/>
<path d="M208.125 90.1587L207.109 89.6367C207.109 89.6367 207.496 90.5863 208.125 90.1587Z" fill="#263238"/>
<path d="M210.112 92.1445C210.112 92.1445 208.973 93.9239 207.953 94.69C208.436 95.3586 209.492 95.3038 209.492 95.3038L210.112 92.1445Z" fill="#ED847E"/>
<path d="M211.564 97.4415C213.151 97.4415 214.073 96.5155 214.117 96.4702C214.16 96.4263 214.159 96.3555 214.115 96.3128C214.072 96.2701 214.001 96.2707 213.958 96.3147C213.946 96.3268 212.742 97.5288 210.771 97.1401C210.707 97.1267 210.651 97.1681 210.64 97.2274C210.628 97.2879 210.667 97.3465 210.728 97.358C211.023 97.416 211.303 97.4415 211.564 97.4415Z" fill="#263238"/>
<path d="M216.479 90.2843C216.519 90.2843 216.558 90.2741 216.594 90.2518C216.7 90.1881 216.733 90.051 216.67 89.9459C215.915 88.6967 214.702 88.6419 214.651 88.6406C214.521 88.6457 214.426 88.7324 214.421 88.8548C214.416 88.9778 214.512 89.081 214.635 89.0861C214.677 89.088 215.662 89.1409 216.288 90.1772C216.33 90.2454 216.403 90.2843 216.479 90.2843Z" fill="#263238"/>
<path d="M206.965 88.4913C207.001 88.4913 207.038 88.4824 207.073 88.4626C208.139 87.8674 209.04 88.3282 209.049 88.3326C209.159 88.39 209.293 88.3479 209.35 88.2389C209.407 88.13 209.365 87.9955 209.256 87.9381C209.211 87.9139 208.129 87.3613 206.856 88.0732C206.748 88.1331 206.71 88.2689 206.77 88.3766C206.811 88.4499 206.887 88.4913 206.965 88.4913Z" fill="#263238"/>
<path d="M232.5 114.801C232.932 115.223 233.231 115.55 233.571 115.927C233.896 116.297 234.209 116.67 234.513 117.049C235.121 117.806 235.696 118.583 236.242 119.381C237.313 120.987 238.272 122.667 239.093 124.421C239.924 126.169 240.567 128.008 241.079 129.882C241.324 130.823 241.547 131.77 241.707 132.731C241.927 133.74 242.013 135.373 241.272 136.759C240.914 137.452 240.39 138.029 239.847 138.456C239.3 138.886 238.732 139.184 238.182 139.412C237.078 139.857 236.03 140.047 235.016 140.165C232.991 140.377 231.077 140.301 229.199 140.089C225.444 139.664 221.861 138.871 218.3 137.773L218.883 135.462C220.616 135.747 222.402 136.017 224.165 136.198C225.929 136.402 227.695 136.548 229.436 136.586C231.171 136.611 232.902 136.589 234.473 136.311C235.25 136.174 235.989 135.968 236.551 135.69C237.123 135.409 237.421 135.087 237.49 134.858C237.536 134.736 237.567 134.601 237.569 134.396C237.57 134.295 237.557 134.177 237.545 134.054C237.517 133.922 237.503 133.806 237.444 133.573C237.266 132.753 237.03 131.944 236.779 131.142C236.266 129.539 235.592 127.99 234.841 126.476C234.09 124.962 233.211 123.506 232.239 122.119C231.761 121.42 231.259 120.737 230.733 120.082C230.471 119.753 230.202 119.431 229.929 119.119C229.672 118.816 229.361 118.472 229.15 118.254L232.5 114.801Z" fill="#FFC3BD"/>
<path d="M220.332 135.816L215.864 133.449L215.664 139.362C215.664 139.362 218.819 139.562 220.672 138.11L220.332 135.816Z" fill="#FFC3BD"/>
<path d="M212.507 167.593L216.194 127.562L208.323 121.534L184.293 119.32L180.121 164.609L212.507 167.593Z" fill="#407BFF"/>
<path opacity="0.8" d="M212.507 167.593L216.194 127.562L208.323 121.534L184.293 119.32L180.121 164.609L212.507 167.593Z" fill="white"/>
<path d="M216.194 127.562L208.322 121.535L210.386 128.749L216.194 127.562Z" fill="#407BFF"/>
<path d="M182.936 171.611C188.355 171.611 192.749 167.218 192.749 161.798C192.749 156.378 188.355 151.984 182.936 151.984C177.516 151.984 173.122 156.378 173.122 161.798C173.122 167.218 177.516 171.611 182.936 171.611Z" fill="#407BFF"/>
<path d="M187.792 167.935C191.184 165.256 191.761 160.334 189.082 156.942C186.402 153.55 181.48 152.973 178.089 155.652C174.697 158.332 174.119 163.253 176.799 166.645C179.478 170.037 184.4 170.614 187.792 167.935Z" fill="white"/>
<path d="M187.773 161.109L184.32 160.705L184.725 157.251L182.249 156.961L181.844 160.414L178.391 160.009L178.101 162.484L181.554 162.889L181.148 166.342L183.624 166.633L184.029 163.18L187.482 163.585L187.773 161.109Z" fill="#407BFF"/>
<path opacity="0.4" d="M210.317 135.857C210.181 137.331 208.877 138.415 207.403 138.279L189.876 136.667C188.403 136.531 187.319 135.227 187.454 133.754C187.59 132.281 188.893 131.197 190.367 131.332L207.894 132.944C209.368 133.08 210.452 134.384 210.317 135.857Z" fill="#407BFF"/>
<path opacity="0.4" d="M204.347 143.094C204.211 144.568 202.907 145.652 201.434 145.516L189.185 144.39C187.712 144.254 186.628 142.95 186.763 141.476C186.899 140.003 188.203 138.919 189.676 139.054L201.925 140.181C203.398 140.317 204.482 141.621 204.347 143.094Z" fill="#407BFF"/>
<path d="M213.142 133.802L213.812 138.22L215.665 139.362L215.865 133.449L213.142 133.802Z" fill="#FFC3BD"/>
<path d="M231.529 109.593C234.337 110.09 238.273 118.145 238.273 118.145L231.193 124.548C231.193 124.548 225.562 118.406 225.863 114.747C226.118 111.64 227.952 108.961 231.529 109.593Z" fill="#263238"/>
<path d="M259.739 246.947C259.812 246.947 259.885 246.934 259.958 246.91C260.629 246.684 261.07 245.44 261.273 244.719C261.285 244.677 261.271 244.631 261.236 244.603C261.202 244.575 261.154 244.57 261.114 244.591C260.91 244.698 259.115 245.658 259.057 246.366C259.048 246.474 259.074 246.63 259.248 246.762C259.411 246.885 259.575 246.947 259.739 246.947ZM260.982 244.918C260.67 245.912 260.268 246.57 259.886 246.699C259.721 246.754 259.557 246.716 259.382 246.584C259.28 246.508 259.275 246.434 259.278 246.384C259.315 245.95 260.366 245.266 260.982 244.918Z" fill="#407BFF"/>
<path d="M259.461 245.198C260.097 245.198 260.879 244.995 261.222 244.785C261.256 244.764 261.276 244.727 261.276 244.687C261.275 244.648 261.253 244.612 261.218 244.592C261.158 244.559 259.737 243.778 258.972 244.049C258.773 244.119 258.632 244.253 258.554 244.446C258.432 244.746 258.565 244.919 258.656 244.996C258.825 245.14 259.123 245.198 259.461 245.198ZM260.919 244.689C260.311 244.948 259.132 245.107 258.799 244.826C258.744 244.779 258.689 244.703 258.76 244.529C258.813 244.397 258.907 244.308 259.046 244.26C259.568 244.074 260.515 244.49 260.919 244.689Z" fill="#407BFF"/>
<path d="M222.42 261.128C223.065 261.128 223.767 261.003 224.254 260.896C224.3 260.885 224.335 260.846 224.341 260.799C224.346 260.752 224.32 260.706 224.277 260.686C224.001 260.556 221.564 259.43 220.951 259.845C220.872 259.898 220.781 260.001 220.792 260.19C220.807 260.452 220.919 260.664 221.124 260.818C221.428 261.049 221.906 261.128 222.42 261.128ZM223.87 260.746C223.147 260.881 221.808 261.057 221.258 260.641C221.105 260.525 221.025 260.374 221.014 260.177C221.009 260.087 221.044 260.05 221.075 260.029C221.418 259.797 222.859 260.301 223.87 260.746Z" fill="#407BFF"/>
<path d="M224.231 260.894C224.256 260.894 224.282 260.885 224.303 260.867C224.335 260.841 224.349 260.798 224.339 260.757C224.316 260.655 223.763 258.252 222.44 258.405C222.109 258.445 222.018 258.609 222.001 258.74C221.918 259.352 223.455 260.585 224.189 260.885C224.202 260.891 224.216 260.894 224.231 260.894ZM222.56 258.622C223.405 258.622 223.897 260.02 224.06 260.58C223.267 260.165 222.169 259.162 222.222 258.771C222.226 258.742 222.238 258.655 222.467 258.627C222.498 258.623 222.53 258.622 222.56 258.622Z" fill="#407BFF"/>
<path d="M213.191 91.1587L212.176 90.6367C212.176 90.6367 212.563 91.5863 213.191 91.1587Z" fill="#263238"/>
</g>
<defs>
<clipPath id="clip0_4085_10650">
<rect width="318.663" height="318.663" fill="white" transform="translate(0.167969 0.613281)"/>
</clipPath>
</defs>
</svg>
