<svg width="48" height="45" viewBox="0 0 48 45" fill="none" xmlns="http://www.w3.org/2000/svg">
<path d="M13.9167 4.52605C16.1259 3.96895 17.7617 2.90226 17.5704 2.14352C17.3791 1.38478 15.433 1.22131 13.2238 1.7784C11.0146 2.3355 9.37874 3.40219 9.57006 4.16093C9.76139 4.91967 11.7074 5.08314 13.9167 4.52605Z" fill="#8B95F7"/>
<path d="M5.50864 35.3607C5.22849 35.6244 5.84941 36.7389 6.89535 37.8499C7.94128 38.9611 9.01636 39.648 9.29643 39.3843C9.57649 39.1207 9.2354 37.8621 8.18946 36.751C7.14345 35.6399 5.7887 35.0969 5.50864 35.3607Z" fill="#363649"/>
<path d="M7.40653 35.2218L4.11035 37.5605L6.54654 40.994L9.84272 38.6553L7.40653 35.2218Z" fill="#E9B295"/>
<path d="M17.4816 27.0286C17.3882 27.5588 17.2802 28.0715 17.1601 28.5581C16.887 29.6641 16.5554 30.6298 16.2071 31.3271C15.9843 31.7721 15.7441 32.1599 15.4977 32.5056C15.3118 32.7667 15.1232 33.0022 14.9346 33.2184C14.5891 33.6163 14.2468 33.9471 13.9387 34.2471C13.8863 34.2982 13.834 34.3485 13.7816 34.3996C12.5313 35.6217 11.5273 36.4766 10.5045 37.7316C10.1247 38.1981 9.74149 38.7209 9.34217 39.3376C9.34217 39.3343 9.34153 39.3316 9.34153 39.3275C9.15092 37.0471 7.51339 36.0163 5.49 35.3841C5.47791 35.3807 5.46653 35.3767 5.45508 35.3733C5.93224 34.6807 6.39329 34.1056 6.85435 33.5895C7.83549 32.4922 8.82208 31.6594 9.98847 30.5185C10.0455 30.4628 10.1026 30.4084 10.1596 30.3527C10.6858 29.842 11.0663 29.4729 11.3542 28.8984C11.5146 28.5783 11.7757 27.7528 12.0354 26.7025C12.0964 26.4589 12.1562 26.2025 12.2153 25.9381C12.3327 25.4093 12.4448 24.8462 12.5421 24.2771C12.6126 23.8604 12.6851 23.4402 12.7448 23.0268C12.8569 22.251 12.9247 21.5027 12.8522 20.8551C12.6341 18.8975 14.2086 17.7069 15.7152 17.5063C16.6032 17.3882 16.5139 18.3196 17.2702 19.123C18.052 21.1771 17.9642 24.312 17.4816 27.0286Z" fill="#CAC8EB"/>
<path d="M17.4804 27.0273C17.387 27.5571 17.279 28.0701 17.1586 28.5568C16.8856 29.6623 16.5543 30.6285 16.2055 31.3254C15.983 31.7705 15.7429 32.1588 15.4962 32.5039C15.1788 29.5039 13.2954 27.2381 12.2139 25.9363C12.3314 25.408 12.4437 24.8446 12.5408 24.2755C12.6116 23.8588 12.6838 23.4385 12.7436 23.0254C13.631 23.3158 15.3473 23.8945 15.4881 24.0806C15.5809 24.2025 16.5302 25.6116 17.4804 27.0273Z" fill="#363649"/>
<path d="M18.8821 39.4869C20.4081 39.4869 21.6451 39.1751 21.6451 38.7903C21.6451 38.4056 20.4081 38.0938 18.8821 38.0938C17.3562 38.0938 16.1191 38.4056 16.1191 38.7903C16.1191 39.1751 17.3562 39.4869 18.8821 39.4869Z" fill="#363649"/>
<path d="M21.1746 37.3027H16.9648V41.3442H21.1746V37.3027Z" fill="#E9B295"/>
<path d="M21.6397 38.7261C19.8351 37.2859 17.9493 37.7852 16.0883 38.8388C15.893 37.9308 15.7876 37.1362 15.7319 36.3832C15.6292 35.004 15.6902 33.7618 15.6614 32.2102C15.6601 32.131 15.6588 32.0518 15.6574 31.9719C15.646 31.2384 15.6386 30.7089 15.4171 30.1056C15.0877 29.2077 12.6307 25.3179 10.5878 23.5018C9.64088 22.6603 9.22548 20.3556 10.112 19.1215C10.6348 18.3939 12.0401 18.8893 13.1428 18.8893C16.4709 20.2617 19.519 25.5299 20.5123 28.2365C21.0505 29.7049 21.0686 30.9163 21.0834 31.8901C21.0847 31.9633 21.0854 32.0364 21.0874 32.1089C21.1169 33.7121 21.0645 34.9517 21.2196 36.3832C21.2968 37.0946 21.4249 37.853 21.6397 38.7261Z" fill="#CAC8EB"/>
<path d="M18.6455 24.5148C18.6307 24.5148 18.6161 24.5086 18.6056 24.4964C18.5715 24.4567 15.1887 20.5237 14.366 20.175C14.3393 20.1637 14.3269 20.1328 14.3381 20.1062C14.3494 20.0796 14.3802 20.0672 14.4069 20.0783C15.2523 20.4365 18.5455 24.2653 18.6853 24.4281C18.7042 24.4501 18.7017 24.4833 18.6796 24.5021C18.6697 24.5107 18.6575 24.5148 18.6455 24.5148Z" fill="#363649"/>
<path d="M17.2873 20.0307H10.9792C10.9502 20.0307 10.9268 20.0072 10.9268 19.9782C10.9268 19.9492 10.9502 19.9258 10.9792 19.9258H17.2873C17.3163 19.9258 17.3398 19.9492 17.3398 19.9782C17.3398 20.0072 17.3163 20.0307 17.2873 20.0307Z" fill="#363649"/>
<path d="M8.09964 43.5481C7.7282 44.3468 5.77465 44.6132 4.39876 43.9464C2.9853 43.2614 2.87735 41.9291 1.50522 41.6511C1.15268 41.5797 0.813109 41.5471 0.517028 41.535C0.0899252 41.5178 -0.148412 41.0347 0.10194 40.6881C0.106344 40.682 0.110741 40.6759 0.115225 40.6698C0.568597 40.0442 1.22731 39.2234 1.92919 38.6467C2.42101 38.2433 2.861 37.9518 3.16557 37.7637C3.84711 38.2182 4.2228 40.4153 5.27442 41.4996C6.20967 42.4639 7.59597 42.6607 8.02043 43.0762C8.15146 43.2033 8.1915 43.351 8.09964 43.5481Z" fill="#8B95F7"/>
<path d="M8.103 43.5464C7.73155 44.3451 5.778 44.6115 4.40211 43.9447C2.98866 43.2597 0.676234 41.782 0.422359 41.5812C0.0871153 41.316 -0.144975 41.033 0.105296 40.6865C0.109701 40.6804 0.114097 40.6743 0.118582 40.6682C0.481776 40.646 3.28538 42.3876 4.69883 43.0727C5.80963 43.611 7.29692 43.5417 8.02379 43.0746C8.15481 43.2016 8.19486 43.3493 8.103 43.5464Z" fill="#8B95F7"/>
<path d="M6.40057 43.5272C5.81601 43.5272 5.18541 43.4107 4.622 43.1377C3.82449 42.7512 2.4856 41.9224 0.642322 40.6742C0.555829 40.6156 0.486479 40.5686 0.46942 40.5577C0.465175 40.5555 0.461087 40.5529 0.457082 40.5501C0.410552 40.5163 0.400138 40.4513 0.433854 40.4048C0.493198 40.3228 0.572082 40.3757 0.624139 40.4107L0.759011 40.5018C2.59404 41.7445 3.92428 42.5683 4.71273 42.9504C5.60362 43.3821 7.11149 43.4883 7.93615 42.9584C7.98452 42.9273 8.04883 42.9414 8.07991 42.9897C8.11098 43.038 8.09696 43.1024 8.04859 43.1335C7.67058 43.3764 7.06545 43.5272 6.40057 43.5272Z" fill="white"/>
<path d="M7.48343 40.6088L7.2543 40.8127L7.08403 40.9641L6.79083 41.2252L6.62001 41.3774L6.31064 41.6531L6.13981 41.8053L5.90531 42.013L5.66001 42.2316C5.19206 41.9364 4.65084 41.1199 4.15574 40.1672C3.90275 39.681 3.66225 39.1584 3.44914 38.6527C3.32604 38.3598 3.21296 38.0727 3.11133 37.8008L3.17164 37.7696L4.05227 37.3203L7.48343 40.6088Z" fill="#8B95F7"/>
<path d="M2.57223 39.0398C2.33526 39.4487 2.52314 40.0004 2.99173 40.2719C3.4604 40.5435 4.03238 40.4321 4.26928 40.0232C4.50625 39.6143 4.31837 39.0626 3.84978 38.7911C3.38119 38.5195 2.80921 38.6309 2.57223 39.0398Z" fill="white"/>
<path d="M7.25524 40.8096L7.08497 40.961L6.42834 40.3639C6.38237 40.3218 6.37908 40.25 6.42105 40.2034C6.46302 40.1567 6.53549 40.1532 6.58162 40.1961L7.25524 40.8096Z" fill="white"/>
<path d="M6.79043 41.2227L6.61961 41.3749L6.03256 40.8405C5.98587 40.7986 5.98243 40.7261 6.02456 40.6801C6.06724 40.6333 6.139 40.63 6.18569 40.6719L6.79043 41.2227Z" fill="white"/>
<path d="M6.3148 41.6503L6.14397 41.8025L5.57456 41.2839C5.52787 41.2419 5.52442 41.1694 5.56655 41.1234C5.60924 41.0766 5.681 41.0733 5.72697 41.1154L6.3148 41.6503Z" fill="white"/>
<path d="M23.8667 44.3686H16.2754L16.2036 42.1597L16.1348 40.0416C16.1316 39.9423 16.2394 39.8814 16.3248 39.9322C17.1372 40.4161 18.5474 40.2202 19.1682 40.1006C19.3586 40.0639 19.5176 39.9342 19.5911 39.7548L19.908 38.9815C19.9464 38.8879 20.0364 38.8258 20.1375 38.8231L21.7846 38.7794C21.9619 38.7747 22.0899 38.9476 22.0335 39.1158L21.5847 40.4551C21.5507 40.5564 21.5996 40.6674 21.6977 40.71C24.0238 41.7199 23.8667 44.3686 23.8667 44.3686Z" fill="#8B95F7"/>
<path d="M18.3661 42.3384C18.8514 42.3384 19.2449 41.995 19.2449 41.5715C19.2449 41.148 18.8514 40.8047 18.3661 40.8047C17.8808 40.8047 17.4873 41.148 17.4873 41.5715C17.4873 41.995 17.8808 42.3384 18.3661 42.3384Z" fill="white"/>
<path d="M21.1021 41.7079C21.0876 41.7079 21.0728 41.7048 21.0587 41.6983C21.0065 41.6744 20.9836 41.6126 21.0075 41.5603C21.2814 40.9627 22.1002 41.0013 22.1351 41.003C22.1925 41.0062 22.2363 41.0552 22.2332 41.1125C22.2302 41.1698 22.1808 41.2146 22.1238 41.2108C22.1162 41.2105 21.4113 41.1789 21.1967 41.647C21.1792 41.6853 21.1416 41.7078 21.1021 41.7079Z" fill="white"/>
<path d="M21.6363 42.2919C21.6218 42.2919 21.607 42.2888 21.5929 42.2823C21.5407 42.2584 21.5178 42.1967 21.5417 42.1444C21.8156 41.5468 22.6345 41.5852 22.6693 41.587C22.7266 41.5902 22.7704 41.6392 22.7674 41.6965C22.7643 41.7539 22.7142 41.7977 22.658 41.7949C22.6506 41.7943 21.9455 41.763 21.7309 42.2311C21.7134 42.2693 21.6757 42.2919 21.6363 42.2919Z" fill="white"/>
<path d="M22.1294 42.9696C22.1149 42.9696 22.1002 42.9666 22.0861 42.9601C22.0339 42.9362 22.011 42.8744 22.0348 42.8221C22.3087 42.2244 23.1276 42.263 23.1625 42.2647C23.2198 42.2679 23.2636 42.3169 23.2606 42.3742C23.2574 42.4315 23.2076 42.4764 23.1512 42.4725C23.1438 42.4721 22.4386 42.4407 22.2241 42.9089C22.2066 42.9471 22.1689 42.9696 22.1294 42.9696Z" fill="white"/>
<path d="M23.6127 43.8819H16.7456C16.6881 43.8819 16.6416 43.8353 16.6416 43.7779C16.6416 43.7204 16.6882 43.6738 16.7456 43.6738H23.6127C23.6702 43.6738 23.7167 43.7204 23.7167 43.7779C23.7167 43.8354 23.6702 43.8819 23.6127 43.8819Z" fill="white"/>
<path d="M21.6403 38.7254C19.8357 37.2852 17.9498 37.7845 16.0888 38.8381C15.8936 37.9301 15.7882 37.1355 15.7324 36.3825C17.4859 35.6089 19.3082 35.5379 21.2201 36.3825C21.2973 37.0939 21.4255 37.8523 21.6403 38.7254Z" fill="#8B95F7"/>
<path d="M10.5046 37.732C10.1247 38.1984 9.74149 38.7212 9.34217 39.338C9.34217 39.3346 9.34154 39.332 9.34154 39.3279C9.15093 37.0474 7.51339 36.0166 5.49 35.3844C5.47791 35.3811 5.46653 35.3771 5.45508 35.3737C5.93224 34.6811 6.3933 34.1059 6.85436 33.5898C9.07573 34.1411 10.3396 35.4829 10.5046 37.732Z" fill="#8B95F7"/>
<path d="M47.1515 43.8781C47.1331 43.8781 47.1171 43.8645 47.1146 43.8458L45.8626 34.5618C45.8599 34.5414 45.8743 34.5226 45.8946 34.5199C45.9154 34.5172 45.9339 34.5314 45.9366 34.5518L47.1886 43.8358C47.1913 43.8562 47.177 43.875 47.1566 43.8778C47.1549 43.878 47.1532 43.8781 47.1515 43.8781Z" fill="#363649"/>
<path d="M46.3312 37.4089H33.4174L33.2607 36.5508H46.1745L46.3312 37.4089Z" fill="#5D57A6"/>
<path d="M39.3616 16.5362H38.8896L38.9454 16.0059H39.4174L39.3616 16.5362Z" fill="#A59EF4"/>
<path d="M39.7228 18.1398H38.7627L38.9406 16.4471C38.9666 16.2002 39.1878 16 39.4347 16H39.5006C39.7476 16 39.9267 16.2002 39.9007 16.4471L39.7228 18.1398Z" fill="#363649"/>
<path d="M43.8007 17.4121H34.9883L37.3728 36.5733H46.1852L43.8007 17.4121Z" fill="#363649"/>
<path d="M30.8584 17.4062H43.7786L40.2825 36.5861H27.3623L30.8584 17.4062Z" fill="#F4EAE9"/>
<path d="M40.7196 23.5906H38.0078L38.4785 20.8828H41.1903L40.7196 23.5906ZM38.1046 23.5092H40.6511L41.0936 20.9642H38.547L38.1046 23.5092Z" fill="#363649"/>
<path d="M37.1952 23.5906H34.4834L34.9541 20.8828H37.6659L37.1952 23.5906ZM34.5801 23.5092H37.1267L37.5691 20.9642H35.0226L34.5801 23.5092Z" fill="#363649"/>
<path d="M31.4624 20.9238H34.0916L33.635 23.5503H31.0059L31.4624 20.9238Z" fill="#4D5B8E"/>
<path d="M37.9985 23.873H40.6277L40.1712 26.4995H37.542L37.9985 23.873Z" fill="#FBB86F"/>
<path d="M34.4751 23.873H37.1042L36.6477 26.4995H34.0186L34.4751 23.873Z" fill="#8B95F7"/>
<path d="M30.9517 23.873H33.5809L33.1243 26.4995H30.4951L30.9517 23.873Z" fill="#FBB86F"/>
<path d="M39.6952 29.4891H36.9834L37.4541 26.7812H40.1659L39.6952 29.4891ZM37.0802 29.4077H39.6267L40.0691 26.8626H37.5226L37.0802 29.4077Z" fill="#363649"/>
<path d="M36.1708 29.4891H33.459L33.9297 26.7812H36.6415L36.1708 29.4891ZM33.5558 29.4077H36.1023L36.5447 26.8626H33.9982L33.5558 29.4077Z" fill="#363649"/>
<path d="M30.439 26.8223H33.0681L32.6116 29.4487H29.9824L30.439 26.8223Z" fill="#4D5B8E"/>
<path d="M36.9771 29.7715H39.6063L39.1497 32.398H36.5205L36.9771 29.7715Z" fill="#FBB86F"/>
<path d="M33.4487 29.7715H36.0779L35.6213 32.398H32.9922L33.4487 29.7715Z" fill="#8B95F7"/>
<path d="M29.9263 29.7715H32.5555L32.0989 32.398H29.4697L29.9263 29.7715Z" fill="#8B95F7"/>
<path d="M34.0085 28.9682C33.9965 28.9682 33.9846 28.9629 33.9766 28.9529C33.9626 28.9353 33.9656 28.9097 33.9831 28.8957L35.9503 27.3312C35.9679 27.3171 35.9935 27.3201 36.0075 27.3377C36.0214 27.3553 36.0186 27.3809 36.001 27.3948L34.0338 28.9594C34.0264 28.9654 34.0174 28.9682 34.0085 28.9682Z" fill="#363649"/>
<path d="M35.7606 29.0121C35.7492 29.0121 35.7379 29.0073 35.7298 28.998L34.3263 27.3759C34.3116 27.3589 34.3135 27.3332 34.3305 27.3186C34.3474 27.3038 34.3731 27.3057 34.3879 27.3227L35.7914 28.9448C35.8061 28.9618 35.8042 28.9875 35.7872 29.0021C35.7795 29.0088 35.77 29.0121 35.7606 29.0121Z" fill="#363649"/>
<path d="M31.0817 25.9291C31.0698 25.9291 31.0579 25.9239 31.0499 25.9138C31.0359 25.8962 31.0388 25.8706 31.0564 25.8566L33.0235 24.2921C33.0411 24.2781 33.0667 24.281 33.0807 24.2986C33.0947 24.3162 33.0918 24.3418 33.0742 24.3558L31.107 25.9203C31.0996 25.9263 31.0906 25.9291 31.0817 25.9291Z" fill="#363649"/>
<path d="M32.831 25.975C32.8195 25.975 32.8082 25.9702 32.8001 25.9609L31.3967 24.3388C31.3819 24.3218 31.3838 24.2961 31.4008 24.2814C31.4178 24.2667 31.4434 24.2685 31.4582 24.2856L32.8617 25.9076C32.8764 25.9246 32.8745 25.9503 32.8575 25.965C32.8498 25.9717 32.8404 25.975 32.831 25.975Z" fill="#363649"/>
<path d="M38.5386 22.4434H40.476L40.1396 24.3788H38.2021L38.5386 22.4434Z" fill="#A59EF4"/>
<path d="M40.0456 23.0147H38.6958C38.6815 23.0147 38.6699 23.0031 38.6699 22.9888C38.6699 22.9745 38.6815 22.9629 38.6958 22.9629H40.0456C40.0598 22.9629 40.0715 22.9745 40.0715 22.9888C40.0715 23.0031 40.0599 23.0147 40.0456 23.0147Z" fill="#FDE9CD"/>
<path d="M39.9792 23.4151H38.6294C38.6151 23.4151 38.6035 23.4035 38.6035 23.3892C38.6035 23.3749 38.6151 23.3633 38.6294 23.3633H39.9792C39.9935 23.3633 40.0051 23.3749 40.0051 23.3892C40.0051 23.4035 39.9935 23.4151 39.9792 23.4151Z" fill="#FDE9CD"/>
<path d="M39.9079 23.8194H38.5581C38.5439 23.8194 38.5322 23.8078 38.5322 23.7935C38.5322 23.7792 38.5439 23.7676 38.5581 23.7676H39.9079C39.9222 23.7676 39.9338 23.7792 39.9338 23.7935C39.9338 23.8078 39.9222 23.8194 39.9079 23.8194Z" fill="#FDE9CD"/>
<path d="M29.9204 30.8809H31.8579L31.5214 32.8163H29.584L29.9204 30.8809Z" fill="#FBB86F"/>
<path d="M31.4265 31.4502H30.0767C30.0624 31.4502 30.0508 31.4386 30.0508 31.4243C30.0508 31.4101 30.0624 31.3984 30.0767 31.3984H31.4265C31.4408 31.3984 31.4524 31.4101 31.4524 31.4243C31.4524 31.4386 31.4408 31.4502 31.4265 31.4502Z" fill="#FDE9CD"/>
<path d="M31.3591 31.8526H30.0093C29.995 31.8526 29.9834 31.841 29.9834 31.8267C29.9834 31.8124 29.995 31.8008 30.0093 31.8008H31.3591C31.3734 31.8008 31.385 31.8124 31.385 31.8267C31.385 31.841 31.3734 31.8526 31.3591 31.8526Z" fill="#FDE9CD"/>
<path d="M31.2898 32.2569H29.94C29.9257 32.2569 29.9141 32.2453 29.9141 32.231C29.9141 32.2167 29.9257 32.2051 29.94 32.2051H31.2898C31.304 32.2051 31.3157 32.2167 31.3157 32.231C31.3157 32.2453 31.3041 32.2569 31.2898 32.2569Z" fill="#FDE9CD"/>
<path d="M38.6761 18.9458L38.9851 16.0059H35.5911C35.2244 16.0059 34.8959 16.3031 34.8574 16.6698L34.6182 18.9458H38.6761Z" fill="#8B95F7"/>
<path d="M27.2314 37.448H40.1452L40.3019 36.5898H27.3881L27.2314 37.448Z" fill="#8B95F7"/>
<path d="M38.9114 44.4726C38.9092 44.4726 38.907 44.4724 38.9048 44.472C38.8845 44.4683 38.871 44.4489 38.8746 44.4287L40.4722 35.5248C40.4758 35.5045 40.4952 35.4911 40.5156 35.4947C40.5358 35.4984 40.5493 35.5178 40.5457 35.538L38.9481 44.4419C38.9448 44.4599 38.9291 44.4726 38.9114 44.4726Z" fill="#363649"/>
<path d="M26.0374 44.3482C26.0352 44.3482 26.033 44.348 26.0308 44.3477C26.0105 44.344 25.997 44.3246 26.0006 44.3044L27.6779 34.9038C27.6815 34.8835 27.7008 34.8701 27.7212 34.8736C27.7414 34.8772 27.755 34.8966 27.7514 34.9169L26.0741 44.3175C26.0709 44.3355 26.0551 44.3482 26.0374 44.3482Z" fill="#363649"/>
<path d="M26.2256 11.293H23.8682V12.8218H26.2256V11.293Z" fill="#E9B295"/>
<path d="M27.1844 11.5312H26.1239H23.8451L23.7588 10.1225L25.4853 8.95312L27.4552 8.99237L27.1844 11.5312Z" fill="#E9B295"/>
<path d="M25.5635 9.49035C25.5635 9.49035 25.5635 9.49035 26.0068 8.58041C26.45 7.67046 25.5787 7.70922 25.5787 7.70922L24.5637 8.67131C23.0591 10.5123 24.1332 11.2138 24.1332 11.2138" fill="#E9B295"/>
<path d="M25.5998 10.5118C25.5931 10.5118 25.5862 10.5104 25.5796 10.5077C25.5529 10.4965 25.5403 10.4658 25.5515 10.439C25.8679 9.68294 25.5576 9.24422 25.5545 9.23982L25.5332 9.21067L25.5527 9.18024L26.1267 8.29351C26.1425 8.26917 26.1751 8.2622 26.1993 8.27798C26.2236 8.29376 26.2306 8.32627 26.2148 8.35054L25.6593 9.20875C25.7305 9.32727 25.9439 9.77312 25.6482 10.4796C25.6399 10.4997 25.6203 10.5118 25.5998 10.5118Z" fill="#363649"/>
<path d="M27.001 9.97403C27.001 10.1636 27.1547 10.3172 27.3441 10.3172H29.3003C29.4898 10.3172 29.6435 10.1635 29.6435 9.97403C29.6435 9.78446 29.4898 9.63086 29.3003 9.63086H27.3441C27.1547 9.63086 27.001 9.78455 27.001 9.97403Z" fill="#E9B295"/>
<path d="M26.79 9.33731C26.79 9.52688 26.9436 9.68049 27.1332 9.68049H29.0894C29.2789 9.68049 29.4326 9.5268 29.4326 9.33731C29.4326 9.14775 29.2789 8.99414 29.0894 8.99414H27.1332C26.9436 8.99414 26.79 9.14775 26.79 9.33731Z" fill="#E9B295"/>
<path d="M29.7184 10.0772C29.7156 10.0772 29.7127 10.077 29.7098 10.0766C29.6813 10.0718 29.6618 10.0449 29.6665 10.0164C29.6669 10.0134 29.689 9.86136 29.5981 9.75333C29.5354 9.67885 29.4317 9.63992 29.2897 9.63768C28.7975 9.62991 27.4134 9.6376 27.3995 9.63768H27.3991C27.3703 9.63768 27.3468 9.61438 27.3467 9.58554C27.3465 9.55655 27.3699 9.53293 27.3988 9.53277C27.4128 9.53269 28.7981 9.525 29.2913 9.53277C29.4655 9.53549 29.596 9.58731 29.6791 9.68669C29.8012 9.83261 29.7714 10.0251 29.77 10.0332C29.7659 10.0589 29.7435 10.0772 29.7184 10.0772Z" fill="#363649"/>
<path d="M26.4336 11.1869C26.4336 11.3765 26.5872 11.5301 26.7768 11.5301H28.733C28.9225 11.5301 29.0761 11.3764 29.0761 11.1869C29.0761 10.9974 28.9224 10.8438 28.733 10.8438H26.7768C26.5872 10.8438 26.4336 10.9974 26.4336 11.1869Z" fill="#E9B295"/>
<path d="M29.1539 11.29C29.1511 11.29 29.1482 11.2899 29.1453 11.2894C29.1168 11.2847 29.0974 11.2578 29.102 11.2293C29.1024 11.2263 29.1245 11.0742 29.0336 10.9663C28.9709 10.8918 28.8672 10.8528 28.7253 10.8506C28.2332 10.8428 26.8489 10.8505 26.835 10.8506H26.8347C26.8059 10.8506 26.7824 10.8273 26.7822 10.7985C26.7821 10.7695 26.8055 10.7459 26.8344 10.7457C26.8484 10.7456 28.2337 10.7378 28.7269 10.7457C28.9011 10.7484 29.0315 10.8002 29.1147 10.8996C29.2367 11.0455 29.2069 11.238 29.2056 11.2461C29.2015 11.2718 29.1792 11.29 29.1539 11.29Z" fill="#363649"/>
<path d="M17.7696 15.051L20.6917 12.1289C20.3931 11.6743 19.9408 10.9862 19.1136 9.77734L14.6777 10.6669C15.3049 11.5834 16.3405 13.1448 17.411 14.5761C17.5348 14.7416 17.6541 14.8995 17.7696 15.051Z" fill="#8B95F7"/>
<path d="M23.0572 10.7461C22.5274 12.0219 21.9892 12.8793 21.5882 13.3809C21.2261 12.9391 21.098 12.7459 20.729 12.184C20.4824 12.4306 20.2358 12.6771 19.9892 12.9238L17.8105 15.1026C19.399 17.1782 20.2425 17.926 21.4092 17.8975C24.0887 17.832 25.9269 14.3583 26.7842 12.2935L23.0572 10.7461Z" fill="#E9B295"/>
<path d="M20.9275 14.4009C20.9171 14.4009 20.9066 14.3979 20.8974 14.3915C20.8736 14.3748 20.8679 14.3421 20.8845 14.3184L21.8216 12.9775C21.8383 12.9538 21.871 12.9479 21.8948 12.9646C21.9185 12.9812 21.9243 13.0139 21.9077 13.0377L20.9706 14.3785C20.9603 14.3932 20.944 14.4009 20.9275 14.4009Z" fill="#363649"/>
<path d="M7.68457 10.4326C7.68457 11.1458 7.9704 11.7909 8.43378 12.261C8.81443 12.651 9.31658 12.9207 9.88015 13.0103C10.015 13.0329 10.154 13.0437 10.2955 13.0437C10.9632 13.0437 11.5723 12.7926 12.0344 12.3798C12.0758 12.3451 12.1146 12.3077 12.1533 12.2677C12.6194 11.7976 12.9078 11.1485 12.9078 10.4327C12.9078 8.9903 11.7379 7.82031 10.2955 7.82031C10.1539 7.82031 10.015 7.83096 9.88015 7.85371C9.83739 7.86036 9.79469 7.86844 9.75329 7.87773C8.85183 8.06738 8.12392 8.72185 7.82744 9.57926C7.73526 9.84627 7.68457 10.1335 7.68457 10.4326Z" fill="#8B95F7"/>
<path d="M18.9367 13.1417C19.9566 12.1217 19.9566 10.4681 18.9367 9.44819C17.9168 8.42826 16.2631 8.42826 15.2432 9.44818C14.2233 10.4681 14.2233 12.1217 15.2432 13.1417C16.2632 14.1616 17.9168 14.1616 18.9367 13.1417Z" fill="#8B95F7"/>
<path d="M17.8967 8.83095L17.6833 19.05C17.6793 19.2627 17.5041 19.4332 17.2907 19.4319L16.5451 19.4272L15.8068 19.4218L12.817 19.4016L12.0754 19.3969L10.207 19.3841C9.99356 19.3828 9.82113 19.2096 9.81977 18.9962C9.58688 18.709 9.46411 18.3942 9.81377 17.9647L9.75602 7.87856C10.1627 7.79935 10.5727 7.73961 10.9841 7.69796C11.2425 7.67178 11.5009 7.65304 11.7593 7.64158C11.8452 7.63758 11.9318 7.63421 12.0177 7.63221C13.1653 7.60066 14.3055 7.71142 15.3833 7.95568C15.5638 7.99661 15.7431 8.04154 15.9202 8.08991C16.1699 8.15766 16.4155 8.2335 16.6565 8.31736C17.086 8.46512 17.5007 8.63626 17.8967 8.83095Z" fill="#8B95F7"/>
<path d="M17.6542 15.1205C17.6537 15.1205 17.6532 15.1205 17.6526 15.1205C17.6236 15.1196 17.6009 15.0954 17.6017 15.0665C17.6455 13.5672 17.5825 12.2698 17.5079 11.091C17.5061 11.0621 17.528 11.0371 17.557 11.0352C17.5866 11.0337 17.6108 11.0554 17.6127 11.0843C17.6875 12.2655 17.7506 13.5659 17.7067 15.0695C17.7058 15.098 17.6825 15.1205 17.6542 15.1205Z" fill="#363649"/>
<path d="M11.1879 9.94265C11.1609 9.94265 11.1379 9.92191 11.1357 9.89452C11.0212 8.51983 9.75626 7.98517 9.74353 7.97997C9.71678 7.969 9.70388 7.93832 9.71485 7.91149C9.72582 7.88474 9.75658 7.87185 9.78325 7.88282C9.79662 7.88827 11.1203 8.44583 11.2403 9.88587C11.2427 9.9147 11.2212 9.94009 11.1923 9.94257C11.1909 9.94257 11.1894 9.94265 11.1879 9.94265Z" fill="#363649"/>
<path d="M15.6855 3.56017C15.6855 3.56017 16.1877 1.59187 13.8578 1.99351C11.5279 2.39522 11.3465 2.59584 11.3264 4.60434C11.3063 6.61283 12.5866 6.8354 12.5866 6.8354C12.5866 6.8354 12.492 6.75371 12.7933 5.84985C13.0946 4.94599 15.6855 3.56017 15.6855 3.56017Z" fill="#ABB0C5"/>
<path d="M14.7965 7.9618C14.1759 8.2542 13.4049 8.15954 12.5301 7.90975L12.5234 5.62695H14.7965V7.9618Z" fill="#E9B295"/>
<path d="M14.7833 7.0403L14.7836 7.61508C14.7836 7.61508 13.6305 7.07377 13.4893 6.21484" fill="#363649"/>
<path d="M15.6537 3.45888C15.7665 3.61529 15.9329 4.03543 15.9361 4.80818C15.9405 5.88751 15.6009 6.967 15.1077 7.041C13.6937 7.25323 12.705 6.36507 12.472 5.6358C12.1302 4.56584 13.0483 3.23136 14.1289 3.01264C14.6114 2.91501 15.323 3.00014 15.6537 3.45888Z" fill="#E9B295"/>
<path d="M14.2966 4.72254C14.3033 4.7179 14.3033 4.70957 14.2966 4.70516L14.0393 4.53682C13.9335 4.44528 13.75 4.45113 13.6644 4.55796L13.4471 4.74232C13.4386 4.74953 13.4397 4.7601 13.4496 4.76571L13.7007 4.90842C13.7979 4.96368 13.9568 4.95647 14.049 4.89257C14.1471 4.82465 14.2591 4.74809 14.2966 4.72254Z" fill="white"/>
<path d="M13.4344 4.79854C13.4213 4.79854 13.4082 4.79365 13.398 4.78396C13.3771 4.76394 13.3764 4.73071 13.3964 4.70972L13.6229 4.47331C13.7324 4.3591 13.9449 4.34637 14.0687 4.44688L14.3411 4.66776C14.3636 4.68602 14.367 4.71909 14.3488 4.74152C14.3305 4.7641 14.2974 4.76754 14.275 4.7492L14.0026 4.52833C13.921 4.46225 13.7706 4.4709 13.6987 4.54587L13.4722 4.78228C13.4619 4.79309 13.4481 4.79854 13.4344 4.79854Z" fill="#363649"/>
<path d="M13.841 4.71956C13.8449 4.80229 13.9152 4.86612 13.9979 4.8622C14.0806 4.85827 14.1444 4.78804 14.1405 4.70531C14.1366 4.62258 14.0663 4.55875 13.9836 4.56267C13.9009 4.5666 13.8371 4.63683 13.841 4.71956Z" fill="#363649"/>
<path d="M15.6079 4.7732C15.6152 4.76936 15.6161 4.76111 15.6099 4.7559L15.3738 4.55913C15.2791 4.45598 15.0962 4.44076 14.9989 4.5371L14.7619 4.69528C14.7526 4.70144 14.7525 4.71209 14.7617 4.71882L14.9947 4.88949C15.0849 4.95556 15.2436 4.96661 15.3425 4.91375C15.4477 4.85753 15.5677 4.79434 15.6079 4.7732Z" fill="white"/>
<path d="M15.6153 4.81245C15.6017 4.81245 15.5881 4.80717 15.5778 4.79667L15.3325 4.546C15.2591 4.47096 15.1085 4.46215 15.0286 4.52846L14.7916 4.72476C14.7894 4.73012 14.7862 4.73533 14.782 4.73989C14.7626 4.76152 14.7294 4.76328 14.7079 4.7439C14.6966 4.73373 14.6882 4.71507 14.6885 4.69985C14.6887 4.68463 14.6976 4.66637 14.7092 4.6566L14.9617 4.44758C15.0836 4.34667 15.2962 4.3586 15.4076 4.47264L15.6528 4.72331C15.6731 4.74398 15.6727 4.77721 15.6519 4.79756C15.6418 4.80749 15.6286 4.81245 15.6153 4.81245Z" fill="#363649"/>
<path d="M15.1468 4.7161C15.1412 4.79875 15.2037 4.87027 15.2863 4.8758C15.369 4.8814 15.4405 4.81893 15.4461 4.73628C15.4517 4.65364 15.3893 4.58212 15.3066 4.57651C15.224 4.57099 15.1524 4.63345 15.1468 4.7161Z" fill="#363649"/>
<path d="M14.8761 4.24518L14.9494 4.23436C15.1215 4.20898 15.3958 4.25711 15.5771 4.29675C15.64 4.31053 15.6855 4.23717 15.6442 4.18767C15.588 4.12024 15.5174 4.04432 15.4458 3.9905C15.3188 3.89512 14.9674 3.99739 14.8277 4.04368C14.7917 4.05561 14.7653 4.08644 14.7585 4.12376C14.7459 4.19376 14.8057 4.25551 14.8761 4.24518Z" fill="#363649"/>
<path d="M14.0381 4.26235L13.9641 4.26387C13.7901 4.26747 13.5277 4.36061 13.3555 4.42997C13.2957 4.45399 13.2387 4.38928 13.2711 4.33362C13.3154 4.25778 13.3724 4.17113 13.434 4.10618C13.5433 3.99101 13.9069 4.0333 14.0523 4.05564C14.0898 4.06141 14.1209 4.08744 14.1338 4.12308C14.1579 4.19003 14.1093 4.26091 14.0381 4.26235Z" fill="#363649"/>
<path d="M14.7823 4.51704H14.3367C14.3163 4.51704 14.2998 4.50054 14.2998 4.4802C14.2998 4.45986 14.3163 4.44336 14.3367 4.44336H14.7823C14.8026 4.44336 14.8191 4.45986 14.8191 4.4802C14.8191 4.50046 14.8026 4.51704 14.7823 4.51704Z" fill="white"/>
<path d="M13.1999 4.65775C13.1982 4.65775 13.1966 4.65759 13.1949 4.65743L12.3873 4.54603C12.3672 4.54323 12.3531 4.52465 12.3558 4.50447C12.3586 4.48437 12.377 4.47027 12.3974 4.47299L13.205 4.58439C13.2251 4.5872 13.2392 4.60578 13.2364 4.62596C13.2339 4.64438 13.2181 4.65775 13.1999 4.65775Z" fill="white"/>
<path d="M14.5768 5.81312C14.572 5.77997 14.5965 5.74985 14.6299 5.74761C14.7632 5.73872 15.1161 5.72711 15.2868 5.83571C15.4997 5.97113 15.7254 5.84219 15.7254 5.84219C15.7254 5.84219 15.6544 6.28724 15.0804 6.1647C14.6717 6.07741 14.59 5.90506 14.5768 5.81312Z" fill="#363649"/>
<path d="M14.6379 5.81312C14.6426 5.77997 14.6182 5.74985 14.5848 5.74761C14.4514 5.73872 14.0985 5.72711 13.9278 5.83571C13.7149 5.97113 13.4893 5.84219 13.4893 5.84219C13.4893 5.84219 13.5602 6.28724 14.1342 6.1647C14.543 6.07741 14.6247 5.90506 14.6379 5.81312Z" fill="#363649"/>
<path d="M15.5576 3.26151C15.5576 3.26151 13.712 3.0468 13.6025 3.37539C13.4929 3.70407 12.7843 4.07431 12.7843 4.12909C12.7843 4.18387 12.9635 4.94566 12.507 4.98218C12.0505 5.0187 11.7949 3.15628 11.7949 3.15628C11.7949 3.15628 13.073 2.31641 13.2191 2.31641C13.3652 2.31641 14.7894 2.6816 14.7894 2.6816L15.5576 3.26151Z" fill="#ABB0C5"/>
<path d="M11.8406 5.22829C11.9017 5.55064 12.2126 5.76247 12.5349 5.70136C12.8573 5.64026 13.0691 5.32936 13.008 5.00701C12.9469 4.68466 12.636 4.47283 12.3137 4.53394C11.9912 4.59504 11.7795 4.90594 11.8406 5.22829Z" fill="#E9B295"/>
<path d="M12.3112 5.45185C12.291 5.45185 12.2717 5.44016 12.263 5.42045C12.0643 4.96844 12.379 4.75854 12.3822 4.75645C12.4065 4.74076 12.439 4.74765 12.4548 4.77207C12.4704 4.79634 12.4635 4.82877 12.4393 4.84455C12.4282 4.85184 12.1978 5.01137 12.3591 5.37825C12.3708 5.40476 12.3587 5.43575 12.3322 5.44744C12.3253 5.45041 12.3182 5.45185 12.3112 5.45185Z" fill="#363649"/>
<path d="M12.6054 5.24598C12.5977 5.24598 12.5898 5.24421 12.5824 5.24061C12.4596 5.18038 12.2588 5.08228 12.2429 5.07539C12.2162 5.06402 12.2038 5.03318 12.2152 5.00652C12.2264 4.98001 12.257 4.96751 12.2838 4.97873C12.3056 4.98794 12.5748 5.12 12.6286 5.14635C12.6547 5.15916 12.6654 5.19055 12.6527 5.21658C12.6435 5.23524 12.6248 5.24598 12.6054 5.24598Z" fill="#363649"/>
<path d="M14.3238 3.03834C14.3093 3.03834 14.2955 3.02977 14.2897 3.01551C14.2868 3.00871 13.9967 2.33534 12.9209 2.33534C12.9136 2.33534 12.9047 2.33445 12.8991 2.33542C12.879 2.33542 12.8625 2.31908 12.8623 2.2989C12.8621 2.27855 12.8785 2.2619 12.8988 2.26174C13.4968 2.25965 13.8599 2.45282 14.0602 2.61812C14.2792 2.7988 14.3548 2.97995 14.3579 2.98756C14.3655 3.00638 14.3565 3.02785 14.3377 3.03553C14.3332 3.03738 14.3285 3.03834 14.3238 3.03834Z" fill="white"/>
<path d="M14.6435 3.04764C14.6377 3.04764 14.6318 3.0462 14.6263 3.04332C14.6083 3.03378 14.6015 3.01152 14.611 2.99358C14.6142 2.98749 14.688 2.84334 14.6146 2.66547C14.5328 2.46717 14.3055 2.30828 13.9389 2.19311C13.9194 2.18703 13.9087 2.16636 13.9148 2.1469C13.9209 2.12744 13.9415 2.11671 13.961 2.1228C14.3505 2.24517 14.5934 2.41888 14.6835 2.63904C14.7693 2.84934 14.6799 3.02097 14.6761 3.02818C14.6693 3.04059 14.6566 3.04764 14.6435 3.04764Z" fill="white"/>
<path d="M12.1159 3.71414C12.108 3.71414 12.1 3.71158 12.0932 3.70629C12.0772 3.69372 12.0744 3.67057 12.0869 3.65456C12.7019 2.86931 13.88 3.00209 13.8917 3.00337C13.9119 3.00577 13.9263 3.02411 13.9239 3.04438C13.9214 3.06456 13.9029 3.07937 13.8829 3.07649C13.8715 3.07497 12.7338 2.94779 12.1449 3.70005C12.1377 3.70934 12.1268 3.71414 12.1159 3.71414Z" fill="white"/>
<path d="M13.8712 3.84204C13.8595 3.84204 13.8483 3.83548 13.8429 3.82419C13.8355 3.80857 13.8421 3.78991 13.8577 3.78246C13.882 3.77093 14.4612 3.50159 15.1877 3.7252C15.2043 3.73024 15.2135 3.74778 15.2085 3.76428C15.2034 3.78078 15.1857 3.79007 15.1694 3.78502C14.4671 3.56903 13.8904 3.83628 13.8846 3.839C13.8802 3.84108 13.8757 3.84204 13.8712 3.84204Z" fill="#BC8E79"/>
<path d="M13.7862 3.57056C13.7745 3.57056 13.7633 3.56399 13.7579 3.5527C13.7505 3.53716 13.7571 3.51842 13.7727 3.51105C13.797 3.49944 14.3764 3.23011 15.1028 3.45371C15.1193 3.45876 15.1285 3.4763 15.1235 3.49279C15.1184 3.50937 15.1008 3.51858 15.0844 3.51354C14.3821 3.2973 13.8054 3.56479 13.7997 3.56751C13.7953 3.5696 13.7907 3.57056 13.7862 3.57056Z" fill="#BC8E79"/>
<path d="M13.2629 4.92002C13.2613 4.92002 13.2597 4.91994 13.2581 4.9197L13.0529 4.88839C13.0359 4.88575 13.0241 4.86981 13.0267 4.85275C13.0293 4.83569 13.0451 4.82384 13.0624 4.82656L13.2676 4.85787C13.2846 4.86052 13.2964 4.87646 13.2937 4.89351C13.2915 4.90889 13.2781 4.92002 13.2629 4.92002Z" fill="#BC8E79"/>
<path d="M13.1123 5.10345C13.1003 5.10345 13.0889 5.09657 13.0837 5.08487C13.0768 5.0691 13.0839 5.0506 13.0997 5.04355L13.2804 4.96354C13.2963 4.95673 13.3147 4.9637 13.3217 4.97948C13.3287 4.99526 13.3216 5.01376 13.3058 5.0208L13.1251 5.10081C13.1208 5.10257 13.1166 5.10345 13.1123 5.10345Z" fill="#BC8E79"/>
<path d="M15.6983 4.92979C15.6831 4.92979 15.6698 4.91874 15.6674 4.90328C15.6647 4.88622 15.6765 4.8702 15.6935 4.86764L15.8987 4.83633C15.9159 4.8336 15.9318 4.84546 15.9344 4.86252C15.937 4.87957 15.9252 4.89559 15.9082 4.89815L15.703 4.92947C15.7014 4.92971 15.6998 4.92979 15.6983 4.92979Z" fill="#BC8E79"/>
<path d="M15.8489 5.11518C15.8446 5.11518 15.8404 5.1143 15.8362 5.11254L15.6554 5.03253C15.6396 5.02557 15.6324 5.00707 15.6394 4.99121C15.6464 4.97535 15.6649 4.96846 15.6807 4.97527L15.8616 5.0552C15.8774 5.06217 15.8846 5.08067 15.8775 5.09652C15.8723 5.10822 15.8609 5.11518 15.8489 5.11518Z" fill="#BC8E79"/>
<path d="M13.7947 5.34721C13.4481 5.34721 13.166 5.06522 13.166 4.71852C13.166 4.37191 13.448 4.08984 13.7947 4.08984C14.1414 4.08984 14.4234 4.37183 14.4234 4.71852C14.4233 5.06514 14.1413 5.34721 13.7947 5.34721ZM13.7947 4.16352C13.4887 4.16352 13.2397 4.41243 13.2397 4.71852C13.2397 5.02454 13.4886 5.27353 13.7947 5.27353C14.1008 5.27353 14.3497 5.02462 14.3497 4.71852C14.3497 4.41251 14.1007 4.16352 13.7947 4.16352Z" fill="white"/>
<path d="M15.3279 5.35307C14.9813 5.35307 14.6992 5.07108 14.6992 4.72439C14.6992 4.37777 14.9812 4.0957 15.3279 4.0957C15.6746 4.0957 15.9566 4.37769 15.9566 4.72439C15.9565 5.071 15.6745 5.35307 15.3279 5.35307ZM15.3279 4.16938C15.0219 4.16938 14.7729 4.41829 14.7729 4.72439C14.7729 5.0304 15.0218 5.27939 15.3279 5.27939C15.634 5.27939 15.8829 5.03048 15.8829 4.72439C15.8828 4.41837 15.6339 4.16938 15.3279 4.16938Z" fill="white"/>
<path d="M14.7057 5.64515C14.6978 5.64515 14.6897 5.6433 14.6822 5.63954C14.6563 5.62649 14.6459 5.59493 14.6588 5.56906L14.8263 5.23638C14.8607 5.17215 14.8527 5.09591 14.8066 5.04113L14.517 4.61923C14.5006 4.59537 14.5068 4.56261 14.5306 4.54628C14.5545 4.52994 14.5872 4.53602 14.6036 4.55989L14.8901 4.9777C14.9608 5.06139 14.9735 5.18353 14.9195 5.28476L14.7526 5.61639C14.7434 5.63457 14.7249 5.64515 14.7057 5.64515Z" fill="#363649"/>
<path d="M13.0001 7.6781C12.996 7.6781 12.9918 7.6773 12.9879 7.67561C12.9719 7.66881 12.9645 7.65047 12.9712 7.63461C12.973 7.63036 13.1489 7.20999 13.1264 6.82805C13.1254 6.81084 13.1386 6.79602 13.1558 6.79498C13.1737 6.79394 13.1879 6.80715 13.1889 6.82437C13.2123 7.2212 13.0363 7.64134 13.0288 7.65896C13.0238 7.67097 13.0122 7.6781 13.0001 7.6781Z" fill="#BC8E79"/>
<path d="M13.578 7.68948C13.5667 7.68948 13.556 7.68348 13.5503 7.67298C13.4775 7.53716 13.5441 7.19455 13.5519 7.15595C13.5554 7.13897 13.5718 7.12799 13.5888 7.13152C13.6057 7.13488 13.6166 7.15146 13.6132 7.16836C13.5932 7.26719 13.5529 7.54517 13.6054 7.64343C13.6136 7.65865 13.6078 7.67763 13.5926 7.6858C13.588 7.68828 13.5829 7.68948 13.578 7.68948Z" fill="#BC8E79"/>
<path d="M13.8027 0.0243821L11.6484 0.675247C11.3485 0.765826 11.1789 1.08233 11.2695 1.38217L11.6813 2.74533C11.7719 3.04518 12.0884 3.2148 12.3882 3.12422L14.5426 2.47344C14.8424 2.38286 15.012 2.06636 14.9215 1.76651L14.5096 0.403353C14.4191 0.103428 14.1026 -0.0661961 13.8027 0.0243821Z" fill="#8B95F7"/>
<path d="M11.4815 2.42088C11.4558 2.42088 11.4313 2.40614 11.42 2.38124C11.4047 2.34736 11.4198 2.30748 11.4537 2.2921C11.4689 2.28521 13.0014 1.59943 14.9201 1.38904C14.9572 1.3852 14.9903 1.41171 14.9944 1.44871C14.9984 1.48571 14.9717 1.51902 14.9347 1.52303C13.0371 1.73109 11.5242 2.40807 11.5092 2.41487C11.5001 2.41896 11.4908 2.42088 11.4815 2.42088Z" fill="white"/>
<path d="M11.3583 4.13153C11.3583 4.13153 13.0923 2.42311 16.0766 3.16472L15.9713 2.06777C15.8174 1.58765 10.6341 2.4276 10.9483 3.53832C11.1109 4.11319 11.3583 4.13153 11.3583 4.13153Z" fill="#8B95F7"/>
<path d="M10.0291 17.9573C10.0099 17.9573 9.99132 17.9467 9.98211 17.9283C9.96914 17.9024 9.97971 17.8709 10.0056 17.8579C10.0342 17.8436 10.715 17.5088 11.5271 17.6142C11.5559 17.6179 11.5762 17.6443 11.5724 17.673C11.5686 17.7018 11.5422 17.7221 11.5136 17.7183C10.7344 17.6173 10.0592 17.9484 10.0525 17.9518C10.0451 17.9556 10.037 17.9573 10.0291 17.9573Z" fill="#363649"/>
<path d="M12.8173 19.4006C12.8105 19.4677 12.8059 19.512 12.8038 19.5308L12.0703 19.4489C12.0703 19.4456 12.0723 19.4275 12.0756 19.3959C12.1434 18.7248 12.773 11.9163 10.9844 7.69701C11.2427 7.67082 11.5011 7.65208 11.7595 7.64062C13.4756 11.9586 12.9206 18.3745 12.8173 19.4006Z" fill="#CAC8EB"/>
<path d="M16.654 8.31737L16.5426 19.427L16.542 19.4747L15.8037 19.4673L15.8043 19.4216L15.9178 8.08984C16.1675 8.1576 16.4131 8.23344 16.654 8.31737Z" fill="#CAC8EB"/>
<path d="M14.2291 8.77219C14.2228 8.77219 14.2187 8.77211 14.2171 8.77203C14.1881 8.77131 14.1653 8.7472 14.166 8.71829C14.1668 8.6893 14.1916 8.66711 14.2198 8.66711C14.2256 8.66695 14.7947 8.67592 15.4135 8.28734C15.4381 8.27196 15.4703 8.27925 15.4859 8.30392C15.5012 8.32851 15.4939 8.36086 15.4693 8.37632C14.865 8.75577 14.3187 8.77219 14.2291 8.77219Z" fill="#363649"/>
<path d="M18.0186 15.605L30.4665 9.94219L32.3299 7.07028L33.8046 4.79637C33.9511 4.57053 33.7629 4.30768 33.5019 4.3736L30.8734 5.03727L27.5549 5.87506L18.0186 15.605Z" fill="#FAE8E1"/>
<path d="M32.0146 4.75032L33.5068 4.37359C33.7678 4.30768 33.956 4.57061 33.8095 4.79637L32.972 6.08761L32.0146 4.75032Z" fill="#363649"/>
<path d="M4.22949 22.307L7.14265 26.3762L30.473 9.94616C29.875 9.86944 29.6678 9.51402 29.7563 8.945C29.1531 8.88822 28.9717 8.48386 29.0164 7.91156C28.4342 7.81569 28.2115 7.44593 28.265 6.86194C27.6973 6.72571 27.4677 6.39343 27.5598 5.87695L4.22949 22.307Z" fill="#FBB86F"/>
<path d="M4.97133 21.7726L3.01953 23.1699L5.93263 27.2391L7.88443 25.8418L4.97133 21.7726Z" fill="#FDE9DF"/>
<path d="M1.79711 25.4406L3.38924 27.6645C3.75403 28.1741 4.46289 28.2914 4.9724 27.9266L6.62851 26.741L3.71535 22.6719L2.05932 23.8575C1.54965 24.2223 1.43232 24.931 1.79711 25.4406Z" fill="#8B95F7"/>
<path d="M6.49394 22.4355C6.47087 22.4355 6.44821 22.4246 6.43404 22.4042C6.41097 22.3711 6.41906 22.3257 6.45213 22.3027L25.233 9.20648C25.2662 9.18341 25.3116 9.19158 25.3346 9.22458C25.3577 9.25765 25.3496 9.30314 25.3165 9.32613L6.53558 22.4223C6.52285 22.4312 6.50835 22.4355 6.49394 22.4355Z" fill="#363649"/>
<path d="M16.9002 17.3467C16.8771 17.3467 16.8545 17.3358 16.8403 17.3155C16.8172 17.2825 16.8253 17.237 16.8584 17.2139L20.7279 14.5112C20.761 14.4881 20.8064 14.4962 20.8296 14.5293C20.8526 14.5623 20.8445 14.6078 20.8115 14.6308L16.9419 17.3336C16.9292 17.3425 16.9146 17.3467 16.9002 17.3467Z" fill="#363649"/>
<path d="M9.52813 22.5948C9.50506 22.5948 9.48239 22.5839 9.46822 22.5635C9.44515 22.5305 9.45324 22.485 9.48631 22.462L13.3558 19.7592C13.3889 19.7361 13.4343 19.7443 13.4574 19.7773C13.4805 19.8103 13.4724 19.8558 13.4393 19.8789L9.56976 22.5816C9.55711 22.5905 9.54254 22.5948 9.52813 22.5948Z" fill="#363649"/>
<path d="M8.10874 18.9082C8.74206 19.1284 9.02924 19.7858 9.07642 19.8937C9.1879 20.1488 9.20616 20.4982 9.23796 21.1864C9.28849 22.2789 9.18334 22.3987 9.35144 22.7273C9.48438 22.9871 9.56887 23.2714 9.71647 23.5231C9.77838 23.6287 9.83476 23.7138 9.80745 23.8068C9.75636 23.9807 9.44034 24.0881 9.19079 24.0221C9.01452 23.9754 8.91296 23.8531 8.78898 23.704C8.68888 23.5834 8.54777 23.3804 8.45471 23.0814C8.37029 23.2997 8.34395 23.4813 8.3357 23.6076C8.31456 23.9294 8.58669 25.2773 8.65116 25.4793C8.76825 25.8461 8.71539 25.9754 8.6711 26.041C8.6128 26.1274 8.50628 26.197 8.3912 26.2013C8.26098 26.2062 8.17 26.1255 8.05635 26.0249C7.82002 25.8154 7.62364 25.4784 7.61267 25.3469C7.61179 25.3364 7.61003 25.3019 7.58753 25.2884C7.55445 25.2685 7.51416 25.3168 7.46219 25.3264C7.32171 25.352 7.08178 25.0964 7.05815 24.9092C7.05551 24.8884 7.05094 24.8315 7.0129 24.8104C6.98247 24.7934 6.94796 24.8088 6.92209 24.8142C6.82406 24.8345 6.72267 24.7361 6.66845 24.6836C6.43572 24.4577 6.42474 24.0283 6.35715 24.0312C6.33232 24.0322 6.31639 24.0909 6.29685 24.1654C6.23078 24.417 6.2958 24.5063 6.22533 24.6235C6.17191 24.7124 6.06388 24.7786 5.96024 24.7738C5.84212 24.7685 5.76179 24.6725 5.72302 24.625C5.61475 24.4919 5.52737 24.2719 5.58039 23.7221C5.5888 23.6348 5.61307 23.4116 5.74137 22.8908C5.89353 22.273 5.94255 22.2494 5.97362 21.9575C6.01278 21.5889 6.00445 21.2838 5.9463 21.1349C5.77123 20.6868 5.73928 19.8543 5.72647 19.6577" fill="#E9B295"/>
<path d="M7.59402 25.2838C7.57992 25.2838 7.56575 25.2781 7.5555 25.2669C7.53163 25.2409 6.97391 24.6141 7.22675 23.0636C7.23139 23.0349 7.2587 23.0154 7.28697 23.0203C7.31556 23.0249 7.33502 23.0519 7.33037 23.0806C7.08667 24.5753 7.62741 25.1898 7.63294 25.1959C7.6524 25.2173 7.65096 25.2505 7.62957 25.2701C7.6194 25.2792 7.60675 25.2838 7.59402 25.2838Z" fill="#363649"/>
<path d="M6.96645 24.7449C6.94731 24.7449 6.92882 24.7344 6.91961 24.716C6.90183 24.6809 6.48538 23.8461 6.58052 23.0638C6.58404 23.0351 6.61015 23.0142 6.63898 23.018C6.66773 23.0216 6.68832 23.0477 6.68479 23.0765C6.59341 23.8275 7.00914 24.6603 7.0133 24.6686C7.02644 24.6945 7.01603 24.7261 6.99016 24.7392C6.98255 24.7431 6.97446 24.7449 6.96645 24.7449Z" fill="#363649"/>
<path d="M6.35965 23.997C6.33915 23.997 6.31961 23.9849 6.3112 23.9648C6.30119 23.9408 6.06582 23.3695 6.17377 22.789C6.17906 22.7605 6.20661 22.7415 6.23504 22.7471C6.26355 22.7524 6.28237 22.7797 6.277 22.8083C6.17473 23.3582 6.40571 23.9187 6.40811 23.9243C6.41932 23.951 6.40666 23.9818 6.37992 23.993C6.37327 23.9957 6.36638 23.997 6.35965 23.997Z" fill="#363649"/>
<path d="M10.1237 15.1632C10.1354 15.1271 10.1472 15.091 10.159 15.0552C10.6402 13.5991 11.2432 12.4206 11.6426 11.6947L8.00365 9.21289C7.44432 10.2294 6.87058 11.3937 6.40527 12.7494" fill="#8B95F7"/>
<path d="M6.41239 12.748C5.85314 14.3774 5.17008 19.112 5.88598 21.7368L9.10731 20.2455C9.20421 19.0269 9.80253 16.1772 10.1308 15.1618" fill="#E9B295"/>
<path d="M9.69711 16.6011C9.69239 16.6011 9.68766 16.6004 9.68286 16.5991C9.65499 16.5912 9.63865 16.5623 9.6465 16.5344L10.601 13.134C10.6088 13.1062 10.6375 13.0898 10.6657 13.0977C10.6936 13.1055 10.7099 13.1344 10.702 13.1624L9.74757 16.5628C9.74108 16.5859 9.72002 16.6011 9.69711 16.6011Z" fill="#363649"/>
<path d="M27.7788 12.1273C27.7438 11.9668 27.7992 11.793 27.9363 11.6837C28.2695 11.4178 28.4467 11.0666 28.3777 10.8093C28.3593 10.7412 28.3218 10.6749 28.2664 10.6121C28.1034 10.4276 28.1206 10.146 28.305 9.98292C28.4894 9.81986 28.771 9.83716 28.9341 10.0215C29.0816 10.1883 29.184 10.3754 29.2384 10.5777C29.4037 11.191 29.1175 11.8815 28.4923 12.3805C28.2998 12.534 28.0194 12.5025 27.8659 12.3101C27.8218 12.2547 27.793 12.1921 27.7788 12.1273Z" fill="#E9B295"/>
<path d="M29.1386 11.2639C29.1342 11.2639 29.1298 11.2634 29.1254 11.2624C29.094 11.2551 29.0744 11.2238 29.0817 11.1923C29.2524 10.4562 28.8573 9.96762 28.8532 9.96273C28.8327 9.9379 28.8362 9.90106 28.861 9.88056C28.8857 9.86006 28.9226 9.8635 28.9432 9.88833C28.961 9.90995 29.3789 10.4268 29.1953 11.2186C29.1892 11.2456 29.1652 11.2639 29.1386 11.2639Z" fill="#363649"/>
<path d="M28.2075 12.0119C28.1969 12.0119 28.1863 12.0091 28.1767 12.0031C28.1494 11.9861 28.1409 11.9501 28.158 11.9227C28.1602 11.919 28.3943 11.5242 28.1814 10.8001C28.0903 10.4903 28.0962 10.2435 28.1987 10.0665C28.2979 9.89524 28.4522 9.85672 28.4586 9.85512C28.49 9.84767 28.5215 9.86689 28.529 9.89828C28.5364 9.92952 28.5173 9.96091 28.4861 9.96852C28.4803 9.97004 28.3708 9.99991 28.2981 10.1277C28.2149 10.2737 28.2133 10.4949 28.2934 10.7671C28.5222 11.5454 28.268 11.9668 28.2571 11.9843C28.246 12.0022 28.227 12.0119 28.2075 12.0119Z" fill="#363649"/>
<path d="M27.1938 12.4867C27.1588 12.3262 27.2142 12.1524 27.3514 12.0431C27.6845 11.7772 27.8617 11.426 27.7927 11.1687C27.7744 11.1006 27.7369 11.0342 27.6815 10.9715C27.5185 10.787 27.5356 10.5053 27.7201 10.3423C27.9044 10.1792 28.1861 10.1965 28.3492 10.3809C28.4967 10.5477 28.599 10.7348 28.6535 10.9371C28.8187 11.5504 28.5326 12.241 27.9073 12.7398C27.7149 12.8934 27.4345 12.8619 27.281 12.6695C27.2368 12.6141 27.2079 12.5515 27.1938 12.4867Z" fill="#E9B295"/>
<path d="M28.5526 11.6194C28.5483 11.6194 28.5438 11.6189 28.5394 11.6179C28.508 11.6106 28.4885 11.5793 28.4958 11.5478C28.6664 10.8117 28.2714 10.3231 28.2673 10.3182C28.2468 10.2934 28.2502 10.2566 28.2751 10.2361C28.2998 10.2156 28.3366 10.2189 28.3572 10.2438C28.3751 10.2654 28.793 10.7823 28.6094 11.5741C28.6032 11.6011 28.5792 11.6194 28.5526 11.6194Z" fill="#363649"/>
<path d="M27.6186 12.3692C27.6081 12.3692 27.5974 12.3663 27.5878 12.3604C27.5605 12.3434 27.5521 12.3074 27.5691 12.28C27.5714 12.2763 27.8054 11.8815 27.5925 11.1575C27.5015 10.8476 27.5073 10.6007 27.6098 10.4238C27.709 10.2526 27.8633 10.2141 27.8698 10.2126C27.9011 10.205 27.9326 10.2244 27.9401 10.2557C27.9475 10.287 27.9284 10.3184 27.8972 10.326C27.8916 10.3274 27.782 10.3573 27.7092 10.4851C27.6261 10.6312 27.6245 10.8523 27.7045 11.1246C27.9333 11.9029 27.6792 12.3242 27.6682 12.3417C27.6571 12.3594 27.6381 12.3692 27.6186 12.3692Z" fill="#363649"/>
<path d="M26.6128 13.0082C26.5778 12.8477 26.6332 12.6739 26.7703 12.5646C27.1034 12.2987 27.2807 11.9475 27.2117 11.6902C27.1933 11.622 27.1558 11.5557 27.1004 11.4929C26.9374 11.3085 26.9546 11.0269 27.139 10.8638C27.3234 10.7007 27.605 10.718 27.7681 10.9024C27.9156 11.0692 28.018 11.2563 28.0724 11.4585C28.2376 12.0718 27.9515 12.7624 27.3263 13.2613C27.1338 13.4148 26.8534 13.3833 26.6999 13.1909C26.6558 13.1355 26.6269 13.073 26.6128 13.0082Z" fill="#E9B295"/>
<path d="M27.9637 12.1428C27.9594 12.1428 27.9549 12.1423 27.9505 12.1413C27.9191 12.134 27.8995 12.1027 27.9068 12.0712C28.0775 11.3352 27.6824 10.8466 27.6784 10.8417C27.6579 10.8168 27.6614 10.78 27.6862 10.7595C27.711 10.7389 27.7478 10.7424 27.7684 10.7673C27.7862 10.7889 28.204 11.3058 28.0205 12.0975C28.0143 12.1245 27.9903 12.1428 27.9637 12.1428Z" fill="#363649"/>
<path d="M27.0317 12.8928C27.0211 12.8928 27.0105 12.8899 27.0009 12.884C26.9736 12.8669 26.9652 12.8309 26.9822 12.8035C26.9845 12.7999 27.2185 12.405 27.0056 11.681C26.9145 11.3711 26.9204 11.1243 27.0229 10.9473C27.1221 10.7761 27.2764 10.7375 27.2829 10.7359C27.3143 10.7286 27.3457 10.7478 27.3532 10.7791C27.3606 10.8103 27.3415 10.8417 27.3103 10.8494C27.3045 10.8509 27.195 10.8807 27.1223 11.0085C27.0392 11.1546 27.0376 11.3757 27.1176 11.648C27.3464 12.4263 27.0923 12.8476 27.0813 12.8651C27.0702 12.883 27.0512 12.8928 27.0317 12.8928Z" fill="#363649"/>
<path d="M25.9663 13.3207C25.9313 13.1602 25.9867 12.9864 26.1238 12.8771C26.457 12.6112 26.6342 12.2599 26.5652 12.0027C26.5468 11.9345 26.5094 11.8682 26.4539 11.8054C26.291 11.621 26.3081 11.3393 26.4925 11.1763C26.6769 11.0132 26.9586 11.0305 27.1216 11.2149C27.2691 11.3817 27.3715 11.5688 27.4259 11.7711C27.5912 12.3844 27.305 13.0749 26.6798 13.5738C26.4873 13.7274 26.2069 13.6959 26.0534 13.5034C26.0092 13.4481 25.9804 13.3855 25.9663 13.3207Z" fill="#E9B295"/>
<path d="M27.3251 12.4572C27.3208 12.4572 27.3163 12.4567 27.3119 12.4557C27.2805 12.4484 27.2609 12.4171 27.2682 12.3857C27.4389 11.6496 27.0438 11.161 27.0397 11.1561C27.0192 11.1313 27.0227 11.0945 27.0475 11.074C27.0723 11.0534 27.1091 11.0569 27.1297 11.0817C27.1475 11.1033 27.5654 11.6202 27.3819 12.412C27.3756 12.439 27.3516 12.4572 27.3251 12.4572Z" fill="#363649"/>
<path d="M26.3894 13.2051C26.3772 13.2051 26.3649 13.2013 26.3544 13.1934C26.3286 13.1741 26.3234 13.1375 26.3428 13.1117C26.3456 13.108 26.6332 12.7071 26.4212 11.9856C26.3252 11.6589 26.3269 11.4047 26.4265 11.2299C26.5102 11.0829 26.6344 11.0499 26.6396 11.0486C26.6708 11.0409 26.7026 11.0596 26.7105 11.0908C26.7185 11.1219 26.6998 11.1534 26.6689 11.1615C26.6642 11.1629 26.5835 11.1872 26.5258 11.2914C26.47 11.392 26.426 11.5884 26.5331 11.9526C26.7627 12.7339 26.4494 13.1638 26.436 13.1817C26.4246 13.1971 26.4071 13.2051 26.3894 13.2051Z" fill="#363649"/>
</svg>
