<svg width="31" height="31" viewBox="0 0 31 31" fill="none" xmlns="http://www.w3.org/2000/svg">
<path d="M21.4782 2.12109H6.2262V28.1611H27.8952V8.63109L21.4782 2.12109Z" fill="#C5C5C5"/>
<path d="M25.7556 26.0237H8.45764V4.26172H19.3386V10.7717H25.8486V26.0237H25.7556Z" fill="#F5F5F5"/>
<path d="M11.5734 29.088C9.53281 29.088 7.53805 28.4829 5.84135 27.3492C4.14466 26.2155 2.82225 24.6041 2.04135 22.7189C1.26045 20.8336 1.05613 18.7591 1.45423 16.7577C1.85233 14.7563 2.83497 12.9179 4.27789 11.475C5.72081 10.0321 7.55919 9.04948 9.56058 8.65138C11.562 8.25328 13.6364 8.4576 15.5217 9.2385C17.407 10.0194 19.0183 11.3418 20.152 13.0385C21.2857 14.7352 21.8908 16.73 21.8908 18.7705C21.8879 21.506 20.7999 24.1286 18.8657 26.0628C16.9314 27.9971 14.3089 29.085 11.5734 29.088ZM11.5734 10.209C9.88143 10.209 8.22743 10.7106 6.82053 11.6505C5.41362 12.5904 4.31698 13.9264 3.66923 15.4894C3.02148 17.0525 2.85172 18.7726 3.1814 20.4321C3.51108 22.0917 4.32541 23.6162 5.52143 24.813C6.71745 26.0098 8.24146 26.8251 9.9008 27.1559C11.5601 27.4867 13.2803 27.318 14.8438 26.6713C16.4073 26.0246 17.7439 24.9288 18.6847 23.5225C19.6256 22.1162 20.1283 20.4625 20.1294 18.7705C20.1255 16.5026 19.2228 14.3286 17.6191 12.7249C16.0154 11.1212 13.8414 10.2185 11.5734 10.2145V10.209Z" fill="#33A9DC"/>
<path d="M2.27209 18.357H20.8749V19.1847H2.27209V18.357ZM11.7823 14.9234C9.11788 14.9341 6.46413 14.5869 3.89215 13.8911L4.11721 13.1406C8.99165 14.4242 14.1153 14.4242 18.9898 13.1406L19.212 13.8911C16.7983 14.592 14.2957 14.9397 11.7823 14.9234ZM4.13302 24.1872L3.91075 23.4367C8.92757 22.0846 14.2129 22.0846 19.2297 23.4367L19.0047 24.1872C14.1305 22.9037 9.00716 22.9037 4.13302 24.1872Z" fill="#33A9DC" stroke="#33A9DC" stroke-width="0.93" stroke-miterlimit="10"/>
<path d="M8.25826 27.2828C5.95064 21.8282 5.77277 15.7065 7.75977 10.1271L8.48145 10.4349C6.57403 15.8159 6.75087 21.7161 8.97714 26.9731L8.25826 27.2828ZM14.8278 27.2828L14.1061 26.9731C16.3318 21.7158 16.5079 15.8156 14.5999 10.4349L15.3216 10.1271C17.3101 15.7059 17.1339 21.8276 14.8278 27.2828ZM11.1589 9.4668H11.9857V28.4118H11.1589V9.4668Z" fill="#33A9DC" stroke="#33A9DC" stroke-width="0.93" stroke-miterlimit="10"/>
</svg>
