<svg width="56" height="56" viewBox="0 0 56 56" fill="none" xmlns="http://www.w3.org/2000/svg">
<path d="M17.1737 27.818C17.2126 26.5404 17.3884 25.2993 17.6872 24.1084C17.7198 23.9775 17.754 23.8472 17.7898 23.7176C17.7903 23.7161 17.7907 23.7146 17.791 23.7131L20.071 24.0968L22.2969 24.4713L25.4516 19.2753L22.705 15.6334C24.1058 14.3311 25.721 13.2588 27.489 12.4741C27.6999 12.3804 27.9131 12.2908 28.1284 12.2056C28.8388 11.9237 29.5718 11.6874 30.3239 11.5005C30.3246 11.5004 30.3253 11.5002 30.3261 11.5L30.3263 11.5005L30.332 11.516L31.88 15.7899L35.5353 15.9048L37.9555 15.981L38.1446 15.5466L39.4185 12.6191L39.7748 11.7999C39.7809 11.8018 39.787 11.8038 39.7931 11.8058C42.304 12.6049 44.5613 13.958 46.4262 15.7177L43.66 19.3356L46.5642 24.1911L46.7802 24.5523L48.7106 24.2405L48.9248 24.206L51.2806 23.8256C51.2817 23.8295 51.2826 23.8336 51.2837 23.8374C51.7135 25.4386 51.9195 27.1286 51.8668 28.8711C51.8289 30.1177 51.6602 31.3294 51.3748 32.494L51.2879 32.4818L48.9991 32.1627L48.5863 32.1051L46.8589 31.8642L46.6785 32.1811L43.8517 37.1469L46.6983 40.7085C45.3571 42.0293 43.8032 43.1322 42.0949 43.9624C41.6824 44.1629 41.2609 44.3476 40.8311 44.5155C40.8077 44.5247 40.7842 44.5337 40.7608 44.5427C40.2515 44.7394 39.7306 44.9124 39.1997 45.0609L39.1971 45.0545L38.9001 44.3013L38.5312 43.3659L38.0047 42.0307L37.524 40.8118L31.4454 40.7917L31.4421 40.7998L29.745 45.0211L29.7406 45.0319C29.0042 44.8215 28.2885 44.564 27.5965 44.2626C27.2566 44.1148 26.9223 43.9562 26.5942 43.7874C24.9886 42.9621 23.5304 41.8942 22.2668 40.6338L25.1421 37.0849L22.1698 31.7825L19.8863 32.0856L17.6379 32.384C17.6377 32.3833 17.6375 32.3826 17.6374 32.3818C17.6124 32.2776 17.5886 32.173 17.5658 32.0681C17.267 30.7026 17.1294 29.2786 17.1737 27.818ZM34.2518 37.1849C36.6132 37.2565 38.8612 36.4044 40.5815 34.7854C42.302 33.1664 43.2889 30.9742 43.3606 28.6129C43.4322 26.2516 42.5802 24.0035 40.961 22.2832C39.3421 20.5627 37.1499 19.5758 34.7886 19.5041C34.2824 19.4888 33.7814 19.5159 33.2899 19.5839C31.4878 19.833 29.8105 20.6317 28.4589 21.9038C26.7384 23.5228 25.7516 25.7148 25.6798 28.0761C25.6082 30.4376 26.4603 32.6855 28.0793 34.4058C29.4779 35.8918 31.3039 36.8305 33.2972 37.105C33.6116 37.1483 33.9301 37.1751 34.2518 37.1849Z" fill="#007DF0"/>
<path d="M15.336 23.7109H17.7894L18.2875 29.9458L17.6418 32.3807H15.1885L15.336 23.7109Z" fill="#007DF0"/>
<path d="M27.8793 11.5H30.3327L30.1298 14.6543L26.459 15.0417L27.8793 11.5Z" fill="#007DF0"/>
<path d="M39.7771 11.7969H37.3237L38.2276 15.9289L41.0683 12.627L39.7771 11.7969Z" fill="#007DF0"/>
<path d="M51.2878 23.8242H48.8344L47.7461 27.495H50.2364L51.2878 23.8242Z" fill="#007DF0"/>
<path d="M51.2877 32.4944H48.9266L47.3218 30.6682L51.2877 29.875V32.4944Z" fill="#007DF0"/>
<path d="M36.752 45.0532H39.2053L40.7605 43.9167L41.1237 43.6513L40.8417 43.3183L38.5781 40.6445L38.0045 42.0295L37.4514 43.3646L36.752 45.0532Z" fill="#007DF0"/>
<path d="M29.7423 45.0562H27.2889L25.5181 41.8281L29.9267 42.4553L29.7423 45.0562Z" fill="#007DF0"/>
<path d="M14.7201 27.818C14.7632 26.4008 14.9748 25.0286 15.3356 23.7198C15.3362 23.7176 15.3369 23.7154 15.3375 23.7132L17.687 24.1085L17.8227 24.1313L19.8433 24.4713L20.0708 24.0968L22.998 19.2753L20.2514 15.6335C22.3718 13.6623 24.9829 12.2179 27.8725 11.5L27.8758 11.5092L28.1281 12.2056L29.0564 14.7682L29.4264 15.7899L35.5019 15.981L35.5351 15.9048L37.3212 11.7999C37.3225 11.8003 37.3236 11.8007 37.3249 11.8012C38.0445 12.0294 38.7435 12.3033 39.4182 12.6191C39.8091 12.8021 40.1921 12.9991 40.5661 13.2096C41.8046 13.9067 42.948 14.7508 43.9726 15.7178L41.2064 19.3356L44.3266 24.5523L46.564 24.1911L48.827 23.8257C48.8281 23.8296 48.829 23.8334 48.8301 23.8373C48.8629 23.9596 48.8945 24.0826 48.9246 24.206C49.1848 25.268 49.347 26.3674 49.401 27.4935C49.423 27.9486 49.4272 28.4079 49.4132 28.8711C49.399 29.3419 49.366 29.8076 49.3151 30.2677C49.2441 30.9109 49.138 31.5432 48.9989 32.1627C48.9745 32.2715 48.9491 32.38 48.9227 32.4881C48.9222 32.4901 48.9218 32.4919 48.9212 32.494L46.6783 32.1811L44.4054 31.8642L41.3981 37.1469L44.2447 40.7085C43.2248 41.7127 42.0819 42.5913 40.8417 43.3196C40.7004 43.4026 40.5579 43.4836 40.4142 43.5625C39.9231 43.8326 39.4179 44.0792 38.8999 44.3013C38.2109 44.597 37.4994 44.8492 36.7688 45.0545C36.7612 45.0567 36.7537 45.0589 36.7461 45.0609L36.0776 43.3659L35.0705 40.8118L31.4419 40.7998L28.9918 40.7917L28.4104 42.2377L27.5964 44.2626L27.287 45.0319C27.283 45.0308 27.2789 45.0295 27.2749 45.0284C24.4111 44.2079 21.8577 42.673 19.8133 40.6338L22.6885 37.0849L19.8862 32.0856L19.7163 31.7825L17.7307 32.0461L17.5656 32.068L15.201 32.3818L15.1844 32.384C14.8357 30.9227 14.6723 29.3917 14.7201 27.818ZM31.7982 37.1849C32.3044 37.2002 32.8054 37.1731 33.297 37.105C35.099 36.856 36.7765 36.0574 38.1279 34.7854C39.8484 33.1664 40.8353 30.9742 40.907 28.6129C40.9786 26.2516 40.1266 24.0035 38.5073 22.2832C37.1091 20.7971 35.2829 19.8584 33.2896 19.5839C32.9753 19.5406 32.6567 19.5138 32.335 19.5041C29.9737 19.4325 27.7256 20.2847 26.0053 21.9038C24.2848 23.5228 23.2979 25.7148 23.2262 28.0761C23.1546 30.4376 24.0067 32.6855 25.6257 34.4058C27.2449 36.1263 29.4369 37.1131 31.7982 37.1849Z" fill="#007DF0"/>
<path opacity="0.1" d="M36.0776 43.3672L36.7461 45.0622C36.7537 45.0602 36.7613 45.058 36.7688 45.0558H39.1969L39.1995 45.0622C39.7304 44.9137 40.2513 44.7407 40.7606 44.5441V44.5168H40.8309C41.2607 44.3489 41.6822 44.1643 42.0947 43.9637H40.7606V43.7274C40.7606 43.6372 40.6872 43.5638 40.597 43.5638H40.2537V43.4873C40.2537 43.4211 40.1999 43.3672 40.1336 43.3672L36.0776 43.3672Z" fill="black"/>
<path d="M39.8802 45.5007C39.9472 45.5007 40.0016 45.4462 40.0016 45.3793V45.304H40.3446C40.435 45.304 40.5086 45.2305 40.5086 45.1401V44.9042H45.8297L46.4555 45.0588L46.4744 45.0523H46.6006L46.627 45.0588L47.3699 44.8028V44.4518L46.6755 44.2125C46.6641 44.2011 46.6486 44.1946 46.6323 44.1946H46.478C46.4718 44.1946 46.4656 44.1955 46.4597 44.1972L46.4555 44.1958L45.8297 44.3504H40.5086V44.1145C40.5086 44.0241 40.4351 43.9506 40.3447 43.9506H40.0016V43.8753C40.0016 43.8084 39.9472 43.7539 39.8802 43.7539H34.5088C34.3303 43.7539 34.1851 43.8992 34.1851 44.0777V45.1769C34.1851 45.3555 34.3303 45.5007 34.5088 45.5007L39.8802 45.5007Z" fill="black"/>
<path opacity="0.1" d="M40.5533 44.3906H40.4746V44.8757H40.5533V44.3906Z" fill="black"/>
<path d="M46.6257 44.2383L47.3359 44.483V44.7851L46.6257 45.0298L46.0058 44.8766H40.4746V44.3915H46.0058L46.6257 44.2383Z" fill="#FBB5A5"/>
<path d="M40.3449 43.9883H39.8452V45.2731H40.3449C40.4165 45.2731 40.4745 45.2151 40.4745 45.1435V44.1179C40.4745 44.0463 40.4165 43.9883 40.3449 43.9883Z" fill="#B93516"/>
<path opacity="0.1" d="M40.0463 43.9883H39.8452V45.2731H40.0463V43.9883Z" fill="black"/>
<path d="M34.3911 44.0823V45.1818C34.3911 45.3416 34.5206 45.4711 34.6804 45.4711H39.8805C39.9286 45.4711 39.9676 45.4322 39.9676 45.3841V43.88C39.9676 43.8319 39.9286 43.793 39.8805 43.793H34.6804C34.5207 43.793 34.3911 43.9225 34.3911 44.0823Z" fill="#B93516"/>
<g opacity="0.1">
<path d="M35.0991 45.0665V45.2154C35.0991 45.2371 35.1167 45.2546 35.1383 45.2546H39.2204C39.242 45.2546 39.2596 45.2371 39.2596 45.2154V45.0665C39.2596 45.0449 39.242 45.0273 39.2204 45.0273H35.1383C35.1167 45.0273 35.0991 45.0449 35.0991 45.0665Z" fill="black"/>
<path d="M35.0991 44.5587V44.7076C35.0991 44.7292 35.1167 44.7468 35.1383 44.7468H39.2204C39.242 44.7468 39.2596 44.7292 39.2596 44.7076V44.5587C39.2596 44.5371 39.242 44.5195 39.2204 44.5195H35.1383C35.1167 44.5195 35.0991 44.5371 35.0991 44.5587Z" fill="black"/>
<path d="M35.0991 44.0509V44.1998C35.0991 44.2214 35.1167 44.239 35.1383 44.239H39.2204C39.242 44.239 39.2596 44.2214 39.2596 44.1998V44.0509C39.2596 44.0293 39.242 44.0117 39.2204 44.0117H35.1383C35.1167 44.0117 35.0991 44.0293 35.0991 44.0509Z" fill="black"/>
</g>
<path d="M46.4782 44.2305H46.6325C46.6445 44.2305 46.655 44.2383 46.6586 44.2497L46.8242 44.7794L46.6355 45.0196H46.4468L46.4475 44.262C46.4471 44.2447 46.461 44.2305 46.4782 44.2305Z" fill="#FBB5A5"/>
<path d="M46.4536 44.2383L47.1637 44.483V44.7851L46.4536 45.0298L45.8336 44.8766H40.3711V44.3915H45.8336L46.4536 44.2383Z" fill="#FEE9E4"/>
<path d="M40.173 43.9883H39.6733V45.2731H40.173C40.2446 45.2731 40.3027 45.2151 40.3027 45.1435V44.1179C40.3026 44.0463 40.2446 43.9883 40.173 43.9883Z" fill="#F6471E"/>
<path opacity="0.1" d="M39.8744 43.9883H39.6733V45.2731H39.8744V43.9883Z" fill="black"/>
<path d="M34.2192 44.0823V45.1818C34.2192 45.3416 34.3488 45.4711 34.5086 45.4711H39.7086C39.7567 45.4711 39.7957 45.4322 39.7957 45.3841V43.88C39.7957 43.8319 39.7567 43.793 39.7086 43.793H34.5086C34.3488 43.793 34.2192 43.9225 34.2192 44.0823Z" fill="#F6471E"/>
<g opacity="0.1">
<path d="M34.9272 45.0665V45.2154C34.9272 45.2371 34.9448 45.2546 34.9664 45.2546H39.0485C39.0702 45.2546 39.0877 45.2371 39.0877 45.2154V45.0665C39.0877 45.0449 39.0702 45.0273 39.0485 45.0273H34.9664C34.9448 45.0273 34.9272 45.0449 34.9272 45.0665Z" fill="black"/>
<path d="M34.9272 44.5587V44.7076C34.9272 44.7292 34.9448 44.7468 34.9664 44.7468H39.0485C39.0702 44.7468 39.0877 44.7292 39.0877 44.7076V44.5587C39.0877 44.5371 39.0702 44.5195 39.0485 44.5195H34.9664C34.9448 44.5195 34.9272 44.5371 34.9272 44.5587Z" fill="black"/>
<path d="M34.9272 44.0509V44.1998C34.9272 44.2214 34.9448 44.239 34.9664 44.239H39.0485C39.0702 44.239 39.0877 44.2214 39.0877 44.1998V44.0509C39.0877 44.0293 39.0702 44.0117 39.0485 44.0117H34.9664C34.9448 44.0117 34.9272 44.0293 34.9272 44.0509Z" fill="black"/>
</g>
<path opacity="0.1" d="M40.4255 44.3906H40.374V44.8757H40.4255V44.3906Z" fill="black"/>
<path d="M16.0228 34.4966L16.0285 34.4512L18.5958 27.5281L18.7203 27.1925L15.3398 25.9492L13.9777 31.9243L13.6333 33.7324C13.596 33.9283 13.7273 34.1165 13.9241 34.1491L16.0228 34.4966Z" fill="#040C2B"/>
<path d="M16.8555 40.8526C16.8555 40.8526 17.4948 42.7172 17.3658 43.2021L19.081 43.1634L17.904 40.1328L16.8555 40.8526Z" fill="#DB965F"/>
<path d="M17.6849 44.4015C17.6849 44.4015 16.4111 45.0443 15.3165 44.9881C15.1533 44.9797 15.0217 44.8392 15.02 44.6686C15.018 44.4619 15.1374 44.187 15.6696 43.9727C15.6696 43.9727 17.0088 42.9751 17.3055 42.3484C17.3055 42.3484 18.259 42.6116 18.6938 42.1523C18.6938 42.1523 19.1458 42.3611 19.3345 42.9247C19.4719 43.3348 19.2651 43.777 18.8762 43.9143C18.4682 44.0583 17.9293 44.2601 17.6849 44.4015Z" fill="#040C2B"/>
<path d="M15.9863 33.4453L18.2304 40.7141L17.9124 40.8385L16.6109 41.3472L13.627 33.947L15.9863 33.4453Z" fill="#040C2B"/>
<path opacity="0.15" d="M15.5449 34.0298L17.9124 40.8388L18.2305 40.7144L16.1752 34.0573L18.5958 27.5301L17.6278 26.75L16.9885 28.6885L15.5449 34.0298Z" fill="black"/>
<path d="M18.3044 41.4939C18.3044 41.4939 18.3119 43.465 18.0342 43.8829L19.6711 44.3965L19.5284 41.1484L18.3044 41.4939Z" fill="#DB965F"/>
<path d="M17.8986 45.3358C17.8986 45.3358 16.486 45.5361 15.4672 45.1317C15.3154 45.0714 15.2358 44.8962 15.2889 44.734C15.3533 44.5376 15.5546 44.3155 16.1274 44.2833C16.1274 44.2833 17.7158 43.768 18.1979 43.2695C18.1979 43.2695 19.0735 43.7259 19.6327 43.4304C19.6327 43.4304 19.9368 43.8719 19.9348 44.4663C19.9333 44.8988 19.5956 45.2512 19.1833 45.2565C18.7506 45.2621 18.1754 45.2803 17.8986 45.3358Z" fill="#040C2B"/>
<path d="M17.4838 35.6504L17.9785 42.2261L19.788 42.3187L20.2378 34.6883L20.8793 30.8539C20.9424 30.5297 21.2174 29.7862 21.2599 29.501C21.4173 28.4474 21.2577 27.5875 21.2403 27.0333C21.2185 26.3369 21.0895 26.5225 21.0895 26.5225L18.1571 25.75L17.5315 32.069C17.4135 33.2602 17.3976 34.4588 17.4838 35.6504Z" fill="#040C2B"/>
<path d="M8.29692 22.035C8.29692 22.035 8.38967 22.6911 9.80845 22.9214H9.80864C9.85937 22.9297 9.91175 22.9375 9.96581 22.9445L14.5154 24.3822C14.7176 24.4459 14.9338 24.3428 15.0178 24.1423L15.0963 23.9322L15.1341 23.8289V23.8287L15.5299 22.7442L15.9477 21.5994L15.3133 21.5045L15.2663 21.4974L15.0997 21.4726L14.9577 21.4513L14.3268 21.3569L14.24 21.7118L14.0278 22.5795L14.0241 22.5948L13.9486 22.9036L10.6847 21.9045C10.6847 21.9045 10.519 21.3991 9.9984 20.8828C9.88195 20.9119 9.82994 21.0529 9.89843 21.1546L10.0989 21.4535C10.0771 21.4367 9.27031 20.8165 8.73234 21.0157C8.73234 21.0157 8.26138 21.226 8.22102 21.6509C8.21029 21.7636 8.22992 21.8917 8.29692 22.035Z" fill="#DB965F"/>
<path d="M19.5408 18.2252L19.533 19.6502L17.4155 20.0367L16.1855 19.4087L16.7176 18.7186L17.0117 18.3371C17.0705 18.2606 17.0956 18.1622 17.0805 18.0658L16.8239 16.4298L18.8869 15.5039L18.7129 16.804L18.6844 17.0175C18.6222 17.7099 19.5408 18.2252 19.5408 18.2252Z" fill="#C9885B"/>
<path opacity="0.1" d="M18.8871 15.5039L18.6924 16.9773C17.9692 18.2775 17.0541 18.582 16.7178 18.7186L17.0119 18.3371C17.0707 18.2606 17.0958 18.1622 17.0807 18.0658L16.8241 16.4298L18.8871 15.5039Z" fill="black"/>
<path d="M19.1825 15.6483L18.9411 16.2682C18.6775 16.6665 18.4165 16.9726 18.1748 17.2075C17.4883 17.8746 16.956 17.967 16.956 17.967C16.7279 18.005 16.5422 17.8321 16.3926 17.5562C15.9708 16.7784 15.835 15.1813 15.835 15.1813L18.4663 14.8594L19.1825 15.6483Z" fill="#DB965F"/>
<path d="M19.1954 16.1335C18.9837 16.8801 18.6817 17.0754 18.6817 17.0754L18.7234 16.5916L18.9025 16.2937C19.1827 15.5853 18.6845 15.6658 18.6845 15.6658C18.2797 15.7785 18.2953 16.2937 18.2953 16.2937H18.1552C18.0617 16.1488 18.0306 15.6496 18.0306 15.6496C17.3182 14.7998 16.445 15.3632 15.9111 15.4267C15.6872 15.4533 15.5396 15.2073 15.5232 15.0433C15.4285 14.096 16.5536 13.7559 16.5536 13.7559C16.5536 13.7559 17.9865 13.4009 18.7541 14.2233C19.2133 14.7153 19.3344 15.6432 19.1954 16.1335Z" fill="black"/>
<path d="M13.8735 22.5255L14.0277 22.581L14.0707 22.5963L14.9665 22.9177L15.149 22.9833L15.3993 23.073L15.3745 22.6215L15.3133 21.506L15.3129 21.4989L15.1861 19.1897C15.1861 19.1897 15.1501 19.1729 15.0863 19.1951C15.0787 19.1977 15.0707 19.2008 15.0624 19.2047C14.8728 19.2921 14.4872 19.7138 14.0668 21.5747C14.0029 21.8571 13.9383 22.1728 13.8735 22.5255Z" fill="white"/>
<path opacity="0.1" d="M15.9942 21.6803L15.1429 23.9653L14.9663 22.9702L15.0041 21.5352L15.0622 19.3332C15.141 19.2977 15.186 19.3186 15.186 19.3186L15.3127 21.5805L15.9942 21.6803Z" fill="black"/>
<path d="M14.8174 27.3979L15.2341 27.4147L15.4313 27.4229L17.4239 27.5036L18.7426 27.5571L20.8735 27.6437L21.3275 27.662L21.3234 27.3821L21.32 27.1494L21.3115 26.5574L21.3095 26.42L21.3156 26.1125L21.3239 25.689L21.3271 25.5227L21.3354 25.0969L21.3558 24.0556L21.3672 23.4658L21.3932 22.1376C21.3934 22.1272 21.3932 22.1168 21.3926 22.1063L21.3871 21.9989L21.3713 21.6877L21.3571 21.4091L21.2988 20.263L21.2688 19.673L21.2534 19.3685L19.6997 18.3177L19.6267 18.2685L19.1897 17.9727C19.1897 17.9727 19.5007 18.5676 18.0695 19.255C17.9543 19.3105 17.8299 19.3394 17.7063 19.3405C17.6768 19.3411 17.6476 19.3398 17.6181 19.3372C17.4949 19.3256 17.374 19.2867 17.2647 19.2193C17.03 19.0749 16.8421 18.8068 17.0308 18.3124L16.5413 18.5308L16.4872 18.5551L15.1423 19.1552C15.121 19.1647 15.1021 19.178 15.0862 19.1941C15.0494 19.2313 15.0281 19.2837 15.0299 19.3393L15.0408 19.6731L15.0601 20.263L15.0975 21.4092L15.0995 21.4732L15.1169 21.9989L15.1308 22.4255L15.149 22.9823L15.1647 23.4627V23.4659C15.1654 23.4835 15.1645 23.5012 15.163 23.5188L15.134 23.8293V23.8295L15.1127 24.0557L15.0181 25.0703L14.9757 25.5228L14.9627 25.6622L14.9207 26.1126L14.887 26.5304L14.8526 26.9595L14.8394 27.1222L14.8174 27.3979Z" fill="white"/>
<path opacity="0.1" d="M17.6456 19.3349L17.4233 27.5357L17.3188 27.5356L17.5901 19.3164C17.5901 19.3164 17.6151 19.3354 17.6456 19.3349Z" fill="black"/>
<path opacity="0.1" d="M8.22119 21.6509L9.80863 22.9214H9.80881C9.85954 22.9297 9.91192 22.9375 9.96598 22.9445L14.5156 24.3822C14.7177 24.4459 14.934 24.3428 15.018 24.1423L15.0965 23.9322L15.1343 23.8289L15.113 24.0551L15.0184 25.0698L14.976 25.5222L14.963 25.6616L14.921 26.112L14.8873 26.5298L14.8529 26.9589L15.2366 27.2661L15.4316 27.4223L17.4459 29.0346L18.4067 29.8036L20.6363 31.5882L20.7459 31.4512L20.8239 30.0092C20.9011 29.0562 20.9055 28.2728 20.8738 27.6432L21.3277 27.6615L21.3237 27.3816L20.8235 26.9812L18.7014 25.2827L14.0801 21.4709C14.0163 21.7534 13.9385 22.1713 13.8737 22.524L14.0279 22.5795L14.0242 22.5949L13.9487 22.9036L10.6848 21.9045C10.6848 21.9045 10.5191 21.3991 9.99857 20.8828C9.88212 20.9119 9.83011 21.0529 9.8986 21.1546L10.0991 21.4535C10.0772 21.4367 9.27048 20.8165 8.73251 21.0157C8.73251 21.0157 8.26155 21.226 8.22119 21.6509Z" fill="black"/>
<path opacity="0.1" d="M17.3868 19.2806C17.3825 19.289 17.3128 19.4842 17.0732 19.4269L16.9711 19.8419C16.9711 19.8419 16.3131 19.5398 16.3872 18.6141L16.4797 18.5586C16.4487 18.8902 16.4057 19.4102 16.9439 19.734L17.0409 19.3138C17.0409 19.3138 17.1929 19.4905 17.3868 19.2806Z" fill="black"/>
<path opacity="0.1" d="M19.7772 18.3112C19.5957 18.7598 19.1651 19.358 18.1657 19.9397L18.0202 19.6003C18.0202 19.6003 17.8125 19.5953 17.8125 19.3361C17.8865 19.5398 17.9727 19.5369 18.0525 19.5033L18.1657 19.8266C18.1657 19.8266 19.469 19.1527 19.7016 18.2617L19.7772 18.3112Z" fill="black"/>
<path opacity="0.1" d="M20.5151 23.9644L20.6997 24.8284L21.1036 26.719L21.3852 28.0371L21.3095 26.4225L21.3098 26.4008L21.3933 22.1243L21.2243 21.5283L20.6447 19.4844C19.682 20.2249 20.0349 22.7661 20.5151 23.9644Z" fill="black"/>
<path d="M7.66846 16.7352L9.75596 18.4763C10.645 19.2179 10.8855 20.3947 10.2931 21.1049C9.7008 21.815 8.49991 21.7896 7.61089 21.048L5.52088 19.3048C5.37364 20.6392 6.00888 22.1641 7.3065 23.2641C8.2562 24.0691 9.3772 24.4876 10.4197 24.5145C10.9325 24.5277 11.464 24.7422 11.8988 25.1049L21.1192 32.7956C22.1978 33.6953 23.6549 33.7262 24.3735 32.8646C25.0922 32.0029 24.8004 30.5751 23.7218 29.6754L14.524 22.0035C14.0845 21.637 13.7779 21.1462 13.6745 20.6388C13.4677 19.6235 12.8654 18.5997 11.9166 17.8083C10.6021 16.712 8.96823 16.3498 7.66846 16.7352ZM23.2191 31.8864C22.9167 32.2489 22.334 32.2612 21.9175 31.9139C21.5011 31.5665 21.4087 30.9911 21.7111 30.6286C22.0135 30.266 22.5962 30.2537 23.0126 30.601C23.429 30.9484 23.5214 31.5238 23.2191 31.8864Z" fill="#829CF8"/>
<path d="M20.4148 30.7249L20.1842 31.0013C20.1671 31.0218 20.1366 31.0246 20.1161 31.0075L12.3815 24.556C12.3669 24.5439 12.365 24.5223 12.3771 24.5077L12.6167 24.2205C12.6338 24.2 12.6643 24.1972 12.6848 24.2144L20.4086 30.6568C20.4291 30.6739 20.4319 30.7044 20.4148 30.7249Z" fill="#6275BA"/>
<path d="M21.8025 29.0609L21.5719 29.3372C21.5548 29.3578 21.5243 29.3605 21.5038 29.3434L13.7692 22.892C13.7546 22.8798 13.7527 22.8582 13.7648 22.8437L14.0043 22.5565C14.0215 22.5359 14.052 22.5332 14.0725 22.5503L21.7963 28.9927C21.8168 29.0099 21.8196 29.0404 21.8025 29.0609Z" fill="#6275BA"/>
<path opacity="0.1" d="M17.4561 29.3736V29.3764L17.4565 29.3792C17.4854 29.6643 17.6842 30.2034 18.229 30.2034C18.2718 30.2034 18.3164 30.2 18.3617 30.1934C18.3693 30.1939 18.3792 30.1945 18.391 30.1945C18.5678 30.1945 19.19 30.091 19.7787 28.7624L21.1036 26.7188L20.6997 24.8281L18.899 27.6126C18.7513 27.6257 18.2964 27.6901 17.7577 27.9991L17.7146 28.0239L17.7112 28.0735C17.7064 28.1496 17.732 28.2216 17.7834 28.2764C17.8327 28.3292 17.9017 28.3593 17.9726 28.3593C17.9761 28.3593 17.9796 28.3593 17.9832 28.3592C17.7362 28.6087 17.4409 28.9901 17.4561 29.3736Z" fill="black"/>
<path d="M21.9415 21.2812L20.4591 22.0083L21.2054 24.2188L18.9517 27.7036C18.9517 27.7036 18.4359 27.7186 17.8039 28.0811C17.7959 28.2048 17.9106 28.2976 18.025 28.26L18.3612 28.1494C18.3612 28.1494 17.5251 28.7731 17.5488 29.3716C17.5488 29.3716 17.6346 30.2162 18.3597 30.1018C18.3597 30.1018 19.0392 30.2103 19.6973 28.7199L22.3142 24.6836C22.4419 24.4866 22.4895 24.2457 22.4465 24.0133L21.9415 21.2812Z" fill="#DB965F"/>
<path d="M20.9429 19.2109C20.9429 19.2109 21.8965 19.1857 22.2391 22.5672L20.5887 23.1951C20.5887 23.1951 19.3198 19.4294 20.9429 19.2109Z" fill="white"/>
<path d="M18.7567 15.8922C18.7567 15.8922 18.6826 13.4671 16.5537 13.7448C16.5537 13.7448 18.3124 13.7818 18.4235 15.9478L18.7567 15.8922Z" fill="white"/>
<path d="M16.6853 17.4671C17.2797 17.4378 17.7295 17.1323 18.0021 16.8811C18.2967 16.6097 18.4493 16.3489 18.4557 16.3379L18.3916 16.3008C18.3856 16.3112 17.777 17.3393 16.6816 17.3931L16.6853 17.4671Z" fill="white"/>
<path opacity="0.1" d="M17.8682 16.1403C17.8682 16.5129 18.1712 16.816 18.5439 16.816C18.9165 16.816 19.2196 16.5129 19.2196 16.1403C19.2196 15.8235 19.0006 15.5571 18.706 15.4844C18.7516 15.7245 18.7568 15.8904 18.7568 15.8904L18.4235 15.9459C18.415 15.7808 18.3971 15.6282 18.371 15.487C18.0818 15.5636 17.8682 15.8274 17.8682 16.1403Z" fill="black"/>
<path opacity="0.1" d="M18.3711 15.4911C18.3972 15.6324 18.4152 15.7849 18.4237 15.9501L18.7569 15.8945C18.7569 15.8945 18.7517 15.7287 18.7062 15.4886C18.6541 15.4756 18.5999 15.4688 18.544 15.4688C18.4842 15.4687 18.4263 15.4765 18.3711 15.4911Z" fill="black"/>
<path d="M18.6384 16.718C18.9563 16.6664 19.1722 16.3668 19.1206 16.0489C19.069 15.731 18.7695 15.5151 18.4516 15.5667C18.1337 15.6183 17.9178 15.9179 17.9694 16.2358C18.021 16.5537 18.3205 16.7696 18.6384 16.718Z" fill="white"/>
<path opacity="0.1" d="M18.5439 16.5771C18.7842 16.5771 18.979 16.3823 18.979 16.1421C18.979 15.9018 18.7842 15.707 18.5439 15.707C18.3037 15.707 18.1089 15.9018 18.1089 16.1421C18.1089 16.3823 18.3037 16.5771 18.5439 16.5771Z" fill="black"/>
<path d="M18.544 16.5421C18.7638 16.5421 18.942 16.3639 18.942 16.1441C18.942 15.9243 18.7638 15.7461 18.544 15.7461C18.3242 15.7461 18.146 15.9243 18.146 16.1441C18.146 16.3639 18.3242 16.5421 18.544 16.5421Z" fill="#E3E9F7"/>
<path d="M16.4915 17.5132H16.6995C16.7469 17.5132 16.7853 17.4749 16.7853 17.4275V17.4138C16.7853 17.3665 16.7469 17.3281 16.6995 17.3281H16.4915C16.4441 17.3281 16.4058 17.3665 16.4058 17.4138V17.4275C16.4058 17.4749 16.4441 17.5132 16.4915 17.5132Z" fill="#E3E9F7"/>
</svg>
