<svg width="22" height="22" viewBox="0 0 22 22" fill="none" xmlns="http://www.w3.org/2000/svg">
<path fill-rule="evenodd" clip-rule="evenodd" d="M9.23516 2.44033L4.77819 4.51608C3.48901 5.1165 2.63826 6.46108 2.7203 7.93692C3.04101 13.7067 4.65339 16.2468 8.8431 19.2191C9.953 20.0065 11.416 20.0084 12.5251 19.2198C16.7277 16.2313 18.2824 13.6553 18.6313 7.95691C18.7222 6.47131 17.8701 5.11245 16.572 4.50785L12.1327 2.44033C11.2103 2.01077 10.1575 2.01077 9.23516 2.44033ZM9.79179 15.3874C9.79179 14.8988 10.1878 14.5028 10.6764 14.5028C11.165 14.5028 11.561 14.8988 11.561 15.3874C11.561 15.876 11.165 16.272 10.6764 16.272C10.1878 16.272 9.79179 15.876 9.79179 15.3874ZM10.0129 12.7335C10.0129 13.1 10.31 13.397 10.6764 13.397C11.0428 13.397 11.3399 13.1 11.3399 12.7335L11.3399 6.54124C11.3399 6.17482 11.0428 5.87778 10.6764 5.87778C10.31 5.87778 10.0129 6.17482 10.0129 6.54124L10.0129 12.7335Z" fill="#79AE00"/>
</svg>
