<svg width="30" height="30" viewBox="0 0 30 30" fill="none" xmlns="http://www.w3.org/2000/svg">
<path d="M3.22028 12H26.7803V23.78H3.22028V12Z" fill="#CFD8DC"/>
<path d="M3.22028 23.7793H26.7803V26.2593H3.22028V23.7793Z" fill="#B0BEC5"/>
<path d="M16.8599 15.0977H24.2999V26.2577H16.8599V15.0977Z" fill="#455A64"/>
<path d="M5.70026 15.0977H14.3803V21.9177H5.70026V15.0977Z" fill="#E3F2FD"/>
<path d="M6.31989 15.7207H13.7599V21.3007H6.31989V15.7207Z" fill="#1E88E5"/>
<path d="M14.9996 13.8587C16.0269 13.8587 16.8596 13.0259 16.8596 11.9987C16.8596 10.9714 16.0269 10.1387 14.9996 10.1387C13.9724 10.1387 13.1396 10.9714 13.1396 11.9987C13.1396 13.0259 13.9724 13.8587 14.9996 13.8587Z" fill="#558B2F"/>
<path d="M22.4396 13.8587C23.4668 13.8587 24.2996 13.0259 24.2996 11.9987C24.2996 10.9714 23.4668 10.1387 22.4396 10.1387C21.4123 10.1387 20.5796 10.9714 20.5796 11.9987C20.5796 13.0259 21.4123 13.8587 22.4396 13.8587Z" fill="#558B2F"/>
<path d="M7.55971 13.8587C8.58696 13.8587 9.41971 13.0259 9.41971 11.9987C9.41971 10.9714 8.58696 10.1387 7.55971 10.1387C6.53246 10.1387 5.69971 10.9714 5.69971 11.9987C5.69971 13.0259 6.53246 13.8587 7.55971 13.8587Z" fill="#558B2F"/>
<path d="M24.9199 3.93945H5.0799C4.3979 3.93945 3.8399 4.49745 3.8399 5.17945V7.03945H26.1599V5.17945C26.1599 4.49745 25.6019 3.93945 24.9199 3.93945ZM13.1399 7.03945H16.8599V11.9995H13.1399V7.03945ZM23.0599 7.03945H19.9599L20.5799 11.9995H24.2999L23.0599 7.03945ZM6.9399 7.03945H10.0399L9.4199 11.9995H5.6999L6.9399 7.03945Z" fill="#7CB342"/>
<path d="M18.7204 13.8587C19.7476 13.8587 20.5804 13.0259 20.5804 11.9987C20.5804 10.9714 19.7476 10.1387 18.7204 10.1387C17.6931 10.1387 16.8604 10.9714 16.8604 11.9987C16.8604 13.0259 17.6931 13.8587 18.7204 13.8587Z" fill="#FFA000"/>
<path d="M28.0208 11.9987C28.0208 13.0527 27.2148 13.8587 26.1608 13.8587C25.1068 13.8587 24.3008 13.0527 24.3008 11.9987C24.3008 10.9447 25.1068 10.1387 26.1608 10.1387L28.0208 11.9987Z" fill="#FFA000"/>
<path d="M11.2808 13.8587C12.3081 13.8587 13.1408 13.0259 13.1408 11.9987C13.1408 10.9714 12.3081 10.1387 11.2808 10.1387C10.2536 10.1387 9.42084 10.9714 9.42084 11.9987C9.42084 13.0259 10.2536 13.8587 11.2808 13.8587Z" fill="#FFA000"/>
<path d="M1.98022 11.9987C1.98022 13.0527 2.78622 13.8587 3.84022 13.8587C4.89422 13.8587 5.70022 13.0527 5.70022 11.9987C5.70022 10.9447 4.89422 10.1387 3.84022 10.1387L1.98022 11.9987Z" fill="#FFA000"/>
<path d="M19.9596 7.04102H16.8596V12.001H20.5796L19.9596 7.04102ZM26.1596 7.04102H23.0596L24.2996 12.001H28.0196L26.1596 7.04102ZM10.0396 7.04102H13.1396V12.001H9.41955L10.0396 7.04102ZM3.83955 7.04102H6.93955L5.69955 12.001H1.97955L3.83955 7.04102Z" fill="#FFC107"/>
</svg>
