<svg width="34" height="35" viewBox="0 0 34 35" fill="none" xmlns="http://www.w3.org/2000/svg">
<rect y="0.5" width="34" height="34" rx="17" fill="white"/>
<path fill-rule="evenodd" clip-rule="evenodd" d="M12.0023 22.9429C12.0023 22.9429 11.2011 14.492 13.9094 13.3862C16.6177 12.2803 19.0982 11.555 22.0164 14.7412C24.9355 17.9265 20.5283 22.2828 20.5283 22.2828C20.5283 22.2828 18.6918 23.3663 15.6047 23.3842C12.5177 23.4003 12.0023 22.9429 12.0023 22.9429Z" fill="#F68923"/>
<path d="M11.9112 20.0297C11.7227 19.9091 11.6674 19.659 11.7879 19.4696C11.9085 19.2811 12.1586 19.2257 12.348 19.3463C12.3497 19.3472 13.1903 19.8724 14.1461 19.8537C14.39 19.8492 14.6427 19.8063 14.8883 19.7063C15.1019 19.6188 15.3108 19.4884 15.5047 19.3017C15.6655 19.1463 15.9219 19.1498 16.0782 19.3106C16.2336 19.4714 16.23 19.7278 16.0692 19.884C15.7923 20.1511 15.4967 20.337 15.1974 20.4593C14.8553 20.5995 14.5033 20.6585 14.1631 20.6647C12.9661 20.6889 11.9139 20.0324 11.9112 20.0297Z" fill="black"/>
<path d="M14.8505 16.6144C15.0291 16.4786 15.2837 16.5125 15.4195 16.6912C15.5552 16.8698 15.5213 17.1244 15.3426 17.2602C15.3382 17.2637 13.9295 18.3115 14.5387 20.1319C14.6101 20.3455 14.4949 20.575 14.2824 20.6465C14.0688 20.7179 13.8393 20.6027 13.7678 20.3901C12.9729 18.0123 14.846 16.6179 14.8505 16.6144Z" fill="black"/>
<path d="M18.1201 19.7299C17.9459 19.5888 17.9191 19.3333 18.0603 19.1582C18.2014 18.984 18.4569 18.9572 18.632 19.0984L18.7105 19.1618C19.2438 19.5878 20.4658 20.5633 20.5229 22.356C20.5292 22.5802 20.3532 22.7678 20.129 22.774C19.9048 22.7803 19.7172 22.6043 19.711 22.3801C19.6663 20.9643 18.6472 20.1497 18.2032 19.7951L18.1201 19.7299Z" fill="black"/>
<path d="M19.6896 18.0994C19.6181 17.8868 19.7334 17.6573 19.9459 17.5876C20.1585 17.5162 20.3881 17.6314 20.4578 17.844C20.4587 17.8484 21.0089 19.4286 19.6834 20.6907C19.5217 20.8453 19.2644 20.8399 19.1099 20.6773C18.9553 20.5157 18.9607 20.2584 19.1233 20.1038C20.0737 19.1999 19.6905 18.103 19.6896 18.0994Z" fill="black"/>
<path d="M13.3156 14.8102C13.1101 14.8986 12.8716 14.8048 12.7823 14.5994C12.6939 14.3939 12.7876 14.1554 12.9931 14.0661C12.9993 14.0625 15.3066 13.0156 17.7282 15.2023C19.6861 16.9709 20.4552 16.275 20.4579 16.2724C20.6285 16.1268 20.8858 16.1491 21.0314 16.3197C21.1769 16.4903 21.1546 16.7476 20.984 16.8932C20.9804 16.8967 19.6772 18.0562 17.1842 15.8052C15.1565 13.9732 13.3218 14.8083 13.3156 14.8102Z" fill="black"/>
<path d="M17.409 19.7395C17.25 19.8985 16.9919 19.8985 16.8338 19.7395C16.6756 19.5805 16.6748 19.3224 16.8338 19.1643C16.8373 19.1607 17.9923 18.0209 17.6394 16.0522C17.6002 15.8316 17.7467 15.6199 17.9682 15.5806C18.1897 15.5413 18.4005 15.6878 18.4398 15.9093C18.8686 18.2996 17.4126 19.7368 17.409 19.7395Z" fill="black"/>
<path d="M19.0318 13.5701C19.2462 13.6344 19.3686 13.8613 19.3043 14.0757C19.2399 14.29 19.013 14.4124 18.7986 14.3481C18.7969 14.3472 17.9135 14.0855 16.9515 15.1555C16.8014 15.3217 16.5442 15.3351 16.378 15.1851C16.2119 15.035 16.1985 14.7777 16.3485 14.6116C17.6536 13.1592 19.0282 13.5683 19.0318 13.5701Z" fill="black"/>
<path d="M16.7836 21.131C16.7246 20.9157 16.8506 20.6907 17.0667 20.6317C17.2838 20.5728 17.5071 20.6987 17.5661 20.9149C17.567 20.9193 18.0198 22.461 17.1248 23.4525C16.9747 23.6187 16.7175 23.6321 16.5513 23.482C16.3852 23.332 16.3718 23.0747 16.5219 22.9086C17.1123 22.2565 16.7845 21.1346 16.7836 21.131Z" fill="black"/>
<path fill-rule="evenodd" clip-rule="evenodd" d="M10.721 20.935C10.9729 20.6831 11.3838 20.6831 11.6348 20.935L14.2091 23.5093C14.461 23.7612 14.461 24.1721 14.2091 24.4231C13.9572 24.675 13.5463 24.675 13.2953 24.4231L10.721 21.8488C10.47 21.5987 10.47 21.1869 10.721 20.935Z" fill="black"/>
<path fill-rule="evenodd" clip-rule="evenodd" d="M9.98483 22.1047C10.1921 21.8974 10.5288 21.8974 10.7343 22.1047L12.8468 24.2171C13.054 24.4244 13.054 24.7611 12.8468 24.9666C12.6395 25.1738 12.3028 25.1738 12.0974 24.9666L9.98483 22.8541C9.77849 22.6487 9.77849 22.3119 9.98483 22.1047Z" fill="black"/>
<path fill-rule="evenodd" clip-rule="evenodd" d="M9.06003 23.0109C9.26728 22.8037 9.60402 22.8037 9.80945 23.0109L11.922 25.1234C12.1292 25.3307 12.1292 25.6674 11.922 25.8728C11.7147 26.0801 11.378 26.0801 11.1725 25.8728L9.06003 23.7603C8.85369 23.554 8.85369 23.2172 9.06003 23.0109Z" fill="black"/>
<path d="M17.4585 9.41162C19.73 9.41162 21.7871 10.3334 23.2762 11.8216C24.7652 13.3106 25.6861 15.3678 25.6861 17.6393C25.6861 19.9108 24.7643 21.9679 23.2762 23.4569C21.7871 24.946 19.73 25.8668 17.4585 25.8668H13.0789L14.1446 24.8012H17.4585C19.4362 24.8012 21.2262 24 22.5223 22.703C23.8184 21.4069 24.6205 19.6169 24.6205 17.6393C24.6205 15.6616 23.8192 13.8715 22.5223 12.5754C21.2262 11.2793 19.4362 10.4772 17.4585 10.4772H17.454H17.4496H17.4451H17.4407H17.4362C17.3549 10.4772 17.2745 10.4791 17.1932 10.4817V10.4772H10.2956V18.3592V19.524V20.6289L9.22998 21.6945V19.5231V18.3413V9.40625H10.2956V9.41162H17.4362H17.4407H17.4451H17.4496H17.454H17.4585Z" fill="black"/>
<path d="M11.375 23.8047L12.429 23.8083L11.375 22.7543V23.8047ZM14.3763 23.8137L17.457 23.8226C19.8661 23.8226 22.084 22.4184 23.0719 20.096C23.3837 19.351 23.54 18.5543 23.54 17.7227C23.54 14.3436 20.8192 11.6406 17.4579 11.6406C14.1646 11.6406 11.3759 14.3096 11.3759 17.7227V20.8169C11.4241 20.8455 11.4688 20.8803 11.5108 20.9223L12.5898 22.0013V17.7227C12.5898 15.1064 14.7219 12.8706 17.4597 12.8706C20.1457 12.8706 22.3296 15.0537 22.3296 17.7227C22.3296 20.3569 20.1975 22.5926 17.4597 22.5926L13.1668 22.5774L14.2807 23.6913C14.3155 23.7288 14.3486 23.7699 14.3763 23.8137Z" fill="black"/>
</svg>
