<svg width="15" height="14" viewBox="0 0 15 14" fill="none" xmlns="http://www.w3.org/2000/svg">
<g clip-path="url(#clip0_1_162068)">
<path d="M3.76074 5.04059C3.76074 4.73232 4.00977 4.48242 4.31696 4.48242H6.54181C6.849 4.48242 7.09802 4.73232 7.09802 5.04059C7.09802 5.34886 6.849 5.59876 6.54181 5.59876H4.31696C4.00977 5.59876 3.76074 5.34886 3.76074 5.04059Z" fill="white"/>
<path d="M4.31696 6.71582C4.00977 6.71582 3.76074 6.96573 3.76074 7.27398C3.76074 7.58223 4.00977 7.83214 4.31696 7.83214H10.9915C11.2987 7.83214 11.5477 7.58223 11.5477 7.27398C11.5477 6.96573 11.2987 6.71582 10.9915 6.71582H4.31696Z" fill="white"/>
<path fill-rule="evenodd" clip-rule="evenodd" d="M0.979492 2.25068C0.979492 1.32587 1.72657 0.576172 2.64813 0.576172H12.66C13.5816 0.576172 14.3286 1.32587 14.3286 2.25068V10.0651C14.3286 10.9899 13.5816 11.7395 12.66 11.7395H11.1103C10.9819 11.7395 10.8575 11.7841 10.7581 11.8657L8.71069 13.5468C8.09602 14.0514 7.21208 14.0514 6.59741 13.5468L4.55 11.8657C4.45062 11.7841 4.32618 11.7395 4.19778 11.7395H2.64813C1.72657 11.7395 0.979492 10.9899 0.979492 10.0651L0.979492 2.25068ZM2.64813 1.69251C2.34095 1.69251 2.09192 1.94241 2.09192 2.25068V10.0651C2.09192 10.3733 2.34095 10.6232 2.64813 10.6232H4.19778C4.58297 10.6232 4.9563 10.7569 5.25443 11.0017L7.30185 12.6828C7.50671 12.851 7.80139 12.851 8.00624 12.6828L10.0537 11.0017C10.3518 10.7569 10.7251 10.6232 11.1103 10.6232H12.66C12.9672 10.6232 13.2162 10.3733 13.2162 10.0651V2.25068C13.2162 1.94241 12.9672 1.69251 12.66 1.69251H2.64813Z" fill="white"/>
</g>
<defs>
<clipPath id="clip0_1_162068">
<rect width="13.3491" height="13.3491" fill="white" transform="translate(0.979492 0.573242)"/>
</clipPath>
</defs>
</svg>
