<svg width="24" height="25" viewBox="0 0 24 25" fill="none" xmlns="http://www.w3.org/2000/svg">
<path d="M16.8028 11.2815C17.0278 11.6292 17.4922 11.7287 17.8399 11.5037C18.1877 11.2787 18.2871 10.8143 18.0621 10.4666L16.8028 11.2815ZM5.93784 10.4666C5.71281 10.8143 5.81229 11.2787 6.16004 11.5037C6.5078 11.7287 6.97213 11.6292 7.19717 11.2815L5.93784 10.4666ZM15.6431 13.2599C15.8562 12.9047 15.7411 12.444 15.3859 12.2309C15.0307 12.0178 14.57 12.133 14.3569 12.4882L15.6431 13.2599ZM6 21.624H18V20.124H6V21.624ZM22.75 16.874V14.874H21.25V16.874H22.75ZM1.25 14.874V16.874H2.75V14.874H1.25ZM12 4.12402C6.06294 4.12402 1.25 8.93696 1.25 14.874H2.75C2.75 9.76539 6.89137 5.62402 12 5.62402V4.12402ZM22.75 14.874C22.75 8.93696 17.9371 4.12402 12 4.12402V5.62402C17.1086 5.62402 21.25 9.76539 21.25 14.874H22.75ZM18 21.624C20.6234 21.624 22.75 19.4974 22.75 16.874H21.25C21.25 18.6689 19.7949 20.124 18 20.124V21.624ZM6 20.124C4.20507 20.124 2.75 18.6689 2.75 16.874H1.25C1.25 19.4974 3.37665 21.624 6 21.624V20.124ZM9.75 20.874C9.75 19.6314 10.7574 18.624 12 18.624V17.124C9.92893 17.124 8.25 18.803 8.25 20.874H9.75ZM12 18.624C13.2426 18.624 14.25 19.6314 14.25 20.874H15.75C15.75 18.803 14.0711 17.124 12 17.124V18.624ZM12 8.62402C14.44 8.62402 15.8577 9.82111 16.8028 11.2815L18.0621 10.4666C16.9152 8.69414 15.0722 7.12402 12 7.12402V8.62402ZM7.19717 11.2815C8.1422 9.82111 9.55991 8.62402 12 8.62402V7.12402C8.92771 7.12402 7.0848 8.69414 5.93784 10.4666L7.19717 11.2815ZM12.6431 18.2599L15.6431 13.2599L14.3569 12.4882L11.3569 17.4882L12.6431 18.2599Z" fill="white"/>
</svg>
