<svg width="19" height="18" viewBox="0 0 19 18" fill="none" xmlns="http://www.w3.org/2000/svg">
<g clip-path="url(#clip0_2_62)">
<path d="M13.364 7.90746C13.589 8.25522 14.0533 8.3547 14.4011 8.12966C14.7488 7.90463 14.8483 7.44029 14.6233 7.09254L13.364 7.90746ZM5.21525 7.09254C4.99021 7.44029 5.08969 7.90463 5.43745 8.12966C5.7852 8.3547 6.24954 8.25522 6.47457 7.90746L5.21525 7.09254ZM12.8124 9.38587C13.0255 9.03069 12.9103 8.56999 12.5552 8.35688C12.2 8.14377 11.7393 8.25894 11.5262 8.61413L12.8124 9.38587ZM5.41928 15.75H14.4193V14.25H5.41928V15.75ZM18.1693 12V10.5H16.6693V12H18.1693ZM1.66928 10.5V12H3.16928V10.5H1.66928ZM9.91928 2.25C5.36293 2.25 1.66928 5.94365 1.66928 10.5H3.16928C3.16928 6.77208 6.19136 3.75 9.91928 3.75V2.25ZM18.1693 10.5C18.1693 5.94365 14.4756 2.25 9.91928 2.25V3.75C13.6472 3.75 16.6693 6.77208 16.6693 10.5H18.1693ZM14.4193 15.75C16.4903 15.75 18.1693 14.0711 18.1693 12H16.6693C16.6693 13.2426 15.6619 14.25 14.4193 14.25V15.75ZM5.41928 14.25C4.17664 14.25 3.16928 13.2426 3.16928 12H1.66928C1.66928 14.0711 3.34821 15.75 5.41928 15.75V14.25ZM8.41928 15C8.41928 14.1716 9.09085 13.5 9.91928 13.5V12C8.26243 12 6.91928 13.3431 6.91928 15H8.41928ZM9.91928 13.5C10.7477 13.5 11.4193 14.1716 11.4193 15H12.9193C12.9193 13.3431 11.5761 12 9.91928 12V13.5ZM9.91926 6C11.6703 6 12.6804 6.85118 13.364 7.90746L14.6233 7.09254C13.7378 5.72422 12.3025 4.5 9.91926 4.5V6ZM6.47457 7.90746C7.1581 6.85118 8.16824 6 9.91926 6V4.5C7.53604 4.5 6.1007 5.72422 5.21525 7.09254L6.47457 7.90746ZM10.5624 13.1359L12.8124 9.38587L11.5262 8.61413L9.27616 12.3641L10.5624 13.1359Z" fill="#28303F"/>
</g>
<defs>
<clipPath id="clip0_2_62">
<rect width="18" height="18" fill="white" transform="translate(0.919281)"/>
</clipPath>
</defs>
</svg>
