<svg width="252" height="211" viewBox="0 0 252 211" fill="none" xmlns="http://www.w3.org/2000/svg">
<path d="M207.759 0H30.7832V161.679H207.759V0Z" fill="#F4EAE9"/>
<path d="M103.232 132.359H57.0229V151.799H103.232V132.359Z" fill="white"/>
<path d="M251.102 10.1445H193.609V56.6658H251.102V10.1445Z" fill="#FBB86F"/>
<path d="M251.101 32.1229V56.6665H224.563C223.427 54.2324 222.793 51.5184 222.793 48.6566C222.793 44.0404 224.443 39.8089 227.183 36.519C230.664 32.3372 235.907 29.6758 241.774 29.6758C245.165 29.6758 248.348 30.5644 251.101 32.1229Z" fill="#8B95F7"/>
<path d="M236.473 56.6622H193.609V51.4103C207.649 50.1989 228.28 35.2305 228.28 35.2305L227.184 36.5147L236.473 56.6622Z" fill="#8B95F7"/>
<path d="M210.682 30.0349C214.221 29.1994 216.412 25.6538 215.576 22.1155C214.741 18.5772 211.195 16.3861 207.657 17.2216C204.118 18.0571 201.927 21.6028 202.763 25.1411C203.598 28.6794 207.144 30.8704 210.682 30.0349Z" fill="#8B95F7"/>
<path d="M71.8014 43.8021C78.168 38.5407 79.0638 29.1144 73.8025 22.7479C68.5411 16.3814 59.1148 15.4855 52.7483 20.7469C46.3818 26.0082 45.4859 35.4345 50.7473 41.801C56.0087 48.1676 65.4349 49.0634 71.8014 43.8021Z" fill="#F8E0DA"/>
<path d="M69.5892 24.2907C70.7679 25.1756 71.7688 26.3344 72.4824 27.7366C74.4477 31.5982 73.6558 36.1372 70.8358 39.114C70.7469 39.2106 70.6518 39.3073 70.5562 39.3976C70.5461 39.4092 70.5372 39.417 70.5257 39.426C70.4316 39.5189 70.3364 39.6088 70.2356 39.6954C70.2229 39.7085 70.2088 39.7186 70.1964 39.7316C70.1125 39.8067 70.0248 39.8802 69.9393 39.9522C69.8975 39.9832 69.8564 40.0168 69.8158 40.0504C69.64 40.1911 69.4556 40.3269 69.2683 40.4575C69.2493 40.4706 69.2324 40.4822 69.2134 40.4952C69.1152 40.5613 69.0175 40.627 68.9167 40.6882C68.8951 40.7024 68.8734 40.7165 68.8492 40.7322C68.7805 40.7736 68.7092 40.8166 68.6364 40.8565C68.6148 40.8707 68.5905 40.8864 68.5674 40.8979C68.5204 40.9252 68.4707 40.9535 68.4207 40.9823C68.32 41.0367 68.2192 41.0912 68.1173 41.1431C68.0307 41.1872 67.9437 41.2312 67.8545 41.2704C67.7512 41.3197 67.6467 41.3667 67.5422 41.4133C67.3787 41.4835 67.2193 41.5488 67.0533 41.6074C66.6946 41.7418 66.3344 41.8545 65.9691 41.944C65.5115 42.0549 65.0517 42.1348 64.5886 42.178C64.4736 42.1915 64.3598 42.2016 64.2434 42.206C64.0235 42.2217 63.7992 42.2295 63.5805 42.2284C63.5701 42.2273 63.56 42.2262 63.551 42.2273C63.3234 42.2277 63.0942 42.2191 62.8662 42.2C62.783 42.1941 62.6997 42.1885 62.6176 42.1788C62.5728 42.1728 62.5254 42.1679 62.478 42.1631C62.3795 42.1523 62.2806 42.1415 62.1821 42.1243C62.1694 42.1243 62.1552 42.122 62.141 42.1194C62.0436 42.1049 61.9462 42.09 61.8462 42.0705C61.735 42.0534 61.6234 42.0299 61.5103 42.0037C61.4077 41.9855 61.3054 41.9604 61.2028 41.9354C61.0833 41.903 60.9654 41.8731 60.849 41.8395C60.7411 41.8108 60.631 41.7772 60.522 41.7395C60.4157 41.7071 60.3063 41.6694 60.1988 41.6279C59.9831 41.5514 59.77 41.4671 59.5659 41.3753C59.4595 41.3297 59.358 41.282 59.255 41.2316C59.0482 41.1345 58.8467 41.0285 58.65 40.9132C58.5511 40.8576 58.4507 40.7994 58.3556 40.7386C58.3503 40.7348 58.3466 40.7337 58.3429 40.7322C58.2488 40.674 58.1577 40.6146 58.0652 40.5523C57.9689 40.4889 57.8749 40.4243 57.7823 40.356C57.5931 40.2243 57.4117 40.0821 57.2367 39.9335C57.0564 39.7876 56.8825 39.6353 56.7164 39.4726C56.6313 39.3939 56.5488 39.314 56.4701 39.2285C56.4649 39.2248 56.4623 39.2196 56.4585 39.2185C56.3787 39.1371 56.3025 39.0569 56.2275 38.9733C56.1476 38.8856 56.0715 38.799 55.9939 38.7102C55.9357 38.64 55.8778 38.5702 55.8222 38.4989C55.8184 38.4911 55.8118 38.4851 55.8054 38.4784C55.689 38.3321 55.5755 38.1843 55.468 38.0302C55.4113 37.9499 55.3568 37.8686 55.3023 37.7868C55.2493 37.7077 55.1963 37.629 55.1482 37.5472C55.1068 37.4849 55.0679 37.4211 55.0302 37.3535C54.9694 37.2528 54.9097 37.1483 54.8515 37.04C54.8048 36.9546 54.757 36.8665 54.7126 36.7799C53.253 33.9121 53.3157 30.6704 54.5973 27.9725L48.908 10.0105C37.7225 17.3762 33.6224 32.133 39.8401 44.3494C39.9375 44.5408 40.0375 44.7308 40.1387 44.9167C40.1633 44.9652 40.1906 45.0122 40.2141 45.0581C40.3063 45.2264 40.3996 45.391 40.4929 45.5552C40.5862 45.7195 40.6821 45.8829 40.7791 46.0419C40.8272 46.1169 40.8739 46.196 40.9217 46.2714C40.9788 46.3643 41.037 46.4599 41.0964 46.5517C41.1897 46.7032 41.2878 46.8525 41.3886 47.0003C41.4132 47.0425 41.4404 47.0832 41.4688 47.1201C41.6263 47.3552 41.7879 47.587 41.9521 47.8162C42.0536 47.9587 42.1581 48.0983 42.2622 48.2383C42.3246 48.3215 42.3869 48.4047 42.4496 48.4872C42.5683 48.6424 42.6881 48.7966 42.8098 48.9485C42.859 49.0097 42.9091 49.0698 42.9587 49.1306C43.2782 49.5221 43.6051 49.9061 43.9447 50.2756C44.0507 50.3887 44.1563 50.5018 44.2619 50.6149C44.3664 50.7253 44.4747 50.8373 44.5818 50.9467C44.7956 51.1654 45.0173 51.38 45.2379 51.5923C45.3498 51.6991 45.4611 51.8032 45.5741 51.9062C45.9089 52.2174 46.2557 52.5194 46.611 52.8075C46.6934 52.881 46.7796 52.9497 46.8659 53.018C46.8994 53.046 46.9315 53.0713 46.9662 53.0952C46.933 53.0672 46.9005 53.0419 46.8684 53.0165C47.0241 52.9247 47.1819 52.8377 47.345 52.7545C51.8086 50.4828 57.2725 52.2585 59.5457 56.7247C59.8742 57.37 60.1171 58.0366 60.2817 58.7072C60.3186 58.711 60.3533 58.7158 60.3918 58.7218C60.5329 58.7401 60.6762 58.7569 60.8173 58.7688C60.9135 58.7808 61.0106 58.7893 61.108 58.7976C61.2782 58.817 61.4487 58.8297 61.6193 58.8423C61.7462 58.8517 61.8727 58.861 62.0007 58.8666C62.1187 58.8774 62.2377 58.8841 62.3553 58.8882C62.5064 58.895 62.6576 58.9013 62.8072 58.9054C62.961 58.9106 63.1107 58.9147 63.2618 58.9151C63.4014 58.9181 63.5421 58.917 63.6802 58.9174C63.9974 58.9162 64.3124 58.9103 64.627 58.8979C64.7602 58.8946 64.8946 58.8871 65.0263 58.8812C65.0812 58.8756 65.1353 58.8741 65.1913 58.8711C65.3066 58.864 65.4216 58.8565 65.5391 58.8479C65.6914 58.8378 65.8422 58.8252 65.9959 58.8114C66.1471 58.7987 66.299 58.7822 66.4512 58.7658C66.6009 58.7505 66.7517 58.7319 66.9002 58.714C67.2376 58.6707 67.5728 58.6222 67.9076 58.5673C68.0289 58.5471 68.1505 58.527 68.2744 58.5057C68.7282 58.4258 69.1821 58.3329 69.6344 58.2247C69.8912 58.1679 70.1479 58.1045 70.4036 58.0325C70.6492 57.9716 70.8929 57.9022 71.1343 57.8276C71.2862 57.7854 71.4359 57.7384 71.5852 57.6913C71.7856 57.6309 71.9838 57.5656 72.1827 57.4962C72.2924 57.4596 72.4048 57.4215 72.5145 57.3786C72.9638 57.2204 73.4094 57.0483 73.8494 56.8662C74.0293 56.7908 74.2055 56.7139 74.3828 56.6333C74.4492 56.6061 74.5115 56.5773 74.5739 56.5489C74.7384 56.4747 74.9045 56.3967 75.0702 56.3187C75.2744 56.2213 75.4822 56.1186 75.6864 56.0149C75.9364 55.8876 76.1839 55.7555 76.4298 55.6204C76.5511 55.5555 76.6709 55.4883 76.7881 55.4218C76.8657 55.3789 76.9423 55.3338 77.0188 55.2882C77.118 55.2311 77.2136 55.1729 77.3118 55.1132C77.3983 55.0628 77.4875 55.0109 77.573 54.9576C77.7678 54.8359 77.9656 54.7128 78.1578 54.5862C78.3131 54.4881 78.4635 54.3858 78.6139 54.2835C78.7602 54.1865 78.9042 54.0842 79.0479 53.9824C79.1308 53.9241 79.211 53.867 79.2924 53.8066C79.4312 53.7069 79.5686 53.6051 79.7026 53.5017C79.8261 53.4099 79.9481 53.3158 80.0668 53.2203C80.1455 53.1609 80.2209 53.1001 80.2982 53.0381C80.4471 52.9206 80.5972 52.7993 80.7423 52.6739C80.9092 52.5343 81.0745 52.3925 81.2398 52.2503C81.4342 52.0775 81.6253 51.9032 81.8145 51.7267C81.9467 51.6016 82.0788 51.4766 82.2072 51.3501C82.3662 51.1956 82.5237 51.0381 82.6774 50.8795C90.4421 42.9293 92.6735 30.6185 87.3538 20.1664C84.9958 15.5337 81.469 11.8855 77.3155 9.39844C75.9783 11.9751 74.6414 14.5517 73.3046 17.1284L69.5892 24.2907Z" fill="#FBB86F"/>
<path d="M54.3625 7.2492C54.0625 7.36004 53.7654 7.4761 53.4702 7.5974C53.3504 7.64554 53.2317 7.6963 53.113 7.74705C53.0302 7.77952 52.9484 7.8146 52.8678 7.85229C52.7633 7.89895 52.6558 7.94709 52.5513 7.99412C52.4886 8.02285 52.4263 8.05122 52.3651 8.08257C52.258 8.13071 52.1482 8.17998 52.0411 8.23485C51.8601 8.32068 51.6803 8.40875 51.5015 8.49981C50.6614 8.92751 49.8541 9.39404 49.0801 9.89489L54.7234 27.7117C55.6467 25.9053 57.1258 24.3621 59.071 23.372C59.1732 23.3201 59.2763 23.2708 59.3796 23.2212C59.4319 23.1977 59.4841 23.1745 59.5338 23.1521L59.5517 23.1432C59.9204 22.9778 60.2955 22.8383 60.6735 22.7229C63.6951 21.7933 66.9308 22.3774 69.416 24.1613L69.5862 24.2893L77.3136 9.39776C70.8988 5.62197 62.8453 4.49488 55.4698 6.86478C55.3243 6.91329 55.1814 6.96031 55.0358 7.00883C54.8119 7.08459 54.5861 7.1641 54.3625 7.2492Z" fill="white"/>
<path d="M52.7591 56.6073C52.3482 56.4248 51.941 56.2304 51.5391 56.0273C51.9384 56.2319 52.3455 56.4263 52.7591 56.6073Z" fill="#6D5BE1"/>
<path d="M51.5427 56.0274C50.7373 55.6183 49.951 55.1708 49.187 54.6797C49.9484 55.1723 50.7325 55.6213 51.5427 56.0274Z" fill="#6D5BE1"/>
<path d="M39.8401 44.3454C40.8156 46.2618 41.9924 48.0088 43.3296 49.576L55.9972 38.705C55.506 38.1254 55.072 37.4824 54.7122 36.7763C52.2147 31.8693 54.1681 25.8669 59.0751 23.3697C59.5987 23.1033 60.135 22.8905 60.678 22.7237L55.4743 6.86328C54.1307 7.29471 52.804 7.83699 51.5059 8.49795C38.3853 15.1755 33.1625 31.2251 39.8401 44.3454Z" fill="white"/>
<path d="M82.6783 50.8818L70.8355 39.1133C70.073 39.9187 69.1635 40.6106 68.1185 41.1424C67.4187 41.4985 66.6966 41.7612 65.9658 41.9407L69.6345 58.2266C71.6905 57.747 73.7223 57.0155 75.688 56.0149C78.3557 54.6564 80.6969 52.9113 82.6783 50.8818Z" fill="#FBB86F"/>
<path d="M55.9977 38.7061L51.4792 42.5857L43.335 49.5759C43.535 49.8114 43.7403 50.0439 43.9493 50.2716C44.0553 50.3847 44.1609 50.4978 44.2665 50.6112C44.371 50.7217 44.4792 50.8337 44.5864 50.943C44.8002 51.1617 45.0219 51.3763 45.2424 51.5887C45.3544 51.6954 45.4656 51.7995 45.5787 51.9022C45.9165 52.2119 46.2613 52.5116 46.6155 52.8035C46.6991 52.8733 46.7868 52.9442 46.873 53.0128C46.9051 53.0382 46.9372 53.0636 46.9708 53.0916C47.2078 53.2793 47.447 53.4659 47.6904 53.6469C47.8176 53.7395 47.9453 53.832 48.0699 53.9257C48.3144 54.0966 48.5573 54.2653 48.8059 54.431C48.932 54.5146 49.0578 54.5982 49.1851 54.6777C49.949 55.1689 50.7354 55.6164 51.5408 56.0254C51.9431 56.2284 52.3499 56.4229 52.7608 56.6054C52.8981 56.667 53.037 56.7248 53.1728 56.7841C53.4512 56.9025 53.7301 57.0144 54.0096 57.1223C54.1496 57.1764 54.2895 57.2301 54.4306 57.2805C54.7116 57.3847 54.9952 57.4813 55.2815 57.5765C55.3968 57.6142 55.5121 57.6515 55.6263 57.6866C55.6689 57.7004 55.7137 57.7127 55.7599 57.7276C55.8857 57.7664 56.0152 57.8064 56.1421 57.8415C56.9154 58.0676 57.7003 58.2591 58.4922 58.4147C58.6423 58.4442 58.7923 58.4741 58.9394 58.4987C59.3842 58.5774 59.8366 58.6457 60.2863 58.7028C60.3232 58.7066 60.3579 58.7114 60.3963 58.7174C60.5374 58.7357 60.6807 58.7525 60.8218 58.764C60.9181 58.776 61.0152 58.7846 61.1126 58.7928C61.2828 58.8122 61.4533 58.8249 61.6239 58.8376C61.7508 58.8469 61.8773 58.8562 62.0056 58.8618C62.1236 58.8726 62.2427 58.8794 62.3602 58.8835C62.5114 58.8902 62.6621 58.8965 62.8122 58.9006C62.9659 58.9059 63.1156 58.91 63.2667 58.9103C63.4063 58.9133 63.547 58.9122 63.6851 58.9126C64.0023 58.9115 64.3173 58.9055 64.6319 58.8932C64.7652 58.8898 64.8996 58.8824 65.0313 58.8764C65.0862 58.8708 65.1403 58.8693 65.1963 58.8663C65.3116 58.8592 65.4265 58.8517 65.5441 58.8431C65.6964 58.8331 65.8471 58.8204 66.0009 58.8066C66.1521 58.7939 66.3039 58.7775 66.4562 58.7611C66.6059 58.7457 66.7567 58.7271 66.9052 58.7092C67.2426 58.6659 67.5777 58.6174 67.9128 58.5625C68.0341 58.5424 68.1558 58.5222 68.2797 58.5009C68.7321 58.4184 69.1859 58.3255 69.6397 58.2199L66.9907 46.4663L65.974 41.9389L65.9714 41.9337C65.5153 42.0471 65.0541 42.1244 64.5935 42.1725C64.4771 42.1833 64.3632 42.1934 64.2483 42.2005C64.027 42.2136 63.8072 42.2229 63.5855 42.2229C63.575 42.2218 63.5649 42.2203 63.556 42.2218C63.3268 42.2195 63.0977 42.211 62.8711 42.1945C62.7879 42.1886 62.7036 42.1804 62.6226 42.1733C62.5778 42.1673 62.5304 42.1624 62.483 42.1576C62.3845 42.1468 62.2867 42.1322 62.1871 42.1188C62.1744 42.1188 62.1601 42.1165 62.146 42.1139C62.0486 42.0994 61.9474 42.0833 61.8512 42.065C61.7384 42.0452 61.6268 42.0217 61.5153 41.9982C61.4115 41.9773 61.3104 41.9549 61.2077 41.9299C61.0883 41.8974 60.9704 41.8676 60.8539 41.834C60.745 41.8027 60.6345 41.7691 60.527 41.734C60.4191 41.6989 60.3101 41.6612 60.2038 41.6224C59.9907 41.5448 59.7776 41.4604 59.5708 41.3697C59.4667 41.3231 59.363 41.2764 59.2599 41.226C59.0558 41.1275 58.8539 41.0215 58.6549 40.9077C58.556 40.8521 58.4583 40.7928 58.3605 40.733C58.3553 40.7293 58.3515 40.7282 58.3478 40.7267C58.2563 40.6673 58.1627 40.6091 58.0701 40.5468C57.9761 40.4822 57.8824 40.4177 57.7872 40.3505C57.6006 40.2172 57.4192 40.0754 57.2416 39.928C57.0639 39.7806 56.89 39.6283 56.7214 39.4671C56.6389 39.3872 56.5564 39.307 56.475 39.223C56.4698 39.2193 56.4672 39.2141 56.4635 39.2129C56.3873 39.1327 56.3101 39.0502 56.2324 38.9677C56.1563 38.8812 56.0764 38.7934 56.0014 38.7031L55.9977 38.7061Z" fill="#FBB86F"/>
<path d="M21.6264 86.6016H12.5088V125.13H21.6264V86.6016Z" fill="#8B95F7"/>
<path d="M46.6464 94.0508H37.5288V125.129H46.6464V94.0508Z" fill="#8B95F7"/>
<path d="M9.11755 106.324H0V125.131H9.11755V106.324Z" fill="#FBB86F"/>
<path d="M34.1381 76.0117H25.0205V125.129H34.1381V76.0117Z" fill="#FBB86F"/>
<path d="M21.3679 68.6236C24.294 68.6236 26.6661 66.2515 26.6661 63.3255C26.6661 60.3994 24.294 58.0273 21.3679 58.0273C18.4418 58.0273 16.0698 60.3994 16.0698 63.3255C16.0698 66.2515 18.4418 68.6236 21.3679 68.6236Z" fill="#8B95F7"/>
<path d="M49.8499 64.7588H21.3674C20.5755 64.7588 19.9336 64.1165 19.9336 63.3245C19.9336 62.5325 20.5755 61.8906 21.3674 61.8906H49.8499C50.6418 61.8906 51.2842 62.5325 51.2842 63.3245C51.2842 64.1168 50.6418 64.7588 49.8499 64.7588Z" fill="#859FEB"/>
<path d="M21.3669 147.022C24.293 147.022 26.6651 144.65 26.6651 141.724C26.6651 138.798 24.293 136.426 21.3669 136.426C18.4409 136.426 16.0688 138.798 16.0688 141.724C16.0688 144.65 18.4409 147.022 21.3669 147.022Z" fill="#8B95F7"/>
<path d="M49.8514 143.158H21.3689C20.577 143.158 19.9351 142.515 19.9351 141.723C19.9351 140.931 20.577 140.289 21.3689 140.289H49.8514C50.6433 140.289 51.2856 140.931 51.2856 141.723C51.2856 142.515 50.6433 143.158 49.8514 143.158Z" fill="#859FEB"/>
<path d="M218.068 101.238C227.689 101.238 235.489 93.4377 235.489 83.8161C235.489 74.1944 227.689 66.3945 218.068 66.3945C208.446 66.3945 200.646 74.1944 200.646 83.8161C200.646 93.4377 208.446 101.238 218.068 101.238Z" fill="#8B95F7"/>
<path d="M212.402 83.8131V77.4726C212.402 76.2775 213.696 75.5308 214.731 76.1283L220.222 79.2983L225.713 82.4684C226.748 83.0659 226.748 84.5599 225.713 85.1574L220.222 88.3275L214.731 91.4975C213.696 92.095 212.402 91.3482 212.402 90.1532V83.8131Z" fill="white"/>
<path d="M183.637 53.6683L176.702 42.6738L175.746 40.6835C175.746 40.6835 175.746 40.6835 176.697 36.7017C177.648 32.7202 174.242 33.6383 174.242 33.6383L171.079 38.3277C166.755 46.9169 172.311 49.0393 172.311 49.0393L169.772 54.9715L169.008 56.6249L169.057 56.6416L168.977 56.8298L169.127 56.6655L181.227 60.8194L183.637 53.6683Z" fill="#9F746A"/>
<path d="M176.76 47.4372C176.737 47.4372 176.713 47.4342 176.69 47.4282C176.539 47.3898 176.449 47.2368 176.487 47.086C177.206 44.2742 175.42 40.9765 175.402 40.9437C175.327 40.8075 175.377 40.6365 175.513 40.5619C175.649 40.4876 175.82 40.5369 175.895 40.6731C175.973 40.8157 177.805 44.2007 177.032 47.2256C177 47.3529 176.885 47.4372 176.76 47.4372Z" fill="#363649"/>
<path d="M113.991 183.81C113.298 185.394 104.484 185.948 98.8997 183.508C93.3157 181.067 88.3561 180.245 89.0488 178.661C89.7414 177.076 95.824 175.329 101.408 177.769C106.992 180.21 114.684 182.225 113.991 183.81Z" fill="#363649"/>
<path d="M94.2273 171.566L86.1006 188.98L104.24 197.446L112.367 180.032L94.2273 171.566Z" fill="#9F746A"/>
<path d="M154.773 179.633C155.043 181.341 146.669 183.667 140.65 184.62C134.632 185.573 129.533 184.961 129.263 183.253C128.992 181.545 133.652 179.387 139.671 178.435C145.69 177.482 154.502 177.925 154.773 179.633Z" fill="#363649"/>
<path d="M149.853 172.932L130.082 176.062L133.087 195.043L152.858 191.912L149.853 172.932Z" fill="#9F746A"/>
<path d="M168.339 55.9365L184.785 57.9414L185.343 53.3689L168.896 51.3641L168.339 55.9365Z" fill="#CAC8EB"/>
<path d="M186.005 56.9017C184.685 67.1513 180.698 84.8733 168.827 88.415C163.24 90.0814 158.242 87.2502 146.963 78.4402C140.453 73.3544 133.178 67.1617 129.269 63.8345L150.119 55.9288C162.152 66.172 160.261 65.2848 164.149 68.0526C165.329 65.3289 166.69 60.8518 167.506 54.5195L186.005 56.9017Z" fill="#8B95F7"/>
<path d="M162.366 73.4487C162.335 73.4487 162.303 73.4431 162.271 73.4323C162.125 73.3796 162.049 73.2188 162.101 73.0725L164.656 65.9557C164.708 65.8094 164.869 65.734 165.016 65.7859C165.162 65.8385 165.238 65.9994 165.185 66.1457L162.631 73.2625C162.59 73.377 162.481 73.4487 162.366 73.4487Z" fill="#363649"/>
<path d="M97.5234 59.8987C97.5234 63.1953 98.8446 66.1769 100.986 68.3498C102.746 70.1524 105.067 71.3993 107.672 71.8128C108.295 71.9177 108.937 71.9673 109.592 71.9673C112.678 71.9673 115.493 70.8066 117.629 68.8991C117.821 68.7387 118 68.5659 118.178 68.3808C120.333 66.2079 121.666 63.2076 121.666 59.8987C121.666 53.2317 116.259 47.8242 109.592 47.8242C108.937 47.8242 108.295 47.8735 107.672 47.9787C107.474 48.0097 107.277 48.0466 107.085 48.0899C102.919 48.9666 99.5545 51.9915 98.184 55.9546C97.7578 57.1889 97.5234 58.516 97.5234 59.8987Z" fill="#8B95F7"/>
<path d="M141.002 75.9485C147.669 75.9485 153.074 70.5437 153.074 63.8766C153.074 57.2095 147.669 51.8047 141.002 51.8047C134.335 51.8047 128.93 57.2095 128.93 63.8766C128.93 70.5437 134.335 75.9485 141.002 75.9485Z" fill="#8B95F7"/>
<path d="M107.086 48.0939C120.104 45.5695 133.933 47.2015 144.712 52.494L143.066 94.8828H107.673L107.086 48.0939Z" fill="#8B95F7"/>
<path d="M107.808 94.0586L126.552 94.6994L143.063 94.8815L154.815 179.475C146.89 177.42 135.895 178.704 129.225 182.83L126.818 119.879C126.807 119.594 126.396 119.562 126.342 119.843L113.98 183.912C104.012 177.967 96.0557 177.967 89.105 178.516L107.808 94.0586Z" fill="#CAC8EB"/>
<path d="M130.489 48.0126C127.093 50.1172 122.838 49.8107 118.051 48.0126V35.7578H130.489V48.0126Z" fill="#9F746A"/>
<path d="M122.79 27.0855C124.878 27.0855 126.571 25.3926 126.571 23.3044C126.571 21.2162 124.878 19.5234 122.79 19.5234C120.702 19.5234 119.009 21.2162 119.009 23.3044C119.009 25.3926 120.702 27.0855 122.79 27.0855Z" fill="#363649"/>
<path d="M118.136 28.7417C120.224 28.7417 121.917 27.0489 121.917 24.9607C121.917 22.8725 120.224 21.1797 118.136 21.1797C116.048 21.1797 114.355 22.8725 114.355 24.9607C114.355 27.0489 116.048 28.7417 118.136 28.7417Z" fill="#363649"/>
<path d="M116.374 33.8706C118.462 33.8706 120.155 32.1778 120.155 30.0896C120.155 28.0014 118.462 26.3086 116.374 26.3086C114.286 26.3086 112.593 28.0014 112.593 30.0896C112.593 32.1778 114.286 33.8706 116.374 33.8706Z" fill="#363649"/>
<path d="M115.591 30.9683C117.679 30.9683 119.372 29.2755 119.372 27.1873C119.372 25.0991 117.679 23.4062 115.591 23.4062C113.503 23.4062 111.81 25.0991 111.81 27.1873C111.81 29.2755 113.503 30.9683 115.591 30.9683Z" fill="#363649"/>
<path d="M126.574 28.1753C128.662 28.1753 130.355 26.4825 130.355 24.3943C130.355 22.3061 128.662 20.6133 126.574 20.6133C124.486 20.6133 122.793 22.3061 122.793 24.3943C122.793 26.4825 124.486 28.1753 126.574 28.1753Z" fill="#363649"/>
<path d="M116.805 29.897C116.805 33.9774 120.114 37.2863 124.194 37.2863C128.275 37.2863 131.584 33.9774 131.584 29.897C131.584 28.6748 131.287 27.5268 130.763 26.5142C130.651 26.2982 130.534 26.0884 130.398 25.8906C129.09 23.8536 126.799 22.5078 124.194 22.5078C120.114 22.5078 116.805 25.8167 116.805 29.897Z" fill="#9F746A"/>
<path d="M131.379 28.0312L132.415 39.4262L121.296 40.1856L117.221 32.5546L131.379 28.0312Z" fill="#9F746A"/>
<path d="M113.918 34.7865C114.418 36.3958 116.129 37.2941 117.738 36.7936C119.347 36.2931 120.245 34.5827 119.745 32.9738C119.244 31.3645 117.534 30.4662 115.925 30.9666C114.316 31.4671 113.417 33.1772 113.918 34.7865Z" fill="#9F746A"/>
<path d="M116.39 35.6566C116.293 35.6566 116.199 35.6066 116.147 35.5174C114.863 33.3184 116.354 32.0569 116.369 32.0443C116.488 31.9461 116.666 31.9629 116.765 32.0831C116.863 32.2025 116.846 32.379 116.727 32.4779C116.678 32.5194 115.599 33.4628 116.633 35.2337C116.711 35.3677 116.666 35.5401 116.532 35.6185C116.487 35.6446 116.438 35.6566 116.39 35.6566Z" fill="#363649"/>
<path d="M117.768 34.4418C117.736 34.4418 117.705 34.4365 117.674 34.4253C117.013 34.1902 115.932 33.8073 115.845 33.7812C115.697 33.7368 115.612 33.5804 115.656 33.4315C115.7 33.2829 115.856 33.199 116.004 33.2415C116.121 33.2759 117.572 33.792 117.862 33.8954C118.008 33.9476 118.085 34.1081 118.033 34.2544C117.992 34.3697 117.883 34.4418 117.768 34.4418Z" fill="#363649"/>
<path d="M116.252 30.4473C116.145 31.0396 118.157 31.1728 118.945 32.7952C119.399 33.7289 119.033 34.3018 118.6 37.3532C118.058 41.1708 118.399 41.9146 118.6 42.2565C118.782 42.5659 119.419 43.5109 121.984 44.1211C123.636 44.5141 130.342 46.1099 132.757 42.1874C134.741 38.9655 133.299 33.9824 131.885 33.6846C131.442 33.5913 131.172 34.0007 129.813 34.2544C128.789 34.4459 128.452 34.3044 127.69 34.3839C125.777 34.584 125.564 35.7178 124.013 36.0156C122.373 36.3302 121.134 35.021 120.464 33.6245C119.718 32.0682 119.85 30.2353 119.049 29.3426C118.249 28.4514 116.363 29.8285 116.252 30.4473Z" fill="#363649"/>
<path d="M118.913 31.4141C118.913 31.4141 118.592 30.6647 119.638 28.3239C119.887 27.7667 120.875 25.5558 123.212 24.5429C126.15 23.2691 129.763 25.2889 130.159 25.5121C130.108 24.9646 129.222 23.7976 128.754 23.1441C127.153 20.9093 122.966 20.9093 120.156 22.3674C119.662 22.6234 117.263 24.3899 116.22 27.3397C115.218 30.1709 118.913 31.4141 118.913 31.4141Z" fill="#363649"/>
<path d="M127.773 35.4154C127.731 35.4154 127.688 35.4057 127.647 35.3852C127.508 35.3154 127.453 35.1463 127.522 35.0075L128.279 33.5031C128.427 33.2276 128.393 32.9022 128.196 32.6682L126.884 30.757C126.796 30.629 126.829 30.4535 126.957 30.3658C127.084 30.2778 127.26 30.3106 127.348 30.4386L128.643 32.3278C128.972 32.7171 129.032 33.2885 128.779 33.7617L128.025 35.2602C127.975 35.3587 127.876 35.4154 127.773 35.4154Z" fill="#363649"/>
<path d="M122.106 29.8281H115.805V31.0217H122.106V29.8281Z" fill="#8B95F7"/>
<path d="M128.32 29.163L126.182 29.4961L126.243 29.8866L128.38 29.5535L128.32 29.163Z" fill="#8B95F7"/>
<path d="M114.223 47.1408L117.995 46.5235L125.846 49.2491L130.915 46.2656L133.554 48.4332L129.467 52.4565L125.849 49.267L121.253 52.6278L114.223 47.1408Z" fill="white"/>
<path d="M121.958 54.7801C121.958 55.5758 122.603 56.2203 123.399 56.2203C124.194 56.2203 124.839 55.5754 124.839 54.7801C124.839 53.9848 124.194 53.3398 123.399 53.3398C122.603 53.3398 121.958 53.9844 121.958 54.7801Z" fill="white"/>
<path d="M121.758 60.2644C121.758 61.0601 122.403 61.7047 123.198 61.7047C123.993 61.7047 124.638 61.0598 124.638 60.2644C124.638 59.4691 123.993 58.8242 123.198 58.8242C122.403 58.8242 121.758 59.4688 121.758 60.2644Z" fill="white"/>
<path d="M143.588 81.5967C143.585 81.5967 143.582 81.5967 143.58 81.5967C143.424 81.5922 143.302 81.4627 143.307 81.3074C143.509 74.3791 143.218 68.3835 142.874 62.9357C142.864 62.7808 142.981 62.6472 143.137 62.6375C143.295 62.6259 143.425 62.7457 143.435 62.9006C143.781 68.3615 144.072 74.3731 143.869 81.3242C143.864 81.4761 143.739 81.5967 143.588 81.5967Z" fill="#363649"/>
<path d="M115.896 57.5742C115.751 57.5742 115.629 57.4634 115.616 57.3163C115.089 50.9874 109.264 48.5235 109.205 48.4992C109.062 48.4402 108.993 48.276 109.052 48.1323C109.11 47.9886 109.274 47.9185 109.418 47.9786C109.48 48.004 115.62 50.5903 116.177 57.2693C116.19 57.4242 116.075 57.56 115.92 57.5731C115.912 57.5738 115.904 57.5742 115.896 57.5742Z" fill="#363649"/>
<path d="M126.072 30.3675C126.097 30.3452 126.093 30.3108 126.063 30.2959L124.917 29.7379C124.434 29.4166 123.683 29.5368 123.387 30.0208L122.59 30.8923C122.559 30.9262 122.569 30.9692 122.612 30.9871L123.719 31.4428C124.147 31.6193 124.797 31.5066 125.143 31.1957C125.51 30.8654 125.931 30.4922 126.072 30.3675Z" fill="white"/>
<path d="M122.532 31.2346C122.487 31.2346 122.442 31.2242 122.401 31.2021C122.328 31.1637 122.264 31.0816 122.246 31.0017C122.227 30.9219 122.249 30.8203 122.297 30.7547L123.106 29.6634C123.515 29.1118 124.422 28.942 125.01 29.3059L126.245 30.0721C126.378 30.1538 126.418 30.3273 126.336 30.4595C126.254 30.5912 126.081 30.6326 125.949 30.5501L124.714 29.7839C124.376 29.5746 123.792 29.6828 123.558 29.9985L122.807 31.0114C122.802 31.0364 122.793 31.0611 122.781 31.0846C122.73 31.1801 122.633 31.2346 122.532 31.2346Z" fill="#363649"/>
<path d="M124.176 30.5923C124.236 30.9304 124.558 31.1562 124.896 31.0969C125.234 31.0376 125.46 30.7155 125.401 30.3773C125.341 30.0392 125.019 29.8134 124.681 29.8727C124.343 29.9321 124.117 30.2545 124.176 30.5923Z" fill="#363649"/>
<path d="M131.929 29.7734C131.955 29.751 131.95 29.7167 131.92 29.7021L130.775 29.1442C130.292 28.8228 129.54 28.943 129.244 29.4271L128.447 30.2985C128.416 30.3325 128.426 30.3754 128.47 30.3933L129.576 30.849C130.005 31.0255 130.655 30.9128 131 30.602C131.368 30.2713 131.788 29.8984 131.929 29.7734Z" fill="white"/>
<path d="M128.399 30.6448C128.355 30.6448 128.309 30.634 128.267 30.6116C128.195 30.5732 128.132 30.4907 128.113 30.4112C128.095 30.3317 128.117 30.2306 128.165 30.1649L128.974 29.0736C129.383 28.522 130.291 28.3518 130.878 28.7165L132.113 29.4823C132.245 29.564 132.286 29.7376 132.204 29.8693C132.122 30.0014 131.949 30.0425 131.817 29.96L130.582 29.1942C130.244 28.9848 129.66 29.0927 129.426 29.4084L128.675 30.4213C128.67 30.4467 128.66 30.4717 128.648 30.4959C128.597 30.5911 128.499 30.6448 128.399 30.6448Z" fill="#363649"/>
<path d="M130.048 29.9985C130.107 30.3367 130.429 30.5625 130.768 30.5031C131.106 30.4438 131.332 30.1217 131.272 29.7836C131.213 29.4454 130.891 29.2197 130.553 29.279C130.215 29.3383 129.989 29.6604 130.048 29.9985Z" fill="#363649"/>
<path d="M120.799 27.9369L124.805 27.4319C125.047 27.4013 125.216 27.1766 125.178 26.9355C125.14 26.6944 124.91 26.5325 124.671 26.578L120.704 27.327L120.799 27.9369Z" fill="#363649"/>
<path d="M127.174 26.7451C127.174 26.7697 127.174 26.7944 127.18 26.819C127.223 27.0537 127.457 27.2142 127.699 27.1646L130.76 26.5104C130.649 26.2943 130.532 26.0845 130.396 25.8867L127.544 26.3129C127.328 26.3439 127.174 26.529 127.174 26.7451Z" fill="#363649"/>
<path d="M124.212 32.798C122.94 32.798 121.905 31.7631 121.905 30.4908C121.905 29.2185 122.94 28.1836 124.212 28.1836C125.485 28.1836 126.52 29.2185 126.52 30.4908C126.52 31.7631 125.485 32.798 124.212 32.798ZM124.212 28.5792C123.158 28.5792 122.301 29.4368 122.301 30.4908C122.301 31.5447 123.158 32.4024 124.212 32.4024C125.266 32.4024 126.124 31.5447 126.124 30.4908C126.124 29.4368 125.267 28.5792 124.212 28.5792Z" fill="#8B95F7"/>
<path d="M130.446 32.0949C129.174 32.0949 128.139 31.06 128.139 29.7877C128.139 28.5154 129.174 27.4805 130.446 27.4805C131.719 27.4805 132.754 28.5154 132.754 29.7877C132.754 31.06 131.719 32.0949 130.446 32.0949ZM130.446 27.8761C129.392 27.8761 128.535 28.7337 128.535 29.7877C128.535 30.8416 129.392 31.6993 130.446 31.6993C131.501 31.6993 132.358 30.8416 132.358 29.7877C132.358 28.7337 131.501 27.8761 130.446 27.8761Z" fill="#8B95F7"/>
<path d="M125.411 39.8609C124.182 39.8609 123.365 38.6659 123.331 38.6152C123.263 38.5148 123.29 38.3793 123.39 38.3117C123.49 38.2449 123.626 38.2711 123.693 38.3707C123.701 38.3812 124.418 39.4232 125.411 39.4232C125.412 39.4232 125.413 39.4232 125.413 39.4232C126.101 39.4221 126.782 38.9272 127.437 37.9524C127.504 37.852 127.64 37.8251 127.741 37.893C127.841 37.9602 127.868 38.0964 127.8 38.1968C127.058 39.3008 126.254 39.8609 125.411 39.8609Z" fill="white"/>
<path d="M105.018 155.202C104.997 155.202 104.975 155.199 104.954 155.194C104.803 155.159 104.709 155.009 104.744 154.857L111.054 127.421C111.089 127.27 111.24 127.176 111.391 127.21C111.542 127.245 111.637 127.396 111.602 127.547L105.292 154.984C105.262 155.114 105.146 155.202 105.018 155.202Z" fill="#363649"/>
<path d="M133.337 99.3916C127.293 99.3916 119.001 99.2497 111.138 98.6437C110.984 98.6317 110.868 98.4963 110.88 98.3414C110.892 98.1865 111.028 98.0719 111.182 98.0827C125.872 99.2151 142.069 98.7243 142.231 98.719C142.402 98.7138 142.516 98.8359 142.521 98.9911C142.526 99.1464 142.404 99.2762 142.249 99.2811C142.173 99.2837 138.61 99.3916 133.337 99.3916Z" fill="#363649"/>
<path d="M127.068 98.0917C126.204 98.0917 125.5 97.3885 125.5 96.5246C125.5 95.6602 126.204 94.957 127.068 94.957C127.932 94.957 128.635 95.6602 128.635 96.5246C128.635 97.3885 127.932 98.0917 127.068 98.0917ZM127.068 95.5194C126.514 95.5194 126.063 95.9703 126.063 96.5246C126.063 97.0784 126.514 97.5292 127.068 97.5292C127.622 97.5292 128.073 97.0784 128.073 96.5246C128.072 95.9703 127.621 95.5194 127.068 95.5194Z" fill="#363649"/>
<path d="M140.044 133.253C139.904 133.253 139.782 133.148 139.765 133.004L136.839 108.495C136.821 108.341 136.931 108.201 137.085 108.182C137.239 108.16 137.379 108.274 137.397 108.428L140.324 132.938C140.342 133.092 140.232 133.232 140.078 133.25C140.066 133.252 140.055 133.253 140.044 133.253Z" fill="#363649"/>
<path d="M130.071 176.363C129.994 176.363 129.917 176.331 129.861 176.269C129.758 176.153 129.767 175.976 129.883 175.872C138.032 168.573 152.596 172.352 152.742 172.392C152.892 172.431 152.981 172.586 152.941 172.736C152.901 172.886 152.747 172.974 152.597 172.935C152.454 172.896 138.18 169.196 130.259 176.291C130.204 176.339 130.138 176.363 130.071 176.363Z" fill="#363649"/>
<path d="M113.525 178.064C113.455 178.064 113.385 178.038 113.331 177.986C113.246 177.905 104.688 169.93 91.2999 174.392C91.1529 174.441 90.9935 174.361 90.9442 174.214C90.895 174.066 90.9749 173.907 91.1223 173.858C104.842 169.284 113.633 177.496 113.72 177.58C113.833 177.687 113.836 177.865 113.729 177.977C113.673 178.035 113.599 178.064 113.525 178.064Z" fill="#363649"/>
<path d="M180.199 60.7368C180.524 61.4306 181.349 61.7303 182.043 61.4056C182.737 61.0813 183.037 60.2558 182.712 59.5616C182.387 58.8674 181.562 58.5681 180.869 58.8928C180.174 59.2175 179.875 60.043 180.199 60.7368Z" fill="white"/>
<path d="M179.542 64.7091C179.866 65.4029 180.692 65.7025 181.385 65.3778C182.079 65.0535 182.379 64.228 182.054 63.5342C181.73 62.8404 180.904 62.5407 180.21 62.8654C179.517 63.1897 179.217 64.0153 179.542 64.7091Z" fill="white"/>
<path d="M143.328 64.3789C143.328 64.8249 147.217 78.6166 147.217 78.6166L143.737 75.8832L143.328 64.3789Z" fill="#363649"/>
<path d="M126.703 119.787C126.693 119.787 126.684 119.787 126.674 119.786C126.52 119.77 126.407 119.632 126.423 119.478C126.436 119.353 126.769 116.395 129.776 114.56C129.909 114.48 130.082 114.522 130.162 114.654C130.243 114.787 130.201 114.96 130.069 115.041C127.308 116.725 126.986 119.507 126.983 119.535C126.967 119.68 126.845 119.787 126.703 119.787Z" fill="#363649"/>
<path d="M108.917 91.9922C108.917 91.9922 126.011 93.8183 131.382 106.711L106.703 106.506L108.917 91.9922Z" fill="#9F746A"/>
<path d="M109.099 90.1613V106.73H113.706V90.1613H109.099Z" fill="#CAC8EB"/>
<path d="M126.897 119.69C126.829 119.69 126.761 119.665 126.706 119.615C126.593 119.51 126.586 119.332 126.691 119.218C126.742 119.162 127.979 117.847 130.096 117.692C130.253 117.686 130.386 117.797 130.397 117.952C130.409 118.107 130.293 118.241 130.138 118.253C128.25 118.391 127.115 119.588 127.104 119.6C127.048 119.66 126.973 119.69 126.897 119.69Z" fill="#363649"/>
<path d="M126.75 119.637C126.595 119.637 126.469 119.51 126.469 119.355V107.715C126.469 107.56 126.595 107.434 126.75 107.434C126.905 107.434 127.031 107.56 127.031 107.715V119.355C127.031 119.51 126.905 119.637 126.75 119.637Z" fill="#363649"/>
<path d="M111.083 107.477C100.775 106.738 82.8558 103.758 78.6494 92.1055C76.6698 86.6223 79.2144 81.4716 87.3736 69.7136C92.0835 62.9263 97.4152 56.1021 100.516 52.0117L110.905 70.1603C101.357 82.7525 101.259 82.2468 98.7151 86.2853C101.501 87.3098 106.048 88.4156 112.416 88.8724L111.083 107.477Z" fill="#8B95F7"/>
<path d="M100.749 87.2221C100.722 87.2221 100.695 87.2184 100.669 87.2106L93.4194 85.0628C93.2704 85.0187 93.1853 84.862 93.2294 84.7131C93.2738 84.5638 93.4305 84.4798 93.5791 84.5231L100.829 86.6709C100.978 86.715 101.063 86.8717 101.019 87.0206C100.982 87.143 100.87 87.2221 100.749 87.2221Z" fill="#363649"/>
<path d="M105.658 77.4636C105.602 77.4636 105.546 77.4472 105.497 77.4124C105.369 77.3233 105.339 77.1478 105.428 77.0206L111.693 68.1038C111.782 67.9765 111.957 67.9467 112.085 68.0351C112.212 68.1243 112.243 68.2997 112.153 68.427L105.889 77.3438C105.834 77.4222 105.746 77.4636 105.658 77.4636Z" fill="#363649"/>
<path d="M168.837 210.225H132.216L131.869 199.569L131.537 189.351C131.522 188.872 132.042 188.578 132.454 188.823C136.373 191.157 143.176 190.212 146.171 189.635C147.089 189.458 147.857 188.832 148.211 187.967L149.74 184.237C149.925 183.785 150.359 183.486 150.847 183.473L158.793 183.262C159.648 183.239 160.265 184.074 159.994 184.884L157.829 191.346C157.665 191.835 157.901 192.37 158.374 192.575C169.595 197.447 168.837 210.225 168.837 210.225Z" fill="#8B95F7"/>
<path d="M142.305 200.426C144.646 200.426 146.544 198.77 146.544 196.727C146.544 194.684 144.646 193.027 142.305 193.027C139.963 193.027 138.065 194.684 138.065 196.727C138.065 198.77 139.963 200.426 142.305 200.426Z" fill="white"/>
<path d="M155.503 197.385C155.433 197.385 155.362 197.37 155.294 197.34C155.042 197.224 154.932 196.926 155.047 196.674C156.369 193.791 160.32 193.978 160.487 193.985C160.764 194.001 160.975 194.237 160.961 194.514C160.945 194.79 160.712 195.01 160.432 194.988C160.397 194.988 156.995 194.835 155.96 197.093C155.875 197.276 155.694 197.385 155.503 197.385Z" fill="white"/>
<path d="M158.069 200.202C157.999 200.202 157.928 200.187 157.86 200.156C157.608 200.04 157.497 199.743 157.613 199.491C158.934 196.608 162.886 196.793 163.052 196.802C163.329 196.817 163.54 197.054 163.526 197.33C163.51 197.606 163.281 197.825 162.997 197.804C162.962 197.804 159.561 197.651 158.525 199.909C158.441 200.093 158.259 200.202 158.069 200.202Z" fill="white"/>
<path d="M160.46 203.483C160.39 203.483 160.319 203.468 160.251 203.437C159.999 203.322 159.888 203.024 160.004 202.772C161.325 199.889 165.277 200.075 165.443 200.083C165.72 200.099 165.932 200.335 165.917 200.611C165.901 200.888 165.673 201.108 165.389 201.086C165.355 201.086 161.952 200.932 160.916 203.191C160.832 203.374 160.65 203.483 160.46 203.483Z" fill="white"/>
<path d="M167.605 207.875H134.477C134.2 207.875 133.975 207.65 133.975 207.373C133.975 207.096 134.2 206.871 134.477 206.871H167.605C167.882 206.871 168.106 207.096 168.106 207.373C168.106 207.65 167.882 207.875 167.605 207.875Z" fill="white"/>
<path d="M71.4614 210.225H108.083L108.43 199.569L108.761 189.351C108.777 188.872 108.256 188.578 107.844 188.823C103.925 191.157 97.1228 190.212 94.1274 189.635C93.2093 189.458 92.4415 188.832 92.087 187.967L90.5583 184.237C90.3732 183.785 89.9391 183.486 89.4514 183.473L81.5057 183.262C80.6507 183.239 80.0334 184.074 80.3051 184.884L82.4701 191.346C82.6339 191.835 82.398 192.37 81.9248 192.575C70.7038 197.447 71.4614 210.225 71.4614 210.225Z" fill="#8B95F7"/>
<path d="M97.9981 200.426C100.339 200.426 102.237 198.77 102.237 196.727C102.237 194.684 100.339 193.027 97.9981 193.027C95.6568 193.027 93.7588 194.684 93.7588 196.727C93.7588 198.77 95.6568 200.426 97.9981 200.426Z" fill="white"/>
<path d="M84.8015 197.386C84.6111 197.386 84.4294 197.277 84.3446 197.093C83.3094 194.835 79.9064 194.988 79.8721 194.988C79.5937 195.011 79.3593 194.79 79.344 194.514C79.3291 194.237 79.5407 194.001 79.8172 193.986C79.984 193.977 83.9356 193.792 85.2572 196.674C85.3729 196.926 85.262 197.224 85.0101 197.34C84.9426 197.371 84.8713 197.386 84.8015 197.386Z" fill="white"/>
<path d="M82.2366 200.202C82.0463 200.202 81.8642 200.093 81.7798 199.909C80.7449 197.651 77.3416 197.805 77.3077 197.805C77.0248 197.825 76.7945 197.607 76.7796 197.33C76.7646 197.054 76.9762 196.817 77.2528 196.802C77.4203 196.793 81.3712 196.608 82.6924 199.491C82.8081 199.743 82.6972 200.041 82.4453 200.156C82.3777 200.188 82.3068 200.202 82.2366 200.202Z" fill="white"/>
<path d="M79.8456 203.484C79.6552 203.484 79.4731 203.375 79.3888 203.191C78.3538 200.933 74.9509 201.087 74.9165 201.086C74.6325 201.109 74.4034 200.888 74.3884 200.611C74.3735 200.335 74.5851 200.099 74.8617 200.083C75.0293 200.075 78.9801 199.889 80.3012 202.772C80.4169 203.024 80.3061 203.322 80.0542 203.437C79.9866 203.469 79.9154 203.484 79.8456 203.484Z" fill="white"/>
<path d="M105.824 207.875H72.6968C72.4195 207.875 72.1948 207.65 72.1948 207.373C72.1948 207.096 72.4199 206.871 72.6968 206.871H105.824C106.102 206.871 106.326 207.096 106.326 207.373C106.326 207.65 106.102 207.875 105.824 207.875Z" fill="white"/>
<path d="M104.264 104.888C104.97 104.59 105.3 103.776 105.002 103.07C104.704 102.364 103.89 102.034 103.185 102.332C102.479 102.631 102.148 103.444 102.447 104.15C102.745 104.856 103.559 105.186 104.264 104.888Z" fill="white"/>
<path d="M108.207 105.696C108.913 105.398 109.243 104.584 108.945 103.879C108.647 103.173 107.833 102.843 107.127 103.141C106.422 103.439 106.091 104.253 106.39 104.958C106.688 105.664 107.501 105.994 108.207 105.696Z" fill="white"/>
<path d="M176.848 35.009C180.04 27.455 176.505 18.7431 168.951 15.5504C161.397 12.3577 152.685 15.8932 149.492 23.4473C146.3 31.0013 149.835 39.7132 157.389 42.9059C164.943 46.0985 173.655 42.563 176.848 35.009Z" fill="white"/>
<path d="M152.52 17.1242C145.962 23.1224 145.508 33.3014 151.507 39.8595C157.505 46.4176 167.684 46.8711 174.242 40.8728C180.8 34.8745 181.253 24.6955 175.255 18.1374C169.257 11.5797 159.078 11.1259 152.52 17.1242ZM173.646 19.6094C178.832 25.2789 178.44 34.0784 172.77 39.2639C167.101 44.4493 158.301 44.0574 153.116 38.3879C147.931 32.7185 148.322 23.9189 153.992 18.7335C159.661 13.5481 168.461 13.9399 173.646 19.6094Z" fill="#FBB86F"/>
<path d="M188.561 56.5842C187.762 57.3157 186.52 57.2605 185.789 56.4607L173.151 42.5839C172.42 41.7841 172.475 40.5428 173.275 39.8113C174.074 39.0798 175.316 39.135 176.047 39.9348L188.685 53.8116C189.416 54.6114 189.361 55.8527 188.561 56.5842Z" fill="#FBB86F"/>
<path d="M181.591 43.9278C180.854 44.2174 179.984 44.0868 179.359 43.5184C177.838 42.1368 176.031 41.5628 174.86 42.0883C174.55 42.2278 174.263 42.4566 174.007 42.769C173.254 43.686 171.901 43.82 170.983 43.0676C170.066 42.3152 169.932 40.9615 170.685 40.0442C171.365 39.2145 172.177 38.5838 173.098 38.1699C175.89 36.9133 179.395 37.7459 182.248 40.3383C183.126 41.1362 183.191 42.4947 182.394 43.3729C182.164 43.6255 181.888 43.811 181.591 43.9278Z" fill="#9F746A"/>
<path d="M170.254 40.5858C170.187 40.5858 170.121 40.5627 170.068 40.5157C169.951 40.4134 169.94 40.2358 170.042 40.1193C170.131 40.0178 172.267 37.6345 176.179 37.8995C176.333 37.9099 176.451 38.0443 176.44 38.1992C176.43 38.3544 176.295 38.4697 176.141 38.4608C172.523 38.2145 170.485 40.4679 170.464 40.4911C170.409 40.5538 170.331 40.5858 170.254 40.5858Z" fill="#363649"/>
<path d="M172.503 43.7121C172.127 43.7121 171.781 43.6516 171.465 43.5307C170.574 43.19 170.272 42.4857 170.259 42.4559C170.2 42.3126 170.268 42.148 170.411 42.0883C170.554 42.0289 170.718 42.0961 170.778 42.2383C170.789 42.2644 171.015 42.763 171.68 43.0112C172.438 43.2949 173.492 43.1333 174.726 42.5432C178.255 40.8581 180.454 41.7438 180.546 41.7826C180.689 41.8427 180.756 42.0073 180.696 42.1506C180.636 42.2939 180.471 42.3611 180.328 42.301C180.309 42.2928 178.25 41.4825 174.969 43.0504C174.046 43.4912 173.221 43.7121 172.503 43.7121Z" fill="#363649"/>
<path d="M183.742 46.4356C183.005 46.7252 182.136 46.5946 181.51 46.0262C179.99 44.6446 178.182 44.0706 177.011 44.5961C176.701 44.7356 176.414 44.9644 176.158 45.2768C175.406 46.1938 174.052 46.3281 173.135 45.5754C172.217 44.823 172.084 43.4693 172.836 42.552C173.517 41.7223 174.328 41.0916 175.249 40.6777C178.041 39.4211 181.546 40.2537 184.4 42.8461C185.278 43.644 185.343 45.0025 184.545 45.8807C184.315 46.1333 184.039 46.3188 183.742 46.4356Z" fill="#9F746A"/>
<path d="M172.402 43.0902C172.337 43.0902 172.27 43.067 172.217 43.0204C172.1 42.9181 172.088 42.7405 172.191 42.6236C172.28 42.5218 174.416 40.1381 178.328 40.4034C178.483 40.4139 178.6 40.5482 178.589 40.7031C178.579 40.8584 178.444 40.974 178.29 40.9647C174.654 40.7158 172.634 42.9719 172.614 42.9946C172.558 43.0577 172.481 43.0902 172.402 43.0902Z" fill="#363649"/>
<path d="M174.651 46.2162C174.276 46.2162 173.929 46.1558 173.613 46.0349C172.723 45.6938 172.421 44.9895 172.408 44.96C172.349 44.8167 172.417 44.6521 172.56 44.5924C172.703 44.5335 172.867 44.6002 172.927 44.7424C172.938 44.7674 173.163 45.2668 173.828 45.515C174.587 45.799 175.64 45.637 176.875 45.047C180.403 43.3619 182.603 44.2479 182.694 44.2864C182.838 44.3465 182.905 44.5114 182.845 44.6544C182.785 44.7977 182.62 44.8649 182.477 44.8048C182.458 44.7969 180.4 43.9863 177.117 45.5542C176.195 45.9953 175.37 46.2162 174.651 46.2162Z" fill="#363649"/>
<path d="M186.676 48.8223C185.939 49.112 185.069 48.9813 184.444 48.4129C182.923 47.0313 181.116 46.4573 179.945 46.9828C179.635 47.1224 179.348 47.3511 179.092 47.6635C178.339 48.5805 176.985 48.7145 176.068 47.9621C175.151 47.2097 175.017 45.8561 175.77 44.9387C176.45 44.109 177.262 43.4783 178.183 43.0644C180.975 41.8078 184.48 42.6405 187.333 45.2328C188.211 46.0307 188.276 47.3892 187.479 48.2674C187.249 48.5204 186.973 48.7055 186.676 48.8223Z" fill="#9F746A"/>
<path d="M175.339 45.4765C175.273 45.4765 175.207 45.4534 175.154 45.4063C175.037 45.3037 175.026 45.1264 175.128 45.01C175.217 44.9085 177.354 42.527 181.265 42.7898C181.419 42.8002 181.537 42.9346 181.526 43.0894C181.516 43.2447 181.382 43.3608 181.227 43.3511C177.609 43.1048 175.571 45.3582 175.551 45.3814C175.495 45.4441 175.417 45.4765 175.339 45.4765Z" fill="#363649"/>
<path d="M177.586 48.607C177.21 48.607 176.864 48.5465 176.548 48.4256C175.657 48.0849 175.355 47.3806 175.342 47.3508C175.283 47.2075 175.351 47.0429 175.494 46.9832C175.637 46.9242 175.801 46.9906 175.861 47.1332C175.872 47.1593 176.098 47.6579 176.762 47.9057C177.521 48.189 178.575 48.0278 179.809 47.4377C183.337 45.7527 185.537 46.6383 185.629 46.6771C185.772 46.7372 185.839 46.9022 185.779 47.0451C185.719 47.1881 185.554 47.256 185.411 47.1955C185.392 47.1877 183.333 46.3771 180.052 47.9449C179.129 48.3861 178.304 48.607 177.586 48.607Z" fill="#363649"/>
<path d="M188.653 51.6466C187.916 51.9362 187.047 51.8056 186.421 51.2372C184.9 49.8555 183.093 49.2815 181.922 49.807C181.612 49.9466 181.325 50.1754 181.069 50.4877C180.317 51.4047 178.963 51.5387 178.046 50.7863C177.128 50.0339 176.995 48.6803 177.747 47.7629C178.428 46.9333 179.24 46.3025 180.16 45.8887C182.952 44.632 186.458 45.4647 189.311 48.057C190.189 48.8549 190.254 50.2135 189.456 51.0916C189.226 51.3447 188.95 51.5298 188.653 51.6466Z" fill="#9F746A"/>
<path d="M177.32 48.3007C177.254 48.3007 177.188 48.2775 177.134 48.2305C177.018 48.1283 177.006 47.9506 177.108 47.8342C177.198 47.7327 179.336 45.3493 183.245 45.6143C183.4 45.6247 183.517 45.7591 183.507 45.914C183.496 46.0693 183.361 46.185 183.207 46.1756C179.585 45.9241 177.551 48.1828 177.531 48.2059C177.475 48.2686 177.398 48.3007 177.32 48.3007Z" fill="#363649"/>
<path d="M179.329 51.2156C178.973 51.2156 178.647 51.1608 178.354 51.0511C177.59 50.7648 177.338 50.1997 177.328 50.1759C177.266 50.0333 177.331 49.8676 177.474 49.806C177.616 49.7448 177.78 49.8094 177.843 49.9501C177.853 49.9725 178.031 50.3367 178.57 50.5315C179.092 50.72 180.06 50.7786 181.712 49.9896C185.252 48.2982 187.539 49.4589 187.635 49.5093C187.772 49.5817 187.825 49.7519 187.752 49.8892C187.68 50.0266 187.51 50.0796 187.373 50.0072C187.352 49.9967 185.224 48.9349 181.954 50.4972C180.952 50.9757 180.073 51.2156 179.329 51.2156Z" fill="#363649"/>
<path d="M183.764 102.616H145.816L155.124 65.7422H193.072L183.764 102.616Z" fill="#FBB86F"/>
<path d="M188.779 102.616H150.831L160.139 65.7422H198.087L188.779 102.616Z" fill="#FB8769"/>
<path d="M178.023 85.9953L173.18 102.565H180.573L178.788 85.9102L178.023 85.9953Z" fill="#363649"/>
<path d="M191.957 116.678H177.637L178.532 85.9492H184.499L191.957 116.678Z" fill="#FBB86F"/>
<path d="M227.519 116.805H112.503V119.562H227.519V116.805Z" fill="#363649"/>
<path d="M226.01 210.11C225.893 210.11 225.786 210.03 225.759 209.91L204.706 119.017L185.501 209.168C185.471 209.307 185.334 209.398 185.194 209.366C185.055 209.337 184.966 209.199 184.996 209.06L204.685 116.637L226.263 209.794C226.295 209.932 226.208 210.071 226.069 210.104C226.05 210.108 226.03 210.11 226.01 210.11Z" fill="#363649"/>
</svg>
