<svg width="157" height="170" viewBox="0 0 157 170" fill="none" xmlns="http://www.w3.org/2000/svg">
<path d="M51.5101 3.6832C47.9638 8.01297 48.592 11.9532 49.5983 15.5998C45.2158 12.9607 41.4479 18.8938 42.6555 21.2585C37.0711 25.082 41.8969 32.1224 47.8607 30.4136C50.705 36.9556 64.6292 37.5089 64.56 33.7359C76.0118 36.3019 71.0811 23.6737 67.6097 22.5166C72.389 21.6112 71.6849 15.775 68.4147 13.8128C72.2382 9.28463 70.3412 3.80113 65.4785 3.09641C61.0422 -1.98513 54.3947 0.161332 51.5101 3.6832Z" fill="#263238"/>
<path d="M73.6772 37.2322C73.6868 39.4705 73.7684 41.8477 73.9357 44.124C74.1029 46.4105 74.3603 48.689 74.8553 50.7754C74.9086 51.0436 74.98 51.293 75.0537 51.5402L75.2391 52.195C75.3094 52.4122 75.344 52.4881 75.4182 52.593C75.543 52.8068 76.3293 53.0449 77.2812 52.9876C79.2032 52.8941 81.5158 52.1809 83.5976 51.4036L84.9792 53.749C84.4361 54.1674 83.9281 54.5076 83.3782 54.8506C82.835 55.1896 82.28 55.5179 81.6972 55.8082C80.5338 56.3967 79.2967 56.9058 77.8675 57.2074C77.1503 57.3503 76.3787 57.4455 75.5169 57.3917C74.6653 57.3299 73.6828 57.1071 72.761 56.5293C71.8335 55.9635 71.1072 55.049 70.7047 54.1635L70.5618 53.838L70.4716 53.5988L70.2919 53.1192C70.1695 52.7983 70.0521 52.4774 69.9608 52.1616C69.158 49.6154 68.7578 47.1112 68.4805 44.6161C68.3592 43.3682 68.2481 42.1238 68.2107 40.8799C68.1693 39.6241 68.133 38.4177 68.1812 37.1063L73.6772 37.2322Z" fill="#E3C290"/>
<path d="M71.1284 31.0499C75.7677 35.1104 75.1083 42.1433 75.1083 42.1433L66.2345 43.6582C66.2345 43.6582 64.0194 36.3973 65.2769 33.875C66.5894 31.2427 68.5176 28.7645 71.1284 31.0499Z" fill="#407BFF"/>
<path opacity="0.3" d="M71.1284 31.0499C75.7677 35.1104 75.1083 42.1433 75.1083 42.1433L66.2345 43.6582C66.2345 43.6582 64.0194 36.3973 65.2769 33.875C66.5894 31.2427 68.5176 28.7645 71.1284 31.0499Z" fill="white"/>
<path opacity="0.4" d="M68.6471 37.5497L65.3135 39.8571C65.7047 41.9208 66.2319 43.6557 66.2319 43.6557L69.2708 43.1398C69.1744 39.5794 68.6471 37.5497 68.6471 37.5497Z" fill="#407BFF"/>
<path d="M83.0847 51.8904L86.5073 48.8895L87.9099 54.0283C87.9099 54.0283 85.1024 55.3142 82.5977 53.7636L83.0847 51.8904Z" fill="#E3C290"/>
<path d="M90.9851 48.6844L91.315 52.6939L87.9099 54.0268L86.5073 48.888L90.9851 48.6844Z" fill="#E3C290"/>
<path d="M35.3545 162.509L40.3476 162.991L43.7748 151.271L38.7817 150.79L35.3545 162.509Z" fill="#E3C290"/>
<path d="M3.57617 142.763L7.03851 146.469L15.5801 138.237L12.1178 134.53L3.57617 142.763Z" fill="#E3C290"/>
<path d="M7.86044 146.456L5.41521 141.278C5.3262 141.089 5.12323 140.998 4.9265 141.058L0.550807 142.402C0.0972499 142.542 -0.132931 143.098 0.0802405 143.528C0.963543 145.319 1.4806 146.139 2.5561 148.417C3.21772 149.818 4.47464 153.014 5.38856 154.948C6.28206 156.841 8.26411 156.083 8.05661 155.196C7.12795 151.217 7.49363 149.06 7.94095 147.36C8.02145 147.054 7.99084 146.732 7.86044 146.456Z" fill="#263238"/>
<path d="M40.8714 161.47H34.8244C34.6044 161.47 34.406 161.623 34.347 161.837L33.0323 166.621C32.8956 167.118 33.2613 167.574 33.7699 167.578C35.9005 167.598 36.9108 167.588 39.5703 167.588C41.2065 167.588 45.4388 167.588 47.698 167.588C49.9074 167.588 50.3701 165.354 49.4556 165.152C45.356 164.245 42.993 162.994 41.7281 161.8C41.4996 161.585 41.1935 161.47 40.8714 161.47Z" fill="#263238"/>
<path opacity="0.2" d="M43.7731 151.275L42.0076 157.316H36.8711L38.7777 150.794L43.7731 151.275Z" fill="black"/>
<path opacity="0.2" d="M12.1141 134.53L15.5781 138.239L11.1735 142.48L7.70947 138.771L12.1141 134.53Z" fill="black"/>
<path d="M69.7006 30.2282C69.7006 30.2282 71.8448 31.3445 62.5123 60.1743C54.3919 58.9316 46 57.6474 42.0483 57.0425C43.6664 48.7662 44.4618 43.632 43.0972 25.9308C43.0972 25.9308 47.5273 25.6541 51.962 26.1156C55.4311 26.4767 58.2692 26.7982 61.2542 27.5381C65.19 28.5132 69.7006 30.2282 69.7006 30.2282Z" fill="#407BFF"/>
<path opacity="0.3" d="M69.7006 30.2282C69.7006 30.2282 71.8448 31.3445 62.5123 60.1743C54.3919 58.9316 46 57.6474 42.0483 57.0425C43.6664 48.7662 44.4618 43.632 43.0972 25.9308C43.0972 25.9308 47.5273 25.6541 51.962 26.1156C55.4311 26.4767 58.2692 26.7982 61.2542 27.5381C65.19 28.5132 69.7006 30.2282 69.7006 30.2282Z" fill="white"/>
<path d="M54.4847 15.7919C54.6134 18.8715 54.3599 24.4389 51.9629 26.1143C51.9629 26.1143 56.7445 32.2061 58.9505 38.2968C61.745 34.8118 61.2551 27.5367 61.2551 27.5367C58.0428 26.2305 58.5077 23.7699 59.4437 21.5356L54.4847 15.7919Z" fill="#E3C290"/>
<path opacity="0.2" d="M56.5055 18.1356L59.4412 21.5328C59.2178 22.0611 59.0239 22.602 58.902 23.1383C57.6564 22.7591 55.9113 21.3247 55.9805 19.9703C56.0151 19.295 56.3496 18.4287 56.5055 18.1356Z" fill="black"/>
<path d="M52.1077 10.838C53.0624 15.8061 53.3606 17.9293 56.222 20.1727C60.5263 23.5472 66.4197 21.2879 66.9685 16.1349C67.4623 11.4968 65.8181 4.15141 60.6589 2.79244C55.5757 1.45274 51.153 5.86982 52.1077 10.838Z" fill="#E3C290"/>
<path d="M51.0406 5.99711C49.0818 9.20943 63.6234 5.32641 64.56 3.98445C62.9142 1.78243 60.063 1.30109 57.1784 1.93834C54.2938 2.57616 51.8792 4.6217 51.0406 5.99711Z" fill="#263238"/>
<path d="M54.7972 4.95741C56.3273 6.8856 57.4992 12.1899 52.9115 14.7622C50.0342 11.9002 50.1017 10.3241 50.0343 8.78146C49.9674 7.23824 53.1201 2.84441 54.7972 4.95741Z" fill="#263238"/>
<path d="M51.4328 14.9533C51.8524 15.9143 52.6761 16.5923 53.4835 16.8945C54.6979 17.3486 55.4151 16.289 55.1701 15.0854C54.9496 14.0019 54.0521 12.4599 52.7884 12.5222C51.5439 12.5846 50.9532 13.854 51.4328 14.9533Z" fill="#E3C290"/>
<path d="M62.5124 60.1731C62.5124 60.1731 67.4527 91.4333 61.3785 112.845C57.3101 127.185 44.1529 155.829 44.1529 155.829L35.3896 155.027C35.3896 155.027 45.9139 124.752 48.4674 112.741C52.8352 92.1959 47.528 57.8798 47.528 57.8798L62.5124 60.1731Z" fill="#263238"/>
<path opacity="0.2" d="M54.0745 65.868L49.2305 72.5025C49.8757 79.7543 50.3972 88.8056 50.1132 97.464C57.0124 86.8184 55.0626 71.8085 54.0745 65.868Z" fill="black"/>
<path d="M45.4088 156.019L34.541 155.742L35.1698 152.403L46.2581 152.929L45.4088 156.019Z" fill="#407BFF"/>
<path d="M58.0345 59.5506C58.0345 59.5506 50.5803 90.7723 41.8652 108.723C34.826 123.222 13.248 142.391 13.248 142.391L8.69824 137.043C8.69824 137.043 23.6679 116.499 28.9099 106.863C41.7625 83.2342 34.0957 65.1719 42.0489 57.0419L58.0345 59.5506Z" fill="#263238"/>
<path d="M13.6977 143.096L7.80371 136.544L10.0794 133.839L16.3198 140.943L13.6977 143.096Z" fill="#407BFF"/>
<path d="M41.926 55.7935L40.7229 57.4841C40.6294 57.6151 40.7757 57.7857 41.0121 57.822L62.4733 61.1063C62.6575 61.1347 62.8242 61.0678 62.8537 60.9532L63.3186 59.1498C63.3509 59.0251 63.2075 58.893 63.0056 58.8618L42.2832 55.6908C42.1307 55.6676 41.9861 55.709 41.926 55.7935Z" fill="#407BFF"/>
<path d="M44.3545 58.5377L43.7994 58.4527C43.6889 58.4357 43.6135 58.3659 43.6316 58.2973L44.2564 55.9576C44.2745 55.889 44.38 55.847 44.4905 55.864L45.0456 55.9491C45.1561 55.9661 45.2315 56.0358 45.2134 56.1044L44.5892 58.4442C44.5699 58.5122 44.465 58.5547 44.3545 58.5377Z" fill="#263238"/>
<path d="M60.8828 61.0651L60.3277 60.98C60.2172 60.963 60.1418 60.8933 60.1599 60.8247L60.7847 58.4849C60.8028 58.4163 60.9083 58.3743 61.0188 58.3914L61.5739 58.4764C61.6844 58.4934 61.7598 58.5631 61.7417 58.6317L61.1169 60.9715C61.0988 61.0401 60.9933 61.0821 60.8828 61.0651Z" fill="#263238"/>
<path d="M52.6186 59.8014L52.0636 59.7164C51.953 59.6993 51.8776 59.6296 51.8958 59.561L52.52 57.2212C52.5381 57.1526 52.6436 57.1107 52.7541 57.1277L53.3092 57.2127C53.4197 57.2297 53.4951 57.2995 53.477 57.3681L52.8522 59.7079C52.8346 59.7759 52.7292 59.8184 52.6186 59.8014Z" fill="#263238"/>
<path d="M60.3874 11.2123C60.4401 11.6199 60.6986 11.9227 60.9657 11.8881C61.2321 11.8535 61.4056 11.4952 61.3529 11.0875C61.3002 10.6799 61.0417 10.3772 60.7746 10.4117C60.5076 10.4463 60.3347 10.8046 60.3874 11.2123Z" fill="#263238"/>
<path d="M64.9963 10.6185C65.049 11.0262 65.3075 11.3289 65.5745 11.2943C65.841 11.2597 66.0145 10.9014 65.9618 10.4938C65.909 10.0862 65.6505 9.78342 65.3835 9.818C65.117 9.85202 64.9435 10.2103 64.9963 10.6185Z" fill="#263238"/>
<path d="M65.2686 9.85494L66.2114 9.44617C66.2114 9.44617 65.8077 10.2762 65.2686 9.85494Z" fill="#263238"/>
<path d="M63.3662 11.5184C63.3662 11.5184 64.2852 13.1847 65.1561 13.9331C64.6827 14.5051 63.7376 14.394 63.7376 14.394L63.3662 11.5184Z" fill="#630F0F"/>
<path d="M61.7502 16.1879C60.3249 16.0944 59.5511 15.2083 59.5142 15.1646C59.4785 15.1227 59.483 15.0592 59.5255 15.0229C59.5669 14.9872 59.6304 14.9917 59.6673 15.0342C59.6775 15.0455 60.6884 16.1965 62.4822 15.9634C62.5394 15.9549 62.5876 15.9952 62.5944 16.0502C62.6018 16.1052 62.5627 16.1556 62.5077 16.1624C62.2372 16.1976 61.9844 16.2038 61.7502 16.1879Z" fill="#263238"/>
<path d="M58.0765 9.1378C58.0413 9.13554 58.0062 9.12363 57.975 9.10208C57.8843 9.03859 57.8616 8.91386 57.9256 8.82258C58.6774 7.74538 59.7705 7.76749 59.817 7.76862C59.9332 7.78053 60.0137 7.86444 60.0109 7.97499C60.008 8.08555 59.9156 8.17286 59.8051 8.17003C59.7677 8.16889 58.8787 8.15869 58.2551 9.05219C58.2125 9.11229 58.1445 9.14234 58.0765 9.1378Z" fill="#263238"/>
<path d="M66.7056 7.76849C66.6728 7.76622 66.6399 7.75602 66.6098 7.73674C65.6868 7.13918 64.85 7.49975 64.8421 7.50316C64.74 7.54851 64.6221 7.50258 64.5773 7.4011C64.5325 7.29962 64.5779 7.18113 64.6794 7.13634C64.7219 7.11706 65.7259 6.68449 66.8281 7.39941C66.9211 7.46007 66.9477 7.58422 66.8876 7.6772C66.8468 7.7407 66.7759 7.77302 66.7056 7.76849Z" fill="#263238"/>
<path d="M45.5363 33.8273C44.6887 35.0553 43.7872 36.3167 42.943 37.5799C42.0739 38.834 41.219 40.0943 40.398 41.3659C39.5907 42.6427 38.776 43.9081 38.0554 45.1838C37.6931 45.821 37.345 46.452 37.044 47.0711L36.828 47.5304L36.7735 47.6454L36.7463 47.7027C36.7355 47.7254 36.7253 47.7492 36.7424 47.7067C36.7611 47.6568 36.7741 47.6046 36.7803 47.5525C36.7945 47.4901 36.8076 47.4153 36.8076 47.3461C36.8336 47.0433 36.7265 46.6907 36.6154 46.5229C36.4963 46.3398 36.4441 46.3131 36.4362 46.3109C36.4305 46.3239 36.604 46.4617 36.8297 46.5756C37.0587 46.6958 37.3439 46.8154 37.6466 46.9271C38.255 47.1516 38.9404 47.3438 39.6417 47.5156C41.0477 47.8739 42.5343 48.1347 44.0287 48.3881C47.0228 48.8649 50.1002 49.2629 53.1452 49.6139L53.1016 52.3358C49.9295 52.5405 46.7915 52.5864 43.5996 52.4163C42.0025 52.3375 40.4031 52.1884 38.7578 51.9435C37.9346 51.8091 37.1035 51.6487 36.2287 51.4049C35.7904 51.2813 35.342 51.1395 34.8618 50.94C34.381 50.7336 33.8645 50.4949 33.2636 50.0062C32.9642 49.75 32.6337 49.4404 32.3309 48.9131C32.0305 48.4069 31.8241 47.6636 31.8797 46.9725C31.8938 46.8069 31.9154 46.6357 31.9471 46.4775C31.9817 46.3318 32.0225 46.1867 32.069 46.0438L32.1155 45.9117L32.145 45.8346L32.2034 45.6804L32.4392 45.0647C32.7641 44.2608 33.1037 43.496 33.4733 42.7612C34.2104 41.29 34.9797 39.8771 35.8092 38.5102C36.6358 37.1445 37.4811 35.8008 38.3519 34.477C39.25 33.1645 40.1225 31.8707 41.1005 30.5809L45.5363 33.8273Z" fill="#E3C290"/>
<path d="M51.6081 50.1529L55.7615 48.2899L55.6187 52.7739C55.6187 52.7739 52.7454 53.6067 51.167 52.1928L51.6081 50.1529Z" fill="#E3C290"/>
<path d="M58.188 48.7679L57.3245 52.6974L55.6191 52.7739L55.762 48.2899L58.188 48.7679Z" fill="#E3C290"/>
<path opacity="0.4" d="M46.0209 35.4305L43.7412 37.3049C43.7922 38.9944 43.8036 40.5251 43.7866 41.9311C45.1671 41.0014 46.2301 37.2453 46.0209 35.4305Z" fill="#407BFF"/>
<path d="M43.0972 25.9293C40.5453 26.21 36.5342 33.214 36.5342 33.214L43.6289 40.5033C43.6289 40.5033 47.9372 34.1988 47.8833 30.893C47.8374 28.0877 46.348 25.5722 43.0972 25.9293Z" fill="#407BFF"/>
<path opacity="0.3" d="M43.0972 25.9293C40.5453 26.21 36.5342 33.214 36.5342 33.214L43.6289 40.5033C43.6289 40.5033 47.9372 34.1988 47.8833 30.893C47.8374 28.0877 46.348 25.5722 43.0972 25.9293Z" fill="white"/>
<path d="M8.65759 149.203C8.59183 149.199 8.5272 149.184 8.4637 149.157C7.87351 148.914 7.55091 147.771 7.41145 147.112C7.40294 147.073 7.41882 147.033 7.4517 147.009C7.48458 146.987 7.52767 146.985 7.56225 147.005C7.73971 147.114 9.29541 148.081 9.30618 148.721C9.30788 148.82 9.275 148.958 9.11115 149.066C8.95637 149.167 8.805 149.213 8.65759 149.203ZM7.6609 147.307C7.88201 148.219 8.2046 148.834 8.53967 148.972C8.68481 149.032 8.83448 149.007 8.99946 148.898C9.09471 148.836 9.10491 148.77 9.10378 148.725C9.09811 148.332 8.19327 147.657 7.6609 147.307Z" fill="#407BFF"/>
<path d="M9.00962 147.649C8.43757 147.612 7.7476 147.383 7.45109 147.174C7.42217 147.154 7.40573 147.119 7.40913 147.083C7.41254 147.048 7.43408 147.017 7.46639 147.001C7.52195 146.975 8.84521 146.357 9.51647 146.646C9.69166 146.721 9.81072 146.849 9.86911 147.027C9.96096 147.304 9.83113 147.453 9.74552 147.516C9.58394 147.636 9.31294 147.669 9.00962 147.649ZM7.72946 147.106C8.26012 147.375 9.3101 147.587 9.62532 147.354C9.67748 147.315 9.73134 147.25 9.67805 147.09C9.6378 146.968 9.55842 146.883 9.4371 146.831C8.97957 146.633 8.10421 146.951 7.72946 147.106Z" fill="#407BFF"/>
<path d="M43.555 162.449C42.9738 162.449 42.3423 162.337 41.904 162.24C41.8621 162.23 41.8309 162.195 41.8258 162.153C41.8212 162.11 41.8439 162.069 41.883 162.051C42.1319 161.934 44.3254 160.92 44.8782 161.294C44.9491 161.342 45.0307 161.434 45.0211 161.605C45.0075 161.841 44.9071 162.031 44.7223 162.171C44.4485 162.378 44.0182 162.449 43.555 162.449ZM42.2487 162.106C42.9001 162.228 44.1049 162.387 44.601 162.011C44.7387 161.907 44.8102 161.771 44.8204 161.594C44.8249 161.512 44.7932 161.48 44.7654 161.461C44.457 161.251 43.1598 161.704 42.2487 162.106Z" fill="#407BFF"/>
<path d="M41.9258 162.24C41.9025 162.24 41.8793 162.232 41.8611 162.216C41.8328 162.192 41.8197 162.154 41.8283 162.117C41.8492 162.024 42.347 159.862 43.5376 159.999C43.8358 160.035 43.9175 160.183 43.9333 160.3C44.0076 160.851 42.6242 161.962 41.9643 162.232C41.9513 162.237 41.9382 162.24 41.9258 162.24ZM43.4293 160.194C42.6685 160.194 42.2251 161.453 42.0783 161.957C42.7926 161.583 43.7814 160.68 43.7338 160.328C43.7304 160.302 43.7196 160.224 43.5127 160.199C43.4849 160.196 43.4565 160.194 43.4293 160.194Z" fill="#407BFF"/>
<path d="M60.6597 10.4506L61.6025 10.0419C61.6025 10.0419 61.1988 10.8713 60.6597 10.4506Z" fill="#263238"/>
<path d="M93.5232 1.77614L155.055 10.6194C156.294 10.7974 157.155 11.9466 156.976 13.1859L134.826 167.315C134.648 168.554 133.499 169.414 132.259 169.236L70.7274 160.393C69.4881 160.215 68.628 159.066 68.806 157.826L90.9566 3.69752C91.1347 2.45818 92.2833 1.59812 93.5232 1.77614Z" fill="#407BFF"/>
<path opacity="0.2" d="M93.5232 1.77614L155.055 10.6194C156.294 10.7974 157.155 11.9466 156.976 13.1859L134.826 167.315C134.648 168.554 133.499 169.414 132.259 169.236L70.7274 160.393C69.4881 160.215 68.628 159.066 68.806 157.826L90.9566 3.69752C91.1347 2.45818 92.2833 1.59812 93.5232 1.77614Z" fill="black"/>
<path opacity="0.3" d="M154.765 10.5808L155.055 10.6222C156.294 10.8002 157.155 11.9494 156.976 13.1888L134.826 167.318C134.648 168.557 133.498 169.417 132.259 169.239L131.969 169.198C130.73 169.02 129.869 167.87 130.048 166.631L152.198 12.5022C152.376 11.2629 153.525 10.4028 154.765 10.5808Z" fill="black"/>
<path d="M154.421 13.9363L95.5698 5.47546L73.7241 157.428L132.576 165.889L154.421 13.9363Z" fill="white"/>
<path opacity="0.2" d="M95.5779 5.47156L152.839 13.7008L131.127 164.779L73.7397 157.429L95.5779 5.47156Z" fill="#407BFF"/>
<path d="M95.5779 5.47156L151.689 11.6779L129.85 163.635L73.7397 157.429L95.5779 5.47156Z" fill="white"/>
<path opacity="0.2" d="M95.5779 5.47156L150.132 11.4545L127.922 162.656L73.7397 157.429L95.5779 5.47156Z" fill="#407BFF"/>
<path d="M95.5779 5.47156L149.584 10.6472L127.189 161.849L73.7397 157.429L95.5779 5.47156Z" fill="white"/>
<path opacity="0.2" d="M95.5779 5.47156L147.391 10.4369L125.405 160.891L73.7397 157.429L95.5779 5.47156Z" fill="#407BFF"/>
<path d="M95.5779 5.47156L145.715 9.8138L123.477 160.281L73.7397 157.429L95.5779 5.47156Z" fill="white"/>
<path opacity="0.2" d="M95.5779 5.47156L142.109 9.50198L119.872 160.075L73.7397 157.429L95.5779 5.47156Z" fill="#407BFF"/>
<path d="M107.2 6.63995e-06L107.159 0.602417L110.879 0.855565L110.92 0.253154L107.2 6.63995e-06Z" fill="#407BFF"/>
<path d="M114.48 0.4961L114.439 1.09851L125.435 1.84687L125.476 1.24446L114.48 0.4961Z" fill="#407BFF"/>
<path d="M137.919 4.21616L88.7631 0.86777C87.0793 0.753247 85.5916 1.95574 85.3518 3.62653L63.4762 155.841C63.2092 157.698 64.5778 159.39 66.4493 159.517L115.605 162.866C117.288 162.98 118.776 161.778 119.016 160.107L140.892 7.89223C141.158 6.03548 139.79 4.34372 137.919 4.21616Z" fill="#407BFF"/>
<path opacity="0.2" d="M112.105 158.166C112.059 158.166 112.014 158.165 111.969 158.162L68.2638 155.185C67.7037 155.147 67.1798 154.874 66.8266 154.438C66.474 154.001 66.317 153.433 66.3969 152.877L87.4952 6.06955C87.6449 5.02693 88.5821 4.26609 89.6366 4.33753L133.341 7.31456C133.901 7.35254 134.425 7.62468 134.779 8.06123C135.131 8.49778 135.288 9.06699 135.208 9.6226L114.11 156.43C113.967 157.427 113.1 158.166 112.105 158.166ZM89.5 4.93679C88.802 4.93679 88.1931 5.45555 88.0928 6.15573L66.9945 152.964C66.9378 153.359 67.0449 153.748 67.2961 154.059C67.5472 154.37 67.9055 154.556 68.3047 154.583L112.009 157.56C112.752 157.61 113.408 157.076 113.512 156.344L134.611 9.53756C134.667 9.14183 134.56 8.7529 134.309 8.44165C134.058 8.13096 133.7 7.94444 133.301 7.91722L89.5958 4.94019C89.564 4.93793 89.5317 4.93679 89.5 4.93679Z" fill="white"/>
</svg>
