<svg width="97" height="97" viewBox="0 0 97 97" fill="none" xmlns="http://www.w3.org/2000/svg">
<path d="M40.6221 13.831C43.8194 7.09539 53.0574 7.09538 56.2547 13.831L61.7804 25.472C63.0501 28.1467 65.5043 30.0006 68.3433 30.4295L80.6992 32.2962C87.8486 33.3763 90.7033 42.5111 85.53 47.754L76.5891 56.8153C74.5348 58.8972 73.5974 61.8969 74.0823 64.8367L76.193 77.6314C77.4142 85.0346 69.9405 90.6801 63.546 87.1848L52.4945 81.144C49.9552 79.756 46.9216 79.756 44.3823 81.144L33.3309 87.1848C26.9363 90.6801 19.4626 85.0346 20.6838 77.6314L22.7945 64.8367C23.2794 61.8969 22.342 58.8972 20.2877 56.8153L11.3468 47.754C6.17353 42.5111 9.02822 33.3763 16.1776 32.2962L28.5335 30.4295C31.3725 30.0006 33.8267 28.1467 35.0964 25.472L40.6221 13.831Z" fill="#F2F7FF"/>
<path fill-rule="evenodd" clip-rule="evenodd" d="M63.3451 42.2409C63.9567 42.7914 64.0063 43.7335 63.4558 44.3452L48.0838 61.4252C46.1477 63.5764 42.87 63.8445 40.61 62.0366L33.6042 56.4319C32.9616 55.9178 32.8574 54.9802 33.3715 54.3376C33.8855 53.695 34.8232 53.5908 35.4658 54.1049L42.4716 59.7096C43.4988 60.5314 44.9887 60.4095 45.8688 59.4317L61.2408 42.3517C61.7913 41.74 62.7334 41.6904 63.3451 42.2409Z" fill="#039856"/>
</svg>
