<svg width="157" height="170" viewBox="0 0 157 170" fill="none" xmlns="http://www.w3.org/2000/svg">
<path d="M51.5101 3.6843C47.9638 8.01407 48.592 11.9543 49.5983 15.6009C45.2158 12.9618 41.4479 18.8949 42.6555 21.2596C37.0711 25.0831 41.8969 32.1235 47.8607 30.4147C50.705 36.9567 64.6292 37.51 64.56 33.737C76.0118 36.303 71.0811 23.6748 67.6097 22.5177C72.389 21.6123 71.6849 15.7761 68.4147 13.8139C72.2382 9.28573 70.3412 3.80222 65.4785 3.09751C61.0422 -1.98403 54.3947 0.162431 51.5101 3.6843Z" fill="#263238"/>
<path d="M73.6772 37.2313C73.6868 39.4696 73.7684 41.8468 73.9357 44.1231C74.1029 46.4096 74.3603 48.6882 74.8553 50.7745C74.9086 51.0427 74.98 51.2922 75.0537 51.5394L75.2391 52.1942C75.3094 52.4113 75.344 52.4873 75.4182 52.5922C75.543 52.8059 76.3293 53.044 77.2812 52.9868C79.2032 52.8932 81.5158 52.18 83.5976 51.4027L84.9792 53.7482C84.4361 54.1666 83.9281 54.5068 83.3782 54.8498C82.835 55.1888 82.28 55.517 81.6972 55.8073C80.5338 56.3958 79.2967 56.9049 77.8675 57.2065C77.1503 57.3494 76.3787 57.4447 75.5169 57.3908C74.6653 57.329 73.6828 57.1062 72.761 56.5285C71.8335 55.9627 71.1072 55.0482 70.7047 54.1626L70.5618 53.8372L70.4716 53.5979L70.2919 53.1183C70.1695 52.7974 70.0521 52.4765 69.9608 52.1607C69.158 49.6146 68.7578 47.1104 68.4805 44.6152C68.3592 43.3674 68.2481 42.1229 68.2107 40.8791C68.1693 39.6233 68.133 38.4168 68.1812 37.1055L73.6772 37.2313Z" fill="#E3C290"/>
<path d="M71.1284 31.049C75.7677 35.1095 75.1083 42.1425 75.1083 42.1425L66.2345 43.6574C66.2345 43.6574 64.0194 36.3965 65.2769 33.8741C66.5894 31.2418 68.5176 28.7637 71.1284 31.049Z" fill="#407BFF"/>
<path opacity="0.3" d="M71.1284 31.049C75.7677 35.1095 75.1083 42.1425 75.1083 42.1425L66.2345 43.6574C66.2345 43.6574 64.0194 36.3965 65.2769 33.8741C66.5894 31.2418 68.5176 28.7637 71.1284 31.049Z" fill="white"/>
<path opacity="0.4" d="M68.6471 37.5508L65.3135 39.8582C65.7047 41.9219 66.2319 43.6568 66.2319 43.6568L69.2708 43.1409C69.1744 39.5804 68.6471 37.5508 68.6471 37.5508Z" fill="#407BFF"/>
<path d="M83.0847 51.8915L86.5073 48.8906L87.9099 54.0294C87.9099 54.0294 85.1024 55.3153 82.5977 53.7647L83.0847 51.8915Z" fill="#E3C290"/>
<path d="M90.9851 48.6836L91.315 52.693L87.9099 54.0259L86.5073 48.8871L90.9851 48.6836Z" fill="#E3C290"/>
<path d="M35.3545 162.512L40.3476 162.994L43.7748 151.274L38.7817 150.793L35.3545 162.512Z" fill="#E3C290"/>
<path d="M3.57617 142.764L7.03851 146.471L15.5801 138.239L12.1178 134.531L3.57617 142.764Z" fill="#E3C290"/>
<path d="M7.86044 146.455L5.41521 141.277C5.3262 141.089 5.12323 140.997 4.9265 141.057L0.550807 142.402C0.0972499 142.541 -0.132931 143.097 0.0802405 143.528C0.963543 145.319 1.4806 146.138 2.5561 148.416C3.21772 149.817 4.47464 153.013 5.38856 154.948C6.28206 156.84 8.26411 156.082 8.05661 155.195C7.12795 151.216 7.49363 149.059 7.94095 147.359C8.02145 147.053 7.99084 146.731 7.86044 146.455Z" fill="#263238"/>
<path d="M40.8714 161.469H34.8244C34.6044 161.469 34.406 161.622 34.347 161.836L33.0323 166.621C32.8956 167.117 33.2613 167.573 33.7699 167.578C35.9005 167.597 36.9108 167.587 39.5703 167.587C41.2065 167.587 45.4388 167.587 47.698 167.587C49.9074 167.587 50.3701 165.353 49.4556 165.151C45.356 164.244 42.993 162.993 41.7281 161.799C41.4996 161.584 41.1935 161.469 40.8714 161.469Z" fill="#263238"/>
<path opacity="0.2" d="M43.7731 151.274L42.0076 157.315H36.8711L38.7777 150.793L43.7731 151.274Z" fill="black"/>
<path opacity="0.2" d="M12.1141 134.531L15.5781 138.24L11.1735 142.482L7.70947 138.773L12.1141 134.531Z" fill="black"/>
<path d="M69.7006 30.2274C69.7006 30.2274 71.8448 31.3437 62.5123 60.1735C54.3919 58.9307 46 57.6466 42.0483 57.0417C43.6664 48.7654 44.4618 43.6311 43.0972 25.9299C43.0972 25.9299 47.5273 25.6532 51.962 26.1147C55.4311 26.4759 58.2692 26.7973 61.2542 27.5372C65.19 28.5124 69.7006 30.2274 69.7006 30.2274Z" fill="#407BFF"/>
<path opacity="0.3" d="M69.7006 30.2274C69.7006 30.2274 71.8448 31.3437 62.5123 60.1735C54.3919 58.9307 46 57.6466 42.0483 57.0417C43.6664 48.7654 44.4618 43.6311 43.0972 25.9299C43.0972 25.9299 47.5273 25.6532 51.962 26.1147C55.4311 26.4759 58.2692 26.7973 61.2542 27.5372C65.19 28.5124 69.7006 30.2274 69.7006 30.2274Z" fill="white"/>
<path d="M54.4847 15.793C54.6134 18.8726 54.3599 24.44 51.9629 26.1154C51.9629 26.1154 56.7445 32.2072 58.9505 38.2979C61.745 34.8129 61.2551 27.5378 61.2551 27.5378C58.0428 26.2316 58.5077 23.771 59.4437 21.5367L54.4847 15.793Z" fill="#E3C290"/>
<path opacity="0.2" d="M56.5055 18.1367L59.4412 21.5339C59.2178 22.0622 59.0239 22.6031 58.902 23.1394C57.6564 22.7602 55.9113 21.3258 55.9805 19.9714C56.0151 19.2961 56.3496 18.4298 56.5055 18.1367Z" fill="black"/>
<path d="M52.1077 10.8391C53.0624 15.8072 53.3606 17.9304 56.222 20.1738C60.5263 23.5483 66.4197 21.289 66.9685 16.136C67.4623 11.4979 65.8181 4.1525 60.6589 2.79353C55.5757 1.45384 51.153 5.87091 52.1077 10.8391Z" fill="#E3C290"/>
<path d="M51.0406 5.99821C49.0818 9.21053 63.6234 5.32751 64.56 3.98555C62.9142 1.78353 60.063 1.30219 57.1784 1.93944C54.2938 2.57725 51.8792 4.6228 51.0406 5.99821Z" fill="#263238"/>
<path d="M54.7972 4.95851C56.3273 6.8867 57.4992 12.191 52.9115 14.7633C50.0342 11.9013 50.1017 10.3252 50.0343 8.78256C49.9674 7.23934 53.1201 2.8455 54.7972 4.95851Z" fill="#263238"/>
<path d="M51.4328 14.9563C51.8524 15.9173 52.6761 16.5954 53.4835 16.8976C54.6979 17.3517 55.4151 16.2921 55.1701 15.0884C54.9496 14.005 54.0521 12.4629 52.7884 12.5253C51.5439 12.5876 50.9532 13.857 51.4328 14.9563Z" fill="#E3C290"/>
<path d="M62.5124 60.1761C62.5124 60.1761 67.4527 91.4364 61.3785 112.848C57.3101 127.188 44.1529 155.832 44.1529 155.832L35.3896 155.03C35.3896 155.03 45.9139 124.755 48.4674 112.744C52.8352 92.1989 47.528 57.8828 47.528 57.8828L62.5124 60.1761Z" fill="#263238"/>
<path opacity="0.2" d="M54.0745 65.8672L49.2305 72.5016C49.8757 79.7534 50.3972 88.8047 50.1132 97.4631C57.0124 86.8176 55.0626 71.8076 54.0745 65.8672Z" fill="black"/>
<path d="M45.4088 156.022L34.541 155.745L35.1698 152.406L46.2581 152.932L45.4088 156.022Z" fill="#407BFF"/>
<path d="M58.0345 59.5517C58.0345 59.5517 50.5803 90.7734 41.8652 108.724C34.826 123.223 13.248 142.392 13.248 142.392L8.69824 137.044C8.69824 137.044 23.6679 116.5 28.9099 106.864C41.7625 83.2353 34.0957 65.173 42.0489 57.043L58.0345 59.5517Z" fill="#263238"/>
<path d="M13.6977 143.097L7.80371 136.545L10.0794 133.84L16.3198 140.944L13.6977 143.097Z" fill="#407BFF"/>
<path d="M41.926 55.7926L40.7229 57.4833C40.6294 57.6142 40.7757 57.7849 41.0121 57.8211L62.4733 61.1055C62.6575 61.1338 62.8242 61.0669 62.8537 60.9524L63.3186 59.1489C63.3509 59.0242 63.2075 58.8921 63.0056 58.8609L42.2832 55.69C42.1307 55.6668 41.9861 55.7081 41.926 55.7926Z" fill="#407BFF"/>
<path d="M44.3545 58.5369L43.7994 58.4518C43.6889 58.4348 43.6135 58.3651 43.6316 58.2965L44.2564 55.9567C44.2745 55.8881 44.38 55.8461 44.4905 55.8632L45.0456 55.9482C45.1561 55.9652 45.2315 56.0349 45.2134 56.1035L44.5892 58.4433C44.5699 58.5114 44.465 58.5539 44.3545 58.5369Z" fill="#263238"/>
<path d="M60.8828 61.0642L60.3277 60.9792C60.2172 60.9622 60.1418 60.8924 60.1599 60.8238L60.7847 58.484C60.8028 58.4154 60.9083 58.3735 61.0188 58.3905L61.5739 58.4755C61.6844 58.4925 61.7598 58.5623 61.7417 58.6309L61.1169 60.9707C61.0988 61.0393 60.9933 61.0812 60.8828 61.0642Z" fill="#263238"/>
<path d="M52.6186 59.8025L52.0636 59.7175C51.953 59.7004 51.8776 59.6307 51.8958 59.5621L52.52 57.2223C52.5381 57.1537 52.6436 57.1118 52.7541 57.1288L53.3092 57.2138C53.4197 57.2308 53.4951 57.3006 53.477 57.3692L52.8522 59.709C52.8346 59.777 52.7292 59.8195 52.6186 59.8025Z" fill="#263238"/>
<path d="M60.3874 11.2134C60.4401 11.621 60.6986 11.9238 60.9657 11.8892C61.2321 11.8546 61.4056 11.4963 61.3529 11.0886C61.3002 10.681 61.0417 10.3783 60.7746 10.4128C60.5076 10.4474 60.3347 10.8057 60.3874 11.2134Z" fill="#263238"/>
<path d="M64.9963 10.6196C65.049 11.0273 65.3075 11.33 65.5745 11.2954C65.841 11.2608 66.0145 10.9025 65.9618 10.4949C65.909 10.0873 65.6505 9.78451 65.3835 9.8191C65.117 9.85311 64.9435 10.2114 64.9963 10.6196Z" fill="#263238"/>
<path d="M65.2686 9.85799L66.2114 9.44922C66.2114 9.44922 65.8077 10.2792 65.2686 9.85799Z" fill="#263238"/>
<path d="M63.3662 11.5195C63.3662 11.5195 64.2852 13.1858 65.1561 13.9342C64.6827 14.5062 63.7376 14.3951 63.7376 14.3951L63.3662 11.5195Z" fill="#630F0F"/>
<path d="M61.7502 16.189C60.3249 16.0955 59.5511 15.2094 59.5142 15.1657C59.4785 15.1238 59.483 15.0603 59.5255 15.024C59.5669 14.9883 59.6304 14.9928 59.6673 15.0353C59.6775 15.0466 60.6884 16.1976 62.4822 15.9645C62.5394 15.956 62.5876 15.9963 62.5944 16.0513C62.6018 16.1063 62.5627 16.1567 62.5077 16.1635C62.2372 16.1987 61.9844 16.2049 61.7502 16.189Z" fill="#263238"/>
<path d="M58.0765 9.1389C58.0413 9.13663 58.0062 9.12473 57.975 9.10318C57.8843 9.03968 57.8616 8.91496 57.9256 8.82368C58.6774 7.74648 59.7705 7.76859 59.817 7.76972C59.9332 7.78163 60.0137 7.86554 60.0109 7.97609C60.008 8.08664 59.9156 8.17396 59.8051 8.17112C59.7677 8.16999 58.8787 8.15979 58.2551 9.05329C58.2125 9.11339 58.1445 9.14344 58.0765 9.1389Z" fill="#263238"/>
<path d="M66.7056 7.77154C66.6728 7.76927 66.6399 7.75907 66.6098 7.73979C65.6868 7.14223 64.85 7.50281 64.8421 7.50621C64.74 7.55156 64.6221 7.50564 64.5773 7.40415C64.5325 7.30267 64.5779 7.18418 64.6794 7.13939C64.7219 7.12012 65.7259 6.68754 66.8281 7.40246C66.9211 7.46312 66.9477 7.58728 66.8876 7.68026C66.8468 7.74375 66.7759 7.77608 66.7056 7.77154Z" fill="#263238"/>
<path d="M45.5363 33.8284C44.6887 35.0564 43.7872 36.3178 42.943 37.581C42.0739 38.8351 41.219 40.0954 40.398 41.367C39.5907 42.6438 38.776 43.9092 38.0554 45.1849C37.6931 45.8221 37.345 46.4531 37.044 47.0722L36.828 47.5315L36.7735 47.6465L36.7463 47.7038C36.7355 47.7265 36.7253 47.7503 36.7424 47.7078C36.7611 47.6579 36.7741 47.6057 36.7803 47.5536C36.7945 47.4912 36.8076 47.4164 36.8076 47.3472C36.8336 47.0444 36.7265 46.6918 36.6154 46.524C36.4963 46.3409 36.4441 46.3142 36.4362 46.312C36.4305 46.325 36.604 46.4628 36.8297 46.5767C37.0587 46.6969 37.3439 46.8165 37.6466 46.9282C38.255 47.1527 38.9404 47.3449 39.6417 47.5167C41.0477 47.875 42.5343 48.1358 44.0287 48.3892C47.0228 48.866 50.1002 49.264 53.1452 49.615L53.1016 52.3369C49.9295 52.5416 46.7915 52.5875 43.5996 52.4174C42.0025 52.3386 40.4031 52.1895 38.7578 51.9446C37.9346 51.8102 37.1035 51.6497 36.2287 51.406C35.7904 51.2824 35.342 51.1406 34.8618 50.9411C34.381 50.7347 33.8645 50.496 33.2636 50.0073C32.9642 49.751 32.6337 49.4415 32.3309 48.9142C32.0305 48.4079 31.8241 47.6647 31.8797 46.9736C31.8938 46.808 31.9154 46.6368 31.9471 46.4786C31.9817 46.3329 32.0225 46.1878 32.069 46.0449L32.1155 45.9128L32.145 45.8357L32.2034 45.6815L32.4392 45.0658C32.7641 44.2619 33.1037 43.4971 33.4733 42.7623C34.2104 41.2911 34.9797 39.8782 35.8092 38.5113C36.6358 37.1456 37.4811 35.8019 38.3519 34.4781C39.25 33.1656 40.1225 31.8718 41.1005 30.582L45.5363 33.8284Z" fill="#E3C290"/>
<path d="M51.6081 50.1521L55.7615 48.2891L55.6187 52.773C55.6187 52.773 52.7454 53.6059 51.167 52.1919L51.6081 50.1521Z" fill="#E3C290"/>
<path d="M58.188 48.767L57.3245 52.6965L55.6191 52.773L55.762 48.2891L58.188 48.767Z" fill="#E3C290"/>
<path opacity="0.4" d="M46.0209 35.4297L43.7412 37.304C43.7922 38.9935 43.8036 40.5243 43.7866 41.9303C45.1671 41.0005 46.2301 37.2445 46.0209 35.4297Z" fill="#407BFF"/>
<path d="M43.0972 25.9285C40.5453 26.2091 36.5342 33.2132 36.5342 33.2132L43.6289 40.5024C43.6289 40.5024 47.9372 34.198 47.8833 30.8921C47.8374 28.0869 46.348 25.5713 43.0972 25.9285Z" fill="#407BFF"/>
<path opacity="0.3" d="M43.0972 25.9285C40.5453 26.2091 36.5342 33.2132 36.5342 33.2132L43.6289 40.5024C43.6289 40.5024 47.9372 34.198 47.8833 30.8921C47.8374 28.0869 46.348 25.5713 43.0972 25.9285Z" fill="white"/>
<path d="M8.65759 149.204C8.59183 149.2 8.5272 149.185 8.4637 149.159C7.87351 148.915 7.55091 147.772 7.41145 147.113C7.40294 147.074 7.41882 147.034 7.4517 147.01C7.48458 146.988 7.52767 146.986 7.56225 147.006C7.73971 147.115 9.29541 148.082 9.30618 148.723C9.30788 148.821 9.275 148.96 9.11115 149.067C8.95637 149.168 8.805 149.214 8.65759 149.204ZM7.6609 147.308C7.88201 148.22 8.2046 148.835 8.53967 148.973C8.68481 149.033 8.83448 149.008 8.99946 148.899C9.09471 148.837 9.10491 148.771 9.10378 148.726C9.09811 148.333 8.19327 147.658 7.6609 147.308Z" fill="#407BFF"/>
<path d="M9.00962 147.65C8.43757 147.613 7.7476 147.384 7.45109 147.175C7.42217 147.155 7.40573 147.12 7.40913 147.085C7.41254 147.049 7.43408 147.018 7.46639 147.002C7.52195 146.976 8.84521 146.358 9.51647 146.647C9.69166 146.722 9.81072 146.85 9.86911 147.028C9.96096 147.305 9.83113 147.454 9.74552 147.517C9.58394 147.637 9.31294 147.67 9.00962 147.65ZM7.72946 147.107C8.26012 147.376 9.3101 147.589 9.62532 147.356C9.67748 147.316 9.73134 147.251 9.67805 147.091C9.6378 146.969 9.55842 146.884 9.4371 146.832C8.97957 146.634 8.10421 146.952 7.72946 147.107Z" fill="#407BFF"/>
<path d="M43.555 162.453C42.9738 162.453 42.3423 162.34 41.904 162.243C41.8621 162.233 41.8309 162.199 41.8258 162.156C41.8212 162.113 41.8439 162.072 41.883 162.054C42.1319 161.937 44.3254 160.923 44.8782 161.297C44.9491 161.345 45.0307 161.437 45.0211 161.608C45.0075 161.844 44.9071 162.034 44.7223 162.174C44.4485 162.381 44.0182 162.453 43.555 162.453ZM42.2487 162.109C42.9001 162.231 44.1049 162.39 44.601 162.014C44.7387 161.91 44.8102 161.774 44.8204 161.597C44.8249 161.515 44.7932 161.483 44.7654 161.464C44.457 161.254 43.1598 161.708 42.2487 162.109Z" fill="#407BFF"/>
<path d="M41.9258 162.239C41.9025 162.239 41.8793 162.231 41.8611 162.215C41.8328 162.191 41.8197 162.153 41.8283 162.116C41.8492 162.024 42.347 159.861 43.5376 159.998C43.8358 160.034 43.9175 160.182 43.9333 160.3C44.0076 160.851 42.6242 161.961 41.9643 162.231C41.9513 162.236 41.9382 162.239 41.9258 162.239ZM43.4293 160.193C42.6685 160.193 42.2251 161.452 42.0783 161.956C42.7926 161.582 43.7814 160.679 43.7338 160.327C43.7304 160.301 43.7196 160.223 43.5127 160.198C43.4849 160.195 43.4565 160.193 43.4293 160.193Z" fill="#407BFF"/>
<path d="M60.6597 10.4517L61.6025 10.043C61.6025 10.043 61.1988 10.8724 60.6597 10.4517Z" fill="#263238"/>
<path d="M93.5232 1.77724L155.055 10.6205C156.294 10.7985 157.155 11.9477 156.976 13.187L134.826 167.316C134.648 168.555 133.499 169.415 132.259 169.237L70.7274 160.394C69.4881 160.216 68.628 159.067 68.806 157.827L90.9566 3.69862C91.1347 2.45928 92.2833 1.59922 93.5232 1.77724Z" fill="#407BFF"/>
<path opacity="0.2" d="M93.5232 1.77724L155.055 10.6205C156.294 10.7985 157.155 11.9477 156.976 13.187L134.826 167.316C134.648 168.555 133.499 169.415 132.259 169.237L70.7274 160.394C69.4881 160.216 68.628 159.067 68.806 157.827L90.9566 3.69862C91.1347 2.45928 92.2833 1.59922 93.5232 1.77724Z" fill="black"/>
<path opacity="0.3" d="M154.765 10.578L155.055 10.6194C156.294 10.7974 157.155 11.9466 156.976 13.186L134.826 167.315C134.648 168.554 133.498 169.414 132.259 169.236L131.969 169.195C130.73 169.017 129.869 167.868 130.048 166.628L152.198 12.4994C152.376 11.2601 153.525 10.4 154.765 10.578Z" fill="black"/>
<path d="M154.421 13.9335L95.5698 5.47266L73.7241 157.426L132.576 165.886L154.421 13.9335Z" fill="white"/>
<path opacity="0.2" d="M95.5779 5.47266L152.839 13.7019L131.127 164.781L73.7397 157.43L95.5779 5.47266Z" fill="#407BFF"/>
<path d="M95.5779 5.47266L151.689 11.679L129.85 163.636L73.7397 157.43L95.5779 5.47266Z" fill="white"/>
<path opacity="0.2" d="M95.5779 5.47266L150.132 11.4556L127.922 162.657L73.7397 157.43L95.5779 5.47266Z" fill="#407BFF"/>
<path d="M95.5779 5.47266L149.584 10.6483L127.189 161.85L73.7397 157.43L95.5779 5.47266Z" fill="white"/>
<path opacity="0.2" d="M95.5779 5.47266L147.391 10.438L125.405 160.892L73.7397 157.43L95.5779 5.47266Z" fill="#407BFF"/>
<path d="M95.5779 5.47266L145.715 9.8149L123.477 160.282L73.7397 157.43L95.5779 5.47266Z" fill="white"/>
<path opacity="0.2" d="M95.5779 5.47266L142.109 9.50308L119.872 160.076L73.7397 157.43L95.5779 5.47266Z" fill="#407BFF"/>
<path d="M107.2 -0.000847852L107.159 0.601562L110.879 0.85471L110.92 0.2523L107.2 -0.000847852Z" fill="#407BFF"/>
<path d="M114.48 0.495246L114.439 1.09766L125.435 1.84601L125.476 1.2436L114.48 0.495246Z" fill="#407BFF"/>
<path d="M137.919 4.2153L88.7631 0.866915C87.0793 0.752392 85.5916 1.95488 85.3518 3.62567L63.4762 155.841C63.2092 157.697 64.5778 159.389 66.4493 159.517L115.605 162.865C117.288 162.98 118.776 161.777 119.016 160.106L140.892 7.89138C141.158 6.03463 139.79 4.34287 137.919 4.2153Z" fill="#407BFF"/>
<path opacity="0.2" d="M112.105 158.166C112.059 158.166 112.014 158.164 111.969 158.161L68.2638 155.184C67.7037 155.146 67.1798 154.873 66.8266 154.437C66.474 154 66.317 153.432 66.3969 152.876L87.4952 6.06869C87.6449 5.02608 88.5821 4.26524 89.6366 4.33667L133.341 7.3137C133.901 7.35169 134.425 7.62382 134.779 8.06037C135.131 8.49692 135.288 9.06613 135.208 9.62174L114.11 156.429C113.967 157.426 113.1 158.166 112.105 158.166ZM89.5 4.93593C88.802 4.93593 88.1931 5.45469 88.0928 6.15487L66.9945 152.963C66.9378 153.358 67.0449 153.747 67.2961 154.058C67.5472 154.369 67.9055 154.555 68.3047 154.583L112.009 157.56C112.752 157.609 113.408 157.075 113.512 156.343L134.611 9.5367C134.667 9.14097 134.56 8.75205 134.309 8.4408C134.058 8.13011 133.7 7.94358 133.301 7.91637L89.5958 4.93934C89.564 4.93707 89.5317 4.93593 89.5 4.93593Z" fill="white"/>
</svg>
