<svg width="16" height="17" viewBox="0 0 16 17" fill="none" xmlns="http://www.w3.org/2000/svg">
<g clip-path="url(#clip0_4066_17385)">
<path d="M0.40079 8.40355C0.400418 9.74786 0.751674 11.0605 1.41958 12.2174L0.336914 16.1704L4.38231 15.1097C5.50122 15.7188 6.75486 16.038 8.02882 16.0381H8.03217C12.2378 16.0381 15.6612 12.6159 15.663 8.40956C15.6638 6.3713 14.8707 4.45465 13.4299 3.01266C11.9893 1.5708 10.0733 0.776321 8.03186 0.775391C3.82578 0.775391 0.402588 4.19741 0.400852 8.40355" fill="url(#paint0_linear_4066_17385)"/>
<path d="M0.128368 8.40177C0.127934 9.79445 0.491779 11.154 1.1835 12.3524L0.0620117 16.4471L4.25246 15.3484C5.40707 15.9779 6.70704 16.3098 8.02983 16.3103H8.03324C12.3897 16.3103 15.9361 12.765 15.938 8.40809C15.9387 6.29659 15.1171 4.31104 13.6248 2.8174C12.1323 1.32394 10.1478 0.500868 8.03324 0.5C3.67603 0.5 0.130105 4.04481 0.128368 8.40177ZM2.62393 12.146L2.46747 11.8976C1.80973 10.8518 1.46257 9.64326 1.46307 8.40226C1.46443 4.78087 4.41166 1.83457 8.03572 1.83457C9.79076 1.83532 11.4401 2.51947 12.6807 3.76078C13.9212 5.0022 14.6038 6.65243 14.6033 8.4076C14.6017 12.029 11.6544 14.9757 8.03324 14.9757H8.03063C6.85153 14.975 5.69513 14.6584 4.68663 14.06L4.44663 13.9177L1.95993 14.5696L2.62393 12.146Z" fill="url(#paint1_linear_4066_17385)"/>
<path d="M6.05753 5.09782C5.90956 4.76895 5.75384 4.76232 5.61313 4.75655C5.4979 4.75159 5.36618 4.75196 5.23459 4.75196C5.10286 4.75196 4.88885 4.80151 4.70795 4.99903C4.52687 5.19673 4.0166 5.6745 4.0166 6.64622C4.0166 7.61794 4.72438 8.55711 4.82305 8.68901C4.92184 8.82067 6.18944 10.8786 8.197 11.6703C9.86547 12.3282 10.205 12.1974 10.5671 12.1644C10.9293 12.1315 11.7357 11.6867 11.9003 11.2255C12.0649 10.7644 12.0649 10.3691 12.0155 10.2865C11.9662 10.2042 11.8345 10.1547 11.6369 10.056C11.4394 9.95729 10.4683 9.4794 10.2873 9.41348C10.1062 9.34762 9.97456 9.31475 9.84283 9.51252C9.71111 9.70998 9.33288 10.1548 9.21759 10.2865C9.10243 10.4185 8.98714 10.4349 8.78969 10.3361C8.59204 10.237 7.95595 10.0287 7.20128 9.35593C6.61412 8.83239 6.21772 8.18588 6.10249 7.98811C5.98727 7.79066 6.09015 7.68362 6.18919 7.5852C6.27794 7.4967 6.38677 7.35456 6.48562 7.23928C6.58411 7.12393 6.61697 7.04163 6.68283 6.90991C6.74876 6.77807 6.71576 6.66272 6.66646 6.56393C6.61697 6.46514 6.23316 5.48833 6.05753 5.09782Z" fill="white"/>
</g>
<defs>
<linearGradient id="paint0_linear_4066_17385" x1="766.641" y1="1540.28" x2="766.641" y2="0.775391" gradientUnits="userSpaceOnUse">
<stop stop-color="#1FAF38"/>
<stop offset="1" stop-color="#60D669"/>
</linearGradient>
<linearGradient id="paint1_linear_4066_17385" x1="793.86" y1="1595.21" x2="793.86" y2="0.5" gradientUnits="userSpaceOnUse">
<stop stop-color="#F9F9F9"/>
<stop offset="1" stop-color="white"/>
</linearGradient>
<clipPath id="clip0_4066_17385">
<rect width="15.876" height="16" fill="white" transform="translate(0.0620117 0.5)"/>
</clipPath>
</defs>
</svg>
