<svg width="29" height="29" viewBox="0 0 29 29" fill="none" xmlns="http://www.w3.org/2000/svg">
<g clip-path="url(#clip0_1_112537)">
<path d="M1.55211 14.619C1.55145 16.9716 2.17095 19.2687 3.34892 21.2934L1.43945 28.2111L8.5742 26.3548C10.5476 27.4208 12.7586 27.9793 15.0055 27.9795H15.0114C22.4286 27.9795 28.4665 21.9906 28.4696 14.6296C28.4711 11.0626 27.0724 7.70847 24.5311 5.185C21.9904 2.66174 18.6112 1.2714 15.0108 1.26978C7.59267 1.26978 1.55528 7.2583 1.55222 14.619" fill="url(#paint0_linear_1_112537)"/>
<path d="M1.07016 14.6172C1.06939 17.0544 1.71109 19.4336 2.93106 21.5308L0.953125 28.6965L8.3437 26.7737C10.38 27.8754 12.6728 28.4562 15.0057 28.4571H15.0117C22.6951 28.4571 28.9498 22.2528 28.9531 14.6282C28.9544 10.9331 27.5054 7.45838 24.8734 4.8445C22.2411 2.23095 18.7411 0.790582 15.0117 0.789062C7.32706 0.789062 1.07322 6.99247 1.07016 14.6172ZM5.47152 21.1696L5.19556 20.7349C4.03553 18.9047 3.42325 16.7898 3.42412 14.618C3.42653 8.28058 8.62447 3.12457 15.0161 3.12457C18.1114 3.12587 21.0204 4.32314 23.2083 6.49542C25.3961 8.66792 26.6 11.5558 26.5993 14.6274C26.5964 20.9648 21.3984 26.1215 15.0117 26.1215H15.0072C12.9276 26.1204 10.8881 25.5662 9.10944 24.5191L8.68616 24.27L4.30044 25.4109L5.47152 21.1696Z" fill="url(#paint1_linear_1_112537)"/>
<path d="M11.5273 8.83305C11.2663 8.25753 10.9917 8.24592 10.7435 8.23583C10.5403 8.22714 10.308 8.22779 10.0759 8.22779C9.84355 8.22779 9.46609 8.31451 9.14705 8.66017C8.82767 9.00615 7.92773 9.84224 7.92773 11.5428C7.92773 13.2433 9.17603 14.8868 9.35005 15.1176C9.52428 15.348 11.7599 18.9494 15.3006 20.3349C18.2432 21.4862 18.842 21.2572 19.4807 21.1995C20.1194 21.142 21.5417 20.3636 21.8319 19.5565C22.1223 18.7495 22.1223 18.0577 22.0353 17.9132C21.9482 17.7692 21.7159 17.6827 21.3675 17.5099C21.0192 17.3371 19.3065 16.5008 18.9872 16.3855C18.6678 16.2702 18.4356 16.2127 18.2033 16.5588C17.971 16.9043 17.3039 17.6827 17.1006 17.9132C16.8975 18.1442 16.6941 18.173 16.3459 18.0001C15.9973 17.8267 14.8755 17.4622 13.5445 16.2847C12.5089 15.3686 11.8098 14.2372 11.6066 13.8911C11.4033 13.5455 11.5848 13.3582 11.7595 13.186C11.916 13.0311 12.1079 12.7824 12.2823 12.5806C12.456 12.3787 12.5139 12.2347 12.6301 12.0042C12.7464 11.7735 12.6882 11.5716 12.6012 11.3987C12.5139 11.2259 11.837 9.51645 11.5273 8.83305Z" fill="white"/>
</g>
<defs>
<linearGradient id="paint0_linear_1_112537" x1="1352.95" y1="2695.4" x2="1352.95" y2="1.26978" gradientUnits="userSpaceOnUse">
<stop stop-color="#1FAF38"/>
<stop offset="1" stop-color="#60D669"/>
</linearGradient>
<linearGradient id="paint1_linear_1_112537" x1="1400.95" y1="2791.53" x2="1400.95" y2="0.789062" gradientUnits="userSpaceOnUse">
<stop stop-color="#F9F9F9"/>
<stop offset="1" stop-color="white"/>
</linearGradient>
<clipPath id="clip0_1_112537">
<rect width="28" height="28" fill="white" transform="translate(0.953125 0.789062)"/>
</clipPath>
</defs>
</svg>
