<svg width="31" height="30" viewBox="0 0 31 30" fill="none" xmlns="http://www.w3.org/2000/svg">
<g clip-path="url(#clip0_96_3216)">
<mask id="mask0_96_3216" style="mask-type:luminance" maskUnits="userSpaceOnUse" x="0" y="0" width="31" height="30">
<path d="M0.320312 0.21875H30.0803V29.9788H0.320312V0.21875Z" fill="white"/>
</mask>
<g mask="url(#mask0_96_3216)">
<path d="M14.8603 1.34694L2.73308 7.5984C2.46803 7.75464 2.39084 7.98714 2.39363 8.3238L2.41688 8.74509L15.2211 15.3109L27.9947 8.84925C27.9947 8.84925 28.0086 8.78415 28.0086 8.5563C28.0086 8.5563 27.9965 8.25684 27.9296 8.11734C27.8552 7.95924 27.6971 7.81695 27.5948 7.73139C27.2823 7.47025 26.9449 7.24037 26.5876 7.04505C19.9548 3.29529 15.5922 1.36275 15.5922 1.36275C15.3113 1.25859 15.0788 1.22139 14.8603 1.34694Z" fill="#DEA66C"/>
<path d="M2.58411 22.5796C3.29091 23.0474 4.58175 23.6612 5.88561 24.367C8.91741 26.0085 12.749 28.0033 14.6555 28.7873C14.9141 28.8943 15.0675 28.9454 15.2461 28.9547C15.3781 28.9622 15.5967 28.8738 15.5967 28.8738L15.221 15.3098C15.1996 14.5937 14.9001 14.3565 14.6351 14.1845C14.2203 13.9185 13.3238 13.5056 13.3238 13.5056C13.3238 13.5056 10.1804 11.9432 7.0416 10.2971C5.54895 9.51306 4.2888 8.7114 2.93286 8.0511C2.68455 7.93206 2.3916 8.08086 2.3916 8.35986V22.2634C2.3916 22.3964 2.47251 22.507 2.58411 22.5796Z" fill="#B38251"/>
<path d="M27.6571 22.6617L15.6229 28.8667C15.5787 28.8895 15.5294 28.9005 15.4797 28.8988C15.4299 28.897 15.3815 28.8825 15.339 28.8566C15.2965 28.8308 15.2614 28.7944 15.237 28.7511C15.2126 28.7077 15.1998 28.6588 15.1998 28.6091L15.2211 15.3147C15.2211 15.1864 15.1812 14.9055 15.1421 14.7939C15.0324 14.4684 15.2695 14.3382 15.3765 14.2843L27.313 8.13699C27.3857 8.09954 27.4667 8.0814 27.5484 8.08428C27.6301 8.08717 27.7097 8.11099 27.7795 8.15347C27.8493 8.19595 27.9071 8.25566 27.9472 8.32687C27.9873 8.39808 28.0085 8.4784 28.0086 8.56014V22.0898C28.0084 22.2081 27.9754 22.3241 27.9134 22.4249C27.8514 22.5256 27.7627 22.6082 27.6571 22.6617Z" fill="#966239"/>
<path opacity="0.5" d="M22.2813 11.2871C22.2813 11.2871 15.6857 14.6603 15.5788 14.9467C15.4709 15.2294 20.7533 12.6914 21.3727 12.3725C22.072 12.0125 27.5683 9.07375 27.5683 8.75011C27.5702 8.48506 22.2813 11.2871 22.2813 11.2871Z" fill="#212121"/>
<g opacity="0.5">
<path d="M3.29883 21.8094C4.15629 22.2409 5.00724 22.6873 6.06744 23.2295V22.8156C5.01189 22.2762 4.15908 21.8317 3.29883 21.3946V21.8094ZM5.10489 21.9972L5.69544 22.2995L5.70009 20.4981L5.11419 20.1977C5.10954 20.9184 5.10768 21.2765 5.10489 21.9972ZM3.60294 21.2253L4.14234 21.5015L4.15443 19.7066C3.92379 19.5885 3.81219 19.5327 3.61038 19.4258L3.60294 21.2253Z" fill="#212121"/>
<path d="M4.72638 20.2162L6.05628 20.8951C5.81448 20.4552 5.68149 20.232 5.41644 19.7809C5.14488 19.9576 5.00259 20.0441 4.72638 20.2162ZM3.29883 19.4824C3.70989 19.6963 3.98703 19.8386 4.53108 20.1167C4.26138 19.6637 4.12653 19.4378 3.87729 18.9941C3.62433 19.1783 3.50529 19.2731 3.29883 19.4824Z" fill="#212121"/>
</g>
<g opacity="0.5">
<path d="M7.7151 23.7997C7.90761 23.8992 8.00712 23.9532 8.20056 24.0527C8.18661 23.1971 8.1801 22.7693 8.16336 21.9137L7.69836 21.6719L7.7151 23.7997Z" fill="#212121"/>
<path d="M7.00611 23.6467C7.71291 24.0187 8.26161 24.2977 8.94051 24.6604C8.93586 24.4158 8.748 24.121 8.49225 23.9834C8.09235 23.7723 7.8645 23.656 7.45995 23.444C7.19955 23.3119 7.00611 23.4068 7.00611 23.6467ZM8.35182 21.2306L8.64942 21.8602C8.55642 22.0583 8.50806 22.1578 8.41041 22.3531L8.61966 22.3373C8.73126 22.1885 8.78706 22.1141 8.89401 21.9653C8.79636 21.7356 8.74521 21.6193 8.64291 21.3887C8.92656 21.544 9.06606 21.6231 9.32367 21.7746C9.32367 22.607 8.77962 22.9743 7.96122 22.5465C7.14282 22.1215 6.60156 21.1701 6.60156 20.3359C7.21071 20.64 7.61991 20.84 8.35182 21.2306Z" fill="#212121"/>
</g>
<path d="M23.7414 9.86742C23.6251 9.78093 11.1427 3.25977 11.1427 3.25977L7.26831 5.26113L20.067 11.8623L20.0744 11.8688L23.8195 9.95112C23.8195 9.95112 23.8121 9.93252 23.7916 9.90927L23.7414 9.86742Z" fill="#FFE0B2"/>
<path d="M23.802 9.92476C22.5431 10.5434 21.2982 11.1899 20.068 11.8638C20.122 11.9168 20.1238 11.9866 20.1238 12.0219L20.1052 12.7724C20.0727 14.1563 20.0541 15.542 20.0076 16.9249C20.1629 16.8319 20.3517 17.0365 20.493 16.9249C20.7116 16.7528 21.1766 15.9949 21.2463 15.9716C21.3393 15.9419 21.4398 15.9642 21.5346 15.9605C21.9531 15.9372 22.8906 15.0835 23.0905 15.0444C23.283 15.0072 23.921 15.13 23.921 15.13C23.921 15.13 23.8764 10.9096 23.8596 10.201C23.855 9.94987 23.802 9.92476 23.802 9.92476Z" fill="#BF9F85"/>
</g>
</g>
<defs>
<clipPath id="clip0_96_3216">
<rect width="29.76" height="29.76" fill="white" transform="translate(0.32019 0.220703)"/>
</clipPath>
</defs>
</svg>
